<svg width="500" height="606" viewBox="0 0 500 606" fill="none" xmlns="http://www.w3.org/2000/svg">
<path d="M135.803 256.653H135.255V440.811H135.803V256.653Z" fill="white"/>
<path d="M137.64 256.653H135.803V440.811H137.64V256.653Z" fill="white"/>
<path d="M139.479 256.653H137.641V440.811H139.479V256.653Z" fill="#FEFEFE"/>
<path d="M141.316 256.653H139.478V440.811H141.316V256.653Z" fill="#FDFDFE"/>
<path d="M143.154 256.653H141.316V440.811H143.154V256.653Z" fill="#FCFCFD"/>
<path d="M144.99 256.653H143.153V440.811H144.99V256.653Z" fill="#FCFBFD"/>
<path d="M146.827 256.653H144.99V440.811H146.827V256.653Z" fill="#FBFAFC"/>
<path d="M148.667 256.653H146.83V440.811H148.667V256.653Z" fill="#FAF9FB"/>
<path d="M150.504 256.653H148.667V440.811H150.504V256.653Z" fill="#F9F8FB"/>
<path d="M152.342 256.653H150.504V440.811H152.342V256.653Z" fill="#F8F7FA"/>
<path d="M154.179 256.653H152.341V440.811H154.179V256.653Z" fill="#F7F6FA"/>
<path d="M156.017 256.653H154.18V440.811H156.017V256.653Z" fill="#F7F5F9"/>
<path d="M157.854 256.653H156.017V440.811H157.854V256.653Z" fill="#F6F4F8"/>
<path d="M159.692 256.653H157.854V440.811H159.692V256.653Z" fill="#F5F3F8"/>
<path d="M161.53 256.653H159.692V440.811H161.53V256.653Z" fill="#F4F2F7"/>
<path d="M163.367 256.653H161.529V440.811H163.367V256.653Z" fill="#F3F1F7"/>
<path d="M165.204 256.653H163.367V440.811H165.204V256.653Z" fill="#F2F0F6"/>
<path d="M167.043 256.653H165.206V440.811H167.043V256.653Z" fill="#F1EFF5"/>
<path d="M168.881 256.653H167.043V440.811H168.881V256.653Z" fill="#F1EEF5"/>
<path d="M170.718 256.653H168.88V440.811H170.718V256.653Z" fill="#F0EDF4"/>
<path d="M172.555 256.653H170.718V440.811H172.555V256.653Z" fill="#EFECF4"/>
<path d="M174.393 256.653H172.555V440.811H174.393V256.653Z" fill="#EEEBF3"/>
<path d="M176.231 256.653H174.393V440.811H176.231V256.653Z" fill="#EDEAF2"/>
<path d="M178.069 256.653H176.231V440.811H178.069V256.653Z" fill="#ECE9F2"/>
<path d="M179.906 256.653H178.068V440.811H179.906V256.653Z" fill="#ECE8F1"/>
<path d="M181.743 256.653H179.906V440.811H181.743V256.653Z" fill="#EBE7F1"/>
<path d="M183.581 256.653H181.743V440.811H183.581V256.653Z" fill="#EAE6F0"/>
<path d="M185.419 256.653H183.582V440.811H185.419V256.653Z" fill="#E9E5EF"/>
<path d="M187.257 256.653H185.419V440.811H187.257V256.653Z" fill="#E8E4EF"/>
<path d="M189.094 256.653H187.256V440.811H189.094V256.653Z" fill="#E7E3EE"/>
<path d="M190.932 256.653H189.094V440.811H190.932V256.653Z" fill="#E7E2EE"/>
<path d="M192.77 256.653H190.933V440.811H192.77V256.653Z" fill="#E6E0ED"/>
<path d="M194.608 256.653H192.77V440.811H194.608V256.653Z" fill="#E5DFEC"/>
<path d="M196.445 256.653H194.607V440.811H196.445V256.653Z" fill="#E4DEEC"/>
<path d="M198.282 256.653H196.445V440.811H198.282V256.653Z" fill="#E3DDEB"/>
<path d="M200.12 256.653H198.282V440.811H200.12V256.653Z" fill="#E2DCEA"/>
<path d="M201.957 256.653H200.12V440.811H201.957V256.653Z" fill="#E1DBEA"/>
<path d="M203.795 256.653H201.957V440.811H203.795V256.653Z" fill="#E1DAE9"/>
<path d="M205.634 256.653H203.796V440.811H205.634V256.653Z" fill="#E0D9E9"/>
<path d="M207.471 256.653H205.633V440.811H207.471V256.653Z" fill="#DFD8E8"/>
<path d="M209.307 256.653H207.47V440.811H209.307V256.653Z" fill="#DED7E7"/>
<path d="M211.146 256.653H209.309V440.811H211.146V256.653Z" fill="#DDD6E7"/>
<path d="M212.984 256.653H211.146V440.811H212.984V256.653Z" fill="#DCD5E6"/>
<path d="M214.821 256.653H212.983V440.811H214.821V256.653Z" fill="#DCD4E6"/>
<path d="M216.658 256.653H214.821V440.811H216.658V256.653Z" fill="#DBD3E5"/>
<path d="M218.495 256.653H216.658V440.811H218.495V256.653Z" fill="#DAD2E4"/>
<path d="M220.333 256.653H218.496V440.811H220.333V256.653Z" fill="#D9D1E4"/>
<path d="M222.171 256.653H220.333V440.811H222.171V256.653Z" fill="#D8D0E3"/>
<path d="M224.01 256.653H222.172V440.811H224.01V256.653Z" fill="#D7CFE3"/>
<path d="M225.846 256.653H224.009V440.811H225.846V256.653Z" fill="#D6CEE2"/>
<path d="M227.684 256.653H225.846V440.811H227.684V256.653Z" fill="#D6CDE1"/>
<path d="M229.522 256.653H227.684V440.811H229.522V256.653Z" fill="#D5CCE1"/>
<path d="M231.36 256.653H229.522V440.811H231.36V256.653Z" fill="#D4CBE0"/>
<path d="M233.197 256.653H231.359V440.811H233.197V256.653Z" fill="#D3CAE0"/>
<path d="M235.035 256.653H233.197V440.811H235.035V256.653Z" fill="#D2C9DF"/>
<path d="M236.872 256.653H235.035V440.811H236.872V256.653Z" fill="#D1C8DE"/>
<path d="M238.71 256.653H236.873V440.811H238.71V256.653Z" fill="#D1C7DE"/>
<path d="M240.547 256.653H238.709V440.811H240.547V256.653Z" fill="#D0C6DD"/>
<path d="M242.386 256.653H240.548V440.811H242.386V256.653Z" fill="#CFC5DD"/>
<path d="M244.223 256.653H242.386V440.811H244.223V256.653Z" fill="#CEC4DC"/>
<path d="M245.226 256.653H244.223V440.811H245.226V256.653Z" fill="#CEC4DC"/>
<path d="M198.859 429.231C187.005 429.231 176.928 425.369 169.202 417.759C142.948 391.897 133.092 310.617 132.472 283.935C131.976 262.581 151.562 254.578 161.99 253.329C162.498 253.265 163.011 253.324 163.491 253.494C169.731 255.689 201.115 267.026 206.259 274.68C209.733 279.847 224.711 328.446 229.218 343.217C248.492 406.377 247.699 409.03 247.401 410.03C246.165 414.16 230.476 423.119 215.503 426.973C209.646 428.482 204.079 429.231 198.859 429.231ZM162.055 260.084C157.946 260.772 138.713 264.995 139.15 283.779C139.728 308.695 149.403 388.869 173.884 412.983C180.919 419.915 190.296 423.102 201.719 422.447C219.729 421.422 236.992 411.342 240.766 407.987C238.456 394.169 204.604 284.365 200.719 278.418C197.897 274.221 176.689 265.285 162.055 260.084ZM240.884 408.917C240.884 408.917 240.884 408.917 240.884 408.918V408.917Z" fill="#200656"/>
<path d="M148.5 535.682C129.131 577.108 72.9218 565.326 72.9218 565.326L77.5969 551.937C53.9403 560.787 28.9747 561.671 3.46143 559.301C4.15613 558.136 4.87738 556.984 5.61215 555.846C17.5005 537.276 33.4229 522.293 55.1026 512.439L47.542 508.007C73.3493 479.421 115.439 467.143 142.382 490.132L146.991 524.422L148.5 535.682Z" fill="#FF0000"/>
<path d="M138.726 499.632C113.27 489.235 95.4037 496.432 81.0443 510.156L86.8882 513.684C86.8882 513.684 71.5268 526.39 62.1763 535.261H94.2349L91.3965 543.127C91.3965 543.127 120.864 551.786 143.282 525.113" fill="#FFB000"/>
<path d="M94.9033 522.504C94.9033 522.504 110.766 505.698 128.965 508.011L129.8 519.579C129.8 519.579 113.938 528.325 94.9033 522.504Z" fill="#FFF200"/>
<path d="M90.5849 570.228C80.1446 570.228 72.665 568.697 72.2359 568.606C71.2942 568.41 70.4832 567.816 70.0105 566.976C69.5379 566.137 69.4484 565.134 69.7665 564.225L72.1721 557.335C52.5126 563.471 30.3613 565.157 3.15136 562.638C2.00696 562.533 0.99677 561.844 0.478278 560.816C-0.0402139 559.79 0.00444365 558.566 0.596075 557.579C12.7997 537.254 28.354 522.345 48.0159 512.166L45.8531 510.9C44.9844 510.392 44.3903 509.518 44.2373 508.521C44.084 507.525 44.3869 506.511 45.0623 505.763C70.9049 477.151 115.18 462.528 144.544 487.578C145.947 488.777 146.117 490.89 144.922 492.298C143.724 493.705 141.617 493.871 140.214 492.677C114.959 471.127 76.8287 482.994 52.8566 507.248L56.7921 509.553C57.8706 510.184 58.5069 511.365 58.4434 512.615C58.3785 513.865 57.6232 514.976 56.4858 515.492C36.9441 524.366 21.4333 537.785 9.21082 556.423C35.9127 558.374 57.385 555.922 76.4258 548.804C77.6363 548.353 79.0047 548.641 79.93 549.55C80.8552 550.458 81.1724 551.822 80.7444 553.047L77.3923 562.648C89.9612 564.279 130.289 566.739 145.476 534.259C146.259 532.584 148.249 531.863 149.917 532.647C151.587 533.433 152.307 535.425 151.525 537.099C143.1 555.118 126.63 566.271 103.894 569.356C99.1711 569.996 94.6522 570.228 90.5849 570.228Z" fill="#200656"/>
<path d="M246.68 552.552C246.68 552.552 244.356 560.679 239.12 570.145C233.656 579.986 225.067 591.287 212.658 596.401C192.114 604.876 169.446 601.65 156.301 598.423C152.201 597.419 151.6 591.836 155.366 589.948L177.433 578.875C179.958 577.603 182.068 575.621 183.511 573.171L189.656 562.688L199.928 545.188L246.68 552.552Z" fill="#FF0000"/>
<g opacity="0.3">
<path opacity="0.3" d="M246.68 552.552C246.68 552.552 246.68 552.579 246.667 552.619C246.653 552.646 246.64 552.673 246.64 552.7C246.627 552.753 246.6 552.834 246.573 552.914C246.546 552.981 246.533 553.048 246.506 553.128C246.466 553.249 246.426 553.396 246.373 553.57C246.266 553.891 246.132 554.293 245.972 554.762C245.892 554.989 245.812 555.244 245.705 555.512C245.611 555.779 245.518 556.061 245.411 556.355C244.209 559.609 242.151 564.656 239.119 570.146C228.713 569.434 218.547 568.247 208.727 566.592C201.782 565.423 194.843 568.654 191.273 574.738L189.308 578.085C187.865 580.536 185.755 582.517 183.23 583.789L161.163 594.862C159.44 595.719 158.638 597.352 158.652 598.972C157.837 598.798 157.049 598.611 156.301 598.423C152.2 597.419 151.599 591.836 155.366 589.948L177.433 578.875C179.957 577.604 182.068 575.622 183.51 573.172L189.655 562.688L199.927 545.188L246.68 552.552Z" fill="#200656"/>
</g>
<path d="M183.195 605.129C172.064 605.129 162.133 603.303 155.509 601.68C152.274 600.888 149.941 598.23 149.566 594.908C149.191 591.575 150.882 588.451 153.873 586.95L175.939 575.876C177.898 574.892 179.52 573.373 180.63 571.48L197.05 543.494C197.984 541.901 200.031 541.365 201.621 542.306C203.211 543.243 203.742 545.294 202.806 546.887L186.387 574.874C184.622 577.883 182.044 580.299 178.93 581.862L156.862 592.936C156.207 593.265 156.168 593.843 156.203 594.158C156.246 594.533 156.434 595.015 157.094 595.177C168.758 598.034 191.318 601.587 211.387 593.309C233.916 584.014 243.378 551.952 243.472 551.629C243.982 549.854 245.83 548.827 247.605 549.34C249.377 549.851 250.4 551.704 249.89 553.479C249.477 554.923 239.467 588.963 213.928 599.5C203.715 603.714 192.989 605.129 183.195 605.129Z" fill="#200656"/>
<path d="M216.171 420.937L184.954 449.228L181.067 452.749L152.041 438.343C149.503 437.084 146.657 436.589 143.853 436.91L119.341 439.749C119.034 439.789 118.74 439.789 118.46 439.762C114.813 439.521 112.809 434.996 115.481 432.13C124.724 422.236 141.929 407.092 163.756 402.915C189.603 397.961 216.171 420.937 216.171 420.937Z" fill="#FF0000"/>
<g opacity="0.3">
<path opacity="0.3" d="M184.953 449.228L181.066 452.749L152.04 438.342C149.502 437.084 146.656 436.588 143.852 436.91L119.34 439.748C119.033 439.788 118.739 439.788 118.458 439.762L119.674 437.244C119.674 437.244 145.602 427.377 151.172 427.564C156.742 427.751 178.555 437.352 190.911 431.326C198.017 427.859 191.645 439.079 184.953 449.228Z" fill="#200656"/>
</g>
<g opacity="0.6">
<path opacity="0.6" d="M216.171 420.937L211.99 424.726C203.508 418.58 183.431 406.169 163.755 409.931C142.249 414.055 125.231 428.823 115.894 438.717C114.064 437.178 113.543 434.219 115.48 432.13C124.724 422.236 141.928 407.092 163.755 402.915C189.603 397.961 216.171 420.937 216.171 420.937Z" fill="white"/>
</g>
<path d="M181.065 456.101C180.566 456.101 180.062 455.989 179.584 455.752L150.559 441.341C148.594 440.365 146.401 439.982 144.233 440.237L119.719 443.075C116.398 443.452 113.277 441.772 111.769 438.778C110.269 435.794 110.768 432.29 113.043 429.851C121.799 420.466 139.947 404.061 163.123 399.622C190.246 394.425 217.219 417.423 218.353 418.405C219.748 419.612 219.904 421.724 218.7 423.124C217.495 424.524 215.39 424.682 213.99 423.474C213.737 423.257 188.309 401.62 164.377 406.198C143.06 410.279 126.121 425.634 117.921 434.423C117.458 434.92 117.563 435.427 117.733 435.765C117.876 436.047 118.234 436.51 118.953 436.424L143.466 433.586C146.921 433.184 150.401 433.792 153.523 435.342L182.55 449.754C184.202 450.575 184.877 452.583 184.059 454.239C183.477 455.418 182.294 456.101 181.065 456.101Z" fill="#200656"/>
<path d="M178.636 545.188L156.062 541.077C153.23 540.555 150.732 538.935 149.102 536.579C144.534 529.951 141.742 521.958 140.206 513.683C137.962 501.566 138.416 488.833 139.939 478.885C140.42 475.819 142.21 473.128 144.828 471.467L163.235 459.779L174.028 519.601L178.636 545.188Z" fill="#178BFF"/>
<g opacity="0.3">
<path opacity="0.3" d="M178.635 545.188L156.061 541.078C153.229 540.556 150.731 538.935 149.101 536.579C144.533 529.951 141.741 521.958 140.205 513.684C143.999 516.455 152.815 520.78 170.153 519.655C171.542 519.562 172.838 519.548 174.027 519.602L178.635 545.188Z" fill="#200656"/>
</g>
<path d="M449.374 433.999L303.216 398.826H449.374V433.999Z" fill="#CEC4DC"/>
<path d="M449.373 436.772L291.689 398.826H303.216L449.373 433.999V436.772Z" fill="#CEC4DC"/>
<path d="M449.374 439.546L280.164 398.826H291.69L449.373 436.772L449.374 439.546Z" fill="#CEC4DC"/>
<path d="M449.375 442.32L268.639 398.826H280.164L449.374 439.546L449.375 442.32Z" fill="#CEC4DC"/>
<path d="M449.375 445.093L257.113 398.826H268.639L449.375 442.32L449.375 445.093Z" fill="#CEC4DC"/>
<path d="M449.374 447.867L245.586 398.826H257.112L449.374 445.093V447.867Z" fill="#CEC4DC"/>
<path d="M449.377 449.37L449.13 450.582L234.063 398.826H245.589L449.377 447.867V449.37Z" fill="#CEC4DC"/>
<path d="M449.127 450.582L448.589 453.226L222.534 398.826H234.06L449.127 450.582Z" fill="#CEC4DC"/>
<path d="M448.591 453.226L448.053 455.87L211.011 398.826H222.537L448.591 453.226Z" fill="#CEC4DC"/>
<path d="M448.053 455.87L447.513 458.514L199.484 398.826H211.011L448.053 455.87Z" fill="#CEC4DC"/>
<path d="M447.513 458.514L446.974 461.158L187.957 398.826H199.484L447.513 458.514Z" fill="#CEC4DC"/>
<path d="M446.974 461.158L446.436 463.802L183.28 400.474L183.616 398.826H187.957L446.974 461.158Z" fill="#CEC4DC"/>
<path d="M183.276 400.455L182.737 403.099L445.904 466.416L446.442 463.771L183.276 400.455Z" fill="#CEC4DC"/>
<path d="M182.737 403.092L182.199 405.736L445.365 469.053L445.903 466.409L182.737 403.092Z" fill="#CEC4DC"/>
<path d="M182.198 405.739L181.66 408.383L444.826 471.7L445.365 469.056L182.198 405.739Z" fill="#CEC4DC"/>
<path d="M181.659 408.385L181.121 411.03L444.287 474.346L444.826 471.702L181.659 408.385Z" fill="#CEC4DC"/>
<path d="M181.122 411.025L180.583 413.67L443.75 476.986L444.288 474.342L181.122 411.025Z" fill="#CEC4DC"/>
<path d="M180.583 413.67L180.044 416.314L443.211 479.63L443.749 476.986L180.583 413.67Z" fill="#CEC4DC"/>
<path d="M180.046 416.319L179.507 418.963L442.674 482.28L443.212 479.636L180.046 416.319Z" fill="#CEC4DC"/>
<path d="M179.507 418.956L178.968 421.601L442.135 484.917L442.673 482.273L179.507 418.956Z" fill="#CEC4DC"/>
<path d="M178.969 421.606L178.431 424.25L441.598 487.567L442.136 484.923L178.969 421.606Z" fill="#CEC4DC"/>
<path d="M178.43 424.246L177.892 426.891L441.058 490.207L441.597 487.563L178.43 424.246Z" fill="#CEC4DC"/>
<path d="M177.89 426.887L177.351 429.531L440.518 492.848L441.056 490.203L177.89 426.887Z" fill="#CEC4DC"/>
<path d="M177.354 429.536L176.816 432.181L439.982 495.497L440.521 492.853L177.354 429.536Z" fill="#CEC4DC"/>
<path d="M176.813 432.177L176.275 434.821L439.442 498.138L439.98 495.493L176.813 432.177Z" fill="#CEC4DC"/>
<path d="M176.276 434.82L175.738 437.465L438.904 500.781L439.443 498.137L176.276 434.82Z" fill="#CEC4DC"/>
<path d="M175.739 437.47L175.201 440.115L438.367 503.431L438.906 500.787L175.739 437.47Z" fill="#CEC4DC"/>
<path d="M175.198 440.114L174.66 442.758L437.827 506.074L438.365 503.43L175.198 440.114Z" fill="#CEC4DC"/>
<path d="M174.665 442.757L174.126 445.402L437.292 508.718L437.831 506.074L174.665 442.757Z" fill="#CEC4DC"/>
<path d="M174.122 445.398L173.584 448.042L426.499 508.712L437.288 508.714L174.122 445.398Z" fill="#CEC4DC"/>
<path d="M173.585 448.044L173.047 450.689L425.962 511.358L426.5 508.714L173.585 448.044Z" fill="#CEC4DC"/>
<path d="M173.048 450.688L172.509 453.332L423 513.49L425.962 511.357L173.048 450.688Z" fill="#CEC4DC"/>
<path d="M172.507 453.331L171.969 455.975L416.46 509.253L416.998 506.609L172.507 453.331Z" fill="#CEC4DC"/>
<path d="M171.969 455.975L171.43 458.619L415.92 511.897L416.459 509.253L171.969 455.975Z" fill="#CEC4DC"/>
<path d="M171.432 458.621L170.894 461.266L415.385 514.544L415.923 511.899L171.432 458.621Z" fill="#CEC4DC"/>
<path d="M170.894 461.262L170.355 463.906L414.846 517.184L415.384 514.54L170.894 461.262Z" fill="#CEC4DC"/>
<path d="M414.837 517.223L409.923 492.337L169.861 466.587V466.365L170.357 463.932L414.837 517.223Z" fill="#CEC4DC"/>
<path d="M409.923 492.336L409.384 494.98L169.861 469.359V466.585L409.923 492.336Z" fill="#CEC4DC"/>
<path d="M409.384 494.98L408.846 497.625L169.861 472.134V469.36L409.384 494.98Z" fill="#CEC4DC"/>
<path d="M408.846 497.626L408.307 500.27L169.861 474.909V472.134L408.846 497.626Z" fill="#CEC4DC"/>
<path d="M408.307 500.268L407.769 502.912L169.861 477.68V474.906L408.307 500.268Z" fill="#CEC4DC"/>
<path d="M407.769 502.917L407.23 505.561L169.861 480.458V477.684L407.769 502.917Z" fill="#CEC4DC"/>
<path d="M407.23 505.558L406.692 508.202L169.861 483.229V480.456L407.23 505.558Z" fill="#CEC4DC"/>
<path d="M406.692 508.2L406.153 510.844L169.861 486.001V483.227L406.692 508.2Z" fill="#CEC4DC"/>
<path d="M406.153 510.845L405.615 513.49L169.861 488.776V486.002L406.153 510.845Z" fill="#CEC4DC"/>
<path d="M405.615 513.491L405.076 516.135L169.861 491.55V488.776L405.615 513.491Z" fill="#CEC4DC"/>
<path d="M405.076 516.135L404.538 518.78L169.861 494.325V491.551L405.076 516.135Z" fill="#CEC4DC"/>
<path d="M404.538 518.78L404 521.425L169.861 497.099V494.325L404.538 518.78Z" fill="#CEC4DC"/>
<path d="M404 521.422L403.461 524.067L169.861 499.871V497.097L404 521.422Z" fill="#CEC4DC"/>
<path d="M403.461 524.067L403.446 524.143H392.25L169.861 502.645V499.871L403.461 524.067Z" fill="#CEC4DC"/>
<path d="M380.724 524.141L169.861 505.417V502.643L392.25 524.141H380.724Z" fill="#CEC4DC"/>
<path d="M366.5 541.565L169.861 508.195V505.421L380.724 524.145L366.5 541.565Z" fill="#CEC4DC"/>
<path d="M354.974 541.563L169.861 510.966V508.193L366.5 541.563H354.974Z" fill="#CEC4DC"/>
<path d="M347.5 544.062L169.861 513.915V510.967L354.974 541.564L347.5 544.062Z" fill="#CEC4DC"/>
<path d="M333.618 548.123L173 523.421V520.473L345.865 548.123H333.618Z" fill="#CEC4DC"/>
<path d="M325.5 553.062L169.861 519.812V516.864L342.727 545.562L325.5 553.062Z" fill="#CEC4DC"/>
<path d="M313.252 553.06L169.861 522.757V519.81L325.5 553.06H313.252Z" fill="#CEC4DC"/>
<path d="M301.005 553.061L169.861 525.706V522.757L313.252 553.06L301.005 553.061Z" fill="#CEC4DC"/>
<path d="M299.5 556.562L169.861 528.654V525.707L301.005 553.061L299.5 556.562Z" fill="#CEC4DC"/>
<path d="M286.5 556.562L169.861 531.599V528.652L294.991 555.062L286.5 556.562Z" fill="#CEC4DC"/>
<path d="M169.861 531.597L282.5 556.562L169.861 561.709V531.597Z" fill="#CEC4DC"/>
<g opacity="0.3">
<path opacity="0.3" d="M307.699 437.874C308.006 443.497 307.325 448.786 305.909 453.298C301.234 468.2 279.033 464.853 270.511 456.819C261.989 448.786 244.183 432.88 244.183 432.88C231.96 430.537 221.141 427.296 211.683 422.677C211.483 422.583 211.269 422.476 211.069 422.369C233.122 411.792 258.542 403.624 285.084 398.108C295.931 411.015 307.205 428.729 307.699 437.86V437.874H307.699Z" fill="#200656"/>
</g>
<path d="M495.068 438.852C485.958 455.869 474.11 470.986 460.204 484.241H460.191C420.705 453.567 440.421 398.725 440.421 398.725C461.78 404.576 479.947 413.359 492.864 425.289C496.617 428.756 497.486 434.34 495.068 438.852Z" fill="#FF0000"/>
<g opacity="0.6">
<path opacity="0.6" d="M495.067 438.853C494.506 439.91 493.918 440.968 493.33 441.999C494.011 438.29 492.836 434.407 489.964 431.756C477.248 420.001 459.428 411.311 438.483 405.473C439.512 401.229 440.42 398.725 440.42 398.725C461.779 404.576 479.946 413.36 492.863 425.289C496.616 428.757 497.484 434.34 495.067 438.853Z" fill="white"/>
</g>
<path d="M250.939 561.601C226.838 561.601 203.433 559.118 182.131 554.084C181.452 553.923 180.84 553.554 180.382 553.027C161.005 530.78 155.799 486.11 160.671 453.482C160.78 452.758 161.121 452.089 161.645 451.578C178.988 434.665 204.487 419.801 235.385 408.593C264.339 398.091 297.364 390.952 330.888 387.947C403.043 381.487 464.433 394.524 495.121 422.831C499.976 427.309 501.166 434.548 498.017 440.432C472.524 488.056 422.631 525.419 357.527 545.637C323.492 556.207 286.46 561.601 250.939 561.601ZM184.725 547.817C291.581 572.581 440.234 534.225 492.131 437.266C493.84 434.076 493.21 430.164 490.598 427.757C428.504 370.481 238.77 386.984 167.115 455.592C162.92 485.478 167.651 527.266 184.725 547.817Z" fill="#200656"/>
<path d="M460.2 487.588C459.486 487.588 458.766 487.36 458.158 486.888C441.163 473.696 432.175 454.021 432.164 429.99C432.157 412.065 437.076 398.177 437.284 397.595C437.91 395.855 439.823 394.954 441.558 395.579C443.293 396.207 444.193 398.124 443.569 399.863C443.336 400.515 425.222 452.855 462.248 481.595C463.706 482.727 463.972 484.829 462.843 486.291C462.185 487.143 461.198 487.588 460.2 487.588Z" fill="#200656"/>
<path d="M346.863 518.022C372.131 518.022 392.614 497.491 392.614 472.164C392.614 446.838 372.131 426.307 346.863 426.307C321.596 426.307 301.113 446.838 301.113 472.164C301.113 497.491 321.596 518.022 346.863 518.022Z" fill="#178BFF"/>
<g opacity="0.3">
<path opacity="0.3" d="M390.663 485.447C384.986 504.299 367.528 518.022 346.863 518.022C321.59 518.022 301.113 497.497 301.113 472.165C301.113 464.279 303.09 456.861 306.59 450.381C305.321 454.585 304.639 459.044 304.639 463.663C304.639 488.995 325.13 509.521 350.39 509.521C367.795 509.52 382.929 499.786 390.663 485.447Z" fill="#200656"/>
</g>
<g opacity="0.3">
<path opacity="0.3" d="M494.747 419.532C494.667 421.406 494.119 423.281 493.09 424.968C483.059 441.463 470.396 455.897 455.782 468.362H455.769C433.987 486.955 407.888 501.174 379.771 511.359C383.297 506.898 386.019 501.769 387.701 496.184C383.282 504.379 376.44 511.058 368.145 515.287C362.695 517.017 357.188 518.602 351.63 520.043C350.244 520.17 348.847 520.258 347.428 520.258C322.168 520.258 301.678 499.732 301.678 474.4C301.678 469.781 302.359 465.322 303.628 461.118C300.128 467.598 298.151 475.016 298.151 482.902C298.151 502.214 310.058 518.721 326.913 525.481C280.663 533.871 232.878 532.949 192.167 523.851C189.812 523.325 188.984 520.388 190.722 518.712L206.714 503.294L199.767 505.65C199.767 505.65 177.1 511.621 171.142 513.389C168.671 509.118 166.587 504.325 164.864 499.157C167.936 516.468 173.827 532.374 182.897 542.792C267.906 562.875 390.076 543.099 460.19 476.208H460.204C474.109 462.952 485.958 447.836 495.068 430.818C497.004 427.203 496.831 422.893 494.747 419.532Z" fill="#200656"/>
</g>
<g opacity="0.6">
<path opacity="0.6" d="M382.422 501.018C386.282 494.296 388.486 486.504 388.486 478.189C388.486 452.857 368.009 432.331 342.735 432.331C328.389 432.331 315.579 438.945 307.19 449.309C315.085 435.558 329.899 426.306 346.863 426.306C372.136 426.306 392.613 446.832 392.613 472.164C392.613 483.103 388.807 493.132 382.422 501.018Z" fill="white"/>
</g>
<path d="M346.864 521.368C319.795 521.368 297.775 499.296 297.775 472.164C297.775 445.032 319.795 422.958 346.864 422.958C373.932 422.958 395.954 445.032 395.954 472.164C395.954 499.296 373.932 521.368 346.864 521.368ZM346.864 429.652C323.478 429.652 304.453 448.723 304.453 472.164C304.453 495.604 323.478 514.674 346.864 514.674C370.249 514.674 389.275 495.604 389.275 472.164C389.275 448.723 370.249 429.652 346.864 429.652Z" fill="#200656"/>
<path d="M346.862 499.276C361.801 499.276 373.912 487.137 373.912 472.163C373.912 457.189 361.801 445.05 346.862 445.05C331.923 445.05 319.813 457.189 319.813 472.163C319.813 487.137 331.923 499.276 346.862 499.276Z" fill="#200656"/>
<g opacity="0.3">
<path opacity="0.3" d="M373.658 475.831C371.881 489.073 360.554 499.275 346.862 499.275C331.929 499.275 319.813 487.131 319.813 472.162C319.813 466.74 321.402 461.679 324.154 457.448C323.981 458.639 323.901 459.871 323.901 461.116C323.901 476.085 336.016 488.229 350.95 488.229C360.474 488.229 368.849 483.289 373.658 475.831Z" fill="#200656"/>
</g>
<path d="M346.863 502.623C330.107 502.623 316.475 488.959 316.475 472.163C316.475 455.367 330.107 441.703 346.863 441.703C363.62 441.703 377.252 455.367 377.252 472.163C377.252 488.959 363.62 502.623 346.863 502.623ZM346.863 448.397C333.79 448.397 323.153 459.059 323.153 472.164C323.153 485.268 333.79 495.93 346.863 495.93C359.937 495.93 370.574 485.268 370.574 472.164C370.574 459.059 359.937 448.397 346.863 448.397Z" fill="#200656"/>
<path d="M360.318 463.169C361.095 459.65 357.528 455.866 352.35 454.718C347.173 453.57 342.346 455.493 341.57 459.012C340.793 462.532 344.36 466.316 349.537 467.464C354.715 468.612 359.541 466.689 360.318 463.169Z" fill="white"/>
<path d="M241.893 285.077C321.814 285.077 386.602 225.625 386.602 152.287C386.602 78.9498 321.814 19.498 241.893 19.498C161.973 19.498 97.1841 78.9498 97.1841 152.287C97.1841 225.625 161.973 285.077 241.893 285.077Z" fill="#39C7FF"/>
<path d="M386.602 267.872C381.632 284.194 365.51 298.922 347.851 306.969C345.727 307.946 343.576 308.816 341.412 309.593L342.147 348.569C342.147 348.569 369.904 363.417 369.677 389.727V389.74C347.29 389.486 324.034 391.32 301.245 395.096C313.655 406.008 318.944 419.759 319.599 431.956V431.97C319.906 437.593 319.225 442.882 317.809 447.394C313.134 462.296 290.933 458.949 282.411 450.915C273.889 442.882 256.083 426.975 256.083 426.975C243.861 424.632 233.041 421.392 223.583 416.773C195.305 402.969 179.343 376.833 174.881 325.218C140.151 318.081 120.555 302.014 120.555 302.014C107.852 294.249 103.35 274.044 114.544 266.962C117.817 264.887 122.425 263.936 128.57 264.739C152.347 273.241 176.885 277.928 202.144 279.186L313.014 266.895C313.014 266.895 340.077 261.004 357.882 253.05C372.469 246.543 386.161 248.364 387.577 259.29C387.897 261.7 387.604 264.565 386.602 267.872Z" fill="white"/>
<g opacity="0.3">
<path opacity="0.3" d="M317.809 447.395C313.134 462.297 290.933 458.949 282.411 450.916C273.889 442.882 256.083 426.976 256.083 426.976C243.861 424.633 233.041 421.393 223.583 416.773C195.305 402.969 179.343 376.834 174.881 325.218C140.151 318.082 120.555 302.015 120.555 302.015C107.852 294.249 103.35 274.045 114.544 266.962C114.544 266.962 116.949 288.76 152.841 300.81C188.72 312.847 188.72 312.847 188.72 312.847C188.72 312.847 189.575 326.102 201.263 327.669C201.263 327.669 201.129 356.295 210.854 378.614C222.942 377.275 235.271 374.611 247.935 370.126L249.791 373.928C241.681 380.392 228.526 384.698 219.569 387.067C217.736 387.551 217.018 389.761 218.182 391.26C223.033 397.507 229.284 402.182 237.329 403.879C273.729 411.578 277.482 417.603 292.964 434.514C308.459 451.411 319.051 441.985 319.599 431.97C319.906 437.594 319.225 442.882 317.809 447.395Z" fill="#200656"/>
</g>
<path d="M301.499 461.089C293.72 461.089 285.24 458.176 280.123 453.353C272.674 446.331 257.895 433.084 254.546 430.085C241.798 427.582 231.183 424.208 222.121 419.781C191.998 405.078 176.416 376.714 171.778 327.977C139.511 320.839 120.787 306.478 118.624 304.754C107.979 298.112 102.192 283.514 105.978 272.752C107.429 268.627 112.576 259.265 129.003 261.42C129.238 261.451 129.469 261.506 129.692 261.586C152.549 269.758 176.893 274.55 202.045 275.828L312.469 263.586C314.751 263.08 339.955 257.393 356.523 249.992C368.737 244.546 380.184 244.581 386.393 250.088C389.074 252.463 393.08 258.06 389.796 268.848C383.662 288.987 363.172 304.713 344.796 311.899L345.451 346.618C351.828 350.508 373.227 365.393 373.017 389.754C373.01 390.644 372.649 391.501 372.015 392.123C371.382 392.744 370.507 393.056 369.64 393.086C349.525 392.853 328.942 394.298 308.325 397.37C323.006 413.516 325.481 434.088 320.994 448.396C319.116 454.386 314.565 458.606 308.183 460.279C306.091 460.829 303.825 461.089 301.499 461.089ZM124.393 267.8C119.421 267.8 114.267 269.323 112.277 274.979C109.494 282.892 114.174 294.19 122.295 299.157C122.426 299.237 122.551 299.327 122.67 299.424C122.857 299.577 142.137 315.073 175.551 321.938C177 322.236 178.08 323.452 178.208 324.928C182.382 373.208 196.39 399.776 225.046 413.763C233.787 418.033 244.143 421.278 256.71 423.687C257.303 423.801 257.854 424.074 258.304 424.477C258.482 424.636 276.242 440.505 284.699 448.477C289.124 452.649 298.939 455.781 306.494 453.804C310.69 452.704 313.426 450.21 314.623 446.389C318.918 432.694 315.766 412.301 299.045 397.614C298.074 396.761 297.68 395.422 298.034 394.178C298.389 392.933 299.427 392.004 300.701 391.794C322.445 388.191 344.226 386.369 365.508 386.369C365.738 386.369 365.967 386.369 366.197 386.369C364.142 364.457 340.819 351.652 340.572 351.519C339.508 350.946 338.832 349.841 338.809 348.631L338.073 309.656C338.046 308.216 338.941 306.919 340.294 306.437C360.814 299.131 378.543 282.87 383.408 266.895C384.559 263.117 385.242 258.004 381.969 255.102C377.871 251.468 368.735 251.875 359.24 256.109C341.327 264.109 314.841 269.922 313.723 270.165C313.611 270.19 313.496 270.208 313.381 270.221L202.512 282.512C202.336 282.533 202.158 282.537 201.979 282.528C176.206 281.244 151.247 276.362 127.792 268.015C126.697 267.883 125.55 267.8 124.393 267.8ZM386.602 267.872H386.614H386.602Z" fill="#200656"/>
<path d="M174.114 327.735C172.751 327.735 171.586 326.692 171.458 325.304C171.322 323.831 172.403 322.527 173.872 322.391C183.172 321.527 186.128 313 186.967 309.373C189.26 299.466 185.631 285.796 174.26 278.837C173 278.066 172.603 276.418 173.372 275.156C174.142 273.893 175.786 273.496 177.044 274.265C191.207 282.932 194.813 299.167 192.172 310.582C189.878 320.493 183.222 326.901 174.364 327.723C174.281 327.732 174.197 327.735 174.114 327.735Z" fill="#200656"/>
<path d="M178.645 340.258C177.814 340.258 176.974 340.236 176.121 340.194C174.648 340.119 173.513 338.862 173.586 337.386C173.66 335.908 174.882 334.75 176.387 334.844C188.755 335.478 197.989 331.219 203.09 322.573C209.606 311.527 208.282 294.263 199.87 280.591C199.096 279.331 199.486 277.682 200.741 276.906C201.997 276.128 203.643 276.52 204.417 277.779C213.976 293.316 215.291 312.413 207.689 325.3C201.966 335.002 191.711 340.258 178.645 340.258Z" fill="#200656"/>
<path d="M137.367 314.274C137.327 314.274 137.286 314.274 137.246 314.274C136.14 314.265 135.25 313.359 135.259 312.249C135.269 311.146 136.163 310.257 137.263 310.257C137.293 310.259 137.333 310.257 137.368 310.257C142.692 310.259 147.95 306.251 151.109 299.777C154.444 292.94 155.789 281.724 148.599 272.614C147.912 271.743 148.059 270.481 148.927 269.793C149.794 269.104 151.056 269.252 151.741 270.122C158.61 278.825 159.775 291.158 154.708 301.542C150.87 309.407 144.234 314.274 137.367 314.274Z" fill="#200656"/>
<path d="M341.408 312.939C339.804 312.939 338.389 311.778 338.117 310.139C338.068 309.841 332.993 280.139 317.826 267.868C316.392 266.706 316.167 264.599 317.325 263.16C318.484 261.722 320.588 261.496 322.022 262.658C339.177 276.539 344.489 307.726 344.706 309.047C345.007 310.871 343.776 312.592 341.958 312.894C341.772 312.925 341.589 312.939 341.408 312.939Z" fill="#200656"/>
<path d="M289.685 95.3814C340.641 63.2299 355.142 78.7054 333.187 141.807L289.685 95.3814Z" fill="#FF8F1F"/>
<g opacity="0.6">
<path opacity="0.6" d="M342.174 108.434C344.071 81.6826 327.801 78.6432 293.378 99.3162L289.691 95.3799C329.965 69.9673 347.464 74.3188 342.174 108.434Z" fill="white"/>
</g>
<path d="M350.095 211.518L359.325 224.238C312.466 293.419 214.126 305.296 150.169 251.136L157.85 240.358L135.81 232.673C135.81 232.673 135.97 232.552 136.251 232.325C137.92 230.919 143.825 225.269 144.826 215.093C144.826 215.093 144.065 195.799 150.263 172.81C150.771 170.896 151.332 168.954 151.946 166.999C151.946 166.999 138.842 132.241 138.549 106.802C138.495 101.66 141.207 97.1481 145.294 94.671H145.308C147.378 93.4124 149.796 92.6895 152.387 92.6626C161.337 92.569 175.55 95.0192 196.922 104.967C199.139 103.32 201.41 101.781 203.721 100.361C251.568 70.7179 316.914 87.307 339.85 158.189C339.85 158.189 346.261 179.063 356.333 193.59C359.111 197.607 362.171 201.142 365.456 203.605L350.095 211.518Z" fill="#FF8F1F"/>
<g opacity="0.6">
<path opacity="0.6" d="M365.456 203.605L359.258 206.791C357.334 204.81 355.518 202.507 353.794 200.03C343.723 185.503 337.311 164.629 337.311 164.629C326.785 132.08 307.309 110.979 284.695 100.549C275.064 102.45 266.649 100.08 259.475 93.4122C259.462 93.4255 259.462 93.4255 259.462 93.4122C239.693 91.029 219.202 95.6347 201.182 106.801C198.871 108.221 196.601 109.76 194.383 111.407C173.011 101.459 158.798 99.0087 149.848 99.1024C145.24 99.1425 141.179 101.405 138.668 104.886C139.523 98.0313 145.32 92.7291 152.386 92.6621C161.336 92.5685 175.549 95.0187 196.921 104.967C199.138 103.32 201.409 101.78 203.72 100.361C251.567 70.7174 316.914 87.3065 339.849 158.189C339.849 158.189 346.261 179.062 356.332 193.59C359.111 197.606 362.17 201.141 365.456 203.605Z" fill="white"/>
</g>
<path d="M358.176 222.657L359.324 224.237C312.666 293.111 214.994 305.188 151.023 251.846C150.729 251.618 150.449 251.377 150.168 251.136L157.849 240.358C157.849 240.358 166.866 234.842 181.225 238.858C195.585 242.875 216.797 248.07 229.487 234.842C242.177 221.613 252.476 208.572 271.791 205.051C291.093 201.529 299.615 210.42 311.29 212.589C322.991 214.758 349.934 208.907 356.332 193.589C359.11 197.606 362.169 201.141 365.455 203.604L350.094 211.517L358.162 222.644L358.176 222.657Z" fill="white"/>
<path d="M180.447 121.48C180.447 121.48 170.54 133.754 166.088 148.37C158.741 120.142 157.405 108.872 180.447 121.48Z" fill="#FF4DA2"/>
<path d="M306.215 106.102C327.802 92.8037 329.998 99.7532 323.041 124.237L306.215 106.102Z" fill="#FF4DA2"/>
<path d="M243.093 288.418C208.436 288.42 174.633 276.231 148.014 253.688C146.685 252.563 146.441 250.603 147.453 249.184L152.538 242.054L134.711 235.826C133.536 235.416 132.686 234.385 132.506 233.151C132.326 231.917 132.844 230.684 133.852 229.953C134.105 229.765 140.417 224.955 141.48 214.978C141.401 212.336 141.033 191.219 148.424 167.097C146.156 160.868 135.479 130.336 135.213 106.836C135.162 102.203 136.912 97.8299 140.144 94.5222C143.383 91.206 147.721 89.3546 152.359 89.3098C152.526 89.3074 152.696 89.3074 152.866 89.3074C164.63 89.3074 179.313 93.2756 196.543 101.11C221.05 83.698 251.635 78.4999 278.758 87.2211C308.727 96.8589 331.551 121.695 343.025 157.157C343.142 157.532 353.365 190.33 367.455 200.922C368.375 201.614 368.875 202.731 368.778 203.881C368.682 205.031 368.002 206.049 366.979 206.576L355.084 212.711L362.028 222.271C362.858 223.413 362.884 224.954 362.092 226.122C339.626 259.284 303.594 281.489 263.233 287.04C256.52 287.964 249.788 288.418 243.093 288.418ZM154.698 250.539C184.716 274.839 223.762 285.712 262.326 280.407C300.024 275.222 333.753 254.816 355.235 224.29L347.391 213.492C346.816 212.702 346.615 211.699 346.841 210.748C347.066 209.797 347.695 208.992 348.563 208.546L359.586 202.86C345.931 188.951 337.062 160.486 336.657 159.175C325.879 125.864 304.587 102.557 276.718 93.5953C250.654 85.2133 222.292 90.3393 198.906 107.659C197.921 108.385 196.62 108.516 195.515 108.002C174.293 98.1248 160.645 96.0007 152.839 96.0007C152.699 96.0007 152.561 96.0019 152.426 96.0031C149.573 96.0315 146.906 97.1681 144.917 99.2059C142.934 101.234 141.86 103.917 141.892 106.76C142.17 131.303 154.946 165.478 155.074 165.819C155.339 166.522 155.361 167.295 155.135 168.011C147.405 192.549 148.154 214.741 148.162 214.962C148.168 215.115 148.164 215.268 148.149 215.421C147.432 222.724 144.456 227.964 141.871 231.239L158.948 237.205C159.942 237.551 160.714 238.347 161.033 239.352C161.351 240.358 161.178 241.454 160.566 242.312L154.698 250.539Z" fill="#200656"/>
<path d="M166.087 151.047C166.07 151.047 166.051 151.047 166.032 151.046C164.837 151.021 163.804 150.204 163.503 149.045C158.133 128.413 156.705 119.148 161.767 115.185C165.445 112.305 171.413 113.486 181.728 119.13C182.423 119.51 182.913 120.18 183.068 120.959C183.222 121.738 183.023 122.545 182.526 123.163C182.429 123.282 172.883 135.23 168.642 149.151C168.299 150.279 167.26 151.047 166.087 151.047ZM166.61 119.015C165.753 119.015 165.297 119.218 165.057 119.404C162.755 121.207 164.549 130.872 166.591 139.44C169.931 131.901 174.041 125.698 176.423 122.384C171.078 119.694 168.176 119.015 166.61 119.015Z" fill="#200656"/>
<path d="M333.368 145.156C333.004 145.156 332.633 145.096 332.268 144.968C330.526 144.36 329.607 142.452 330.215 140.706C344.593 99.3814 339.823 87.6937 335.701 84.4049C331.235 80.8395 319.963 80.3457 291.644 98.2143C290.084 99.2007 288.022 98.7282 287.039 97.164C286.057 95.5997 286.525 93.5335 288.087 92.5482C313.843 76.2969 330.78 71.921 339.86 79.1664C349.921 87.1929 348.86 107.448 336.521 142.91C336.041 144.291 334.749 145.156 333.368 145.156Z" fill="#200656"/>
<path d="M323.043 126.916C322.801 126.916 322.555 126.883 322.31 126.813C320.89 126.408 320.068 124.926 320.472 123.504C325.151 107.036 324.065 103.222 323 102.412C322.399 101.959 319.521 101.049 307.615 108.383C306.359 109.159 304.713 108.765 303.94 107.504C303.166 106.244 303.56 104.594 304.816 103.82C316.147 96.8406 322.35 95.2009 326.227 98.1438C330.428 101.335 330.261 108.606 325.611 124.971C325.276 126.148 324.206 126.916 323.043 126.916Z" fill="#200656"/>
<path d="M201.563 214.536C201.367 210.42 202.999 206.17 205.829 202.819C208.662 199.471 212.743 196.97 217.376 196.166C219.681 195.746 222.119 195.789 224.461 196.32C226.802 196.852 229.033 197.891 230.882 199.328C234.629 202.201 236.701 206.391 237.023 210.437C237.117 211.618 236.237 212.653 235.058 212.747C234.477 212.793 233.932 212.602 233.517 212.256L233.403 212.161C230.671 209.867 228.292 208.2 225.969 207.378C223.657 206.569 221.482 206.374 219.122 206.7C216.776 207.034 214.348 207.989 212.046 209.472C209.717 210.954 207.568 212.968 205.414 215.648L205.319 215.765C204.588 216.676 203.257 216.82 202.348 216.086C201.861 215.692 201.593 215.117 201.563 214.536Z" fill="#200656"/>
<path d="M297.442 198.59C296.537 194.678 297.331 190.395 299.399 186.69C301.452 182.998 304.998 179.676 309.741 178.323C312.079 177.651 314.654 177.513 317.039 178.017C319.436 178.486 321.591 179.559 323.345 180.882C326.843 183.592 328.955 187.141 329.796 190.931C330.056 192.1 329.32 193.259 328.153 193.52C327.637 193.635 327.124 193.555 326.688 193.329L326.517 193.24C324.922 192.41 323.586 191.509 322.237 190.818C320.913 190.106 319.655 189.523 318.499 189.103C316.137 188.281 314.373 188.209 312.514 188.613C310.645 189.018 308.59 190.221 306.663 192.004C304.733 193.802 302.997 196.099 301.432 198.97L301.347 199.126C300.789 200.15 299.508 200.527 298.486 199.968C297.939 199.668 297.576 199.153 297.442 198.59Z" fill="#200656"/>
<path d="M283.444 212.592C277.701 212.943 272.643 214.632 268.071 217.268C266.711 218.053 266.51 219.972 267.708 220.989C269.503 222.51 272.824 224.16 278.661 223.822C278.952 223.806 279.24 223.735 279.504 223.612C280.786 223.008 284.56 220.809 285.811 215.366C286.148 213.898 284.944 212.5 283.444 212.592Z" fill="#200656"/>
<path d="M284.349 255.127C277.336 261.031 267.131 260.161 259.223 253.359C253.586 248.512 249.111 240.64 247.789 230.049C261.013 247.28 278.538 238.042 278.538 222.645C278.538 222.645 282.853 232.727 292.43 230.049C293.071 242.447 289.612 250.695 284.349 255.127Z" fill="#200656"/>
<path d="M284.348 255.126C277.335 261.031 267.129 260.161 259.222 253.359C266.381 244.777 281.689 244.576 284.348 255.126Z" fill="#FF4DA2"/>
<path d="M273.494 261.7C268.04 261.7 262.346 259.575 257.482 255.39C250.819 249.663 246.435 240.781 245.136 230.38C244.986 229.182 245.656 228.031 246.771 227.572C247.889 227.114 249.169 227.457 249.905 228.415C255.141 235.239 261.447 238.028 267.216 236.063C272.39 234.299 275.865 228.906 275.865 222.644C275.865 221.373 276.757 220.277 278 220.022C279.246 219.759 280.493 220.42 280.992 221.589C281.342 222.388 284.657 229.438 291.711 227.469C292.489 227.249 293.33 227.399 293.988 227.874C294.647 228.349 295.055 229.097 295.097 229.91C295.725 242.059 292.518 251.743 286.066 257.176C282.469 260.204 278.066 261.7 273.494 261.7ZM252.405 238.246C254.266 243.581 257.186 248.081 260.961 251.325C267.987 257.37 276.695 258.072 282.63 253.075C287.268 249.17 289.783 242.167 289.831 233.167C285.785 233.339 282.512 231.603 280.137 229.388C278.305 234.924 274.252 239.321 268.936 241.133C263.477 242.995 257.657 241.908 252.405 238.246ZM284.348 255.125H284.36H284.348Z" fill="#200656"/>
<path d="M291.434 227.557C291.472 227.568 291.726 227.479 291.891 227.414C292.079 227.341 292.267 227.257 292.454 227.164C292.832 226.982 293.188 226.759 293.541 226.524C294.231 226.042 294.827 225.45 295.296 224.762C295.76 224.073 296.142 223.292 296.305 222.409C296.526 221.538 296.515 220.584 296.465 219.608L296.458 219.474C296.42 218.736 296.986 218.108 297.722 218.069C298.361 218.037 298.917 218.46 299.079 219.054C299.394 220.214 299.664 221.433 299.63 222.726C299.655 224.012 299.367 225.343 298.866 226.588C298.363 227.837 297.611 228.991 296.706 229.974C296.247 230.459 295.764 230.923 295.237 231.339C294.975 231.549 294.703 231.751 294.417 231.943C294.111 232.143 293.882 232.301 293.423 232.528L291.909 233.277C290.385 234.031 288.54 233.403 287.788 231.876C287.035 230.348 287.661 228.499 289.185 227.745C289.911 227.386 290.716 227.342 291.434 227.557Z" fill="#200656"/>
<g opacity="0.3">
<path opacity="0.3" d="M155.739 218.226C155.739 218.226 149.504 234.673 136.254 232.337C136.25 232.329 136.252 232.333 136.249 232.326C137.917 230.922 143.824 225.271 144.826 215.093C144.826 215.093 144.065 195.799 150.263 172.81C150.77 170.895 151.331 168.954 151.946 166.999C151.946 166.999 138.842 132.241 138.548 106.802C138.495 101.66 141.206 97.148 145.294 94.6709H145.307C145.307 94.6709 140.072 100.299 151.064 132.361C156.22 147.399 158.316 155.798 160.737 159.899C162.585 163.03 162.858 166.834 161.66 170.268C158.807 178.441 154.697 194.64 155.739 218.226Z" fill="#200656"/>
</g>
<path d="M343.977 343.212C343.87 344.765 343.442 346.238 342.734 347.577C341.492 349.973 339.381 351.901 336.777 352.906L273.862 377.194C272.299 377.796 270.642 378.064 268.973 377.997L255.748 377.435C252.623 377.301 249.911 375.199 249.029 372.199C244.982 358.422 243.646 344.042 243.206 335.138C243.139 333.974 243.099 332.916 243.072 331.952C242.965 328.604 245.009 325.565 248.134 324.373L318.57 297.528C320.76 296.698 323.205 296.912 325.222 298.131L334.305 303.62C335.454 304.317 336.402 305.321 336.99 306.526C342.801 318.482 344.818 330.733 343.977 343.212Z" fill="white"/>
<g opacity="0.3">
<path opacity="0.3" d="M342.735 347.577C341.492 349.974 339.382 351.902 336.777 352.906L273.862 377.194C272.299 377.797 270.643 378.065 268.973 377.998L255.749 377.435C252.623 377.301 249.911 375.199 249.03 372.2C244.982 358.423 243.647 344.043 243.206 335.139L244.195 334.59L263.39 340.508L266.155 334.59L271.057 331.604C276.681 359.654 300.297 362.72 340.41 342.851C340.411 342.851 341.439 344.913 342.735 347.577Z" fill="#200656"/>
</g>
<path d="M269.511 381.355C269.286 381.355 269.06 381.35 268.835 381.341L255.605 380.775C251.035 380.579 247.103 377.513 245.821 373.144C241.151 357.227 240.004 340.574 239.736 332.063C239.586 327.296 242.483 322.951 246.943 321.251L317.38 294.402C320.552 293.192 324.037 293.507 326.944 295.262L336.032 300.758C337.763 301.806 339.133 303.294 339.991 305.06C345.758 316.928 348.221 329.837 347.311 343.43C346.937 349.041 343.271 353.989 337.973 356.034L275.057 380.319C273.271 381.007 271.408 381.355 269.511 381.355ZM246.411 331.853C246.67 340.042 247.768 356.053 252.228 371.255C252.704 372.874 254.175 374.012 255.89 374.085L269.121 374.651C270.327 374.707 271.522 374.51 272.66 374.07L335.574 349.787C338.455 348.675 340.446 346.004 340.648 342.983C341.491 330.395 339.311 318.948 333.987 307.992C333.694 307.388 333.207 306.87 332.581 306.491L323.494 300.996C322.359 300.309 320.994 300.189 319.755 300.659L249.317 327.508C247.519 328.193 246.351 329.939 246.411 331.853Z" fill="#200656"/>
<path d="M276.171 378.416C272.298 378.416 268.623 376.191 266.957 372.484C261.852 361.124 261.118 347.804 260.724 340.648C260.431 335.341 263.56 330.489 268.513 328.573L324.438 306.937C325.851 306.391 327.292 306.051 328.724 305.927C336.205 305.271 341.398 308.265 342.987 314.136C343.373 315.564 342.531 317.034 341.107 317.422C339.68 317.805 338.215 316.965 337.829 315.538C336.73 311.475 332.525 310.972 329.188 311.262C328.255 311.344 327.304 311.569 326.36 311.934L270.436 333.57C267.653 334.647 265.894 337.372 266.059 340.353C266.435 347.161 267.132 359.834 271.829 370.284C272.855 372.566 275.517 373.644 277.887 372.743L282.636 370.937C284.008 370.409 285.557 371.106 286.081 372.491C286.605 373.873 285.912 375.419 284.531 375.944L279.783 377.75C278.596 378.202 277.375 378.416 276.171 378.416Z" fill="#200656"/>
<path d="M255.803 360.377C255.108 363.617 253.024 366.697 249.017 368.732C211.949 382.629 185.407 379.604 185.407 379.604C178.635 378.64 175.669 372.882 176.351 367.205C176.765 363.724 179.717 361.06 183.217 360.953C184.298 360.926 185.394 360.886 186.462 360.832C208.009 359.868 228.099 355.276 246.185 345.635C252.33 345.501 257.339 353.347 255.803 360.377Z" fill="white"/>
<path d="M192.406 383.25C187.946 383.25 185.356 382.974 185.024 382.937C175.996 381.644 172.184 373.848 173.034 366.807C173.649 361.709 177.986 357.755 183.123 357.612C206.897 356.943 227.01 352.059 244.611 342.679C245.073 342.433 245.587 342.299 246.11 342.288C246.18 342.287 246.249 342.286 246.319 342.286C251.981 342.286 257.259 347.043 258.918 353.682C260.392 359.58 258.964 367.414 250.531 371.714C250.419 371.772 250.304 371.823 250.186 371.867C223.916 381.712 202.943 383.25 192.406 383.25ZM246.919 349.028C228.587 358.619 207.769 363.616 183.309 364.304C181.453 364.356 179.885 365.778 179.665 367.612C179.204 371.426 180.945 375.591 185.872 376.297C186.03 376.313 211.979 378.994 247.661 365.666C253.534 362.575 252.964 357.403 252.441 355.31C251.602 351.961 249.305 349.4 246.919 349.028ZM249.016 368.731H249.028H249.016Z" fill="#200656"/>
<path d="M264.472 338.211C264.153 338.211 263.827 338.153 263.51 338.03L243.236 330.168C241.861 329.634 241.176 328.084 241.709 326.704C242.241 325.326 243.783 324.638 245.164 325.173L265.438 333.036C266.813 333.57 267.498 335.12 266.965 336.5C266.555 337.562 265.545 338.211 264.472 338.211Z" fill="#200656"/>
<path d="M281.993 357.853C286.005 357.853 289.256 353.695 289.256 348.565C289.256 343.435 286.005 339.276 281.993 339.276C277.982 339.276 274.73 343.435 274.73 348.565C274.73 353.695 277.982 357.853 281.993 357.853Z" fill="#F41824"/>
<path d="M281.993 360.532C276.515 360.532 272.059 355.164 272.059 348.566C272.059 341.967 276.515 336.598 281.993 336.598C287.471 336.598 291.929 341.967 291.929 348.566C291.929 355.164 287.472 360.532 281.993 360.532ZM281.993 341.955C279.505 341.955 277.402 344.982 277.402 348.566C277.402 352.149 279.505 355.176 281.993 355.176C284.482 355.176 286.585 352.149 286.585 348.566C286.585 344.982 284.483 341.955 281.993 341.955Z" fill="#200656"/>
<path d="M304.924 348.565C308.936 348.565 312.188 344.406 312.188 339.276C312.188 334.146 308.936 329.987 304.924 329.987C300.913 329.987 297.661 334.146 297.661 339.276C297.661 344.406 300.913 348.565 304.924 348.565Z" fill="#FFCD04"/>
<path d="M304.925 351.243C299.447 351.243 294.989 345.875 294.989 339.276C294.989 332.677 299.447 327.309 304.925 327.309C310.403 327.309 314.86 332.677 314.86 339.276C314.86 345.875 310.404 351.243 304.925 351.243ZM304.925 332.665C302.436 332.665 300.333 335.692 300.333 339.275C300.333 342.86 302.436 345.886 304.925 345.886C307.413 345.886 309.516 342.86 309.516 339.275C309.516 335.692 307.413 332.665 304.925 332.665Z" fill="#200656"/>
<path d="M327.187 340.891C331.199 340.891 334.451 336.732 334.451 331.602C334.451 326.472 331.199 322.313 327.187 322.313C323.176 322.313 319.924 326.472 319.924 331.602C319.924 336.732 323.176 340.891 327.187 340.891Z" fill="#33C16D"/>
<path d="M327.187 343.569C321.708 343.569 317.252 338.2 317.252 331.601C317.252 325.003 321.708 319.635 327.187 319.635C332.665 319.635 337.122 325.003 337.122 331.601C337.122 338.2 332.665 343.569 327.187 343.569ZM327.187 324.991C324.698 324.991 322.596 328.018 322.596 331.601C322.596 335.186 324.698 338.212 327.187 338.212C329.676 338.212 331.778 335.185 331.778 331.601C331.778 328.018 329.676 324.991 327.187 324.991Z" fill="#200656"/>
<g opacity="0.3">
<path opacity="0.3" d="M255.803 360.377C255.108 363.617 253.024 366.697 249.017 368.732C211.949 382.63 185.407 379.604 185.407 379.604C178.635 378.64 175.669 372.882 176.351 367.206C176.765 363.724 179.717 361.06 183.217 360.953C184.298 360.926 185.394 360.886 186.462 360.832C186.462 360.832 187.304 381.733 254.333 360.832C254.827 360.685 255.322 360.524 255.803 360.377Z" fill="#200656"/>
</g>
<path d="M361.506 301.185C361.346 301.185 361.183 301.166 361.021 301.126C359.947 300.858 359.294 299.768 359.56 298.691C366.407 271.12 348.543 258.836 347.78 258.327C346.86 257.714 346.607 256.469 347.216 255.545C347.826 254.622 349.062 254.366 349.987 254.974C350.198 255.114 371.001 269.246 363.449 299.662C363.222 300.575 362.405 301.185 361.506 301.185Z" fill="#200656"/>
<path d="M264.478 437.188C264.319 437.188 264.159 437.173 263.997 437.144C262.545 436.88 261.582 435.486 261.846 434.031C263.512 424.831 269.634 416.156 278.642 410.233C288.587 403.691 300.709 401.447 311.913 404.075C313.349 404.412 314.241 405.854 313.905 407.294C313.568 408.733 312.13 409.628 310.695 409.29C300.919 406.997 290.301 408.973 281.573 414.712C273.783 419.834 268.509 427.224 267.103 434.988C266.868 436.281 265.744 437.188 264.478 437.188Z" fill="#200656"/>
<path d="M298.976 397.551C297.735 396.21 296.189 394.785 294.681 393.504C293.147 392.208 291.544 390.991 289.883 389.861C288.219 388.733 286.481 387.739 284.688 386.848C282.887 385.981 281.016 385.298 279.088 384.784L279.026 384.767C278.313 384.576 277.888 383.842 278.079 383.127C278.25 382.483 278.861 382.074 279.502 382.138C281.7 382.356 283.884 382.778 285.999 383.409C288.102 384.06 290.169 384.84 292.16 385.768C294.148 386.698 296.087 387.733 297.97 388.866C299.87 390.025 301.639 391.178 303.517 392.641C304.979 393.78 305.242 395.891 304.106 397.356C302.97 398.821 300.864 399.086 299.402 397.947C299.263 397.837 299.133 397.719 299.015 397.594L298.976 397.551Z" fill="#200656"/>
<g opacity="0.3">
<path opacity="0.3" d="M162.304 274.178C162.304 274.178 219.994 320.393 300.18 273.266C261.498 284.801 228.213 287.665 202.015 279.14C202.015 279.14 173.083 275.087 162.304 274.178Z" fill="#200656"/>
</g>
<g opacity="0.3">
<path opacity="0.3" d="M342.734 389.285L303.449 395.845L294.166 389.713L281.997 384.036L270.055 379.885L304.558 367.969C304.678 366.496 306.388 364.635 306.388 364.635L339.515 354.808C324.101 361.984 312.083 368.61 311.303 377.212C310.858 391.594 342.734 389.285 342.734 389.285Z" fill="#200656"/>
</g>
<g opacity="0.3">
<path opacity="0.3" d="M386.601 267.872C381.632 284.194 365.509 298.922 347.851 306.969C344.177 306.045 341.412 305.134 341.412 305.134L338.968 299.176L335.602 289.161C335.602 289.161 364.561 291.745 386.601 260.615C386.922 260.16 387.243 259.718 387.577 259.29C387.897 261.7 387.603 264.565 386.601 267.872Z" fill="#200656"/>
</g>
<g opacity="0.3">
<path opacity="0.3" d="M341.186 248.702C316.167 267.648 284.095 279.029 249.138 279.029C169.219 279.029 104.42 219.581 104.42 146.235C104.42 98.5565 131.817 56.7421 172.946 33.3379C140.82 57.6927 120.343 94.5263 120.343 135.765C120.343 209.097 185.128 268.545 265.047 268.545C292.992 268.545 319.079 261.288 341.186 248.702Z" fill="#200656"/>
</g>
<path d="M266.248 21.3776H266.208C258.313 20.1459 250.179 19.503 241.897 19.503C239.465 19.503 237.048 19.5565 234.643 19.677C220.965 20.2794 207.794 22.6493 195.372 26.5188H195.332C196.734 17.2536 204.308 10.6662 214.033 6.95735C233.695 -0.553781 262.16 3.69052 266.248 21.3776Z" fill="white"/>
<path d="M381.231 188.26V188.233C384.731 176.799 386.601 164.749 386.601 152.283C386.601 140.447 384.918 128.973 381.739 118.061C381.752 118.047 381.739 118.034 381.739 118.034C409.643 124.233 409.536 179.503 381.231 188.26Z" fill="white"/>
<g opacity="0.3">
<path opacity="0.3" d="M381.231 188.26V188.234C383.034 182.342 384.397 176.29 385.305 170.105C395.23 163.558 400.239 150.249 400.319 137.141C406.424 155.992 400.079 182.436 381.231 188.26Z" fill="#200656"/>
</g>
<path d="M241.893 288.423C160.259 288.423 93.8442 227.353 93.8442 152.288C93.8442 77.2215 160.259 16.1514 241.893 16.1514C323.528 16.1514 389.941 77.2215 389.941 152.288C389.941 227.353 323.528 288.423 241.893 288.423ZM241.893 22.8452C163.941 22.8452 100.522 80.9134 100.522 152.288C100.522 223.662 163.941 281.729 241.893 281.729C319.844 281.729 383.263 223.662 383.263 152.288C383.263 80.9134 319.845 22.8452 241.893 22.8452Z" fill="#200656"/>
<path d="M102.114 206.756C116.119 206.201 126.861 190.238 126.107 171.101C125.352 151.965 113.386 136.901 99.3805 137.456C85.3748 138.011 74.6328 153.974 75.3876 173.111C76.1423 192.248 88.108 207.311 102.114 206.756Z" fill="white"/>
<g opacity="0.3">
<path opacity="0.3" d="M102.107 206.764C88.1084 207.313 76.1399 192.25 75.3786 173.117C75.058 165.044 76.7945 157.533 79.947 151.521C79.2924 155.149 79.0119 159.045 79.1722 163.075C79.9202 182.208 90.2459 197.338 102.214 196.87C114.196 196.388 123.293 180.495 122.531 161.362C122.425 158.456 122.077 155.631 121.543 152.94C124.188 158.148 125.844 164.374 126.111 171.109C126.859 190.242 116.12 206.215 102.107 206.764Z" fill="#200656"/>
</g>
<path d="M101.347 210.126C93.8118 210.126 86.6753 206.347 81.1662 199.411C75.6786 192.502 72.4409 183.211 72.0484 173.25C71.6559 163.288 74.1523 153.771 79.079 146.45C84.2214 138.808 91.384 134.429 99.2478 134.118C107.093 133.799 114.597 137.604 120.324 144.816C125.812 151.725 129.05 161.015 129.442 170.977C129.835 180.94 127.338 190.457 122.411 197.777C117.27 205.418 110.106 209.798 102.243 210.108C101.943 210.12 101.645 210.126 101.347 210.126ZM100.127 140.795C99.922 140.795 99.7171 140.799 99.5119 140.807C93.8285 141.032 88.5376 144.366 84.6163 150.194C80.478 156.342 78.385 164.437 78.722 172.985C79.0592 181.535 81.783 189.439 86.3915 195.241C90.7583 200.74 96.3133 203.64 101.979 203.419C107.663 203.195 112.953 199.861 116.876 194.033C121.013 187.885 123.106 179.791 122.769 171.242C122.432 162.692 119.708 154.788 115.099 148.987C110.889 143.685 105.594 140.795 100.127 140.795Z" fill="#200656"/>
<path d="M98.6112 183.713C103.303 183.527 106.901 178.18 106.648 171.769C106.396 165.359 102.387 160.313 97.6957 160.499C93.004 160.685 89.4056 166.032 89.6585 172.442C89.9113 178.853 93.9196 183.899 98.6112 183.713Z" fill="#200656"/>
<path d="M195.343 29.8685C195.176 29.8685 195.006 29.8554 194.835 29.8295C193.012 29.5508 191.759 27.8436 192.037 26.0159C194.599 9.15602 214.366 0.767087 231.648 0.10777C247.979 -0.532432 266.03 5.58361 269.497 20.6192C269.913 22.4195 268.793 24.2177 266.996 24.6336C265.213 25.052 263.405 23.9296 262.991 22.1268C260.38 10.8173 245.499 6.27825 231.902 6.79699C217.278 7.35469 200.631 13.9232 198.64 27.0251C198.387 28.6812 196.965 29.8685 195.343 29.8685Z" fill="#200656"/>
<path d="M381.227 191.608C379.801 191.608 378.481 190.685 378.037 189.248C377.493 187.481 378.481 185.608 380.243 185.062C394.06 180.785 399.747 163.862 399.183 149.947C398.719 138.492 393.683 124.116 381.014 121.298C379.214 120.898 378.078 119.11 378.477 117.305C378.877 115.5 380.664 114.363 382.461 114.762C395.935 117.76 405.119 131.464 405.857 149.676C406.543 166.618 399.498 186.107 382.214 191.458C381.886 191.559 381.553 191.608 381.227 191.608Z" fill="#200656"/>
<g opacity="0.3">
<path opacity="0.3" d="M234.643 19.6766C220.965 20.2791 207.794 22.649 195.372 26.5185H195.332C196.734 17.2533 204.308 10.6659 214.033 6.95703C212.643 9.7956 209.958 18.8199 231.879 19.5027C232.853 19.5295 233.775 19.5963 234.643 19.6766Z" fill="#200656"/>
</g>
<g opacity="0.25">
<path opacity="0.25" d="M369.518 144.278C365.274 79.1605 303.605 34.5832 240.084 32.8441C232.031 32.6237 229.328 43.6286 236.536 47.2336C282.276 70.1072 322.366 103.482 355.783 149.264C360.295 155.445 370.017 151.921 369.518 144.278Z" fill="white"/>
</g>
<g opacity="0.25">
<path opacity="0.25" d="M198.592 60.3485C210.638 54.7237 218.414 45.8845 215.961 40.6057C213.507 35.3269 201.753 35.6075 189.707 41.2323C177.662 46.8571 169.885 55.6963 172.339 60.9751C174.792 66.2539 186.546 65.9734 198.592 60.3485Z" fill="white"/>
</g>
<path d="M178.641 548.538C178.443 548.538 178.241 548.521 178.04 548.484L155.457 544.364C151.792 543.696 148.474 541.55 146.355 538.478C131.991 517.653 135.29 487.214 136.644 478.381C137.256 474.38 139.585 470.828 143.035 468.638L161.444 456.954C163.004 455.963 165.065 456.428 166.052 457.991C167.039 459.553 166.576 461.622 165.017 462.611L146.608 474.295C144.791 475.449 143.565 477.308 143.246 479.397C140.651 496.328 141.55 519.739 151.85 534.671C152.968 536.293 154.719 537.425 156.653 537.777L179.235 541.897C181.05 542.229 182.254 543.971 181.924 545.789C181.63 547.406 180.224 548.538 178.641 548.538Z" fill="#200656"/>
<path d="M209.916 501.568C210.896 507.963 201.443 514.844 172.374 519.32C143.306 523.797 118.946 522.241 117.966 515.846C116.986 509.451 139.756 500.638 168.824 496.161C197.893 491.685 208.936 495.172 209.916 501.568Z" fill="#FF0000"/>
<path d="M141.804 525.202C127.768 525.202 115.697 523.068 114.668 516.354C113.898 511.335 119.216 506.692 130.926 502.161C140.748 498.359 154.029 495.052 168.319 492.852C197.009 488.434 211.695 491.118 213.218 501.059C213.751 504.529 212.577 509.614 203.963 514.129C197.308 517.618 186.851 520.478 172.883 522.628C163.977 524 152.337 525.202 141.804 525.202ZM121.349 515.325C123.852 518.087 142.19 520.58 171.869 516.013C185.108 513.973 194.864 511.344 200.868 508.198C203.179 506.985 207.001 504.579 206.617 502.075C206.489 501.241 204.351 494.076 169.333 499.468C139.656 504.039 122.911 511.937 121.349 515.325Z" fill="#200656"/>
<g opacity="0.3">
<path opacity="0.3" d="M148.5 535.683C129.131 577.109 72.9218 565.326 72.9218 565.326L77.5969 551.937C53.9403 560.787 28.9747 561.671 3.46143 559.301C4.15613 558.136 4.87738 556.985 5.61215 555.847C30.6137 553.322 54.3043 549.324 73.8538 540.658C76.9802 539.272 80.4235 541.784 80.0416 545.189C80.0416 545.189 78.4789 558.632 98.5155 555.847C118.552 553.062 134.167 546.206 143.277 529.43C144.399 527.368 145.668 525.694 146.991 524.422L148.5 535.683Z" fill="#200656"/>
</g>
<g opacity="0.3">
<path opacity="0.3" d="M141.599 335.533C141.599 335.533 159.777 325.123 174.12 342.13L171.765 325.056L138.795 317.276" fill="#200656"/>
</g>
<g opacity="0.3">
<path opacity="0.3" d="M190.47 385.47C191.025 397.997 182.497 401.428 169.983 400.868L211.067 413.811L209.459 408.009L196.698 398.11" fill="#200656"/>
</g>
</svg>
