<svg width="1920" height="1377" viewBox="0 0 1920 1377" fill="none" xmlns="http://www.w3.org/2000/svg">
<g opacity="0.5">
<path d="M1734.08 766.048C1738 766.048 1741.18 762.867 1741.18 758.944C1741.18 755.02 1738 751.84 1734.08 751.84C1730.15 751.84 1726.98 755.02 1726.98 758.944C1726.98 762.867 1730.15 766.048 1734.08 766.048Z" fill="#FFD1DF"/>
<path d="M1546.48 309.616C1550.4 309.616 1553.58 306.436 1553.58 302.512C1553.58 298.589 1550.4 295.408 1546.48 295.408C1542.56 295.408 1539.38 298.589 1539.38 302.512C1539.38 306.436 1542.56 309.616 1546.48 309.616Z" fill="#BA5EA7"/>
<path d="M1485.52 376.512C1489.44 376.512 1492.62 373.331 1492.62 369.408C1492.62 365.484 1489.44 362.304 1485.52 362.304C1481.6 362.304 1478.42 365.484 1478.42 369.408C1478.42 373.331 1481.6 376.512 1485.52 376.512Z" fill="#BA5EA7"/>
<path d="M1201.46 628.112C1205.38 628.112 1208.56 624.931 1208.56 621.008C1208.56 617.084 1205.38 613.904 1201.46 613.904C1197.53 613.904 1194.35 617.084 1194.35 621.008C1194.35 624.931 1197.53 628.112 1201.46 628.112Z" fill="#BA5EA7"/>
<path d="M877.746 356.384C881.668 356.384 884.847 353.204 884.847 349.28C884.847 345.357 881.668 342.176 877.746 342.176C873.824 342.176 870.644 345.357 870.644 349.28C870.644 353.204 873.824 356.384 877.746 356.384Z" fill="#BA5EA7"/>
<path d="M905.557 585.488C909.479 585.488 912.658 582.308 912.658 578.384C912.658 574.461 909.479 571.28 905.557 571.28C901.635 571.28 898.455 574.461 898.455 578.384C898.455 582.308 901.635 585.488 905.557 585.488Z" fill="#BA5EA7"/>
<path d="M1726.38 628.112C1730.3 628.112 1733.48 624.931 1733.48 621.008C1733.48 617.084 1730.3 613.904 1726.38 613.904C1722.46 613.904 1719.28 617.084 1719.28 621.008C1719.28 624.931 1722.46 628.112 1726.38 628.112Z" fill="#FFD1DF"/>
<path d="M1194.36 499.648C1198.28 499.648 1201.46 496.467 1201.46 492.544C1201.46 488.62 1198.28 485.44 1194.36 485.44C1190.44 485.44 1187.26 488.62 1187.26 492.544C1187.26 496.467 1190.44 499.648 1194.36 499.648Z" fill="#BA5EA7"/>
<path d="M1831.13 794.464C1834.07 794.464 1836.45 792.079 1836.45 789.136C1836.45 786.194 1834.07 783.808 1831.13 783.808C1828.19 783.808 1825.8 786.194 1825.8 789.136C1825.8 792.079 1828.19 794.464 1831.13 794.464Z" fill="#BA5EA7"/>
<path d="M1120.97 626.336C1123.91 626.336 1126.29 623.95 1126.29 621.008C1126.29 618.065 1123.91 615.68 1120.97 615.68C1118.03 615.68 1115.64 618.065 1115.64 621.008C1115.64 623.95 1118.03 626.336 1120.97 626.336Z" fill="#BA5EA7"/>
<path d="M1621.64 716.912C1624.58 716.912 1626.97 714.527 1626.97 711.584C1626.97 708.642 1624.58 706.256 1621.64 706.256C1618.7 706.256 1616.31 708.642 1616.31 711.584C1616.31 714.527 1618.7 716.912 1621.64 716.912Z" fill="#DB86BD"/>
<path d="M1876.11 423.872C1879.05 423.872 1881.44 421.487 1881.44 418.544C1881.44 415.602 1879.05 413.216 1876.11 413.216C1873.17 413.216 1870.79 415.602 1870.79 418.544C1870.79 421.487 1873.17 423.872 1876.11 423.872Z" fill="#BA5EA7"/>
<path d="M1880.25 642.912C1883.19 642.912 1885.58 640.527 1885.58 637.584C1885.58 634.642 1883.19 632.256 1880.25 632.256C1877.31 632.256 1874.92 634.642 1874.92 637.584C1874.92 640.527 1877.31 642.912 1880.25 642.912Z" fill="#BA5EA7"/>
<path d="M1583.76 654.752C1585.72 654.752 1587.31 653.162 1587.31 651.2C1587.31 649.239 1585.72 647.648 1583.76 647.648C1581.79 647.648 1580.2 649.239 1580.2 651.2C1580.2 653.162 1581.79 654.752 1583.76 654.752Z" fill="#DB86BD"/>
<path d="M1329.88 599.104C1331.84 599.104 1333.43 597.514 1333.43 595.552C1333.43 593.59 1331.84 592 1329.88 592C1327.92 592 1326.33 593.59 1326.33 595.552C1326.33 597.514 1327.92 599.104 1329.88 599.104Z" fill="#BA5EA7"/>
<path d="M991.955 709.216C993.916 709.216 995.506 707.625 995.506 705.664C995.506 703.702 993.916 702.112 991.955 702.112C989.994 702.112 988.405 703.702 988.405 705.664C988.405 707.625 989.994 709.216 991.955 709.216Z" fill="#BA5EA7"/>
<path d="M991.955 622.192C993.916 622.192 995.506 620.602 995.506 618.64C995.506 616.678 993.916 615.088 991.955 615.088C989.994 615.088 988.405 616.678 988.405 618.64C988.405 620.602 989.994 622.192 991.955 622.192Z" fill="#BA5EA7"/>
<path d="M1062.38 400.192C1064.34 400.192 1065.93 398.602 1065.93 396.64C1065.93 394.678 1064.34 393.088 1062.38 393.088C1060.42 393.088 1058.83 394.678 1058.83 396.64C1058.83 398.602 1060.42 400.192 1062.38 400.192Z" fill="#BA5EA7"/>
<path d="M1747.69 732.896C1748.99 732.896 1750.05 731.836 1750.05 730.528C1750.05 729.22 1748.99 728.16 1747.69 728.16C1746.38 728.16 1745.32 729.22 1745.32 730.528C1745.32 731.836 1746.38 732.896 1747.69 732.896Z" fill="#BA5EA7"/>
<path d="M1608.02 711.584C1609.33 711.584 1610.39 710.524 1610.39 709.216C1610.39 707.908 1609.33 706.848 1608.02 706.848C1606.72 706.848 1605.66 707.908 1605.66 709.216C1605.66 710.524 1606.72 711.584 1608.02 711.584Z" fill="#DB86BD"/>
<path d="M1610.39 769.008C1611.7 769.008 1612.76 767.948 1612.76 766.64C1612.76 765.332 1611.7 764.272 1610.39 764.272C1609.09 764.272 1608.03 765.332 1608.03 766.64C1608.03 767.948 1609.09 769.008 1610.39 769.008Z" fill="#DB86BD"/>
<path d="M1641.75 754.208C1643.06 754.208 1644.12 753.148 1644.12 751.84C1644.12 750.532 1643.06 749.472 1641.75 749.472C1640.44 749.472 1639.38 750.532 1639.38 751.84C1639.38 753.148 1640.44 754.208 1641.75 754.208Z" fill="#DB86BD"/>
<path d="M1576.65 764.864C1577.96 764.864 1579.02 763.804 1579.02 762.496C1579.02 761.188 1577.96 760.128 1576.65 760.128C1575.35 760.128 1574.29 761.188 1574.29 762.496C1574.29 763.804 1575.35 764.864 1576.65 764.864Z" fill="#DB86BD"/>
<path d="M866.494 847.152C867.801 847.152 868.861 846.092 868.861 844.784C868.861 843.476 867.801 842.416 866.494 842.416C865.187 842.416 864.127 843.476 864.127 844.784C864.127 846.092 865.187 847.152 866.494 847.152Z" fill="#BA5EA7"/>
<path d="M1768.99 576.016C1770.3 576.016 1771.36 574.956 1771.36 573.648C1771.36 572.34 1770.3 571.28 1768.99 571.28C1767.68 571.28 1766.62 572.34 1766.62 573.648C1766.62 574.956 1767.68 576.016 1768.99 576.016Z" fill="#BA5EA7"/>
<path d="M1651.81 713.952C1652.47 713.952 1653 713.422 1653 712.768C1653 712.114 1652.47 711.584 1651.81 711.584C1651.16 711.584 1650.63 712.114 1650.63 712.768C1650.63 713.422 1651.16 713.952 1651.81 713.952Z" fill="#BA5EA7"/>
<path d="M1335.2 986.864C1336.18 986.864 1336.98 986.069 1336.98 985.088C1336.98 984.107 1336.18 983.312 1335.2 983.312C1334.22 983.312 1333.43 984.107 1333.43 985.088C1333.43 986.069 1334.22 986.864 1335.2 986.864Z" fill="#BA5EA7"/>
<path d="M1360.65 715.136C1361.31 715.136 1361.84 714.606 1361.84 713.952C1361.84 713.298 1361.31 712.768 1360.65 712.768C1360 712.768 1359.47 713.298 1359.47 713.952C1359.47 714.606 1360 715.136 1360.65 715.136Z" fill="#BA5EA7"/>
<path d="M1084.88 697.968C1085.53 697.968 1086.06 697.438 1086.06 696.784C1086.06 696.13 1085.53 695.6 1084.88 695.6C1084.22 695.6 1083.69 696.13 1083.69 696.784C1083.69 697.438 1084.22 697.968 1084.88 697.968Z" fill="#BA5EA7"/>
<path d="M1500.32 696.784C1500.97 696.784 1501.5 696.254 1501.5 695.6C1501.5 694.946 1500.97 694.416 1500.32 694.416C1499.66 694.416 1499.13 694.946 1499.13 695.6C1499.13 696.254 1499.66 696.784 1500.32 696.784Z" fill="#BA5EA7"/>
<path d="M1329.87 708.032C1330.53 708.032 1331.06 707.502 1331.06 706.848C1331.06 706.194 1330.53 705.664 1329.87 705.664C1329.22 705.664 1328.69 706.194 1328.69 706.848C1328.69 707.502 1329.22 708.032 1329.87 708.032Z" fill="#BA5EA7"/>
<path d="M912.654 714.544C913.308 714.544 913.838 714.014 913.838 713.36C913.838 712.706 913.308 712.176 912.654 712.176C912.001 712.176 911.471 712.706 911.471 713.36C911.471 714.014 912.001 714.544 912.654 714.544Z" fill="#BA5EA7"/>
<path d="M868.869 710.4C869.522 710.4 870.052 709.87 870.052 709.216C870.052 708.562 869.522 708.032 868.869 708.032C868.215 708.032 867.685 708.562 867.685 709.216C867.685 709.87 868.215 710.4 868.869 710.4Z" fill="#BA5EA7"/>
<path d="M1633.47 734.08C1634.12 734.08 1634.65 733.55 1634.65 732.896C1634.65 732.242 1634.12 731.712 1633.47 731.712C1632.82 731.712 1632.29 732.242 1632.29 732.896C1632.29 733.55 1632.82 734.08 1633.47 734.08Z" fill="#DB86BD"/>
<path d="M1403.26 735.264C1403.91 735.264 1404.44 734.734 1404.44 734.08C1404.44 733.427 1403.91 732.896 1403.26 732.896C1402.61 732.896 1402.08 733.427 1402.08 734.08C1402.08 734.734 1402.61 735.264 1403.26 735.264Z" fill="#BA5EA7"/>
<path d="M1083.69 738.816C1084.34 738.816 1084.87 738.286 1084.87 737.632C1084.87 736.978 1084.34 736.448 1083.69 736.448C1083.03 736.448 1082.5 736.978 1082.5 737.632C1082.5 738.286 1083.03 738.816 1083.69 738.816Z" fill="#BA5EA7"/>
<path d="M1641.75 695.6C1643.06 695.6 1644.12 694.54 1644.12 693.232C1644.12 691.924 1643.06 690.864 1641.75 690.864C1640.44 690.864 1639.38 691.924 1639.38 693.232C1639.38 694.54 1640.44 695.6 1641.75 695.6Z" fill="#DB86BD"/>
<path d="M1529.91 693.232C1531.22 693.232 1532.28 692.172 1532.28 690.864C1532.28 689.556 1531.22 688.496 1529.91 688.496C1528.6 688.496 1527.54 689.556 1527.54 690.864C1527.54 692.172 1528.6 693.232 1529.91 693.232Z" fill="#DB86BD"/>
<path d="M1068.31 590.224C1069.61 590.224 1070.67 589.164 1070.67 587.856C1070.67 586.548 1069.61 585.488 1068.31 585.488C1067 585.488 1065.94 586.548 1065.94 587.856C1065.94 589.164 1067 590.224 1068.31 590.224Z" fill="#BA5EA7"/>
<path d="M1576.65 402.56C1577.96 402.56 1579.02 401.5 1579.02 400.192C1579.02 398.884 1577.96 397.824 1576.65 397.824C1575.35 397.824 1574.29 398.884 1574.29 400.192C1574.29 401.5 1575.35 402.56 1576.65 402.56Z" fill="#BA5EA7"/>
<path d="M1484.92 243.904C1486.23 243.904 1487.29 242.844 1487.29 241.536C1487.29 240.228 1486.23 239.168 1484.92 239.168C1483.62 239.168 1482.56 240.228 1482.56 241.536C1482.56 242.844 1483.62 243.904 1484.92 243.904Z" fill="#BA5EA7"/>
<path d="M1449.42 775.52C1450.72 775.52 1451.78 774.46 1451.78 773.152C1451.78 771.844 1450.72 770.784 1449.42 770.784C1448.11 770.784 1447.05 771.844 1447.05 773.152C1447.05 774.46 1448.11 775.52 1449.42 775.52Z" fill="#BA5EA7"/>
<path d="M1055.87 587.856C1057.18 587.856 1058.24 586.796 1058.24 585.488C1058.24 584.18 1057.18 583.12 1055.87 583.12C1054.56 583.12 1053.5 584.18 1053.5 585.488C1053.5 586.796 1054.56 587.856 1055.87 587.856Z" fill="#BA5EA7"/>
<path d="M1015.63 446.96C1016.94 446.96 1018 445.899 1018 444.592C1018 443.284 1016.94 442.224 1015.63 442.224C1014.33 442.224 1013.27 443.284 1013.27 444.592C1013.27 445.899 1014.33 446.96 1015.63 446.96Z" fill="#BA5EA7"/>
<path d="M923.315 449.328C924.622 449.328 925.682 448.268 925.682 446.96C925.682 445.652 924.622 444.592 923.315 444.592C922.007 444.592 920.947 445.652 920.947 446.96C920.947 448.268 922.007 449.328 923.315 449.328Z" fill="#BA5EA7"/>
<path d="M1225.13 311.984C1226.44 311.984 1227.5 310.924 1227.5 309.616C1227.5 308.308 1226.44 307.248 1225.13 307.248C1223.83 307.248 1222.77 308.308 1222.77 309.616C1222.77 310.924 1223.83 311.984 1225.13 311.984Z" fill="#BA5EA7"/>
<path d="M1428.11 248.64C1429.42 248.64 1430.48 247.58 1430.48 246.272C1430.48 244.964 1429.42 243.904 1428.11 243.904C1426.81 243.904 1425.75 244.964 1425.75 246.272C1425.75 247.58 1426.81 248.64 1428.11 248.64Z" fill="#BA5EA7"/>
<path d="M985.453 608.576C986.761 608.576 987.821 607.516 987.821 606.208C987.821 604.9 986.761 603.84 985.453 603.84C984.146 603.84 983.086 604.9 983.086 606.208C983.086 607.516 984.146 608.576 985.453 608.576Z" fill="#BA5EA7"/>
<path d="M920.945 441.632C922.253 441.632 923.313 440.572 923.313 439.264C923.313 437.957 922.253 436.896 920.945 436.896C919.638 436.896 918.578 437.957 918.578 439.264C918.578 440.572 919.638 441.632 920.945 441.632Z" fill="#BA5EA7"/>
<path d="M1053.51 441.632C1054.82 441.632 1055.88 440.572 1055.88 439.264C1055.88 437.957 1054.82 436.896 1053.51 436.896C1052.2 436.896 1051.14 437.957 1051.14 439.264C1051.14 440.572 1052.2 441.632 1053.51 441.632Z" fill="#BA5EA7"/>
<path d="M1268.92 343.952C1270.23 343.952 1271.29 342.892 1271.29 341.584C1271.29 340.277 1270.23 339.216 1268.92 339.216C1267.61 339.216 1266.55 340.277 1266.55 341.584C1266.55 342.892 1267.61 343.952 1268.92 343.952Z" fill="#BA5EA7"/>
<path d="M1497.95 578.384C1499.26 578.384 1500.32 577.324 1500.32 576.016C1500.32 574.708 1499.26 573.648 1497.95 573.648C1496.64 573.648 1495.58 574.708 1495.58 576.016C1495.58 577.324 1496.64 578.384 1497.95 578.384Z" fill="#BA5EA7"/>
<path d="M1094.34 410.256C1095.64 410.256 1096.7 409.196 1096.7 407.888C1096.7 406.58 1095.64 405.52 1094.34 405.52C1093.03 405.52 1091.97 406.58 1091.97 407.888C1091.97 409.196 1093.03 410.256 1094.34 410.256Z" fill="#BA5EA7"/>
<path d="M861.765 364.673C863.073 364.673 864.133 363.612 864.133 362.305C864.133 360.997 863.073 359.937 861.765 359.937C860.458 359.937 859.398 360.997 859.398 362.305C859.398 363.612 860.458 364.673 861.765 364.673Z" fill="#BA5EA7"/>
<path d="M1454.75 466.496C1456.05 466.496 1457.11 465.436 1457.11 464.128C1457.11 462.82 1456.05 461.76 1454.75 461.76C1453.44 461.76 1452.38 462.82 1452.38 464.128C1452.38 465.436 1453.44 466.496 1454.75 466.496Z" fill="#BA5EA7"/>
<path d="M1088.42 284.752C1089.73 284.752 1090.79 283.692 1090.79 282.384C1090.79 281.076 1089.73 280.016 1088.42 280.016C1087.11 280.016 1086.05 281.076 1086.05 282.384C1086.05 283.692 1087.11 284.752 1088.42 284.752Z" fill="#BA5EA7"/>
<path d="M1621.64 564.176C1622.95 564.176 1624.01 563.116 1624.01 561.808C1624.01 560.5 1622.95 559.44 1621.64 559.44C1620.33 559.44 1619.27 560.5 1619.27 561.808C1619.27 563.116 1620.33 564.176 1621.64 564.176Z" fill="#BA5EA7"/>
<path d="M1884.99 397.824C1888.91 397.824 1892.09 394.644 1892.09 390.72C1892.09 386.797 1888.91 383.616 1884.99 383.616C1881.06 383.616 1877.88 386.797 1877.88 390.72C1877.88 394.644 1881.06 397.824 1884.99 397.824Z" fill="#BA5EA7"/>
<path d="M1900.37 258.704C1901.02 258.704 1901.55 258.174 1901.55 257.52C1901.55 256.866 1901.02 256.336 1900.37 256.336C1899.72 256.336 1899.19 256.866 1899.19 257.52C1899.19 258.174 1899.72 258.704 1900.37 258.704Z" fill="#BA5EA7"/>
<path d="M1801.54 262.848C1802.85 262.848 1803.91 261.788 1803.91 260.48C1803.91 259.172 1802.85 258.112 1801.54 258.112C1800.23 258.112 1799.17 259.172 1799.17 260.48C1799.17 261.788 1800.23 262.848 1801.54 262.848Z" fill="#BA5EA7"/>
<path d="M1768.99 393.088C1770.3 393.088 1771.36 392.028 1771.36 390.72C1771.36 389.412 1770.3 388.352 1768.99 388.352C1767.68 388.352 1766.62 389.412 1766.62 390.72C1766.62 392.028 1767.68 393.088 1768.99 393.088Z" fill="#BA5EA7"/>
<path d="M1848.89 690.272C1849.54 690.272 1850.07 689.742 1850.07 689.088C1850.07 688.434 1849.54 687.904 1848.89 687.904C1848.23 687.904 1847.7 688.434 1847.7 689.088C1847.7 689.742 1848.23 690.272 1848.89 690.272Z" fill="#BA5EA7"/>
<path d="M1825.81 457.616C1827.12 457.616 1828.18 456.556 1828.18 455.248C1828.18 453.94 1827.12 452.88 1825.81 452.88C1824.5 452.88 1823.44 453.94 1823.44 455.248C1823.44 456.556 1824.5 457.616 1825.81 457.616Z" fill="#BA5EA7"/>
<path d="M1868.41 381.84C1871.36 381.84 1873.74 379.454 1873.74 376.512C1873.74 373.569 1871.36 371.184 1868.41 371.184C1865.47 371.184 1863.09 373.569 1863.09 376.512C1863.09 379.454 1865.47 381.84 1868.41 381.84Z" fill="#BA5EA7"/>
<path d="M1914.58 348.096C1915.89 348.096 1916.95 347.036 1916.95 345.728C1916.95 344.42 1915.89 343.36 1914.58 343.36C1913.27 343.36 1912.21 344.42 1912.21 345.728C1912.21 347.036 1913.27 348.096 1914.58 348.096Z" fill="#BA5EA7"/>
<path d="M1882.62 336.256C1883.93 336.256 1884.99 335.196 1884.99 333.888C1884.99 332.58 1883.93 331.52 1882.62 331.52C1881.31 331.52 1880.25 332.58 1880.25 333.888C1880.25 335.196 1881.31 336.256 1882.62 336.256Z" fill="#BA5EA7"/>
<path d="M1847.7 355.2C1848.35 355.2 1848.88 354.67 1848.88 354.016C1848.88 353.362 1848.35 352.832 1847.7 352.832C1847.04 352.832 1846.51 353.362 1846.51 354.016C1846.51 354.67 1847.04 355.2 1847.7 355.2Z" fill="#BA5EA7"/>
<path d="M1874.33 354.016C1874.98 354.016 1875.51 353.486 1875.51 352.832C1875.51 352.178 1874.98 351.648 1874.33 351.648C1873.68 351.648 1873.15 352.178 1873.15 352.832C1873.15 353.486 1873.68 354.016 1874.33 354.016Z" fill="#BA5EA7"/>
<path d="M1841.19 377.696C1842.5 377.696 1843.56 376.636 1843.56 375.328C1843.56 374.02 1842.5 372.96 1841.19 372.96C1839.89 372.96 1838.83 374.02 1838.83 375.328C1838.83 376.636 1839.89 377.696 1841.19 377.696Z" fill="#BA5EA7"/>
<path d="M1120.97 680.208C1123.91 680.208 1126.29 677.822 1126.29 674.88C1126.29 671.937 1123.91 669.552 1120.97 669.552C1118.03 669.552 1115.64 671.937 1115.64 674.88C1115.64 677.822 1118.03 680.208 1120.97 680.208Z" fill="#BA5EA7"/>
<path d="M1803.91 664.224C1805.21 664.224 1806.27 663.164 1806.27 661.856C1806.27 660.548 1805.21 659.488 1803.91 659.488C1802.6 659.488 1801.54 660.548 1801.54 661.856C1801.54 663.164 1802.6 664.224 1803.91 664.224Z" fill="#BA5EA7"/>
<path d="M1647.08 1034.82C1651.33 1034.82 1654.77 1031.37 1654.77 1027.12C1654.77 1022.87 1651.33 1019.42 1647.08 1019.42C1642.83 1019.42 1639.38 1022.87 1639.38 1027.12C1639.38 1031.37 1642.83 1034.82 1647.08 1034.82Z" fill="#BA5EA7"/>
<path d="M1452.38 559.44C1456.63 559.44 1460.08 555.994 1460.08 551.744C1460.08 547.493 1456.63 544.048 1452.38 544.048C1448.14 544.048 1444.69 547.493 1444.69 551.744C1444.69 555.994 1448.14 559.44 1452.38 559.44Z" fill="#BA5EA7"/>
<path d="M1389.06 629.296C1393.3 629.296 1396.75 625.85 1396.75 621.6C1396.75 617.349 1393.3 613.904 1389.06 613.904C1384.81 613.904 1381.36 617.349 1381.36 621.6C1381.36 625.85 1384.81 629.296 1389.06 629.296Z" fill="#BA5EA7"/>
<path d="M1093.75 890.96C1097.99 890.96 1101.44 887.515 1101.44 883.264C1101.44 879.014 1097.99 875.568 1093.75 875.568C1089.5 875.568 1086.05 879.014 1086.05 883.264C1086.05 887.515 1089.5 890.96 1093.75 890.96Z" fill="#FFD1DF"/>
<path d="M756.419 607.984C760.668 607.984 764.112 604.538 764.112 600.288C764.112 596.037 760.668 592.592 756.419 592.592C752.17 592.592 748.726 596.037 748.726 600.288C748.726 604.538 752.17 607.984 756.419 607.984Z" fill="#BA5EA7"/>
<path d="M785.419 846.56C789.668 846.56 793.113 843.114 793.113 838.864C793.113 834.614 789.668 831.168 785.419 831.168C781.17 831.168 777.726 834.614 777.726 838.864C777.726 843.114 781.17 846.56 785.419 846.56Z" fill="#BA5EA7"/>
<path d="M1639.98 890.96C1644.23 890.96 1647.67 887.515 1647.67 883.264C1647.67 879.014 1644.23 875.568 1639.98 875.568C1635.73 875.568 1632.29 879.014 1632.29 883.264C1632.29 887.515 1635.73 890.96 1639.98 890.96Z" fill="#BA5EA7"/>
<path d="M1086.06 757.168C1090.31 757.168 1093.75 753.723 1093.75 749.472C1093.75 745.222 1090.31 741.776 1086.06 741.776C1081.81 741.776 1078.36 745.222 1078.36 749.472C1078.36 753.723 1081.81 757.168 1086.06 757.168Z" fill="#BA5EA7"/>
<path d="M1748.28 1063.23C1751.22 1063.23 1753.6 1060.85 1753.6 1057.9C1753.6 1054.96 1751.22 1052.58 1748.28 1052.58C1745.33 1052.58 1742.95 1054.96 1742.95 1057.9C1742.95 1060.85 1745.33 1063.23 1748.28 1063.23Z" fill="#BA5EA7"/>
<path d="M1009.13 888.592C1012.07 888.592 1014.45 886.207 1014.45 883.264C1014.45 880.321 1012.07 877.936 1009.13 877.936C1006.18 877.936 1003.8 880.321 1003.8 883.264C1003.8 886.207 1006.18 888.592 1009.13 888.592Z" fill="#BA5EA7"/>
<path d="M1530.5 982.72C1533.44 982.72 1535.83 980.335 1535.83 977.392C1535.83 974.449 1533.44 972.064 1530.5 972.064C1527.56 972.064 1525.17 974.449 1525.17 977.392C1525.17 980.335 1527.56 982.72 1530.5 982.72Z" fill="#BA5EA7"/>
<path d="M1795.62 677.84C1798.56 677.84 1800.95 675.454 1800.95 672.512C1800.95 669.569 1798.56 667.184 1795.62 667.184C1792.68 667.184 1790.29 669.569 1790.29 672.512C1790.29 675.454 1792.68 677.84 1795.62 677.84Z" fill="#BA5EA7"/>
<path d="M1799.18 905.76C1802.12 905.76 1804.5 903.374 1804.5 900.432C1804.5 897.489 1802.12 895.104 1799.18 895.104C1796.24 895.104 1793.85 897.489 1793.85 900.432C1793.85 903.374 1796.24 905.76 1799.18 905.76Z" fill="#BA5EA7"/>
<path d="M1491.44 918.784C1493.73 918.784 1495.58 916.929 1495.58 914.64C1495.58 912.351 1493.73 910.496 1491.44 910.496C1489.15 910.496 1487.3 912.351 1487.3 914.64C1487.3 916.929 1489.15 918.784 1491.44 918.784Z" fill="#BA5EA7"/>
<path d="M1226.91 860.768C1229.2 860.768 1231.05 858.913 1231.05 856.624C1231.05 854.335 1229.2 852.48 1226.91 852.48C1224.62 852.48 1222.77 854.335 1222.77 856.624C1222.77 858.913 1224.62 860.768 1226.91 860.768Z" fill="#BA5EA7"/>
<path d="M875.377 975.616C877.665 975.616 879.519 973.761 879.519 971.472C879.519 969.184 877.665 967.328 875.377 967.328C873.089 967.328 871.234 969.184 871.234 971.472C871.234 973.761 873.089 975.616 875.377 975.616Z" fill="#BA5EA7"/>
<path d="M875.377 885.04C877.665 885.04 879.519 883.185 879.519 880.896C879.519 878.607 877.665 876.752 875.377 876.752C873.089 876.752 871.234 878.607 871.234 880.896C871.234 883.185 873.089 885.04 875.377 885.04Z" fill="#BA5EA7"/>
<path d="M948.762 653.568C951.05 653.568 952.905 651.713 952.905 649.424C952.905 647.136 951.05 645.28 948.762 645.28C946.474 645.28 944.619 647.136 944.619 649.424C944.619 651.713 946.474 653.568 948.762 653.568Z" fill="#BA5EA7"/>
<path d="M1661.29 999.296C1662.59 999.296 1663.65 998.236 1663.65 996.928C1663.65 995.62 1662.59 994.56 1661.29 994.56C1659.98 994.56 1658.92 995.62 1658.92 996.928C1658.92 998.236 1659.98 999.296 1661.29 999.296Z" fill="#BA5EA7"/>
<path d="M1516.29 977.392C1517.6 977.392 1518.66 976.332 1518.66 975.024C1518.66 973.716 1517.6 972.656 1516.29 972.656C1514.99 972.656 1513.93 973.716 1513.93 975.024C1513.93 976.332 1514.99 977.392 1516.29 977.392Z" fill="#BA5EA7"/>
<path d="M1518.66 1036.59C1519.97 1036.59 1521.03 1035.53 1521.03 1034.22C1521.03 1032.92 1519.97 1031.86 1518.66 1031.86C1517.36 1031.86 1516.3 1032.92 1516.3 1034.22C1516.3 1035.53 1517.36 1036.59 1518.66 1036.59Z" fill="#BA5EA7"/>
<path d="M1551.21 1021.79C1552.52 1021.79 1553.58 1020.73 1553.58 1019.42C1553.58 1018.12 1552.52 1017.06 1551.21 1017.06C1549.9 1017.06 1548.84 1018.12 1548.84 1019.42C1548.84 1020.73 1549.9 1021.79 1551.21 1021.79Z" fill="#BA5EA7"/>
<path d="M1483.75 1032.45C1485.05 1032.45 1486.11 1031.39 1486.11 1030.08C1486.11 1028.77 1485.05 1027.71 1483.75 1027.71C1482.44 1027.71 1481.38 1028.77 1481.38 1030.08C1481.38 1031.39 1482.44 1032.45 1483.75 1032.45Z" fill="#BA5EA7"/>
<path d="M744.585 1118.29C745.892 1118.29 746.952 1117.23 746.952 1115.92C746.952 1114.61 745.892 1113.55 744.585 1113.55C743.278 1113.55 742.218 1114.61 742.218 1115.92C742.218 1117.23 743.278 1118.29 744.585 1118.29Z" fill="#BA5EA7"/>
<path d="M1683.78 835.904C1685.08 835.904 1686.14 834.844 1686.14 833.536C1686.14 832.228 1685.08 831.168 1683.78 831.168C1682.47 831.168 1681.41 832.228 1681.41 833.536C1681.41 834.844 1682.47 835.904 1683.78 835.904Z" fill="#BA5EA7"/>
<path d="M1561.86 979.76C1562.52 979.76 1563.05 979.23 1563.05 978.576C1563.05 977.922 1562.52 977.392 1561.86 977.392C1561.21 977.392 1560.68 977.922 1560.68 978.576C1560.68 979.23 1561.21 979.76 1561.86 979.76Z" fill="#BA5EA7"/>
<path d="M1003.79 1156.18C1004.45 1156.18 1004.98 1155.65 1004.98 1154.99C1004.98 1154.34 1004.45 1153.81 1003.79 1153.81C1003.14 1153.81 1002.61 1154.34 1002.61 1154.99C1002.61 1155.65 1003.14 1156.18 1003.79 1156.18Z" fill="#BA5EA7"/>
<path d="M1258.86 981.536C1259.51 981.536 1260.04 981.006 1260.04 980.352C1260.04 979.698 1259.51 979.168 1258.86 979.168C1258.2 979.168 1257.67 979.698 1257.67 980.352C1257.67 981.006 1258.2 981.536 1258.86 981.536Z" fill="#BA5EA7"/>
<path d="M972.434 963.184C973.087 963.184 973.617 962.654 973.617 962C973.617 961.346 973.087 960.816 972.434 960.816C971.78 960.816 971.25 961.346 971.25 962C971.25 962.654 971.78 963.184 972.434 963.184Z" fill="#BA5EA7"/>
<path d="M1404.45 962C1405.1 962 1405.63 961.47 1405.63 960.816C1405.63 960.162 1405.1 959.632 1404.45 959.632C1403.79 959.632 1403.26 960.162 1403.26 960.816C1403.26 961.47 1403.79 962 1404.45 962Z" fill="#BA5EA7"/>
<path d="M1226.91 973.84C1227.56 973.84 1228.09 973.31 1228.09 972.656C1228.09 972.002 1227.56 971.472 1226.91 971.472C1226.25 971.472 1225.72 972.002 1225.72 972.656C1225.72 973.31 1226.25 973.84 1226.91 973.84Z" fill="#BA5EA7"/>
<path d="M793.115 980.352C793.768 980.352 794.298 979.822 794.298 979.168C794.298 978.514 793.768 977.984 793.115 977.984C792.461 977.984 791.931 978.514 791.931 979.168C791.931 979.822 792.461 980.352 793.115 980.352Z" fill="#BA5EA7"/>
<path d="M746.95 976.208C747.604 976.208 748.134 975.678 748.134 975.024C748.134 974.37 747.604 973.84 746.95 973.84C746.297 973.84 745.767 974.37 745.767 975.024C745.767 975.678 746.297 976.208 746.95 976.208Z" fill="#BA5EA7"/>
<path d="M1542.92 1000.48C1543.57 1000.48 1544.1 999.95 1544.1 999.296C1544.1 998.642 1543.57 998.112 1542.92 998.112C1542.27 998.112 1541.74 998.642 1541.74 999.296C1541.74 999.95 1542.27 1000.48 1542.92 1000.48Z" fill="#BA5EA7"/>
<path d="M1303.24 1001.66C1303.9 1001.66 1304.43 1001.13 1304.43 1000.48C1304.43 999.826 1303.9 999.296 1303.24 999.296C1302.59 999.296 1302.06 999.826 1302.06 1000.48C1302.06 1001.13 1302.59 1001.66 1303.24 1001.66Z" fill="#BA5EA7"/>
<path d="M970.654 1005.81C971.308 1005.81 971.838 1005.28 971.838 1004.62C971.838 1003.97 971.308 1003.44 970.654 1003.44C970.001 1003.44 969.471 1003.97 969.471 1004.62C969.471 1005.28 970.001 1005.81 970.654 1005.81Z" fill="#BA5EA7"/>
<path d="M1551.21 960.816C1552.52 960.816 1553.58 959.756 1553.58 958.448C1553.58 957.14 1552.52 956.08 1551.21 956.08C1549.9 956.08 1548.84 957.14 1548.84 958.448C1548.84 959.756 1549.9 960.816 1551.21 960.816Z" fill="#BA5EA7"/>
<path d="M1435.22 958.448C1436.53 958.448 1437.59 957.388 1437.59 956.08C1437.59 954.772 1436.53 953.712 1435.22 953.712C1433.91 953.712 1432.85 954.772 1432.85 956.08C1432.85 957.388 1433.91 958.448 1435.22 958.448Z" fill="#BA5EA7"/>
<path d="M955.264 851.296C956.571 851.296 957.631 850.236 957.631 848.928C957.631 847.62 956.571 846.56 955.264 846.56C953.956 846.56 952.896 847.62 952.896 848.928C952.896 850.236 953.956 851.296 955.264 851.296Z" fill="#BA5EA7"/>
<path d="M1483.75 655.936C1485.05 655.936 1486.11 654.876 1486.11 653.568C1486.11 652.26 1485.05 651.2 1483.75 651.2C1482.44 651.2 1481.38 652.26 1481.38 653.568C1481.38 654.876 1482.44 655.936 1483.75 655.936Z" fill="#BA5EA7"/>
<path d="M1388.47 490.768C1389.77 490.768 1390.83 489.708 1390.83 488.4C1390.83 487.092 1389.77 486.032 1388.47 486.032C1387.16 486.032 1386.1 487.092 1386.1 488.4C1386.1 489.708 1387.16 490.768 1388.47 490.768Z" fill="#BA5EA7"/>
<path d="M1351.77 1043.7C1353.08 1043.7 1354.14 1042.64 1354.14 1041.33C1354.14 1040.02 1353.08 1038.96 1351.77 1038.96C1350.46 1038.96 1349.4 1040.02 1349.4 1041.33C1349.4 1042.64 1350.46 1043.7 1351.77 1043.7Z" fill="#BA5EA7"/>
<path d="M942.248 848.928C943.555 848.928 944.615 847.868 944.615 846.56C944.615 845.252 943.555 844.192 942.248 844.192C940.941 844.192 939.881 845.252 939.881 846.56C939.881 847.868 940.941 848.928 942.248 848.928Z" fill="#BA5EA7"/>
<path d="M900.232 701.52C901.54 701.52 902.6 700.46 902.6 699.152C902.6 697.844 901.54 696.784 900.232 696.784C898.925 696.784 897.865 697.844 897.865 699.152C897.865 700.46 898.925 701.52 900.232 701.52Z" fill="#BA5EA7"/>
<path d="M803.765 704.48C805.072 704.48 806.132 703.419 806.132 702.112C806.132 700.804 805.072 699.744 803.765 699.744C802.458 699.744 801.398 700.804 801.398 702.112C801.398 703.419 802.458 704.48 803.765 704.48Z" fill="#BA5EA7"/>
<path d="M1118.01 561.808C1119.32 561.808 1120.38 560.748 1120.38 559.44C1120.38 558.132 1119.32 557.072 1118.01 557.072C1116.7 557.072 1115.64 558.132 1115.64 559.44C1115.64 560.748 1116.7 561.808 1118.01 561.808Z" fill="#BA5EA7"/>
<path d="M1329.29 495.504C1330.59 495.504 1331.65 494.444 1331.65 493.136C1331.65 491.828 1330.59 490.768 1329.29 490.768C1327.98 490.768 1326.92 491.828 1326.92 493.136C1326.92 494.444 1327.98 495.504 1329.29 495.504Z" fill="#BA5EA7"/>
<path d="M868.863 870.24C870.17 870.24 871.23 869.18 871.23 867.872C871.23 866.564 870.17 865.504 868.863 865.504C867.556 865.504 866.496 866.564 866.496 867.872C866.496 869.18 867.556 870.24 868.863 870.24Z" fill="#BA5EA7"/>
<path d="M801.396 696.784C802.703 696.784 803.763 695.724 803.763 694.416C803.763 693.108 802.703 692.048 801.396 692.048C800.088 692.048 799.029 693.108 799.029 694.416C799.029 695.724 800.088 696.784 801.396 696.784Z" fill="#BA5EA7"/>
<path d="M939.879 696.784C941.186 696.784 942.246 695.724 942.246 694.416C942.246 693.108 941.186 692.048 939.879 692.048C938.572 692.048 937.512 693.108 937.512 694.416C937.512 695.724 938.572 696.784 939.879 696.784Z" fill="#BA5EA7"/>
<path d="M1163.58 594.96C1164.89 594.96 1165.95 593.899 1165.95 592.592C1165.95 591.284 1164.89 590.224 1163.58 590.224C1162.28 590.224 1161.22 591.284 1161.22 592.592C1161.22 593.899 1162.28 594.96 1163.58 594.96Z" fill="#BA5EA7"/>
<path d="M1402.07 838.864C1403.38 838.864 1404.44 837.804 1404.44 836.496C1404.44 835.188 1403.38 834.128 1402.07 834.128C1400.77 834.128 1399.71 835.188 1399.71 836.496C1399.71 837.804 1400.77 838.864 1402.07 838.864Z" fill="#BA5EA7"/>
<path d="M981.895 663.633C983.202 663.633 984.262 662.572 984.262 661.264C984.262 659.957 983.202 658.896 981.895 658.896C980.588 658.896 979.528 659.957 979.528 661.264C979.528 662.572 980.588 663.633 981.895 663.633Z" fill="#BA5EA7"/>
<path d="M739.857 616.272C741.164 616.272 742.224 615.212 742.224 613.904C742.224 612.596 741.164 611.536 739.857 611.536C738.549 611.536 737.489 612.596 737.489 613.904C737.489 615.212 738.549 616.272 739.857 616.272Z" fill="#BA5EA7"/>
<path d="M1357.1 722.24C1358.41 722.24 1359.47 721.18 1359.47 719.872C1359.47 718.564 1358.41 717.504 1357.1 717.504C1355.79 717.504 1354.73 718.564 1354.73 719.872C1354.73 721.18 1355.79 722.24 1357.1 722.24Z" fill="#BA5EA7"/>
<path d="M975.977 532.799C977.284 532.799 978.344 531.739 978.344 530.431C978.344 529.124 977.284 528.063 975.977 528.063C974.669 528.063 973.609 529.124 973.609 530.431C973.609 531.739 974.669 532.799 975.977 532.799Z" fill="#BA5EA7"/>
<path d="M1530.5 824.064C1531.81 824.064 1532.87 823.004 1532.87 821.696C1532.87 820.388 1531.81 819.328 1530.5 819.328C1529.19 819.328 1528.13 820.388 1528.13 821.696C1528.13 823.004 1529.19 824.064 1530.5 824.064Z" fill="#BA5EA7"/>
<path d="M1805.09 651.2C1809.34 651.2 1812.79 647.754 1812.79 643.504C1812.79 639.254 1809.34 635.808 1805.09 635.808C1800.85 635.808 1797.4 639.254 1797.4 643.504C1797.4 647.754 1800.85 651.2 1805.09 651.2Z" fill="#BA5EA7"/>
<path d="M1923.46 609.76C1926.4 609.76 1928.78 607.374 1928.78 604.432C1928.78 601.489 1926.4 599.104 1923.46 599.104C1920.51 599.104 1918.13 601.489 1918.13 604.432C1918.13 607.374 1920.51 609.76 1923.46 609.76Z" fill="#BA5EA7"/>
<path d="M1820.48 506.16C1821.13 506.16 1821.66 505.63 1821.66 504.976C1821.66 504.322 1821.13 503.792 1820.48 503.792C1819.82 503.792 1819.29 504.322 1819.29 504.976C1819.29 505.63 1819.82 506.16 1820.48 506.16Z" fill="#BA5EA7"/>
<path d="M1718.1 510.304C1719.4 510.304 1720.46 509.244 1720.46 507.936C1720.46 506.629 1719.4 505.568 1718.1 505.568C1716.79 505.568 1715.73 506.629 1715.73 507.936C1715.73 509.244 1716.79 510.304 1718.1 510.304Z" fill="#BA5EA7"/>
<path d="M1683.78 645.872C1685.08 645.872 1686.14 644.812 1686.14 643.504C1686.14 642.196 1685.08 641.136 1683.78 641.136C1682.47 641.136 1681.41 642.196 1681.41 643.504C1681.41 644.812 1682.47 645.872 1683.78 645.872Z" fill="#BA5EA7"/>
<path d="M1767.22 955.488C1767.87 955.488 1768.4 954.958 1768.4 954.304C1768.4 953.65 1767.87 953.12 1767.22 953.12C1766.56 953.12 1766.03 953.65 1766.03 954.304C1766.03 954.958 1766.56 955.488 1767.22 955.488Z" fill="#BA5EA7"/>
<path d="M1742.96 712.768C1744.26 712.768 1745.32 711.708 1745.32 710.4C1745.32 709.092 1744.26 708.032 1742.96 708.032C1741.65 708.032 1740.59 709.092 1740.59 710.4C1740.59 711.708 1741.65 712.768 1742.96 712.768Z" fill="#BA5EA7"/>
<path d="M1787.34 634.032C1790.28 634.032 1792.67 631.647 1792.67 628.704C1792.67 625.761 1790.28 623.376 1787.34 623.376C1784.4 623.376 1782.02 625.761 1782.02 628.704C1782.02 631.647 1784.4 634.032 1787.34 634.032Z" fill="#BA5EA7"/>
<path d="M1835.28 599.104C1836.58 599.104 1837.64 598.044 1837.64 596.736C1837.64 595.428 1836.58 594.368 1835.28 594.368C1833.97 594.368 1832.91 595.428 1832.91 596.736C1832.91 598.044 1833.97 599.104 1835.28 599.104Z" fill="#BA5EA7"/>
<path d="M1802.14 586.672C1803.45 586.672 1804.5 585.612 1804.5 584.304C1804.5 582.996 1803.45 581.936 1802.14 581.936C1800.83 581.936 1799.77 582.996 1799.77 584.304C1799.77 585.612 1800.83 586.672 1802.14 586.672Z" fill="#BA5EA7"/>
<path d="M1766.04 606.208C1766.69 606.208 1767.22 605.678 1767.22 605.024C1767.22 604.37 1766.69 603.84 1766.04 603.84C1765.38 603.84 1764.85 604.37 1764.85 605.024C1764.85 605.678 1765.38 606.208 1766.04 606.208Z" fill="#BA5EA7"/>
<path d="M1793.85 605.024C1794.5 605.024 1795.03 604.494 1795.03 603.84C1795.03 603.186 1794.5 602.656 1793.85 602.656C1793.19 602.656 1792.66 603.186 1792.66 603.84C1792.66 604.494 1793.19 605.024 1793.85 605.024Z" fill="#BA5EA7"/>
<path d="M1758.93 629.296C1760.24 629.296 1761.3 628.236 1761.3 626.928C1761.3 625.62 1760.24 624.56 1758.93 624.56C1757.62 624.56 1756.56 625.62 1756.56 626.928C1756.56 628.236 1757.62 629.296 1758.93 629.296Z" fill="#BA5EA7"/>
<path d="M1921.09 933.584C1924.03 933.584 1926.41 931.199 1926.41 928.256C1926.41 925.314 1924.03 922.928 1921.09 922.928C1918.15 922.928 1915.76 925.314 1915.76 928.256C1915.76 931.199 1918.15 933.584 1921.09 933.584Z" fill="#BA5EA7"/>
<path d="M1009.13 944.832C1012.07 944.832 1014.45 942.447 1014.45 939.504C1014.45 936.562 1012.07 934.176 1009.13 934.176C1006.18 934.176 1003.8 936.562 1003.8 939.504C1003.8 942.447 1006.18 944.832 1009.13 944.832Z" fill="#BA5EA7"/>
<path d="M1904.52 1004.62C1906.81 1004.62 1908.66 1002.77 1908.66 1000.48C1908.66 998.191 1906.81 996.336 1904.52 996.336C1902.23 996.336 1900.38 998.191 1900.38 1000.48C1900.38 1002.77 1902.23 1004.62 1904.52 1004.62Z" fill="#BA5EA7"/>
<path d="M1899.78 906.352C1900.43 906.352 1900.96 905.822 1900.96 905.168C1900.96 904.514 1900.43 903.984 1899.78 903.984C1899.13 903.984 1898.6 904.514 1898.6 905.168C1898.6 905.822 1899.13 906.352 1899.78 906.352Z" fill="#BA5EA7"/>
<path d="M1851.26 1010.54C1851.91 1010.54 1852.44 1010.01 1852.44 1009.36C1852.44 1008.71 1851.91 1008.18 1851.26 1008.18C1850.6 1008.18 1850.07 1008.71 1850.07 1009.36C1850.07 1010.01 1850.6 1010.54 1851.26 1010.54Z" fill="#BA5EA7"/>
<path d="M1893.27 929.44C1894.57 929.44 1895.63 928.379 1895.63 927.072C1895.63 925.764 1894.57 924.704 1893.27 924.704C1891.96 924.704 1890.9 925.764 1890.9 927.072C1890.9 928.379 1891.96 929.44 1893.27 929.44Z" fill="#BA5EA7"/>
<path d="M1720.46 927.664C1721.77 927.664 1722.83 926.604 1722.83 925.296C1722.83 923.988 1721.77 922.928 1720.46 922.928C1719.16 922.928 1718.1 923.988 1718.1 925.296C1718.1 926.604 1719.16 927.664 1720.46 927.664Z" fill="#BA5EA7"/>
<path d="M820.925 924.112C824.847 924.112 828.027 920.931 828.027 917.008C828.027 913.084 824.847 909.904 820.925 909.904C817.003 909.904 813.824 913.084 813.824 917.008C813.824 920.931 817.003 924.112 820.925 924.112Z" fill="#BA5EA7"/>
<path d="M971.244 454.064C975.166 454.064 978.346 450.884 978.346 446.96C978.346 443.037 975.166 439.856 971.244 439.856C967.322 439.856 964.143 443.037 964.143 446.96C964.143 450.884 967.322 454.064 971.244 454.064Z" fill="#BA5EA7"/>
<path d="M881.295 465.904C885.217 465.904 888.396 462.724 888.396 458.8C888.396 454.877 885.217 451.696 881.295 451.696C877.373 451.696 874.193 454.877 874.193 458.8C874.193 462.724 877.373 465.904 881.295 465.904Z" fill="#BA5EA7"/>
<path d="M501.953 475.968C505.875 475.968 509.054 472.787 509.054 468.864C509.054 464.94 505.875 461.76 501.953 461.76C498.031 461.76 494.851 464.94 494.851 468.864C494.851 472.787 498.031 475.968 501.953 475.968Z" fill="#FFD1DF"/>
<path d="M303.101 252.192C307.023 252.192 310.202 249.011 310.202 245.088C310.202 241.164 307.023 237.984 303.101 237.984C299.178 237.984 295.999 241.164 295.999 245.088C295.999 249.011 299.178 252.192 303.101 252.192Z" fill="#BA5EA7"/>
<path d="M903.777 813.408C907.699 813.408 910.879 810.228 910.879 806.304C910.879 802.381 907.699 799.2 903.777 799.2C899.855 799.2 896.676 802.381 896.676 806.304C896.676 810.228 899.855 813.408 903.777 813.408Z" fill="#BA5EA7"/>
<path d="M579.477 372.368C583.399 372.368 586.578 369.188 586.578 365.264C586.578 361.341 583.399 358.16 579.477 358.16C575.555 358.16 572.375 361.341 572.375 365.264C572.375 369.188 575.555 372.368 579.477 372.368Z" fill="#FFD1DF"/>
<path d="M440.398 422.096C443.34 422.096 445.724 419.711 445.724 416.768C445.724 413.825 443.34 411.44 440.398 411.44C437.456 411.44 435.072 413.825 435.072 416.768C435.072 419.711 437.456 422.096 440.398 422.096Z" fill="#BA5EA7"/>
<path d="M765.298 813.408C768.24 813.408 770.624 811.022 770.624 808.08C770.624 805.137 768.24 802.752 765.298 802.752C762.357 802.752 759.972 805.137 759.972 808.08C759.972 811.022 762.357 813.408 765.298 813.408Z" fill="#BA5EA7"/>
<path d="M775.359 741.184C777.32 741.184 778.909 739.594 778.909 737.632C778.909 735.67 777.32 734.08 775.359 734.08C773.398 734.08 771.808 735.67 771.808 737.632C771.808 739.594 773.398 741.184 775.359 741.184Z" fill="#BA5EA7"/>
<path d="M616.762 535.168C618.723 535.168 620.313 533.577 620.313 531.616C620.313 529.654 618.723 528.063 616.762 528.063C614.801 528.063 613.211 529.654 613.211 531.616C613.211 533.577 614.801 535.168 616.762 535.168Z" fill="#BA5EA7"/>
<path d="M287.123 401.968C289.085 401.968 290.674 400.377 290.674 398.416C290.674 396.454 289.085 394.864 287.123 394.864C285.162 394.864 283.573 396.454 283.573 398.416C283.573 400.377 285.162 401.968 287.123 401.968Z" fill="#BA5EA7"/>
<path d="M342.755 335.664C344.716 335.664 346.306 334.074 346.306 332.112C346.306 330.15 344.716 328.56 342.755 328.56C340.794 328.56 339.204 330.15 339.204 332.112C339.204 334.074 340.794 335.664 342.755 335.664Z" fill="#BA5EA7"/>
<path d="M539.828 210.752C541.789 210.752 543.379 209.162 543.379 207.2C543.379 205.239 541.789 203.648 539.828 203.648C537.867 203.648 536.277 205.239 536.277 207.2C536.277 209.162 537.867 210.752 539.828 210.752Z" fill="#BA5EA7"/>
<path d="M849.929 905.76C851.237 905.76 852.297 904.7 852.297 903.392C852.297 902.084 851.237 901.024 849.929 901.024C848.622 901.024 847.562 902.084 847.562 903.392C847.562 904.7 848.622 905.76 849.929 905.76Z" fill="#BA5EA7"/>
<path d="M756.421 799.792C757.728 799.792 758.788 798.732 758.788 797.424C758.788 796.116 757.728 795.056 756.421 795.056C755.114 795.056 754.054 796.116 754.054 797.424C754.054 798.732 755.114 799.792 756.421 799.792Z" fill="#BA5EA7"/>
<path d="M721.503 845.376C722.81 845.376 723.87 844.316 723.87 843.008C723.87 841.7 722.81 840.64 721.503 840.64C720.196 840.64 719.136 841.7 719.136 843.008C719.136 844.316 720.196 845.376 721.503 845.376Z" fill="#BA5EA7"/>
<path d="M754.652 854.256C755.959 854.256 757.019 853.196 757.019 851.888C757.019 850.58 755.959 849.52 754.652 849.52C753.344 849.52 752.284 850.58 752.284 851.888C752.284 853.196 753.344 854.256 754.652 854.256Z" fill="#BA5EA7"/>
<path d="M698.431 820.512C699.738 820.512 700.798 819.452 700.798 818.144C700.798 816.837 699.738 815.776 698.431 815.776C697.123 815.776 696.063 816.837 696.063 818.144C696.063 819.452 697.123 820.512 698.431 820.512Z" fill="#BA5EA7"/>
<path d="M101.892 426.24C103.199 426.24 104.259 425.18 104.259 423.872C104.259 422.564 103.199 421.504 101.892 421.504C100.585 421.504 99.5249 422.564 99.5249 423.872C99.5249 425.18 100.585 426.24 101.892 426.24Z" fill="#BA5EA7"/>
<path d="M967.1 799.792C968.407 799.792 969.467 798.732 969.467 797.424C969.467 796.116 968.407 795.056 967.1 795.056C965.793 795.056 964.733 796.116 964.733 797.424C964.733 798.732 965.793 799.792 967.1 799.792Z" fill="#BA5EA7"/>
<path d="M787.786 829.984C788.44 829.984 788.97 829.454 788.97 828.8C788.97 828.146 788.44 827.616 787.786 827.616C787.133 827.616 786.603 828.146 786.603 828.8C786.603 829.454 787.133 829.984 787.786 829.984Z" fill="#BA5EA7"/>
<path d="M370.569 835.312C371.55 835.312 372.345 834.517 372.345 833.536C372.345 832.555 371.55 831.76 370.569 831.76C369.589 831.76 368.794 832.555 368.794 833.536C368.794 834.517 369.589 835.312 370.569 835.312Z" fill="#BA5EA7"/>
<path d="M564.092 643.504C564.745 643.504 565.275 642.974 565.275 642.32C565.275 641.666 564.745 641.136 564.092 641.136C563.438 641.136 562.908 641.666 562.908 642.32C562.908 642.974 563.438 643.504 564.092 643.504Z" fill="#BA5EA7"/>
<path d="M364.06 452.88C364.713 452.88 365.243 452.35 365.243 451.696C365.243 451.042 364.713 450.512 364.06 450.512C363.406 450.512 362.876 451.042 362.876 451.696C362.876 452.35 363.406 452.88 364.06 452.88Z" fill="#BA5EA7"/>
<path d="M683.042 719.28C683.696 719.28 684.226 718.75 684.226 718.096C684.226 717.442 683.696 716.912 683.042 716.912C682.388 716.912 681.858 717.442 681.858 718.096C681.858 718.75 682.388 719.28 683.042 719.28Z" fill="#BA5EA7"/>
<path d="M545.148 618.048C545.802 618.048 546.332 617.518 546.332 616.864C546.332 616.21 545.802 615.68 545.148 615.68C544.495 615.68 543.965 616.21 543.965 616.864C543.965 617.518 544.495 618.048 545.148 618.048Z" fill="#BA5EA7"/>
<path d="M221.438 354.608C222.091 354.608 222.621 354.078 222.621 353.424C222.621 352.77 222.091 352.24 221.438 352.24C220.784 352.24 220.254 352.77 220.254 353.424C220.254 354.078 220.784 354.608 221.438 354.608Z" fill="#BA5EA7"/>
<path d="M190.658 323.232C191.312 323.232 191.842 322.702 191.842 322.048C191.842 321.394 191.312 320.864 190.658 320.864C190.005 320.864 189.475 321.394 189.475 322.048C189.475 322.702 190.005 323.232 190.658 323.232Z" fill="#BA5EA7"/>
<path d="M761.155 833.536C761.809 833.536 762.339 833.006 762.339 832.352C762.339 831.698 761.809 831.168 761.155 831.168C760.502 831.168 759.972 831.698 759.972 832.352C759.972 833.006 760.502 833.536 761.155 833.536Z" fill="#FFD1DF"/>
<path d="M584.205 686.128C584.859 686.128 585.389 685.598 585.389 684.944C585.389 684.29 584.859 683.76 584.205 683.76C583.552 683.76 583.022 684.29 583.022 684.944C583.022 685.598 583.552 686.128 584.205 686.128Z" fill="#BA5EA7"/>
<path d="M336.839 483.072C337.492 483.072 338.022 482.542 338.022 481.888C338.022 481.234 337.492 480.704 336.839 480.704C336.185 480.704 335.655 481.234 335.655 481.888C335.655 482.542 336.185 483.072 336.839 483.072Z" fill="#BA5EA7"/>
<path d="M792.519 809.264C793.826 809.264 794.886 808.204 794.886 806.896C794.886 805.589 793.826 804.528 792.519 804.528C791.212 804.528 790.152 805.589 790.152 806.896C790.152 808.204 791.212 809.264 792.519 809.264Z" fill="#BA5EA7"/>
<path d="M708.487 735.856C709.795 735.856 710.854 734.796 710.854 733.488C710.854 732.18 709.795 731.12 708.487 731.12C707.18 731.12 706.12 732.18 706.12 733.488C706.12 734.796 707.18 735.856 708.487 735.856Z" fill="#BA5EA7"/>
<path d="M421.464 359.936C422.772 359.936 423.831 358.876 423.831 357.568C423.831 356.26 422.772 355.2 421.464 355.2C420.157 355.2 419.097 356.26 419.097 357.568C419.097 358.876 420.157 359.936 421.464 359.936Z" fill="#BA5EA7"/>
<path d="M931.002 543.456C932.309 543.456 933.369 542.396 933.369 541.088C933.369 539.78 932.309 538.72 931.002 538.72C929.695 538.72 928.635 539.78 928.635 541.088C928.635 542.396 929.695 543.456 931.002 543.456Z" fill="#BA5EA7"/>
<path d="M594.266 747.104C595.573 747.104 596.633 746.044 596.633 744.736C596.633 743.428 595.573 742.368 594.266 742.368C592.959 742.368 591.899 743.428 591.899 744.736C591.899 746.044 592.959 747.104 594.266 747.104Z" fill="#BA5EA7"/>
<path d="M413.767 350.464C415.074 350.464 416.134 349.404 416.134 348.096C416.134 346.788 415.074 345.728 413.767 345.728C412.46 345.728 411.4 346.788 411.4 348.096C411.4 349.404 412.46 350.464 413.767 350.464Z" fill="#BA5EA7"/>
<path d="M473.546 216.08C474.854 216.08 475.914 215.02 475.914 213.712C475.914 212.404 474.854 211.344 473.546 211.344C472.239 211.344 471.179 212.404 471.179 213.712C471.179 215.02 472.239 216.08 473.546 216.08Z" fill="#BA5EA7"/>
<path d="M400.751 158.064C402.059 158.064 403.119 157.004 403.119 155.696C403.119 154.388 402.059 153.328 400.751 153.328C399.444 153.328 398.384 154.388 398.384 155.696C398.384 157.004 399.444 158.064 400.751 158.064Z" fill="#BA5EA7"/>
<path d="M720.323 247.456C721.631 247.456 722.691 246.396 722.691 245.088C722.691 243.78 721.631 242.72 720.323 242.72C719.016 242.72 717.956 243.78 717.956 245.088C717.956 246.396 719.016 247.456 720.323 247.456Z" fill="#BA5EA7"/>
<path d="M346.31 320.864C347.617 320.864 348.677 319.804 348.677 318.496C348.677 317.188 347.617 316.128 346.31 316.128C345.002 316.128 343.942 317.188 343.942 318.496C343.942 319.804 345.002 320.864 346.31 320.864Z" fill="#BA5EA7"/>
<path d="M403.71 150.96C405.018 150.96 406.077 149.899 406.077 148.592C406.077 147.284 405.018 146.224 403.71 146.224C402.403 146.224 401.343 147.284 401.343 148.592C401.343 149.899 402.403 150.96 403.71 150.96Z" fill="#BA5EA7"/>
<path d="M505.496 236.799C506.803 236.799 507.863 235.739 507.863 234.431C507.863 233.124 506.803 232.063 505.496 232.063C504.189 232.063 503.129 233.124 503.129 234.431C503.129 235.739 504.189 236.799 505.496 236.799Z" fill="#BA5EA7"/>
<path d="M733.339 300.736C734.646 300.736 735.706 299.676 735.706 298.368C735.706 297.06 734.646 296 733.339 296C732.031 296 730.972 297.06 730.972 298.368C730.972 299.676 732.031 300.736 733.339 300.736Z" fill="#BA5EA7"/>
<path d="M758.2 626.928C759.508 626.928 760.568 625.868 760.568 624.56C760.568 623.252 759.508 622.192 758.2 622.192C756.893 622.192 755.833 623.252 755.833 624.56C755.833 625.868 756.893 626.928 758.2 626.928Z" fill="#BA5EA7"/>
<path d="M556.988 238.576C558.296 238.576 559.356 237.516 559.356 236.208C559.356 234.9 558.296 233.84 556.988 233.84C555.681 233.84 554.621 234.9 554.621 236.208C554.621 237.516 555.681 238.576 556.988 238.576Z" fill="#BA5EA7"/>
<path d="M796.667 513.856C797.975 513.856 799.035 512.796 799.035 511.488C799.035 510.18 797.975 509.12 796.667 509.12C795.36 509.12 794.3 510.18 794.3 511.488C794.3 512.796 795.36 513.856 796.667 513.856Z" fill="#BA5EA7"/>
<path d="M861.765 695.6C863.073 695.6 864.133 694.54 864.133 693.232C864.133 691.924 863.073 690.864 861.765 690.864C860.458 690.864 859.398 691.924 859.398 693.232C859.398 694.54 860.458 695.6 861.765 695.6Z" fill="#BA5EA7"/>
<path d="M1084.87 659.488C1086.18 659.488 1087.24 658.428 1087.24 657.12C1087.24 655.812 1086.18 654.752 1084.87 654.752C1083.56 654.752 1082.5 655.812 1082.5 657.12C1082.5 658.428 1083.56 659.488 1084.87 659.488Z" fill="#BA5EA7"/>
<path d="M405.489 462.944C408.431 462.944 410.816 460.559 410.816 457.616C410.816 454.674 408.431 452.288 405.489 452.288C402.548 452.288 400.163 454.674 400.163 457.616C400.163 460.559 402.548 462.944 405.489 462.944Z" fill="#BA5EA7"/>
<path d="M582.438 1073.89C586.686 1073.89 590.131 1070.44 590.131 1066.19C590.131 1061.94 586.686 1058.5 582.438 1058.5C578.189 1058.5 574.744 1061.94 574.744 1066.19C574.744 1070.44 578.189 1073.89 582.438 1073.89Z" fill="#FFD1DF"/>
<path d="M738.665 584.896C742.914 584.896 746.358 581.45 746.358 577.2C746.358 572.95 742.914 569.504 738.665 569.504C734.416 569.504 730.972 572.95 730.972 577.2C730.972 581.45 734.416 584.896 738.665 584.896Z" fill="#BA5EA7"/>
<path d="M645.756 597.328C650.005 597.328 653.45 593.882 653.45 589.632C653.45 585.382 650.005 581.936 645.756 581.936C641.507 581.936 638.063 585.382 638.063 589.632C638.063 593.882 641.507 597.328 645.756 597.328Z" fill="#BA5EA7"/>
<path d="M251.03 607.392C255.279 607.392 258.723 603.946 258.723 599.696C258.723 595.446 255.279 592 251.03 592C246.781 592 243.336 595.446 243.336 599.696C243.336 603.946 246.781 607.392 251.03 607.392Z" fill="#BA5EA7"/>
<path d="M174.686 174.048C178.935 174.048 182.379 170.603 182.379 166.352C182.379 162.102 178.935 158.656 174.686 158.656C170.437 158.656 166.992 162.102 166.992 166.352C166.992 170.603 170.437 174.048 174.686 174.048Z" fill="#BA5EA7"/>
<path d="M43.3001 375.329C47.5491 375.329 50.9936 371.883 50.9936 367.633C50.9936 363.382 47.5491 359.937 43.3001 359.937C39.0512 359.937 35.6067 363.382 35.6067 367.633C35.6067 371.883 39.0512 375.329 43.3001 375.329Z" fill="#BA5EA7"/>
<path d="M668.839 959.04C673.088 959.04 676.532 955.595 676.532 951.344C676.532 947.094 673.088 943.648 668.839 943.648C664.59 943.648 661.145 947.094 661.145 951.344C661.145 955.595 664.59 959.04 668.839 959.04Z" fill="#DB86BD"/>
<path d="M330.923 500.24C335.172 500.24 338.616 496.794 338.616 492.544C338.616 488.294 335.172 484.848 330.923 484.848C326.674 484.848 323.229 488.294 323.229 492.544C323.229 496.794 326.674 500.24 330.923 500.24Z" fill="#BA5EA7"/>
<path d="M639.84 1160.32C642.782 1160.32 645.167 1157.93 645.167 1154.99C645.167 1152.05 642.782 1149.66 639.84 1149.66C636.899 1149.66 634.514 1152.05 634.514 1154.99C634.514 1157.93 636.899 1160.32 639.84 1160.32Z" fill="#BA5EA7"/>
<path d="M186.523 551.152C189.465 551.152 191.85 548.767 191.85 545.824C191.85 542.881 189.465 540.496 186.523 540.496C183.582 540.496 181.197 542.881 181.197 545.824C181.197 548.767 183.582 551.152 186.523 551.152Z" fill="#BA5EA7"/>
<path d="M524.439 958.448C527.381 958.448 529.766 956.063 529.766 953.12C529.766 950.177 527.381 947.792 524.439 947.792C521.498 947.792 519.113 950.177 519.113 953.12C519.113 956.063 521.498 958.448 524.439 958.448Z" fill="#DB86BD"/>
<path d="M923.315 895.696C926.256 895.696 928.641 893.311 928.641 890.368C928.641 887.425 926.256 885.04 923.315 885.04C920.373 885.04 917.988 887.425 917.988 890.368C917.988 893.311 920.373 895.696 923.315 895.696Z" fill="#BA5EA7"/>
<path d="M535.092 883.856C537.38 883.856 539.234 882.001 539.234 879.712C539.234 877.424 537.38 875.568 535.092 875.568C532.804 875.568 530.949 877.424 530.949 879.712C530.949 882.001 532.804 883.856 535.092 883.856Z" fill="#BA5EA7"/>
<path d="M369.978 669.552C372.265 669.552 374.12 667.696 374.12 665.408C374.12 663.119 372.265 661.264 369.978 661.264C367.69 661.264 365.835 663.119 365.835 665.408C365.835 667.696 367.69 669.552 369.978 669.552Z" fill="#BA5EA7"/>
<path d="M27.3232 531.024C29.6111 531.024 31.4658 529.169 31.4658 526.88C31.4658 524.592 29.6111 522.736 27.3232 522.736C25.0353 522.736 23.1807 524.592 23.1807 526.88C23.1807 529.169 25.0353 531.024 27.3232 531.024Z" fill="#BA5EA7"/>
<path d="M85.3238 461.76C87.6117 461.76 89.4664 459.904 89.4664 457.616C89.4664 455.327 87.6117 453.472 85.3238 453.472C83.0359 453.472 81.1812 455.327 81.1812 457.616C81.1812 459.904 83.0359 461.76 85.3238 461.76Z" fill="#BA5EA7"/>
<path d="M290.085 331.52C292.373 331.52 294.227 329.665 294.227 327.376C294.227 325.087 292.373 323.232 290.085 323.232C287.797 323.232 285.942 325.087 285.942 327.376C285.942 329.665 287.797 331.52 290.085 331.52Z" fill="#BA5EA7"/>
<path d="M612.62 1054.94C613.927 1054.94 614.987 1053.88 614.987 1052.58C614.987 1051.27 613.927 1050.21 612.62 1050.21C611.312 1050.21 610.252 1051.27 610.252 1052.58C610.252 1053.88 611.312 1054.94 612.62 1054.94Z" fill="#BA5EA7"/>
<path d="M515.562 944.24C516.87 944.24 517.93 943.18 517.93 941.872C517.93 940.564 516.87 939.504 515.562 939.504C514.255 939.504 513.195 940.564 513.195 941.872C513.195 943.18 514.255 944.24 515.562 944.24Z" fill="#DB86BD"/>
<path d="M479.464 991.6C480.772 991.6 481.832 990.54 481.832 989.232C481.832 987.924 480.772 986.864 479.464 986.864C478.157 986.864 477.097 987.924 477.097 989.232C477.097 990.54 478.157 991.6 479.464 991.6Z" fill="#DB86BD"/>
<path d="M513.783 1001.07C515.09 1001.07 516.15 1000.01 516.15 998.704C516.15 997.396 515.09 996.336 513.783 996.336C512.476 996.336 511.416 997.396 511.416 998.704C511.416 1000.01 512.476 1001.07 513.783 1001.07Z" fill="#BA5EA7"/>
<path d="M455.193 966.144C456.5 966.144 457.56 965.084 457.56 963.776C457.56 962.468 456.5 961.408 455.193 961.408C453.886 961.408 452.826 962.468 452.826 963.776C452.826 965.084 453.886 966.144 455.193 966.144Z" fill="#DB86BD"/>
<path d="M734.528 944.24C735.836 944.24 736.896 943.18 736.896 941.872C736.896 940.564 735.836 939.504 734.528 939.504C733.221 939.504 732.161 940.564 732.161 941.872C732.161 943.18 733.221 944.24 734.528 944.24Z" fill="#BA5EA7"/>
<path d="M548.107 975.616C548.761 975.616 549.291 975.086 549.291 974.432C549.291 973.778 548.761 973.248 548.107 973.248C547.454 973.248 546.924 973.778 546.924 974.432C546.924 975.086 547.454 975.616 548.107 975.616Z" fill="#DB86BD"/>
<path d="M7.79977 751.248C8.45345 751.248 8.98334 750.718 8.98334 750.064C8.98334 749.41 8.45345 748.88 7.79977 748.88C7.1461 748.88 6.61621 749.41 6.61621 750.064C6.61621 750.718 7.1461 751.248 7.79977 751.248Z" fill="#BA5EA7"/>
<path d="M314.936 781.44C315.59 781.44 316.12 780.91 316.12 780.256C316.12 779.602 315.59 779.072 314.936 779.072C314.283 779.072 313.753 779.602 313.753 780.256C313.753 780.91 314.283 781.44 314.936 781.44Z" fill="#BA5EA7"/>
<path d="M107.217 583.12C107.87 583.12 108.4 582.59 108.4 581.936C108.4 581.282 107.87 580.752 107.217 580.752C106.563 580.752 106.033 581.282 106.033 581.936C106.033 582.59 106.563 583.12 107.217 583.12Z" fill="#BA5EA7"/>
<path d="M438.625 860.768C439.278 860.768 439.808 860.238 439.808 859.584C439.808 858.93 439.278 858.4 438.625 858.4C437.971 858.4 437.441 858.93 437.441 859.584C437.441 860.238 437.971 860.768 438.625 860.768Z" fill="#BA5EA7"/>
<path d="M295.413 755.392C296.066 755.392 296.596 754.862 296.596 754.208C296.596 753.554 296.066 753.024 295.413 753.024C294.759 753.024 294.229 753.554 294.229 754.208C294.229 754.862 294.759 755.392 295.413 755.392Z" fill="#BA5EA7"/>
<path d="M520.297 979.168C520.951 979.168 521.481 978.638 521.481 977.984C521.481 977.33 520.951 976.8 520.297 976.8C519.643 976.8 519.113 977.33 519.113 977.984C519.113 978.638 519.643 979.168 520.297 979.168Z" fill="#BA5EA7"/>
<path d="M335.649 825.84C336.303 825.84 336.833 825.31 336.833 824.656C336.833 824.002 336.303 823.472 335.649 823.472C334.996 823.472 334.466 824.002 334.466 824.656C334.466 825.31 334.996 825.84 335.649 825.84Z" fill="#BA5EA7"/>
<path d="M78.8159 614.496C79.4696 614.496 79.9995 613.966 79.9995 613.312C79.9995 612.658 79.4696 612.128 78.8159 612.128C78.1622 612.128 77.6323 612.658 77.6323 613.312C77.6323 613.966 78.1622 614.496 78.8159 614.496Z" fill="#BA5EA7"/>
<path d="M552.84 954.304C554.147 954.304 555.207 953.244 555.207 951.936C555.207 950.629 554.147 949.568 552.84 949.568C551.533 949.568 550.473 950.629 550.473 951.936C550.473 953.244 551.533 954.304 552.84 954.304Z" fill="#DB86BD"/>
<path d="M465.849 877.936C467.156 877.936 468.216 876.876 468.216 875.568C468.216 874.26 467.156 873.2 465.849 873.2C464.542 873.2 463.482 874.26 463.482 875.568C463.482 876.876 464.542 877.936 465.849 877.936Z" fill="#BA5EA7"/>
<path d="M166.99 486.624C168.298 486.624 169.357 485.564 169.357 484.256C169.357 482.948 168.298 481.888 166.99 481.888C165.683 481.888 164.623 482.948 164.623 484.256C164.623 485.564 165.683 486.624 166.99 486.624Z" fill="#BA5EA7"/>
<path d="M697.241 677.248C698.548 677.248 699.608 676.187 699.608 674.88C699.608 673.572 698.548 672.512 697.241 672.512C695.934 672.512 694.874 673.572 694.874 674.88C694.874 676.187 695.934 677.248 697.241 677.248Z" fill="#BA5EA7"/>
<path d="M730.38 489.584C731.687 489.584 732.747 488.524 732.747 487.216C732.747 485.908 731.687 484.848 730.38 484.848C729.073 484.848 728.013 485.908 728.013 487.216C728.013 488.524 729.073 489.584 730.38 489.584Z" fill="#BA5EA7"/>
<path d="M346.899 889.184C348.207 889.184 349.267 888.124 349.267 886.816C349.267 885.509 348.207 884.448 346.899 884.448C345.592 884.448 344.532 885.509 344.532 886.816C344.532 888.124 345.592 889.184 346.899 889.184Z" fill="#BA5EA7"/>
<path d="M158.703 476.56C160.011 476.56 161.07 475.5 161.07 474.192C161.07 472.884 160.011 471.824 158.703 471.824C157.396 471.824 156.336 472.884 156.336 474.192C156.336 475.5 157.396 476.56 158.703 476.56Z" fill="#BA5EA7"/>
<path d="M221.432 336.848C222.739 336.848 223.799 335.788 223.799 334.48C223.799 333.172 222.739 332.112 221.432 332.112C220.125 332.112 219.065 333.172 219.065 334.48C219.065 335.788 220.125 336.848 221.432 336.848Z" fill="#BA5EA7"/>
<path d="M145.687 277.056C146.995 277.056 148.055 275.996 148.055 274.688C148.055 273.381 146.995 272.32 145.687 272.32C144.38 272.32 143.32 273.381 143.32 274.688C143.32 275.996 144.38 277.056 145.687 277.056Z" fill="#BA5EA7"/>
<path d="M477.685 370C478.992 370 480.052 368.939 480.052 367.632C480.052 366.324 478.992 365.264 477.685 365.264C476.378 365.264 475.318 366.324 475.318 367.632C475.318 368.939 476.378 370 477.685 370Z" fill="#BA5EA7"/>
<path d="M682.446 455.248C683.753 455.248 684.813 454.188 684.813 452.88C684.813 451.572 683.753 450.512 682.446 450.512C681.139 450.512 680.079 451.572 680.079 452.88C680.079 454.188 681.139 455.248 682.446 455.248Z" fill="#BA5EA7"/>
<path d="M88.8764 445.776C90.1838 445.776 91.2437 444.716 91.2437 443.408C91.2437 442.1 90.1838 441.04 88.8764 441.04C87.5691 441.04 86.5093 442.1 86.5093 443.408C86.5093 444.716 87.5691 445.776 88.8764 445.776Z" fill="#BA5EA7"/>
<path d="M148.647 269.36C149.954 269.36 151.014 268.3 151.014 266.992C151.014 265.684 149.954 264.624 148.647 264.624C147.339 264.624 146.279 265.684 146.279 266.992C146.279 268.3 147.339 269.36 148.647 269.36Z" fill="#BA5EA7"/>
<path d="M254.58 358.16C255.888 358.16 256.948 357.1 256.948 355.792C256.948 354.484 255.888 353.424 254.58 353.424C253.273 353.424 252.213 354.484 252.213 355.792C252.213 357.1 253.273 358.16 254.58 358.16Z" fill="#BA5EA7"/>
<path d="M491.3 425.056C492.608 425.056 493.668 423.996 493.668 422.688C493.668 421.38 492.608 420.32 491.3 420.32C489.993 420.32 488.933 421.38 488.933 422.688C488.933 423.996 489.993 425.056 491.3 425.056Z" fill="#BA5EA7"/>
<path d="M517.332 764.864C518.639 764.864 519.699 763.804 519.699 762.496C519.699 761.188 518.639 760.128 517.332 760.128C516.025 760.128 514.965 761.188 514.965 762.496C514.965 763.804 516.025 764.864 517.332 764.864Z" fill="#BA5EA7"/>
<path d="M307.842 359.936C309.15 359.936 310.21 358.876 310.21 357.568C310.21 356.26 309.15 355.2 307.842 355.2C306.535 355.2 305.475 356.26 305.475 357.568C305.475 358.876 306.535 359.936 307.842 359.936Z" fill="#BA5EA7"/>
<path d="M153.375 168.128C154.682 168.128 155.742 167.067 155.742 165.76C155.742 164.452 154.682 163.392 153.375 163.392C152.068 163.392 151.008 164.452 151.008 165.76C151.008 167.067 152.068 168.128 153.375 168.128Z" fill="#BA5EA7"/>
<path d="M557.578 646.464C558.885 646.464 559.945 645.404 559.945 644.096C559.945 642.788 558.885 641.728 557.578 641.728C556.271 641.728 555.211 642.788 555.211 644.096C555.211 645.404 556.271 646.464 557.578 646.464Z" fill="#BA5EA7"/>
<path d="M387.735 256.336C389.043 256.336 390.103 255.276 390.103 253.968C390.103 252.66 389.043 251.6 387.735 251.6C386.428 251.6 385.368 252.66 385.368 253.968C385.368 255.276 386.428 256.336 387.735 256.336Z" fill="#BA5EA7"/>
<path d="M625.046 835.904C626.353 835.904 627.413 834.844 627.413 833.536C627.413 832.228 626.353 831.168 625.046 831.168C623.738 831.168 622.678 832.228 622.678 833.536C622.678 834.844 623.738 835.904 625.046 835.904Z" fill="#BA5EA7"/>
<path d="M970.658 716.32C971.966 716.32 973.025 715.26 973.025 713.952C973.025 712.644 971.966 711.584 970.658 711.584C969.351 711.584 968.291 712.644 968.291 713.952C968.291 715.26 969.351 716.32 970.658 716.32Z" fill="#BA5EA7"/>
<path d="M857.027 798.608C858.334 798.608 859.394 797.548 859.394 796.24C859.394 794.932 858.334 793.872 857.027 793.872C855.72 793.872 854.66 794.932 854.66 796.24C854.66 797.548 855.72 798.608 857.027 798.608Z" fill="#BA5EA7"/>
<path d="M720.919 1088.69C721.572 1088.69 722.102 1088.16 722.102 1087.5C722.102 1086.85 721.572 1086.32 720.919 1086.32C720.265 1086.32 719.735 1086.85 719.735 1087.5C719.735 1088.16 720.265 1088.69 720.919 1088.69Z" fill="#BA5EA7"/>
<path d="M859.396 888C860.704 888 861.763 886.94 861.763 885.632C861.763 884.324 860.704 883.264 859.396 883.264C858.089 883.264 857.029 884.324 857.029 885.632C857.029 886.94 858.089 888 859.396 888Z" fill="#BA5EA7"/>
<path d="M945.797 856.624C948.739 856.624 951.123 854.239 951.123 851.296C951.123 848.354 948.739 845.968 945.797 845.968C942.855 845.968 940.471 848.354 940.471 851.296C940.471 854.239 942.855 856.624 945.797 856.624Z" fill="#BA5EA7"/>
<path d="M944.024 821.104C944.677 821.104 945.207 820.574 945.207 819.92C945.207 819.266 944.677 818.736 944.024 818.736C943.37 818.736 942.84 819.266 942.84 819.92C942.84 820.574 943.37 821.104 944.024 821.104Z" fill="#BA5EA7"/>
<path d="M966.516 837.68C967.169 837.68 967.699 837.15 967.699 836.496C967.699 835.842 967.169 835.312 966.516 835.312C965.862 835.312 965.332 835.842 965.332 836.496C965.332 837.15 965.862 837.68 966.516 837.68Z" fill="#BA5EA7"/>
<path d="M925.084 834.128C926.391 834.128 927.451 833.067 927.451 831.76C927.451 830.452 926.391 829.392 925.084 829.392C923.777 829.392 922.717 830.452 922.717 831.76C922.717 833.067 923.777 834.128 925.084 834.128Z" fill="#BA5EA7"/>
<path d="M150.416 593.776C153.358 593.776 155.742 591.391 155.742 588.448C155.742 585.506 153.358 583.12 150.416 583.12C147.475 583.12 145.09 585.506 145.09 588.448C145.09 591.391 147.475 593.776 150.416 593.776Z" fill="#BA5EA7"/>
<path d="M703.749 1037.78C705.057 1037.78 706.116 1036.72 706.116 1035.41C706.116 1034.1 705.057 1033.04 703.749 1033.04C702.442 1033.04 701.382 1034.1 701.382 1035.41C701.382 1036.72 702.442 1037.78 703.749 1037.78Z" fill="#BA5EA7"/>
<path d="M448.099 967.328C450.06 967.328 451.65 965.737 451.65 963.776C451.65 961.814 450.06 960.224 448.099 960.224C446.138 960.224 444.548 961.814 444.548 963.776C444.548 965.737 446.138 967.328 448.099 967.328Z" fill="#BA5EA7"/>
<path d="M269.965 1023.57C271.273 1023.57 272.333 1022.51 272.333 1021.2C272.333 1019.89 271.273 1018.83 269.965 1018.83C268.658 1018.83 267.598 1019.89 267.598 1021.2C267.598 1022.51 268.658 1023.57 269.965 1023.57Z" fill="#BA5EA7"/>
<path d="M533.312 1004.03C533.966 1004.03 534.496 1003.5 534.496 1002.85C534.496 1002.19 533.966 1001.66 533.312 1001.66C532.659 1001.66 532.129 1002.19 532.129 1002.85C532.129 1003.5 532.659 1004.03 533.312 1004.03Z" fill="#BA5EA7"/>
<path d="M375.896 931.808C376.549 931.808 377.079 931.278 377.079 930.624C377.079 929.97 376.549 929.44 375.896 929.44C375.242 929.44 374.712 929.97 374.712 930.624C374.712 931.278 375.242 931.808 375.896 931.808Z" fill="#BA5EA7"/>
<path d="M339.798 906.352C340.452 906.352 340.981 905.822 340.981 905.168C340.981 904.514 340.452 903.984 339.798 903.984C339.144 903.984 338.614 904.514 338.614 905.168C338.614 905.822 339.144 906.352 339.798 906.352Z" fill="#BA5EA7"/>
<path d="M512.01 1038.37C512.663 1038.37 513.193 1037.84 513.193 1037.18C513.193 1036.53 512.663 1036 512.01 1036C511.356 1036 510.826 1036.53 510.826 1037.18C510.826 1037.84 511.356 1038.37 512.01 1038.37Z" fill="#BA5EA7"/>
<path d="M447.503 1176.3C451.752 1176.3 455.197 1172.86 455.197 1168.61C455.197 1164.36 451.752 1160.91 447.503 1160.91C443.255 1160.91 439.81 1164.36 439.81 1168.61C439.81 1172.86 443.255 1176.3 447.503 1176.3Z" fill="#FFD1DF"/>
<path d="M203.086 983.312C207.335 983.312 210.78 979.866 210.78 975.616C210.78 971.366 207.335 967.92 203.086 967.92C198.837 967.92 195.393 971.366 195.393 975.616C195.393 979.866 198.837 983.312 203.086 983.312Z" fill="#BA5EA7"/>
<path d="M507.863 1056.13C512.112 1056.13 515.557 1052.68 515.557 1048.43C515.557 1044.18 512.112 1040.74 507.863 1040.74C503.614 1040.74 500.17 1044.18 500.17 1048.43C500.17 1052.68 503.614 1056.13 507.863 1056.13Z" fill="#BA5EA7"/>
<path d="M374.71 1131.9C377.652 1131.9 380.036 1129.52 380.036 1126.58C380.036 1123.63 377.652 1121.25 374.71 1121.25C371.768 1121.25 369.384 1123.63 369.384 1126.58C369.384 1129.52 371.768 1131.9 374.71 1131.9Z" fill="#BA5EA7"/>
<path d="M576.518 1215.97C578.806 1215.97 580.661 1214.11 580.661 1211.82C580.661 1209.54 578.806 1207.68 576.518 1207.68C574.23 1207.68 572.375 1209.54 572.375 1211.82C572.375 1214.11 574.23 1215.97 576.518 1215.97Z" fill="#BA5EA7"/>
<path d="M214.93 1139.6C217.218 1139.6 219.073 1137.74 219.073 1135.46C219.073 1133.17 217.218 1131.31 214.93 1131.31C212.642 1131.31 210.787 1133.17 210.787 1135.46C210.787 1137.74 212.642 1139.6 214.93 1139.6Z" fill="#BA5EA7"/>
<path d="M259.905 1061.46C262.193 1061.46 264.047 1059.6 264.047 1057.31C264.047 1055.02 262.193 1053.17 259.905 1053.17C257.617 1053.17 255.762 1055.02 255.762 1057.31C255.762 1059.6 257.617 1061.46 259.905 1061.46Z" fill="#BA5EA7"/>
<path d="M29.097 1197.62C30.4043 1197.62 31.4641 1196.56 31.4641 1195.25C31.4641 1193.94 30.4043 1192.88 29.097 1192.88C27.7896 1192.88 26.7297 1193.94 26.7297 1195.25C26.7297 1196.56 27.7896 1197.62 29.097 1197.62Z" fill="#BA5EA7"/>
<path d="M234.454 1360.42C235.107 1360.42 235.637 1359.89 235.637 1359.23C235.637 1358.58 235.107 1358.05 234.454 1358.05C233.8 1358.05 233.27 1358.58 233.27 1359.23C233.27 1359.89 233.8 1360.42 234.454 1360.42Z" fill="#BA5EA7"/>
<path d="M542.779 1336.14C543.433 1336.14 543.963 1335.61 543.963 1334.96C543.963 1334.31 543.433 1333.78 542.779 1333.78C542.126 1333.78 541.596 1334.31 541.596 1334.96C541.596 1335.61 542.126 1336.14 542.779 1336.14Z" fill="#BA5EA7"/>
<path d="M303.1 1177.49C303.754 1177.49 304.284 1176.96 304.284 1176.3C304.284 1175.65 303.754 1175.12 303.1 1175.12C302.447 1175.12 301.917 1175.65 301.917 1176.3C301.917 1176.96 302.447 1177.49 303.1 1177.49Z" fill="#BA5EA7"/>
<path d="M518.517 1313.65C519.171 1313.65 519.701 1313.12 519.701 1312.46C519.701 1311.81 519.171 1311.28 518.517 1311.28C517.864 1311.28 517.334 1311.81 517.334 1312.46C517.334 1313.12 517.864 1313.65 518.517 1313.65Z" fill="#BA5EA7"/>
<path d="M139.176 1102.3C139.829 1102.3 140.359 1101.77 140.359 1101.12C140.359 1100.47 139.829 1099.94 139.176 1099.94C138.522 1099.94 137.992 1100.47 137.992 1101.12C137.992 1101.77 138.522 1102.3 139.176 1102.3Z" fill="#BA5EA7"/>
<path d="M101.888 1076.26C102.542 1076.26 103.072 1075.73 103.072 1075.07C103.072 1074.42 102.542 1073.89 101.888 1073.89C101.234 1073.89 100.705 1074.42 100.705 1075.07C100.705 1075.73 101.234 1076.26 101.888 1076.26Z" fill="#BA5EA7"/>
<path d="M570.6 1376.4C571.254 1376.4 571.783 1375.87 571.783 1375.22C571.783 1374.56 571.254 1374.03 570.6 1374.03C569.946 1374.03 569.416 1374.56 569.416 1375.22C569.416 1375.87 569.946 1376.4 570.6 1376.4Z" fill="#BA5EA7"/>
<path d="M280.618 1213.01C281.271 1213.01 281.801 1212.48 281.801 1211.82C281.801 1211.17 281.271 1210.64 280.618 1210.64C279.964 1210.64 279.434 1211.17 279.434 1211.82C279.434 1212.48 279.964 1213.01 280.618 1213.01Z" fill="#BA5EA7"/>
<path d="M345.12 1072.11C346.427 1072.11 347.487 1071.05 347.487 1069.74C347.487 1068.44 346.427 1067.38 345.12 1067.38C343.813 1067.38 342.753 1068.44 342.753 1069.74C342.753 1071.05 343.813 1072.11 345.12 1072.11Z" fill="#BA5EA7"/>
<path d="M335.063 1063.23C336.371 1063.23 337.431 1062.17 337.431 1060.86C337.431 1059.56 336.371 1058.5 335.063 1058.5C333.756 1058.5 332.696 1059.56 332.696 1060.86C332.696 1062.17 333.756 1063.23 335.063 1063.23Z" fill="#BA5EA7"/>
<path d="M372.341 915.232C373.648 915.232 374.708 914.172 374.708 912.864C374.708 911.556 373.648 910.496 372.341 910.496C371.034 910.496 369.974 911.556 369.974 912.864C369.974 914.172 371.034 915.232 372.341 915.232Z" fill="#BA5EA7"/>
<path d="M287.129 869.056C288.437 869.056 289.497 867.996 289.497 866.688C289.497 865.38 288.437 864.32 287.129 864.32C285.822 864.32 284.762 865.38 284.762 866.688C284.762 867.996 285.822 869.056 287.129 869.056Z" fill="#BA5EA7"/>
<path d="M260.499 1044.88C261.806 1044.88 262.866 1043.82 262.866 1042.51C262.866 1041.2 261.806 1040.14 260.499 1040.14C259.191 1040.14 258.131 1041.2 258.131 1042.51C258.131 1043.82 259.191 1044.88 260.499 1044.88Z" fill="#BA5EA7"/>
<path d="M288.899 860.768C290.206 860.768 291.266 859.708 291.266 858.4C291.266 857.092 290.206 856.032 288.899 856.032C287.592 856.032 286.532 857.092 286.532 858.4C286.532 859.708 287.592 860.768 288.899 860.768Z" fill="#BA5EA7"/>
<path d="M409.038 930.032C410.346 930.032 411.406 928.972 411.406 927.664C411.406 926.357 410.346 925.296 409.038 925.296C407.731 925.296 406.671 926.357 406.671 927.664C406.671 928.972 407.731 930.032 409.038 930.032Z" fill="#BA5EA7"/>
<path d="M346.9 1180.45C349.841 1180.45 352.226 1178.06 352.226 1175.12C352.226 1172.18 349.841 1169.79 346.9 1169.79C343.958 1169.79 341.573 1172.18 341.573 1175.12C341.573 1178.06 343.958 1180.45 346.9 1180.45Z" fill="#BA5EA7"/>
<path d="M194.807 1068.56C198.729 1068.56 201.908 1065.38 201.908 1061.46C201.908 1057.53 198.729 1054.35 194.807 1054.35C190.885 1054.35 187.705 1057.53 187.705 1061.46C187.705 1065.38 190.885 1068.56 194.807 1068.56Z" fill="#BA5EA7"/>
<path d="M322.044 1014.1C325.966 1014.1 329.145 1010.92 329.145 1006.99C329.145 1003.07 325.966 999.888 322.044 999.888C318.122 999.888 314.942 1003.07 314.942 1006.99C314.942 1010.92 318.122 1014.1 322.044 1014.1Z" fill="#BA5EA7"/>
<path d="M200.719 944.832C203.661 944.832 206.045 942.447 206.045 939.504C206.045 936.562 203.661 934.176 200.719 934.176C197.777 934.176 195.393 936.562 195.393 939.504C195.393 942.447 197.777 944.832 200.719 944.832Z" fill="#BA5EA7"/>
<path d="M245.108 886.816C247.069 886.816 248.659 885.226 248.659 883.264C248.659 881.302 247.069 879.712 245.108 879.712C243.147 879.712 241.557 881.302 241.557 883.264C241.557 885.226 243.147 886.816 245.108 886.816Z" fill="#BA5EA7"/>
<path d="M226.17 1066.78C227.478 1066.78 228.538 1065.72 228.538 1064.42C228.538 1063.11 227.478 1062.05 226.17 1062.05C224.863 1062.05 223.803 1063.11 223.803 1064.42C223.803 1065.72 224.863 1066.78 226.17 1066.78Z" fill="#BA5EA7"/>
<path d="M198.359 928.256C199.667 928.256 200.727 927.196 200.727 925.888C200.727 924.58 199.667 923.52 198.359 923.52C197.052 923.52 195.992 924.58 195.992 925.888C195.992 927.196 197.052 928.256 198.359 928.256Z" fill="#BA5EA7"/>
<path d="M145.687 950.16C146.995 950.16 148.055 949.1 148.055 947.792C148.055 946.484 146.995 945.424 145.687 945.424C144.38 945.424 143.32 946.484 143.32 947.792C143.32 949.1 144.38 950.16 145.687 950.16Z" fill="#BA5EA7"/>
<path d="M169.949 974.432C171.257 974.432 172.316 973.372 172.316 972.064C172.316 970.756 171.257 969.696 169.949 969.696C168.642 969.696 167.582 970.756 167.582 972.064C167.582 973.372 168.642 974.432 169.949 974.432Z" fill="#BA5EA7"/>
<path d="M137.99 917.008C139.297 917.008 140.357 915.948 140.357 914.64C140.357 913.332 139.297 912.272 137.99 912.272C136.683 912.272 135.623 913.332 135.623 914.64C135.623 915.948 136.683 917.008 137.99 917.008Z" fill="#BA5EA7"/>
<path d="M381.218 1033.04C382.525 1033.04 383.585 1031.98 383.585 1030.67C383.585 1029.36 382.525 1028.3 381.218 1028.3C379.911 1028.3 378.851 1029.36 378.851 1030.67C378.851 1031.98 379.911 1033.04 381.218 1033.04Z" fill="#BA5EA7"/>
<path d="M210.192 969.696C210.845 969.696 211.375 969.166 211.375 968.512C211.375 967.858 210.845 967.328 210.192 967.328C209.538 967.328 209.008 967.858 209.008 968.512C209.008 969.166 209.538 969.696 210.192 969.696Z" fill="#BA5EA7"/>
<path d="M174.684 821.104C175.337 821.104 175.867 820.574 175.867 819.92C175.867 819.266 175.337 818.736 174.684 818.736C174.03 818.736 173.5 819.266 173.5 819.92C173.5 820.574 174.03 821.104 174.684 821.104Z" fill="#BA5EA7"/>
<path d="M185.34 959.04C185.994 959.04 186.523 958.51 186.523 957.856C186.523 957.202 185.994 956.672 185.34 956.672C184.686 956.672 184.156 957.202 184.156 957.856C184.156 958.51 184.686 959.04 185.34 959.04Z" fill="#FFD1DF"/>
<path d="M105.447 742.96C106.1 742.96 106.63 742.43 106.63 741.776C106.63 741.122 106.1 740.592 105.447 740.592C104.793 740.592 104.263 741.122 104.263 741.776C104.263 742.43 104.793 742.96 105.447 742.96Z" fill="#BA5EA7"/>
<path d="M224.99 954.304C226.298 954.304 227.358 953.244 227.358 951.936C227.358 950.629 226.298 949.568 224.99 949.568C223.683 949.568 222.623 950.629 222.623 951.936C222.623 953.244 223.683 954.304 224.99 954.304Z" fill="#BA5EA7"/>
<path d="M188.883 848.336C190.19 848.336 191.25 847.276 191.25 845.968C191.25 844.66 190.19 843.6 188.883 843.6C187.576 843.6 186.516 844.66 186.516 845.968C186.516 847.276 187.576 848.336 188.883 848.336Z" fill="#BA5EA7"/>
<path d="M84.728 800.976C86.0354 800.976 87.0952 799.916 87.0952 798.608C87.0952 797.3 86.0354 796.24 84.728 796.24C83.4206 796.24 82.3608 797.3 82.3608 798.608C82.3608 799.916 83.4206 800.976 84.728 800.976Z" fill="#BA5EA7"/>
<path d="M341.571 890.368C342.879 890.368 343.938 889.308 343.938 888C343.938 886.692 342.879 885.632 341.571 885.632C340.264 885.632 339.204 886.692 339.204 888C339.204 889.308 340.264 890.368 341.571 890.368Z" fill="#BA5EA7"/>
<path d="M45.6692 1022.98C49.9182 1022.98 53.3627 1019.53 53.3627 1015.28C53.3627 1011.03 49.9182 1007.58 45.6692 1007.58C41.4202 1007.58 37.9758 1011.03 37.9758 1015.28C37.9758 1019.53 41.4202 1022.98 45.6692 1022.98Z" fill="#DB86BD"/>
<path d="M297.186 1095.2C300.128 1095.2 302.512 1092.81 302.512 1089.87C302.512 1086.93 300.128 1084.54 297.186 1084.54C294.245 1084.54 291.86 1086.93 291.86 1089.87C291.86 1092.81 294.245 1095.2 297.186 1095.2Z" fill="#BA5EA7"/>
<path d="M107.81 1041.92C109.117 1041.92 110.177 1040.86 110.177 1039.55C110.177 1038.24 109.117 1037.18 107.81 1037.18C106.503 1037.18 105.443 1038.24 105.443 1039.55C105.443 1040.86 106.503 1041.92 107.81 1041.92Z" fill="#BA5EA7"/>
<path d="M8.98335 777.888C10.2907 777.888 11.3506 776.828 11.3506 775.52C11.3506 774.212 10.2907 773.152 8.98335 773.152C7.676 773.152 6.61621 774.212 6.61621 775.52C6.61621 776.828 7.676 777.888 8.98335 777.888Z" fill="#BA5EA7"/>
<path d="M66.3843 893.92C67.6917 893.92 68.7516 892.859 68.7516 891.552C68.7516 890.244 67.6917 889.184 66.3843 889.184C65.0769 889.184 64.0171 890.244 64.0171 891.552C64.0171 892.859 65.0769 893.92 66.3843 893.92Z" fill="#BA5EA7"/>
<path d="M425.603 962.592C426.91 962.592 427.97 961.532 427.97 960.224C427.97 958.917 426.91 957.856 425.603 957.856C424.296 957.856 423.236 958.917 423.236 960.224C423.236 961.532 424.296 962.592 425.603 962.592Z" fill="#BA5EA7"/>
<path d="M286.53 977.392C287.837 977.392 288.897 976.332 288.897 975.024C288.897 973.716 287.837 972.656 286.53 972.656C285.223 972.656 284.163 973.716 284.163 975.024C284.163 976.332 285.223 977.392 286.53 977.392Z" fill="#BA5EA7"/>
<path d="M22.5947 1160.32C23.2484 1160.32 23.7783 1159.79 23.7783 1159.14C23.7783 1158.48 23.2484 1157.95 22.5947 1157.95C21.941 1157.95 21.4111 1158.48 21.4111 1159.14C21.4111 1159.79 21.941 1160.32 22.5947 1160.32Z" fill="#BA5EA7"/>
<path d="M243.335 1055.54C244.642 1055.54 245.702 1054.48 245.702 1053.17C245.702 1051.86 244.642 1050.8 243.335 1050.8C242.027 1050.8 240.967 1051.86 240.967 1053.17C240.967 1054.48 242.027 1055.54 243.335 1055.54Z" fill="#BA5EA7"/>
<path d="M335.653 1072.11C338.595 1072.11 340.979 1069.73 340.979 1066.78C340.979 1063.84 338.595 1061.46 335.653 1061.46C332.711 1061.46 330.327 1063.84 330.327 1066.78C330.327 1069.73 332.711 1072.11 335.653 1072.11Z" fill="#BA5EA7"/>
<path d="M350.444 1040.14C351.098 1040.14 351.628 1039.61 351.628 1038.96C351.628 1038.31 351.098 1037.78 350.444 1037.78C349.791 1037.78 349.261 1038.31 349.261 1038.96C349.261 1039.61 349.791 1040.14 350.444 1040.14Z" fill="#BA5EA7"/>
<path d="M361.101 1065.6C361.754 1065.6 362.284 1065.07 362.284 1064.42C362.284 1063.76 361.754 1063.23 361.101 1063.23C360.447 1063.23 359.917 1063.76 359.917 1064.42C359.917 1065.07 360.447 1065.6 361.101 1065.6Z" fill="#BA5EA7"/>
<path d="M327.366 1041.92C328.673 1041.92 329.733 1040.86 329.733 1039.55C329.733 1038.24 328.673 1037.18 327.366 1037.18C326.059 1037.18 324.999 1038.24 324.999 1039.55C324.999 1040.86 326.059 1041.92 327.366 1041.92Z" fill="#BA5EA7"/>
<path d="M33.8352 1107.63C35.1426 1107.63 36.2025 1106.57 36.2025 1105.26C36.2025 1103.96 35.1426 1102.9 33.8352 1102.9C32.5278 1102.9 31.468 1103.96 31.468 1105.26C31.468 1106.57 32.5278 1107.63 33.8352 1107.63Z" fill="#BA5EA7"/>
</g>
</svg>
