<svg width="1615" height="94" viewBox="0 0 1615 94" fill="none" xmlns="http://www.w3.org/2000/svg">
<path opacity="0.2" fill-rule="evenodd" clip-rule="evenodd" d="M2239.15 -184.984L2302.53 -181.439L2325.15 52.9646L2343.83 50.0355L2290.21 -291.986L2226.72 -291.766L2225.09 -291.753C2159.26 -291.239 2033.4 -290.256 1915.95 -223.571C1872.14 -198.694 1830.01 -164.753 1787.94 -130.862C1716.3 -73.1503 1644.84 -15.5807 1565.53 -3.14641C1496.93 7.6109 1423.57 -15.5886 1350.15 -38.8054C1288.87 -58.1841 1227.56 -77.5748 1168.94 -77.2403C1088.53 -76.7816 1014.66 -39.4434 940.612 -2.01814C895.997 20.532 851.319 43.1138 805.112 57.6788C682.217 96.4163 552.263 77.8556 415.962 31.0878C414.464 30.5737 412.965 30.0561 411.466 29.5351C411.788 29.6675 412.109 29.7997 412.43 29.9317C545.719 84.6993 674.343 110.933 799.318 79.5507C846.308 67.7513 892.246 47.8584 938.12 27.9934C1014.25 -4.97543 1090.21 -37.8676 1170.5 -33.5578C1229.04 -30.4157 1289.1 -7.42335 1349.12 15.5548C1421.03 43.0838 1492.89 70.5924 1562.01 63.9222C1641.91 56.2121 1716.66 2.98114 1791.59 -50.3812C1835.6 -81.7183 1879.67 -113.101 1924.88 -135.336C2046.08 -194.94 2171.78 -188.458 2237.52 -185.068L2239.15 -184.984ZM5.55513 -163.491L3.37337 -144.993L-0.000909448 -166.514L5.55513 -163.491Z" fill="#FBA847"/>
</svg>
