<svg width="205" height="157" viewBox="0 0 205 157" fill="none" xmlns="http://www.w3.org/2000/svg">
<g clip-path="url(#clip0_49:6950)">
<path d="M143.898 124.428C127.073 88.2588 93.3092 64.6089 56.6146 60.0271C40.988 57.8801 26.1272 48.442 24.1257 33.7855C22.0074 19.2312 42.3263 5.8876 66.2717 12.2168C118.267 26.0216 157.924 65.289 172.861 113.345C179.767 135.195 173.589 154.977 166.443 155.113C159.21 155.374 151.439 140.128 143.898 124.428Z" fill="url(#paint0_radial_49:6950)"/>
<path d="M154.083 132.409C141.792 82.5587 97.5258 48.4889 48.4641 48.0121C41.1372 47.905 34.4544 43.3842 33.7529 36.865C33.0401 30.3718 40.2679 24.4914 49.4654 25.1813C108.932 29.6711 156.44 73.7724 166.398 129.783C167.96 138.399 165.599 145.908 162.414 146.087C159.205 146.281 155.953 139.909 154.083 132.409Z" fill="url(#paint1_radial_49:6950)"/>
<path d="M53.8779 20.3872C51.0795 20.1806 48.397 20.5911 46.088 21.4586C41.836 24.8011 39.2393 29.2105 38.5389 34.0109C40.3076 39.4711 46.2669 43.1288 52.885 43.2193C101.947 43.6751 146.175 78.1417 157.702 128.355C158.87 133.429 160.663 137.898 162.674 140.367C166.302 136.939 169.072 128.944 168.733 119.025C157.048 65.9239 111.017 24.671 53.8779 20.3872Z" fill="url(#paint2_radial_49:6950)"/>
<path d="M161.96 134.246C152.226 78.0941 104.543 33.8695 44.9168 29.7023C37.5906 29.1863 31.3594 32.9029 29.7192 37.7295C30.7786 43.0582 33.8107 47.6138 37.6443 51.3064C39.6024 52.085 41.7575 52.5263 44.0439 52.5393C93.1555 52.7434 137.546 86.8602 149.633 136.819C149.778 137.42 149.937 138.007 150.099 138.588C153.225 143.73 156.369 147.894 159.506 149.788C161.819 147.718 163.212 141.316 161.96 134.246Z" fill="url(#paint3_radial_49:6950)"/>
<path d="M65.9584 48.5885C58.2835 57.6829 44.6788 58.833 35.5731 51.1565C26.4669 43.4815 25.3071 29.8865 32.9836 20.7927C40.6586 11.6984 54.2633 10.5483 63.369 18.2248C72.4747 25.9013 73.6334 39.4942 65.9584 48.5885Z" fill="url(#paint4_radial_49:6950)"/>
<path opacity="0.5" d="M41.2249 57.325C53.7377 61.8837 67.5731 55.4458 72.1272 42.9456C76.6813 30.4454 70.2296 16.6164 57.7169 12.0577C45.2041 7.49902 31.3687 13.9369 26.8146 26.4371C22.2604 38.9373 28.7122 52.7663 41.2249 57.325Z" fill="url(#paint5_radial_49:6950)"/>
<path d="M32.2446 23.4181C39.9195 14.3238 53.5242 13.1737 62.6299 20.8502C68.9296 26.1607 71.423 34.3025 69.8212 41.8288C72.6925 33.6329 70.408 24.1618 63.3668 18.2267C54.2627 10.5508 40.6586 11.6993 32.9836 20.7936C30.6176 23.596 29.0945 26.827 28.3817 30.1788C29.2233 27.7768 30.5047 25.4805 32.2446 23.4181Z" fill="url(#paint6_radial_49:6950)"/>
<path opacity="0.25" d="M47.0243 51.0704C37.918 43.3954 36.7583 29.8004 44.4348 20.7067C47.3137 17.2959 51.0267 15.002 55.0246 13.8734C47.2076 11.7925 38.5411 14.2092 32.9844 20.7936C25.3094 29.8879 26.4676 43.4823 35.5738 51.1573C41.2649 55.9533 48.711 57.3031 55.3694 55.4227C52.3908 54.6302 49.5359 53.1881 47.0243 51.0704Z" fill="url(#paint7_radial_49:6950)"/>
<path opacity="0.25" d="M70.9447 32.7543C70.1615 34.5745 69.1062 36.3131 67.7611 37.9074C60.406 46.6227 47.3676 47.7252 38.6414 40.3686C33.3529 35.9114 30.8823 29.3738 31.3752 22.9724C25.5401 31.9488 27.1681 44.0745 35.5733 51.159C44.679 58.8355 58.2837 57.6854 65.9587 48.5911C69.8254 44.0096 71.4476 38.2877 70.9447 32.7543Z" fill="url(#paint8_radial_49:6950)"/>
<path d="M42.9333 21.8903C40.7183 23.1641 38.3121 23.1357 37.5589 21.8262C36.8051 20.5182 37.9892 18.4262 40.2043 17.1524C42.4194 15.8786 44.8255 15.907 45.5787 17.2166C46.3325 18.5245 45.1479 20.6181 42.9333 21.8903Z" fill="url(#paint9_radial_49:6950)"/>
<path d="M45.7699 17.7364C44.7295 16.9923 42.7557 17.1337 40.9026 18.199C38.9625 19.3138 37.8131 21.0587 38.0652 22.3532C39.1072 23.0978 41.081 22.9564 42.9342 21.8911C44.8727 20.7758 46.0221 19.0308 45.7699 17.7364Z" fill="url(#paint10_radial_49:6950)"/>
<path d="M49.0776 28.9125C48.2824 29.3704 47.339 29.2225 46.9698 28.5836C46.6022 27.9454 46.9491 27.0561 47.7444 26.5981C48.5396 26.1402 49.483 26.2881 49.8522 26.927C50.2198 27.5652 49.8728 28.4545 49.0776 28.9125Z" fill="url(#paint11_radial_49:6950)"/>
<path d="M49.0776 28.9125C48.2824 29.3704 47.339 29.2225 46.9698 28.5836C46.6022 27.9454 46.9491 27.0561 47.7444 26.5981C48.5396 26.1402 49.483 26.2881 49.8522 26.927C50.2198 27.5652 49.8728 28.4545 49.0776 28.9125Z" fill="url(#paint12_radial_49:6950)"/>
<path d="M49.9566 27.1743C49.5084 26.7765 48.7426 26.732 48.0775 27.1139C47.3809 27.5143 47.0278 28.2462 47.199 28.8517C47.6472 29.2495 48.4129 29.294 49.0781 28.9121C49.7753 28.5101 50.1278 27.7798 49.9566 27.1743Z" fill="url(#paint13_radial_49:6950)"/>
<path d="M51.18 38.7773C52.1879 37.4886 53.8452 37.1014 54.8797 37.9103C55.9157 38.7198 55.9369 40.4204 54.9296 41.7074C53.9217 42.9961 52.2644 43.3833 51.2299 42.5744C50.1955 41.7655 50.1722 40.0659 51.18 38.7773Z" fill="url(#paint14_radial_49:6950)"/>
<path d="M50.8932 42.2345C51.9001 42.5907 53.1942 42.1541 54.0368 41.0768C54.9191 39.9487 55.0116 38.5029 54.3244 37.6178C53.3159 37.2609 52.0234 37.6982 51.1792 38.7749C50.2979 39.9051 50.2054 41.3508 50.8932 42.2345Z" fill="url(#paint15_radial_49:6950)"/>
<path d="M43.5826 36.7699C42.7718 38.356 41.0802 39.1134 39.8054 38.4603C38.5301 37.8087 38.1547 35.995 38.9671 34.4094C39.778 32.8233 41.4696 32.0659 42.7443 32.719C44.0176 33.3716 44.3945 35.1859 43.5826 36.7699Z" fill="url(#paint16_radial_49:6950)"/>
<path d="M43.175 33.0137C42.0235 32.8411 40.7308 33.5745 40.0534 34.9006C39.3424 36.2903 39.5426 37.8533 40.4601 38.6584C41.6117 38.8311 42.9044 38.0977 43.5833 36.7721C44.2928 35.3818 44.0932 33.8173 43.175 33.0137Z" fill="url(#paint17_radial_49:6950)"/>
<path d="M49.3453 19.5166C48.2806 19.8711 47.249 19.6504 47.0385 19.0218C46.828 18.3931 47.5207 17.5963 48.5838 17.2413C49.6485 16.8868 50.6817 17.108 50.8907 17.7361C51.1012 18.3647 50.41 19.1621 49.3453 19.5166Z" fill="url(#paint18_radial_49:6950)"/>
<path d="M50.9289 17.9754C50.5456 17.5642 49.6841 17.4531 48.7935 17.7512C47.8612 18.0622 47.2149 18.712 47.2101 19.2921C47.5934 19.7033 48.4549 19.8144 49.3454 19.5164C50.2778 19.2053 50.9246 18.554 50.9289 17.9754Z" fill="url(#paint19_radial_49:6950)"/>
<path d="M36.9889 27.8848C35.8201 29.0531 34.3113 29.4398 33.6204 28.749C32.9295 28.0582 33.3164 26.5504 34.4846 25.3836C35.6534 24.2154 37.1622 23.8287 37.8531 24.5195C38.5462 25.2093 38.1577 26.7165 36.9889 27.8848Z" fill="url(#paint20_radial_49:6950)"/>
<path d="M36.9889 27.8848C35.8201 29.0531 34.3113 29.4398 33.6204 28.749C32.9295 28.0582 33.3164 26.5504 34.4846 25.3836C35.6534 24.2154 37.1622 23.8287 37.8531 24.5195C38.5462 25.2093 38.1577 26.7165 36.9889 27.8848Z" fill="url(#paint21_radial_49:6950)"/>
<path d="M38.0611 24.8105C37.2858 24.521 36.0771 24.9411 35.0977 25.9192C34.0735 26.9427 33.6502 28.2256 34.0253 28.9936C34.8006 29.2831 36.0108 28.8635 36.9882 27.8864C38.0129 26.8614 38.4362 25.5784 38.0611 24.8105Z" fill="url(#paint22_radial_49:6950)"/>
<path d="M63.9832 41.1275C65.0799 39.8906 66.5628 39.4152 67.2937 40.0641C68.0246 40.713 67.7279 42.2396 66.6318 43.4749C65.5357 44.7102 64.0522 45.1872 63.3213 44.5383C62.5899 43.8909 62.885 42.3638 63.9832 41.1275Z" fill="url(#paint23_radial_49:6950)"/>
<path d="M63.0968 44.259C63.8891 44.5018 65.0709 44.0101 65.9878 42.9758C66.9492 41.8924 67.2959 40.5869 66.8745 39.8444C66.0822 39.6015 64.9004 40.0932 63.9835 41.1276C63.0221 42.211 62.6754 43.5165 63.0968 44.259Z" fill="url(#paint24_radial_49:6950)"/>
<g opacity="0.5">
<path opacity="0.5" d="M51.7688 49.9006C52.8857 49.3059 54.0762 49.3569 54.4285 50.0178C54.7814 50.6772 54.1618 51.6946 53.045 52.2893C51.9281 52.884 50.7375 52.8329 50.3852 52.172C50.0324 51.5127 50.6514 50.4968 51.7688 49.9006Z" fill="url(#paint25_radial_49:6950)"/>
<path opacity="0.5" d="M51.7688 49.9006C52.8857 49.3059 54.0762 49.3569 54.4285 50.0178C54.7814 50.6772 54.1618 51.6946 53.045 52.2893C51.9281 52.884 50.7375 52.8329 50.3852 52.172C50.0324 51.5127 50.6514 50.4968 51.7688 49.9006Z" fill="url(#paint26_radial_49:6950)"/>
<path opacity="0.5" d="M50.2978 51.9125C50.8019 52.2972 51.7814 52.259 52.7146 51.7614C53.6936 51.2399 54.2891 50.3953 54.185 49.7508C53.6809 49.3661 52.7014 49.4043 51.7682 49.9019C50.7913 50.4224 50.1937 51.268 50.2978 51.9125Z" fill="url(#paint27_radial_49:6950)"/>
</g>
<path d="M58.3244 42.5411C59.2077 42.0693 60.1508 42.1114 60.4282 42.6339C60.7077 43.1554 60.2167 43.9605 59.3335 44.4323C58.4509 44.9025 57.5071 44.8619 57.2297 44.3394C56.9508 43.8163 57.4418 43.0113 58.3244 42.5411Z" fill="url(#paint28_radial_49:6950)"/>
<path d="M57.1612 44.133C57.5605 44.4372 58.3341 44.4069 59.0741 44.0135C59.8476 43.6005 60.3208 42.9318 60.2382 42.422C59.8389 42.1179 59.0653 42.1481 58.3253 42.5416C57.5508 42.9524 57.0792 43.6217 57.1612 44.133Z" fill="url(#paint29_radial_49:6950)"/>
<path d="M62.1448 26.9886C61.3355 24.7963 61.7314 22.6341 63.0261 22.157C64.3223 21.6806 66.0276 23.0707 66.8369 25.263C67.6463 27.4552 67.2504 29.6175 65.9557 30.0945C64.6595 30.571 62.9542 29.1809 62.1448 26.9886Z" fill="url(#paint30_radial_49:6950)"/>
<path d="M62.1448 26.9886C61.3355 24.7963 61.7314 22.6341 63.0261 22.157C64.3223 21.6806 66.0276 23.0707 66.8369 25.263C67.6463 27.4552 67.2504 29.6175 65.9557 30.0945C64.6595 30.571 62.9542 29.1809 62.1448 26.9886Z" fill="url(#paint31_radial_49:6950)"/>
<path d="M65.4573 30.1863C66.2882 29.364 66.4639 27.564 65.7869 25.7304C65.0782 23.8093 63.6806 22.5048 62.4737 22.5324C61.6428 23.3548 61.4672 25.1547 62.1442 26.9884C62.8529 28.9094 64.2505 30.2139 65.4573 30.1863Z" fill="url(#paint32_radial_49:6950)"/>
<path d="M59.6219 20.825C58.9389 20.093 58.7364 19.171 59.1692 18.768C59.602 18.3649 60.507 18.6329 61.19 19.3649C61.8729 20.0969 62.0754 21.0188 61.6432 21.4203C61.2082 21.8244 60.3043 21.5585 59.6219 20.825Z" fill="url(#paint33_radial_49:6950)"/>
<path d="M61.4597 21.5401C61.6512 21.0774 61.4233 20.3366 60.8504 19.724C60.2526 19.083 59.4844 18.7979 59.0123 19.0085C58.8208 19.4713 59.0487 20.2121 59.62 20.824C60.2189 21.4672 60.9875 21.7508 61.4597 21.5401Z" fill="url(#paint34_radial_49:6950)"/>
<path d="M32.8926 38.0191C33.1987 38.9717 32.991 39.8906 32.4273 40.0714C31.8637 40.2523 31.1584 39.625 30.8524 38.6724C30.5463 37.7197 30.754 36.8009 31.3177 36.62C31.8813 36.4392 32.5871 37.0649 32.8926 38.0191Z" fill="url(#paint35_radial_49:6950)"/>
<path d="M32.8926 38.0191C33.1987 38.9717 32.991 39.8906 32.4273 40.0714C31.8637 40.2523 31.1584 39.625 30.8524 38.6724C30.5463 37.7197 30.754 36.8009 31.3177 36.62C31.8813 36.4392 32.5871 37.0649 32.8926 38.0191Z" fill="url(#paint36_radial_49:6950)"/>
<path d="M31.5318 36.5889C31.1616 36.9266 31.0536 37.6931 31.3104 38.4903C31.5798 39.3255 32.1545 39.9087 32.6715 39.919C33.0417 39.5813 33.1497 38.8148 32.8929 38.0176C32.6245 37.1845 32.0503 36.5997 31.5318 36.5889Z" fill="url(#paint37_radial_49:6950)"/>
<path d="M58.7869 47.2384C60.7436 46.2038 62.8278 46.3019 63.441 47.4581C64.0541 48.6143 62.9642 50.3897 61.0054 51.4253C59.0486 52.4599 56.9644 52.3619 56.3512 51.2057C55.7387 50.0479 56.8286 48.2725 58.7869 47.2384Z" fill="url(#paint38_radial_49:6950)"/>
<path d="M56.2009 50.7492C57.0806 51.4259 58.7941 51.3642 60.432 50.4973C62.146 49.5912 63.1957 48.115 63.0172 46.9866C62.1376 46.31 60.4241 46.3717 58.7862 47.2385C57.0706 48.1441 56.0224 49.6209 56.2009 50.7492Z" fill="url(#paint39_radial_49:6950)"/>
<path opacity="0.5" d="M66.7906 35.5332C66.545 35.8246 66.1096 35.8617 65.8178 35.6161C65.526 35.3705 65.4886 34.9354 65.7342 34.644C65.9798 34.3526 66.4152 34.3155 66.707 34.5611C67.0003 34.8073 67.0377 35.2424 66.7906 35.5332Z" fill="url(#paint40_radial_49:6950)"/>
<path opacity="0.5" d="M63.967 38.1161C63.8087 38.3035 63.5284 38.3266 63.3408 38.1683C63.1531 38.01 63.1298 37.73 63.2875 37.5441C63.4458 37.3567 63.7261 37.3336 63.9122 37.4913C64.102 37.6486 64.1253 37.9287 63.967 38.1161Z" fill="url(#paint41_radial_49:6950)"/>
<path opacity="0.5" d="M34.0471 33.1966C33.7668 33.53 33.2678 33.5722 32.936 33.2909C32.6022 33.0105 32.5597 32.5119 32.8416 32.179C33.1219 31.8456 33.6203 31.805 33.9526 32.0848C34.2844 32.3661 34.3274 32.8632 34.0471 33.1966Z" fill="url(#paint42_radial_49:6950)"/>
<path opacity="0.5" d="M38.9555 29.2133C38.7446 29.4627 38.3713 29.4942 38.1216 29.2833C37.8719 29.0725 37.8401 28.6994 38.051 28.45C38.2619 28.2006 38.6352 28.1691 38.8849 28.38C39.1346 28.5909 39.1664 28.9639 38.9555 29.2133Z" fill="url(#paint43_radial_49:6950)"/>
<path opacity="0.5" d="M38.6594 43.7869C37.8521 44.7431 36.4203 44.8651 35.4629 44.0578C34.5055 43.2505 34.3825 41.8197 35.1898 40.8635C35.9971 39.9074 37.4289 39.7854 38.3863 40.5927C39.3437 41.4 39.4672 42.8293 38.6594 43.7869Z" fill="url(#paint44_radial_49:6950)"/>
<path opacity="0.5" d="M43.3334 42.3781C43.0352 42.7314 42.5052 42.7764 42.1513 42.4782C41.7975 42.18 41.7522 41.6504 42.0504 41.297C42.3486 40.9436 42.8786 40.8987 43.2324 41.1969C43.5878 41.4956 43.6316 42.0247 43.3334 42.3781Z" fill="url(#paint45_radial_49:6950)"/>
<path opacity="0.5" d="M41.3851 44.9908C41.1579 45.2607 40.7536 45.295 40.4817 45.0672C40.2099 44.8395 40.1769 44.436 40.4046 44.1645C40.6324 43.893 41.0378 43.8608 41.308 44.088C41.5798 44.3158 41.6144 44.7199 41.3851 44.9908Z" fill="url(#paint46_radial_49:6950)"/>
<path opacity="0.5" d="M30.8353 30.4258C30.6066 30.6952 30.2022 30.7295 29.9319 30.5023C29.6601 30.2745 29.6271 29.871 29.8548 29.5996C30.0826 29.3281 30.4879 29.2959 30.7582 29.5231C31.0285 29.7503 31.0631 30.1544 30.8353 30.4258Z" fill="url(#paint47_radial_49:6950)"/>
<path opacity="0.5" d="M42.309 25.8516C42.1328 26.059 41.8231 26.0855 41.6133 25.9103C41.4057 25.7342 41.379 25.4247 41.5542 25.2151C41.7303 25.0078 42.0401 24.9813 42.2498 25.1565C42.4575 25.3326 42.4852 25.6443 42.309 25.8516Z" fill="url(#paint48_radial_49:6950)"/>
<path opacity="0.5" d="M55.2793 21.189C54.7881 21.7719 53.9158 21.8455 53.3343 21.3533C52.7507 20.8621 52.6765 19.9904 53.1687 19.4097C53.6599 18.8268 54.5322 18.7532 55.1137 19.2454C55.6957 19.7361 55.7706 20.6062 55.2793 21.189Z" fill="url(#paint49_radial_49:6950)"/>
<path opacity="0.5" d="M48.687 23.4951C48.4761 23.7445 48.1027 23.776 47.853 23.5651C47.6033 23.3542 47.5715 22.9811 47.7824 22.7317C47.9933 22.4823 48.3666 22.4508 48.6164 22.6617C48.8661 22.8726 48.8979 23.2457 48.687 23.4951Z" fill="url(#paint50_radial_49:6950)"/>
<path opacity="0.5" d="M55.023 17.364C54.7774 17.6554 54.342 17.6925 54.0502 17.4469C53.7584 17.2013 53.721 16.7662 53.9666 16.4748C54.2122 16.1834 54.6476 16.1463 54.9394 16.3919C55.2312 16.6375 55.2686 17.0726 55.023 17.364Z" fill="url(#paint51_radial_49:6950)"/>
<path opacity="0.5" d="M49.6268 15.6528C49.4522 15.8608 49.1409 15.8867 48.9327 15.7121C48.7245 15.5375 48.6983 15.2264 48.8735 15.0169C49.0497 14.8095 49.3594 14.7831 49.5692 14.9582C49.7753 15.1338 49.8035 15.4439 49.6268 15.6528Z" fill="url(#paint52_radial_49:6950)"/>
<path opacity="0.5" d="M60.5813 27.1408C59.8614 27.9929 58.5862 28.1014 57.7329 27.3815C56.8797 26.6615 56.7702 25.3873 57.4902 24.5351C58.2102 23.6829 59.4853 23.5744 60.3386 24.2944C61.1924 25.0128 61.3019 26.287 60.5813 27.1408Z" fill="url(#paint53_radial_49:6950)"/>
<path opacity="0.5" d="M53.5084 28.3329C53.2281 28.6663 52.7296 28.7069 52.3973 28.4271C52.0635 28.1468 52.0225 27.6487 52.3029 27.3153C52.5832 26.9818 53.0816 26.9412 53.4139 27.221C53.7472 27.5029 53.7903 28 53.5084 28.3329Z" fill="url(#paint54_radial_49:6950)"/>
<path opacity="0.5" d="M68.7043 31.2805C68.4771 31.5504 68.0727 31.5847 67.8009 31.357C67.5306 31.1298 67.4966 30.7241 67.7238 30.4542C67.9516 30.1828 68.3569 30.1506 68.6272 30.3778C68.8969 30.6065 68.9315 31.0106 68.7043 31.2805Z" fill="url(#paint55_radial_49:6950)"/>
<path opacity="0.5" d="M61.6057 37.0921C61.2891 37.467 60.7301 37.5137 60.3548 37.1971C59.9794 36.8805 59.9323 36.3219 60.2489 35.9471C60.5655 35.5722 61.1244 35.5254 61.4998 35.8421C61.8736 36.1581 61.9208 36.7167 61.6057 37.0921Z" fill="url(#paint56_radial_49:6950)"/>
<path opacity="0.5" d="M58.9113 39.9765C58.631 40.3099 58.1325 40.3505 57.7987 40.0702C57.4648 39.7898 57.4239 39.2918 57.7042 38.9583C57.9861 38.6255 58.483 38.5843 58.8169 38.8647C59.1501 39.1465 59.1932 39.6436 58.9113 39.9765Z" fill="url(#paint57_radial_49:6950)"/>
<path opacity="0.5" d="M47.8091 40.2864C47.5635 40.5778 47.1281 40.6149 46.8363 40.3693C46.5445 40.1237 46.5071 39.6886 46.7527 39.3972C46.9984 39.1058 47.4337 39.0687 47.7255 39.3143C48.0173 39.5599 48.0547 39.995 47.8091 40.2864Z" fill="url(#paint58_radial_49:6950)"/>
<path opacity="0.5" d="M54.6927 45.8935C54.4292 46.2048 53.9628 46.2447 53.651 45.9813C53.3392 45.7178 53.299 45.2517 53.5625 44.9404C53.8259 44.629 54.2924 44.5891 54.6041 44.8526C54.9159 45.116 54.9561 45.5821 54.6927 45.8935Z" fill="url(#paint59_radial_49:6950)"/>
<path opacity="0.5" d="M52.8363 47.938C52.6091 48.2079 52.2047 48.2422 51.9329 48.0145C51.6611 47.7867 51.6286 47.3817 51.8558 47.1118C52.0836 46.8403 52.4874 46.8075 52.7592 47.0353C53.031 47.2631 53.0635 47.6681 52.8363 47.938Z" fill="url(#paint60_radial_49:6950)"/>
<path opacity="0.5" d="M47.0875 53.7526C47.7528 53.995 48.4884 53.6527 48.7305 52.9881C48.9726 52.3235 48.6296 51.5882 47.9643 51.3458C47.2991 51.1035 46.5635 51.4458 46.3213 52.1104C46.0792 52.775 46.4222 53.5102 47.0875 53.7526Z" fill="url(#paint61_radial_49:6950)"/>
<path opacity="0.5" d="M50.3166 54.9006C50.1767 55.0666 49.9269 55.0884 49.7613 54.947C49.5952 54.8071 49.5732 54.5575 49.713 54.3916C49.8529 54.2256 50.1027 54.2038 50.2689 54.3437C50.436 54.4857 50.4565 54.7347 50.3166 54.9006Z" fill="url(#paint62_radial_49:6950)"/>
<path opacity="0.5" d="M55.4527 54.0126C55.3291 54.1581 55.1125 54.1761 54.9663 54.0541C54.8207 53.9305 54.8025 53.714 54.9245 53.568C55.0481 53.4226 55.2647 53.4046 55.4109 53.5266C55.5587 53.6492 55.5763 53.8672 55.4527 54.0126Z" fill="url(#paint63_radial_49:6950)"/>
<path opacity="0.5" d="M65.9197 46.6587C65.7451 46.8666 65.4339 46.8925 65.2256 46.7179C65.0174 46.5433 64.9913 46.2323 65.1665 46.0228C65.3426 45.8154 65.6524 45.7889 65.8621 45.9641C66.0682 46.1397 66.0965 46.4498 65.9197 46.6587Z" fill="url(#paint64_radial_49:6950)"/>
<path opacity="0.5" d="M69.8531 38.1774C69.7295 38.3229 69.5129 38.3409 69.3667 38.2189C69.2211 38.0953 69.2029 37.8788 69.3249 37.7328C69.4469 37.5869 69.6651 37.5694 69.8113 37.6914C69.9569 37.815 69.9751 38.0314 69.8531 38.1774Z" fill="url(#paint65_radial_49:6950)"/>
<path opacity="0.5" d="M60.4953 38.3167C56.0235 43.6141 48.0972 44.2849 42.7929 39.8131C37.4885 35.3413 36.8122 27.4207 41.2839 22.1233C45.7557 16.8259 53.6821 16.1551 58.9864 20.6269C64.2907 25.0987 64.9671 33.0193 60.4953 38.3167Z" fill="url(#paint66_radial_49:6950)"/>
</g>
<defs>
<radialGradient id="paint0_radial_49:6950" cx="0" cy="0" r="1" gradientUnits="userSpaceOnUse" gradientTransform="translate(41.4929 14.0096) rotate(40.2118) scale(185.666 147.842)">
<stop offset="0.0815" stop-color="#FFE245"/>
<stop offset="0.5259" stop-color="#DE007B" stop-opacity="0.4741"/>
<stop offset="1" stop-color="#E38427" stop-opacity="0"/>
</radialGradient>
<radialGradient id="paint1_radial_49:6950" cx="0" cy="0" r="1" gradientUnits="userSpaceOnUse" gradientTransform="translate(48.8293 22.7086) rotate(40.2118) scale(173.424 61.3598)">
<stop offset="0.0815" stop-color="#FFE245"/>
<stop offset="0.5259" stop-color="#DE007B" stop-opacity="0.4741"/>
<stop offset="1" stop-color="#E38427" stop-opacity="0"/>
</radialGradient>
<radialGradient id="paint2_radial_49:6950" cx="0" cy="0" r="1" gradientUnits="userSpaceOnUse" gradientTransform="translate(54.0993 18.7737) rotate(40.212) scale(157.303 157.183)">
<stop offset="0.0815" stop-color="#FFE245"/>
<stop offset="0.5259" stop-color="#DE007B" stop-opacity="0.4741"/>
<stop offset="1" stop-color="#E38427" stop-opacity="0"/>
</radialGradient>
<radialGradient id="paint3_radial_49:6950" cx="0" cy="0" r="1" gradientUnits="userSpaceOnUse" gradientTransform="translate(44.6855 26.831) rotate(40.212) scale(162.644 162.52)">
<stop offset="0.0815" stop-color="#FFE245"/>
<stop offset="0.5259" stop-color="#DE007B" stop-opacity="0.4741"/>
<stop offset="1" stop-color="#E38427" stop-opacity="0"/>
</radialGradient>
<radialGradient id="paint4_radial_49:6950" cx="0" cy="0" r="1" gradientUnits="userSpaceOnUse" gradientTransform="translate(53.7954 20.7214) rotate(40.1269) scale(33.9105 33.8846)">
<stop offset="0.0815" stop-color="#FFE245"/>
<stop offset="0.9963" stop-color="#E38427"/>
</radialGradient>
<radialGradient id="paint5_radial_49:6950" cx="0" cy="0" r="1" gradientUnits="userSpaceOnUse" gradientTransform="translate(54.3059 19.0724) rotate(40.1269) scale(37.9149 37.8859)">
<stop offset="0.0815" stop-color="#FFE245"/>
<stop offset="0.9963" stop-color="#E38427"/>
</radialGradient>
<radialGradient id="paint6_radial_49:6950" cx="0" cy="0" r="1" gradientUnits="userSpaceOnUse" gradientTransform="translate(54.7787 18.7547) rotate(40.1269) scale(28.1626 28.1411)">
<stop offset="0.0815" stop-color="#FFE245"/>
<stop offset="0.9963" stop-color="#E38427"/>
</radialGradient>
<radialGradient id="paint7_radial_49:6950" cx="0" cy="0" r="1" gradientUnits="userSpaceOnUse" gradientTransform="translate(51.6854 21.122) rotate(40.1269) scale(31.8188 31.7944)">
<stop offset="0.0815" stop-color="#FFE245"/>
<stop offset="0.9963" stop-color="#E38427"/>
</radialGradient>
<radialGradient id="paint8_radial_49:6950" cx="0" cy="0" r="1" gradientUnits="userSpaceOnUse" gradientTransform="translate(34.5007 70.1872) rotate(40.1269) scale(29.4528 29.4302)">
<stop offset="0.0815" stop-color="#FFE245"/>
<stop offset="0.9963" stop-color="#E38427"/>
</radialGradient>
<radialGradient id="paint9_radial_49:6950" cx="0" cy="0" r="1" gradientUnits="userSpaceOnUse" gradientTransform="translate(47.4667 17.5444) rotate(60.0527) scale(10.3387 10.3369)">
<stop offset="0.0815" stop-color="#FFE245"/>
<stop offset="0.9963" stop-color="#E38427"/>
</radialGradient>
<radialGradient id="paint10_radial_49:6950" cx="0" cy="0" r="1" gradientUnits="userSpaceOnUse" gradientTransform="translate(47.521 17.9124) rotate(60.0527) scale(10.001 9.99929)">
<stop offset="0.0815" stop-color="#FFE245"/>
<stop offset="0.9963" stop-color="#E38427"/>
</radialGradient>
<radialGradient id="paint11_radial_49:6950" cx="0" cy="0" r="1" gradientUnits="userSpaceOnUse" gradientTransform="translate(50.6092 27.1814) rotate(60.0521) scale(5.048 3.71403)">
<stop offset="0.0815" stop-color="#FFE245"/>
<stop offset="0.9963" stop-color="#E38427"/>
</radialGradient>
<radialGradient id="paint12_radial_49:6950" cx="0" cy="0" r="1" gradientUnits="userSpaceOnUse" gradientTransform="translate(50.6092 27.1814) rotate(60.0521) scale(5.048 3.71403)">
<stop offset="0.0815" stop-color="#FFE245"/>
<stop offset="0.9963" stop-color="#E38427"/>
</radialGradient>
<radialGradient id="paint13_radial_49:6950" cx="0" cy="0" r="1" gradientUnits="userSpaceOnUse" gradientTransform="translate(50.6516 27.3518) rotate(60.0522) scale(4.8831 3.59271)">
<stop offset="0.0815" stop-color="#FFE245"/>
<stop offset="0.9963" stop-color="#E38427"/>
</radialGradient>
<radialGradient id="paint14_radial_49:6950" cx="0" cy="0" r="1" gradientUnits="userSpaceOnUse" gradientTransform="translate(49.8094 42.6608) rotate(-141.991) scale(9.00064 6.61828)">
<stop offset="0.0815" stop-color="#FFE245"/>
<stop offset="0.9963" stop-color="#E38427"/>
</radialGradient>
<radialGradient id="paint15_radial_49:6950" cx="0" cy="0" r="1" gradientUnits="userSpaceOnUse" gradientTransform="translate(49.6258 42.4062) rotate(-141.991) scale(8.70633 6.40188)">
<stop offset="0.0815" stop-color="#FFE245"/>
<stop offset="0.9963" stop-color="#E38427"/>
</radialGradient>
<radialGradient id="paint16_radial_49:6950" cx="0" cy="0" r="1" gradientUnits="userSpaceOnUse" gradientTransform="translate(44.2454 32.3345) rotate(27.0789) scale(9.80291 7.20729)">
<stop offset="0.0815" stop-color="#FFE245"/>
<stop offset="0.9963" stop-color="#E38427"/>
</radialGradient>
<radialGradient id="paint17_radial_49:6950" cx="0" cy="0" r="1" gradientUnits="userSpaceOnUse" gradientTransform="translate(44.4943 32.5684) rotate(27.0789) scale(9.48268 6.97184)">
<stop offset="0.0815" stop-color="#FFE245"/>
<stop offset="0.9963" stop-color="#E38427"/>
</radialGradient>
<radialGradient id="paint18_radial_49:6950" cx="0" cy="0" r="1" gradientUnits="userSpaceOnUse" gradientTransform="translate(51.6754 18.0411) rotate(71.4984) scale(4.53723 4.53825)">
<stop offset="0.0815" stop-color="#FFE245"/>
<stop offset="0.9963" stop-color="#E38427"/>
</radialGradient>
<radialGradient id="paint19_radial_49:6950" cx="0" cy="0" r="1" gradientUnits="userSpaceOnUse" gradientTransform="translate(51.6672 18.2039) rotate(71.4984) scale(4.38921 4.3902)">
<stop offset="0.0815" stop-color="#FFE245"/>
<stop offset="0.9963" stop-color="#E38427"/>
</radialGradient>
<radialGradient id="paint20_radial_49:6950" cx="0" cy="0" r="1" gradientUnits="userSpaceOnUse" gradientTransform="translate(39.0888 24.4059) rotate(44.9824) scale(6.69117 6.68686)">
<stop offset="0.0815" stop-color="#FFE245"/>
<stop offset="0.9963" stop-color="#E38427"/>
</radialGradient>
<radialGradient id="paint21_radial_49:6950" cx="0" cy="0" r="1" gradientUnits="userSpaceOnUse" gradientTransform="translate(39.0888 24.4059) rotate(44.9824) scale(6.69117 6.68686)">
<stop offset="0.0815" stop-color="#FFE245"/>
<stop offset="0.9963" stop-color="#E38427"/>
</radialGradient>
<radialGradient id="paint22_radial_49:6950" cx="0" cy="0" r="1" gradientUnits="userSpaceOnUse" gradientTransform="translate(39.1847 24.6265) rotate(44.9824) scale(6.47262 6.46845)">
<stop offset="0.0815" stop-color="#FFE245"/>
<stop offset="0.9963" stop-color="#E38427"/>
</radialGradient>
<radialGradient id="paint23_radial_49:6950" cx="0" cy="0" r="1" gradientUnits="userSpaceOnUse" gradientTransform="translate(62.0951 44.7251) rotate(-138.447) scale(6.69159 6.68669)">
<stop offset="0.0815" stop-color="#FFE245"/>
<stop offset="0.9963" stop-color="#E38427"/>
</radialGradient>
<radialGradient id="paint24_radial_49:6950" cx="0" cy="0" r="1" gradientUnits="userSpaceOnUse" gradientTransform="translate(61.986 44.5107) rotate(-138.447) scale(6.47286 6.46812)">
<stop offset="0.0815" stop-color="#FFE245"/>
<stop offset="0.9963" stop-color="#E38427"/>
</radialGradient>
<radialGradient id="paint25_radial_49:6950" cx="0" cy="0" r="1" gradientUnits="userSpaceOnUse" gradientTransform="translate(49.4556 51.9808) rotate(-118.107) scale(5.12038 5.11982)">
<stop offset="0.0815" stop-color="#FFE245"/>
<stop offset="0.9963" stop-color="#E38427"/>
</radialGradient>
<radialGradient id="paint26_radial_49:6950" cx="0" cy="0" r="1" gradientUnits="userSpaceOnUse" gradientTransform="translate(49.4556 51.9808) rotate(-118.107) scale(5.12038 5.11982)">
<stop offset="0.0815" stop-color="#FFE245"/>
<stop offset="0.9963" stop-color="#E38427"/>
</radialGradient>
<radialGradient id="paint27_radial_49:6950" cx="0" cy="0" r="1" gradientUnits="userSpaceOnUse" gradientTransform="translate(49.4344 51.7974) rotate(-118.107) scale(4.95294 4.9524)">
<stop offset="0.0815" stop-color="#FFE245"/>
<stop offset="0.9963" stop-color="#E38427"/>
</radialGradient>
<radialGradient id="paint28_radial_49:6950" cx="0" cy="0" r="1" gradientUnits="userSpaceOnUse" gradientTransform="translate(56.4947 44.1858) rotate(-118.107) scale(4.05141 4.05097)">
<stop offset="0.0815" stop-color="#FFE245"/>
<stop offset="0.9963" stop-color="#E38427"/>
</radialGradient>
<radialGradient id="paint29_radial_49:6950" cx="0" cy="0" r="1" gradientUnits="userSpaceOnUse" gradientTransform="translate(56.4772 44.0412) rotate(-118.107) scale(3.91911 3.91869)">
<stop offset="0.0815" stop-color="#FFE245"/>
<stop offset="0.9963" stop-color="#E38427"/>
</radialGradient>
<radialGradient id="paint30_radial_49:6950" cx="0" cy="0" r="1" gradientUnits="userSpaceOnUse" gradientTransform="translate(65.3706 31.7438) rotate(159.8) scale(9.45488 9.45331)">
<stop offset="0.0815" stop-color="#FFE245"/>
<stop offset="0.9963" stop-color="#E38427"/>
</radialGradient>
<radialGradient id="paint31_radial_49:6950" cx="0" cy="0" r="1" gradientUnits="userSpaceOnUse" gradientTransform="translate(65.3706 31.7438) rotate(159.8) scale(9.45488 9.45331)">
<stop offset="0.0815" stop-color="#FFE245"/>
<stop offset="0.9963" stop-color="#E38427"/>
</radialGradient>
<radialGradient id="paint32_radial_49:6950" cx="0" cy="0" r="1" gradientUnits="userSpaceOnUse" gradientTransform="translate(65.0298 31.7363) rotate(159.8) scale(9.14602 9.1445)">
<stop offset="0.0815" stop-color="#FFE245"/>
<stop offset="0.9963" stop-color="#E38427"/>
</radialGradient>
<radialGradient id="paint33_radial_49:6950" cx="0" cy="0" r="1" gradientUnits="userSpaceOnUse" gradientTransform="translate(61.6838 22.171) rotate(137.062) scale(4.04984 4.05222)">
<stop offset="0.0815" stop-color="#FFE245"/>
<stop offset="0.9963" stop-color="#E38427"/>
</radialGradient>
<radialGradient id="paint34_radial_49:6950" cx="0" cy="0" r="1" gradientUnits="userSpaceOnUse" gradientTransform="translate(61.5479 22.2241) rotate(137.062) scale(3.9176 3.9199)">
<stop offset="0.0815" stop-color="#FFE245"/>
<stop offset="0.9963" stop-color="#E38427"/>
</radialGradient>
<radialGradient id="paint35_radial_49:6950" cx="0" cy="0" r="1" gradientUnits="userSpaceOnUse" gradientTransform="translate(31.598 35.9243) rotate(-17.7811) scale(4.05154 4.05053)">
<stop offset="0.0815" stop-color="#FFE245"/>
<stop offset="0.9963" stop-color="#E38427"/>
</radialGradient>
<radialGradient id="paint36_radial_49:6950" cx="0" cy="0" r="1" gradientUnits="userSpaceOnUse" gradientTransform="translate(31.598 35.9243) rotate(-17.7811) scale(4.05154 4.05053)">
<stop offset="0.0815" stop-color="#FFE245"/>
<stop offset="0.9963" stop-color="#E38427"/>
</radialGradient>
<radialGradient id="paint37_radial_49:6950" cx="0" cy="0" r="1" gradientUnits="userSpaceOnUse" gradientTransform="translate(31.7432 35.9336) rotate(-17.781) scale(3.91923 3.91826)">
<stop offset="0.0815" stop-color="#FFE245"/>
<stop offset="0.9963" stop-color="#E38427"/>
</radialGradient>
<radialGradient id="paint38_radial_49:6950" cx="0" cy="0" r="1" gradientUnits="userSpaceOnUse" gradientTransform="translate(54.7265 50.8632) rotate(-117.921) scale(8.95946 8.95855)">
<stop offset="0.0815" stop-color="#FFE245"/>
<stop offset="0.9963" stop-color="#E38427"/>
</radialGradient>
<radialGradient id="paint39_radial_49:6950" cx="0" cy="0" r="1" gradientUnits="userSpaceOnUse" gradientTransform="translate(54.6895 50.5431) rotate(-117.921) scale(8.66686 8.66598)">
<stop offset="0.0815" stop-color="#FFE245"/>
<stop offset="0.9963" stop-color="#E38427"/>
</radialGradient>
<radialGradient id="paint40_radial_49:6950" cx="0" cy="0" r="1" gradientUnits="userSpaceOnUse" gradientTransform="translate(67.0863 34.5929) rotate(40.1269) scale(1.57054 1.56934)">
<stop offset="0.0815" stop-color="#FFE245"/>
<stop offset="0.9963" stop-color="#E38427"/>
</radialGradient>
<radialGradient id="paint41_radial_49:6950" cx="0" cy="0" r="1" gradientUnits="userSpaceOnUse" gradientTransform="translate(64.1572 37.5111) rotate(40.1268) scale(1.00972 1.00895)">
<stop offset="0.0815" stop-color="#FFE245"/>
<stop offset="0.9963" stop-color="#E38427"/>
</radialGradient>
<radialGradient id="paint42_radial_49:6950" cx="0" cy="0" r="1" gradientUnits="userSpaceOnUse" gradientTransform="translate(34.384 32.1207) rotate(40.1269) scale(1.79474 1.79337)">
<stop offset="0.0815" stop-color="#FFE245"/>
<stop offset="0.9963" stop-color="#E38427"/>
</radialGradient>
<radialGradient id="paint43_radial_49:6950" cx="0" cy="0" r="1" gradientUnits="userSpaceOnUse" gradientTransform="translate(39.2088 28.4072) rotate(40.1269) scale(1.34618 1.34515)">
<stop offset="0.0815" stop-color="#FFE245"/>
<stop offset="0.9963" stop-color="#E38427"/>
</radialGradient>
<radialGradient id="paint44_radial_49:6950" cx="0" cy="0" r="1" gradientUnits="userSpaceOnUse" gradientTransform="translate(39.6293 40.6958) rotate(40.1269) scale(5.16019 5.15624)">
<stop offset="0.0815" stop-color="#FFE245"/>
<stop offset="0.9963" stop-color="#E38427"/>
</radialGradient>
<radialGradient id="paint45_radial_49:6950" cx="0" cy="0" r="1" gradientUnits="userSpaceOnUse" gradientTransform="translate(43.6922 41.2355) rotate(40.1269) scale(1.90717 1.90571)">
<stop offset="0.0815" stop-color="#FFE245"/>
<stop offset="0.9963" stop-color="#E38427"/>
</radialGradient>
<radialGradient id="paint46_radial_49:6950" cx="0" cy="0" r="1" gradientUnits="userSpaceOnUse" gradientTransform="translate(41.66 44.1167) rotate(40.1268) scale(1.45844 1.45732)">
<stop offset="0.0815" stop-color="#FFE245"/>
<stop offset="0.9963" stop-color="#E38427"/>
</radialGradient>
<radialGradient id="paint47_radial_49:6950" cx="0" cy="0" r="1" gradientUnits="userSpaceOnUse" gradientTransform="translate(31.1088 29.5513) rotate(40.1269) scale(1.45828 1.45716)">
<stop offset="0.0815" stop-color="#FFE245"/>
<stop offset="0.9963" stop-color="#E38427"/>
</radialGradient>
<radialGradient id="paint48_radial_49:6950" cx="0" cy="0" r="1" gradientUnits="userSpaceOnUse" gradientTransform="translate(42.5196 25.1803) rotate(40.1268) scale(1.12182 1.12096)">
<stop offset="0.0815" stop-color="#FFE245"/>
<stop offset="0.9963" stop-color="#E38427"/>
</radialGradient>
<radialGradient id="paint49_radial_49:6950" cx="0" cy="0" r="1" gradientUnits="userSpaceOnUse" gradientTransform="translate(55.8693 19.3078) rotate(40.1269) scale(3.14092 3.13852)">
<stop offset="0.0815" stop-color="#FFE245"/>
<stop offset="0.9963" stop-color="#E38427"/>
</radialGradient>
<radialGradient id="paint50_radial_49:6950" cx="0" cy="0" r="1" gradientUnits="userSpaceOnUse" gradientTransform="translate(48.94 22.6882) rotate(40.1269) scale(1.34618 1.34515)">
<stop offset="0.0815" stop-color="#FFE245"/>
<stop offset="0.9963" stop-color="#E38427"/>
</radialGradient>
<radialGradient id="paint51_radial_49:6950" cx="0" cy="0" r="1" gradientUnits="userSpaceOnUse" gradientTransform="translate(55.3184 16.4232) rotate(40.1269) scale(1.57054 1.56934)">
<stop offset="0.0815" stop-color="#FFE245"/>
<stop offset="0.9963" stop-color="#E38427"/>
</radialGradient>
<radialGradient id="paint52_radial_49:6950" cx="0" cy="0" r="1" gradientUnits="userSpaceOnUse" gradientTransform="translate(49.838 14.98) rotate(40.1269) scale(1.12198 1.12112)">
<stop offset="0.0815" stop-color="#FFE245"/>
<stop offset="0.9963" stop-color="#E38427"/>
</radialGradient>
<radialGradient id="paint53_radial_49:6950" cx="0" cy="0" r="1" gradientUnits="userSpaceOnUse" gradientTransform="translate(61.4458 24.3855) rotate(40.1269) scale(4.59936 4.59584)">
<stop offset="0.0815" stop-color="#FFE245"/>
<stop offset="0.9963" stop-color="#E38427"/>
</radialGradient>
<radialGradient id="paint54_radial_49:6950" cx="0" cy="0" r="1" gradientUnits="userSpaceOnUse" gradientTransform="translate(53.8461 27.258) rotate(40.1269) scale(1.7949 1.79353)">
<stop offset="0.0815" stop-color="#FFE245"/>
<stop offset="0.9963" stop-color="#E38427"/>
</radialGradient>
<radialGradient id="paint55_radial_49:6950" cx="0" cy="0" r="1" gradientUnits="userSpaceOnUse" gradientTransform="translate(68.9779 30.407) rotate(40.1268) scale(1.45828 1.45716)">
<stop offset="0.0815" stop-color="#FFE245"/>
<stop offset="0.9963" stop-color="#E38427"/>
</radialGradient>
<radialGradient id="paint56_radial_49:6950" cx="0" cy="0" r="1" gradientUnits="userSpaceOnUse" gradientTransform="translate(61.9845 35.8822) rotate(40.1269) scale(2.01927 2.01772)">
<stop offset="0.0815" stop-color="#FFE245"/>
<stop offset="0.9963" stop-color="#E38427"/>
</radialGradient>
<radialGradient id="paint57_radial_49:6950" cx="0" cy="0" r="1" gradientUnits="userSpaceOnUse" gradientTransform="translate(59.249 38.901) rotate(40.1269) scale(1.7949 1.79353)">
<stop offset="0.0815" stop-color="#FFE245"/>
<stop offset="0.9963" stop-color="#E38427"/>
</radialGradient>
<radialGradient id="paint58_radial_49:6950" cx="0" cy="0" r="1" gradientUnits="userSpaceOnUse" gradientTransform="translate(48.1046 39.3453) rotate(40.1268) scale(1.57054 1.56934)">
<stop offset="0.0815" stop-color="#FFE245"/>
<stop offset="0.9963" stop-color="#E38427"/>
</radialGradient>
<radialGradient id="paint59_radial_49:6950" cx="0" cy="0" r="1" gradientUnits="userSpaceOnUse" gradientTransform="translate(55.0085 44.8855) rotate(40.1269) scale(1.6828 1.68152)">
<stop offset="0.0815" stop-color="#FFE245"/>
<stop offset="0.9963" stop-color="#E38427"/>
</radialGradient>
<radialGradient id="paint60_radial_49:6950" cx="0" cy="0" r="1" gradientUnits="userSpaceOnUse" gradientTransform="translate(53.11 47.0647) rotate(40.1269) scale(1.45844 1.45733)">
<stop offset="0.0815" stop-color="#FFE245"/>
<stop offset="0.9963" stop-color="#E38427"/>
</radialGradient>
<radialGradient id="paint61_radial_49:6950" cx="0" cy="0" r="1" gradientUnits="userSpaceOnUse" gradientTransform="translate(49.0538 51.6285) rotate(40.1268) scale(2.91672 2.91449)">
<stop offset="0.0815" stop-color="#FFE245"/>
<stop offset="0.9963" stop-color="#E38427"/>
</radialGradient>
<radialGradient id="paint62_radial_49:6950" cx="0" cy="0" r="1" gradientUnits="userSpaceOnUse" gradientTransform="translate(50.4847 54.3637) rotate(40.1268) scale(0.897451 0.896762)">
<stop offset="0.0815" stop-color="#FFE245"/>
<stop offset="0.9963" stop-color="#E38427"/>
</radialGradient>
<radialGradient id="paint63_radial_49:6950" cx="0" cy="0" r="1" gradientUnits="userSpaceOnUse" gradientTransform="translate(55.6011 53.5421) rotate(40.1268) scale(0.78519 0.784588)">
<stop offset="0.0815" stop-color="#FFE245"/>
<stop offset="0.9963" stop-color="#E38427"/>
</radialGradient>
<radialGradient id="paint64_radial_49:6950" cx="0" cy="0" r="1" gradientUnits="userSpaceOnUse" gradientTransform="translate(66.1307 45.9862) rotate(40.1268) scale(1.12182 1.12096)">
<stop offset="0.0815" stop-color="#FFE245"/>
<stop offset="0.9963" stop-color="#E38427"/>
</radialGradient>
<radialGradient id="paint65_radial_49:6950" cx="0" cy="0" r="1" gradientUnits="userSpaceOnUse" gradientTransform="translate(70.0003 37.7073) rotate(40.1268) scale(0.785187 0.784586)">
<stop offset="0.0815" stop-color="#FFE245"/>
<stop offset="0.9963" stop-color="#E38427"/>
</radialGradient>
<radialGradient id="paint66_radial_49:6950" cx="0" cy="0" r="1" gradientUnits="userSpaceOnUse" gradientTransform="translate(53.4088 22.081) rotate(40.1269) scale(19.7566 19.7415)">
<stop offset="0.0815" stop-color="#FFE245"/>
<stop offset="0.9963" stop-color="#E38427"/>
</radialGradient>
<clipPath id="clip0_49:6950">
<rect width="181" height="101" fill="white" transform="translate(34.5742) rotate(20.0179)"/>
</clipPath>
</defs>
</svg>
