<svg width="219" height="219" viewBox="0 0 219 219" fill="none" xmlns="http://www.w3.org/2000/svg">
<g clip-path="url(#clip0_49:6741)">
<g style="mix-blend-mode:hard-light">
<path d="M109.501 219.002C169.977 219.002 219.002 169.977 219.002 109.501C219.002 49.0253 169.977 0 109.501 0C49.0253 0 0 49.0253 0 109.501C0 169.977 49.0253 219.002 109.501 219.002Z" fill="url(#paint0_radial_49:6741)"/>
</g>
<g style="mix-blend-mode:color-dodge" opacity="0.5">
<path d="M109.502 196.79C157.71 196.79 196.79 157.71 196.79 109.502C196.79 61.2943 157.71 22.2141 109.502 22.2141C61.2941 22.2141 22.2139 61.2943 22.2139 109.502C22.2139 157.71 61.2941 196.79 109.502 196.79Z" fill="url(#paint1_radial_49:6741)"/>
</g>
<path d="M109.501 190.613C154.298 190.613 190.613 154.298 190.613 109.501C190.613 64.7045 154.298 28.3896 109.501 28.3896C64.7045 28.3896 28.3896 64.7045 28.3896 109.501C28.3896 154.298 64.7045 190.613 109.501 190.613Z" fill="url(#paint2_radial_49:6741)"/>
<g style="mix-blend-mode:multiply">
<path d="M121.814 153.033C123.095 154.209 123.246 156.307 122.424 157.765C122.383 157.838 122.342 157.912 122.299 157.985C121.038 160.224 117.835 160.57 116.055 158.79C114.273 157.008 114.621 153.809 116.86 152.546C116.933 152.505 117.007 152.464 117.08 152.421C118.644 151.543 120.519 151.843 121.814 153.033ZM79.8367 82.2136C75.4724 87.8647 75.347 96.6625 80.7731 101.803C84.0604 104.915 88.1998 106.455 92.7263 105.845C95.9314 105.415 98.7991 104.07 101.057 101.66C102.251 100.384 103.174 99.0112 103.914 97.4648C104.091 97.095 104.284 96.7403 104.483 96.3835C104.87 95.685 104.848 95.7217 105.356 94.5193C106.092 92.7761 106.247 91.1995 106.498 89.3288C106.492 87.0126 105.908 84.8542 104.747 82.8537C103.605 80.9268 102.071 79.3913 100.144 78.2515C97.4193 76.6576 94.5451 76.2857 91.712 76.7723C90.1484 76.6598 88.5545 76.8134 87.1098 77.1637C84.0215 77.9098 81.7182 79.7762 79.8367 82.2136ZM57.1155 84.7612C56.6224 84.6747 56.125 84.6185 55.6298 84.5558C55.5735 84.5406 55.4697 84.519 55.2773 84.4779C55.0091 84.4217 54.7452 84.3417 54.4771 84.2876C53.4476 84.0821 52.6171 84.1578 51.5639 84.3222C50.4912 84.4909 49.172 85.609 48.6789 86.5411C48.0647 87.7025 47.8636 88.9655 48.1923 90.2609C48.7373 92.4106 50.8113 94.2424 52.6193 95.4211C54.8015 96.842 57.8876 96.2472 59.687 94.5084C60.2601 93.9526 60.684 93.319 60.9932 92.5901C61.2506 91.9824 61.4128 91.3293 61.4193 90.6589C61.4258 90.196 61.0689 87.6225 61.3955 90.3842C61.2376 89.0498 60.9911 87.949 60.1433 86.8504C59.4296 85.9269 58.3115 84.971 57.1155 84.7612ZM64.0599 169.478C65.8593 170.525 68.3788 171.212 70.4658 171.167C76.982 171.026 82.8731 166.554 84.4173 160.142C85.7538 154.59 83.7274 148.602 78.6234 145.682C76.5494 144.495 74.1251 143.887 71.7418 143.95C70.602 143.98 69.2201 144.172 68.1214 144.505C65.9869 145.154 64.4276 146.292 62.7018 147.711C61.4323 148.755 60.4028 150.604 59.8038 152.488C58.8998 153.963 58.3504 155.533 58.1125 157.315C57.6303 160.899 58.5407 164.733 61.2398 167.333C62.0702 168.128 63.0672 168.898 64.0599 169.478ZM67.4078 95.6093C64.8298 95.6093 62.36 97.8757 62.479 100.538C62.5979 103.209 64.646 105.467 67.4078 105.467C69.9857 105.467 72.4576 103.2 72.3365 100.538C72.2176 97.8671 70.1717 95.6093 67.4078 95.6093ZM66.2983 143.056C69.9165 143.056 69.923 137.433 66.2983 137.433C62.6801 137.433 62.6736 143.056 66.2983 143.056ZM68.0393 111.235C63.8566 113.932 61.3566 120.184 64.5098 124.697C65.3835 125.947 66.3221 127.156 67.2693 128.35C68.262 129.602 69.5834 130.521 70.894 131.425C73.3573 133.121 76.8371 133.984 79.8367 133.246C81.6469 133.03 83.3165 132.193 84.5427 130.604C85.3753 129.524 85.7322 128.469 85.9095 127.159C85.9744 126.678 85.9852 126.231 85.9571 125.802C86.2556 122.07 84.3308 118.586 81.9929 115.48C82.2373 115.796 82.4795 116.109 82.7239 116.425C82.3043 115.88 81.8977 115.329 81.5041 114.764C80.0119 112.627 78.2082 110.954 75.6238 110.242C73.2665 109.593 70.1306 109.887 68.0393 111.235ZM53.6293 123.35C51.4753 117.009 45.7766 112.872 38.9771 113.784C36.8036 114.076 34.6539 114.987 32.7983 116.326C32.6188 116.412 32.4393 116.466 32.262 116.568C30.9989 117.292 29.9219 118.196 28.9877 119.211C30.322 130.379 33.9207 140.846 39.3188 150.148C44.9439 150.833 50.6902 148.336 53.6769 142.892C56.6679 137.442 55.5606 129.031 53.6293 123.35ZM86.8287 147.771C86.913 147.797 86.9995 147.825 87.0839 147.851C89.1341 148.493 91.2362 146.757 91.2362 144.689C91.2362 142.622 89.1319 140.885 87.0839 141.527C86.9995 141.553 86.913 141.581 86.8287 141.607C83.7944 142.557 83.7901 146.817 86.8287 147.771ZM177.205 132.18C173.801 133.095 171.054 135.018 169.201 138.515C169.043 138.813 168.894 139.122 168.74 139.427C168.717 139.449 168.699 139.46 168.673 139.481C163.924 143.673 164.034 151.463 167.678 156.182C168.985 157.873 170.81 159.235 172.852 160.126C179.428 151.908 184.433 142.386 187.426 132.005C184.195 130.292 180.605 130.803 177.205 132.18ZM77.2501 53.5796C79.8865 57.4552 83.935 60.6624 87.6916 62.6088C93.7752 65.762 100.698 66.9818 107.013 63.5474C110.806 61.4842 113.672 58.1688 115.543 54.3128C117.428 50.4264 119.068 46.6698 119.124 42.2991C119.198 36.529 115.934 31.7192 111.516 28.4406C110.845 28.4233 110.177 28.3887 109.502 28.3887C96.7705 28.3887 84.7287 31.3299 74.0061 36.5571C71.9148 42.2536 72.7085 49.1029 77.2501 53.5796ZM177.705 114.864C177.638 114.706 177.571 114.548 177.506 114.39C178.356 116.851 178.31 119.44 176.913 121.825C175.311 124.563 172.447 126.084 169.32 126.181C165.994 126.283 162.856 124.831 160.831 122.212C159.261 120.18 158.351 117.777 158.463 115.16C158.58 112.467 159.361 109.738 161.372 107.835C162.585 106.689 164.084 105.806 165.697 105.369C168.353 104.649 171.39 105.69 173.029 107.906C173.113 107.984 173.206 108.049 173.286 108.131C173.511 108.365 173.704 108.601 173.883 108.836C174.19 109.135 174.515 109.418 174.811 109.729C176.135 111.124 176.924 112.374 177.497 114.206C177.564 114.429 177.616 114.645 177.705 114.864ZM129.944 120.638C128.212 117.459 124.957 114.699 122.128 112.515C116.481 108.153 109.217 107.986 103.555 112.359C102.759 112.973 102.069 113.668 101.435 114.401C100.287 115.441 99.3939 116.734 98.9008 118.235C97.9838 120.019 97.2485 121.925 96.5651 123.834C95.142 127.812 94.1472 132.606 95.2826 136.728C98.5526 148.599 111.485 148.855 121.246 146.564C127.427 145.113 131.871 138.357 131.196 132.087C132.269 128.48 132.083 124.563 129.944 120.638ZM157.525 78.5695C159.748 86.1021 166.973 88.773 173.883 90.3626C179.13 91.5694 184.072 89.7419 187.221 86.2794C183.877 75.0746 178.178 64.8948 170.698 56.2981C170.168 56.4949 169.653 56.722 169.175 57.0118C167.752 57.0853 166.355 57.4963 165.094 58.3635C158.972 62.585 155.358 71.2206 157.525 78.5695ZM183.473 97.2248C178.849 97.2248 178.842 104.409 183.473 104.409C188.096 104.409 188.103 97.2248 183.473 97.2248ZM88.7772 74.1316C88.8465 74.0905 88.9135 74.0494 88.9827 74.0084C91.3681 72.5767 91.3681 69.0774 88.9827 67.6457C88.9135 67.6046 88.8465 67.5636 88.7772 67.5225C86.2793 66.0237 83.0202 67.9507 83.0202 70.827C83.018 73.7034 86.2772 75.6325 88.7772 74.1316ZM97.2917 189.69C98.9008 188.081 100.112 185.441 100.008 183.131C99.8999 180.73 99.1127 178.243 97.2917 176.572C95.4772 174.904 93.2454 173.853 90.7323 173.853C88.3534 173.853 85.8533 174.889 84.1729 176.572C82.5638 178.181 81.3528 180.821 81.4566 183.131C81.4976 184.026 81.6707 184.924 81.9172 185.798C86.8373 187.577 91.9759 188.897 97.2853 189.699C97.2874 189.695 97.2896 189.693 97.2917 189.69ZM32.8978 106.557C38.6916 106.297 43.3392 101.926 43.4409 96.0137C43.4712 94.2251 43.6442 92.9686 43.177 91.0352C42.6645 88.9179 41.6112 87.2786 40.2812 85.5701C38.3737 83.5112 35.7828 82.3866 32.9692 82.6288C30.4258 89.8738 28.8687 97.5838 28.4902 105.605C29.8506 106.265 31.3471 106.626 32.8978 106.557ZM41.3041 86.8482C40.9949 86.3919 40.6532 85.9767 40.292 85.583C40.7505 86.1778 41.209 86.7704 41.6696 87.3651C41.542 87.1986 41.4209 87.0256 41.3041 86.8482ZM40.1882 85.449C40.2206 85.49 40.2466 85.5311 40.279 85.5701C40.2834 85.5744 40.2877 85.5787 40.292 85.583C40.2574 85.5398 40.2228 85.4944 40.1882 85.449ZM48.441 59.6611C48.2118 60.6711 48.0733 61.7611 48.056 62.8619C47.7446 64.7672 47.6689 66.7028 48.1901 68.5952C49.0184 71.6056 51.1162 74.2787 53.8347 75.7969C59.6978 79.0712 67.3667 76.9496 70.7924 71.199C73.4352 66.7634 72.9507 60.9868 69.9943 56.8453C69.2525 55.472 68.2404 54.369 66.9579 53.5364C66.2961 52.9308 65.5587 52.4529 64.7606 52.0744C61.7826 50.4329 58.0347 50.2794 54.7085 52.1177C54.6047 52.176 54.5117 52.2517 54.4079 52.3123C54.224 52.4118 54.0315 52.5026 53.8607 52.6129C51.3433 54.2371 49.1266 56.655 48.441 59.6611ZM158.982 173.751C155.678 176.301 152.179 178.609 148.498 180.631C145.863 181.152 142.989 181.081 140.474 180.322C135.993 178.968 132.386 175.843 130.569 171.532C128.657 167.002 129.414 162.443 131.986 158.608C131.938 158.671 131.89 158.732 131.843 158.794C131.895 158.723 131.947 158.66 131.999 158.589C132.472 157.884 132.987 157.196 133.579 156.545C133.45 156.712 133.322 156.88 133.192 157.047C134.287 155.708 135.446 154.558 137.089 153.593C140.552 151.562 144.587 151.56 148.087 153.478C148.182 153.489 148.279 153.5 148.374 153.513C150.18 153.543 152.055 154.028 153.545 154.657C155.63 155.537 157.235 156.772 158.617 158.563C160.321 160.769 161.34 163.425 161.34 166.247C161.34 168.505 160.574 170.644 159.607 172.646C159.432 173.014 159.218 173.386 158.982 173.751ZM152.795 161.783C152.788 161.738 152.782 161.69 152.775 161.645C152.775 161.647 152.775 161.649 152.775 161.651C152.782 161.694 152.791 161.738 152.795 161.783ZM126.257 186.338C126.11 183.038 123.579 180.248 120.164 180.248C116.979 180.248 113.925 183.049 114.074 186.338C114.143 187.867 114.738 189.273 115.681 190.356C119.057 190.101 122.383 189.66 125.632 189.005C126.051 188.189 126.3 187.29 126.257 186.338ZM113.754 169.642C114.063 168.576 114.063 167.447 113.754 166.381C112.846 163.243 109.427 161.141 106.206 162.095C106.105 162.125 106.001 162.155 105.899 162.185C103.442 162.912 101.345 165.343 101.464 168.012C101.585 170.715 103.261 173.055 105.899 173.838C106.001 173.868 106.105 173.898 106.206 173.929C109.416 174.88 112.844 172.783 113.754 169.642ZM137.109 111.663C140.615 112.63 143.846 111.481 146.499 109.18C150.853 105.406 152.371 98.1677 149.306 93.1589C146.638 88.7968 140.137 86.4351 135.595 89.5645C132.779 91.5045 131.004 93.864 130.126 97.2032C129.447 99.7897 129.453 102.407 130.368 104.922C131.544 108.159 133.664 110.713 137.109 111.663ZM146.904 76.0629C145.716 76.5646 144.761 77.8147 144.821 79.1577C144.955 82.1422 148.385 83.548 150.604 81.554C150.652 81.5107 150.701 81.4653 150.751 81.422C151.99 80.3083 151.988 78.0072 150.751 76.8934C150.701 76.8501 150.654 76.8069 150.604 76.7615C149.577 75.838 148.197 75.5157 146.904 76.0629ZM125.238 72.3907C125.05 72.222 124.866 72.0533 124.702 71.8565C124.111 71.4002 123.521 70.9438 122.933 70.4897C121.929 69.8517 120.846 69.5056 119.68 69.4516C117.816 69.2007 115.731 69.4386 114.102 70.4897C112.837 71.305 111.78 72.3625 110.964 73.6277C109.74 75.5266 109.548 78.2321 110.082 80.3666C110.796 83.2084 112.69 86.1648 115.383 87.4884C117.48 88.52 120.004 89.1493 122.329 88.3967C124.23 87.7825 125.785 86.7531 127.011 85.1656C129.782 81.5799 129.423 76.623 126.306 73.3293C125.984 72.9832 125.612 72.6848 125.238 72.3907ZM144.036 44.4942C141.116 42.5088 136.823 42.7727 133.878 44.4942C133.826 44.5245 133.774 44.5547 133.722 44.585C130.387 46.5336 128.889 49.9939 128.999 53.6034C128.553 54.7972 128.35 56.1186 128.248 57.3038C128.212 57.7363 128.216 58.1559 128.253 58.5884C128.3 59.1291 128.365 59.6351 128.456 60.1304C128.465 60.2018 128.482 60.2731 128.493 60.3445C128.858 63.0479 130.729 65.589 133.043 66.9126C134.704 67.862 136.607 68.3162 138.504 68.4113C142.561 68.6189 146.579 65.8161 148.649 62.4985C150.435 59.6351 151.028 55.8656 150.111 52.5913C149.116 49.0488 147.023 46.5271 144.036 44.4942ZM93.5092 163.907C98.2325 163.907 98.2412 156.567 93.5092 156.567C88.7859 156.567 88.7772 163.907 93.5092 163.907ZM144.045 123.298C147.963 123.298 147.97 117.206 144.045 117.206C140.126 117.208 140.119 123.298 144.045 123.298ZM149.019 143.372C152.282 144.099 155.334 142.187 156.017 139.051C156.141 138.454 156.316 138.234 156.327 137.185C156.337 136.212 156.13 135.478 155.823 134.704C155.883 134.849 155.944 134.992 156.004 135.137C155.818 134.553 155.565 133.876 155.245 133.355C153.193 129.989 148.759 129.542 145.92 132.152C144.14 133.789 143.504 136.551 144.174 138.828C144.832 141.06 146.737 142.864 149.019 143.372ZM115.166 102.898C119.989 102.898 119.998 95.4016 115.166 95.4016C110.344 95.4016 110.335 102.898 115.166 102.898Z" fill="url(#paint3_radial_49:6741)"/>
</g>
<path d="M119.83 155.807C119.903 155.766 119.977 155.725 120.051 155.684C120.957 155.174 121.967 155.07 122.91 155.299C122.817 154.443 122.458 153.621 121.815 153.031C120.52 151.841 118.645 151.541 117.083 152.421C117.01 152.462 116.936 152.503 116.863 152.546C114.624 153.809 114.276 157.006 116.058 158.79C116.588 159.32 117.248 159.638 117.94 159.798C117.734 158.26 118.377 156.627 119.83 155.807Z" fill="url(#paint4_radial_49:6741)"/>
<path d="M67.2683 128.348C67.7831 128.999 68.3886 129.557 69.0353 130.072C68.5011 129.378 67.9777 128.675 67.476 127.959C64.3249 123.445 66.8228 117.193 71.0055 114.496C73.0968 113.149 76.2327 112.857 78.5878 113.504C79.8054 113.839 80.8392 114.403 81.7605 115.113C81.6761 114.994 81.5853 114.881 81.5031 114.762C80.0109 112.626 78.2072 110.952 75.6228 110.24C73.2676 109.591 70.1317 109.883 68.0404 111.233C63.8578 113.93 61.3577 120.182 64.5109 124.696C65.3825 125.946 66.3211 127.154 67.2683 128.348Z" fill="url(#paint5_radial_49:6741)"/>
<path d="M86.0492 74.5334C86.0319 74.3841 85.9865 74.2457 85.9865 74.0922C85.9865 71.5986 88.4368 69.8274 90.7163 70.3745C90.5865 69.3018 90.0286 68.2745 88.984 67.6495C88.9148 67.6084 88.8477 67.5673 88.7785 67.5263C86.2806 66.0275 83.0215 67.9545 83.0215 70.8308C83.0193 72.6951 84.3991 74.1441 86.0492 74.5334Z" fill="url(#paint6_radial_49:6741)"/>
<path d="M114.547 102.834C114.35 100.83 115.54 98.6627 118.133 98.6627C118.353 98.6627 118.552 98.6951 118.754 98.7232C118.585 97.0017 117.4 95.3992 115.168 95.3992C110.563 95.3992 110.356 102.212 114.547 102.834Z" fill="url(#paint7_radial_49:6741)"/>
<path d="M99.5324 127.096C100.216 125.186 100.951 123.283 101.868 121.499C102.361 120 103.254 118.707 104.403 117.665C105.034 116.929 105.726 116.237 106.522 115.623C112.184 111.248 119.449 111.417 125.095 115.779C126.304 116.713 127.587 117.758 128.8 118.891C126.983 116.445 124.423 114.289 122.128 112.515C116.481 108.153 109.217 107.987 103.555 112.36C102.759 112.974 102.069 113.668 101.436 114.401C100.287 115.441 99.394 116.735 98.9009 118.236C97.9839 120.02 97.2486 121.925 96.5652 123.835C95.1422 127.812 94.1473 132.607 95.2827 136.729C96.2062 140.081 97.9169 142.479 100.09 144.183C99.3248 142.979 98.6911 141.601 98.25 139.992C97.1124 135.868 98.1072 131.073 99.5324 127.096Z" fill="url(#paint8_radial_49:6741)"/>
<path d="M65.6966 105.135C65.5647 104.705 65.4674 104.262 65.4479 103.799C65.3289 101.136 67.7987 98.8699 70.3767 98.8699C70.9909 98.8699 71.5618 98.9975 72.0895 99.1987C71.4666 97.1571 69.6932 95.6064 67.4094 95.6064C64.8315 95.6064 62.3617 97.8729 62.4807 100.535C62.5737 102.614 63.841 104.426 65.6966 105.135Z" fill="url(#paint9_radial_49:6741)"/>
<path d="M92.9586 163.852C92.7964 161.908 93.9621 159.83 96.4751 159.83C96.6697 159.83 96.8471 159.86 97.0266 159.884C96.8838 158.173 95.7225 156.566 93.5101 156.566C88.9814 156.566 88.7997 163.295 92.9586 163.852Z" fill="url(#paint10_radial_49:6741)"/>
<path d="M80.7725 101.799C81.0926 102.101 81.4278 102.376 81.763 102.649C78.4476 97.4669 79.0597 90.3149 82.8033 85.4704C84.6848 83.0353 86.9881 81.1667 90.0721 80.4184C91.5167 80.0681 93.1106 79.9145 94.6742 80.027C97.5095 79.5404 100.382 79.9123 103.107 81.5062C103.58 81.7852 104.028 82.0902 104.454 82.4189C103.344 80.6974 101.919 79.296 100.142 78.2427C97.7474 76.8413 95.2387 76.385 92.7408 76.6251C92.5137 76.8651 92.252 77.0814 91.9493 77.2652C91.8801 77.3063 91.813 77.3474 91.7438 77.3885C90.3316 78.2363 88.6944 77.9638 87.5223 77.0706C87.386 77.1008 87.2433 77.1225 87.1092 77.1549C84.023 77.9032 81.7219 79.7718 79.8404 82.2069C75.4718 87.8602 75.3485 96.6602 80.7725 101.799Z" fill="url(#paint11_radial_49:6741)"/>
<path d="M89.7953 144.868C89.8796 144.842 89.9662 144.814 90.0505 144.788C90.4506 144.663 90.8485 144.652 91.2356 144.691C91.2356 144.689 91.2356 144.689 91.2356 144.689C91.2356 142.621 89.1314 140.883 87.0833 141.525C86.9989 141.551 86.9124 141.579 86.8281 141.605C83.7938 142.556 83.7895 146.817 86.8281 147.771C86.9124 147.797 86.9989 147.825 87.0833 147.851C87.2303 147.896 87.3752 147.905 87.5201 147.926C87.5331 146.631 88.2879 145.34 89.7953 144.868Z" fill="url(#paint12_radial_49:6741)"/>
<path d="M164.337 111.095C165.55 109.949 167.049 109.066 168.662 108.629C171.307 107.911 174.332 108.943 175.974 111.142C175.632 110.669 175.26 110.204 174.808 109.726C174.512 109.412 174.19 109.131 173.88 108.833C173.699 108.595 173.508 108.359 173.284 108.128C173.204 108.045 173.111 107.981 173.026 107.903C171.389 105.686 168.35 104.646 165.695 105.366C164.081 105.805 162.583 106.685 161.369 107.831C159.358 109.735 158.577 112.464 158.461 115.156C158.348 117.773 159.259 120.176 160.829 122.209C161.456 123.02 162.198 123.703 163.009 124.279C161.945 122.518 161.335 120.546 161.426 118.42C161.542 115.727 162.323 112.998 164.337 111.095Z" fill="url(#paint13_radial_49:6741)"/>
<path d="M155.742 164.906C155.742 164.908 155.742 164.91 155.742 164.912C155.747 164.958 155.755 165.001 155.762 165.046C155.755 164.997 155.749 164.951 155.742 164.906Z" fill="url(#paint14_radial_49:6741)"/>
<path d="M68.9736 140.724C69.205 139.177 68.3161 137.432 66.2961 137.432C62.678 137.432 62.6715 143.055 66.2961 143.055C66.4 143.055 66.4886 143.036 66.586 143.027C66.759 141.876 67.5613 140.853 68.9736 140.724Z" fill="url(#paint15_radial_49:6741)"/>
<path d="M48.6813 86.5429C48.0671 87.7043 47.866 88.9673 48.1947 90.2627C48.6446 92.034 50.1303 93.5825 51.6507 94.733C51.4431 94.3416 51.2657 93.9415 51.1598 93.5241C50.831 92.2308 51.0322 90.9678 51.6464 89.8042C52.1395 88.8721 53.4587 87.754 54.5314 87.5853C55.5825 87.421 56.4129 87.3453 57.4445 87.5507C57.7127 87.6048 57.9765 87.6848 58.2447 87.741C58.4372 87.78 58.5388 87.8038 58.5972 87.8189C59.0925 87.8794 59.5899 87.9378 60.083 88.0244C60.3728 88.0763 60.6604 88.1736 60.9373 88.3012C60.7534 87.8059 60.5134 87.3258 60.1479 86.85C59.432 85.9244 58.3139 84.9706 57.118 84.7609C56.6249 84.6744 56.1274 84.6181 55.6322 84.5554C55.576 84.5403 55.4722 84.5186 55.2797 84.4776C55.0115 84.4213 54.7477 84.3413 54.4795 84.2872C53.45 84.0818 52.6196 84.1575 51.5663 84.3218C50.4937 84.4948 49.1744 85.6108 48.6813 86.5429Z" fill="url(#paint16_radial_49:6741)"/>
<path d="M162.127 85.4016C161.445 84.3484 160.885 83.1697 160.492 81.831C158.325 74.4822 161.936 65.8466 168.061 61.6272C169.322 60.7578 170.721 60.3469 172.142 60.2755C172.555 60.0225 173.001 59.8257 173.457 59.6462C172.566 58.5064 171.647 57.3883 170.697 56.2983C170.168 56.4951 169.653 56.7222 169.175 57.012C167.752 57.0856 166.355 57.4965 165.094 58.3637C158.969 62.5853 155.358 71.2209 157.525 78.5675C158.396 81.5174 160.04 83.7147 162.127 85.4016Z" fill="url(#paint17_radial_49:6741)"/>
<path d="M186.44 100.484C186.611 100.484 186.763 100.512 186.92 100.531C186.806 98.8336 185.666 97.2202 183.473 97.2202C179.02 97.2202 178.862 103.864 182.993 104.357C182.865 102.473 184.007 100.484 186.44 100.484Z" fill="url(#paint18_radial_49:6741)"/>
<path d="M145.921 132.149C144.141 133.786 143.505 136.548 144.176 138.825C144.669 140.497 145.863 141.931 147.39 142.757C147.297 142.539 147.208 142.318 147.141 142.089C146.471 139.811 147.106 137.048 148.886 135.413C150.848 133.609 153.555 133.3 155.729 134.368C155.588 134.009 155.431 133.654 155.247 133.352C153.194 129.986 148.761 129.539 145.921 132.149Z" fill="url(#paint19_radial_49:6741)"/>
<path d="M61.0795 160.577C61.3196 158.795 61.8689 157.225 62.7707 155.75C63.3698 153.864 64.3992 152.017 65.6687 150.972C67.3946 149.554 68.9539 148.416 71.0884 147.767C72.1871 147.434 73.569 147.242 74.7088 147.211C77.092 147.149 79.5164 147.759 81.5904 148.944C82.0619 149.214 82.4771 149.534 82.8967 149.854C81.8716 148.18 80.4529 146.729 78.6254 145.682C76.6098 144.53 74.2633 143.933 71.9427 143.959C71.7675 145.2 70.8787 146.32 69.2631 146.32C68.1083 146.32 67.3254 145.747 66.908 144.971C65.366 145.639 64.0813 146.58 62.7037 147.711C61.4342 148.756 60.4048 150.605 59.8057 152.488C58.9017 153.963 58.3524 155.533 58.1145 157.316C57.6322 160.899 58.5427 164.734 61.2417 167.333C61.6288 167.705 62.0571 168.068 62.5004 168.412C61.1401 166.072 60.7205 163.256 61.0795 160.577Z" fill="url(#paint20_radial_49:6741)"/>
<path d="M84.4224 186.392C84.3186 184.08 85.5297 181.442 87.1387 179.833C88.8213 178.15 91.3192 177.114 93.6982 177.114C95.6013 177.114 97.3423 177.72 98.8648 178.736C98.4561 177.94 97.9652 177.188 97.2926 176.569C95.4781 174.902 93.2462 173.851 90.7331 173.851C88.3542 173.851 85.8541 174.887 84.1737 176.569C82.5647 178.178 81.3536 180.819 81.4574 183.129C81.4985 184.024 81.6715 184.921 81.918 185.795C82.7528 186.098 83.6028 186.366 84.4505 186.643C84.444 186.559 84.4246 186.476 84.4224 186.392Z" fill="url(#paint21_radial_49:6741)"/>
<path d="M31.9543 122.473C32.8886 121.459 33.9656 120.555 35.2286 119.83C35.4059 119.729 35.5854 119.675 35.7649 119.588C37.6205 118.249 39.7702 117.339 41.9437 117.047C45.7284 116.539 49.1714 117.598 51.8532 119.731C49.0655 115.52 44.3724 113.061 38.9787 113.786C36.8052 114.077 34.6555 114.988 32.7999 116.327C32.6204 116.413 32.4409 116.467 32.2636 116.569C31.0006 117.293 29.9235 118.197 28.9893 119.212C30.3236 130.38 33.9223 140.847 39.3204 150.149C39.7248 150.199 40.1292 150.194 40.5337 150.212C36.1088 141.732 33.1373 132.38 31.9543 122.473Z" fill="url(#paint22_radial_49:6741)"/>
<path d="M35.9325 85.8924C37.987 85.7151 39.9183 86.2731 41.5554 87.3847C41.1661 86.7748 40.7466 86.1736 40.2773 85.5702C38.3698 83.5113 35.7789 82.3867 32.9652 82.6289C30.4219 89.8739 28.8648 97.5839 28.4863 105.605C29.466 106.079 30.5193 106.393 31.6071 106.509C32.1586 99.3357 33.64 92.4259 35.9325 85.8924Z" fill="url(#paint23_radial_49:6741)"/>
<path d="M104.428 171.275C104.309 168.606 106.407 166.178 108.864 165.449C108.965 165.418 109.069 165.388 109.171 165.358C110.678 164.91 112.218 165.152 113.533 165.836C112.404 163.011 109.231 161.197 106.204 162.094C106.102 162.125 105.998 162.155 105.897 162.185C103.44 162.912 101.342 165.343 101.461 168.012C101.567 170.356 102.843 172.423 104.9 173.442C104.631 172.763 104.463 172.036 104.428 171.275Z" fill="url(#paint24_radial_49:6741)"/>
<path d="M171.641 142.748C171.667 142.724 171.682 142.713 171.708 142.693C171.862 142.386 172.011 142.079 172.169 141.781C174.022 138.284 176.769 136.359 180.173 135.446C182.329 134.573 184.561 134.054 186.73 134.222C186.966 133.485 187.215 132.754 187.429 132.01C184.198 130.295 180.61 130.805 177.208 132.185C173.804 133.1 171.057 135.022 169.204 138.52C169.046 138.818 168.897 139.127 168.743 139.432C168.719 139.454 168.702 139.465 168.676 139.486C163.927 143.678 164.037 151.468 167.681 156.186C168.321 157.015 169.087 157.761 169.939 158.414C167.013 153.654 167.225 146.645 171.641 142.748Z" fill="url(#paint25_radial_49:6741)"/>
<path d="M133.537 174.796C131.625 170.265 132.382 165.704 134.954 161.871C134.906 161.934 134.858 161.995 134.811 162.057C134.863 161.986 134.915 161.923 134.967 161.852C135.44 161.147 135.955 160.459 136.55 159.808C136.42 159.975 136.29 160.143 136.163 160.31C137.257 158.971 138.416 157.821 140.06 156.856C143.522 154.825 147.56 154.823 151.057 156.742C151.152 156.752 151.249 156.763 151.345 156.776C153.15 156.806 155.025 157.291 156.516 157.92C157.521 158.344 158.408 158.857 159.219 159.467C159.02 159.164 158.845 158.85 158.622 158.562C157.238 156.772 155.633 155.537 153.55 154.657C152.06 154.027 150.188 153.543 148.38 153.513C148.287 153.5 148.187 153.489 148.092 153.478C144.593 151.562 140.557 151.562 137.095 153.593C135.451 154.557 134.292 155.708 133.197 157.046C133.327 156.88 133.455 156.711 133.585 156.545C132.99 157.196 132.477 157.883 132.004 158.588C131.952 158.66 131.9 158.723 131.848 158.794C131.896 158.733 131.943 158.671 131.991 158.608C129.419 162.442 128.66 167.001 130.574 171.532C131.556 173.859 133.072 175.825 134.951 177.369C134.409 176.565 133.924 175.713 133.537 174.796Z" fill="url(#paint26_radial_49:6741)"/>
<path d="M117.041 189.602C116.894 186.313 119.945 183.51 123.131 183.51C124.098 183.51 124.982 183.752 125.772 184.148C124.87 181.894 122.783 180.246 120.164 180.246C116.978 180.246 113.924 183.047 114.074 186.336C114.143 187.865 114.738 189.271 115.68 190.355C116.165 190.318 116.639 190.249 117.119 190.203C117.091 190.004 117.049 189.808 117.041 189.602Z" fill="url(#paint27_radial_49:6741)"/>
<path d="M52.5036 74.909C51.9153 73.9574 51.4525 72.9301 51.1562 71.8574C50.635 69.9651 50.7107 68.0295 51.0221 66.1241C51.0416 65.0255 51.1779 63.9333 51.4093 62.9234C52.0948 59.9172 54.3094 57.4993 56.829 55.8752C57.002 55.7649 57.1923 55.674 57.3761 55.5746C57.4778 55.514 57.5729 55.4383 57.6767 55.3799C61.0008 53.5416 64.7509 53.6952 67.7289 55.3367C68.5247 55.713 69.2622 56.1909 69.9262 56.7986C69.9543 56.8159 69.9781 56.8397 70.004 56.857C70.0019 56.8527 69.9997 56.8484 69.9954 56.844C69.2536 55.4707 68.2414 54.3678 66.959 53.5351C66.2972 52.9296 65.5597 52.4516 64.7617 52.0732C61.7837 50.4317 58.0357 50.2781 54.7095 52.1164C54.6057 52.1748 54.5127 52.2505 54.4089 52.3111C54.2251 52.4105 54.0326 52.5014 53.8617 52.6117C51.3444 54.2358 49.1276 56.6516 48.4421 59.6599C48.2128 60.6698 48.0744 61.7598 48.0571 62.8606C47.7457 64.766 47.67 66.7016 48.1912 68.5939C48.8768 71.0875 50.4425 73.341 52.5036 74.909Z" fill="url(#paint28_radial_49:6741)"/>
<path d="M41.3041 86.8475C40.9949 86.3911 40.6532 85.9759 40.292 85.5823C40.7505 86.177 41.209 86.7696 41.6696 87.3643C41.542 87.1978 41.4209 87.0248 41.3041 86.8475Z" fill="url(#paint29_radial_49:6741)"/>
<path d="M128.461 60.1318C128.469 60.2031 128.487 60.2745 128.497 60.3459C128.83 62.8135 130.42 65.1319 132.453 66.5268C131.949 65.6142 131.601 64.6237 131.462 63.6094C131.454 63.538 131.434 63.4666 131.428 63.3953C131.337 62.9 131.272 62.3939 131.225 61.8533C131.188 61.4207 131.183 61.0012 131.22 60.5686C131.322 59.3835 131.525 58.0621 131.971 56.8661C131.86 53.2566 133.359 49.7985 136.694 47.8477C136.746 47.8174 136.798 47.7872 136.85 47.7569C139.795 46.0354 144.086 45.7715 147.008 47.7569C147.503 48.0943 147.966 48.4511 148.411 48.8188C147.306 47.1232 145.84 45.7175 144.041 44.4934C141.121 42.508 136.828 42.7719 133.883 44.4934C133.831 44.5237 133.779 44.5539 133.727 44.5842C130.392 46.5328 128.893 49.9931 129.003 53.6026C128.558 54.7964 128.355 56.1178 128.253 57.303C128.216 57.7355 128.221 58.1551 128.257 58.5876C128.303 59.1304 128.368 59.6365 128.461 60.1318Z" fill="url(#paint30_radial_49:6741)"/>
<path d="M114.103 70.4865C112.838 71.3018 111.78 72.3594 110.965 73.6245C109.741 75.5234 109.548 78.2289 110.083 80.3635C110.708 82.8527 112.239 85.4285 114.419 86.9186C113.798 85.8718 113.329 84.7429 113.048 83.627C112.511 81.4924 112.704 78.7869 113.93 76.888C114.745 75.6229 115.803 74.5653 117.068 73.75C118.697 72.6989 120.781 72.461 122.646 72.7119C123.809 72.7638 124.895 73.1098 125.898 73.75C126.456 74.1804 127.012 74.6107 127.57 75.0411C127.213 74.4377 126.811 73.856 126.311 73.3261C125.987 72.9844 125.615 72.6859 125.241 72.3897C125.053 72.221 124.869 72.0523 124.705 71.8555C124.114 71.3991 123.524 70.9428 122.935 70.4887C121.932 69.8507 120.848 69.5046 119.683 69.4506C117.816 69.1975 115.732 69.4354 114.103 70.4865Z" fill="url(#paint31_radial_49:6741)"/>
<path d="M150.605 76.7617C149.578 75.8382 148.198 75.516 146.905 76.0609C145.717 76.5627 144.762 77.8127 144.822 79.1557C144.904 81.0027 146.254 82.2419 147.794 82.4452C147.794 82.4344 147.789 82.4279 147.789 82.4171C147.729 81.0719 148.685 79.8219 149.872 79.3201C150.471 79.0671 151.085 79.0195 151.678 79.1125C151.667 78.2734 151.362 77.4364 150.752 76.8893C150.702 76.8503 150.655 76.8071 150.605 76.7617Z" fill="url(#paint32_radial_49:6741)"/>
<path d="M144.044 123.296C144.059 123.296 144.072 123.292 144.087 123.292C144.178 121.858 145.134 120.493 146.97 120.471C147.072 118.878 146.105 117.204 144.046 117.204C140.125 117.206 140.119 123.296 144.044 123.296Z" fill="url(#paint33_radial_49:6741)"/>
<path d="M80.9415 57.8216C80.6928 57.4972 80.4419 57.175 80.2148 56.8398C75.6732 52.3652 74.8795 45.516 76.9686 39.8194C87.6912 34.5922 99.7331 31.651 112.465 31.651C113.14 31.651 113.808 31.6856 114.478 31.7029C115.01 32.0987 115.525 32.5182 116.022 32.9594C114.779 31.2444 113.239 29.7219 111.513 28.4416C110.843 28.4243 110.175 28.3896 109.5 28.3896C96.768 28.3896 84.7262 31.3309 74.0036 36.5581C71.9145 42.2546 72.7082 49.1038 77.2498 53.5806C78.2922 55.1118 79.5617 56.5348 80.9415 57.8216Z" fill="url(#paint34_radial_49:6741)"/>
<path d="M40.1865 85.4475C40.219 85.4886 40.2449 85.5297 40.2774 85.5686C40.2817 85.573 40.286 85.5773 40.2903 85.5816C40.2557 85.5383 40.2211 85.4929 40.1865 85.4475Z" fill="url(#paint35_radial_49:6741)"/>
<path d="M133.095 100.464C133.973 97.1247 135.749 94.7652 138.564 92.8253C141.91 90.5198 146.315 91.2011 149.473 93.4611C149.417 93.3616 149.369 93.2556 149.309 93.1562C146.64 88.794 140.139 86.4324 135.597 89.5618C132.781 91.5017 131.006 93.8612 130.128 97.2004C129.449 99.7869 129.455 102.404 130.37 104.919C131.19 107.177 132.483 109.086 134.349 110.367C133.956 109.686 133.618 108.955 133.337 108.182C132.422 105.669 132.414 103.05 133.095 100.464Z" fill="url(#paint36_radial_49:6741)"/>
<path d="M84.5424 130.603C85.3751 129.524 85.7319 128.469 85.9093 127.158C85.9741 126.678 85.9849 126.231 85.9568 125.802C86.1428 123.482 85.4681 121.258 84.3694 119.163C84.4646 119.866 84.5122 120.575 84.4559 121.297C84.484 121.726 84.4711 122.173 84.4083 122.653C84.231 123.964 83.8742 125.022 83.0415 126.101C81.8153 127.688 80.1457 128.525 78.3355 128.741C75.3359 129.477 71.8561 128.614 69.3928 126.92C68.0801 126.016 66.7608 125.097 65.7682 123.845C64.8533 122.692 63.9493 121.522 63.1016 120.318C63.1383 121.838 63.5665 123.345 64.5116 124.697C65.3854 125.947 66.324 127.156 67.2712 128.35C68.2639 129.602 69.5853 130.521 70.8959 131.425C73.3592 133.121 76.8389 133.984 79.8386 133.246C81.6466 133.028 83.3162 132.191 84.5424 130.603Z" fill="url(#paint37_radial_49:6741)"/>
<path d="M70.7634 96.9871C70.3438 99.2146 68.1681 100.962 65.9038 100.962C64.5694 100.962 63.4102 100.428 62.5473 99.5823C62.4889 99.8915 62.463 100.212 62.4759 100.538C62.5949 103.209 64.6429 105.467 67.4047 105.467C69.9826 105.467 72.4546 103.2 72.3335 100.538C72.2729 99.1541 71.689 97.8911 70.7634 96.9871Z" fill="url(#paint38_radial_49:6741)"/>
<path d="M66.9508 137.499C66.5031 138.116 65.7916 138.548 64.7967 138.548C64.5632 138.548 64.3469 138.524 64.1436 138.479C63.5662 139.273 63.4342 140.376 63.7651 141.306C64.6367 140.765 65.558 140.319 66.622 139.995C67.3206 139.783 68.1338 139.636 68.9275 139.543C68.7134 138.583 68.0602 137.737 66.9508 137.499Z" fill="url(#paint39_radial_49:6741)"/>
<path d="M95.3378 157.044C94.9009 158.35 93.7914 159.399 92.0072 159.399C91.2806 159.399 90.6815 159.211 90.1776 158.919C89.4596 161.067 90.5669 163.904 93.5081 163.904C97.5069 163.904 98.1125 158.658 95.3378 157.044Z" fill="url(#paint40_radial_49:6741)"/>
<path d="M59.688 94.5086C60.2612 93.9528 60.685 93.3191 60.9943 92.5903C61.2517 91.9826 61.4139 91.3294 61.4203 90.659C61.4268 90.1962 61.07 87.6226 61.3966 90.3843C61.2387 89.05 60.9921 87.9492 60.1444 86.8505C60.0643 86.7467 59.9627 86.6451 59.8719 86.5413C59.8178 87.0733 59.6989 87.5945 59.4912 88.0833C59.1841 88.8121 58.7602 89.4479 58.185 90.0016C56.3856 91.7404 53.2995 92.3351 51.1173 90.9142C50.0814 90.2394 48.9676 89.3441 48.0939 88.3039C47.9987 88.9418 48.0247 89.5971 48.1934 90.2611C48.7384 92.4108 50.8124 94.2426 52.6204 95.4212C54.8025 96.8421 57.8887 96.2474 59.688 94.5086Z" fill="url(#paint41_radial_49:6741)"/>
<path d="M104.995 84.8213C104.744 86.692 104.588 88.2665 103.853 90.0118C103.344 91.2142 103.366 91.1774 102.979 91.876C102.78 92.235 102.588 92.5875 102.41 92.9573C101.671 94.5037 100.747 95.8791 99.5533 97.153C97.2954 99.5622 94.4277 100.907 91.2226 101.338C86.6961 101.945 82.5567 100.408 79.2694 97.2957C78.266 96.3441 77.455 95.2671 76.8213 94.1101C77.2711 96.9756 78.5471 99.6963 80.7704 101.803C84.0576 104.915 88.197 106.455 92.7235 105.845C95.9286 105.414 98.7963 104.069 101.054 101.66C102.248 100.384 103.171 99.0107 103.911 97.4644C104.088 97.0946 104.281 96.7399 104.48 96.383C104.867 95.6845 104.845 95.7212 105.354 94.5188C106.089 92.7757 106.245 91.1991 106.495 89.3284C106.489 87.1159 105.94 85.0527 104.88 83.1279C104.953 83.6816 104.992 84.246 104.995 84.8213Z" fill="url(#paint42_radial_49:6741)"/>
<path d="M86.8262 147.77C86.9106 147.796 86.9971 147.824 87.0814 147.85C89.1316 148.492 91.2338 146.756 91.2338 144.688C91.2338 143.408 90.4228 142.255 89.322 141.715C88.6148 142.999 87.0857 143.817 85.5805 143.345C85.4962 143.319 85.4097 143.291 85.3253 143.265C85.1977 143.226 85.109 143.148 84.9944 143.099C84.0688 144.74 84.6592 147.091 86.8262 147.77Z" fill="url(#paint43_radial_49:6741)"/>
<path d="M115.165 102.896C119.224 102.896 119.86 97.5991 117.081 95.9187C116.65 97.2812 115.515 98.3906 113.662 98.3906C112.896 98.3906 112.267 98.1874 111.745 97.8716C111.058 100.056 112.191 102.896 115.165 102.896Z" fill="url(#paint44_radial_49:6741)"/>
<path d="M185.71 81.7496C185.712 81.7561 185.715 81.7647 185.717 81.7712C182.568 85.2337 177.626 87.0612 172.377 85.8544C166.356 84.4703 160.098 82.26 157.115 76.7322C157.217 77.3507 157.342 77.9649 157.52 78.5683C159.743 86.1009 166.968 88.7718 173.878 90.3614C179.125 91.5682 184.067 89.7407 187.215 86.2783C186.761 84.7471 186.253 83.2419 185.71 81.7496Z" fill="url(#paint45_radial_49:6741)"/>
<path d="M151.293 157.276C151.286 157.23 151.28 157.183 151.273 157.137C151.273 157.139 151.273 157.142 151.273 157.144C151.28 157.187 151.289 157.23 151.293 157.276Z" fill="url(#paint46_radial_49:6741)"/>
<path d="M185.208 97.6589C184.767 98.9068 183.688 99.8995 181.971 99.8995C181.287 99.8995 180.716 99.7286 180.234 99.4626C179.488 101.571 180.563 104.407 183.472 104.407C187.412 104.407 187.987 99.2009 185.208 97.6589Z" fill="url(#paint47_radial_49:6741)"/>
<path d="M53.8341 75.7978C59.6971 79.0721 67.366 76.9505 70.7917 71.1999C73.1555 67.2336 73.002 62.2031 70.8328 58.2195C71.274 61.111 70.822 64.1258 69.2908 66.695C65.8651 72.4456 58.1962 74.5694 52.3332 71.2929C50.4971 70.2678 48.9572 68.7085 47.8867 66.881C47.9451 67.4563 48.0338 68.0273 48.1917 68.596C49.0178 71.6043 51.1156 74.2774 53.8341 75.7978Z" fill="url(#paint48_radial_49:6741)"/>
<path d="M137.108 111.66C140.614 112.626 143.845 111.478 146.498 109.177C150.845 105.409 152.364 98.186 149.316 93.1772C149.805 97.3837 148.151 101.936 144.995 104.67C142.342 106.969 139.111 108.117 135.605 107.153C132.915 106.411 131.042 104.685 129.785 102.425C129.898 103.264 130.066 104.097 130.365 104.918C131.543 108.156 133.663 110.71 137.108 111.66Z" fill="url(#paint49_radial_49:6741)"/>
<path d="M90.2063 72.2625C90.295 72.2474 90.3837 72.2409 90.4702 72.2279C91.1147 70.6297 90.6389 68.653 88.9931 67.656C88.7141 68.387 88.2297 69.0509 87.4792 69.5008C87.41 69.5419 87.3429 69.583 87.2737 69.624C85.961 70.4113 84.4471 70.2382 83.2987 69.4921C83.1365 69.9074 83.0176 70.3464 83.0176 70.8265C83.0176 71.7565 83.3809 72.5653 83.9259 73.2141C84.4622 72.9935 85.0137 72.7967 85.6041 72.654C87.0488 72.3015 88.6427 72.1479 90.2063 72.2625Z" fill="url(#paint50_radial_49:6741)"/>
<path d="M125.511 80.6552C124.285 82.2426 122.727 83.2721 120.829 83.8863C118.504 84.6389 115.98 84.0095 113.882 82.9779C112.208 82.154 110.843 80.7006 109.879 79.0354C109.926 79.4895 109.978 79.9415 110.084 80.3633C110.798 83.205 112.693 86.1614 115.385 87.485C117.483 88.5166 120.007 89.1459 122.332 88.3933C124.233 87.7791 125.788 86.7497 127.014 85.1623C129.43 82.035 129.462 77.8675 127.366 74.6667C127.487 76.7537 126.886 78.8732 125.511 80.6552Z" fill="url(#paint51_radial_49:6741)"/>
<path d="M117.618 37.7924C117.562 42.1632 115.923 45.9198 114.037 49.8062C112.166 53.6622 109.3 56.9776 105.507 59.0408C99.192 62.4752 92.2692 61.2554 86.1856 58.1022C82.429 56.1558 78.3805 52.9485 75.7441 49.073C74.6606 48.0046 73.8042 46.7957 73.1338 45.5046C73.6355 48.4956 74.9699 51.3373 77.245 53.5801C79.8814 57.4556 83.9299 60.6628 87.6865 62.6093C93.7701 65.7625 100.693 66.9822 107.008 63.5479C110.801 61.4847 113.667 58.1693 115.538 54.3132C117.423 50.4269 119.063 46.6703 119.119 42.2995C119.151 39.7367 118.498 37.375 117.404 35.2405C117.54 36.0688 117.631 36.9144 117.618 37.7924Z" fill="url(#paint52_radial_49:6741)"/>
<path d="M124.126 184.497C120.878 185.152 117.554 185.593 114.176 185.849C114.152 185.823 114.134 185.79 114.113 185.762C114.1 185.955 114.061 186.141 114.07 186.335C114.139 187.864 114.734 189.27 115.676 190.353C119.052 190.098 122.379 189.657 125.627 189.002C126.047 188.186 126.295 187.287 126.252 186.335C126.185 184.856 125.621 183.496 124.732 182.425C124.675 183.16 124.457 183.855 124.126 184.497Z" fill="url(#paint53_radial_49:6741)"/>
<path d="M131.195 132.084C132.231 128.599 132.073 124.821 130.131 121.03C130.494 123.277 130.315 125.481 129.692 127.579C130.367 133.848 125.92 140.604 119.741 142.056C110.896 144.132 99.4705 144.086 94.9678 135.23C95.0456 135.736 95.1451 136.236 95.2814 136.727C98.5513 148.598 111.484 148.853 121.244 146.563C127.423 145.112 131.867 138.353 131.195 132.084Z" fill="url(#paint54_radial_49:6741)"/>
<path d="M121.215 152.578C121.137 152.814 121.044 153.045 120.923 153.259C120.882 153.333 120.841 153.406 120.8 153.48C119.66 155.5 116.954 155.962 115.125 154.73C114.69 156.105 114.973 157.708 116.057 158.791C117.837 160.571 121.038 160.225 122.301 157.987C122.342 157.913 122.383 157.84 122.426 157.766C123.248 156.308 123.097 154.211 121.816 153.034C121.628 152.859 121.425 152.712 121.215 152.578Z" fill="url(#paint55_radial_49:6741)"/>
<path d="M159.839 161.736C159.839 163.994 159.075 166.133 158.106 168.136C157.927 168.506 157.715 168.878 157.479 169.243C154.175 171.793 150.675 174.101 146.994 176.123C144.36 176.644 141.486 176.572 138.971 175.813C134.903 174.583 131.57 171.882 129.626 168.173C129.786 169.286 130.093 170.411 130.567 171.531C132.386 175.839 135.991 178.967 140.472 180.32C142.987 181.08 145.861 181.151 148.495 180.63C152.176 178.608 155.676 176.3 158.98 173.75C159.216 173.385 159.428 173.013 159.607 172.643C160.574 170.64 161.34 168.501 161.34 166.244C161.34 164.089 160.741 162.037 159.7 160.203C159.767 160.707 159.839 161.215 159.839 161.736Z" fill="url(#paint56_radial_49:6741)"/>
<path d="M184.788 131.091C181.734 140.079 177.158 148.358 171.349 155.618C169.307 154.729 167.482 153.367 166.176 151.676C165.799 151.189 165.471 150.661 165.17 150.116C165.494 152.331 166.346 154.459 167.676 156.181C168.983 157.872 170.808 159.234 172.85 160.125C179.426 151.907 184.431 142.385 187.424 132.004C186.568 131.548 185.683 131.26 184.788 131.091Z" fill="url(#paint57_radial_49:6741)"/>
<path d="M176.913 121.824C178.31 119.438 178.353 116.85 177.505 114.389C177.572 114.546 177.639 114.704 177.704 114.862C177.616 114.646 177.564 114.427 177.494 114.205C177.22 113.325 176.889 112.585 176.48 111.893C176.725 113.725 176.433 115.576 175.412 117.319C173.809 120.057 170.946 121.579 167.819 121.675C164.49 121.776 161.354 120.325 159.33 117.706C159.032 117.321 158.783 116.91 158.534 116.497C158.727 118.593 159.535 120.533 160.833 122.211C162.857 124.83 165.995 126.281 169.322 126.18C172.447 126.084 175.31 124.562 176.913 121.824Z" fill="url(#paint58_radial_49:6741)"/>
<path d="M113.752 166.381C113.497 165.503 113.032 164.72 112.444 164.047C112.409 164.415 112.353 164.78 112.251 165.137C111.341 168.277 107.913 170.375 104.704 169.424C104.602 169.393 104.498 169.363 104.396 169.333C103.213 168.982 102.238 168.305 101.494 167.436C101.479 167.629 101.453 167.817 101.462 168.011C101.583 170.715 103.259 173.055 105.897 173.838C105.999 173.868 106.103 173.898 106.204 173.928C109.414 174.88 112.844 172.782 113.752 169.642C114.061 168.576 114.061 167.447 113.752 166.381Z" fill="url(#paint59_radial_49:6741)"/>
<path d="M98.5079 178.623C98.6117 180.935 97.3984 183.573 95.7894 185.182C95.7872 185.185 95.7829 185.187 95.7807 185.189C90.8801 184.449 86.133 183.249 81.5589 181.67C81.4767 182.161 81.4313 182.652 81.4508 183.126C81.4919 184.021 81.6649 184.919 81.9114 185.792C86.8315 187.572 91.9701 188.891 97.2795 189.694C97.2816 189.692 97.2838 189.689 97.2881 189.687C98.8971 188.078 100.108 185.438 100.004 183.128C99.9223 181.305 99.44 179.434 98.417 177.905C98.4473 178.145 98.4949 178.383 98.5079 178.623Z" fill="url(#paint60_radial_49:6741)"/>
<path d="M145.067 117.38C144.606 118.195 143.765 118.79 142.541 118.79C142.158 118.79 141.825 118.719 141.518 118.613C140.503 120.412 141.343 123.295 144.044 123.295C147.582 123.295 147.919 118.347 145.067 117.38Z" fill="url(#paint61_radial_49:6741)"/>
<path d="M154.512 134.544C153.828 137.68 150.779 139.591 147.515 138.865C146.11 138.551 144.851 137.744 143.936 136.652C143.902 137.392 143.971 138.132 144.176 138.828C144.834 141.06 146.737 142.861 149.019 143.37C152.282 144.096 155.334 142.184 156.017 139.048C156.14 138.452 156.315 138.231 156.326 137.182C156.337 136.209 156.129 135.476 155.822 134.702C155.883 134.846 155.943 134.989 156.004 135.134C155.818 134.55 155.565 133.873 155.245 133.352C155.119 133.144 154.959 132.984 154.815 132.798C154.789 133.726 154.629 133.975 154.512 134.544Z" fill="url(#paint62_radial_49:6741)"/>
<path d="M147.146 57.9936C145.076 61.3112 141.06 64.114 137.001 63.9064C135.104 63.8091 133.203 63.3571 131.54 62.4077C130.288 61.6918 129.178 60.6148 128.354 59.354C128.389 59.6113 128.411 59.8817 128.456 60.1325C128.465 60.2039 128.482 60.2753 128.493 60.3466C128.858 63.05 130.729 65.5912 133.043 66.9147C134.704 67.8641 136.607 68.3183 138.504 68.4135C142.561 68.6211 146.579 65.8182 148.649 62.5007C150.436 59.6373 151.028 55.8677 150.111 52.5934C149.815 51.5359 149.408 50.5778 148.922 49.6868C149.294 52.5415 148.649 55.5844 147.146 57.9936Z" fill="url(#paint63_radial_49:6741)"/>
<path d="M149.245 76.9145C149.197 76.9577 149.147 77.001 149.1 77.0464C147.925 78.104 146.42 78.1861 145.235 77.6044C144.971 78.0802 144.794 78.6035 144.818 79.155C144.952 82.1395 148.382 83.5453 150.601 81.5513C150.648 81.508 150.698 81.4626 150.748 81.4193C151.987 80.3056 151.985 78.0045 150.748 76.8907C150.698 76.8474 150.65 76.8042 150.601 76.7588C150.348 76.5317 150.073 76.3414 149.783 76.1921C149.64 76.4603 149.472 76.7112 149.245 76.9145Z" fill="url(#paint64_radial_49:6741)"/>
<path d="M84.4184 160.141C85.2403 156.733 84.7796 153.165 83.1316 150.239C83.3933 152.008 83.3501 153.839 82.9175 155.637C81.3712 162.049 75.4822 166.521 68.9661 166.662C66.8769 166.707 64.3595 166.02 62.5602 164.973C61.5675 164.395 60.5705 163.623 59.7422 162.825C59.0956 162.203 58.5571 161.504 58.1094 160.76C58.4122 163.21 59.4027 165.559 61.2431 167.332C62.0714 168.13 63.0684 168.9 64.0611 169.48C65.8604 170.527 68.38 171.214 70.467 171.169C76.981 171.024 82.8721 166.554 84.4184 160.141Z" fill="url(#paint65_radial_49:6741)"/>
<path d="M41.9361 91.5072C41.8344 97.4178 37.1868 101.791 31.393 102.05C30.4955 102.091 29.6174 101.972 28.7718 101.747C28.6507 103.026 28.5469 104.31 28.4863 105.604C29.8488 106.263 31.3476 106.624 32.896 106.555C38.6899 106.296 43.3375 101.925 43.4391 96.012C43.4694 94.2235 43.6424 92.967 43.1753 91.0335C42.9028 89.9024 42.4659 88.9119 41.9231 87.969C42.0507 89.1779 41.9577 90.2031 41.9361 91.5072Z" fill="url(#paint66_radial_49:6741)"/>
<path d="M52.9409 121.672C54.2904 127.072 54.7035 133.779 52.1753 138.385C49.1886 143.827 43.4424 146.327 37.8172 145.641C35.4685 141.595 33.4832 137.315 31.8525 132.864C33.6822 138.954 36.1866 144.752 39.3181 150.148C44.9433 150.834 50.6895 148.336 53.6762 142.892C56.6672 137.44 55.5599 129.032 53.6286 123.35C53.4318 122.769 53.1961 122.213 52.9409 121.672Z" fill="url(#paint67_radial_49:6741)"/>
<g style="mix-blend-mode:multiply" opacity="0.5">
<path d="M163.074 48.6228C167.529 57.9115 170.027 68.3162 170.027 79.3048C170.027 118.545 138.218 150.353 98.9787 150.353C65.1478 150.353 36.8599 126.7 29.6993 95.0362C28.8536 99.7314 28.3887 104.561 28.3887 109.5C28.3887 154.298 64.7045 190.612 109.5 190.612C154.298 190.612 190.612 154.296 190.612 109.5C190.614 85.2414 179.952 63.4869 163.074 48.6228Z" fill="url(#paint68_radial_49:6741)"/>
</g>
<g style="mix-blend-mode:multiply" opacity="0.5">
<path d="M189.694 92.2045C187.703 102.311 183.474 112.142 176.898 120.944C153.411 152.377 108.89 158.82 77.4575 135.333C50.3569 115.084 41.8532 79.2024 55.0715 49.552C51.5831 52.8068 48.3196 56.3969 45.3632 60.3546C18.5481 96.2379 25.9012 147.067 61.7866 173.88C97.6721 200.693 148.502 193.34 175.315 157.455C189.835 138.023 194.316 114.214 189.694 92.2045Z" fill="url(#paint69_radial_49:6741)"/>
</g>
<g style="mix-blend-mode:color-dodge" opacity="0.5">
<path d="M112.152 121.702C136.789 121.702 156.761 101.729 156.761 77.0921C156.761 52.4549 136.789 32.4824 112.152 32.4824C87.5144 32.4824 67.542 52.4549 67.542 77.0921C67.542 101.729 87.5144 121.702 112.152 121.702Z" fill="url(#paint70_radial_49:6741)"/>
</g>
</g>
<defs>
<radialGradient id="paint0_radial_49:6741" cx="0" cy="0" r="1" gradientUnits="userSpaceOnUse" gradientTransform="translate(111.51 113.374) scale(124.405)">
<stop offset="0.0815" stop-color="#DFAB45"/>
<stop offset="0.8519" stop-color="#DFAB45" stop-opacity="0"/>
</radialGradient>
<radialGradient id="paint1_radial_49:6741" cx="0" cy="0" r="1" gradientUnits="userSpaceOnUse" gradientTransform="translate(107.232 108.717) scale(140.41)">
<stop offset="0.0815" stop-color="#DFAB45"/>
<stop offset="0.8519" stop-color="#DFAB45" stop-opacity="0"/>
</radialGradient>
<radialGradient id="paint2_radial_49:6741" cx="0" cy="0" r="1" gradientUnits="userSpaceOnUse" gradientTransform="translate(98.9479 63.0718) scale(183.48)">
<stop offset="0.0815" stop-color="#DFAB45"/>
<stop offset="1" stop-color="#E64A24"/>
</radialGradient>
<radialGradient id="paint3_radial_49:6741" cx="0" cy="0" r="1" gradientUnits="userSpaceOnUse" gradientTransform="translate(95.5586 41.7975) scale(169.177)">
<stop offset="0.0815" stop-color="#DFAB45"/>
<stop offset="1" stop-color="#E64A24"/>
</radialGradient>
<radialGradient id="paint4_radial_49:6741" cx="0" cy="0" r="1" gradientUnits="userSpaceOnUse" gradientTransform="translate(118.293 152.565) scale(8.30929)">
<stop offset="0.0815" stop-color="#DFAB45"/>
<stop offset="1" stop-color="#E64A24"/>
</radialGradient>
<radialGradient id="paint5_radial_49:6741" cx="0" cy="0" r="1" gradientUnits="userSpaceOnUse" gradientTransform="translate(70.9676 111.579) scale(20.7384)">
<stop offset="0.0815" stop-color="#DFAB45"/>
<stop offset="1" stop-color="#E64A24"/>
</radialGradient>
<radialGradient id="paint6_radial_49:6741" cx="0" cy="0" r="1" gradientUnits="userSpaceOnUse" gradientTransform="translate(86.2679 67.6255) scale(7.95758)">
<stop offset="0.0815" stop-color="#DFAB45"/>
<stop offset="1" stop-color="#E64A24"/>
</radialGradient>
<radialGradient id="paint7_radial_49:6741" cx="0" cy="0" r="1" gradientUnits="userSpaceOnUse" gradientTransform="translate(114.591 96.0147) scale(7.73873)">
<stop offset="0.0815" stop-color="#DFAB45"/>
<stop offset="1" stop-color="#E64A24"/>
</radialGradient>
<radialGradient id="paint8_radial_49:6741" cx="0" cy="0" r="1" gradientUnits="userSpaceOnUse" gradientTransform="translate(109.141 112.059) scale(36.4759)">
<stop offset="0.0815" stop-color="#DFAB45"/>
<stop offset="1" stop-color="#E64A24"/>
</radialGradient>
<radialGradient id="paint9_radial_49:6741" cx="0" cy="0" r="1" gradientUnits="userSpaceOnUse" gradientTransform="translate(66.5333 96.395) scale(10.0323)">
<stop offset="0.0815" stop-color="#DFAB45"/>
<stop offset="1" stop-color="#E64A24"/>
</radialGradient>
<radialGradient id="paint10_radial_49:6741" cx="0" cy="0" r="1" gradientUnits="userSpaceOnUse" gradientTransform="translate(92.9488 157.169) scale(7.58323)">
<stop offset="0.0815" stop-color="#DFAB45"/>
<stop offset="1" stop-color="#E64A24"/>
</radialGradient>
<radialGradient id="paint11_radial_49:6741" cx="0" cy="0" r="1" gradientUnits="userSpaceOnUse" gradientTransform="translate(88.37 78.7283) scale(27.9205)">
<stop offset="0.0815" stop-color="#DFAB45"/>
<stop offset="1" stop-color="#E64A24"/>
</radialGradient>
<radialGradient id="paint12_radial_49:6741" cx="0" cy="0" r="1" gradientUnits="userSpaceOnUse" gradientTransform="translate(87.3735 141.93) scale(6.90849)">
<stop offset="0.0815" stop-color="#DFAB45"/>
<stop offset="1" stop-color="#E64A24"/>
</radialGradient>
<radialGradient id="paint13_radial_49:6741" cx="0" cy="0" r="1" gradientUnits="userSpaceOnUse" gradientTransform="translate(165.845 106.724) scale(19.6303)">
<stop offset="0.0815" stop-color="#DFAB45"/>
<stop offset="1" stop-color="#E64A24"/>
</radialGradient>
<radialGradient id="paint14_radial_49:6741" cx="0" cy="0" r="1" gradientUnits="userSpaceOnUse" gradientTransform="translate(155.751 164.916) scale(0.123841 0.123723)">
<stop offset="0.0815" stop-color="#DFAB45"/>
<stop offset="1" stop-color="#E64A24"/>
</radialGradient>
<radialGradient id="paint15_radial_49:6741" cx="0" cy="0" r="1" gradientUnits="userSpaceOnUse" gradientTransform="translate(65.8727 137.898) scale(5.84684)">
<stop offset="0.0815" stop-color="#DFAB45"/>
<stop offset="1" stop-color="#E64A24"/>
</radialGradient>
<radialGradient id="paint16_radial_49:6741" cx="0" cy="0" r="1" gradientUnits="userSpaceOnUse" gradientTransform="translate(53.481 85.0409) scale(11.8435)">
<stop offset="0.0815" stop-color="#DFAB45"/>
<stop offset="1" stop-color="#E64A24"/>
</radialGradient>
<radialGradient id="paint17_radial_49:6741" cx="0" cy="0" r="1" gradientUnits="userSpaceOnUse" gradientTransform="translate(163.882 58.7054) scale(27.4692)">
<stop offset="0.0815" stop-color="#DFAB45"/>
<stop offset="1" stop-color="#E64A24"/>
</radialGradient>
<radialGradient id="paint18_radial_49:6741" cx="0" cy="0" r="1" gradientUnits="userSpaceOnUse" gradientTransform="translate(182.927 97.8124) scale(7.42729)">
<stop offset="0.0815" stop-color="#DFAB45"/>
<stop offset="1" stop-color="#E64A24"/>
</radialGradient>
<radialGradient id="paint19_radial_49:6741" cx="0" cy="0" r="1" gradientUnits="userSpaceOnUse" gradientTransform="translate(148.901 131.484) scale(12.7655)">
<stop offset="0.0815" stop-color="#DFAB45"/>
<stop offset="1" stop-color="#E64A24"/>
</radialGradient>
<radialGradient id="paint20_radial_49:6741" cx="0" cy="0" r="1" gradientUnits="userSpaceOnUse" gradientTransform="translate(68.5014 145.982) scale(25.8136)">
<stop offset="0.0815" stop-color="#DFAB45"/>
<stop offset="1" stop-color="#E64A24"/>
</radialGradient>
<radialGradient id="paint21_radial_49:6741" cx="0" cy="0" r="1" gradientUnits="userSpaceOnUse" gradientTransform="translate(88.7993 174.91) scale(14.9729)">
<stop offset="0.0815" stop-color="#DFAB45"/>
<stop offset="1" stop-color="#E64A24"/>
</radialGradient>
<radialGradient id="paint22_radial_49:6741" cx="0" cy="0" r="1" gradientUnits="userSpaceOnUse" gradientTransform="translate(38.6359 116.684) scale(34.9033)">
<stop offset="0.0815" stop-color="#DFAB45"/>
<stop offset="1" stop-color="#E64A24"/>
</radialGradient>
<radialGradient id="paint23_radial_49:6741" cx="0" cy="0" r="1" gradientUnits="userSpaceOnUse" gradientTransform="translate(34.0027 84.5775) scale(22.4666)">
<stop offset="0.0815" stop-color="#DFAB45"/>
<stop offset="1" stop-color="#E64A24"/>
</radialGradient>
<radialGradient id="paint24_radial_49:6741" cx="0" cy="0" r="1" gradientUnits="userSpaceOnUse" gradientTransform="translate(106.553 162.822) scale(12.3094)">
<stop offset="0.0815" stop-color="#DFAB45"/>
<stop offset="1" stop-color="#E64A24"/>
</radialGradient>
<radialGradient id="paint25_radial_49:6741" cx="0" cy="0" r="1" gradientUnits="userSpaceOnUse" gradientTransform="translate(174.476 133.196) scale(27.4566)">
<stop offset="0.0815" stop-color="#DFAB45"/>
<stop offset="1" stop-color="#E64A24"/>
</radialGradient>
<radialGradient id="paint26_radial_49:6741" cx="0" cy="0" r="1" gradientUnits="userSpaceOnUse" gradientTransform="translate(142.04 154.149) scale(27.9743)">
<stop offset="0.0815" stop-color="#DFAB45"/>
<stop offset="1" stop-color="#E64A24"/>
</radialGradient>
<radialGradient id="paint27_radial_49:6741" cx="0" cy="0" r="1" gradientUnits="userSpaceOnUse" gradientTransform="translate(119.007 181.084) scale(11.1168)">
<stop offset="0.0815" stop-color="#DFAB45"/>
<stop offset="1" stop-color="#E64A24"/>
</radialGradient>
<radialGradient id="paint28_radial_49:6741" cx="0" cy="0" r="1" gradientUnits="userSpaceOnUse" gradientTransform="translate(57.1745 52.7868) scale(24.7671)">
<stop offset="0.0815" stop-color="#DFAB45"/>
<stop offset="1" stop-color="#E64A24"/>
</radialGradient>
<radialGradient id="paint29_radial_49:6741" cx="0" cy="0" r="1" gradientUnits="userSpaceOnUse" gradientTransform="translate(40.8729 85.7311) scale(1.76087)">
<stop offset="0.0815" stop-color="#DFAB45"/>
<stop offset="1" stop-color="#E64A24"/>
</radialGradient>
<radialGradient id="paint30_radial_49:6741" cx="0" cy="0" r="1" gradientUnits="userSpaceOnUse" gradientTransform="translate(136.744 45.0416) scale(23.6784)">
<stop offset="0.0815" stop-color="#DFAB45"/>
<stop offset="1" stop-color="#E64A24"/>
</radialGradient>
<radialGradient id="paint31_radial_49:6741" cx="0" cy="0" r="1" gradientUnits="userSpaceOnUse" gradientTransform="translate(117.3 70.8102) scale(18.5033)">
<stop offset="0.0815" stop-color="#DFAB45"/>
<stop offset="1" stop-color="#E64A24"/>
</radialGradient>
<radialGradient id="paint32_radial_49:6741" cx="0" cy="0" r="1" gradientUnits="userSpaceOnUse" gradientTransform="translate(147.714 76.3466) scale(7.04755)">
<stop offset="0.0815" stop-color="#DFAB45"/>
<stop offset="1" stop-color="#E64A24"/>
</radialGradient>
<radialGradient id="paint33_radial_49:6741" cx="0" cy="0" r="1" gradientUnits="userSpaceOnUse" gradientTransform="translate(143.58 117.709) scale(6.33211)">
<stop offset="0.0815" stop-color="#DFAB45"/>
<stop offset="1" stop-color="#E64A24"/>
</radialGradient>
<radialGradient id="paint34_radial_49:6741" cx="0" cy="0" r="1" gradientUnits="userSpaceOnUse" gradientTransform="translate(91.1018 30.8244) scale(35.5874)">
<stop offset="0.0815" stop-color="#DFAB45"/>
<stop offset="1" stop-color="#E64A24"/>
</radialGradient>
<radialGradient id="paint35_radial_49:6741" cx="0" cy="0" r="1" gradientUnits="userSpaceOnUse" gradientTransform="translate(40.2298 85.4585) scale(0.133871)">
<stop offset="0.0815" stop-color="#DFAB45"/>
<stop offset="1" stop-color="#E64A24"/>
</radialGradient>
<radialGradient id="paint36_radial_49:6741" cx="0" cy="0" r="1" gradientUnits="userSpaceOnUse" gradientTransform="translate(138.014 89.9725) scale(22.6586)">
<stop offset="0.0815" stop-color="#DFAB45"/>
<stop offset="1" stop-color="#E64A24"/>
</radialGradient>
<radialGradient id="paint37_radial_49:6741" cx="0" cy="0" r="1" gradientUnits="userSpaceOnUse" gradientTransform="translate(72.759 120.349) scale(18.0738)">
<stop offset="0.0815" stop-color="#DFAB45"/>
<stop offset="1" stop-color="#E64A24"/>
</radialGradient>
<radialGradient id="paint38_radial_49:6741" cx="0" cy="0" r="1" gradientUnits="userSpaceOnUse" gradientTransform="translate(66.6356 97.688) scale(9.34172)">
<stop offset="0.0815" stop-color="#DFAB45"/>
<stop offset="1" stop-color="#E64A24"/>
</radialGradient>
<radialGradient id="paint39_radial_49:6741" cx="0" cy="0" r="1" gradientUnits="userSpaceOnUse" gradientTransform="translate(65.84 137.814) scale(4.51417)">
<stop offset="0.0815" stop-color="#DFAB45"/>
<stop offset="1" stop-color="#E64A24"/>
</radialGradient>
<radialGradient id="paint40_radial_49:6741" cx="0" cy="0" r="1" gradientUnits="userSpaceOnUse" gradientTransform="translate(92.9525 157.612) scale(7.27053)">
<stop offset="0.0815" stop-color="#DFAB45"/>
<stop offset="1" stop-color="#E64A24"/>
</radialGradient>
<radialGradient id="paint41_radial_49:6741" cx="0" cy="0" r="1" gradientUnits="userSpaceOnUse" gradientTransform="translate(53.6866 87.3415) scale(11.4008)">
<stop offset="0.0815" stop-color="#DFAB45"/>
<stop offset="1" stop-color="#E64A24"/>
</radialGradient>
<radialGradient id="paint42_radial_49:6741" cx="0" cy="0" r="1" gradientUnits="userSpaceOnUse" gradientTransform="translate(89.3452 85.0177) scale(26.2288)">
<stop offset="0.0815" stop-color="#DFAB45"/>
<stop offset="1" stop-color="#E64A24"/>
</radialGradient>
<radialGradient id="paint43_radial_49:6741" cx="0" cy="0" r="1" gradientUnits="userSpaceOnUse" gradientTransform="translate(87.3829 142.233) scale(6.70455)">
<stop offset="0.0815" stop-color="#DFAB45"/>
<stop offset="1" stop-color="#E64A24"/>
</radialGradient>
<radialGradient id="paint44_radial_49:6741" cx="0" cy="0" r="1" gradientUnits="userSpaceOnUse" gradientTransform="translate(114.601 96.4966) scale(7.40221)">
<stop offset="0.0815" stop-color="#DFAB45"/>
<stop offset="1" stop-color="#E64A24"/>
</radialGradient>
<radialGradient id="paint45_radial_49:6741" cx="0" cy="0" r="1" gradientUnits="userSpaceOnUse" gradientTransform="translate(169.82 77.8912) scale(20.9449)">
<stop offset="0.0815" stop-color="#DFAB45"/>
<stop offset="1" stop-color="#E64A24"/>
</radialGradient>
<radialGradient id="paint46_radial_49:6741" cx="0" cy="0" r="1" gradientUnits="userSpaceOnUse" gradientTransform="translate(151.282 157.147) scale(0.12396)">
<stop offset="0.0815" stop-color="#DFAB45"/>
<stop offset="1" stop-color="#E64A24"/>
</radialGradient>
<radialGradient id="paint47_radial_49:6741" cx="0" cy="0" r="1" gradientUnits="userSpaceOnUse" gradientTransform="translate(182.929 98.2176) scale(7.13989)">
<stop offset="0.0815" stop-color="#DFAB45"/>
<stop offset="1" stop-color="#E64A24"/>
</radialGradient>
<radialGradient id="paint48_radial_49:6741" cx="0" cy="0" r="1" gradientUnits="userSpaceOnUse" gradientTransform="translate(58.2789 59.8002) scale(21.8795)">
<stop offset="0.0815" stop-color="#DFAB45"/>
<stop offset="1" stop-color="#E64A24"/>
</radialGradient>
<radialGradient id="paint49_radial_49:6741" cx="0" cy="0" r="1" gradientUnits="userSpaceOnUse" gradientTransform="translate(138.702 94.7361) scale(20.4832)">
<stop offset="0.0815" stop-color="#DFAB45"/>
<stop offset="1" stop-color="#E64A24"/>
</radialGradient>
<radialGradient id="paint50_radial_49:6741" cx="0" cy="0" r="1" gradientUnits="userSpaceOnUse" gradientTransform="translate(86.28 68.1151) scale(6.56505)">
<stop offset="0.0815" stop-color="#DFAB45"/>
<stop offset="1" stop-color="#E64A24"/>
</radialGradient>
<radialGradient id="paint51_radial_49:6741" cx="0" cy="0" r="1" gradientUnits="userSpaceOnUse" gradientTransform="translate(117.897 75.8301) scale(16.4066)">
<stop offset="0.0815" stop-color="#DFAB45"/>
<stop offset="1" stop-color="#E64A24"/>
</radialGradient>
<radialGradient id="paint52_radial_49:6741" cx="0" cy="0" r="1" gradientUnits="userSpaceOnUse" gradientTransform="translate(92.5415 37.7529) scale(37.2933)">
<stop offset="0.0815" stop-color="#DFAB45"/>
<stop offset="1" stop-color="#E64A24"/>
</radialGradient>
<radialGradient id="paint53_radial_49:6741" cx="0" cy="0" r="1" gradientUnits="userSpaceOnUse" gradientTransform="translate(119.214 183.084) scale(9.80583)">
<stop offset="0.0815" stop-color="#DFAB45"/>
<stop offset="1" stop-color="#E64A24"/>
</radialGradient>
<radialGradient id="paint54_radial_49:6741" cx="0" cy="0" r="1" gradientUnits="userSpaceOnUse" gradientTransform="translate(110.522 123.237) scale(31.413)">
<stop offset="0.0815" stop-color="#DFAB45"/>
<stop offset="1" stop-color="#E64A24"/>
</radialGradient>
<radialGradient id="paint55_radial_49:6741" cx="0" cy="0" r="1" gradientUnits="userSpaceOnUse" gradientTransform="translate(118.308 153.186) scale(7.91717)">
<stop offset="0.0815" stop-color="#DFAB45"/>
<stop offset="1" stop-color="#E64A24"/>
</radialGradient>
<radialGradient id="paint56_radial_49:6741" cx="0" cy="0" r="1" gradientUnits="userSpaceOnUse" gradientTransform="translate(143.01 161.919) scale(25.6016)">
<stop offset="0.0815" stop-color="#DFAB45"/>
<stop offset="1" stop-color="#E64A24"/>
</radialGradient>
<radialGradient id="paint57_radial_49:6741" cx="0" cy="0" r="1" gradientUnits="userSpaceOnUse" gradientTransform="translate(174.561 133.496) scale(28.6432)">
<stop offset="0.0815" stop-color="#DFAB45"/>
<stop offset="1" stop-color="#E64A24"/>
</radialGradient>
<radialGradient id="paint58_radial_49:6741" cx="0" cy="0" r="1" gradientUnits="userSpaceOnUse" gradientTransform="translate(166.776 113.076) scale(16.758)">
<stop offset="0.0815" stop-color="#DFAB45"/>
<stop offset="1" stop-color="#E64A24"/>
</radialGradient>
<radialGradient id="paint59_radial_49:6741" cx="0" cy="0" r="1" gradientUnits="userSpaceOnUse" gradientTransform="translate(106.744 164.884) scale(11.3965)">
<stop offset="0.0815" stop-color="#DFAB45"/>
<stop offset="1" stop-color="#E64A24"/>
</radialGradient>
<radialGradient id="paint60_radial_49:6741" cx="0" cy="0" r="1" gradientUnits="userSpaceOnUse" gradientTransform="translate(89.2832 178.881) scale(14.7564)">
<stop offset="0.0815" stop-color="#DFAB45"/>
<stop offset="1" stop-color="#E64A24"/>
</radialGradient>
<radialGradient id="paint61_radial_49:6741" cx="0" cy="0" r="1" gradientUnits="userSpaceOnUse" gradientTransform="translate(143.582 117.87) scale(6.19997)">
<stop offset="0.0815" stop-color="#DFAB45"/>
<stop offset="1" stop-color="#E64A24"/>
</radialGradient>
<radialGradient id="paint62_radial_49:6741" cx="0" cy="0" r="1" gradientUnits="userSpaceOnUse" gradientTransform="translate(149.157 133.686) scale(11.7875)">
<stop offset="0.0815" stop-color="#DFAB45"/>
<stop offset="1" stop-color="#E64A24"/>
</radialGradient>
<radialGradient id="paint63_radial_49:6741" cx="0" cy="0" r="1" gradientUnits="userSpaceOnUse" gradientTransform="translate(137.716 51.2372) scale(20.7672)">
<stop offset="0.0815" stop-color="#DFAB45"/>
<stop offset="1" stop-color="#E64A24"/>
</radialGradient>
<radialGradient id="paint64_radial_49:6741" cx="0" cy="0" r="1" gradientUnits="userSpaceOnUse" gradientTransform="translate(147.711 76.7133) scale(6.7796)">
<stop offset="0.0815" stop-color="#DFAB45"/>
<stop offset="1" stop-color="#E64A24"/>
</radialGradient>
<radialGradient id="paint65_radial_49:6741" cx="0" cy="0" r="1" gradientUnits="userSpaceOnUse" gradientTransform="translate(69.3776 151.971) scale(23.8598)">
<stop offset="0.0815" stop-color="#DFAB45"/>
<stop offset="1" stop-color="#E64A24"/>
</radialGradient>
<radialGradient id="paint66_radial_49:6741" cx="0" cy="0" r="1" gradientUnits="userSpaceOnUse" gradientTransform="translate(34.8191 89.5097) scale(18.5323)">
<stop offset="0.0815" stop-color="#DFAB45"/>
<stop offset="1" stop-color="#E64A24"/>
</radialGradient>
<radialGradient id="paint67_radial_49:6741" cx="0" cy="0" r="1" gradientUnits="userSpaceOnUse" gradientTransform="translate(41.8415 124.038) scale(28.6443)">
<stop offset="0.0815" stop-color="#DFAB45"/>
<stop offset="1" stop-color="#E64A24"/>
</radialGradient>
<radialGradient id="paint68_radial_49:6741" cx="0" cy="0" r="1" gradientUnits="userSpaceOnUse" gradientTransform="translate(98.9491 78.9804) scale(168.737)">
<stop offset="0.0815" stop-color="#DFAB45"/>
<stop offset="1" stop-color="#E64A24"/>
</radialGradient>
<radialGradient id="paint69_radial_49:6741" cx="0" cy="0" r="1" gradientUnits="userSpaceOnUse" gradientTransform="translate(120.154 78.1398) rotate(36.7679) scale(168.737)">
<stop offset="0.0815" stop-color="#DFAB45"/>
<stop offset="1" stop-color="#E64A24"/>
</radialGradient>
<radialGradient id="paint70_radial_49:6741" cx="0" cy="0" r="1" gradientUnits="userSpaceOnUse" gradientTransform="translate(118.679 52.611) scale(63.5023)">
<stop offset="0.0815" stop-color="#DFAB45"/>
<stop offset="0.8556" stop-color="#DFAB45" stop-opacity="0"/>
</radialGradient>
<clipPath id="clip0_49:6741">
<rect width="219" height="219" fill="white"/>
</clipPath>
</defs>
</svg>
