<svg width="396" height="396" viewBox="0 0 396 396" fill="none" xmlns="http://www.w3.org/2000/svg">
<path d="M198 396C88.6476 396 0 307.352 0 198C0 88.6476 88.6476 0 198 0C307.352 0 396 88.6476 396 198C396 307.352 307.352 396 198 396Z" fill="url(#paint0_radial_49:6712)"/>
<g style="mix-blend-mode:hard-light">
<path d="M197.999 364.563C106.008 364.563 31.4346 289.99 31.4346 197.999C31.4346 106.008 106.008 31.4343 197.999 31.4343C289.99 31.4343 364.563 106.008 364.563 197.999C364.563 289.99 289.99 364.563 197.999 364.563Z" fill="url(#paint1_linear_49:6712)"/>
</g>
<g opacity="0.53">
<g style="mix-blend-mode:screen" opacity="0.53">
<path d="M157.586 34.1985C152.454 62.6849 161.167 95.0191 178.473 111.706C191.79 124.546 209.391 128.788 220.124 145.701C227.988 158.09 230.701 175.111 232.876 191.386C235.051 207.662 237.166 224.672 244.216 237.982C251.265 251.293 264.981 259.379 275.317 251.27C284.16 244.332 287.322 228.62 287.538 214.457C287.754 200.291 285.89 185.876 288.223 172.086C289.959 161.821 293.912 152.612 297.515 143.34C301.118 134.071 304.488 124.234 304.871 113.699C305.648 92.3445 298.495 76.3052 285.734 65.3092C274.964 56.0277 259.758 44.3554 247.884 39.602C250.359 48.1731 255.154 55.0235 256.423 64.6893C257.695 74.3793 255.066 85.8221 248.622 89.8269C243.546 92.9805 237.597 90.8372 232.54 87.6293C216.511 77.4624 204.214 56.4825 200.241 32.5262L157.586 34.1985Z" fill="#5A9CD4"/>
</g>
<g style="mix-blend-mode:color-dodge" opacity="0.53">
<path d="M129.484 93.2196C135.645 103.594 137.986 115.699 141.137 127.342C144.287 138.983 148.681 150.911 157.705 158.936C167.651 167.781 181.536 170.449 193.289 176.711C205.777 183.364 217.549 198.859 219.49 231.146C220.886 254.364 197.106 270.902 175.706 261.668C119.924 237.597 47.2247 180.462 74.0541 96.0391C82.0207 70.9562 113.172 65.754 129.484 93.2196Z" fill="#5A9CD4"/>
</g>
<g style="mix-blend-mode:color-dodge" opacity="0.5">
<path d="M355.995 151.056C345.918 146.788 339.125 151.143 334.351 161.709C329.576 172.274 329.737 184.557 329.558 196.33C328.987 233.853 317.17 270.915 284.035 288.083C261.16 299.934 236.692 307.204 211.267 307.852C137.78 309.722 51.1857 244.449 42.1891 161.302C41.5183 155.099 39.4784 144.173 41.6033 138.235C25.0752 184.408 21.1931 216.508 41.1562 261.043C49.3712 279.368 61.8638 295.176 77.542 306.323C186.261 383.618 278.518 339.715 301.415 321.255C324.312 302.798 336.786 274.698 346.69 245.61C356.598 216.528 360.336 182.802 355.995 151.056Z" fill="#5A9CD4"/>
</g>
</g>
<g opacity="0.49">
<g style="mix-blend-mode:color-dodge">
<path d="M151.374 38.0977C101.247 66.8093 67.4479 120.786 67.4479 182.694C67.4479 274.685 142.021 349.258 234.012 349.258C250.205 349.258 265.838 346.905 280.639 342.595C256.278 356.549 228.084 364.566 197.998 364.566C106.007 364.566 31.4317 289.992 31.4317 197.999C31.4337 122.199 82.0854 58.2694 151.374 38.0977Z" fill="url(#paint2_radial_49:6712)"/>
</g>
</g>
<path opacity="0.7" d="M176.626 55.7133C196.305 30.4216 245.939 40.6313 287.489 78.5144C329.04 116.402 346.771 167.615 327.092 192.904C307.414 218.196 257.78 207.986 216.229 170.101C174.679 132.218 156.949 81.005 176.626 55.7133Z" fill="url(#paint3_linear_49:6712)"/>
<defs>
<radialGradient id="paint0_radial_49:6712" cx="0" cy="0" r="1" gradientUnits="userSpaceOnUse" gradientTransform="translate(198 198) rotate(180) scale(198)">
<stop offset="0.0081" stop-color="#61C6F2"/>
<stop offset="1" stop-color="#61C6F2" stop-opacity="0"/>
</radialGradient>
<linearGradient id="paint1_linear_49:6712" x1="303.726" y1="87.6247" x2="57.9292" y2="344.226" gradientUnits="userSpaceOnUse">
<stop stop-color="#61C6F2"/>
<stop offset="0.167" stop-color="#58BBEB"/>
<stop offset="0.4572" stop-color="#409FDA"/>
<stop offset="0.834" stop-color="#1971BE"/>
<stop offset="0.8936" stop-color="#1269B9"/>
</linearGradient>
<radialGradient id="paint2_radial_49:6712" cx="0" cy="0" r="1" gradientUnits="userSpaceOnUse" gradientTransform="translate(156.037 201.331) rotate(180) scale(145.209)">
<stop stop-color="#F20074"/>
<stop offset="0.1407" stop-color="#ED0376"/>
<stop offset="0.3069" stop-color="#DF0B7D"/>
<stop offset="0.486" stop-color="#C71887"/>
<stop offset="0.6741" stop-color="#A62A96"/>
<stop offset="0.8675" stop-color="#7B42A9"/>
<stop offset="0.8985" stop-color="#7446AC"/>
</radialGradient>
<linearGradient id="paint3_linear_49:6712" x1="290.04" y1="59.5317" x2="214.87" y2="169.025" gradientUnits="userSpaceOnUse">
<stop stop-color="white"/>
<stop offset="1" stop-color="white" stop-opacity="0"/>
</linearGradient>
</defs>
</svg>
