<svg width="778" height="779" viewBox="0 0 778 779" fill="none" xmlns="http://www.w3.org/2000/svg">
<g style="mix-blend-mode:screen" opacity="0.5">
<path fill-rule="evenodd" clip-rule="evenodd" d="M0.000210018 388.935C0.000210018 398.421 0.431309 407.476 0.862355 416.962C15.0869 618.76 183.195 778.301 388.804 778.301C488.807 778.301 580.188 740.356 649.156 678.265C660.363 668.347 671.139 657.568 681.053 646.357C696.571 628.678 710.364 609.705 722.434 589.439C728.468 579.091 734.503 568.311 739.675 557.531C740.968 554.513 742.262 551.925 743.555 548.907C749.158 535.971 754.331 523.036 758.641 509.669C761.659 499.751 764.676 489.834 766.831 479.485C773.728 450.595 777.607 420.412 777.607 389.366C777.607 374.706 776.745 360.045 775.021 345.385C773.728 334.605 772.435 324.256 770.28 313.908C768.124 303.559 765.969 293.642 762.952 283.724C716.83 120.302 566.826 0 388.373 0C304.75 0 227.162 26.3027 163.798 71.5778C148.711 82.3576 134.487 93.9998 121.124 106.936C118.538 109.523 115.521 112.11 112.934 114.697C80.1748 147.468 53.4499 186.275 34.0528 228.963C24.1388 250.091 16.38 272.513 10.7764 295.798C6.4659 313.476 3.44866 331.155 1.29343 349.697C0.862381 354.871 0.431256 360.476 0.000210018 365.651C0.000210018 372.981 0.000210018 380.742 0.000210018 388.935Z" fill="url(#paint0_radial_49:9397)"/>
</g>
<g style="mix-blend-mode:screen" opacity="0.5">
<path fill-rule="evenodd" clip-rule="evenodd" d="M63.7933 388.935C63.7933 396.696 64.2243 404.457 64.6554 412.219C76.7246 580.815 217.246 714.053 388.802 714.053C472.425 714.053 548.72 682.576 606.48 630.402C615.963 621.778 624.584 613.154 632.774 603.668C645.706 589.008 657.344 573.053 667.689 556.237C672.862 547.613 677.603 538.558 681.914 529.503C683.207 526.916 684.069 524.76 685.362 522.173C690.103 511.393 694.414 500.613 697.862 489.402C700.448 481.21 703.035 472.586 704.759 464.393C710.363 440.246 713.38 414.806 713.38 388.935C713.38 376.43 712.518 364.357 711.225 352.283C710.363 343.228 709.069 334.604 707.345 325.981C705.621 317.357 703.466 309.164 701.311 300.54C662.948 163.852 537.082 63.3848 388.371 63.3848C318.542 63.3848 253.454 85.3756 200.435 123.32C187.935 132.375 175.865 141.862 164.658 152.641C162.503 154.797 159.917 156.953 157.761 159.109C130.605 186.274 107.76 218.614 91.8113 254.403C83.6215 272.082 77.1558 291.054 72.4143 310.026C68.9659 324.687 65.9485 339.779 64.6554 354.87C64.2243 359.182 63.7933 363.925 63.7933 368.237C63.7933 375.568 63.7933 382.035 63.7933 388.935Z" fill="url(#paint1_radial_49:9397)"/>
</g>
<path opacity="0.5" fill-rule="evenodd" clip-rule="evenodd" d="M106.469 388.935C106.469 395.834 106.469 402.302 107.331 409.201C117.676 555.806 239.662 671.366 389.235 671.366C462.082 671.366 528.463 643.77 578.464 598.494C586.654 591.164 594.413 583.403 601.309 575.21C612.517 562.274 622.862 548.476 631.483 533.816C635.793 526.485 640.104 518.293 643.983 510.531C644.845 508.375 646.138 506.219 647 504.495C651.311 495.008 654.759 485.522 658.208 476.036C660.363 468.706 662.518 461.807 664.242 454.045C669.415 432.917 672.001 410.926 672.001 388.504C672.001 377.724 671.57 366.944 670.277 356.596C669.415 348.834 668.122 341.504 666.829 333.743C665.535 326.412 663.38 319.082 661.656 311.752C628.465 193.174 518.98 105.642 389.666 105.642C328.888 105.642 272.421 125.046 226.299 157.385C215.523 165.147 205.178 173.77 195.264 182.825C193.109 184.55 191.385 186.706 189.229 188.431C165.522 212.146 146.125 240.174 131.9 271.22C125.004 286.743 119.4 302.697 115.09 319.513C112.072 332.018 109.486 345.385 108.193 358.752C107.762 362.632 107.331 366.513 107.331 370.394C106.469 377.293 106.469 382.898 106.469 388.935Z" fill="url(#paint2_radial_49:9397)"/>
<path fill-rule="evenodd" clip-rule="evenodd" d="M299.144 112.541C299.144 112.541 262.936 155.66 201.297 163.422L228.883 185.412L310.782 178.945L299.144 112.541Z" fill="#FFF066"/>
<path fill-rule="evenodd" clip-rule="evenodd" d="M105.609 385.485C105.609 385.485 137.506 472.586 145.265 558.825L182.335 476.036L169.835 379.018L105.609 385.485Z" fill="#FFF066"/>
<path fill-rule="evenodd" clip-rule="evenodd" d="M136.208 406.183C136.208 406.183 152.588 418.687 150.433 460.944C148.277 503.201 145.691 532.091 145.691 532.091V570.898C145.691 570.898 191.813 442.834 136.208 406.183Z" fill="#FFAC31"/>
<path fill-rule="evenodd" clip-rule="evenodd" d="M201.297 163.853C217.246 168.165 256.471 177.22 271.989 166.871C290.523 154.798 297.851 118.147 299.144 113.404C299.144 112.972 299.144 112.972 299.144 112.972C332.335 103.055 367.25 98.743 403.889 101.33C566.824 112.11 690.534 253.11 679.758 416.1C668.982 579.091 528.03 702.843 365.095 692.063C274.144 686.026 195.693 639.889 145.692 571.76C148.709 566.155 150.864 557.962 152.589 548.045C153.02 545.889 153.451 543.302 153.882 540.715C160.779 498.027 159.054 433.779 146.123 416.963C143.537 413.944 140.519 410.926 137.502 407.908C137.071 407.476 137.071 407.476 136.64 407.045C127.157 398.421 115.519 391.091 106.036 385.917C96.5527 380.742 89.225 377.293 89.225 377.293C94.8286 289.761 137.502 213.871 201.297 163.853ZM510.357 499.751L515.961 513.549C554.324 465.687 525.444 390.66 525.444 390.66C525.444 390.66 525.444 390.66 525.444 391.091C515.53 402.733 507.34 414.807 502.598 426.018C502.167 426.449 502.167 427.311 501.736 427.742C498.719 435.504 496.995 443.696 497.426 451.458C499.581 463.962 503.891 481.641 510.357 499.751Z" fill="url(#paint3_radial_49:9397)"/>
<path fill-rule="evenodd" clip-rule="evenodd" d="M442.685 152.211C449.151 181.1 491.393 267.339 534.067 281.999C583.206 299.247 611.655 300.972 617.69 287.605C618.552 285.88 618.983 283.293 619.414 280.275C622.431 260.44 614.672 215.165 574.585 187.568C528.463 155.66 449.582 129.357 441.823 143.587C441.823 144.88 441.823 147.899 442.685 152.211Z" fill="#FFAC31"/>
<path fill-rule="evenodd" clip-rule="evenodd" d="M367.681 150.055C368.974 159.972 373.285 171.614 381.043 177.22C390.958 184.119 410.355 187.569 420.269 185.413C424.148 184.55 426.734 182.825 426.734 180.238C424.579 144.881 375.009 129.789 369.836 134.101C367.25 135.826 366.388 142.293 367.681 150.055Z" fill="#FFAC31"/>
<path fill-rule="evenodd" clip-rule="evenodd" d="M460.786 332.449C461.217 346.247 465.959 371.256 492.684 370.394C497.425 370.394 502.167 369.1 506.908 367.376C529.323 359.614 551.737 337.623 554.323 325.119C554.323 325.119 542.685 308.733 525.012 306.578C521.995 306.146 517.684 306.578 513.374 307.009C491.822 310.027 460.355 321.238 460.786 332.449Z" fill="#FFAC31"/>
<path fill-rule="evenodd" clip-rule="evenodd" d="M515.963 513.118L510.359 499.32C510.79 500.614 511.221 501.907 511.652 503.201C516.394 516.137 521.567 529.504 527.17 540.283C536.222 557.962 546.136 570.898 555.619 571.329C579.758 573.054 626.742 553.219 646.57 513.118C666.398 473.017 678.036 374.706 667.26 359.614C655.622 343.229 631.052 330.724 600.448 333.743C590.534 334.605 575.447 343.229 559.499 355.733C547.429 365.22 534.929 377.293 524.584 389.366C525.015 390.229 554.326 465.256 515.963 513.118C515.963 513.549 515.963 513.549 515.963 513.118Z" fill="#FFAC31"/>
<path fill-rule="evenodd" clip-rule="evenodd" d="M496.998 451.027C496.136 442.834 498.291 435.072 501.309 427.311C497.86 435.935 496.136 444.128 496.998 451.027Z" fill="#FFAC31"/>
<path fill-rule="evenodd" clip-rule="evenodd" d="M201.298 484.66C211.212 510.531 247.851 538.99 265.524 540.284C283.197 541.577 314.232 535.541 316.819 521.311C324.578 481.642 309.922 397.559 275.438 388.935C256.472 384.192 236.213 382.467 220.264 383.33C206.902 384.192 196.126 387.211 191.384 392.385C181.47 404.458 191.384 458.788 201.298 484.66Z" fill="#FFAC31"/>
<path fill-rule="evenodd" clip-rule="evenodd" d="M259.921 627.815C262.076 636.008 307.767 652.824 341.82 652.824C376.303 652.824 423.718 644.632 424.149 629.109C424.149 627.384 419.839 623.934 412.942 620.485C393.976 610.567 355.613 598.063 327.164 599.356C300.439 600.65 278.025 609.705 267.249 617.898C262.076 621.347 259.49 625.228 259.921 627.815Z" fill="#FFAC31"/>
<path fill-rule="evenodd" clip-rule="evenodd" d="M122.843 371.687C128.878 376.862 143.964 379.88 154.741 377.724C158.189 376.862 160.775 375.999 162.931 374.274C172.414 366.944 190.518 325.55 180.173 316.926C173.276 310.889 165.517 307.008 157.758 304.852C141.378 300.541 125.86 303.99 123.274 310.889C119.826 321.238 115.084 364.788 122.843 371.687Z" fill="#FFAC31"/>
<path fill-rule="evenodd" clip-rule="evenodd" d="M299.146 112.541L287.508 123.752C287.508 123.752 278.887 155.229 258.628 162.99C238.369 170.752 221.989 159.11 221.989 159.11L200.868 163.422C200.868 163.422 240.955 179.807 265.525 173.339C290.526 167.302 299.146 112.541 299.146 112.541Z" fill="url(#paint4_radial_49:9397)"/>
<path fill-rule="evenodd" clip-rule="evenodd" d="M515.963 513.55L527.17 541.146C528.463 542.44 565.102 571.761 602.603 545.889C640.966 520.018 672.001 388.935 649.587 364.357C627.173 339.779 590.103 338.055 590.103 338.055L560.36 356.596C548.291 366.082 535.791 378.156 525.446 390.229C525.015 390.229 554.326 465.256 515.963 513.55Z" fill="#FFF066"/>
<path fill-rule="evenodd" clip-rule="evenodd" d="M496.998 451.027C496.136 442.834 498.291 435.072 501.309 427.311C497.86 435.935 496.136 444.128 496.998 451.027Z" fill="#FFF066"/>
<path fill-rule="evenodd" clip-rule="evenodd" d="M442.68 152.211C449.146 181.101 491.388 267.339 534.062 282C583.201 299.247 611.65 300.972 617.685 287.605C618.547 285.88 618.978 283.293 619.409 280.275C619.409 280.275 611.65 236.725 558.201 194.468C516.389 160.835 463.37 153.505 442.68 152.211Z" fill="#FFF066"/>
<path fill-rule="evenodd" clip-rule="evenodd" d="M460.79 332.449C461.221 346.247 465.963 371.256 492.688 370.393C497.429 370.393 502.171 369.1 506.912 367.375C513.809 364.357 519.413 361.77 521.137 360.476C526.309 357.889 541.827 328.137 535.361 319.513C531.913 315.201 521.999 310.458 512.947 307.008C491.826 310.027 460.359 321.238 460.79 332.449Z" fill="#FFF066"/>
<path fill-rule="evenodd" clip-rule="evenodd" d="M367.681 150.055C368.974 159.972 373.284 171.614 381.043 177.22C390.957 184.119 410.354 187.568 420.269 185.412C413.803 152.211 367.681 150.055 367.681 150.055Z" fill="#FFF066"/>
<path fill-rule="evenodd" clip-rule="evenodd" d="M154.741 378.156C158.189 377.293 160.775 376.431 162.931 374.706C172.414 367.376 190.518 325.981 180.173 317.358C173.276 311.321 165.517 307.44 157.758 305.284C151.292 306.578 144.827 310.027 141.378 318.22C133.619 337.624 130.171 370.394 154.741 378.156Z" fill="#FFF066"/>
<path fill-rule="evenodd" clip-rule="evenodd" d="M210.352 472.155C224.576 525.192 289.664 547.183 316.389 521.311C324.148 481.642 309.492 397.559 275.009 388.935C256.043 384.192 235.784 382.467 219.835 383.33H219.404C219.835 383.761 196.127 419.119 210.352 472.155Z" fill="#FFF066"/>
<path fill-rule="evenodd" clip-rule="evenodd" d="M267.25 617.467C276.733 626.091 297.854 639.026 341.39 640.32C406.909 642.045 412.943 620.054 412.943 620.054C393.977 610.137 355.614 597.632 327.165 598.926C300.871 599.788 278.457 609.274 267.25 617.467Z" fill="#FFF066"/>
<path fill-rule="evenodd" clip-rule="evenodd" d="M502.17 425.586C507.343 414.375 515.533 402.302 525.016 390.66C522.86 392.816 509.498 407.476 502.17 425.586Z" fill="#FFF066"/>
<path fill-rule="evenodd" clip-rule="evenodd" d="M496.993 451.026C498.718 470.43 506.476 491.558 511.218 503.632C513.373 509.237 515.097 512.687 515.528 513.118L509.925 499.32C503.89 481.641 499.58 463.962 496.993 451.026Z" fill="#FFF066"/>
<g opacity="0.2">
<path opacity="0.2" fill-rule="evenodd" clip-rule="evenodd" d="M275.866 296.229C275.435 298.816 276.729 300.972 276.729 303.56C276.729 305.715 276.297 308.303 276.297 310.89C276.297 313.908 276.297 313.908 274.142 315.202C271.987 316.495 270.694 316.495 268.108 316.064C263.797 315.633 259.918 318.22 256.038 316.926C252.159 315.633 251.297 309.596 250.866 306.578C250.004 302.697 247.417 299.679 247.417 295.798C247.417 291.055 249.573 288.899 253.883 286.743C258.193 284.587 262.504 283.293 266.814 285.881C270.694 287.605 273.28 292.349 275.866 296.229Z" fill="#FFF066"/>
<path opacity="0.2" fill-rule="evenodd" clip-rule="evenodd" d="M229.317 285.88C229.748 285.88 230.179 285.88 230.61 285.88C231.472 284.156 231.472 282 230.61 280.275C228.886 277.688 228.455 278.981 226.73 279.844C222.851 281.137 221.127 283.725 220.696 287.605C220.265 290.624 222.42 295.367 226.73 294.504C230.179 293.642 232.334 289.33 232.334 286.312L229.317 285.88Z" fill="#FFF066"/>
<path opacity="0.2" fill-rule="evenodd" clip-rule="evenodd" d="M376.735 393.247C384.494 393.678 391.821 401.008 394.408 407.907C395.27 410.063 396.132 412.219 396.994 414.806C397.856 417.394 397.856 420.412 398.287 423.43C398.287 424.724 397.856 426.017 397.856 427.311C397.856 428.605 398.287 429.467 398.287 430.329C398.287 432.917 397.856 435.504 397.425 438.091C396.994 439.384 396.994 440.247 396.994 441.54C396.994 442.834 396.563 443.696 396.132 444.99C395.701 447.146 395.27 449.302 394.408 451.458C393.546 453.183 392.684 455.339 391.39 456.632C390.097 457.926 388.804 459.65 387.511 460.513C384.063 462.669 379.321 462.669 375.011 462.238C371.131 461.806 367.252 461.806 363.803 461.375C360.355 460.944 356.045 461.375 352.596 460.513C349.148 459.65 345.699 457.926 342.682 455.77C339.665 453.614 337.51 450.595 335.785 447.577C333.63 444.128 331.475 440.678 329.32 437.228C327.596 433.779 326.733 430.329 325.44 426.449C324.147 422.568 322.423 419.118 322.854 414.806C323.285 410.495 323.285 406.183 324.578 401.871C325.871 397.99 329.751 395.834 332.768 393.247C336.217 390.66 340.527 388.073 344.837 386.348C346.131 385.917 346.993 385.917 348.286 385.485C348.717 385.485 348.717 385.054 349.148 385.054C349.579 385.054 350.441 385.485 350.872 385.054C351.734 385.054 352.165 384.623 353.458 384.623C354.32 384.623 355.614 384.623 356.476 385.054C357.769 385.054 357.769 385.485 359.062 385.917C359.924 386.348 361.217 385.917 362.51 386.348C363.803 386.779 364.235 387.21 365.528 387.21C366.821 387.21 367.252 387.641 368.114 388.073C368.976 388.504 370.269 388.073 371.131 388.504C371.993 388.935 372.855 389.366 373.718 389.797C375.011 390.66 376.304 391.953 376.735 393.247Z" fill="#FFF066"/>
<path opacity="0.2" fill-rule="evenodd" clip-rule="evenodd" d="M401.3 368.238C403.024 367.807 402.593 366.513 403.024 365.651C403.455 364.357 403.886 363.926 403.455 362.202C403.024 360.046 401.3 358.752 398.714 358.752C396.559 358.752 395.265 360.046 393.541 361.339C391.817 363.064 390.093 365.22 389.231 367.807C387.938 372.119 390.093 377.724 395.265 377.293C397.421 376.862 398.714 374.706 399.145 373.412C399.576 372.55 400.007 371.688 400.438 370.825C400.869 369.532 400.438 367.807 400.869 366.513L401.3 368.238Z" fill="#FFF066"/>
<path opacity="0.2" fill-rule="evenodd" clip-rule="evenodd" d="M435.785 517.43C437.509 517.43 438.803 516.568 440.527 516.999C441.82 517.43 443.544 518.724 444.837 519.586C448.717 522.173 451.303 525.623 449.579 530.366C448.717 533.384 445.268 535.54 442.682 537.265C440.096 538.99 436.216 540.715 433.63 540.715C431.906 540.715 429.751 540.715 428.026 540.284C426.302 539.852 424.578 538.559 422.854 537.696C419.405 535.972 416.819 534.247 414.233 531.229C412.078 529.073 409.922 526.485 409.491 523.036C409.06 519.155 410.785 516.137 413.802 513.981C417.681 511.394 421.13 510.963 425.871 511.394C427.164 511.394 428.457 511.394 429.32 511.825C430.182 512.256 431.475 513.118 432.337 513.118C433.63 513.55 434.061 513.55 434.923 513.981C435.354 514.412 436.216 515.274 437.078 515.706L435.785 517.43Z" fill="#FFF066"/>
<path opacity="0.2" fill-rule="evenodd" clip-rule="evenodd" d="M337.942 360.907C340.528 359.183 339.666 357.458 337.942 355.733C336.649 354.44 335.787 353.577 334.063 352.715C332.338 351.852 330.183 351.421 328.459 352.715C327.166 353.577 325.442 355.302 324.58 356.596C323.718 357.458 324.149 358.32 323.717 359.614C323.286 360.908 322.424 361.339 323.717 363.063C325.011 364.788 326.735 365.651 328.89 365.651C331.476 366.082 332.769 365.651 334.925 364.788C336.218 363.926 337.08 363.063 337.942 360.907Z" fill="#FFF066"/>
<path opacity="0.2" fill-rule="evenodd" clip-rule="evenodd" d="M328.452 205.679C328.883 206.11 328.452 208.697 328.021 209.56C327.59 209.991 327.159 210.422 326.728 210.422C326.297 210.422 325.866 211.284 325.435 211.284C323.28 212.147 320.262 212.147 318.969 209.991C317.676 207.835 318.107 205.248 319.831 203.523C321.125 202.229 325.866 200.936 326.297 203.954L328.452 205.679Z" fill="#FFF066"/>
<path opacity="0.2" fill-rule="evenodd" clip-rule="evenodd" d="M284.923 200.505H285.354C285.785 198.78 285.354 197.486 285.354 196.193C284.923 194.468 285.785 193.174 283.199 193.174C280.612 193.174 278.026 194.468 275.871 195.33C274.578 195.761 273.285 196.624 272.422 197.486C271.56 198.349 270.267 199.642 269.836 200.936C268.974 204.385 270.267 207.404 271.56 210.422C272.853 213.009 274.578 214.734 276.733 216.459C278.888 218.183 281.474 220.339 284.061 220.771C286.647 221.202 289.233 220.339 291.388 218.615C293.544 216.89 293.544 213.872 293.113 211.284C292.682 209.991 292.682 208.697 292.251 206.972C291.82 206.11 291.388 204.385 290.957 203.523C289.664 201.367 287.078 200.073 284.923 198.78V200.505Z" fill="#FFF066"/>
<path opacity="0.2" fill-rule="evenodd" clip-rule="evenodd" d="M259.921 197.917C259.921 197.486 259.921 197.486 259.921 197.055C260.352 199.642 257.765 198.78 256.472 198.78C255.61 198.78 254.748 198.78 253.886 198.349C252.593 197.917 253.024 197.486 253.024 196.193C253.024 194.468 254.317 193.605 256.041 193.605C257.334 193.605 259.921 194.037 260.352 195.33L259.921 197.917Z" fill="#FFF066"/>
<path opacity="0.2" fill-rule="evenodd" clip-rule="evenodd" d="M486.221 517.43C485.79 518.293 486.652 519.155 487.083 520.018C487.514 520.88 487.514 521.742 487.514 522.605C487.945 524.761 488.807 526.485 489.239 528.641C489.67 530.797 489.67 533.385 489.67 535.54C489.67 537.696 490.532 539.852 489.67 541.577C489.239 543.302 488.376 544.595 486.652 545.889C484.928 546.751 483.635 547.614 481.48 547.614C479.756 547.614 478.462 547.614 476.738 546.751C475.014 545.889 474.152 544.595 472.859 542.871C471.997 541.577 471.566 539.852 470.704 538.128C470.273 537.265 469.841 536.834 469.41 535.972C468.979 535.109 468.979 533.816 468.548 532.953C468.117 531.229 467.255 529.504 466.393 527.779C465.962 526.917 465.962 526.054 465.962 525.192C465.531 523.898 465.1 523.036 464.669 521.742C464.669 520.88 464.238 520.018 464.238 519.155C464.238 518.724 464.238 518.293 464.238 518.293C464.238 517.862 463.807 517.43 463.807 516.568C463.807 515.706 464.238 514.843 464.238 513.981C464.238 513.119 463.807 512.256 463.807 511.394C464.238 508.375 465.1 504.495 468.117 502.77C469.841 501.476 471.135 502.77 472.859 503.632C474.583 504.495 476.307 505.788 477.6 507.082C478.893 508.375 480.187 509.669 481.48 511.394C481.911 512.256 482.342 512.687 482.773 513.55C484.066 513.55 484.066 514.843 486.221 517.43Z" fill="#FFF066"/>
<path opacity="0.2" fill-rule="evenodd" clip-rule="evenodd" d="M489.238 576.935C490.1 576.935 491.393 574.347 491.824 573.485C492.255 572.623 491.824 571.76 491.824 570.898C492.255 570.036 492.686 569.173 492.686 568.311C492.686 566.586 493.117 564.43 493.117 563.137C492.686 561.843 493.117 559.256 491.393 559.256C489.669 559.687 488.807 561.412 488.376 562.705C487.945 563.568 487.514 564.43 487.083 565.293C487.083 565.724 487.083 566.155 487.083 566.586C487.083 567.017 486.651 567.017 486.651 567.448C486.22 568.742 486.22 571.329 486.651 572.623C486.651 573.916 486.652 576.072 488.376 576.504L489.238 576.935Z" fill="#FFF066"/>
<path opacity="0.2" fill-rule="evenodd" clip-rule="evenodd" d="M487.509 496.733C487.509 496.302 487.509 496.302 487.509 495.871C487.509 496.302 487.94 497.164 487.94 498.027C487.94 498.889 487.94 499.752 487.078 500.614C485.785 501.476 484.061 499.32 483.199 498.027C482.768 497.596 482.768 496.733 482.337 496.302C482.337 495.871 481.906 494.577 481.906 494.146C482.337 492.421 484.492 492.421 485.785 492.421L487.509 496.733Z" fill="#FFF066"/>
<path opacity="0.2" fill-rule="evenodd" clip-rule="evenodd" d="M421.564 491.99C422.426 489.403 418.977 485.522 417.684 483.366C415.529 480.779 413.374 477.761 410.787 475.174C410.356 474.742 409.494 474.742 409.063 474.742C408.632 474.311 408.201 473.449 407.77 473.018C407.339 472.586 406.477 473.018 405.615 472.586C405.184 472.155 404.753 471.724 403.891 471.293C400.442 470.43 396.994 471.293 393.976 471.724C392.252 472.155 390.528 472.155 388.804 472.586C388.373 472.586 387.511 473.018 387.08 473.449C386.218 473.449 385.356 473.449 384.494 473.449C382.769 473.88 381.907 474.311 379.752 473.88C377.597 473.88 375.442 474.742 373.286 474.742C366.821 474.742 359.493 474.742 354.751 479.917C352.596 482.073 351.303 486.385 350.441 489.403C349.579 492.852 350.01 497.596 350.872 500.614C352.165 505.788 355.182 510.962 359.493 514.843C361.648 516.999 365.096 518.724 368.114 519.586C368.976 519.586 369.407 519.586 370.269 519.586C371.131 519.586 371.993 520.449 372.424 520.449C373.717 520.88 375.873 521.311 377.597 520.88C384.494 520.017 389.666 516.999 396.132 514.412C398.718 513.118 401.735 511.394 404.322 510.1C407.339 508.806 409.925 507.944 412.512 505.788C416.822 501.907 422.857 494.577 421.132 488.54C421.132 488.54 420.701 488.54 421.564 491.99Z" fill="#FFF066"/>
<path opacity="0.2" fill-rule="evenodd" clip-rule="evenodd" d="M260.351 577.797C263.368 577.797 259.488 573.485 258.626 572.623C256.04 570.898 254.316 571.329 252.161 573.485C248.281 576.935 246.126 581.247 246.126 586.421C246.126 589.008 246.988 590.733 250.005 591.595C253.023 592.458 254.316 591.164 256.471 589.871C258.195 589.008 261.213 588.577 262.075 587.283C263.368 584.696 260.782 581.678 261.213 579.522L260.351 577.797Z" fill="#FFF066"/>
<path opacity="0.2" fill-rule="evenodd" clip-rule="evenodd" d="M188.793 534.678C188.793 534.247 188.362 534.247 188.362 533.815C190.517 534.678 191.379 536.834 193.103 538.559C195.69 541.146 198.276 543.733 200.431 546.751C203.879 551.926 207.759 557.962 209.052 564.43C210.345 570.467 208.621 576.935 205.604 582.109C201.724 587.714 196.983 588.146 190.948 589.439C188.362 589.87 186.206 588.577 183.62 587.714C181.034 586.852 178.879 585.127 176.292 583.834C171.12 581.247 166.809 578.228 164.223 573.054C161.637 567.88 161.637 562.274 162.068 556.237C162.499 553.219 161.206 550.632 161.637 547.614C162.068 544.164 162.068 541.146 163.361 538.127C165.516 533.384 168.102 527.779 174.568 528.21C178.017 528.21 180.603 531.228 183.189 532.953C185.775 534.247 189.655 536.403 188.793 534.678Z" fill="#FFF066"/>
<path opacity="0.2" fill-rule="evenodd" clip-rule="evenodd" d="M191.812 506.65C192.243 506.65 192.243 506.65 192.674 506.65C191.381 503.201 189.657 499.32 186.639 496.733C184.915 495.008 182.76 494.577 181.467 497.595C180.605 499.32 180.174 501.476 179.743 503.201C179.312 506.65 178.449 513.549 183.191 513.549C185.777 513.549 190.519 509.237 190.088 506.65H191.812Z" fill="#FFF066"/>
<path opacity="0.2" fill-rule="evenodd" clip-rule="evenodd" d="M487.081 618.76C490.099 618.329 491.823 617.036 494.409 619.623C496.995 622.21 498.289 625.228 499.582 628.247C500.875 630.834 502.168 633.852 502.168 636.87C502.168 640.32 501.306 641.614 498.72 643.338C494.409 646.788 487.081 648.944 481.909 650.669C476.305 652.393 471.133 655.843 465.529 655.843C460.356 656.274 458.201 651.1 455.615 647.65C453.891 645.494 452.598 642.907 451.305 640.32C450.442 639.458 450.011 638.164 449.58 636.87C449.149 636.439 448.718 636.008 448.718 636.008C448.287 635.577 448.287 634.283 447.856 633.852C446.563 631.696 445.27 630.834 445.27 628.247C445.27 625.228 445.701 622.21 446.563 620.054C449.149 615.311 454.753 612.293 459.494 610.999C466.822 608.843 472.857 609.274 479.754 611.43C482.771 612.293 485.788 613.586 488.806 615.311C490.53 615.742 492.254 619.623 487.081 618.76Z" fill="#FFF066"/>
<path opacity="0.2" fill-rule="evenodd" clip-rule="evenodd" d="M524.15 626.521C527.168 626.521 524.581 621.347 523.288 620.054C521.133 617.898 518.978 618.76 517.253 620.916C515.529 623.072 514.667 625.659 517.253 627.384C520.271 629.54 520.271 626.521 522.857 626.521H524.15Z" fill="#FFF066"/>
<path opacity="0.2" fill-rule="evenodd" clip-rule="evenodd" d="M196.985 200.935C197.416 200.935 197.416 200.935 197.847 201.367C197.847 203.523 199.572 205.679 200.003 207.835C200.434 210.422 200.865 213.009 200.434 215.596C200.003 220.339 199.141 224.651 194.399 226.807C192.244 227.669 190.52 228.101 188.365 228.963C185.778 229.825 183.623 229.394 181.468 229.825C177.588 230.688 171.123 230.257 170.26 225.082C169.829 222.926 170.692 220.339 170.692 218.183C170.692 215.596 170.692 213.009 171.554 210.853C172.847 206.972 173.709 203.523 175.864 200.073C177.588 197.055 181.037 194.468 184.485 193.605C187.933 192.743 193.968 194.036 194.83 198.348L196.985 200.935Z" fill="#FFF066"/>
</g>
<path fill-rule="evenodd" clip-rule="evenodd" d="M452.164 289.33C453.026 289.33 453.458 291.055 453.889 291.486C454.32 292.348 454.32 293.642 454.751 294.504C454.751 294.935 455.182 294.935 455.182 295.367C455.182 295.798 455.182 296.229 455.182 296.66C455.182 297.522 454.32 297.954 453.889 298.816C450.871 301.403 446.561 299.678 443.543 297.954C440.095 296.229 437.078 293.642 435.785 289.761C435.354 288.036 436.216 286.311 437.94 285.449C438.802 285.018 439.233 284.587 440.095 284.587C440.526 284.587 440.957 284.156 441.388 284.156C441.819 284.156 441.819 284.156 442.25 284.156C442.681 284.156 442.681 284.156 443.112 283.724C445.699 283.293 447.854 284.587 450.009 285.449C451.302 286.311 454.319 288.036 454.319 289.33C453.457 289.761 453.888 289.761 452.164 289.33Z" fill="white"/>
<g style="mix-blend-mode:color-dodge" opacity="0.5">
<path fill-rule="evenodd" clip-rule="evenodd" d="M105.606 385.486C96.123 380.311 88.7953 376.862 88.7953 376.862C94.3989 289.761 137.503 213.871 200.867 163.853L221.557 159.541C252.162 151.348 274.576 134.963 287.077 124.183L298.715 112.972C331.905 103.055 366.82 98.743 403.459 101.33C566.394 112.11 690.105 253.11 679.329 416.1C668.552 579.091 527.6 702.843 364.665 692.063C273.714 686.026 195.264 639.889 145.262 571.76C147.849 566.155 150.435 558.393 152.159 548.476C148.28 562.705 145.262 571.76 145.262 571.76V559.256C137.935 472.155 105.606 385.486 105.606 385.486ZM510.358 499.751L515.962 513.549C554.325 465.687 525.445 390.66 525.445 390.66C525.445 390.66 525.445 390.66 525.445 391.091C515.531 402.733 507.341 414.807 502.6 426.018C502.169 426.449 502.169 427.311 501.737 427.742C498.72 435.504 496.996 443.696 497.427 451.458C499.582 463.962 503.893 481.641 510.358 499.751Z" fill="url(#paint5_linear_49:9397)"/>
</g>
<defs>
<radialGradient id="paint0_radial_49:9397" cx="0" cy="0" r="1" gradientUnits="userSpaceOnUse" gradientTransform="translate(388.84 388.784) rotate(180) scale(389.017 389.149)">
<stop offset="0.0378378" stop-color="#FF0000"/>
<stop offset="0.1472" stop-color="#FB0000"/>
<stop offset="0.2667" stop-color="#ED0000"/>
<stop offset="0.3911" stop-color="#D80000"/>
<stop offset="0.5187" stop-color="#B90000"/>
<stop offset="0.6489" stop-color="#910000"/>
<stop offset="0.7813" stop-color="#610000"/>
<stop offset="0.9129" stop-color="#290000"/>
<stop offset="1"/>
</radialGradient>
<radialGradient id="paint1_radial_49:9397" cx="0" cy="0" r="1" gradientUnits="userSpaceOnUse" gradientTransform="translate(388.838 388.783) rotate(180) scale(325.105 325.215)">
<stop offset="0.6541" stop-color="#FF2000"/>
<stop offset="0.6934" stop-color="#FB1F00"/>
<stop offset="0.7364" stop-color="#ED1E00"/>
<stop offset="0.7811" stop-color="#D81B00"/>
<stop offset="0.8269" stop-color="#B91700"/>
<stop offset="0.8738" stop-color="#911200"/>
<stop offset="0.9214" stop-color="#610C00"/>
<stop offset="0.9687" stop-color="#290500"/>
<stop offset="1"/>
</radialGradient>
<radialGradient id="paint2_radial_49:9397" cx="0" cy="0" r="1" gradientUnits="userSpaceOnUse" gradientTransform="translate(388.84 388.784) rotate(180) scale(282.473 282.569)">
<stop offset="0.827" stop-color="#06A2FF"/>
<stop offset="0.8467" stop-color="#069FFB"/>
<stop offset="0.8682" stop-color="#0697ED"/>
<stop offset="0.8905" stop-color="#0589D8"/>
<stop offset="0.9135" stop-color="#0475B9"/>
<stop offset="0.9369" stop-color="#035C91"/>
<stop offset="0.9607" stop-color="#023E61"/>
<stop offset="0.9843" stop-color="#011A29"/>
<stop offset="1"/>
</radialGradient>
<radialGradient id="paint3_radial_49:9397" cx="0" cy="0" r="1" gradientUnits="userSpaceOnUse" gradientTransform="translate(437.557 297.49) rotate(-176.22) scale(348.609 348.726)">
<stop stop-color="#FFC827"/>
<stop offset="0.3703" stop-color="#FF9E25"/>
<stop offset="0.8703" stop-color="#FF741F"/>
<stop offset="0.9973" stop-color="#FF9543"/>
</radialGradient>
<radialGradient id="paint4_radial_49:9397" cx="0" cy="0" r="1" gradientUnits="userSpaceOnUse" gradientTransform="translate(249.86 142.368) rotate(-176.22) scale(40.6316 40.6452)">
<stop stop-color="#FF27DC"/>
<stop offset="1" stop-color="#B71FFF"/>
</radialGradient>
<linearGradient id="paint5_linear_49:9397" x1="384.555" y1="692.191" x2="384.555" y2="100.271" gradientUnits="userSpaceOnUse">
<stop stop-color="#FF0097"/>
<stop offset="1"/>
</linearGradient>
</defs>
</svg>
