<svg width="676" height="676" viewBox="0 0 676 676" fill="none" xmlns="http://www.w3.org/2000/svg">
<g clip-path="url(#clip0_49:9378)">
<path opacity="0.5" d="M337.997 676.006C151.323 676.006 -0.00628662 524.677 -0.00628662 338.003C-0.00628662 151.329 151.323 0 337.997 0C524.671 0 676 151.329 676 338.003C676 524.677 524.671 676.006 337.997 676.006Z" fill="url(#paint0_radial_49:9378)"/>
<g style="mix-blend-mode:screen">
<path d="M338 608.085C188.836 608.085 67.9151 487.164 67.9151 338C67.9151 188.836 188.836 67.915 338 67.915C487.164 67.915 608.085 188.836 608.085 338C608.085 487.164 487.164 608.085 338 608.085Z" fill="url(#paint1_radial_49:9378)"/>
</g>
<path d="M565.438 368.467C565.438 219.302 444.517 98.3816 295.353 98.3816C246.27 98.3816 200.288 111.539 160.626 134.42C208.083 93.0379 270.09 67.9136 338.002 67.9136C487.166 67.9136 608.087 188.834 608.087 337.999C608.087 438.08 553.604 525.388 472.723 572.045C529.506 522.54 565.438 449.719 565.438 368.467Z" fill="#DFAB45"/>
<path d="M478.117 521.814C583.593 416.339 583.593 245.327 478.117 139.851C443.414 105.149 401.591 81.94 357.367 70.0679C420.187 74.3655 481.797 100.448 529.815 148.466C635.291 253.941 635.291 424.953 529.815 530.429C459.042 601.195 358.791 624.41 268.603 600.212C343.768 605.354 420.666 579.272 478.117 521.814Z" fill="#DE007B"/>
<path opacity="0.4" d="M125.078 171.928C120.497 191.639 117.995 212.157 117.995 233.261C117.995 382.425 238.916 503.346 388.08 503.346C474.607 503.346 551.568 462.612 600.997 399.326C573.207 518.929 466.049 608.078 337.989 608.078C188.825 608.078 67.9039 487.157 67.9039 337.993C67.9102 275.355 89.2914 217.746 125.078 171.928Z" fill="url(#paint2_radial_49:9378)"/>
<g style="mix-blend-mode:screen" opacity="0.4">
<path d="M74.1174 390.742C86.2731 406.924 100.376 422.029 116.546 435.603C230.793 531.506 401.156 516.634 497.059 402.387C552.69 336.12 570.97 250.98 554.278 172.431C628.018 270.609 627.401 410.006 545.071 508.09C449.167 622.337 278.805 637.209 164.557 541.305C116.577 501.032 86.2038 447.613 74.1174 390.742Z" fill="url(#paint3_radial_49:9378)"/>
</g>
<g opacity="0.5">
<path opacity="0.5" d="M140.527 219.082C181.701 243.992 222.876 268.896 264.05 293.806C276.407 301.28 289.143 309.107 297.31 321.016C305.483 332.926 307.796 350.136 298.772 361.409C289.83 372.588 273.736 374.221 259.437 374.977C234.968 376.269 210.493 377.56 186.024 378.852C166.855 379.86 142.625 385.034 139.147 403.914C136.74 416.951 146.224 431.647 139.267 442.933C136.21 447.886 130.64 450.696 125.113 452.543C115.151 455.87 104.942 456.677 94.8092 455.637C77.5744 420.077 67.9015 380.169 67.9015 338.005C67.9015 285.375 83.0063 236.298 109.044 194.771C117.413 204.954 129.134 212.188 140.527 219.082Z" fill="url(#paint4_radial_49:9378)"/>
<g style="mix-blend-mode:multiply" opacity="0.5">
<path d="M310.617 606.715C316.282 603.173 323.39 600.861 329.817 599.197C342.685 595.87 358.181 588.938 358.238 575.642C358.256 571.243 356.404 567.053 354.223 563.234C335.672 530.749 295.619 519.199 262.845 501.176C254.445 496.557 245.276 489.279 246.353 479.757C247.028 473.809 251.653 469.12 256.36 465.421C280.483 446.485 313.37 440.7 343.542 446.189C373.714 451.677 401.284 467.583 424.328 487.817C434.077 496.381 443.517 505.984 455.71 510.421C467.904 514.857 483.985 512.091 489.928 500.559C494.654 491.377 491.597 480.047 494.484 470.135C499.323 453.524 519.992 445.924 536.912 449.548C550.769 452.509 562.578 460.884 573.612 470.015C527.353 552.395 439.206 608.095 338.003 608.095C328.753 608.089 319.622 607.616 310.617 606.715Z" fill="url(#paint5_radial_49:9378)"/>
</g>
<g style="mix-blend-mode:screen" opacity="0.5">
<path d="M606.856 312.573C598.853 315.088 591.14 318.541 584.158 322.712C555.379 339.922 533.065 366.439 504.336 383.73C480.586 398.029 452.802 405.559 425.082 405.212C411.281 405.042 396.996 402.761 385.564 395.035C374.127 387.31 366.275 373.119 369.243 359.64C373.825 338.851 399.894 329.442 407.355 309.511C414.923 289.283 399.737 266.874 380.952 256.212C362.167 245.55 340.08 242.437 320.179 234.037C299.977 225.511 282.156 211.421 269.194 193.732C254.908 174.235 246.716 147.592 257.139 125.789C267.335 104.458 291.47 94.3249 309.19 78.6718C312.744 75.5336 316.052 72.156 319.215 68.6397C325.422 68.2112 331.667 67.915 337.988 67.915C478.582 67.9087 594.033 175.338 606.856 312.573Z" fill="url(#paint6_radial_49:9378)"/>
</g>
</g>
<path opacity="0.4" d="M317.452 296.498C317.452 308.37 327.075 317.993 338.947 317.993C350.819 317.993 360.441 308.37 360.441 296.498C360.441 284.626 350.819 275.003 338.947 275.003C327.075 275.003 317.452 284.632 317.452 296.498Z" fill="url(#paint7_radial_49:9378)"/>
<path opacity="0.4" d="M213.72 209.591C207.01 209.591 201.57 204.152 201.57 197.442C201.57 190.732 207.01 185.292 213.72 185.292C220.43 185.292 225.869 190.732 225.869 197.442C225.869 204.152 220.43 209.591 213.72 209.591Z" fill="url(#paint8_radial_49:9378)"/>
<path opacity="0.4" d="M151.104 489.943C151.104 504.393 162.819 516.107 177.269 516.107C191.718 516.107 203.433 504.393 203.433 489.943C203.433 475.494 191.718 463.779 177.269 463.779C162.819 463.779 151.104 475.494 151.104 489.943Z" fill="url(#paint9_radial_49:9378)"/>
<path opacity="0.4" d="M302.495 415.181C302.495 421.375 307.517 426.397 313.711 426.397C319.906 426.397 324.922 421.375 324.922 415.181C324.922 408.986 319.9 403.964 313.711 403.964C307.517 403.97 302.495 408.986 302.495 415.181Z" fill="url(#paint10_radial_49:9378)"/>
<path opacity="0.4" d="M448.276 461.901C448.276 467.062 452.461 471.247 457.622 471.247C462.783 471.247 466.967 467.062 466.967 461.901C466.967 456.74 462.783 452.556 457.622 452.556C452.461 452.556 448.276 456.74 448.276 461.901Z" fill="url(#paint11_radial_49:9378)"/>
</g>
<defs>
<radialGradient id="paint0_radial_49:9378" cx="0" cy="0" r="1" gradientUnits="userSpaceOnUse" gradientTransform="translate(337.999 338.001) rotate(180) scale(338.001)">
<stop offset="0.0222" stop-color="#E43D99"/>
<stop offset="0.4741" stop-color="#E43D99"/>
<stop offset="0.837" stop-color="#E44099" stop-opacity="0.5"/>
<stop offset="1" stop-color="#E47E99" stop-opacity="0"/>
</radialGradient>
<radialGradient id="paint1_radial_49:9378" cx="0" cy="0" r="1" gradientUnits="userSpaceOnUse" gradientTransform="translate(432.459 134.497) rotate(180) scale(571.547)">
<stop stop-color="#D1E1EE"/>
<stop offset="0.337" stop-color="#8EE1EE"/>
<stop offset="0.9444" stop-color="#732FA4"/>
</radialGradient>
<radialGradient id="paint2_radial_49:9378" cx="0" cy="0" r="1" gradientUnits="userSpaceOnUse" gradientTransform="translate(304.226 368.519) rotate(180) scale(473.856)">
<stop offset="0.0074" stop-color="#B30058"/>
<stop offset="1" stop-color="#5C2D7D"/>
</radialGradient>
<radialGradient id="paint3_radial_49:9378" cx="0" cy="0" r="1" gradientUnits="userSpaceOnUse" gradientTransform="translate(339.871 379.928) rotate(130.01) scale(473.858)">
<stop offset="0.0074" stop-color="#B30058"/>
<stop offset="1" stop-color="#5C2D7D"/>
</radialGradient>
<radialGradient id="paint4_radial_49:9378" cx="0" cy="0" r="1" gradientUnits="userSpaceOnUse" gradientTransform="translate(496.607 -168.097) rotate(180) scale(456.96 456.96)">
<stop stop-color="#D1E1EE"/>
<stop offset="0.337" stop-color="#8EE1EE"/>
<stop offset="0.9444" stop-color="#732FA4"/>
</radialGradient>
<radialGradient id="paint5_radial_49:9378" cx="0" cy="0" r="1" gradientUnits="userSpaceOnUse" gradientTransform="translate(496.612 -168.092) rotate(180) scale(456.961)">
<stop stop-color="#D1E1EE"/>
<stop offset="0.337" stop-color="#8EE1EE"/>
<stop offset="0.9444" stop-color="#732FA4"/>
</radialGradient>
<radialGradient id="paint6_radial_49:9378" cx="0" cy="0" r="1" gradientUnits="userSpaceOnUse" gradientTransform="translate(496.609 -168.097) rotate(180) scale(456.963)">
<stop stop-color="#D1E1EE"/>
<stop offset="0.337" stop-color="#8EE1EE"/>
<stop offset="0.9444" stop-color="#732FA4"/>
</radialGradient>
<radialGradient id="paint7_radial_49:9378" cx="0" cy="0" r="1" gradientUnits="userSpaceOnUse" gradientTransform="translate(328.668 220.805) rotate(180) scale(456.763)">
<stop offset="0.0074" stop-color="#B30058"/>
<stop offset="1" stop-color="#5C2D7D"/>
</radialGradient>
<radialGradient id="paint8_radial_49:9378" cx="0" cy="0" r="1" gradientUnits="userSpaceOnUse" gradientTransform="translate(328.667 220.804) rotate(180) scale(456.77 456.77)">
<stop offset="0.0074" stop-color="#B30058"/>
<stop offset="1" stop-color="#5C2D7D"/>
</radialGradient>
<radialGradient id="paint9_radial_49:9378" cx="0" cy="0" r="1" gradientUnits="userSpaceOnUse" gradientTransform="translate(328.662 220.804) rotate(180) scale(456.765 456.766)">
<stop offset="0.0074" stop-color="#B30058"/>
<stop offset="1" stop-color="#5C2D7D"/>
</radialGradient>
<radialGradient id="paint10_radial_49:9378" cx="0" cy="0" r="1" gradientUnits="userSpaceOnUse" gradientTransform="translate(328.663 220.802) rotate(180) scale(456.77 456.77)">
<stop offset="0.0074" stop-color="#B30058"/>
<stop offset="1" stop-color="#5C2D7D"/>
</radialGradient>
<radialGradient id="paint11_radial_49:9378" cx="0" cy="0" r="1" gradientUnits="userSpaceOnUse" gradientTransform="translate(328.661 220.796) rotate(180) scale(456.767 456.766)">
<stop offset="0.0074" stop-color="#B30058"/>
<stop offset="1" stop-color="#5C2D7D"/>
</radialGradient>
<clipPath id="clip0_49:9378">
<rect width="676" height="676" fill="white" transform="matrix(-1 0 0 1 676 0)"/>
</clipPath>
</defs>
</svg>
