<svg width="415" height="415" viewBox="0 0 415 415" fill="none" xmlns="http://www.w3.org/2000/svg">
<g clip-path="url(#clip0_49:9302)">
<g style="mix-blend-mode:hard-light">
<path d="M207.502 415.004C322.102 415.004 415.004 322.102 415.004 207.502C415.004 92.9018 322.102 0 207.502 0C92.9018 0 0 92.9018 0 207.502C0 322.102 92.9018 415.004 207.502 415.004Z" fill="url(#paint0_radial_49:9302)"/>
</g>
<g style="mix-blend-mode:color-dodge" opacity="0.5">
<path d="M207.504 372.913C298.857 372.913 372.913 298.857 372.913 207.504C372.913 116.151 298.857 42.0947 207.504 42.0947C116.151 42.0947 42.0947 116.151 42.0947 207.504C42.0947 298.857 116.151 372.913 207.504 372.913Z" fill="url(#paint1_radial_49:9302)"/>
</g>
<path d="M207.502 361.206C292.39 361.206 361.206 292.39 361.206 207.502C361.206 122.613 292.39 53.7974 207.502 53.7974C122.613 53.7974 53.7974 122.613 53.7974 207.502C53.7974 292.39 122.613 361.206 207.502 361.206Z" fill="url(#paint2_radial_49:9302)"/>
<g style="mix-blend-mode:multiply">
<path d="M230.836 289.994C233.262 292.224 233.549 296.199 231.992 298.961C231.914 299.101 231.836 299.24 231.754 299.379C229.365 303.621 223.295 304.277 219.922 300.904C216.545 297.527 217.205 291.466 221.447 289.072C221.586 288.994 221.726 288.916 221.865 288.835C224.828 287.171 228.381 287.74 230.836 289.994ZM151.289 155.793C143.019 166.502 142.781 183.174 153.064 192.915C159.293 198.813 167.137 201.731 175.715 200.575C181.788 199.759 187.223 197.21 191.501 192.645C193.763 190.227 195.513 187.624 196.915 184.694C197.251 183.993 197.616 183.321 197.993 182.645C198.726 181.321 198.685 181.391 199.648 179.112C201.042 175.809 201.337 172.822 201.812 169.277C201.8 164.887 200.693 160.797 198.493 157.006C196.329 153.355 193.423 150.445 189.772 148.285C184.608 145.265 179.161 144.56 173.793 145.482C170.83 145.269 167.809 145.56 165.072 146.224C159.219 147.638 154.855 151.175 151.289 155.793ZM108.233 160.621C107.299 160.457 106.356 160.351 105.418 160.232C105.311 160.203 105.114 160.162 104.75 160.084C104.241 159.978 103.741 159.826 103.233 159.724C101.282 159.334 99.7087 159.478 97.7129 159.789C95.6802 160.109 93.1802 162.228 92.2458 163.994C91.0819 166.195 90.7008 168.588 91.3237 171.043C92.3565 175.117 96.2867 178.588 99.7128 180.821C103.848 183.514 109.696 182.387 113.106 179.092C114.192 178.039 114.995 176.838 115.581 175.457C116.069 174.305 116.376 173.067 116.389 171.797C116.401 170.92 115.725 166.043 116.343 171.277C116.044 168.748 115.577 166.662 113.971 164.58C112.618 162.83 110.499 161.019 108.233 160.621ZM121.393 321.157C124.802 323.141 129.577 324.444 133.532 324.358C145.879 324.092 157.043 315.617 159.969 303.465C162.502 292.945 158.662 281.597 148.99 276.064C145.06 273.814 140.466 272.663 135.949 272.782C133.79 272.839 131.171 273.204 129.089 273.835C125.044 275.064 122.089 277.22 118.819 279.909C116.413 281.888 114.462 285.392 113.327 288.962C111.614 291.757 110.573 294.732 110.122 298.109C109.208 304.9 110.934 312.166 116.048 317.092C117.622 318.6 119.511 320.059 121.393 321.157ZM127.737 181.178C122.851 181.178 118.171 185.473 118.397 190.518C118.622 195.579 122.503 199.858 127.737 199.858C132.622 199.858 137.306 195.563 137.076 190.518C136.851 185.456 132.974 181.178 127.737 181.178ZM125.634 271.089C132.491 271.089 132.503 260.434 125.634 260.434C118.778 260.434 118.766 271.089 125.634 271.089ZM128.933 210.788C121.007 215.898 116.27 227.746 122.245 236.299C123.901 238.668 125.679 240.959 127.474 243.221C129.355 245.594 131.859 247.336 134.343 249.049C139.011 252.262 145.605 253.897 151.289 252.5C154.719 252.09 157.883 250.504 160.207 247.491C161.785 245.446 162.461 243.447 162.797 240.963C162.92 240.053 162.94 239.205 162.887 238.393C163.453 231.32 159.805 224.718 155.375 218.832C155.838 219.431 156.297 220.025 156.76 220.623C155.965 219.591 155.195 218.546 154.449 217.476C151.621 213.427 148.203 210.255 143.306 208.907C138.839 207.677 132.896 208.234 128.933 210.788ZM101.627 233.746C97.5449 221.73 86.746 213.89 73.8611 215.619C69.7424 216.173 65.6688 217.898 62.1525 220.435C61.8123 220.599 61.4722 220.701 61.1361 220.894C58.7427 222.267 56.7018 223.98 54.9314 225.902C57.46 247.065 64.2794 266.901 74.5087 284.527C85.1682 285.826 96.0572 281.093 101.717 270.778C107.385 260.45 105.286 244.512 101.627 233.746ZM164.539 280.023C164.699 280.072 164.863 280.126 165.022 280.175C168.907 281.392 172.891 278.101 172.891 274.183C172.891 270.265 168.903 266.975 165.022 268.192C164.863 268.241 164.699 268.294 164.539 268.343C158.789 270.142 158.781 278.216 164.539 280.023ZM335.8 250.479C329.349 252.213 324.145 255.856 320.633 262.483C320.333 263.048 320.051 263.634 319.76 264.212C319.715 264.253 319.682 264.274 319.633 264.315C310.633 272.257 310.842 287.019 317.747 295.961C320.223 299.166 323.682 301.748 327.55 303.437C340.013 287.863 349.496 269.819 355.168 250.147C349.046 246.901 342.243 247.869 335.8 250.479ZM146.388 101.533C151.383 108.877 159.055 114.954 166.174 118.643C177.702 124.618 190.821 126.929 202.788 120.421C209.976 116.512 215.406 110.229 218.951 102.922C222.525 95.5574 225.631 88.4388 225.738 80.1563C225.877 69.2222 219.693 60.1077 211.32 53.8947C210.05 53.862 208.783 53.7964 207.505 53.7964C183.378 53.7964 160.559 59.37 140.24 69.2754C136.277 80.0702 137.781 93.0493 146.388 101.533ZM336.747 217.664C336.62 217.365 336.493 217.066 336.37 216.767C337.98 221.431 337.894 226.336 335.247 230.857C332.21 236.045 326.784 238.926 320.858 239.111C314.555 239.303 308.608 236.553 304.772 231.59C301.797 227.738 300.072 223.185 300.285 218.226C300.506 213.124 301.986 207.952 305.797 204.345C308.096 202.173 310.936 200.501 313.993 199.673C319.026 198.309 324.78 200.28 327.886 204.48C328.046 204.628 328.222 204.751 328.374 204.907C328.8 205.349 329.165 205.796 329.505 206.243C330.087 206.808 330.702 207.345 331.263 207.935C333.771 210.579 335.267 212.947 336.353 216.419C336.48 216.841 336.579 217.251 336.747 217.664ZM246.241 228.607C242.959 222.582 236.791 217.353 231.43 213.214C220.73 204.948 206.964 204.632 196.235 212.919C194.726 214.083 193.419 215.398 192.218 216.787C190.042 218.759 188.35 221.209 187.415 224.054C185.677 227.435 184.284 231.045 182.989 234.664C180.292 242.201 178.407 251.286 180.559 259.098C186.755 281.593 211.263 282.077 229.758 277.736C241.471 274.987 249.893 262.184 248.614 250.303C250.647 243.467 250.294 236.045 246.241 228.607ZM298.506 148.888C302.719 163.162 316.411 168.223 329.505 171.236C339.448 173.522 348.812 170.059 354.779 163.498C348.443 142.265 337.644 122.975 323.469 106.684C322.464 107.057 321.489 107.487 320.583 108.037C317.887 108.176 315.239 108.955 312.85 110.598C301.248 118.598 294.4 134.962 298.506 148.888ZM347.677 184.239C338.915 184.239 338.902 197.854 347.677 197.854C356.439 197.854 356.451 184.239 347.677 184.239ZM168.231 140.478C168.362 140.4 168.489 140.323 168.621 140.245C173.141 137.532 173.141 130.901 168.621 128.188C168.489 128.11 168.362 128.032 168.231 127.954C163.498 125.114 157.322 128.765 157.322 134.216C157.318 139.667 163.494 143.322 168.231 140.478ZM184.366 359.459C187.415 356.41 189.71 351.406 189.513 347.03C189.309 342.48 187.817 337.767 184.366 334.6C180.928 331.44 176.698 329.448 171.936 329.448C167.428 329.448 162.69 331.411 159.506 334.6C156.457 337.649 154.162 342.653 154.359 347.03C154.437 348.726 154.764 350.427 155.232 352.083C164.555 355.456 174.293 357.955 184.354 359.476C184.358 359.468 184.362 359.464 184.366 359.459ZM62.341 201.923C73.3202 201.431 82.1273 193.149 82.3199 181.944C82.3773 178.555 82.7051 176.174 81.8199 172.51C80.8486 168.498 78.8528 165.391 76.3324 162.154C72.7177 158.252 67.808 156.121 62.4762 156.58C57.6567 170.309 54.706 184.92 53.9888 200.12C56.5666 201.37 59.4025 202.054 62.341 201.923ZM78.2708 164.576C77.6848 163.711 77.0373 162.924 76.3529 162.178C77.2217 163.305 78.0905 164.428 78.9634 165.555C78.7216 165.24 78.4921 164.912 78.2708 164.576ZM76.1561 161.924C76.2176 162.002 76.2668 162.08 76.3283 162.154C76.3365 162.162 76.3447 162.17 76.3529 162.178C76.2873 162.096 76.2217 162.01 76.1561 161.924ZM91.795 113.057C91.3606 114.971 91.0983 117.036 91.0655 119.122C90.4754 122.733 90.332 126.401 91.3196 129.987C92.8893 135.692 96.8645 140.757 102.016 143.634C113.126 149.839 127.659 145.818 134.15 134.921C139.158 126.516 138.24 115.569 132.638 107.721C131.232 105.119 129.314 103.029 126.884 101.451C125.63 100.303 124.233 99.3975 122.72 98.6803C117.077 95.5697 109.975 95.2788 103.672 98.7623C103.475 98.8729 103.299 99.0164 103.102 99.1311C102.754 99.3196 102.389 99.4918 102.065 99.7008C97.2949 102.779 93.0942 107.36 91.795 113.057ZM301.268 329.255C295.006 334.087 288.375 338.46 281.4 342.292C276.408 343.28 270.962 343.144 266.196 341.706C257.704 339.14 250.868 333.218 247.426 325.051C243.803 316.465 245.237 307.826 250.11 300.56C250.02 300.678 249.93 300.793 249.84 300.912C249.938 300.777 250.036 300.658 250.135 300.523C251.032 299.187 252.007 297.883 253.13 296.65C252.885 296.965 252.643 297.285 252.397 297.601C254.471 295.064 256.667 292.884 259.782 291.056C266.343 287.208 273.99 287.203 280.621 290.839C280.802 290.859 280.986 290.88 281.166 290.904C284.589 290.962 288.142 291.88 290.965 293.072C294.916 294.74 297.957 297.08 300.576 300.474C303.805 304.654 305.735 309.686 305.735 315.035C305.735 319.313 304.285 323.366 302.453 327.161C302.121 327.858 301.715 328.563 301.268 329.255ZM289.543 306.576C289.531 306.49 289.519 306.4 289.506 306.313C289.506 306.318 289.506 306.322 289.506 306.326C289.519 306.408 289.535 306.49 289.543 306.576ZM239.254 353.107C238.975 346.853 234.18 341.567 227.709 341.567C221.672 341.567 215.886 346.874 216.168 353.107C216.3 356.005 217.427 358.669 219.213 360.722C225.611 360.238 231.914 359.402 238.069 358.16C238.864 356.615 239.336 354.91 239.254 353.107ZM215.562 321.469C216.148 319.448 216.148 317.309 215.562 315.289C213.841 309.342 207.361 305.359 201.259 307.166C201.066 307.223 200.87 307.281 200.677 307.338C196.021 308.715 192.046 313.321 192.272 318.379C192.501 323.502 195.677 327.936 200.677 329.419C200.87 329.477 201.066 329.534 201.259 329.591C207.341 331.395 213.836 327.419 215.562 321.469ZM259.819 211.599C266.462 213.431 272.585 211.255 277.613 206.894C285.863 199.743 288.74 186.026 282.933 176.535C277.876 168.268 265.556 163.793 256.95 169.723C251.614 173.399 248.249 177.871 246.586 184.198C245.299 189.1 245.311 194.059 247.045 198.825C249.274 204.96 253.29 209.8 259.819 211.599ZM278.38 144.138C276.13 145.089 274.318 147.458 274.433 150.003C274.687 155.658 281.187 158.322 285.392 154.543C285.482 154.461 285.576 154.375 285.67 154.293C288.019 152.183 288.015 147.822 285.67 145.712C285.576 145.63 285.486 145.548 285.392 145.462C283.445 143.712 280.83 143.101 278.38 144.138ZM237.324 137.179C236.967 136.86 236.619 136.54 236.307 136.167C235.188 135.302 234.07 134.437 232.955 133.577C231.053 132.368 229 131.712 226.791 131.61C223.258 131.134 219.308 131.585 216.222 133.577C213.824 135.122 211.82 137.126 210.275 139.523C207.956 143.122 207.591 148.249 208.603 152.293C209.955 157.679 213.546 163.281 218.648 165.789C222.623 167.744 227.406 168.936 231.811 167.51C235.414 166.346 238.36 164.396 240.684 161.387C245.934 154.593 245.254 145.199 239.348 138.958C238.737 138.302 238.033 137.737 237.324 137.179ZM272.945 84.316C267.413 80.5538 259.278 81.0538 253.696 84.316C253.598 84.3733 253.499 84.4307 253.401 84.4881C247.081 88.1806 244.241 94.7378 244.45 101.578C243.606 103.84 243.221 106.344 243.028 108.59C242.959 109.409 242.967 110.205 243.036 111.024C243.127 112.049 243.25 113.008 243.422 113.946C243.438 114.081 243.471 114.217 243.491 114.352C244.184 119.475 247.729 124.29 252.114 126.798C255.261 128.597 258.868 129.458 262.462 129.638C270.15 130.032 277.765 124.721 281.687 118.434C285.072 113.008 286.195 105.865 284.457 99.6598C282.572 92.9469 278.605 88.1683 272.945 84.316ZM177.198 310.6C186.149 310.6 186.165 296.691 177.198 296.691C168.248 296.691 168.231 310.6 177.198 310.6ZM272.962 233.648C280.388 233.648 280.4 222.103 272.962 222.103C265.536 222.107 265.523 233.648 272.962 233.648ZM282.388 271.687C288.572 273.064 294.355 269.442 295.65 263.499C295.883 262.368 296.215 261.95 296.236 259.962C296.256 258.118 295.863 256.729 295.281 255.262C295.396 255.536 295.51 255.807 295.625 256.081C295.273 254.975 294.793 253.692 294.187 252.704C290.297 246.328 281.896 245.479 276.515 250.426C273.142 253.528 271.937 258.762 273.208 263.077C274.454 267.306 278.064 270.724 282.388 271.687ZM218.238 194.989C227.377 194.989 227.393 180.784 218.238 180.784C209.099 180.784 209.083 194.989 218.238 194.989Z" fill="url(#paint3_radial_49:9302)"/>
</g>
<path d="M227.075 295.251C227.214 295.173 227.353 295.096 227.493 295.018C229.21 294.051 231.124 293.854 232.91 294.288C232.734 292.665 232.054 291.108 230.837 289.989C228.382 287.735 224.829 287.165 221.87 288.833C221.73 288.911 221.591 288.989 221.452 289.071C217.21 291.465 216.55 297.522 219.927 300.903C220.931 301.907 222.181 302.509 223.493 302.813C223.103 299.899 224.321 296.805 227.075 295.251Z" fill="url(#paint4_radial_49:9302)"/>
<path d="M127.471 243.216C128.447 244.45 129.594 245.507 130.82 246.482C129.807 245.167 128.816 243.835 127.865 242.478C121.894 233.925 126.627 222.077 134.553 216.967C138.516 214.414 144.459 213.86 148.922 215.086C151.229 215.721 153.188 216.791 154.934 218.135C154.774 217.909 154.602 217.696 154.446 217.471C151.618 213.422 148.2 210.25 143.303 208.902C138.84 207.672 132.897 208.225 128.934 210.783C121.008 215.893 116.271 227.741 122.246 236.294C123.898 238.663 125.676 240.954 127.471 243.216Z" fill="url(#paint5_radial_49:9302)"/>
<path d="M163.062 141.239C163.029 140.956 162.943 140.694 162.943 140.403C162.943 135.678 167.586 132.321 171.906 133.358C171.66 131.325 170.602 129.379 168.623 128.194C168.492 128.116 168.365 128.039 168.234 127.961C163.5 125.121 157.324 128.772 157.324 134.223C157.32 137.755 159.935 140.501 163.062 141.239Z" fill="url(#paint6_radial_49:9302)"/>
<path d="M217.063 194.869C216.69 191.07 218.944 186.964 223.858 186.964C224.276 186.964 224.653 187.025 225.034 187.078C224.715 183.816 222.469 180.779 218.239 180.779C209.514 180.779 209.121 193.689 217.063 194.869Z" fill="url(#paint7_radial_49:9302)"/>
<path d="M188.613 240.844C189.908 237.225 191.301 233.619 193.039 230.237C193.973 227.397 195.666 224.947 197.842 222.971C199.039 221.578 200.35 220.266 201.858 219.103C212.587 210.812 226.353 211.131 237.054 219.398C239.345 221.168 241.775 223.148 244.074 225.295C240.632 220.66 235.779 216.574 231.431 213.213C220.731 204.947 206.965 204.632 196.235 212.918C194.727 214.082 193.42 215.398 192.219 216.787C190.043 218.758 188.35 221.209 187.416 224.053C185.678 227.434 184.285 231.045 182.99 234.664C180.293 242.2 178.408 251.286 180.56 259.097C182.31 265.45 185.551 269.995 189.67 273.224C188.219 270.941 187.018 268.331 186.182 265.282C184.027 257.466 185.912 248.38 188.613 240.844Z" fill="url(#paint8_radial_49:9302)"/>
<path d="M124.493 199.229C124.243 198.413 124.059 197.573 124.022 196.696C123.796 191.651 128.477 187.356 133.362 187.356C134.526 187.356 135.607 187.598 136.607 187.979C135.427 184.11 132.067 181.172 127.739 181.172C122.854 181.172 118.174 185.467 118.399 190.512C118.575 194.45 120.977 197.884 124.493 199.229Z" fill="url(#paint9_radial_49:9302)"/>
<path d="M176.154 310.496C175.846 306.812 178.055 302.874 182.817 302.874C183.186 302.874 183.522 302.931 183.862 302.976C183.592 299.734 181.391 296.689 177.199 296.689C168.617 296.689 168.273 309.439 176.154 310.496Z" fill="url(#paint10_radial_49:9302)"/>
<path d="M153.061 192.907C153.667 193.48 154.303 194.001 154.938 194.517C148.655 184.698 149.815 171.145 156.909 161.965C160.475 157.35 164.839 153.81 170.683 152.392C173.421 151.728 176.441 151.437 179.404 151.65C184.777 150.728 190.22 151.433 195.383 154.453C196.281 154.982 197.129 155.559 197.937 156.182C195.834 152.92 193.133 150.265 189.765 148.269C185.228 145.613 180.474 144.748 175.741 145.203C175.31 145.658 174.814 146.068 174.241 146.416C174.109 146.494 173.982 146.572 173.851 146.65C171.175 148.256 168.073 147.74 165.852 146.047C165.593 146.105 165.323 146.146 165.069 146.207C159.221 147.625 154.86 151.166 151.295 155.781C143.016 166.494 142.783 183.169 153.061 192.907Z" fill="url(#paint11_radial_49:9302)"/>
<path d="M170.16 274.522C170.32 274.473 170.484 274.42 170.644 274.371C171.402 274.133 172.156 274.112 172.889 274.186C172.889 274.182 172.889 274.182 172.889 274.182C172.889 270.264 168.902 266.969 165.021 268.186C164.861 268.236 164.697 268.289 164.537 268.338C158.787 270.141 158.779 278.215 164.537 280.022C164.697 280.071 164.861 280.125 165.021 280.174C165.299 280.26 165.574 280.276 165.849 280.317C165.873 277.862 167.303 275.416 170.16 274.522Z" fill="url(#paint12_radial_49:9302)"/>
<path d="M311.412 210.522C313.712 208.35 316.552 206.678 319.609 205.85C324.621 204.489 330.354 206.444 333.465 210.612C332.818 209.714 332.113 208.833 331.256 207.928C330.695 207.333 330.084 206.801 329.498 206.235C329.154 205.784 328.793 205.337 328.367 204.899C328.215 204.743 328.039 204.62 327.879 204.473C324.777 200.272 319.019 198.301 313.986 199.666C310.929 200.497 308.089 202.165 305.79 204.338C301.978 207.944 300.499 213.116 300.277 218.218C300.064 223.177 301.79 227.73 304.765 231.583C305.954 233.119 307.359 234.414 308.896 235.505C306.88 232.169 305.724 228.431 305.896 224.402C306.117 219.3 307.597 214.128 311.412 210.522Z" fill="url(#paint13_radial_49:9302)"/>
<path d="M295.128 312.492C295.128 312.496 295.128 312.5 295.128 312.504C295.137 312.59 295.153 312.672 295.165 312.758C295.153 312.664 295.141 312.578 295.128 312.492Z" fill="url(#paint14_radial_49:9302)"/>
<path d="M130.702 266.668C131.14 263.737 129.456 260.43 125.628 260.43C118.772 260.43 118.76 271.086 125.628 271.086C125.825 271.086 125.993 271.049 126.177 271.032C126.505 268.852 128.026 266.914 130.702 266.668Z" fill="url(#paint15_radial_49:9302)"/>
<path d="M92.2512 163.997C91.0873 166.197 90.7061 168.591 91.3291 171.045C92.1815 174.402 94.997 177.336 97.878 179.517C97.4846 178.775 97.1485 178.017 96.9477 177.226C96.3248 174.775 96.7059 172.382 97.8698 170.177C98.8042 168.41 101.304 166.292 103.337 165.972C105.329 165.66 106.902 165.517 108.857 165.906C109.365 166.009 109.865 166.16 110.374 166.267C110.738 166.341 110.931 166.386 111.042 166.414C111.98 166.529 112.923 166.64 113.857 166.804C114.406 166.902 114.951 167.087 115.476 167.328C115.128 166.39 114.673 165.48 113.98 164.578C112.623 162.824 110.505 161.017 108.238 160.62C107.304 160.456 106.361 160.349 105.423 160.23C105.316 160.202 105.12 160.161 104.755 160.083C104.247 159.976 103.747 159.825 103.239 159.722C101.288 159.333 99.714 159.476 97.7182 159.788C95.6855 160.115 93.1856 162.23 92.2512 163.997Z" fill="url(#paint16_radial_49:9302)"/>
<path d="M307.226 161.833C305.935 159.837 304.874 157.604 304.128 155.067C300.021 141.141 306.865 124.777 318.472 116.781C320.861 115.134 323.513 114.355 326.205 114.22C326.988 113.74 327.832 113.367 328.697 113.027C327.008 110.867 325.267 108.749 323.467 106.683C322.463 107.056 321.488 107.486 320.582 108.036C317.886 108.175 315.238 108.954 312.849 110.597C301.243 118.597 294.399 134.961 298.505 148.883C300.157 154.473 303.271 158.636 307.226 161.833Z" fill="url(#paint17_radial_49:9302)"/>
<path d="M353.299 190.414C353.623 190.414 353.91 190.467 354.209 190.504C353.992 187.287 351.832 184.229 347.676 184.229C339.238 184.229 338.939 196.819 346.767 197.754C346.525 194.184 348.689 190.414 353.299 190.414Z" fill="url(#paint18_radial_49:9302)"/>
<path d="M276.517 250.42C273.144 253.522 271.939 258.756 273.21 263.071C274.144 266.239 276.406 268.956 279.3 270.522C279.123 270.108 278.955 269.69 278.828 269.255C277.558 264.94 278.763 259.702 282.136 256.604C285.853 253.186 290.984 252.6 295.102 254.625C294.836 253.944 294.537 253.272 294.189 252.698C290.299 246.322 281.898 245.473 276.517 250.42Z" fill="url(#paint19_radial_49:9302)"/>
<path d="M115.744 304.289C116.199 300.912 117.24 297.936 118.949 295.141C120.084 291.568 122.035 288.068 124.44 286.088C127.711 283.4 130.666 281.244 134.711 280.015C136.792 279.384 139.411 279.019 141.571 278.962C146.087 278.843 150.681 279.999 154.612 282.244C155.505 282.757 156.292 283.363 157.087 283.97C155.144 280.798 152.456 278.048 148.993 276.064C145.173 273.88 140.727 272.749 136.329 272.798C135.997 275.15 134.313 277.273 131.252 277.273C129.063 277.273 127.58 276.187 126.789 274.716C123.867 275.982 121.432 277.765 118.822 279.908C116.416 281.888 114.465 285.392 113.33 288.961C111.617 291.756 110.576 294.732 110.125 298.109C109.211 304.899 110.937 312.166 116.051 317.092C116.785 317.797 117.596 318.485 118.436 319.137C115.859 314.702 115.064 309.366 115.744 304.289Z" fill="url(#paint20_radial_49:9302)"/>
<path d="M159.978 353.209C159.781 348.828 162.076 343.828 165.125 340.779C168.313 337.591 173.047 335.628 177.555 335.628C181.161 335.628 184.46 336.775 187.346 338.701C186.571 337.193 185.641 335.767 184.366 334.595C180.928 331.435 176.698 329.443 171.936 329.443C167.428 329.443 162.691 331.406 159.506 334.595C156.457 337.644 154.162 342.648 154.359 347.025C154.437 348.721 154.765 350.422 155.232 352.078C156.814 352.652 158.424 353.16 160.031 353.684C160.019 353.525 159.982 353.369 159.978 353.209Z" fill="url(#paint21_radial_49:9302)"/>
<path d="M60.5523 232.083C62.3227 230.161 64.3636 228.448 66.757 227.075C67.0931 226.882 67.4332 226.78 67.7734 226.616C71.2897 224.079 75.3633 222.354 79.482 221.8C86.654 220.837 93.1784 222.846 98.2602 226.886C92.9775 218.907 84.0844 214.247 73.8634 215.62C69.7446 216.174 65.671 217.899 62.1547 220.436C61.8145 220.6 61.4744 220.702 61.1383 220.895C58.745 222.268 56.704 223.981 54.9336 225.903C57.4622 247.066 64.2817 266.902 74.5109 284.528C75.2772 284.622 76.0436 284.614 76.81 284.647C68.425 268.578 62.794 250.857 60.5523 232.083Z" fill="url(#paint22_radial_49:9302)"/>
<path d="M68.0907 162.763C71.984 162.427 75.6438 163.484 78.7461 165.591C78.0084 164.435 77.2134 163.296 76.3241 162.152C72.7094 158.251 67.7997 156.12 62.4679 156.579C57.6484 170.308 54.6977 184.918 53.9805 200.118C55.837 201.016 57.8328 201.61 59.8942 201.831C60.9393 188.238 63.7466 175.144 68.0907 162.763Z" fill="url(#paint23_radial_49:9302)"/>
<path d="M197.888 324.562C197.663 319.505 201.638 314.903 206.294 313.521C206.486 313.464 206.683 313.407 206.876 313.349C209.732 312.501 212.65 312.96 215.142 314.255C213.003 308.903 206.99 305.464 201.253 307.165C201.06 307.222 200.864 307.28 200.671 307.337C196.015 308.714 192.04 313.321 192.265 318.378C192.466 322.82 194.884 326.738 198.782 328.669C198.274 327.382 197.954 326.005 197.888 324.562Z" fill="url(#paint24_radial_49:9302)"/>
<path d="M325.256 270.502C325.305 270.457 325.334 270.437 325.383 270.4C325.674 269.818 325.957 269.236 326.256 268.67C329.768 262.044 334.973 258.396 341.423 256.667C345.509 255.011 349.739 254.027 353.849 254.347C354.296 252.95 354.767 251.564 355.173 250.155C349.05 246.905 342.251 247.872 335.805 250.486C329.354 252.22 324.149 255.863 320.637 262.49C320.338 263.056 320.055 263.642 319.764 264.22C319.719 264.261 319.686 264.281 319.637 264.322C310.637 272.265 310.846 287.026 317.752 295.969C318.965 297.538 320.416 298.952 322.03 300.19C316.486 291.17 316.887 277.887 325.256 270.502Z" fill="url(#paint25_radial_49:9302)"/>
<path d="M253.049 331.234C249.426 322.648 250.861 314.005 255.734 306.743C255.643 306.861 255.553 306.976 255.463 307.095C255.561 306.96 255.66 306.841 255.758 306.706C256.656 305.37 257.631 304.066 258.758 302.833C258.512 303.148 258.266 303.468 258.025 303.784C260.098 301.247 262.295 299.067 265.41 297.239C271.971 293.391 279.622 293.386 286.249 297.022C286.429 297.042 286.614 297.063 286.794 297.087C290.216 297.145 293.769 298.063 296.593 299.255C298.499 300.058 300.179 301.03 301.716 302.185C301.339 301.612 301.007 301.017 300.585 300.472C297.962 297.079 294.921 294.739 290.974 293.071C288.151 291.878 284.602 290.96 281.175 290.903C280.999 290.878 280.811 290.858 280.63 290.837C273.999 287.206 266.352 287.206 259.791 291.055C256.676 292.882 254.48 295.063 252.406 297.599C252.652 297.284 252.894 296.964 253.139 296.649C252.012 297.882 251.041 299.185 250.144 300.522C250.045 300.657 249.947 300.776 249.849 300.911C249.939 300.796 250.029 300.677 250.119 300.558C245.246 307.825 243.808 316.464 247.435 325.049C249.295 329.459 252.168 333.184 255.73 336.111C254.701 334.586 253.783 332.971 253.049 331.234Z" fill="url(#paint26_radial_49:9302)"/>
<path d="M221.79 359.291C221.511 353.058 227.294 347.746 233.331 347.746C235.163 347.746 236.839 348.205 238.335 348.955C236.626 344.685 232.671 341.562 227.708 341.562C221.671 341.562 215.884 346.869 216.167 353.103C216.298 356 217.425 358.664 219.212 360.717C220.13 360.647 221.028 360.516 221.938 360.43C221.884 360.053 221.806 359.68 221.79 359.291Z" fill="url(#paint27_radial_49:9302)"/>
<path d="M99.4929 141.95C98.3782 140.147 97.5012 138.2 96.9397 136.168C95.952 132.582 96.0955 128.914 96.6856 125.303C96.7225 123.221 96.9807 121.152 97.4192 119.238C98.7183 113.541 102.915 108.96 107.689 105.882C108.017 105.673 108.378 105.501 108.726 105.312C108.919 105.197 109.099 105.054 109.296 104.943C115.595 101.46 122.701 101.751 128.345 104.861C129.853 105.574 131.25 106.48 132.508 107.632C132.562 107.664 132.607 107.71 132.656 107.742C132.652 107.734 132.648 107.726 132.639 107.718C131.234 105.115 129.316 103.025 126.886 101.447C125.631 100.3 124.234 99.3942 122.722 98.677C117.078 95.5665 109.976 95.2755 103.673 98.759C103.476 98.8697 103.3 99.0131 103.103 99.1278C102.755 99.3164 102.39 99.4885 102.067 99.6975C97.2963 102.775 93.0956 107.353 91.7964 113.054C91.362 114.968 91.0997 117.033 91.0669 119.119C90.4768 122.73 90.3333 126.398 91.321 129.983C92.6202 134.709 95.5873 138.979 99.4929 141.95Z" fill="url(#paint28_radial_49:9302)"/>
<path d="M78.2705 164.574C77.6845 163.709 77.0369 162.922 76.3525 162.176C77.2214 163.303 78.0902 164.426 78.9631 165.553C78.7213 165.238 78.4918 164.91 78.2705 164.574Z" fill="url(#paint29_radial_49:9302)"/>
<path d="M243.429 113.948C243.445 114.083 243.478 114.219 243.498 114.354C244.129 119.03 247.142 123.423 250.994 126.067C250.039 124.337 249.379 122.46 249.117 120.538C249.101 120.403 249.064 120.268 249.051 120.132C248.879 119.194 248.756 118.235 248.666 117.21C248.596 116.391 248.588 115.596 248.658 114.776C248.851 112.53 249.236 110.026 250.08 107.76C249.871 100.92 252.711 94.3667 259.031 90.6701C259.129 90.6127 259.227 90.5554 259.326 90.498C264.907 87.2358 273.038 86.7358 278.575 90.498C279.514 91.1373 280.391 91.8135 281.235 92.5102C279.141 89.2972 276.362 86.6333 272.952 84.3137C267.42 80.5516 259.285 81.0515 253.703 84.3137C253.605 84.3711 253.506 84.4285 253.408 84.4859C247.088 88.1784 244.248 94.7356 244.457 101.576C243.613 103.838 243.228 106.342 243.035 108.588C242.965 109.407 242.974 110.202 243.043 111.022C243.129 112.051 243.252 113.01 243.429 113.948Z" fill="url(#paint30_radial_49:9302)"/>
<path d="M216.223 133.571C213.826 135.116 211.822 137.12 210.277 139.517C207.957 143.116 207.592 148.242 208.605 152.287C209.789 157.004 212.69 161.885 216.822 164.709C215.645 162.726 214.756 160.586 214.223 158.472C213.207 154.427 213.572 149.3 215.895 145.702C217.44 143.304 219.444 141.3 221.842 139.755C224.928 137.763 228.879 137.312 232.411 137.788C234.616 137.886 236.673 138.542 238.575 139.755C239.632 140.571 240.686 141.386 241.743 142.202C241.067 141.058 240.304 139.956 239.358 138.952C238.743 138.304 238.038 137.739 237.329 137.177C236.973 136.858 236.624 136.538 236.313 136.165C235.194 135.3 234.075 134.435 232.96 133.575C231.059 132.366 229.006 131.71 226.797 131.608C223.26 131.128 219.309 131.579 216.223 133.571Z" fill="url(#paint31_radial_49:9302)"/>
<path d="M285.393 145.461C283.446 143.711 280.831 143.1 278.38 144.133C276.131 145.084 274.319 147.453 274.434 149.998C274.59 153.498 277.147 155.846 280.065 156.231C280.065 156.211 280.057 156.198 280.057 156.178C279.942 153.629 281.753 151.26 284.003 150.309C285.138 149.83 286.302 149.739 287.425 149.916C287.405 148.326 286.827 146.74 285.671 145.703C285.577 145.629 285.487 145.547 285.393 145.461Z" fill="url(#paint32_radial_49:9302)"/>
<path d="M272.959 233.642C272.988 233.642 273.013 233.634 273.041 233.634C273.213 230.917 275.025 228.331 278.504 228.29C278.697 225.27 276.865 222.098 272.963 222.098C265.533 222.102 265.521 233.642 272.959 233.642Z" fill="url(#paint33_radial_49:9302)"/>
<path d="M153.381 109.57C152.91 108.956 152.435 108.345 152.004 107.71C143.398 99.2304 141.894 86.2513 145.853 75.4566C166.172 65.5511 188.991 59.9775 213.117 59.9775C214.396 59.9775 215.662 60.0431 216.933 60.0759C217.941 60.8258 218.916 61.6209 219.859 62.4569C217.502 59.207 214.584 56.3219 211.314 53.8957C210.044 53.8629 208.777 53.7974 207.499 53.7974C183.372 53.7974 160.553 59.371 140.234 69.2764C136.275 80.0712 137.779 93.0503 146.386 101.534C148.361 104.435 150.767 107.132 153.381 109.57Z" fill="url(#paint34_radial_49:9302)"/>
<path d="M76.1533 161.92C76.2148 161.998 76.264 162.076 76.3254 162.15C76.3336 162.158 76.3418 162.166 76.35 162.174C76.2845 162.093 76.2189 162.006 76.1533 161.92Z" fill="url(#paint35_radial_49:9302)"/>
<path d="M252.21 190.376C253.873 184.048 257.238 179.577 262.574 175.901C268.914 171.532 277.262 172.823 283.246 177.105C283.139 176.917 283.049 176.716 282.934 176.528C277.877 168.261 265.558 163.786 256.951 169.716C251.615 173.392 248.251 177.864 246.587 184.191C245.3 189.093 245.312 194.052 247.046 198.818C248.599 203.096 251.05 206.715 254.587 209.141C253.841 207.85 253.201 206.465 252.669 205.002C250.935 200.24 250.919 195.277 252.21 190.376Z" fill="url(#paint36_radial_49:9302)"/>
<path d="M160.207 247.492C161.784 245.447 162.461 243.447 162.797 240.963C162.92 240.053 162.94 239.205 162.887 238.394C163.239 233.996 161.961 229.783 159.879 225.812C160.059 227.144 160.149 228.488 160.043 229.857C160.096 230.668 160.071 231.517 159.953 232.427C159.616 234.91 158.94 236.914 157.362 238.959C155.039 241.967 151.875 243.553 148.445 243.963C142.76 245.357 136.166 243.721 131.498 240.512C129.011 238.799 126.511 237.058 124.63 234.685C122.896 232.5 121.183 230.283 119.577 228C119.646 230.882 120.458 233.738 122.249 236.299C123.904 238.668 125.683 240.959 127.478 243.221C129.359 245.594 131.863 247.336 134.347 249.049C139.015 252.262 145.609 253.897 151.293 252.5C154.719 252.086 157.883 250.5 160.207 247.492Z" fill="url(#paint37_radial_49:9302)"/>
<path d="M134.096 183.789C133.301 188.01 129.178 191.322 124.887 191.322C122.359 191.322 120.162 190.309 118.527 188.707C118.416 189.293 118.367 189.9 118.391 190.518C118.617 195.58 122.498 199.858 127.731 199.858C132.616 199.858 137.301 195.563 137.071 190.518C136.956 187.895 135.85 185.502 134.096 183.789Z" fill="url(#paint38_radial_49:9302)"/>
<path d="M126.872 260.56C126.023 261.728 124.675 262.547 122.79 262.547C122.347 262.547 121.937 262.502 121.552 262.416C120.458 263.92 120.208 266.01 120.835 267.772C122.486 266.748 124.232 265.904 126.249 265.289C127.572 264.887 129.113 264.609 130.617 264.432C130.212 262.613 128.974 261.01 126.872 260.56Z" fill="url(#paint39_radial_49:9302)"/>
<path d="M180.664 297.596C179.836 300.071 177.734 302.059 174.353 302.059C172.976 302.059 171.841 301.702 170.886 301.149C169.525 305.218 171.623 310.595 177.197 310.595C184.775 310.595 185.922 300.653 180.664 297.596Z" fill="url(#paint40_radial_49:9302)"/>
<path d="M113.108 179.092C114.194 178.039 114.997 176.838 115.583 175.457C116.071 174.305 116.378 173.068 116.39 171.797C116.403 170.92 115.727 166.043 116.345 171.277C116.046 168.748 115.579 166.662 113.972 164.58C113.821 164.383 113.628 164.191 113.456 163.994C113.354 165.002 113.128 165.99 112.735 166.916C112.153 168.297 111.35 169.502 110.259 170.551C106.85 173.846 101.002 174.973 96.8664 172.281C94.9034 171.002 92.7928 169.305 91.1371 167.334C90.9568 168.543 91.006 169.785 91.3256 171.043C92.3584 175.117 96.2886 178.588 99.7147 180.822C103.85 183.514 109.698 182.387 113.108 179.092Z" fill="url(#paint41_radial_49:9302)"/>
<path d="M198.962 160.735C198.487 164.28 198.192 167.263 196.799 170.571C195.836 172.849 195.877 172.78 195.143 174.103C194.766 174.784 194.401 175.452 194.065 176.152C192.663 179.083 190.914 181.689 188.651 184.103C184.373 188.668 178.938 191.218 172.865 192.033C164.287 193.185 156.443 190.271 150.214 184.373C148.312 182.57 146.775 180.529 145.575 178.337C146.427 183.767 148.845 188.922 153.058 192.914C159.287 198.812 167.131 201.73 175.709 200.574C181.783 199.758 187.217 197.209 191.495 192.644C193.758 190.226 195.508 187.623 196.909 184.693C197.245 183.992 197.61 183.32 197.987 182.644C198.721 181.32 198.68 181.39 199.643 179.111C201.036 175.808 201.331 172.821 201.807 169.276C201.794 165.083 200.753 161.173 198.745 157.526C198.885 158.575 198.958 159.645 198.962 160.735Z" fill="url(#paint42_radial_49:9302)"/>
<path d="M164.535 280.021C164.695 280.071 164.859 280.124 165.018 280.173C168.904 281.39 172.887 278.099 172.887 274.181C172.887 271.755 171.35 269.571 169.264 268.546C167.924 270.981 165.027 272.53 162.174 271.636C162.014 271.587 161.851 271.534 161.691 271.485C161.449 271.411 161.281 271.264 161.064 271.169C159.31 274.28 160.428 278.735 164.535 280.021Z" fill="url(#paint43_radial_49:9302)"/>
<path d="M218.235 194.985C225.928 194.985 227.133 184.948 221.866 181.764C221.051 184.346 218.899 186.448 215.387 186.448C213.936 186.448 212.744 186.063 211.756 185.465C210.453 189.604 212.6 194.985 218.235 194.985Z" fill="url(#paint44_radial_49:9302)"/>
<path d="M351.918 154.915C351.922 154.927 351.926 154.944 351.93 154.956C345.963 161.517 336.599 164.98 326.652 162.694C315.243 160.071 303.382 155.882 297.731 145.407C297.924 146.579 298.161 147.743 298.497 148.887C302.71 163.161 316.403 168.222 329.496 171.234C339.439 173.521 348.803 170.058 354.77 163.497C353.91 160.595 352.947 157.743 351.918 154.915Z" fill="url(#paint45_radial_49:9302)"/>
<path d="M286.697 298.034C286.685 297.948 286.672 297.858 286.66 297.771C286.66 297.776 286.66 297.78 286.66 297.784C286.672 297.866 286.689 297.948 286.697 298.034Z" fill="url(#paint46_radial_49:9302)"/>
<path d="M350.966 185.062C350.13 187.427 348.085 189.308 344.831 189.308C343.536 189.308 342.454 188.984 341.54 188.48C340.126 192.476 342.163 197.849 347.675 197.849C355.142 197.849 356.232 187.984 350.966 185.062Z" fill="url(#paint47_radial_49:9302)"/>
<path d="M102.015 143.635C113.125 149.84 127.657 145.82 134.149 134.922C138.628 127.406 138.337 117.874 134.227 110.325C135.063 115.804 134.206 121.517 131.305 126.386C124.813 137.283 110.281 141.307 99.1706 135.099C95.6912 133.156 92.7733 130.201 90.7446 126.738C90.8553 127.828 91.0233 128.91 91.3225 129.988C92.888 135.689 96.8633 140.754 102.015 143.635Z" fill="url(#paint48_radial_49:9302)"/>
<path d="M259.818 211.593C266.461 213.425 272.584 211.249 277.613 206.889C285.85 199.749 288.727 186.061 282.953 176.57C283.879 184.541 280.744 193.168 274.764 198.348C269.736 202.704 263.613 204.88 256.97 203.053C251.872 201.647 248.322 198.377 245.941 194.094C246.155 195.684 246.474 197.262 247.04 198.819C249.273 204.954 253.29 209.794 259.818 211.593Z" fill="url(#paint49_radial_49:9302)"/>
<path d="M170.939 136.936C171.107 136.908 171.276 136.895 171.439 136.871C172.661 133.842 171.759 130.096 168.64 128.207C168.112 129.592 167.194 130.85 165.772 131.703C165.64 131.781 165.513 131.859 165.382 131.936C162.895 133.428 160.026 133.1 157.85 131.686C157.542 132.473 157.317 133.305 157.317 134.215C157.317 135.977 158.005 137.51 159.038 138.74C160.055 138.321 161.1 137.949 162.218 137.678C164.956 137.01 167.976 136.719 170.939 136.936Z" fill="url(#paint50_radial_49:9302)"/>
<path d="M237.84 152.841C235.516 155.849 232.565 157.8 228.967 158.964C224.562 160.39 219.779 159.198 215.804 157.243C212.632 155.681 210.046 152.927 208.218 149.772C208.308 150.632 208.406 151.489 208.607 152.288C209.96 157.673 213.55 163.275 218.652 165.783C222.627 167.738 227.41 168.931 231.815 167.505C235.418 166.341 238.364 164.39 240.688 161.382C245.266 155.456 245.327 147.559 241.356 141.493C241.586 145.448 240.446 149.464 237.84 152.841Z" fill="url(#paint51_radial_49:9302)"/>
<path d="M222.885 71.6167C222.779 79.8992 219.672 87.0179 216.098 94.3824C212.553 101.69 207.123 107.972 199.935 111.882C187.968 118.39 174.85 116.078 163.321 110.103C156.203 106.415 148.531 100.337 143.535 92.9931C141.482 90.9686 139.859 88.6777 138.588 86.231C139.539 91.8989 142.068 97.2839 146.379 101.534C151.375 108.878 159.047 114.956 166.165 118.644C177.694 124.619 190.812 126.931 202.779 120.423C209.967 116.513 215.398 110.23 218.943 102.923C222.516 95.5586 225.623 88.44 225.729 80.1574C225.791 75.301 224.553 70.8257 222.479 66.7808C222.738 68.3504 222.91 69.9528 222.885 71.6167Z" fill="url(#paint52_radial_49:9302)"/>
<path d="M235.217 349.619C229.062 350.86 222.763 351.696 216.361 352.18C216.316 352.131 216.284 352.069 216.243 352.016C216.218 352.381 216.144 352.733 216.161 353.102C216.292 355.999 217.419 358.663 219.206 360.717C225.603 360.233 231.906 359.397 238.062 358.155C238.857 356.61 239.328 354.905 239.246 353.102C239.119 350.299 238.049 347.721 236.365 345.692C236.258 347.086 235.844 348.401 235.217 349.619Z" fill="url(#paint53_radial_49:9302)"/>
<path d="M248.612 250.296C250.576 243.693 250.276 236.534 246.596 229.35C247.285 233.608 246.945 237.784 245.764 241.759C247.043 253.64 238.617 266.443 226.908 269.193C210.146 273.127 188.495 273.041 179.963 256.259C180.11 257.218 180.299 258.164 180.557 259.095C186.754 281.59 211.261 282.073 229.756 277.733C241.465 274.984 249.887 262.177 248.612 250.296Z" fill="url(#paint54_radial_49:9302)"/>
<path d="M229.701 289.133C229.553 289.58 229.377 290.018 229.147 290.424C229.069 290.564 228.992 290.703 228.914 290.842C226.754 294.67 221.627 295.547 218.16 293.211C217.336 295.818 217.873 298.854 219.926 300.908C223.299 304.28 229.364 303.625 231.758 299.383C231.836 299.244 231.914 299.104 231.996 298.965C233.553 296.203 233.266 292.227 230.84 289.998C230.483 289.666 230.098 289.387 229.701 289.133Z" fill="url(#paint55_radial_49:9302)"/>
<path d="M302.891 306.489C302.891 310.767 301.444 314.82 299.608 318.615C299.268 319.316 298.867 320.021 298.42 320.714C292.158 325.545 285.527 329.918 278.552 333.75C273.56 334.738 268.113 334.603 263.347 333.164C255.638 330.832 249.323 325.714 245.639 318.685C245.942 320.796 246.524 322.927 247.421 325.05C250.868 333.213 257.7 339.139 266.191 341.705C270.958 343.143 276.404 343.279 281.396 342.291C288.371 338.459 295.002 334.086 301.264 329.254C301.711 328.562 302.112 327.857 302.453 327.156C304.284 323.361 305.735 319.308 305.735 315.029C305.735 310.948 304.6 307.058 302.629 303.583C302.756 304.538 302.891 305.501 302.891 306.489Z" fill="url(#paint56_radial_49:9302)"/>
<path d="M350.17 248.417C344.383 265.449 335.711 281.137 324.703 294.895C320.835 293.21 317.376 290.628 314.9 287.424C314.187 286.501 313.564 285.501 312.995 284.469C313.609 288.665 315.224 292.698 317.744 295.96C320.22 299.165 323.679 301.747 327.547 303.435C340.01 287.862 349.494 269.817 355.165 250.146C353.543 249.281 351.866 248.736 350.17 248.417Z" fill="url(#paint57_radial_49:9302)"/>
<path d="M335.246 230.855C337.894 226.334 337.976 221.429 336.369 216.765C336.496 217.064 336.623 217.363 336.746 217.663C336.578 217.253 336.48 216.839 336.349 216.417C335.828 214.749 335.201 213.347 334.427 212.036C334.89 215.507 334.336 219.015 332.402 222.318C329.365 227.506 323.939 230.392 318.013 230.572C311.706 230.765 305.764 228.015 301.928 223.052C301.362 222.322 300.891 221.544 300.419 220.761C300.784 224.732 302.317 228.408 304.776 231.588C308.612 236.551 314.558 239.301 320.861 239.109C326.783 238.928 332.21 236.043 335.246 230.855Z" fill="url(#paint58_radial_49:9302)"/>
<path d="M215.559 315.288C215.075 313.624 214.194 312.14 213.079 310.866C213.014 311.562 212.907 312.255 212.715 312.931C210.989 318.882 204.493 322.857 198.412 321.054C198.219 320.997 198.022 320.939 197.83 320.882C195.588 320.218 193.74 318.935 192.33 317.288C192.301 317.652 192.252 318.009 192.268 318.378C192.498 323.501 195.674 327.935 200.674 329.418C200.867 329.476 201.063 329.533 201.256 329.591C207.338 331.394 213.837 327.419 215.559 321.468C216.145 319.447 216.145 317.308 215.559 315.288Z" fill="url(#paint59_radial_49:9302)"/>
<path d="M186.671 338.489C186.868 342.87 184.569 347.869 181.52 350.918C181.516 350.923 181.507 350.927 181.503 350.931C172.217 349.529 163.221 347.255 154.553 344.263C154.398 345.193 154.311 346.124 154.348 347.021C154.426 348.718 154.754 350.418 155.221 352.074C164.545 355.447 174.282 357.947 184.343 359.467C184.347 359.463 184.352 359.459 184.36 359.455C187.409 356.406 189.704 351.402 189.507 347.025C189.351 343.57 188.437 340.025 186.499 337.128C186.556 337.583 186.647 338.034 186.671 338.489Z" fill="url(#paint60_radial_49:9302)"/>
<path d="M274.899 222.435C274.026 223.98 272.432 225.107 270.112 225.107C269.387 225.107 268.756 224.971 268.174 224.771C266.252 228.18 267.842 233.643 272.961 233.643C279.665 233.643 280.305 224.266 274.899 222.435Z" fill="url(#paint61_radial_49:9302)"/>
<path d="M292.798 254.958C291.503 260.9 285.724 264.523 279.54 263.146C276.876 262.552 274.491 261.023 272.757 258.953C272.692 260.355 272.823 261.757 273.212 263.076C274.458 267.306 278.065 270.719 282.388 271.683C288.572 273.06 294.355 269.437 295.65 263.494C295.884 262.363 296.216 261.945 296.236 259.958C296.257 258.113 295.863 256.724 295.281 255.257C295.396 255.531 295.511 255.802 295.625 256.076C295.273 254.97 294.794 253.687 294.187 252.7C293.949 252.306 293.646 252.003 293.371 251.65C293.322 253.409 293.019 253.88 292.798 254.958Z" fill="url(#paint62_radial_49:9302)"/>
<path d="M278.838 109.898C274.916 116.184 267.305 121.496 259.613 121.102C256.019 120.918 252.416 120.061 249.265 118.262C246.892 116.906 244.789 114.865 243.228 112.475C243.294 112.963 243.335 113.475 243.421 113.951C243.437 114.086 243.47 114.221 243.49 114.356C244.183 119.479 247.728 124.295 252.113 126.803C255.26 128.602 258.867 129.463 262.461 129.643C270.149 130.036 277.764 124.725 281.686 118.438C285.071 113.012 286.194 105.869 284.456 99.6643C283.895 97.6602 283.124 95.8447 282.202 94.1562C282.907 99.5659 281.686 105.332 278.838 109.898Z" fill="url(#paint63_radial_49:9302)"/>
<path d="M282.816 145.753C282.726 145.835 282.632 145.917 282.541 146.003C280.316 148.007 277.464 148.162 275.218 147.06C274.718 147.962 274.382 148.953 274.427 149.998C274.681 155.654 281.181 158.318 285.386 154.539C285.476 154.457 285.57 154.371 285.664 154.289C288.013 152.179 288.008 147.818 285.664 145.708C285.57 145.626 285.48 145.544 285.386 145.458C284.906 145.027 284.386 144.667 283.836 144.384C283.566 144.892 283.246 145.367 282.816 145.753Z" fill="url(#paint64_radial_49:9302)"/>
<path d="M159.971 303.465C161.528 297.006 160.655 290.244 157.532 284.699C158.028 288.052 157.946 291.523 157.127 294.928C154.196 307.08 143.037 315.555 130.689 315.821C126.73 315.907 121.96 314.604 118.55 312.621C116.669 311.526 114.78 310.063 113.21 308.551C111.985 307.371 110.964 306.047 110.116 304.637C110.689 309.28 112.566 313.731 116.054 317.092C117.624 318.604 119.513 320.063 121.394 321.161C124.804 323.145 129.578 324.448 133.533 324.362C145.877 324.087 157.041 315.616 159.971 303.465Z" fill="url(#paint65_radial_49:9302)"/>
<path d="M79.4684 173.404C79.2758 184.605 70.4687 192.892 59.4895 193.383C57.7887 193.461 56.1248 193.236 54.5224 192.81C54.2929 195.232 54.0962 197.666 53.9814 200.117C56.5633 201.367 59.4034 202.051 62.3378 201.92C73.3169 201.428 82.1241 193.146 82.3167 181.941C82.374 178.552 82.7019 176.171 81.8167 172.507C81.3003 170.364 80.4725 168.487 79.4438 166.7C79.6856 168.991 79.5094 170.933 79.4684 173.404Z" fill="url(#paint66_radial_49:9302)"/>
<path d="M100.322 230.566C102.88 240.8 103.662 253.508 98.8715 262.238C93.2118 272.549 82.3228 277.286 71.6633 275.987C67.2126 268.319 63.4504 260.209 60.3604 251.775C63.8275 263.315 68.5732 274.303 74.5075 284.528C85.167 285.827 96.056 281.094 101.716 270.778C107.384 260.447 105.285 244.513 101.626 233.747C101.253 232.644 100.806 231.591 100.322 230.566Z" fill="url(#paint67_radial_49:9302)"/>
<g style="mix-blend-mode:multiply" opacity="0.5">
<path d="M309.022 92.1392C317.465 109.741 322.198 129.458 322.198 150.281C322.198 224.639 261.921 284.916 187.563 284.916C123.454 284.916 69.8492 240.094 56.2799 180.091C54.6775 188.989 53.7964 198.14 53.7964 207.501C53.7964 292.391 122.614 361.205 207.501 361.205C292.392 361.205 361.205 292.387 361.205 207.501C361.209 161.531 341.005 120.306 309.022 92.1392Z" fill="url(#paint68_radial_49:9302)"/>
</g>
<g style="mix-blend-mode:multiply" opacity="0.5">
<path d="M359.466 174.725C355.692 193.876 347.68 212.507 335.217 229.186C290.71 288.75 206.344 300.959 146.78 256.452C95.4247 218.08 79.3104 150.086 104.359 93.8994C97.7484 100.067 91.5642 106.87 85.9619 114.37C35.1478 182.368 49.0818 278.689 117.084 329.499C185.086 380.309 281.407 366.375 332.217 298.373C359.732 261.55 368.224 216.433 359.466 174.725Z" fill="url(#paint69_radial_49:9302)"/>
</g>
<g style="mix-blend-mode:color-dodge" opacity="0.5">
<path d="M212.525 230.622C259.212 230.622 297.059 192.775 297.059 146.088C297.059 99.4005 259.212 61.5532 212.525 61.5532C165.838 61.5532 127.99 99.4005 127.99 146.088C127.99 192.775 165.838 230.622 212.525 230.622Z" fill="url(#paint70_radial_49:9302)"/>
</g>
</g>
<defs>
<radialGradient id="paint0_radial_49:9302" cx="0" cy="0" r="1" gradientUnits="userSpaceOnUse" gradientTransform="translate(211.309 214.842) scale(235.744)">
<stop offset="0.0815" stop-color="#DFAB45"/>
<stop offset="0.8519" stop-color="#DFAB45" stop-opacity="0"/>
</radialGradient>
<radialGradient id="paint1_radial_49:9302" cx="0" cy="0" r="1" gradientUnits="userSpaceOnUse" gradientTransform="translate(203.201 206.015) scale(266.074)">
<stop offset="0.0815" stop-color="#DFAB45"/>
<stop offset="0.8519" stop-color="#DFAB45" stop-opacity="0"/>
</radialGradient>
<radialGradient id="paint2_radial_49:9302" cx="0" cy="0" r="1" gradientUnits="userSpaceOnUse" gradientTransform="translate(187.504 119.519) scale(347.691)">
<stop offset="0.0815" stop-color="#DFAB45"/>
<stop offset="1" stop-color="#E64A24"/>
</radialGradient>
<radialGradient id="paint3_radial_49:9302" cx="0" cy="0" r="1" gradientUnits="userSpaceOnUse" gradientTransform="translate(181.082 79.2059) scale(320.586)">
<stop offset="0.0815" stop-color="#DFAB45"/>
<stop offset="1" stop-color="#E64A24"/>
</radialGradient>
<radialGradient id="paint4_radial_49:9302" cx="0" cy="0" r="1" gradientUnits="userSpaceOnUse" gradientTransform="translate(224.163 289.106) scale(15.7459)">
<stop offset="0.0815" stop-color="#DFAB45"/>
<stop offset="1" stop-color="#E64A24"/>
</radialGradient>
<radialGradient id="paint5_radial_49:9302" cx="0" cy="0" r="1" gradientUnits="userSpaceOnUse" gradientTransform="translate(134.481 211.44) scale(39.2988)">
<stop offset="0.0815" stop-color="#DFAB45"/>
<stop offset="1" stop-color="#E64A24"/>
</radialGradient>
<radialGradient id="paint6_radial_49:9302" cx="0" cy="0" r="1" gradientUnits="userSpaceOnUse" gradientTransform="translate(163.476 128.149) scale(15.0794)">
<stop offset="0.0815" stop-color="#DFAB45"/>
<stop offset="1" stop-color="#E64A24"/>
</radialGradient>
<radialGradient id="paint7_radial_49:9302" cx="0" cy="0" r="1" gradientUnits="userSpaceOnUse" gradientTransform="translate(217.146 181.946) scale(14.6647)">
<stop offset="0.0815" stop-color="#DFAB45"/>
<stop offset="1" stop-color="#E64A24"/>
</radialGradient>
<radialGradient id="paint8_radial_49:9302" cx="0" cy="0" r="1" gradientUnits="userSpaceOnUse" gradientTransform="translate(206.82 212.349) scale(69.1209)">
<stop offset="0.0815" stop-color="#DFAB45"/>
<stop offset="1" stop-color="#E64A24"/>
</radialGradient>
<radialGradient id="paint9_radial_49:9302" cx="0" cy="0" r="1" gradientUnits="userSpaceOnUse" gradientTransform="translate(126.079 182.666) scale(19.0109)">
<stop offset="0.0815" stop-color="#DFAB45"/>
<stop offset="1" stop-color="#E64A24"/>
</radialGradient>
<radialGradient id="paint10_radial_49:9302" cx="0" cy="0" r="1" gradientUnits="userSpaceOnUse" gradientTransform="translate(176.135 297.832) scale(14.3701)">
<stop offset="0.0815" stop-color="#DFAB45"/>
<stop offset="1" stop-color="#E64A24"/>
</radialGradient>
<radialGradient id="paint11_radial_49:9302" cx="0" cy="0" r="1" gradientUnits="userSpaceOnUse" gradientTransform="translate(167.458 149.189) scale(52.9087)">
<stop offset="0.0815" stop-color="#DFAB45"/>
<stop offset="1" stop-color="#E64A24"/>
</radialGradient>
<radialGradient id="paint12_radial_49:9302" cx="0" cy="0" r="1" gradientUnits="userSpaceOnUse" gradientTransform="translate(165.571 268.954) scale(13.0914)">
<stop offset="0.0815" stop-color="#DFAB45"/>
<stop offset="1" stop-color="#E64A24"/>
</radialGradient>
<radialGradient id="paint13_radial_49:9302" cx="0" cy="0" r="1" gradientUnits="userSpaceOnUse" gradientTransform="translate(314.271 202.24) scale(37.1989)">
<stop offset="0.0815" stop-color="#DFAB45"/>
<stop offset="1" stop-color="#E64A24"/>
</radialGradient>
<radialGradient id="paint14_radial_49:9302" cx="0" cy="0" r="1" gradientUnits="userSpaceOnUse" gradientTransform="translate(295.145 312.511) scale(0.234687 0.234448)">
<stop offset="0.0815" stop-color="#DFAB45"/>
<stop offset="1" stop-color="#E64A24"/>
</radialGradient>
<radialGradient id="paint15_radial_49:9302" cx="0" cy="0" r="1" gradientUnits="userSpaceOnUse" gradientTransform="translate(124.826 261.312) scale(11.0796)">
<stop offset="0.0815" stop-color="#DFAB45"/>
<stop offset="1" stop-color="#E64A24"/>
</radialGradient>
<radialGradient id="paint16_radial_49:9302" cx="0" cy="0" r="1" gradientUnits="userSpaceOnUse" gradientTransform="translate(101.346 161.15) scale(22.4432)">
<stop offset="0.0815" stop-color="#DFAB45"/>
<stop offset="1" stop-color="#E64A24"/>
</radialGradient>
<radialGradient id="paint17_radial_49:9302" cx="0" cy="0" r="1" gradientUnits="userSpaceOnUse" gradientTransform="translate(310.553 111.244) scale(52.0535)">
<stop offset="0.0815" stop-color="#DFAB45"/>
<stop offset="1" stop-color="#E64A24"/>
</radialGradient>
<radialGradient id="paint18_radial_49:9302" cx="0" cy="0" r="1" gradientUnits="userSpaceOnUse" gradientTransform="translate(346.641 185.352) scale(14.0746)">
<stop offset="0.0815" stop-color="#DFAB45"/>
<stop offset="1" stop-color="#E64A24"/>
</radialGradient>
<radialGradient id="paint19_radial_49:9302" cx="0" cy="0" r="1" gradientUnits="userSpaceOnUse" gradientTransform="translate(282.164 249.16) scale(24.1903)">
<stop offset="0.0815" stop-color="#DFAB45"/>
<stop offset="1" stop-color="#E64A24"/>
</radialGradient>
<radialGradient id="paint20_radial_49:9302" cx="0" cy="0" r="1" gradientUnits="userSpaceOnUse" gradientTransform="translate(129.808 276.632) scale(48.9162)">
<stop offset="0.0815" stop-color="#DFAB45"/>
<stop offset="1" stop-color="#E64A24"/>
</radialGradient>
<radialGradient id="paint21_radial_49:9302" cx="0" cy="0" r="1" gradientUnits="userSpaceOnUse" gradientTransform="translate(168.272 331.451) scale(28.3733)">
<stop offset="0.0815" stop-color="#DFAB45"/>
<stop offset="1" stop-color="#E64A24"/>
</radialGradient>
<radialGradient id="paint22_radial_49:9302" cx="0" cy="0" r="1" gradientUnits="userSpaceOnUse" gradientTransform="translate(73.2138 221.113) scale(66.1411)">
<stop offset="0.0815" stop-color="#DFAB45"/>
<stop offset="1" stop-color="#E64A24"/>
</radialGradient>
<radialGradient id="paint23_radial_49:9302" cx="0" cy="0" r="1" gradientUnits="userSpaceOnUse" gradientTransform="translate(64.4338 160.271) scale(42.5737)">
<stop offset="0.0815" stop-color="#DFAB45"/>
<stop offset="1" stop-color="#E64A24"/>
</radialGradient>
<radialGradient id="paint24_radial_49:9302" cx="0" cy="0" r="1" gradientUnits="userSpaceOnUse" gradientTransform="translate(201.916 308.544) scale(23.3259)">
<stop offset="0.0815" stop-color="#DFAB45"/>
<stop offset="1" stop-color="#E64A24"/>
</radialGradient>
<radialGradient id="paint25_radial_49:9302" cx="0" cy="0" r="1" gradientUnits="userSpaceOnUse" gradientTransform="translate(330.627 252.402) scale(52.0296)">
<stop offset="0.0815" stop-color="#DFAB45"/>
<stop offset="1" stop-color="#E64A24"/>
</radialGradient>
<radialGradient id="paint26_radial_49:9302" cx="0" cy="0" r="1" gradientUnits="userSpaceOnUse" gradientTransform="translate(269.163 292.109) scale(53.0107)">
<stop offset="0.0815" stop-color="#DFAB45"/>
<stop offset="1" stop-color="#E64A24"/>
</radialGradient>
<radialGradient id="paint27_radial_49:9302" cx="0" cy="0" r="1" gradientUnits="userSpaceOnUse" gradientTransform="translate(225.516 343.149) scale(21.0662)">
<stop offset="0.0815" stop-color="#DFAB45"/>
<stop offset="1" stop-color="#E64A24"/>
</radialGradient>
<radialGradient id="paint28_radial_49:9302" cx="0" cy="0" r="1" gradientUnits="userSpaceOnUse" gradientTransform="translate(108.344 100.029) scale(46.933)">
<stop offset="0.0815" stop-color="#DFAB45"/>
<stop offset="1" stop-color="#E64A24"/>
</radialGradient>
<radialGradient id="paint29_radial_49:9302" cx="0" cy="0" r="1" gradientUnits="userSpaceOnUse" gradientTransform="translate(77.4533 162.458) scale(3.3368)">
<stop offset="0.0815" stop-color="#DFAB45"/>
<stop offset="1" stop-color="#E64A24"/>
</radialGradient>
<radialGradient id="paint30_radial_49:9302" cx="0" cy="0" r="1" gradientUnits="userSpaceOnUse" gradientTransform="translate(259.125 85.3526) scale(44.87)">
<stop offset="0.0815" stop-color="#DFAB45"/>
<stop offset="1" stop-color="#E64A24"/>
</radialGradient>
<radialGradient id="paint31_radial_49:9302" cx="0" cy="0" r="1" gradientUnits="userSpaceOnUse" gradientTransform="translate(222.28 134.184) scale(35.0633)">
<stop offset="0.0815" stop-color="#DFAB45"/>
<stop offset="1" stop-color="#E64A24"/>
</radialGradient>
<radialGradient id="paint32_radial_49:9302" cx="0" cy="0" r="1" gradientUnits="userSpaceOnUse" gradientTransform="translate(279.913 144.674) scale(13.3549)">
<stop offset="0.0815" stop-color="#DFAB45"/>
<stop offset="1" stop-color="#E64A24"/>
</radialGradient>
<radialGradient id="paint33_radial_49:9302" cx="0" cy="0" r="1" gradientUnits="userSpaceOnUse" gradientTransform="translate(272.081 223.056) scale(11.9992)">
<stop offset="0.0815" stop-color="#DFAB45"/>
<stop offset="1" stop-color="#E64A24"/>
</radialGradient>
<radialGradient id="paint34_radial_49:9302" cx="0" cy="0" r="1" gradientUnits="userSpaceOnUse" gradientTransform="translate(172.635 58.4112) scale(67.4373)">
<stop offset="0.0815" stop-color="#DFAB45"/>
<stop offset="1" stop-color="#E64A24"/>
</radialGradient>
<radialGradient id="paint35_radial_49:9302" cx="0" cy="0" r="1" gradientUnits="userSpaceOnUse" gradientTransform="translate(76.2353 161.941) scale(0.253672)">
<stop offset="0.0815" stop-color="#DFAB45"/>
<stop offset="1" stop-color="#E64A24"/>
</radialGradient>
<radialGradient id="paint36_radial_49:9302" cx="0" cy="0" r="1" gradientUnits="userSpaceOnUse" gradientTransform="translate(261.531 170.495) scale(42.9376)">
<stop offset="0.0815" stop-color="#DFAB45"/>
<stop offset="1" stop-color="#E64A24"/>
</radialGradient>
<radialGradient id="paint37_radial_49:9302" cx="0" cy="0" r="1" gradientUnits="userSpaceOnUse" gradientTransform="translate(137.877 228.06) scale(34.2494)">
<stop offset="0.0815" stop-color="#DFAB45"/>
<stop offset="1" stop-color="#E64A24"/>
</radialGradient>
<radialGradient id="paint38_radial_49:9302" cx="0" cy="0" r="1" gradientUnits="userSpaceOnUse" gradientTransform="translate(126.274 185.117) scale(17.7023)">
<stop offset="0.0815" stop-color="#DFAB45"/>
<stop offset="1" stop-color="#E64A24"/>
</radialGradient>
<radialGradient id="paint39_radial_49:9302" cx="0" cy="0" r="1" gradientUnits="userSpaceOnUse" gradientTransform="translate(124.767 261.155) scale(8.55426)">
<stop offset="0.0815" stop-color="#DFAB45"/>
<stop offset="1" stop-color="#E64A24"/>
</radialGradient>
<radialGradient id="paint40_radial_49:9302" cx="0" cy="0" r="1" gradientUnits="userSpaceOnUse" gradientTransform="translate(176.144 298.671) scale(13.7775)">
<stop offset="0.0815" stop-color="#DFAB45"/>
<stop offset="1" stop-color="#E64A24"/>
</radialGradient>
<radialGradient id="paint41_radial_49:9302" cx="0" cy="0" r="1" gradientUnits="userSpaceOnUse" gradientTransform="translate(101.735 165.51) scale(21.6043)">
<stop offset="0.0815" stop-color="#DFAB45"/>
<stop offset="1" stop-color="#E64A24"/>
</radialGradient>
<radialGradient id="paint42_radial_49:9302" cx="0" cy="0" r="1" gradientUnits="userSpaceOnUse" gradientTransform="translate(169.307 161.107) scale(49.703)">
<stop offset="0.0815" stop-color="#DFAB45"/>
<stop offset="1" stop-color="#E64A24"/>
</radialGradient>
<radialGradient id="paint43_radial_49:9302" cx="0" cy="0" r="1" gradientUnits="userSpaceOnUse" gradientTransform="translate(165.59 269.528) scale(12.705)">
<stop offset="0.0815" stop-color="#DFAB45"/>
<stop offset="1" stop-color="#E64A24"/>
</radialGradient>
<radialGradient id="paint44_radial_49:9302" cx="0" cy="0" r="1" gradientUnits="userSpaceOnUse" gradientTransform="translate(217.167 182.859) scale(14.027)">
<stop offset="0.0815" stop-color="#DFAB45"/>
<stop offset="1" stop-color="#E64A24"/>
</radialGradient>
<radialGradient id="paint45_radial_49:9302" cx="0" cy="0" r="1" gradientUnits="userSpaceOnUse" gradientTransform="translate(321.806 147.603) scale(39.6902)">
<stop offset="0.0815" stop-color="#DFAB45"/>
<stop offset="1" stop-color="#E64A24"/>
</radialGradient>
<radialGradient id="paint46_radial_49:9302" cx="0" cy="0" r="1" gradientUnits="userSpaceOnUse" gradientTransform="translate(286.677 297.79) scale(0.234709 0.234839)">
<stop offset="0.0815" stop-color="#DFAB45"/>
<stop offset="1" stop-color="#E64A24"/>
</radialGradient>
<radialGradient id="paint47_radial_49:9302" cx="0" cy="0" r="1" gradientUnits="userSpaceOnUse" gradientTransform="translate(346.647 186.121) scale(13.53)">
<stop offset="0.0815" stop-color="#DFAB45"/>
<stop offset="1" stop-color="#E64A24"/>
</radialGradient>
<radialGradient id="paint48_radial_49:9302" cx="0" cy="0" r="1" gradientUnits="userSpaceOnUse" gradientTransform="translate(110.437 113.32) scale(41.4611)">
<stop offset="0.0815" stop-color="#DFAB45"/>
<stop offset="1" stop-color="#E64A24"/>
</radialGradient>
<radialGradient id="paint49_radial_49:9302" cx="0" cy="0" r="1" gradientUnits="userSpaceOnUse" gradientTransform="translate(262.839 179.524) scale(38.8152)">
<stop offset="0.0815" stop-color="#DFAB45"/>
<stop offset="1" stop-color="#E64A24"/>
</radialGradient>
<radialGradient id="paint50_radial_49:9302" cx="0" cy="0" r="1" gradientUnits="userSpaceOnUse" gradientTransform="translate(163.499 129.077) scale(12.4406)">
<stop offset="0.0815" stop-color="#DFAB45"/>
<stop offset="1" stop-color="#E64A24"/>
</radialGradient>
<radialGradient id="paint51_radial_49:9302" cx="0" cy="0" r="1" gradientUnits="userSpaceOnUse" gradientTransform="translate(223.412 143.698) scale(31.0901)">
<stop offset="0.0815" stop-color="#DFAB45"/>
<stop offset="1" stop-color="#E64A24"/>
</radialGradient>
<radialGradient id="paint52_radial_49:9302" cx="0" cy="0" r="1" gradientUnits="userSpaceOnUse" gradientTransform="translate(175.366 71.5417) scale(70.67)">
<stop offset="0.0815" stop-color="#DFAB45"/>
<stop offset="1" stop-color="#E64A24"/>
</radialGradient>
<radialGradient id="paint53_radial_49:9302" cx="0" cy="0" r="1" gradientUnits="userSpaceOnUse" gradientTransform="translate(225.909 346.94) scale(18.5818)">
<stop offset="0.0815" stop-color="#DFAB45"/>
<stop offset="1" stop-color="#E64A24"/>
</radialGradient>
<radialGradient id="paint54_radial_49:9302" cx="0" cy="0" r="1" gradientUnits="userSpaceOnUse" gradientTransform="translate(209.438 233.532) scale(59.5269)">
<stop offset="0.0815" stop-color="#DFAB45"/>
<stop offset="1" stop-color="#E64A24"/>
</radialGradient>
<radialGradient id="paint55_radial_49:9302" cx="0" cy="0" r="1" gradientUnits="userSpaceOnUse" gradientTransform="translate(224.192 290.286) scale(15.0029)">
<stop offset="0.0815" stop-color="#DFAB45"/>
<stop offset="1" stop-color="#E64A24"/>
</radialGradient>
<radialGradient id="paint56_radial_49:9302" cx="0" cy="0" r="1" gradientUnits="userSpaceOnUse" gradientTransform="translate(271.001 306.835) scale(48.5145)">
<stop offset="0.0815" stop-color="#DFAB45"/>
<stop offset="1" stop-color="#E64A24"/>
</radialGradient>
<radialGradient id="paint57_radial_49:9302" cx="0" cy="0" r="1" gradientUnits="userSpaceOnUse" gradientTransform="translate(330.791 252.973) scale(54.2783)">
<stop offset="0.0815" stop-color="#DFAB45"/>
<stop offset="1" stop-color="#E64A24"/>
</radialGradient>
<radialGradient id="paint58_radial_49:9302" cx="0" cy="0" r="1" gradientUnits="userSpaceOnUse" gradientTransform="translate(316.037 214.277) scale(31.756)">
<stop offset="0.0815" stop-color="#DFAB45"/>
<stop offset="1" stop-color="#E64A24"/>
</radialGradient>
<radialGradient id="paint59_radial_49:9302" cx="0" cy="0" r="1" gradientUnits="userSpaceOnUse" gradientTransform="translate(202.278 312.451) scale(21.5961)">
<stop offset="0.0815" stop-color="#DFAB45"/>
<stop offset="1" stop-color="#E64A24"/>
</radialGradient>
<radialGradient id="paint60_radial_49:9302" cx="0" cy="0" r="1" gradientUnits="userSpaceOnUse" gradientTransform="translate(169.191 338.977) scale(27.9631)">
<stop offset="0.0815" stop-color="#DFAB45"/>
<stop offset="1" stop-color="#E64A24"/>
</radialGradient>
<radialGradient id="paint61_radial_49:9302" cx="0" cy="0" r="1" gradientUnits="userSpaceOnUse" gradientTransform="translate(272.086 223.363) scale(11.7488)">
<stop offset="0.0815" stop-color="#DFAB45"/>
<stop offset="1" stop-color="#E64A24"/>
</radialGradient>
<radialGradient id="paint62_radial_49:9302" cx="0" cy="0" r="1" gradientUnits="userSpaceOnUse" gradientTransform="translate(282.65 253.333) scale(22.337)">
<stop offset="0.0815" stop-color="#DFAB45"/>
<stop offset="1" stop-color="#E64A24"/>
</radialGradient>
<radialGradient id="paint63_radial_49:9302" cx="0" cy="0" r="1" gradientUnits="userSpaceOnUse" gradientTransform="translate(260.968 97.0943) scale(39.3533)">
<stop offset="0.0815" stop-color="#DFAB45"/>
<stop offset="1" stop-color="#E64A24"/>
</radialGradient>
<radialGradient id="paint64_radial_49:9302" cx="0" cy="0" r="1" gradientUnits="userSpaceOnUse" gradientTransform="translate(279.91 145.371) scale(12.8472)">
<stop offset="0.0815" stop-color="#DFAB45"/>
<stop offset="1" stop-color="#E64A24"/>
</radialGradient>
<radialGradient id="paint65_radial_49:9302" cx="0" cy="0" r="1" gradientUnits="userSpaceOnUse" gradientTransform="translate(131.469 287.982) scale(45.2138)">
<stop offset="0.0815" stop-color="#DFAB45"/>
<stop offset="1" stop-color="#E64A24"/>
</radialGradient>
<radialGradient id="paint66_radial_49:9302" cx="0" cy="0" r="1" gradientUnits="userSpaceOnUse" gradientTransform="translate(65.9819 169.619) scale(35.1182)">
<stop offset="0.0815" stop-color="#DFAB45"/>
<stop offset="1" stop-color="#E64A24"/>
</radialGradient>
<radialGradient id="paint67_radial_49:9302" cx="0" cy="0" r="1" gradientUnits="userSpaceOnUse" gradientTransform="translate(79.2893 235.05) scale(54.2804)">
<stop offset="0.0815" stop-color="#DFAB45"/>
<stop offset="1" stop-color="#E64A24"/>
</radialGradient>
<radialGradient id="paint68_radial_49:9302" cx="0" cy="0" r="1" gradientUnits="userSpaceOnUse" gradientTransform="translate(187.507 149.666) scale(319.753)">
<stop offset="0.0815" stop-color="#DFAB45"/>
<stop offset="1" stop-color="#E64A24"/>
</radialGradient>
<radialGradient id="paint69_radial_49:9302" cx="0" cy="0" r="1" gradientUnits="userSpaceOnUse" gradientTransform="translate(227.688 148.073) rotate(36.7679) scale(319.753)">
<stop offset="0.0815" stop-color="#DFAB45"/>
<stop offset="1" stop-color="#E64A24"/>
</radialGradient>
<radialGradient id="paint70_radial_49:9302" cx="0" cy="0" r="1" gradientUnits="userSpaceOnUse" gradientTransform="translate(224.894 99.6963) scale(120.335)">
<stop offset="0.0815" stop-color="#DFAB45"/>
<stop offset="0.8556" stop-color="#DFAB45" stop-opacity="0"/>
</radialGradient>
<clipPath id="clip0_49:9302">
<rect width="415" height="415" fill="white"/>
</clipPath>
</defs>
</svg>
