<svg width="778" height="779" viewBox="0 0 778 779" fill="none" xmlns="http://www.w3.org/2000/svg">
<g style="mix-blend-mode:screen" opacity="0.5">
<path fill-rule="evenodd" clip-rule="evenodd" d="M0.000210018 388.997C0.000210018 398.484 0.431309 407.539 0.862355 417.025C15.0869 618.823 183.195 778.364 388.804 778.364C488.807 778.364 580.188 740.419 649.156 678.327C660.363 668.41 671.139 657.63 681.053 646.419C696.571 628.74 710.364 609.768 722.434 589.502C728.468 579.153 734.503 568.373 739.675 557.593C740.968 554.575 742.262 551.988 743.555 548.97C749.158 536.034 754.331 523.098 758.641 509.731C761.659 499.814 764.676 489.896 766.831 479.548C773.728 450.658 777.607 420.474 777.607 389.429C777.607 374.768 776.745 360.108 775.021 345.447C773.728 334.667 772.435 324.319 770.28 313.97C768.124 303.621 765.969 293.704 762.952 283.787C716.83 120.365 566.826 0.0625 388.373 0.0625C304.75 0.0625 227.162 26.3652 163.798 71.6403C148.711 82.4201 134.487 94.0623 121.124 106.998C118.538 109.585 115.521 112.172 112.934 114.76C80.1748 147.53 53.4499 186.337 34.0528 229.025C24.1388 250.154 16.38 272.576 10.7764 295.86C6.4659 313.539 3.44866 331.218 1.29343 349.759C0.862381 354.933 0.431256 360.539 0.000210018 365.713C0.000210018 373.043 0.000210018 380.805 0.000210018 388.997Z" fill="url(#paint0_radial_87:7326)"/>
</g>
<g style="mix-blend-mode:screen" opacity="0.5">
<path fill-rule="evenodd" clip-rule="evenodd" d="M63.7933 388.997C63.7933 396.759 64.2243 404.52 64.6554 412.281C76.7246 580.877 217.246 714.116 388.802 714.116C472.425 714.116 548.72 682.639 606.48 630.464C615.963 621.841 624.584 613.217 632.774 603.731C645.706 589.07 657.344 573.116 667.689 556.299C672.862 547.676 677.603 538.621 681.914 529.566C683.207 526.978 684.069 524.822 685.362 522.235C690.103 511.456 694.414 500.676 697.862 489.465C700.448 481.272 703.035 472.648 704.759 464.456C710.363 440.309 713.38 414.869 713.38 388.997C713.38 376.492 712.518 364.419 711.225 352.346C710.363 343.291 709.069 334.667 707.345 326.043C705.621 317.419 703.466 309.227 701.311 300.603C662.948 163.915 537.082 63.4473 388.371 63.4473C318.542 63.4473 253.454 85.4381 200.435 123.383C187.935 132.438 175.865 141.924 164.658 152.704C162.503 154.86 159.917 157.016 157.761 159.172C130.605 186.337 107.76 218.676 91.8113 254.465C83.6215 272.144 77.1558 291.117 72.4143 310.089C68.9659 324.75 65.9485 339.841 64.6554 354.933C64.2243 359.245 63.7933 363.988 63.7933 368.3C63.7933 375.63 63.7933 382.098 63.7933 388.997Z" fill="url(#paint1_radial_87:7326)"/>
</g>
<path opacity="0.5" fill-rule="evenodd" clip-rule="evenodd" d="M106.469 388.998C106.469 395.897 106.469 402.365 107.331 409.264C117.676 555.869 239.662 671.428 389.235 671.428C462.082 671.428 528.463 643.832 578.464 598.557C586.654 591.227 594.413 583.465 601.309 575.273C612.517 562.337 622.862 548.539 631.483 533.878C635.793 526.548 640.104 518.355 643.983 510.594C644.845 508.438 646.138 506.282 647 504.557C651.311 495.071 654.759 485.585 658.208 476.098C660.363 468.768 662.518 461.869 664.242 454.108C669.415 432.979 672.001 410.988 672.001 388.566C672.001 377.787 671.57 367.007 670.277 356.658C669.415 348.897 668.122 341.567 666.829 333.805C665.535 326.475 663.38 319.145 661.656 311.814C628.465 193.237 518.98 105.705 389.666 105.705C328.888 105.705 272.421 125.108 226.299 157.448C215.523 165.209 205.178 173.833 195.264 182.888C193.109 184.613 191.385 186.769 189.229 188.493C165.522 212.209 146.125 240.236 131.9 271.282C125.004 286.805 119.4 302.759 115.09 319.576C112.072 332.08 109.486 345.447 108.193 358.814C107.762 362.695 107.331 366.576 107.331 370.456C106.469 377.355 106.469 382.961 106.469 388.998Z" fill="url(#paint2_radial_87:7326)"/>
<path fill-rule="evenodd" clip-rule="evenodd" d="M299.144 112.604C299.144 112.604 262.936 155.723 201.297 163.484L228.883 185.475L310.782 179.007L299.144 112.604Z" fill="#FFF066"/>
<path fill-rule="evenodd" clip-rule="evenodd" d="M105.609 385.548C105.609 385.548 137.506 472.649 145.265 558.887L182.335 476.098L169.835 379.08L105.609 385.548Z" fill="#FFF066"/>
<path fill-rule="evenodd" clip-rule="evenodd" d="M136.208 406.245C136.208 406.245 152.588 418.75 150.433 461.006C148.277 503.263 145.691 532.153 145.691 532.153V570.96C145.691 570.96 191.813 442.896 136.208 406.245Z" fill="#FFAC31"/>
<path fill-rule="evenodd" clip-rule="evenodd" d="M201.297 163.915C217.246 168.227 256.471 177.282 271.989 166.934C290.523 154.86 297.851 118.209 299.144 113.466C299.144 113.035 299.144 113.035 299.144 113.035C332.335 103.117 367.25 98.8055 403.889 101.393C566.824 112.172 690.534 253.172 679.758 416.163C668.982 579.153 528.03 702.905 365.095 692.125C274.144 686.089 195.693 639.951 145.692 571.823C148.709 566.217 150.864 558.025 152.589 548.107C153.02 545.951 153.451 543.364 153.882 540.777C160.779 498.089 159.054 433.842 146.123 417.025C143.537 414.007 140.519 410.988 137.502 407.97C137.071 407.539 137.071 407.539 136.64 407.108C127.157 398.484 115.519 391.154 106.036 385.979C96.5527 380.805 89.225 377.355 89.225 377.355C94.8286 289.823 137.502 213.934 201.297 163.915ZM510.357 499.814L515.961 513.612C554.324 465.75 525.444 390.722 525.444 390.722C525.444 390.722 525.444 390.722 525.444 391.154C515.53 402.796 507.34 414.869 502.598 426.08C502.167 426.511 502.167 427.374 501.736 427.805C498.719 435.566 496.995 443.759 497.426 451.52C499.581 464.025 503.891 481.704 510.357 499.814Z" fill="url(#paint3_radial_87:7326)"/>
<path fill-rule="evenodd" clip-rule="evenodd" d="M442.685 152.273C449.151 181.163 491.393 267.401 534.067 282.062C583.206 299.31 611.655 301.034 617.69 287.667C618.552 285.943 618.983 283.355 619.414 280.337C622.431 260.502 614.672 215.227 574.585 187.631C528.463 155.723 449.582 129.42 441.823 143.649C441.823 144.943 441.823 147.961 442.685 152.273Z" fill="#FFAC31"/>
<path fill-rule="evenodd" clip-rule="evenodd" d="M367.681 150.117C368.974 160.035 373.285 171.677 381.043 177.282C390.958 184.182 410.355 187.631 420.269 185.475C424.148 184.613 426.734 182.888 426.734 180.301C424.579 144.943 375.009 129.851 369.836 134.163C367.25 135.888 366.388 142.356 367.681 150.117Z" fill="#FFAC31"/>
<path fill-rule="evenodd" clip-rule="evenodd" d="M460.786 332.512C461.217 346.31 465.959 371.319 492.684 370.456C497.425 370.456 502.167 369.163 506.908 367.438C529.323 359.677 551.737 337.686 554.323 325.181C554.323 325.181 542.685 308.796 525.012 306.64C521.995 306.209 517.684 306.64 513.374 307.071C491.822 310.09 460.355 321.301 460.786 332.512Z" fill="#FFAC31"/>
<path fill-rule="evenodd" clip-rule="evenodd" d="M515.963 513.181L510.359 499.383C510.79 500.676 511.221 501.97 511.652 503.263C516.394 516.199 521.567 529.566 527.17 540.346C536.222 558.025 546.136 570.96 555.619 571.392C579.758 573.116 626.742 553.282 646.57 513.181C666.398 473.08 678.036 374.768 667.26 359.677C655.622 343.291 631.052 330.787 600.448 333.805C590.534 334.667 575.447 343.291 559.499 355.796C547.429 365.282 534.929 377.355 524.584 389.429C525.015 390.291 554.326 465.318 515.963 513.181C515.963 513.612 515.963 513.612 515.963 513.181Z" fill="#FFAC31"/>
<path fill-rule="evenodd" clip-rule="evenodd" d="M496.998 451.089C496.136 442.896 498.291 435.135 501.309 427.374C497.86 435.997 496.136 444.19 496.998 451.089Z" fill="#FFAC31"/>
<path fill-rule="evenodd" clip-rule="evenodd" d="M201.298 484.722C211.212 510.594 247.851 539.053 265.524 540.346C283.197 541.64 314.232 535.603 316.819 521.374C324.578 481.704 309.922 397.622 275.438 388.998C256.472 384.255 236.213 382.53 220.264 383.392C206.902 384.255 196.126 387.273 191.384 392.447C181.47 404.521 191.384 458.851 201.298 484.722Z" fill="#FFAC31"/>
<path fill-rule="evenodd" clip-rule="evenodd" d="M259.921 627.878C262.076 636.07 307.767 652.887 341.82 652.887C376.303 652.887 423.718 644.694 424.149 629.171C424.149 627.446 419.839 623.997 412.942 620.547C393.976 610.63 355.613 598.125 327.164 599.419C300.439 600.712 278.025 609.768 267.249 617.96C262.076 621.41 259.49 625.29 259.921 627.878Z" fill="#FFAC31"/>
<path fill-rule="evenodd" clip-rule="evenodd" d="M122.843 371.75C128.878 376.924 143.964 379.942 154.741 377.786C158.189 376.924 160.775 376.062 162.931 374.337C172.414 367.007 190.518 325.612 180.173 316.988C173.276 310.952 165.517 307.071 157.758 304.915C141.378 300.603 125.86 304.053 123.274 310.952C119.826 321.3 115.084 364.851 122.843 371.75Z" fill="#FFAC31"/>
<path fill-rule="evenodd" clip-rule="evenodd" d="M299.146 112.604L287.508 123.814C287.508 123.814 278.887 155.292 258.628 163.053C238.369 170.814 221.989 159.172 221.989 159.172L200.868 163.484C200.868 163.484 240.955 179.869 265.525 173.402C290.526 167.365 299.146 112.604 299.146 112.604Z" fill="url(#paint4_radial_87:7326)"/>
<path fill-rule="evenodd" clip-rule="evenodd" d="M515.963 513.612L527.17 541.208C528.463 542.502 565.102 571.823 602.603 545.952C640.966 520.08 672.001 388.998 649.587 364.42C627.173 339.842 590.103 338.117 590.103 338.117L560.36 356.658C548.291 366.145 535.791 378.218 525.446 390.291C525.015 390.291 554.326 465.319 515.963 513.612Z" fill="#FFF066"/>
<path fill-rule="evenodd" clip-rule="evenodd" d="M496.998 451.089C496.136 442.896 498.291 435.135 501.309 427.374C497.86 435.997 496.136 444.19 496.998 451.089Z" fill="#FFF066"/>
<path fill-rule="evenodd" clip-rule="evenodd" d="M442.68 152.273C449.146 181.163 491.388 267.402 534.062 282.062C583.201 299.31 611.65 301.035 617.685 287.668C618.547 285.943 618.978 283.356 619.409 280.337C619.409 280.337 611.65 236.787 558.201 194.53C516.389 160.897 463.37 153.567 442.68 152.273Z" fill="#FFF066"/>
<path fill-rule="evenodd" clip-rule="evenodd" d="M460.79 332.511C461.221 346.309 465.963 371.318 492.688 370.456C497.429 370.456 502.171 369.162 506.912 367.438C513.809 364.419 519.413 361.832 521.137 360.539C526.309 357.951 541.827 328.199 535.361 319.575C531.913 315.263 521.999 310.52 512.947 307.071C491.826 310.089 460.359 321.3 460.79 332.511Z" fill="#FFF066"/>
<path fill-rule="evenodd" clip-rule="evenodd" d="M367.681 150.117C368.974 160.035 373.284 171.677 381.043 177.282C390.957 184.181 410.354 187.631 420.269 185.475C413.803 152.273 367.681 150.117 367.681 150.117Z" fill="#FFF066"/>
<path fill-rule="evenodd" clip-rule="evenodd" d="M154.741 378.218C158.189 377.356 160.775 376.493 162.931 374.769C172.414 367.438 190.518 326.044 180.173 317.42C173.276 311.383 165.517 307.503 157.758 305.347C151.292 306.64 144.827 310.09 141.378 318.282C133.619 337.686 130.171 370.457 154.741 378.218Z" fill="#FFF066"/>
<path fill-rule="evenodd" clip-rule="evenodd" d="M210.352 472.218C224.576 525.254 289.664 547.245 316.389 521.374C324.148 481.704 309.492 397.622 275.009 388.998C256.043 384.255 235.784 382.53 219.835 383.392H219.404C219.835 383.824 196.127 419.181 210.352 472.218Z" fill="#FFF066"/>
<path fill-rule="evenodd" clip-rule="evenodd" d="M267.25 617.529C276.733 626.153 297.854 639.089 341.39 640.383C406.909 642.107 412.943 620.117 412.943 620.117C393.977 610.199 355.614 597.695 327.165 598.988C300.871 599.851 278.457 609.337 267.25 617.529Z" fill="#FFF066"/>
<path fill-rule="evenodd" clip-rule="evenodd" d="M502.17 425.649C507.343 414.438 515.533 402.364 525.016 390.722C522.86 392.878 509.498 407.539 502.17 425.649Z" fill="#FFF066"/>
<path fill-rule="evenodd" clip-rule="evenodd" d="M496.993 451.089C498.718 470.492 506.476 491.621 511.218 503.694C513.373 509.3 515.097 512.749 515.528 513.18L509.925 499.382C503.89 481.703 499.58 464.025 496.993 451.089Z" fill="#FFF066"/>
<g opacity="0.2">
<path opacity="0.2" fill-rule="evenodd" clip-rule="evenodd" d="M275.866 296.292C275.435 298.879 276.729 301.035 276.729 303.622C276.729 305.778 276.297 308.365 276.297 310.952C276.297 313.971 276.297 313.971 274.142 315.264C271.987 316.558 270.694 316.558 268.108 316.127C263.797 315.695 259.918 318.283 256.038 316.989C252.159 315.695 251.297 309.659 250.866 306.64C250.004 302.76 247.417 299.741 247.417 295.861C247.417 291.117 249.573 288.962 253.883 286.806C258.193 284.65 262.504 283.356 266.814 285.943C270.694 287.668 273.28 292.411 275.866 296.292Z" fill="#FFF066"/>
<path opacity="0.2" fill-rule="evenodd" clip-rule="evenodd" d="M229.317 285.943C229.748 285.943 230.179 285.943 230.61 285.943C231.472 284.218 231.472 282.062 230.61 280.338C228.886 277.75 228.455 279.044 226.73 279.906C222.851 281.2 221.127 283.787 220.696 287.668C220.265 290.686 222.42 295.429 226.73 294.567C230.179 293.704 232.334 289.393 232.334 286.374L229.317 285.943Z" fill="#FFF066"/>
<path opacity="0.2" fill-rule="evenodd" clip-rule="evenodd" d="M376.735 393.309C384.494 393.741 391.821 401.071 394.408 407.97C395.27 410.126 396.132 412.282 396.994 414.869C397.856 417.456 397.856 420.474 398.287 423.493C398.287 424.786 397.856 426.08 397.856 427.374C397.856 428.667 398.287 429.529 398.287 430.392C398.287 432.979 397.856 435.566 397.425 438.153C396.994 439.447 396.994 440.309 396.994 441.603C396.994 442.896 396.563 443.759 396.132 445.052C395.701 447.208 395.27 449.364 394.408 451.52C393.546 453.245 392.684 455.401 391.39 456.695C390.097 457.988 388.804 459.713 387.511 460.575C384.063 462.731 379.321 462.731 375.011 462.3C371.131 461.869 367.252 461.869 363.803 461.438C360.355 461.007 356.045 461.438 352.596 460.575C349.148 459.713 345.699 457.988 342.682 455.832C339.665 453.676 337.51 450.658 335.785 447.64C333.63 444.19 331.475 440.741 329.32 437.291C327.596 433.841 326.733 430.392 325.44 426.511C324.147 422.63 322.423 419.181 322.854 414.869C323.285 410.557 323.285 406.245 324.578 401.933C325.871 398.052 329.751 395.897 332.768 393.309C336.217 390.722 340.527 388.135 344.837 386.41C346.131 385.979 346.993 385.979 348.286 385.548C348.717 385.548 348.717 385.117 349.148 385.117C349.579 385.117 350.441 385.548 350.872 385.117C351.734 385.117 352.165 384.686 353.458 384.686C354.32 384.686 355.614 384.686 356.476 385.117C357.769 385.117 357.769 385.548 359.062 385.979C359.924 386.41 361.217 385.979 362.51 386.41C363.803 386.842 364.235 387.273 365.528 387.273C366.821 387.273 367.252 387.704 368.114 388.135C368.976 388.566 370.269 388.135 371.131 388.566C371.993 388.997 372.855 389.429 373.718 389.86C375.011 390.722 376.304 392.016 376.735 393.309Z" fill="#FFF066"/>
<path opacity="0.2" fill-rule="evenodd" clip-rule="evenodd" d="M401.3 368.301C403.024 367.87 402.593 366.576 403.024 365.714C403.455 364.42 403.886 363.989 403.455 362.264C403.024 360.108 401.3 358.814 398.714 358.814C396.559 358.814 395.265 360.108 393.541 361.402C391.817 363.126 390.093 365.282 389.231 367.869C387.938 372.181 390.093 377.787 395.265 377.356C397.421 376.925 398.714 374.769 399.145 373.475C399.576 372.613 400.007 371.75 400.438 370.888C400.869 369.594 400.438 367.869 400.869 366.576L401.3 368.301Z" fill="#FFF066"/>
<path opacity="0.2" fill-rule="evenodd" clip-rule="evenodd" d="M435.785 517.493C437.509 517.493 438.803 516.631 440.527 517.062C441.82 517.493 443.544 518.786 444.837 519.649C448.717 522.236 451.303 525.686 449.579 530.429C448.717 533.447 445.268 535.603 442.682 537.328C440.096 539.052 436.216 540.777 433.63 540.777C431.906 540.777 429.751 540.777 428.026 540.346C426.302 539.915 424.578 538.621 422.854 537.759C419.405 536.034 416.819 534.309 414.233 531.291C412.078 529.135 409.922 526.548 409.491 523.098C409.06 519.218 410.785 516.199 413.802 514.043C417.681 511.456 421.13 511.025 425.871 511.456C427.164 511.456 428.457 511.456 429.32 511.887C430.182 512.319 431.475 513.181 432.337 513.181C433.63 513.612 434.061 513.612 434.923 514.043C435.354 514.475 436.216 515.337 437.078 515.768L435.785 517.493Z" fill="#FFF066"/>
<path opacity="0.2" fill-rule="evenodd" clip-rule="evenodd" d="M337.942 360.97C340.528 359.245 339.666 357.52 337.942 355.796C336.649 354.502 335.787 353.64 334.063 352.777C332.338 351.915 330.183 351.484 328.459 352.777C327.166 353.64 325.442 355.365 324.58 356.658C323.718 357.52 324.149 358.383 323.717 359.676C323.286 360.97 322.424 361.401 323.717 363.126C325.011 364.851 326.735 365.713 328.89 365.713C331.476 366.144 332.769 365.713 334.925 364.851C336.218 363.988 337.08 363.126 337.942 360.97Z" fill="#FFF066"/>
<path opacity="0.2" fill-rule="evenodd" clip-rule="evenodd" d="M328.452 205.741C328.883 206.173 328.452 208.76 328.021 209.622C327.59 210.053 327.159 210.485 326.728 210.485C326.297 210.485 325.866 211.347 325.435 211.347C323.28 212.209 320.262 212.209 318.969 210.053C317.676 207.897 318.107 205.31 319.831 203.585C321.125 202.292 325.866 200.998 326.297 204.017L328.452 205.741Z" fill="#FFF066"/>
<path opacity="0.2" fill-rule="evenodd" clip-rule="evenodd" d="M284.923 200.567H285.354C285.785 198.842 285.354 197.549 285.354 196.255C284.923 194.53 285.785 193.237 283.199 193.237C280.612 193.237 278.026 194.53 275.871 195.393C274.578 195.824 273.285 196.686 272.422 197.549C271.56 198.411 270.267 199.705 269.836 200.998C268.974 204.448 270.267 207.466 271.56 210.484C272.853 213.072 274.578 214.796 276.733 216.521C278.888 218.246 281.474 220.402 284.061 220.833C286.647 221.264 289.233 220.402 291.388 218.677C293.544 216.952 293.544 213.934 293.113 211.347C292.682 210.053 292.682 208.76 292.251 207.035C291.82 206.173 291.388 204.448 290.957 203.585C289.664 201.429 287.078 200.136 284.923 198.842V200.567Z" fill="#FFF066"/>
<path opacity="0.2" fill-rule="evenodd" clip-rule="evenodd" d="M259.921 197.98C259.921 197.549 259.921 197.549 259.921 197.117C260.352 199.705 257.765 198.842 256.472 198.842C255.61 198.842 254.748 198.842 253.886 198.411C252.593 197.98 253.024 197.549 253.024 196.255C253.024 194.53 254.317 193.668 256.041 193.668C257.334 193.668 259.921 194.099 260.352 195.393L259.921 197.98Z" fill="#FFF066"/>
<path opacity="0.2" fill-rule="evenodd" clip-rule="evenodd" d="M486.221 517.493C485.79 518.355 486.652 519.218 487.083 520.08C487.514 520.942 487.514 521.805 487.514 522.667C487.945 524.823 488.807 526.548 489.239 528.704C489.67 530.86 489.67 533.447 489.67 535.603C489.67 537.759 490.532 539.915 489.67 541.64C489.239 543.364 488.376 544.658 486.652 545.952C484.928 546.814 483.635 547.676 481.48 547.676C479.756 547.676 478.462 547.676 476.738 546.814C475.014 545.952 474.152 544.658 472.859 542.933C471.997 541.64 471.566 539.915 470.704 538.19C470.273 537.328 469.841 536.896 469.41 536.034C468.979 535.172 468.979 533.878 468.548 533.016C468.117 531.291 467.255 529.566 466.393 527.842C465.962 526.979 465.962 526.117 465.962 525.254C465.531 523.961 465.1 523.098 464.669 521.805C464.669 520.942 464.238 520.08 464.238 519.218C464.238 518.786 464.238 518.355 464.238 518.355C464.238 517.924 463.807 517.493 463.807 516.631C463.807 515.768 464.238 514.906 464.238 514.043C464.238 513.181 463.807 512.319 463.807 511.456C464.238 508.438 465.1 504.557 468.117 502.832C469.841 501.539 471.135 502.832 472.859 503.695C474.583 504.557 476.307 505.851 477.6 507.144C478.893 508.438 480.187 509.731 481.48 511.456C481.911 512.319 482.342 512.75 482.773 513.612C484.066 513.612 484.066 514.906 486.221 517.493Z" fill="#FFF066"/>
<path opacity="0.2" fill-rule="evenodd" clip-rule="evenodd" d="M489.238 576.997C490.1 576.997 491.393 574.41 491.824 573.548C492.255 572.685 491.824 571.823 491.824 570.961C492.255 570.098 492.686 569.236 492.686 568.373C492.686 566.649 493.117 564.493 493.117 563.199C492.686 561.905 493.117 559.318 491.393 559.318C489.669 559.75 488.807 561.474 488.376 562.768C487.945 563.63 487.514 564.493 487.083 565.355C487.083 565.786 487.083 566.217 487.083 566.649C487.083 567.08 486.651 567.08 486.651 567.511C486.22 568.805 486.22 571.392 486.651 572.685C486.651 573.979 486.652 576.135 488.376 576.566L489.238 576.997Z" fill="#FFF066"/>
<path opacity="0.2" fill-rule="evenodd" clip-rule="evenodd" d="M487.509 496.796C487.509 496.365 487.509 496.365 487.509 495.933C487.509 496.365 487.94 497.227 487.94 498.089C487.94 498.952 487.94 499.814 487.078 500.676C485.785 501.539 484.061 499.383 483.199 498.089C482.768 497.658 482.768 496.796 482.337 496.365C482.337 495.933 481.906 494.64 481.906 494.209C482.337 492.484 484.492 492.484 485.785 492.484L487.509 496.796Z" fill="#FFF066"/>
<path opacity="0.2" fill-rule="evenodd" clip-rule="evenodd" d="M421.564 492.053C422.426 489.465 418.977 485.585 417.684 483.429C415.529 480.842 413.374 477.823 410.787 475.236C410.356 474.805 409.494 474.805 409.063 474.805C408.632 474.374 408.201 473.511 407.77 473.08C407.339 472.649 406.477 473.08 405.615 472.649C405.184 472.218 404.753 471.787 403.891 471.355C400.442 470.493 396.994 471.355 393.976 471.787C392.252 472.218 390.528 472.218 388.804 472.649C388.373 472.649 387.511 473.08 387.08 473.511C386.218 473.511 385.356 473.511 384.494 473.511C382.769 473.942 381.907 474.374 379.752 473.942C377.597 473.942 375.442 474.805 373.286 474.805C366.821 474.805 359.493 474.805 354.751 479.979C352.596 482.135 351.303 486.447 350.441 489.465C349.579 492.915 350.01 497.658 350.872 500.676C352.165 505.851 355.182 511.025 359.493 514.906C361.648 517.062 365.096 518.786 368.114 519.649C368.976 519.649 369.407 519.649 370.269 519.649C371.131 519.649 371.993 520.511 372.424 520.511C373.717 520.942 375.873 521.374 377.597 520.942C384.494 520.08 389.666 517.062 396.132 514.474C398.718 513.181 401.735 511.456 404.322 510.163C407.339 508.869 409.925 508.007 412.512 505.851C416.822 501.97 422.857 494.64 421.132 488.603C421.132 488.603 420.701 488.603 421.564 492.053Z" fill="#FFF066"/>
<path opacity="0.2" fill-rule="evenodd" clip-rule="evenodd" d="M260.351 577.86C263.368 577.86 259.488 573.548 258.626 572.685C256.04 570.961 254.316 571.392 252.161 573.548C248.281 576.997 246.126 581.309 246.126 586.484C246.126 589.071 246.988 590.795 250.005 591.658C253.023 592.52 254.316 591.227 256.471 589.933C258.195 589.071 261.213 588.64 262.075 587.346C263.368 584.759 260.782 581.74 261.213 579.584L260.351 577.86Z" fill="#FFF066"/>
<path opacity="0.2" fill-rule="evenodd" clip-rule="evenodd" d="M188.793 534.74C188.793 534.309 188.362 534.309 188.362 533.878C190.517 534.74 191.379 536.896 193.103 538.621C195.69 541.208 198.276 543.795 200.431 546.814C203.879 551.988 207.759 558.025 209.052 564.493C210.345 570.529 208.621 576.997 205.604 582.171C201.724 587.777 196.983 588.208 190.948 589.502C188.362 589.933 186.206 588.639 183.62 587.777C181.034 586.915 178.879 585.19 176.292 583.896C171.12 581.309 166.809 578.291 164.223 573.116C161.637 567.942 161.637 562.337 162.068 556.3C162.499 553.282 161.206 550.694 161.637 547.676C162.068 544.227 162.068 541.208 163.361 538.19C165.516 533.447 168.102 527.841 174.568 528.272C178.017 528.272 180.603 531.291 183.189 533.016C185.775 534.309 189.655 536.465 188.793 534.74Z" fill="#FFF066"/>
<path opacity="0.2" fill-rule="evenodd" clip-rule="evenodd" d="M191.812 506.713C192.243 506.713 192.243 506.713 192.674 506.713C191.381 503.263 189.657 499.383 186.639 496.796C184.915 495.071 182.76 494.64 181.467 497.658C180.605 499.383 180.174 501.539 179.743 503.263C179.312 506.713 178.449 513.612 183.191 513.612C185.777 513.612 190.519 509.3 190.088 506.713H191.812Z" fill="#FFF066"/>
<path opacity="0.2" fill-rule="evenodd" clip-rule="evenodd" d="M487.081 618.823C490.099 618.392 491.823 617.098 494.409 619.685C496.995 622.272 498.289 625.291 499.582 628.309C500.875 630.896 502.168 633.915 502.168 636.933C502.168 640.382 501.306 641.676 498.72 643.401C494.409 646.85 487.081 649.006 481.909 650.731C476.305 652.456 471.133 655.905 465.529 655.905C460.356 656.337 458.201 651.162 455.615 647.713C453.891 645.557 452.598 642.97 451.305 640.382C450.442 639.52 450.011 638.227 449.58 636.933C449.149 636.502 448.718 636.071 448.718 636.071C448.287 635.639 448.287 634.346 447.856 633.915C446.563 631.759 445.27 630.896 445.27 628.309C445.27 625.291 445.701 622.272 446.563 620.116C449.149 615.373 454.753 612.355 459.494 611.061C466.822 608.906 472.857 609.337 479.754 611.493C482.771 612.355 485.788 613.649 488.806 615.373C490.53 615.805 492.254 619.685 487.081 618.823Z" fill="#FFF066"/>
<path opacity="0.2" fill-rule="evenodd" clip-rule="evenodd" d="M524.15 626.584C527.168 626.584 524.581 621.41 523.288 620.116C521.133 617.96 518.978 618.822 517.253 620.978C515.529 623.134 514.667 625.721 517.253 627.446C520.271 629.602 520.271 626.584 522.857 626.584H524.15Z" fill="#FFF066"/>
<path opacity="0.2" fill-rule="evenodd" clip-rule="evenodd" d="M196.985 200.998C197.416 200.998 197.416 200.998 197.847 201.429C197.847 203.585 199.572 205.741 200.003 207.897C200.434 210.484 200.865 213.071 200.434 215.659C200.003 220.402 199.141 224.714 194.399 226.869C192.244 227.732 190.52 228.163 188.365 229.025C185.778 229.888 183.623 229.457 181.468 229.888C177.588 230.75 171.123 230.319 170.26 225.145C169.829 222.989 170.692 220.402 170.692 218.246C170.692 215.659 170.692 213.071 171.554 210.915C172.847 207.035 173.709 203.585 175.864 200.136C177.588 197.117 181.037 194.53 184.485 193.668C187.933 192.805 193.968 194.099 194.83 198.411L196.985 200.998Z" fill="#FFF066"/>
</g>
<path fill-rule="evenodd" clip-rule="evenodd" d="M452.164 289.392C453.026 289.392 453.458 291.117 453.889 291.548C454.32 292.411 454.32 293.704 454.751 294.567C454.751 294.998 455.182 294.998 455.182 295.429C455.182 295.86 455.182 296.291 455.182 296.723C455.182 297.585 454.32 298.016 453.889 298.879C450.871 301.466 446.561 299.741 443.543 298.016C440.095 296.291 437.078 293.704 435.785 289.824C435.354 288.099 436.216 286.374 437.94 285.512C438.802 285.08 439.233 284.649 440.095 284.649C440.526 284.649 440.957 284.218 441.388 284.218C441.819 284.218 441.819 284.218 442.25 284.218C442.681 284.218 442.681 284.218 443.112 283.787C445.699 283.356 447.854 284.649 450.009 285.512C451.302 286.374 454.319 288.099 454.319 289.392C453.457 289.824 453.888 289.824 452.164 289.392Z" fill="white"/>
<g style="mix-blend-mode:color-dodge" opacity="0.5">
<path fill-rule="evenodd" clip-rule="evenodd" d="M105.606 385.548C96.123 380.374 88.7953 376.924 88.7953 376.924C94.3989 289.823 137.503 213.934 200.867 163.915L221.557 159.604C252.162 151.411 274.576 135.026 287.077 124.246L298.715 113.035C331.905 103.117 366.82 98.8055 403.459 101.393C566.394 112.172 690.105 253.172 679.329 416.163C668.552 579.153 527.6 702.905 364.665 692.125C273.714 686.089 195.264 639.951 145.262 571.823C147.849 566.217 150.435 558.456 152.159 548.539C148.28 562.768 145.262 571.823 145.262 571.823V559.318C137.935 472.218 105.606 385.548 105.606 385.548ZM510.358 499.814L515.962 513.612C554.325 465.75 525.445 390.722 525.445 390.722C525.445 390.722 525.445 390.722 525.445 391.154C515.531 402.796 507.341 414.869 502.6 426.08C502.169 426.511 502.169 427.374 501.737 427.805C498.72 435.566 496.996 443.759 497.427 451.52C499.582 464.025 503.893 481.704 510.358 499.814Z" fill="url(#paint5_linear_87:7326)"/>
</g>
<defs>
<radialGradient id="paint0_radial_87:7326" cx="0" cy="0" r="1" gradientUnits="userSpaceOnUse" gradientTransform="translate(388.84 388.846) rotate(180) scale(389.017 389.149)">
<stop offset="0.0378378" stop-color="#FF0000"/>
<stop offset="0.1472" stop-color="#FB0000"/>
<stop offset="0.2667" stop-color="#ED0000"/>
<stop offset="0.3911" stop-color="#D80000"/>
<stop offset="0.5187" stop-color="#B90000"/>
<stop offset="0.6489" stop-color="#910000"/>
<stop offset="0.7813" stop-color="#610000"/>
<stop offset="0.9129" stop-color="#290000"/>
<stop offset="1"/>
</radialGradient>
<radialGradient id="paint1_radial_87:7326" cx="0" cy="0" r="1" gradientUnits="userSpaceOnUse" gradientTransform="translate(388.838 388.845) rotate(180) scale(325.105 325.215)">
<stop offset="0.6541" stop-color="#FF2000"/>
<stop offset="0.6934" stop-color="#FB1F00"/>
<stop offset="0.7364" stop-color="#ED1E00"/>
<stop offset="0.7811" stop-color="#D81B00"/>
<stop offset="0.8269" stop-color="#B91700"/>
<stop offset="0.8738" stop-color="#911200"/>
<stop offset="0.9214" stop-color="#610C00"/>
<stop offset="0.9687" stop-color="#290500"/>
<stop offset="1"/>
</radialGradient>
<radialGradient id="paint2_radial_87:7326" cx="0" cy="0" r="1" gradientUnits="userSpaceOnUse" gradientTransform="translate(388.84 388.846) rotate(180) scale(282.473 282.569)">
<stop offset="0.827" stop-color="#06A2FF"/>
<stop offset="0.8467" stop-color="#069FFB"/>
<stop offset="0.8682" stop-color="#0697ED"/>
<stop offset="0.8905" stop-color="#0589D8"/>
<stop offset="0.9135" stop-color="#0475B9"/>
<stop offset="0.9369" stop-color="#035C91"/>
<stop offset="0.9607" stop-color="#023E61"/>
<stop offset="0.9843" stop-color="#011A29"/>
<stop offset="1"/>
</radialGradient>
<radialGradient id="paint3_radial_87:7326" cx="0" cy="0" r="1" gradientUnits="userSpaceOnUse" gradientTransform="translate(437.557 297.552) rotate(-176.22) scale(348.609 348.726)">
<stop stop-color="#FFC827"/>
<stop offset="0.3703" stop-color="#FF9E25"/>
<stop offset="0.8703" stop-color="#FF741F"/>
<stop offset="0.9973" stop-color="#FF9543"/>
</radialGradient>
<radialGradient id="paint4_radial_87:7326" cx="0" cy="0" r="1" gradientUnits="userSpaceOnUse" gradientTransform="translate(249.86 142.431) rotate(-176.22) scale(40.6316 40.6452)">
<stop stop-color="#FF27DC"/>
<stop offset="1" stop-color="#B71FFF"/>
</radialGradient>
<linearGradient id="paint5_linear_87:7326" x1="384.555" y1="692.254" x2="384.555" y2="100.334" gradientUnits="userSpaceOnUse">
<stop stop-color="#FF0097"/>
<stop offset="1"/>
</linearGradient>
</defs>
</svg>
