<svg width="702" height="678" viewBox="0 0 702 678" fill="none" xmlns="http://www.w3.org/2000/svg">
<g style="mix-blend-mode:screen" opacity="0.5">
<path fill-rule="evenodd" clip-rule="evenodd" d="M22.2631 338.359C22.2631 346.611 22.2629 354.864 23.0129 362.367C35.7627 538.673 182.011 677.468 361.258 677.468C448.256 677.468 528.505 644.457 588.504 590.44C598.254 581.437 607.254 572.434 616.253 562.681C629.753 547.676 641.753 530.421 652.253 513.165C657.503 504.162 662.753 494.409 667.253 485.406C668.752 483.155 669.502 480.154 671.002 477.904C676.252 466.65 680.752 455.396 684.502 443.393C687.502 435.14 689.752 426.137 692.002 417.134C698.002 391.626 701.002 365.368 701.002 338.359C701.002 325.605 700.252 312.851 698.752 300.097C698.002 291.094 696.502 282.091 695.002 273.088C693.502 264.085 691.252 255.082 689.002 246.829C649.253 104.284 518.005 0 362.757 0C290.008 0 222.51 23.2575 167.011 62.2701C154.261 71.2729 141.511 81.7763 129.511 93.0299C127.261 95.2807 125.011 97.5314 122.761 99.7821C94.2617 128.291 71.0124 162.052 53.7627 199.564C45.5128 218.32 38.7629 237.827 33.5129 258.083C29.763 273.088 26.7628 288.843 25.2628 305.348C24.5128 309.85 24.513 314.351 24.513 319.603C22.263 324.854 22.2631 331.607 22.2631 338.359Z" fill="url(#paint0_radial_49:9283)"/>
</g>
<g style="mix-blend-mode:screen" opacity="0.5">
<path fill-rule="evenodd" clip-rule="evenodd" d="M59.7628 338.358C59.7628 345.861 59.7627 352.613 60.5126 360.115C71.7625 516.916 202.261 639.955 361.258 639.955C438.507 639.955 509.755 610.696 563.004 562.68C572.004 555.178 580.254 546.175 587.754 537.922C599.754 524.418 610.254 509.413 620.004 493.658C624.504 485.405 629.003 477.153 633.503 468.9C634.253 466.649 635.753 464.399 636.503 462.148C641.003 452.395 644.753 441.891 648.503 432.138C650.753 424.636 653.003 416.383 655.253 408.881C660.503 386.374 663.503 363.116 663.503 339.108C663.503 327.855 662.753 316.601 661.253 305.348C660.503 297.095 659.003 288.842 657.503 281.34C656.003 273.087 653.753 265.585 651.503 258.082C615.503 131.292 499.256 38.2616 361.258 38.2616C296.759 38.2616 236.01 58.5181 187.261 93.7795C176.011 102.032 164.761 111.035 154.261 120.788C152.011 123.039 149.761 124.539 148.261 126.79C122.762 152.298 101.762 182.308 86.7622 215.319C79.2623 231.824 73.2627 249.079 68.7628 267.085C65.7628 280.59 62.7629 294.844 61.2629 309.099C60.5129 313.6 60.5126 317.351 60.5126 321.853C59.7627 326.354 59.7628 332.356 59.7628 338.358Z" fill="url(#paint1_radial_49:9283)"/>
</g>
<g style="mix-blend-mode:screen" opacity="0.5">
<path fill-rule="evenodd" clip-rule="evenodd" d="M72.5093 338.359C72.5093 345.111 72.5091 351.863 73.2591 359.366C83.7589 509.414 209.007 627.952 361.255 627.952C435.504 627.952 503.752 600.193 554.752 553.678C563.002 546.176 571.251 537.923 578.001 529.67C589.251 516.916 599.751 502.662 608.751 487.657C613.251 480.154 617.75 471.902 621.5 463.649C622.25 461.398 623.75 459.148 624.5 457.647C629 447.894 632.75 438.141 635.75 428.388C638 420.885 640.25 413.383 641.75 405.881C647 384.124 649.25 361.616 649.25 339.109C649.25 327.855 648.5 317.352 647.75 306.849C647 298.596 645.5 291.094 644 283.591C642.5 276.089 641 268.586 638.75 261.084C604.251 139.545 493.252 50.2662 360.505 50.2662C298.255 50.2662 240.506 69.7725 193.257 103.533C182.007 111.786 171.507 120.039 161.758 129.792C159.508 131.292 158.008 133.543 155.758 135.794C131.758 159.801 111.509 189.061 97.2588 220.571C89.7589 236.326 84.5091 252.831 80.0092 270.087C77.0092 282.841 74.7591 296.345 73.2591 309.85C72.5091 313.601 72.5093 318.102 72.5093 321.854C72.5093 327.105 72.5093 333.107 72.5093 338.359Z" fill="url(#paint2_radial_49:9283)"/>
</g>
<path fill-rule="evenodd" clip-rule="evenodd" d="M105.509 338.36C105.509 344.362 105.509 350.364 106.259 356.366C115.259 489.159 226.257 593.442 361.255 593.442C427.254 593.442 487.253 568.684 532.252 527.421C539.752 520.669 546.502 513.917 553.252 506.414C563.752 495.161 572.752 482.407 580.251 468.902C584.001 462.15 588.501 454.648 591.501 447.896C592.251 445.645 593.002 444.144 593.752 442.644C597.502 434.391 601.251 425.388 603.501 417.136C605.751 410.383 607.251 404.381 608.751 397.629C613.251 378.873 615.501 358.617 615.501 338.36C615.501 328.607 614.751 318.854 614.001 309.851C613.251 303.099 612.501 296.347 611.001 288.844C609.501 282.092 608.001 275.34 606.501 268.588C576.502 161.303 477.503 82.528 360.505 82.528C305.756 82.528 254.757 99.7835 212.757 129.793C203.007 136.545 193.258 144.798 185.008 153.051C183.508 154.551 181.258 156.802 179.758 158.302C158.008 180.059 140.759 205.568 128.009 233.326C122.009 247.581 116.759 261.836 113.009 276.84C110.009 288.094 107.759 300.098 107.009 312.102C106.259 315.853 106.259 318.854 106.259 322.605C105.509 328.607 105.509 333.109 105.509 338.36Z" fill="url(#paint3_radial_49:9283)"/>
<path opacity="0.2" fill-rule="evenodd" clip-rule="evenodd" d="M105.512 338.358C105.512 344.36 105.512 350.362 106.262 356.364C151.261 338.358 200.76 331.606 250.259 333.106C310.258 335.357 369.508 349.611 425.757 371.368C483.506 393.125 540.505 423.885 581.004 469.65C584.754 462.898 589.254 455.395 592.254 448.643C589.254 445.642 586.254 443.391 583.254 441.141C544.255 407.38 498.505 382.622 450.506 362.365C392.007 337.608 330.508 318.851 267.509 312.099C213.51 306.097 158.761 309.098 106.262 322.603C105.512 328.605 105.512 333.106 105.512 338.358Z" fill="#7E2654"/>
<path fill-rule="evenodd" clip-rule="evenodd" d="M107.007 312.102C152.006 294.846 201.505 287.344 250.254 288.844C310.253 291.095 369.503 305.349 425.752 327.106C491.001 351.864 554.749 387.126 595.249 443.394C598.999 435.141 602.749 426.138 604.999 417.886C598.999 410.383 589.999 402.881 583.249 397.629C544.25 363.868 498.5 339.11 450.501 318.854C392.002 294.096 330.503 275.34 267.504 268.588C215.755 263.336 163.256 265.587 113.006 277.59C110.006 288.844 108.507 300.098 107.007 312.102Z" fill="#ABA7B5"/>
<path opacity="0.4" fill-rule="evenodd" clip-rule="evenodd" d="M139.256 450.143C145.256 462.147 155.006 472.65 164.756 481.653C197.006 512.413 233.005 539.422 270.504 563.43C281.004 570.182 293.004 576.934 305.004 578.434C314.754 579.935 324.503 578.434 334.253 576.934C373.253 570.932 412.252 560.429 449.001 546.924C455.001 544.674 461.001 541.673 464.751 537.171C470.001 529.669 468.501 519.165 465.501 510.163C457.251 490.656 441.501 474.901 422.752 464.398C404.002 453.894 383.753 447.142 363.503 441.14C302.754 423.134 240.505 408.13 177.506 413.381C182.756 445.642 205.256 472.65 228.505 495.158C237.505 503.41 246.505 511.663 257.005 518.415C297.504 545.424 353.003 549.175 396.502 528.168C398.752 527.418 401.002 525.917 401.002 523.667C401.752 520.666 398.752 517.665 395.752 515.414C359.753 492.907 320.753 474.901 280.254 461.397C275.754 459.896 271.254 458.396 266.754 460.647C262.254 462.147 260.755 468.899 264.504 471.15C296.754 471.15 329.003 486.905 349.253 512.413C322.253 523.667 290.754 519.916 265.254 505.661C239.755 491.406 221.005 467.399 209.005 441.14C208.255 439.64 208.255 438.89 208.255 437.389C209.005 435.889 210.505 435.889 212.005 435.138C256.255 429.136 302.004 435.138 345.503 445.642C368.003 450.893 390.503 457.646 410.002 469.649C429.502 481.653 446.002 499.659 452.001 522.166C452.751 524.417 452.751 526.668 452.751 528.919C452.001 531.919 449.001 534.17 446.751 535.671C415.252 556.677 376.253 560.429 338.003 564.18C332.003 564.93 326.004 565.68 320.004 564.18C314.754 563.43 310.254 561.179 305.004 558.928C257.755 538.672 213.505 511.663 173.756 478.652C160.256 467.399 147.506 455.395 140.756 440.39C133.257 424.635 133.256 405.129 145.256 392.375C156.506 379.62 176.006 377.37 193.256 376.62C227.755 375.869 262.255 379.62 296.004 385.622C323.754 390.124 351.503 395.376 378.503 402.128C401.002 407.379 425.752 421.634 446.002 433.638C485.001 456.895 506.75 491.406 531.5 528.168C539 521.416 545.75 514.664 552.5 507.161C502.251 453.144 436.252 414.882 365.753 393.125C292.254 370.618 214.255 364.616 137.756 369.867C132.506 396.126 127.257 425.385 139.256 450.143Z" fill="#7E2654"/>
<path opacity="0.2" fill-rule="evenodd" clip-rule="evenodd" d="M128.757 233.325C213.506 215.319 302.754 224.322 386.003 249.83C436.252 264.835 485.001 285.092 527 315.851C555.5 336.108 580.249 360.116 600.499 388.625C604.249 393.126 607.249 396.878 609.499 399.128C613.999 380.372 616.249 360.116 616.249 339.859C616.249 330.106 615.499 320.353 614.749 311.35C612.499 307.599 610.249 304.598 607.249 301.597C575 261.834 531.5 234.075 485.001 213.819C389.753 171.055 284.004 156.8 179.756 160.552C158.756 179.308 140.757 204.816 128.757 233.325Z" fill="#7E2654"/>
<path opacity="0.4" fill-rule="evenodd" clip-rule="evenodd" d="M185.756 153.049C263.004 132.793 346.253 135.043 422.002 159.801C498.501 184.559 560 230.324 612.499 288.843C610.999 282.091 609.499 275.338 607.999 268.586C576.499 225.822 526.25 189.811 483.501 168.054C453.501 153.799 422.002 143.296 389.753 135.793C332.753 122.289 272.004 118.538 214.255 128.291C203.755 136.544 194.756 144.796 185.756 153.049Z" fill="#7E2654"/>
<path fill-rule="evenodd" clip-rule="evenodd" d="M435.508 228.823C437.008 231.824 437.758 235.575 437.758 238.576C437.758 239.326 437.758 240.076 437.758 240.827C437.008 241.577 435.508 242.327 434.758 242.327C430.258 242.327 426.508 243.077 422.008 243.077C420.508 243.077 419.758 243.077 418.258 243.077C416.758 242.327 415.258 241.577 414.508 240.076C410.008 234.825 410.758 225.072 417.508 221.32C423.508 217.569 433.258 222.071 434.758 228.823H435.508Z" fill="white"/>
<g style="mix-blend-mode:screen" opacity="0.5">
<path d="M414.502 381.873C336.217 381.873 272.754 322.084 272.754 248.33C272.754 174.576 336.217 114.787 414.502 114.787C492.787 114.787 556.25 174.576 556.25 248.33C556.25 322.084 492.787 381.873 414.502 381.873Z" fill="url(#paint4_radial_49:9283)"/>
</g>
<g style="mix-blend-mode:screen" opacity="0.5">
<path fill-rule="evenodd" clip-rule="evenodd" d="M32.0152 537.172C84.5143 634.704 182.763 683.469 251.761 646.708C320.76 609.946 334.26 500.411 281.761 402.879C229.262 305.348 131.013 256.582 62.0147 293.344C-6.98416 330.106 -20.4839 439.641 32.0152 537.172Z" fill="url(#paint5_radial_49:9283)"/>
</g>
<path opacity="0.4" fill-rule="evenodd" clip-rule="evenodd" d="M374.011 345.86C300.512 325.604 223.263 312.1 149.014 327.855C132.515 331.606 114.515 337.608 107.015 353.363C144.515 341.359 182.764 330.105 221.763 328.605C260.763 327.104 299.762 335.357 338.762 343.61C359.761 348.111 381.511 352.613 401.76 360.115C422.01 367.617 440.76 377.371 460.259 385.623C478.259 393.126 496.259 399.128 513.509 408.13C524.009 414.132 533.008 420.885 542.008 429.137C546.508 432.888 560.008 450.144 565.258 448.643C550.258 426.886 522.509 408.881 500.009 395.376C475.26 380.372 448.26 369.118 421.26 360.115C404.761 354.863 389.761 350.362 374.011 345.86Z" fill="#7E2654"/>
<path fill-rule="evenodd" clip-rule="evenodd" d="M467.006 332.357C443.757 321.853 420.507 310.6 396.507 303.847C376.258 297.845 354.508 294.845 334.259 289.593C311.009 283.591 288.509 275.338 264.51 271.587C248.01 268.586 230.76 268.586 214.261 268.586C199.261 268.586 183.511 267.836 168.511 267.836C225.511 264.835 283.26 262.584 338.759 274.588C369.508 281.34 399.507 292.594 430.257 300.846C447.507 305.348 465.507 309.099 481.256 317.352C495.506 324.854 508.256 335.358 520.255 345.111C527.755 351.113 535.255 357.115 542.005 363.867C548.005 369.118 555.505 377.371 562.255 379.622C549.505 369.118 530.756 362.366 515.006 354.864C500.006 347.361 482.756 336.108 467.006 332.357Z" fill="#E9E8EC"/>
<path fill-rule="evenodd" clip-rule="evenodd" d="M150.517 270.086C141.517 269.336 131.767 271.587 123.517 276.088C133.267 279.839 143.767 274.588 152.017 269.336L150.517 270.086Z" fill="#ABA7B5"/>
<path opacity="0.4" fill-rule="evenodd" clip-rule="evenodd" d="M509.011 296.345C497.011 289.593 482.761 285.092 469.261 280.59C418.262 261.084 371.763 225.823 317.014 220.571C295.264 218.32 273.515 222.071 251.765 222.071C215.016 222.071 176.016 213.819 142.267 229.574C167.767 222.822 194.016 222.071 220.265 222.822C317.764 225.823 416.012 251.331 500.761 300.847C521.761 313.601 553.26 328.606 568.26 348.862C545.76 336.858 531.51 309.85 509.011 296.345Z" fill="#7E2654"/>
<path fill-rule="evenodd" clip-rule="evenodd" d="M567.5 228.074C548.75 215.32 539.75 192.812 522.501 178.558C512.001 169.555 498.501 164.303 485.001 159.052C467.002 152.299 449.002 144.797 430.252 139.545C405.502 132.043 380.003 127.541 354.503 123.04C329.754 119.289 303.504 115.538 278.755 118.539C269.005 119.289 260.005 121.539 250.255 123.79C284.754 120.039 319.254 124.54 353.754 129.792C374.003 132.793 395.003 135.794 415.252 141.046C444.502 149.298 472.251 162.803 499.251 176.307C521.001 187.561 544.25 199.565 558.5 219.821L567.5 228.074Z" fill="#ABA7B5"/>
<path opacity="0.2" fill-rule="evenodd" clip-rule="evenodd" d="M437.754 414.134C412.255 400.63 383.756 395.378 356.006 387.875C335.756 381.874 315.506 374.371 294.507 369.87C251.757 359.366 206.008 359.366 163.259 369.119C254.007 365.368 346.256 381.873 430.255 417.135C446.754 423.887 462.504 431.389 476.754 441.143C464.754 431.389 452.004 421.636 437.754 414.134Z" fill="#7E2654"/>
<defs>
<radialGradient id="paint0_radial_49:9283" cx="0" cy="0" r="1" gradientUnits="userSpaceOnUse" gradientTransform="translate(361.327 338.609) rotate(180) scale(339.095 339.21)">
<stop stop-color="#9C1F59"/>
<stop offset="0.148" stop-color="#981E56"/>
<stop offset="0.3096" stop-color="#8A1C4F"/>
<stop offset="0.4776" stop-color="#751743"/>
<stop offset="0.6501" stop-color="#561131"/>
<stop offset="0.8251" stop-color="#2F091B"/>
<stop offset="1"/>
</radialGradient>
<radialGradient id="paint1_radial_49:9283" cx="0" cy="0" r="1" gradientUnits="userSpaceOnUse" gradientTransform="translate(361.328 338.609) rotate(180) scale(301.483 301.585)">
<stop offset="0.6541" stop-color="#0645FF"/>
<stop offset="0.6934" stop-color="#0644FB"/>
<stop offset="0.7364" stop-color="#0640ED"/>
<stop offset="0.7811" stop-color="#053AD8"/>
<stop offset="0.8269" stop-color="#0432B9"/>
<stop offset="0.8738" stop-color="#032791"/>
<stop offset="0.9214" stop-color="#021A61"/>
<stop offset="0.9687" stop-color="#010B29"/>
<stop offset="1"/>
</radialGradient>
<radialGradient id="paint2_radial_49:9283" cx="0" cy="0" r="1" gradientUnits="userSpaceOnUse" gradientTransform="translate(361.324 338.609) rotate(180) scale(289.03 289.127)">
<stop stop-color="#9C1F59"/>
<stop offset="0.00846035" stop-color="#A01F57"/>
<stop offset="0.0176925" stop-color="#AE1F50"/>
<stop offset="0.0272531" stop-color="#C31F45"/>
<stop offset="0.0351351" stop-color="#DB1F39"/>
<stop offset="0.1484" stop-color="#D61E38"/>
<stop offset="0.2784" stop-color="#C81C34"/>
<stop offset="0.4167" stop-color="#B1192E"/>
<stop offset="0.5608" stop-color="#911526"/>
<stop offset="0.7095" stop-color="#680F1B"/>
<stop offset="0.8596" stop-color="#36080E"/>
<stop offset="1"/>
</radialGradient>
<radialGradient id="paint3_radial_49:9283" cx="0" cy="0" r="1" gradientUnits="userSpaceOnUse" gradientTransform="translate(392.223 269.37) rotate(180) scale(330.462 330.574)">
<stop stop-color="#E496FF"/>
<stop offset="0.773" stop-color="#5515A6"/>
<stop offset="0.9973" stop-color="#9A3989"/>
</radialGradient>
<radialGradient id="paint4_radial_49:9283" cx="0" cy="0" r="1" gradientUnits="userSpaceOnUse" gradientTransform="translate(414.254 248.507) rotate(180) scale(141.672 133.628)">
<stop stop-color="#FF6DFF"/>
<stop offset="1"/>
</radialGradient>
<radialGradient id="paint5_radial_49:9283" cx="0" cy="0" r="1" gradientUnits="userSpaceOnUse" gradientTransform="translate(156.486 470.367) rotate(151.764) scale(141.685 200.464)">
<stop stop-color="#FF4074"/>
<stop offset="1"/>
</radialGradient>
</defs>
</svg>
