<svg width="281" height="407" viewBox="0 0 281 407" fill="none" xmlns="http://www.w3.org/2000/svg">
<g clip-path="url(#clip0_49:17)">
<path d="M202.185 144.242C202.185 144.242 313.716 236.334 427.905 265.172C653.401 322.124 863.409 162.917 899 120.851L873.763 390.078C873.763 390.078 595.573 450.075 395.549 344.128C253.299 268.784 170.389 178.807 170.389 178.807L202.185 144.242Z" fill="url(#paint0_linear_49:17)"/>
<path d="M202.186 144.241C202.186 144.241 305.304 253.806 419.493 282.645C644.99 339.597 831.531 268.914 867.122 226.847L872.2 351.619C872.2 351.619 597.042 429.149 397.018 323.202C254.768 247.857 170.392 178.806 170.392 178.806L202.186 144.241Z" fill="url(#paint1_linear_49:17)"/>
<path d="M192.493 147.854C205.102 145.263 218.502 156.927 226.446 167C245.96 191.743 264.957 213.905 302.108 237.887C297.141 238.415 264.144 234.211 223.006 212.626C212.688 207.213 198.568 199.874 190.609 191.443C185.525 186.058 180.926 180.034 177.131 173.674C172.394 165.732 175.886 160.275 182.036 153.927C185.36 150.497 188.895 148.594 192.493 147.854Z" fill="url(#paint2_linear_49:17)"/>
<path d="M191.393 126.382L202.614 140.434C202.614 140.434 202.7 152.924 191.119 166.174C179.541 179.425 170.391 178.807 170.391 178.807L153.802 167.931L191.393 126.382Z" fill="url(#paint3_radial_49:17)"/>
<path opacity="0.34" d="M154.359 167.311L167.415 175.869C167.415 175.869 176.563 176.491 188.144 163.239C199.722 149.987 199.636 137.497 199.636 137.497L191.056 126.748L191.389 126.378L202.61 140.43C202.61 140.43 202.696 152.918 191.118 166.169C179.54 179.421 170.389 178.802 170.389 178.802L153.8 167.927L154.359 167.311Z" fill="url(#paint4_radial_49:17)"/>
<path opacity="0.5" d="M170.392 178.807L153.802 167.931L191.394 126.382L193.838 129.442C193.152 134.293 190.54 145.94 180.72 156.455C167.933 170.145 166.827 169.622 166.827 169.622L176.622 177.37C172.771 178.957 170.392 178.807 170.392 178.807Z" fill="url(#paint5_radial_49:17)"/>
<path d="M163.864 89.1186C163.864 89.1186 186.699 76.1232 215.371 88.8235C244.043 101.524 259.225 153.115 251.141 149.731C243.057 146.348 213.544 108.542 190.672 122.847C175.344 132.433 158.998 100.328 163.864 89.1186Z" fill="url(#paint6_radial_49:17)"/>
<path opacity="0.34" d="M218.41 96.4334C189.738 83.7331 166.903 96.7286 166.903 96.7286C165.218 100.609 166.113 106.99 168.591 113.283C164.907 105.919 163.253 97.7045 165.267 93.0629C165.267 93.0629 188.102 80.0675 216.774 92.7678C232.018 99.5192 243.446 117.265 249.596 131.896C243.166 118.083 232.401 102.631 218.41 96.4334Z" fill="url(#paint7_radial_49:17)"/>
<g style="mix-blend-mode:multiply" opacity="0.5">
<path d="M163.864 89.1191C163.864 89.1191 166.719 87.5219 171.601 85.9945C171.262 94.8505 178.225 107.895 189.733 108.648C206.933 109.772 222.806 118.17 230.773 113.564C234.958 111.144 231.49 103.632 227.46 96.9811C248.113 115.936 257.998 152.602 251.141 149.732C243.058 146.348 213.544 108.542 190.673 122.848C175.344 132.434 158.998 100.328 163.864 89.1191Z" fill="url(#paint8_radial_49:17)"/>
</g>
<path opacity="0.34" d="M199.016 90.3707C198.744 91.7841 200.867 93.3762 203.753 93.9302C206.639 94.4842 209.199 93.7878 209.471 92.3744C209.742 90.9609 207.62 89.3663 204.734 88.8149C201.845 88.2609 199.288 88.9572 199.016 90.3707Z" fill="url(#paint9_radial_49:17)"/>
<path opacity="0.34" d="M191.094 90.5999C191.265 91.4671 192.841 91.8865 194.611 91.5344C196.382 91.185 197.681 90.1961 197.508 89.3288C197.337 88.4616 195.761 88.0422 193.99 88.3943C192.22 88.7464 190.92 89.7327 191.094 90.5999Z" fill="url(#paint10_radial_49:17)"/>
<path d="M113.921 149.897C113.921 149.897 105.597 174.819 123.61 200.491C141.623 226.161 195.173 231.062 190.288 223.787C185.404 216.513 142.599 194.879 152.199 169.665C158.634 152.768 123.975 142.952 113.921 149.897Z" fill="url(#paint11_radial_49:17)"/>
<path opacity="0.34" d="M131.665 201.998C113.652 176.329 121.976 151.404 121.976 151.404C125.455 148.999 131.89 148.642 138.542 149.854C130.606 147.666 122.227 147.633 118.063 150.511C118.063 150.511 109.738 175.435 127.751 201.105C137.328 214.753 156.949 222.53 172.492 225.727C157.699 222.095 140.455 214.525 131.665 201.998Z" fill="url(#paint12_radial_49:17)"/>
<g style="mix-blend-mode:multiply" opacity="0.5">
<path d="M113.921 149.897C113.921 149.897 112.909 153.006 112.355 158.093C120.977 156.043 135.123 160.348 138.089 171.495C142.526 188.153 153.837 202.099 150.863 210.81C149.3 215.384 141.258 213.438 133.953 210.771C156.548 227.362 194.432 229.956 190.288 223.787C185.403 216.513 142.598 194.879 152.199 169.665C158.634 152.768 123.975 142.952 113.921 149.897Z" fill="url(#paint13_radial_49:17)"/>
</g>
<path opacity="0.34" d="M121.96 184.144C123.293 183.605 125.268 185.376 126.371 188.102C127.474 190.828 127.285 193.474 125.952 194.012C124.619 194.553 122.644 192.78 121.541 190.054C120.438 187.331 120.627 184.685 121.96 184.144Z" fill="url(#paint14_radial_49:17)"/>
<path opacity="0.34" d="M120.646 176.328C121.532 176.328 122.246 177.793 122.246 179.6C122.246 181.407 121.529 182.869 120.644 182.869C119.761 182.869 119.044 181.404 119.044 179.597C119.047 177.79 119.764 176.328 120.646 176.328Z" fill="url(#paint15_radial_49:17)"/>
<path d="M192.504 124.914C192.504 124.914 150.224 67.0663 122.927 47.1952C95.6291 27.3267 38.2358 23.7828 35.7716 34.5881C33.3074 45.3935 39.2115 81.7755 66.8353 112.178C94.4591 142.58 154.112 171.633 154.112 171.633C154.112 171.633 182.373 165.35 192.504 124.914Z" fill="url(#paint16_radial_49:17)"/>
<path opacity="0.35" d="M183.09 136.367C183.09 136.367 134.736 85.9102 108.114 65.2185C81.4916 44.5268 35.5701 27.0218 36.4813 33.7214C37.3898 40.421 51.5874 66.7122 81.2353 94.6523C110.883 122.592 165.282 158.037 165.282 158.037C165.282 158.037 185.782 161.198 183.09 136.367Z" fill="url(#paint17_radial_49:17)"/>
<g style="mix-blend-mode:multiply" opacity="0.6">
<path d="M66.8353 112.18C39.2115 81.7778 33.3074 45.3958 35.7716 34.5905C36.0149 33.5265 36.8069 32.6075 38.0338 31.8231C41.7017 55.6808 74.3289 107.611 85.5187 117.132C90.561 121.422 100.133 128.447 111.02 134.233C110.557 133.894 110.086 133.576 109.638 133.208C96.9052 122.742 94.8422 104.207 105.03 91.8066C115.218 79.4066 133.801 77.8404 146.533 88.304C159.266 98.7702 161.329 117.306 151.141 129.706C143.862 138.564 132.307 141.86 121.653 139.224C136.902 145.378 152.681 147.05 161.282 134.691C174.527 115.659 160.713 88.3273 153.861 77.0353C174.175 99.8394 192.504 124.914 192.504 124.914C182.373 165.35 154.112 171.635 154.112 171.635C154.112 171.635 94.4565 142.582 66.8353 112.18Z" fill="url(#paint18_radial_49:17)"/>
</g>
<path d="M109.355 131.28C121.474 141.239 139.37 139.489 149.331 127.368C159.291 115.248 157.539 97.3493 145.422 87.3879C133.303 77.429 115.407 79.179 105.447 91.2969C95.4862 103.42 97.236 121.318 109.355 131.28Z" fill="#E0A326"/>
<path d="M111.752 128.367C122.261 137.006 137.783 135.486 146.421 124.976C155.059 114.466 153.539 98.9414 143.03 90.3028C132.521 81.6642 116.998 83.1838 108.361 93.694C99.7232 104.204 101.24 119.729 111.752 128.367Z" fill="#E0A326"/>
<path d="M113.375 126.39C122.794 134.133 136.705 132.772 144.444 123.351C152.186 113.931 150.825 100.019 141.405 92.2788C131.986 84.5385 118.076 85.8976 110.336 95.3179C102.597 104.738 103.956 118.65 113.375 126.39Z" fill="url(#paint19_radial_49:17)"/>
<path opacity="0.5" d="M108.191 116.299C109.268 117.891 110.578 119.361 112.139 120.645C120.844 127.8 133.698 126.542 140.852 117.836C145.907 111.683 146.744 103.464 143.736 96.6425C148.664 103.932 148.467 113.868 142.597 121.013C135.442 129.719 122.588 130.974 113.883 123.822C111.331 121.722 109.439 119.128 108.191 116.299Z" fill="url(#paint20_radial_49:17)"/>
<path opacity="0.5" d="M139.306 90.7627C139.681 96.1887 138.084 101.762 134.359 106.295C127.174 115.037 114.68 116.826 105.39 110.849C105.014 105.423 106.612 99.8492 110.336 95.3163C117.522 86.5716 130.016 84.7854 139.306 90.7627Z" fill="url(#paint21_radial_49:17)"/>
<path d="M99.9079 86.522C88.0244 100.449 74.0184 106.406 64.1047 108.984C38.8752 79.271 33.3928 45.0195 35.7742 34.5869C38.1064 24.364 89.5749 26.9916 118.239 44.1238C117.194 52.6407 118.594 64.6213 99.9079 86.522Z" fill="url(#paint22_radial_49:17)"/>
<g style="mix-blend-mode:multiply" opacity="0.5">
<path d="M64.1064 108.984C38.8769 79.271 33.3946 45.0195 35.7759 34.5869C36.0581 33.3547 37.065 32.314 38.6465 31.4597C39.0451 36.0366 69.0502 93.8559 88.2797 70.8887C102.177 54.2923 97.6602 40.7351 93.2832 33.8854C102.283 36.3887 110.991 39.7902 118.238 44.1212C117.195 52.6381 118.596 64.6162 99.9096 86.5194C88.0261 100.449 74.0175 106.406 64.1064 108.984Z" fill="url(#paint23_radial_49:17)"/>
</g>
<path d="M59.473 103.186C69.3298 100.496 82.8725 94.5189 94.4351 80.9695C111.394 61.0932 111.809 49.4025 112.52 41.0409C114.506 42.0117 116.419 43.0394 118.238 44.1267C117.195 52.6436 118.596 64.6216 99.9096 86.5249C88.0261 100.452 74.0201 106.409 64.1063 108.987C62.4782 107.069 60.9381 105.133 59.473 103.186Z" fill="#E0A326"/>
<path d="M112.52 41.0409C113.309 41.4266 114.026 41.8615 114.79 42.2654C113.964 50.7072 114.412 62.561 96.5882 83.452C84.9739 97.0636 71.3535 103.038 61.4864 105.71C60.8211 104.869 60.1093 104.035 59.4725 103.186C69.3293 100.496 82.8721 94.5189 94.4346 80.9694C111.394 61.0906 111.811 49.3999 112.52 41.0409Z" fill="#E0A326"/>
<path opacity="0.5" d="M120.695 93.4002C120.983 94.8085 123.55 95.4738 126.431 94.8861C129.31 94.2985 131.411 92.6779 131.124 91.2697C130.837 89.8588 128.269 89.1961 125.388 89.7837C122.51 90.3714 120.408 91.9893 120.695 93.4002Z" fill="url(#paint24_radial_49:17)"/>
<path opacity="0.5" d="M113.458 96.6299C113.948 97.3651 115.563 97.1528 117.067 96.1536C118.57 95.1543 119.394 93.7461 118.907 93.0109C118.418 92.2731 116.803 92.4879 115.296 93.4872C113.792 94.4864 112.969 95.8947 113.458 96.6299Z" fill="url(#paint25_radial_49:17)"/>
<path d="M67.1797 56.2748C60.1573 64.9755 50.5438 70.2358 41.9346 71.2998C35.6939 54.7397 34.392 40.6441 35.7716 34.589C35.8208 34.3716 35.9243 34.1696 36.0175 33.9625C36.0848 33.8279 36.1288 33.6907 36.2116 33.5613C36.2918 33.4293 36.3979 33.3076 36.4989 33.1808C36.649 32.9892 36.8173 32.8028 37.0037 32.619C37.2056 32.4274 37.4075 32.2359 37.656 32.0598C37.6612 32.0547 37.6663 32.0521 37.6715 32.0469C43.2418 28.0758 59.8156 27.4907 77.8725 30.4911C78.3695 40.0927 74.0287 47.7915 67.1797 56.2748Z" fill="url(#paint26_radial_49:17)"/>
<path opacity="0.5" d="M36.2007 33.5918C36.2887 33.4468 36.4026 33.307 36.5139 33.1673C36.6433 33.0042 36.7883 32.8462 36.9462 32.6883C37.3785 32.2715 37.9039 31.8832 38.5407 31.5286C38.5769 31.5079 38.6105 31.4846 38.6494 31.4639C38.8694 33.9387 47.6856 51.8527 58.7744 64.2657C53.3775 68.1953 47.4552 70.621 41.9393 71.3018C38.8513 63.1059 36.9798 55.5235 36.035 49.2096C36.0065 49.0206 35.9833 48.8368 35.9574 48.6478C35.7736 47.3613 35.6339 46.1342 35.5277 44.9615C35.4993 44.656 35.4733 44.3531 35.4526 44.0554C35.375 43.0484 35.3336 42.101 35.3103 41.1975C35.3025 40.8713 35.2896 40.5322 35.2896 40.2189C35.287 39.3828 35.3206 38.6217 35.3672 37.8891C35.3853 37.6199 35.3879 37.3222 35.4112 37.0685C35.4966 36.1417 35.6131 35.3004 35.7762 34.5859C35.8253 34.3684 35.9289 34.1665 36.0221 33.9594C36.0816 33.8403 36.1282 33.7135 36.2007 33.5918Z" fill="url(#paint27_radial_49:17)"/>
<path d="M40.3999 66.88C48.2946 65.174 56.7044 60.1622 63.0254 52.3339C69.0668 44.8499 73.1461 37.9716 73.6871 29.8663C75.0719 30.0579 76.4671 30.2624 77.8778 30.4954C78.3722 40.0944 74.0313 47.7933 67.1823 56.2766C60.1599 64.9773 50.5465 70.2376 41.9374 71.3015C41.368 69.7975 40.8865 68.34 40.3999 66.88Z" fill="#E0A326"/>
<path d="M63.0249 52.3339C69.0663 44.8499 73.1456 37.9716 73.6866 29.8663C74.1163 29.9259 74.5537 29.9984 74.9834 30.0605C74.8384 38.7716 70.6892 46.0122 64.3087 53.9156C57.804 61.9743 49.0861 67.0327 40.9947 68.5886C40.8031 68.0216 40.5909 67.4443 40.402 66.88C48.2941 65.174 56.7039 60.1622 63.0249 52.3339Z" fill="#E0A326"/>
<path opacity="0.34" d="M37.3411 38.4675C37.3411 38.4675 37.1288 54.5901 46.895 74.4353C56.6612 94.2805 61.9855 100.69 61.9855 100.69C61.9855 100.69 68.014 98.3112 73.2686 94.8889C73.2711 94.8889 53.0891 78.3003 37.3411 38.4675Z" fill="url(#paint28_radial_49:17)"/>
<path opacity="0.34" d="M54.9554 33.5892C54.6862 35.0026 56.8062 36.5947 59.6923 37.1487C62.5784 37.7027 65.1384 37.0063 65.4101 35.5929C65.6819 34.1794 63.5594 32.5873 60.6733 32.0334C57.7872 31.4794 55.2272 32.1757 54.9554 33.5892Z" fill="url(#paint29_radial_49:17)"/>
<path opacity="0.34" d="M47.035 33.8154C47.2058 34.6826 48.7822 35.102 50.5527 34.7499C52.3232 34.4004 53.6225 33.4115 53.4517 32.5443C53.2809 31.6771 51.7045 31.2577 49.934 31.6098C48.1609 31.9592 46.8616 32.9481 47.035 33.8154Z" fill="url(#paint30_radial_49:17)"/>
<path opacity="0.34" d="M90.663 39.7111C90.3912 41.1245 92.5137 42.7166 95.3997 43.2706C98.2858 43.8246 100.846 43.1282 101.118 41.7148C101.387 40.3013 99.2668 38.7093 96.3807 38.1553C93.4921 37.6039 90.9322 38.3002 90.663 39.7111Z" fill="url(#paint31_radial_49:17)"/>
<path opacity="0.34" d="M82.7392 39.938C82.9101 40.8053 84.4865 41.2246 86.257 40.8726C88.0275 40.5231 89.3268 39.5342 89.1534 38.667C88.9826 37.7998 87.4062 37.3804 85.6357 37.7324C83.8652 38.0845 82.5684 39.0708 82.7392 39.938Z" fill="url(#paint32_radial_49:17)"/>
<path d="M39.9124 31.5105L3.60181 3.80334L36.1255 36.3877C36.1255 36.3877 41.5638 36.4291 39.9124 31.5105Z" fill="#E0A326"/>
<path d="M3.60181 3.80334L5.66739 5.37988L35.9495 33.2113C35.9495 33.2113 39.2782 33.7938 39.4464 31.1584L39.9124 31.5131C41.5638 36.4317 36.1255 36.3903 36.1255 36.3903L3.60181 3.80334Z" fill="#E0A326"/>
<path d="M1.30659 6.34445C2.83376 7.59999 5.08824 7.37994 6.34362 5.85259C7.59901 4.32524 7.37898 2.07046 5.85181 0.814926C4.32464 -0.440608 2.07017 -0.220566 0.814784 1.30678C-0.44319 2.83413 -0.223168 5.08892 1.30659 6.34445Z" fill="#E0A326"/>
<path d="M0.031677 3.74834C1.5045 4.72429 3.48462 4.54308 4.6779 3.17364C5.30948 2.4488 5.58389 1.54274 5.54248 0.652222C5.64084 0.71694 5.75476 0.73765 5.84794 0.815312C7.37513 2.07085 7.59507 4.32563 6.33967 5.85298C5.08428 7.38033 2.82978 7.60037 1.3026 6.34484C0.489825 5.67694 0.0782691 4.72429 0.031677 3.74834Z" fill="#E0A326"/>
</g>
<defs>
<linearGradient id="paint0_linear_49:17" x1="221.684" y1="76.0402" x2="738.522" y2="268.431" gradientUnits="userSpaceOnUse">
<stop offset="0.0081" stop-color="#61C6F2"/>
<stop offset="1" stop-color="#61C6F2" stop-opacity="0"/>
</linearGradient>
<linearGradient id="paint1_linear_49:17" x1="205.748" y1="118.14" x2="712.091" y2="306.624" gradientUnits="userSpaceOnUse">
<stop offset="0.0081" stop-color="#61C6F2"/>
<stop offset="1" stop-color="#61C6F2" stop-opacity="0"/>
</linearGradient>
<linearGradient id="paint2_linear_49:17" x1="296.761" y1="227.61" x2="191.46" y2="168.314" gradientUnits="userSpaceOnUse">
<stop stop-color="#FEE62A"/>
<stop offset="0.1378" stop-color="#FDD82B"/>
<stop offset="0.3964" stop-color="#F9B42C"/>
<stop offset="0.7453" stop-color="#F37B2F"/>
<stop offset="0.9911" stop-color="#EF4E31"/>
</linearGradient>
<radialGradient id="paint3_radial_49:17" cx="0" cy="0" r="1" gradientUnits="userSpaceOnUse" gradientTransform="translate(179.763 157.924) rotate(129.409) scale(31.248 31.2474)">
<stop stop-color="#F20074"/>
<stop offset="0.1407" stop-color="#ED0376"/>
<stop offset="0.3069" stop-color="#DF0B7D"/>
<stop offset="0.486" stop-color="#C71887"/>
<stop offset="0.6741" stop-color="#A62A96"/>
<stop offset="0.8675" stop-color="#7B42A9"/>
<stop offset="0.8985" stop-color="#7446AC"/>
</radialGradient>
<radialGradient id="paint4_radial_49:17" cx="0" cy="0" r="1" gradientUnits="userSpaceOnUse" gradientTransform="translate(182.283 155.116) rotate(129.409) scale(22.0851 22.0846)">
<stop offset="0.0519" stop-color="#E0A326"/>
<stop offset="0.4493" stop-color="#E0A128" stop-opacity="0.5808"/>
<stop offset="0.5925" stop-color="#DF9C2F" stop-opacity="0.4298"/>
<stop offset="0.6945" stop-color="#DD923A" stop-opacity="0.3222"/>
<stop offset="0.777" stop-color="#DB844B" stop-opacity="0.2352"/>
<stop offset="0.8477" stop-color="#D87261" stop-opacity="0.1607"/>
<stop offset="0.9102" stop-color="#D45B7D" stop-opacity="0.0947"/>
<stop offset="0.9654" stop-color="#CF419C" stop-opacity="0.0365"/>
<stop offset="1" stop-color="#CC2DB4" stop-opacity="0"/>
</radialGradient>
<radialGradient id="paint5_radial_49:17" cx="0" cy="0" r="1" gradientUnits="userSpaceOnUse" gradientTransform="translate(178.192 156.632) rotate(129.409) scale(30.1479 30.1472)">
<stop stop-color="#F20074"/>
<stop offset="0.1407" stop-color="#ED0376"/>
<stop offset="0.3069" stop-color="#DF0B7D"/>
<stop offset="0.486" stop-color="#C71887"/>
<stop offset="0.6741" stop-color="#A62A96"/>
<stop offset="0.8675" stop-color="#7B42A9"/>
<stop offset="0.8985" stop-color="#7446AC"/>
</radialGradient>
<radialGradient id="paint6_radial_49:17" cx="0" cy="0" r="1" gradientUnits="userSpaceOnUse" gradientTransform="translate(165.376 64.3674) rotate(129.409) scale(146.788 146.785)">
<stop stop-color="#F20074"/>
<stop offset="0.1407" stop-color="#ED0376"/>
<stop offset="0.3069" stop-color="#DF0B7D"/>
<stop offset="0.486" stop-color="#C71887"/>
<stop offset="0.6741" stop-color="#A62A96"/>
<stop offset="0.8675" stop-color="#7B42A9"/>
<stop offset="0.8985" stop-color="#7446AC"/>
</radialGradient>
<radialGradient id="paint7_radial_49:17" cx="0" cy="0" r="1" gradientUnits="userSpaceOnUse" gradientTransform="translate(180.514 71.79) rotate(129.409) scale(113.296 113.293)">
<stop offset="0.0519" stop-color="#E0A326"/>
<stop offset="0.4493" stop-color="#E0A128" stop-opacity="0.5808"/>
<stop offset="0.5925" stop-color="#DF9C2F" stop-opacity="0.4298"/>
<stop offset="0.6945" stop-color="#DD923A" stop-opacity="0.3222"/>
<stop offset="0.777" stop-color="#DB844B" stop-opacity="0.2352"/>
<stop offset="0.8477" stop-color="#D87261" stop-opacity="0.1607"/>
<stop offset="0.9102" stop-color="#D45B7D" stop-opacity="0.0947"/>
<stop offset="0.9654" stop-color="#CF419C" stop-opacity="0.0365"/>
<stop offset="1" stop-color="#CC2DB4" stop-opacity="0"/>
</radialGradient>
<radialGradient id="paint8_radial_49:17" cx="0" cy="0" r="1" gradientUnits="userSpaceOnUse" gradientTransform="translate(209.828 115.644) rotate(129.409) scale(42.6429 42.642)">
<stop stop-color="#F20074"/>
<stop offset="0.1407" stop-color="#ED0376"/>
<stop offset="0.3069" stop-color="#DF0B7D"/>
<stop offset="0.486" stop-color="#C71887"/>
<stop offset="0.6741" stop-color="#A62A96"/>
<stop offset="0.8675" stop-color="#7B42A9"/>
<stop offset="0.8985" stop-color="#7446AC"/>
</radialGradient>
<radialGradient id="paint9_radial_49:17" cx="0" cy="0" r="1" gradientUnits="userSpaceOnUse" gradientTransform="translate(199.203 78.4949) rotate(-169.151) scale(42.1368 42.1412)">
<stop offset="0.0519" stop-color="#E0A326"/>
<stop offset="0.4493" stop-color="#E0A128" stop-opacity="0.5808"/>
<stop offset="0.5925" stop-color="#DF9C2F" stop-opacity="0.4298"/>
<stop offset="0.6945" stop-color="#DD923A" stop-opacity="0.3222"/>
<stop offset="0.777" stop-color="#DB844B" stop-opacity="0.2352"/>
<stop offset="0.8477" stop-color="#D87261" stop-opacity="0.1607"/>
<stop offset="0.9102" stop-color="#D45B7D" stop-opacity="0.0947"/>
<stop offset="0.9654" stop-color="#CF419C" stop-opacity="0.0365"/>
<stop offset="1" stop-color="#CC2DB4" stop-opacity="0"/>
</radialGradient>
<radialGradient id="paint10_radial_49:17" cx="0" cy="0" r="1" gradientUnits="userSpaceOnUse" gradientTransform="translate(194.19 77.2183) rotate(168.813) scale(42.1373 42.1414)">
<stop offset="0.0519" stop-color="#E0A326"/>
<stop offset="0.4493" stop-color="#E0A128" stop-opacity="0.5808"/>
<stop offset="0.5925" stop-color="#DF9C2F" stop-opacity="0.4298"/>
<stop offset="0.6945" stop-color="#DD923A" stop-opacity="0.3222"/>
<stop offset="0.777" stop-color="#DB844B" stop-opacity="0.2352"/>
<stop offset="0.8477" stop-color="#D87261" stop-opacity="0.1607"/>
<stop offset="0.9102" stop-color="#D45B7D" stop-opacity="0.0947"/>
<stop offset="0.9654" stop-color="#CF419C" stop-opacity="0.0365"/>
<stop offset="1" stop-color="#CC2DB4" stop-opacity="0"/>
</radialGradient>
<radialGradient id="paint11_radial_49:17" cx="0" cy="0" r="1" gradientUnits="userSpaceOnUse" gradientTransform="translate(89.9334 156.18) rotate(-50.5908) scale(146.788 146.785)">
<stop stop-color="#F20074"/>
<stop offset="0.1407" stop-color="#ED0376"/>
<stop offset="0.3069" stop-color="#DF0B7D"/>
<stop offset="0.486" stop-color="#C71887"/>
<stop offset="0.6741" stop-color="#A62A96"/>
<stop offset="0.8675" stop-color="#7B42A9"/>
<stop offset="0.8985" stop-color="#7446AC"/>
</radialGradient>
<radialGradient id="paint12_radial_49:17" cx="0" cy="0" r="1" gradientUnits="userSpaceOnUse" gradientTransform="translate(100.149 169.595) rotate(-50.5908) scale(113.295 113.292)">
<stop offset="0.0519" stop-color="#E0A326"/>
<stop offset="0.4493" stop-color="#E0A128" stop-opacity="0.5808"/>
<stop offset="0.5925" stop-color="#DF9C2F" stop-opacity="0.4298"/>
<stop offset="0.6945" stop-color="#DD923A" stop-opacity="0.3222"/>
<stop offset="0.777" stop-color="#DB844B" stop-opacity="0.2352"/>
<stop offset="0.8477" stop-color="#D87261" stop-opacity="0.1607"/>
<stop offset="0.9102" stop-color="#D45B7D" stop-opacity="0.0947"/>
<stop offset="0.9654" stop-color="#CF419C" stop-opacity="0.0365"/>
<stop offset="1" stop-color="#CC2DB4" stop-opacity="0"/>
</radialGradient>
<radialGradient id="paint13_radial_49:17" cx="0" cy="0" r="1" gradientUnits="userSpaceOnUse" gradientTransform="translate(148.846 189.856) rotate(-50.5908) scale(42.6429 42.642)">
<stop stop-color="#F20074"/>
<stop offset="0.1407" stop-color="#ED0376"/>
<stop offset="0.3069" stop-color="#DF0B7D"/>
<stop offset="0.486" stop-color="#C71887"/>
<stop offset="0.6741" stop-color="#A62A96"/>
<stop offset="0.8675" stop-color="#7B42A9"/>
<stop offset="0.8985" stop-color="#7446AC"/>
</radialGradient>
<radialGradient id="paint14_radial_49:17" cx="0" cy="0" r="1" gradientUnits="userSpaceOnUse" gradientTransform="translate(110.346 186.629) rotate(-112.021) scale(42.1416 42.1384)">
<stop offset="0.0519" stop-color="#E0A326"/>
<stop offset="0.4493" stop-color="#E0A128" stop-opacity="0.5808"/>
<stop offset="0.5925" stop-color="#DF9C2F" stop-opacity="0.4298"/>
<stop offset="0.6945" stop-color="#DD923A" stop-opacity="0.3222"/>
<stop offset="0.777" stop-color="#DB844B" stop-opacity="0.2352"/>
<stop offset="0.8477" stop-color="#D87261" stop-opacity="0.1607"/>
<stop offset="0.9102" stop-color="#D45B7D" stop-opacity="0.0947"/>
<stop offset="0.9654" stop-color="#CF419C" stop-opacity="0.0365"/>
<stop offset="1" stop-color="#CC2DB4" stop-opacity="0"/>
</radialGradient>
<radialGradient id="paint15_radial_49:17" cx="0" cy="0" r="1" gradientUnits="userSpaceOnUse" gradientTransform="translate(108.121 181.958) rotate(-89.9828) scale(42.1394 42.1347)">
<stop offset="0.0519" stop-color="#E0A326"/>
<stop offset="0.4493" stop-color="#E0A128" stop-opacity="0.5808"/>
<stop offset="0.5925" stop-color="#DF9C2F" stop-opacity="0.4298"/>
<stop offset="0.6945" stop-color="#DD923A" stop-opacity="0.3222"/>
<stop offset="0.777" stop-color="#DB844B" stop-opacity="0.2352"/>
<stop offset="0.8477" stop-color="#D87261" stop-opacity="0.1607"/>
<stop offset="0.9102" stop-color="#D45B7D" stop-opacity="0.0947"/>
<stop offset="0.9654" stop-color="#CF419C" stop-opacity="0.0365"/>
<stop offset="1" stop-color="#CC2DB4" stop-opacity="0"/>
</radialGradient>
<radialGradient id="paint16_radial_49:17" cx="0" cy="0" r="1" gradientUnits="userSpaceOnUse" gradientTransform="translate(29.4488 1.70979) rotate(129.409) scale(255.748 255.742)">
<stop offset="0.1015" stop-color="white"/>
<stop offset="0.2217" stop-color="#F7F9FE"/>
<stop offset="0.4098" stop-color="#E1EAFB"/>
<stop offset="0.6422" stop-color="#BCD0F7"/>
<stop offset="0.9077" stop-color="#8AADF1"/>
<stop offset="1" stop-color="#779FEF"/>
</radialGradient>
<radialGradient id="paint17_radial_49:17" cx="0" cy="0" r="1" gradientUnits="userSpaceOnUse" gradientTransform="translate(29.1909 46.2963) rotate(129.409) scale(266.831 266.825)">
<stop stop-color="#61C6F2"/>
<stop offset="0.6169" stop-color="#5A9CD4"/>
<stop offset="0.6642" stop-color="#6088CB"/>
<stop offset="0.7646" stop-color="#6B64BA"/>
<stop offset="0.8463" stop-color="#724EB0"/>
<stop offset="0.8985" stop-color="#7446AC"/>
</radialGradient>
<radialGradient id="paint18_radial_49:17" cx="0" cy="0" r="1" gradientUnits="userSpaceOnUse" gradientTransform="translate(103.37 97.0561) rotate(129.409) scale(112.976 112.974)">
<stop stop-color="#61C6F2"/>
<stop offset="0.6169" stop-color="#5A9CD4"/>
<stop offset="0.6642" stop-color="#6088CB"/>
<stop offset="0.7646" stop-color="#6B64BA"/>
<stop offset="0.8463" stop-color="#724EB0"/>
<stop offset="0.8985" stop-color="#7446AC"/>
</radialGradient>
<radialGradient id="paint19_radial_49:17" cx="0" cy="0" r="1" gradientUnits="userSpaceOnUse" gradientTransform="translate(111.893 83.9663) rotate(129.409) scale(68.6581 68.6566)">
<stop stop-color="#4A289C"/>
<stop offset="0.963" stop-color="#00092B"/>
</radialGradient>
<radialGradient id="paint20_radial_49:17" cx="0" cy="0" r="1" gradientUnits="userSpaceOnUse" gradientTransform="translate(121.976 93.1856) rotate(129.409) scale(51.1493 51.1482)">
<stop stop-color="#4A289C"/>
<stop offset="0.963" stop-color="#00092B"/>
</radialGradient>
<radialGradient id="paint21_radial_49:17" cx="0" cy="0" r="1" gradientUnits="userSpaceOnUse" gradientTransform="translate(115.002 84.1689) rotate(129.409) scale(45.5747 45.5737)">
<stop stop-color="#4A289C"/>
<stop offset="0.963" stop-color="#00092B"/>
</radialGradient>
<radialGradient id="paint22_radial_49:17" cx="0" cy="0" r="1" gradientUnits="userSpaceOnUse" gradientTransform="translate(40.3798 10.6451) rotate(129.409) scale(129.639 129.636)">
<stop stop-color="#F20074"/>
<stop offset="0.1407" stop-color="#ED0376"/>
<stop offset="0.3069" stop-color="#DF0B7D"/>
<stop offset="0.486" stop-color="#C71887"/>
<stop offset="0.6741" stop-color="#A62A96"/>
<stop offset="0.8675" stop-color="#7B42A9"/>
<stop offset="0.8985" stop-color="#7446AC"/>
</radialGradient>
<radialGradient id="paint23_radial_49:17" cx="0" cy="0" r="1" gradientUnits="userSpaceOnUse" gradientTransform="translate(22.4264 17.7032) rotate(129.409) scale(122.251 122.248)">
<stop stop-color="#F20074"/>
<stop offset="0.1407" stop-color="#ED0376"/>
<stop offset="0.3069" stop-color="#DF0B7D"/>
<stop offset="0.486" stop-color="#C71887"/>
<stop offset="0.6741" stop-color="#A62A96"/>
<stop offset="0.8675" stop-color="#7B42A9"/>
<stop offset="0.8985" stop-color="#7446AC"/>
</radialGradient>
<radialGradient id="paint24_radial_49:17" cx="0" cy="0" r="1" gradientUnits="userSpaceOnUse" gradientTransform="translate(116.343 82.3496) rotate(168.444) scale(42.1363 42.1406)">
<stop stop-color="#4A289C"/>
<stop offset="0.963" stop-color="#00092B"/>
</radialGradient>
<radialGradient id="paint25_radial_49:17" cx="0" cy="0" r="1" gradientUnits="userSpaceOnUse" gradientTransform="translate(111.225 83.0805) rotate(146.412) scale(42.1323 42.1342)">
<stop stop-color="#4A289C"/>
<stop offset="0.963" stop-color="#00092B"/>
</radialGradient>
<radialGradient id="paint26_radial_49:17" cx="0" cy="0" r="1" gradientUnits="userSpaceOnUse" gradientTransform="translate(40.8371 19.6787) rotate(129.409) scale(67.7419 67.7404)">
<stop stop-color="#F20074"/>
<stop offset="0.1407" stop-color="#ED0376"/>
<stop offset="0.3069" stop-color="#DF0B7D"/>
<stop offset="0.486" stop-color="#C71887"/>
<stop offset="0.6741" stop-color="#A62A96"/>
<stop offset="0.8675" stop-color="#7B42A9"/>
<stop offset="0.8985" stop-color="#7446AC"/>
</radialGradient>
<radialGradient id="paint27_radial_49:17" cx="0" cy="0" r="1" gradientUnits="userSpaceOnUse" gradientTransform="translate(22.377 35.8613) rotate(129.409) scale(45.2108 45.2098)">
<stop stop-color="#F20074"/>
<stop offset="0.1407" stop-color="#ED0376"/>
<stop offset="0.3069" stop-color="#DF0B7D"/>
<stop offset="0.486" stop-color="#C71887"/>
<stop offset="0.6741" stop-color="#A62A96"/>
<stop offset="0.8675" stop-color="#7B42A9"/>
<stop offset="0.8985" stop-color="#7446AC"/>
</radialGradient>
<radialGradient id="paint28_radial_49:17" cx="0" cy="0" r="1" gradientUnits="userSpaceOnUse" gradientTransform="translate(49.9291 72.622) rotate(129.409) scale(39.1824 39.1816)">
<stop offset="0.0519" stop-color="#E0A326"/>
<stop offset="0.4493" stop-color="#E0A128" stop-opacity="0.5808"/>
<stop offset="0.5925" stop-color="#DF9C2F" stop-opacity="0.4298"/>
<stop offset="0.6945" stop-color="#DD923A" stop-opacity="0.3222"/>
<stop offset="0.777" stop-color="#DB844B" stop-opacity="0.2352"/>
<stop offset="0.8477" stop-color="#D87261" stop-opacity="0.1607"/>
<stop offset="0.9102" stop-color="#D45B7D" stop-opacity="0.0947"/>
<stop offset="0.9654" stop-color="#CF419C" stop-opacity="0.0365"/>
<stop offset="1" stop-color="#CC2DB4" stop-opacity="0"/>
</radialGradient>
<radialGradient id="paint29_radial_49:17" cx="0" cy="0" r="1" gradientUnits="userSpaceOnUse" gradientTransform="translate(55.1422 21.7133) rotate(-169.151) scale(42.1344 42.1387)">
<stop offset="0.0519" stop-color="#E0A326"/>
<stop offset="0.4493" stop-color="#E0A128" stop-opacity="0.5808"/>
<stop offset="0.5925" stop-color="#DF9C2F" stop-opacity="0.4298"/>
<stop offset="0.6945" stop-color="#DD923A" stop-opacity="0.3222"/>
<stop offset="0.777" stop-color="#DB844B" stop-opacity="0.2352"/>
<stop offset="0.8477" stop-color="#D87261" stop-opacity="0.1607"/>
<stop offset="0.9102" stop-color="#D45B7D" stop-opacity="0.0947"/>
<stop offset="0.9654" stop-color="#CF419C" stop-opacity="0.0365"/>
<stop offset="1" stop-color="#CC2DB4" stop-opacity="0"/>
</radialGradient>
<radialGradient id="paint30_radial_49:17" cx="0" cy="0" r="1" gradientUnits="userSpaceOnUse" gradientTransform="translate(50.1318 20.4331) rotate(168.812) scale(42.1376 42.1422)">
<stop offset="0.0519" stop-color="#E0A326"/>
<stop offset="0.4493" stop-color="#E0A128" stop-opacity="0.5808"/>
<stop offset="0.5925" stop-color="#DF9C2F" stop-opacity="0.4298"/>
<stop offset="0.6945" stop-color="#DD923A" stop-opacity="0.3222"/>
<stop offset="0.777" stop-color="#DB844B" stop-opacity="0.2352"/>
<stop offset="0.8477" stop-color="#D87261" stop-opacity="0.1607"/>
<stop offset="0.9102" stop-color="#D45B7D" stop-opacity="0.0947"/>
<stop offset="0.9654" stop-color="#CF419C" stop-opacity="0.0365"/>
<stop offset="1" stop-color="#CC2DB4" stop-opacity="0"/>
</radialGradient>
<radialGradient id="paint31_radial_49:17" cx="0" cy="0" r="1" gradientUnits="userSpaceOnUse" gradientTransform="translate(90.8494 27.8369) rotate(-169.151) scale(42.1357 42.1405)">
<stop offset="0.0519" stop-color="#E0A326"/>
<stop offset="0.4493" stop-color="#E0A128" stop-opacity="0.5808"/>
<stop offset="0.5925" stop-color="#DF9C2F" stop-opacity="0.4298"/>
<stop offset="0.6945" stop-color="#DD923A" stop-opacity="0.3222"/>
<stop offset="0.777" stop-color="#DB844B" stop-opacity="0.2352"/>
<stop offset="0.8477" stop-color="#D87261" stop-opacity="0.1607"/>
<stop offset="0.9102" stop-color="#D45B7D" stop-opacity="0.0947"/>
<stop offset="0.9654" stop-color="#CF419C" stop-opacity="0.0365"/>
<stop offset="1" stop-color="#CC2DB4" stop-opacity="0"/>
</radialGradient>
<radialGradient id="paint32_radial_49:17" cx="0" cy="0" r="1" gradientUnits="userSpaceOnUse" gradientTransform="translate(85.8378 26.5583) rotate(168.812) scale(42.1349 42.1391)">
<stop offset="0.0519" stop-color="#E0A326"/>
<stop offset="0.4493" stop-color="#E0A128" stop-opacity="0.5808"/>
<stop offset="0.5925" stop-color="#DF9C2F" stop-opacity="0.4298"/>
<stop offset="0.6945" stop-color="#DD923A" stop-opacity="0.3222"/>
<stop offset="0.777" stop-color="#DB844B" stop-opacity="0.2352"/>
<stop offset="0.8477" stop-color="#D87261" stop-opacity="0.1607"/>
<stop offset="0.9102" stop-color="#D45B7D" stop-opacity="0.0947"/>
<stop offset="0.9654" stop-color="#CF419C" stop-opacity="0.0365"/>
<stop offset="1" stop-color="#CC2DB4" stop-opacity="0"/>
</radialGradient>
<clipPath id="clip0_49:17">
<rect width="899" height="407" fill="white" transform="matrix(-1 0 0 1 899 0)"/>
</clipPath>
</defs>
</svg>
