<svg width="422" height="408" viewBox="0 0 422 408" fill="none" xmlns="http://www.w3.org/2000/svg">
<g clip-path="url(#clip0_27:19756)">
<path d="M219.815 144.305C219.815 144.305 108.284 236.396 -5.90466 265.235C-231.401 322.187 -441.409 162.98 -477 120.913L-451.763 390.141C-451.763 390.141 -173.573 450.137 26.4508 344.191C168.701 268.846 251.611 178.87 251.611 178.87L219.815 144.305Z" fill="url(#paint0_linear_27:19756)"/>
<path d="M219.814 144.304C219.814 144.304 116.696 253.869 2.50687 282.708C-222.99 339.66 -409.531 268.977 -445.122 226.91L-450.2 351.682C-450.2 351.682 -175.042 429.211 24.9823 323.265C167.232 247.92 251.608 178.868 251.608 178.868L219.814 144.304Z" fill="url(#paint1_linear_27:19756)"/>
<path d="M229.507 147.916C216.898 145.325 203.498 156.99 195.554 167.063C176.04 191.806 157.043 213.968 119.892 237.95C124.859 238.478 157.856 234.274 198.994 212.689C209.312 207.276 223.432 199.937 231.391 191.505C236.475 186.121 241.074 180.097 244.869 173.736C249.606 165.794 246.114 160.337 239.964 153.99C236.64 150.56 233.105 148.657 229.507 147.916Z" fill="url(#paint2_linear_27:19756)"/>
<path d="M230.607 126.445L219.386 140.496C219.386 140.496 219.3 152.987 230.881 166.236C242.459 179.488 251.609 178.869 251.609 178.869L268.198 167.994L230.607 126.445Z" fill="url(#paint3_radial_27:19756)"/>
<path opacity="0.34" d="M267.641 167.374L254.585 175.932C254.585 175.932 245.437 176.554 233.856 163.302C222.278 150.05 222.364 137.56 222.364 137.56L230.944 126.811L230.611 126.441L219.39 140.493C219.39 140.493 219.304 152.981 230.882 166.232C242.46 179.484 251.611 178.865 251.611 178.865L268.2 167.99L267.641 167.374Z" fill="url(#paint4_radial_27:19756)"/>
<path opacity="0.5" d="M251.609 178.869L268.198 167.994L230.606 126.445L228.163 129.505C228.849 134.356 231.46 146.003 241.281 156.518C254.068 170.207 255.173 169.684 255.173 169.684L245.378 177.432C249.23 179.019 251.609 178.869 251.609 178.869Z" fill="url(#paint5_radial_27:19756)"/>
<path d="M258.136 89.1816C258.136 89.1816 235.301 76.1862 206.629 88.8865C177.957 101.587 162.775 153.178 170.859 149.794C178.943 146.411 208.456 108.605 231.328 122.91C246.656 132.496 263.002 100.391 258.136 89.1816Z" fill="url(#paint6_radial_27:19756)"/>
<path opacity="0.34" d="M203.59 96.4964C232.262 83.7961 255.097 96.7916 255.097 96.7916C256.782 100.672 255.887 107.053 253.409 113.346C257.093 105.982 258.747 97.7675 256.733 93.1259C256.733 93.1259 233.898 80.1305 205.226 92.8308C189.982 99.5822 178.554 117.328 172.404 131.959C178.834 118.146 189.599 102.694 203.59 96.4964Z" fill="url(#paint7_radial_27:19756)"/>
<g style="mix-blend-mode:multiply" opacity="0.5">
<path d="M258.136 89.1822C258.136 89.1822 255.281 87.585 250.399 86.0576C250.738 94.9137 243.775 107.958 232.267 108.712C215.067 109.835 199.194 118.233 191.227 113.628C187.042 111.207 190.51 103.695 194.54 97.0442C173.887 115.999 164.002 152.666 170.859 149.795C178.942 146.411 208.456 108.605 231.327 122.911C246.656 132.497 263.002 100.391 258.136 89.1822Z" fill="url(#paint8_radial_27:19756)"/>
</g>
<path opacity="0.34" d="M222.984 90.4337C223.255 91.8471 221.133 93.4392 218.247 93.9932C215.361 94.5472 212.801 93.8508 212.529 92.4373C212.257 91.0239 214.38 89.4292 217.266 88.8778C220.154 88.3239 222.712 89.0202 222.984 90.4337Z" fill="url(#paint9_radial_27:19756)"/>
<path opacity="0.34" d="M230.906 90.6628C230.735 91.53 229.159 91.9494 227.388 91.5973C225.618 91.2478 224.318 90.2589 224.492 89.3917C224.662 88.5245 226.239 88.1051 228.009 88.4572C229.78 88.8092 231.079 89.7956 230.906 90.6628Z" fill="url(#paint10_radial_27:19756)"/>
<path d="M308.078 149.96C308.078 149.96 316.402 174.882 298.39 200.554C280.377 226.224 226.827 231.124 231.711 223.85C236.596 216.576 279.401 194.942 269.8 169.727C263.365 152.831 298.025 143.014 308.078 149.96Z" fill="url(#paint11_radial_27:19756)"/>
<path opacity="0.34" d="M290.334 202.061C308.347 176.392 300.023 151.467 300.023 151.467C296.544 149.062 290.109 148.705 283.457 149.917C291.393 147.729 299.772 147.696 303.936 150.574C303.936 150.574 312.261 175.498 294.248 201.168C284.671 214.816 265.05 222.593 249.507 225.79C264.3 222.158 281.544 214.588 290.334 202.061Z" fill="url(#paint12_radial_27:19756)"/>
<g style="mix-blend-mode:multiply" opacity="0.5">
<path d="M308.078 149.96C308.078 149.96 309.09 153.069 309.644 158.156C301.022 156.106 286.876 160.411 283.91 171.558C279.474 188.216 268.162 202.162 271.136 210.873C272.7 215.447 280.742 213.5 288.046 210.834C265.452 227.425 227.568 230.019 231.712 223.85C236.596 216.576 279.401 194.942 269.801 169.727C263.366 152.831 298.025 143.014 308.078 149.96Z" fill="url(#paint13_radial_27:19756)"/>
</g>
<path opacity="0.34" d="M300.039 184.207C298.706 183.668 296.731 185.439 295.628 188.165C294.525 190.891 294.714 193.537 296.047 194.075C297.38 194.616 299.355 192.843 300.458 190.117C301.561 187.394 301.372 184.748 300.039 184.207Z" fill="url(#paint14_radial_27:19756)"/>
<path opacity="0.34" d="M301.353 176.39C300.467 176.39 299.753 177.855 299.753 179.662C299.753 181.469 300.47 182.932 301.355 182.932C302.238 182.932 302.955 181.467 302.955 179.66C302.952 177.853 302.235 176.39 301.353 176.39Z" fill="url(#paint15_radial_27:19756)"/>
<path d="M229.496 124.977C229.496 124.977 271.775 67.1291 299.073 47.258C326.37 27.3895 383.764 23.8455 386.228 34.6509C388.692 45.4562 382.788 81.8382 355.164 112.24C327.54 142.642 267.887 171.696 267.887 171.696C267.887 171.696 239.627 165.413 229.496 124.977Z" fill="url(#paint16_radial_27:19756)"/>
<path opacity="0.35" d="M238.91 136.43C238.91 136.43 287.264 85.973 313.886 65.2813C340.508 44.5896 386.43 27.0846 385.519 33.7843C384.61 40.4839 370.413 66.775 340.765 94.7152C311.117 122.655 256.718 158.1 256.718 158.1C256.718 158.1 236.218 161.261 238.91 136.43Z" fill="url(#paint17_radial_27:19756)"/>
<g style="mix-blend-mode:multiply" opacity="0.6">
<path d="M355.164 112.242C382.788 81.8404 388.692 45.4584 386.228 34.6531C385.985 33.5891 385.193 32.6701 383.966 31.8857C380.298 55.7435 347.671 107.673 336.481 117.195C331.439 121.484 321.867 128.51 310.98 134.296C311.443 133.957 311.914 133.638 312.362 133.271C325.094 122.805 327.157 104.269 316.969 91.8692C306.781 79.4692 288.199 77.903 275.466 88.3666C262.734 98.8329 260.671 117.368 270.859 129.768C278.138 138.627 289.692 141.922 300.346 139.287C285.098 145.44 269.319 147.113 260.717 134.754C247.472 115.722 261.287 88.3899 268.138 77.0979C247.824 99.902 229.496 124.976 229.496 124.976C239.627 165.412 267.887 171.698 267.887 171.698C267.887 171.698 327.543 142.645 355.164 112.242Z" fill="url(#paint18_radial_27:19756)"/>
</g>
<path d="M312.645 131.343C300.525 141.301 282.629 139.551 272.669 127.431C262.708 115.311 264.461 97.4121 276.577 87.4506C288.696 77.4918 306.593 79.2418 316.553 91.3596C326.513 103.483 324.764 121.381 312.645 131.343Z" fill="#E0A326"/>
<path d="M310.248 128.43C299.739 137.069 284.217 135.549 275.579 125.039C266.941 114.529 268.461 99.0042 278.97 90.3656C289.479 81.7271 305.002 83.2466 313.639 93.7569C322.277 104.267 320.76 119.792 310.248 128.43Z" fill="#E0A326"/>
<path d="M308.625 126.453C299.206 134.196 285.296 132.834 277.556 123.414C269.814 113.994 271.176 100.082 280.595 92.3414C290.014 84.6011 303.925 85.9602 311.664 95.3806C319.404 104.801 318.045 118.713 308.625 126.453Z" fill="url(#paint19_radial_27:19756)"/>
<path opacity="0.5" d="M313.809 116.361C312.732 117.953 311.422 119.424 309.861 120.708C301.156 127.863 288.302 126.605 281.148 117.899C276.093 111.746 275.256 103.526 278.264 96.7051C273.336 103.995 273.533 113.93 279.403 121.075C286.558 129.781 299.412 131.037 308.117 123.884C310.669 121.785 312.561 119.191 313.809 116.361Z" fill="url(#paint20_radial_27:19756)"/>
<path opacity="0.5" d="M282.694 90.8256C282.319 96.2516 283.916 101.825 287.641 106.358C294.826 115.1 307.32 116.889 316.61 110.912C316.986 105.486 315.388 99.9121 311.664 95.3792C304.478 86.6345 291.984 84.8482 282.694 90.8256Z" fill="url(#paint21_radial_27:19756)"/>
<path d="M322.093 86.5846C333.976 100.512 347.982 106.469 357.896 109.047C383.125 79.3336 388.608 45.0821 386.226 34.6495C383.894 24.4266 332.426 27.0542 303.761 44.1864C304.807 52.7033 303.407 64.684 322.093 86.5846Z" fill="url(#paint22_radial_27:19756)"/>
<g style="mix-blend-mode:multiply" opacity="0.5">
<path d="M357.894 109.047C383.124 79.3337 388.606 45.0822 386.225 34.6496C385.942 33.4174 384.936 32.3767 383.354 31.5225C382.955 36.0993 352.95 93.9186 333.721 70.9514C319.823 54.3551 324.34 40.7979 328.717 33.9481C319.717 36.4514 311.01 39.853 303.762 44.1839C304.805 52.7009 303.405 64.6789 322.091 86.5821C333.974 100.512 347.983 106.469 357.894 109.047Z" fill="url(#paint23_radial_27:19756)"/>
</g>
<path d="M362.527 103.249C352.671 100.559 339.128 94.5815 327.565 81.0321C310.606 61.1558 310.192 49.4651 309.48 41.1035C307.495 42.0743 305.582 43.102 303.762 44.1893C304.805 52.7062 303.405 64.6842 322.091 86.5875C333.974 100.515 347.98 106.472 357.894 109.05C359.522 107.132 361.062 105.195 362.527 103.249Z" fill="#E0A326"/>
<path d="M309.48 41.1035C308.691 41.4892 307.974 41.9241 307.21 42.328C308.036 50.7698 307.588 62.6236 325.412 83.5147C337.026 97.1262 350.646 103.101 360.514 105.773C361.179 104.931 361.891 104.098 362.527 103.249C352.671 100.559 339.128 94.5815 327.565 81.0321C310.606 61.1532 310.189 49.4625 309.48 41.1035Z" fill="#E0A326"/>
<path opacity="0.5" d="M301.305 93.463C301.017 94.8712 298.45 95.5365 295.569 94.9489C292.69 94.3612 290.589 92.7407 290.876 91.3324C291.163 89.9216 293.731 89.2588 296.612 89.8465C299.49 90.4341 301.592 92.0521 301.305 93.463Z" fill="url(#paint24_radial_27:19756)"/>
<path opacity="0.5" d="M308.541 96.6927C308.052 97.4279 306.437 97.2156 304.933 96.2163C303.429 95.2171 302.606 93.8088 303.093 93.0736C303.582 92.3358 305.197 92.5507 306.703 93.5499C308.207 94.5492 309.03 95.9575 308.541 96.6927Z" fill="url(#paint25_radial_27:19756)"/>
<path d="M354.82 56.3374C361.843 65.0381 371.456 70.2984 380.065 71.3624C386.306 54.8023 387.608 40.7067 386.228 34.6516C386.179 34.4342 386.076 34.2323 385.982 34.0252C385.915 33.8906 385.871 33.7534 385.788 33.6239C385.708 33.4919 385.602 33.3702 385.501 33.2434C385.351 33.0518 385.183 32.8654 384.996 32.6816C384.794 32.4901 384.593 32.2985 384.344 32.1225C384.339 32.1173 384.334 32.1147 384.329 32.1095C378.758 28.1384 362.184 27.5534 344.127 30.5537C343.63 40.1553 347.971 47.8542 354.82 56.3374Z" fill="url(#paint26_radial_27:19756)"/>
<path opacity="0.5" d="M385.799 33.6543C385.711 33.5093 385.597 33.3695 385.486 33.2298C385.357 33.0667 385.212 32.9087 385.054 32.7508C384.622 32.334 384.096 31.9457 383.459 31.5911C383.423 31.5704 383.389 31.5471 383.351 31.5264C383.131 34.0012 374.314 51.9152 363.226 64.3282C368.622 68.2578 374.545 70.6835 380.061 71.3643C383.149 63.1684 385.02 55.586 385.965 49.2721C385.993 49.0831 386.017 48.8993 386.043 48.7103C386.226 47.4237 386.366 46.1967 386.472 45.024C386.501 44.7185 386.527 44.4156 386.547 44.1179C386.625 43.1109 386.666 42.1635 386.69 41.26C386.698 40.9338 386.71 40.5947 386.71 40.2814C386.713 39.4453 386.679 38.6842 386.633 37.9516C386.615 37.6824 386.612 37.3847 386.589 37.131C386.503 36.2042 386.387 35.3629 386.224 34.6484C386.175 34.4309 386.071 34.229 385.978 34.0219C385.918 33.9028 385.872 33.776 385.799 33.6543Z" fill="url(#paint27_radial_27:19756)"/>
<path d="M381.6 66.9429C373.705 65.2369 365.296 60.2251 358.975 52.3968C352.933 44.9128 348.854 38.0345 348.313 29.9292C346.928 30.1208 345.533 30.3253 344.122 30.5583C343.628 40.1573 347.969 47.8562 354.818 56.3394C361.84 65.0401 371.453 70.3004 380.063 71.3644C380.632 69.8604 381.113 68.4029 381.6 66.9429Z" fill="#E0A326"/>
<path d="M358.975 52.3968C352.934 44.9128 348.854 38.0345 348.313 29.9292C347.884 29.9887 347.446 30.0612 347.017 30.1234C347.162 38.8344 351.311 46.0751 357.691 53.9785C364.196 62.0372 372.914 67.0956 381.005 68.6514C381.197 68.0845 381.409 67.5072 381.598 66.9429C373.706 65.2369 365.296 60.2251 358.975 52.3968Z" fill="#E0A326"/>
<path opacity="0.34" d="M384.658 38.5303C384.658 38.5303 384.871 54.6529 375.105 74.4981C365.338 94.3433 360.014 100.753 360.014 100.753C360.014 100.753 353.985 98.3739 348.731 94.9516C348.728 94.9516 368.91 78.363 384.658 38.5303Z" fill="url(#paint28_radial_27:19756)"/>
<path opacity="0.34" d="M367.045 33.6519C367.314 35.0654 365.194 36.6574 362.308 37.2114C359.422 37.7654 356.862 37.0691 356.59 35.6556C356.319 34.2422 358.441 32.6501 361.327 32.0961C364.213 31.5421 366.773 32.2385 367.045 33.6519Z" fill="url(#paint29_radial_27:19756)"/>
<path opacity="0.34" d="M374.965 33.8781C374.794 34.7453 373.218 35.1647 371.447 34.8126C369.677 34.4632 368.377 33.4743 368.548 32.607C368.719 31.7398 370.296 31.3204 372.066 31.6725C373.839 32.022 375.138 33.0109 374.965 33.8781Z" fill="url(#paint30_radial_27:19756)"/>
<path opacity="0.34" d="M331.337 39.7736C331.609 41.187 329.486 42.7791 326.6 43.3331C323.714 43.8871 321.154 43.1907 320.882 41.7773C320.613 40.3638 322.733 38.7718 325.619 38.2178C328.508 37.6664 331.068 38.3627 331.337 39.7736Z" fill="url(#paint31_radial_27:19756)"/>
<path opacity="0.34" d="M339.261 40.0007C339.09 40.8679 337.514 41.2873 335.743 40.9352C333.973 40.5857 332.673 39.5968 332.847 38.7296C333.017 37.8624 334.594 37.443 336.364 37.7951C338.135 38.1471 339.432 39.1334 339.261 40.0007Z" fill="url(#paint32_radial_27:19756)"/>
<path d="M382.087 31.5734L418.398 3.86621L385.874 36.4505C385.874 36.4505 380.436 36.492 382.087 31.5734Z" fill="#E0A326"/>
<path d="M418.398 3.86621L416.332 5.44275L386.05 33.2742C386.05 33.2742 382.721 33.8566 382.553 31.2213L382.087 31.576C380.436 36.4946 385.874 36.4531 385.874 36.4531L418.398 3.86621Z" fill="#E0A326"/>
<path d="M420.693 6.4072C419.166 7.66273 416.912 7.44269 415.656 5.91534C414.401 4.38799 414.621 2.1332 416.148 0.87767C417.675 -0.377864 419.93 -0.157822 421.185 1.36953C422.443 2.89688 422.223 5.15166 420.693 6.4072Z" fill="#E0A326"/>
<path d="M421.968 3.81096C420.495 4.78691 418.515 4.6057 417.322 3.23627C416.691 2.51142 416.416 1.60537 416.458 0.714844C416.359 0.779562 416.245 0.800272 416.152 0.877934C414.625 2.13347 414.405 4.38825 415.66 5.9156C416.916 7.44295 419.17 7.66299 420.697 6.40746C421.51 5.73957 421.922 4.78691 421.968 3.81096Z" fill="#E0A326"/>
</g>
<defs>
<linearGradient id="paint0_linear_27:19756" x1="200.316" y1="76.1027" x2="-316.522" y2="268.494" gradientUnits="userSpaceOnUse">
<stop offset="0.0081" stop-color="#61C6F2"/>
<stop offset="1" stop-color="#61C6F2" stop-opacity="0"/>
</linearGradient>
<linearGradient id="paint1_linear_27:19756" x1="216.252" y1="118.203" x2="-290.091" y2="306.686" gradientUnits="userSpaceOnUse">
<stop offset="0.0081" stop-color="#61C6F2"/>
<stop offset="1" stop-color="#61C6F2" stop-opacity="0"/>
</linearGradient>
<linearGradient id="paint2_linear_27:19756" x1="125.239" y1="227.673" x2="230.54" y2="168.376" gradientUnits="userSpaceOnUse">
<stop stop-color="#FEE62A"/>
<stop offset="0.1378" stop-color="#FDD82B"/>
<stop offset="0.3964" stop-color="#F9B42C"/>
<stop offset="0.7453" stop-color="#F37B2F"/>
<stop offset="0.9911" stop-color="#EF4E31"/>
</linearGradient>
<radialGradient id="paint3_radial_27:19756" cx="0" cy="0" r="1" gradientUnits="userSpaceOnUse" gradientTransform="translate(242.237 157.987) rotate(50.5908) scale(31.248 31.2474)">
<stop stop-color="#F20074"/>
<stop offset="0.1407" stop-color="#ED0376"/>
<stop offset="0.3069" stop-color="#DF0B7D"/>
<stop offset="0.486" stop-color="#C71887"/>
<stop offset="0.6741" stop-color="#A62A96"/>
<stop offset="0.8675" stop-color="#7B42A9"/>
<stop offset="0.8985" stop-color="#7446AC"/>
</radialGradient>
<radialGradient id="paint4_radial_27:19756" cx="0" cy="0" r="1" gradientUnits="userSpaceOnUse" gradientTransform="translate(239.717 155.179) rotate(50.5908) scale(22.0851 22.0846)">
<stop offset="0.0519" stop-color="#E0A326"/>
<stop offset="0.4493" stop-color="#E0A128" stop-opacity="0.5808"/>
<stop offset="0.5925" stop-color="#DF9C2F" stop-opacity="0.4298"/>
<stop offset="0.6945" stop-color="#DD923A" stop-opacity="0.3222"/>
<stop offset="0.777" stop-color="#DB844B" stop-opacity="0.2352"/>
<stop offset="0.8477" stop-color="#D87261" stop-opacity="0.1607"/>
<stop offset="0.9102" stop-color="#D45B7D" stop-opacity="0.0947"/>
<stop offset="0.9654" stop-color="#CF419C" stop-opacity="0.0365"/>
<stop offset="1" stop-color="#CC2DB4" stop-opacity="0"/>
</radialGradient>
<radialGradient id="paint5_radial_27:19756" cx="0" cy="0" r="1" gradientUnits="userSpaceOnUse" gradientTransform="translate(243.808 156.694) rotate(50.5908) scale(30.1479 30.1472)">
<stop stop-color="#F20074"/>
<stop offset="0.1407" stop-color="#ED0376"/>
<stop offset="0.3069" stop-color="#DF0B7D"/>
<stop offset="0.486" stop-color="#C71887"/>
<stop offset="0.6741" stop-color="#A62A96"/>
<stop offset="0.8675" stop-color="#7B42A9"/>
<stop offset="0.8985" stop-color="#7446AC"/>
</radialGradient>
<radialGradient id="paint6_radial_27:19756" cx="0" cy="0" r="1" gradientUnits="userSpaceOnUse" gradientTransform="translate(256.624 64.4304) rotate(50.5908) scale(146.788 146.785)">
<stop stop-color="#F20074"/>
<stop offset="0.1407" stop-color="#ED0376"/>
<stop offset="0.3069" stop-color="#DF0B7D"/>
<stop offset="0.486" stop-color="#C71887"/>
<stop offset="0.6741" stop-color="#A62A96"/>
<stop offset="0.8675" stop-color="#7B42A9"/>
<stop offset="0.8985" stop-color="#7446AC"/>
</radialGradient>
<radialGradient id="paint7_radial_27:19756" cx="0" cy="0" r="1" gradientUnits="userSpaceOnUse" gradientTransform="translate(241.486 71.8529) rotate(50.5908) scale(113.296 113.293)">
<stop offset="0.0519" stop-color="#E0A326"/>
<stop offset="0.4493" stop-color="#E0A128" stop-opacity="0.5808"/>
<stop offset="0.5925" stop-color="#DF9C2F" stop-opacity="0.4298"/>
<stop offset="0.6945" stop-color="#DD923A" stop-opacity="0.3222"/>
<stop offset="0.777" stop-color="#DB844B" stop-opacity="0.2352"/>
<stop offset="0.8477" stop-color="#D87261" stop-opacity="0.1607"/>
<stop offset="0.9102" stop-color="#D45B7D" stop-opacity="0.0947"/>
<stop offset="0.9654" stop-color="#CF419C" stop-opacity="0.0365"/>
<stop offset="1" stop-color="#CC2DB4" stop-opacity="0"/>
</radialGradient>
<radialGradient id="paint8_radial_27:19756" cx="0" cy="0" r="1" gradientUnits="userSpaceOnUse" gradientTransform="translate(212.172 115.708) rotate(50.5908) scale(42.6429 42.642)">
<stop stop-color="#F20074"/>
<stop offset="0.1407" stop-color="#ED0376"/>
<stop offset="0.3069" stop-color="#DF0B7D"/>
<stop offset="0.486" stop-color="#C71887"/>
<stop offset="0.6741" stop-color="#A62A96"/>
<stop offset="0.8675" stop-color="#7B42A9"/>
<stop offset="0.8985" stop-color="#7446AC"/>
</radialGradient>
<radialGradient id="paint9_radial_27:19756" cx="0" cy="0" r="1" gradientUnits="userSpaceOnUse" gradientTransform="translate(222.797 78.5579) rotate(-10.8493) scale(42.1368 42.1412)">
<stop offset="0.0519" stop-color="#E0A326"/>
<stop offset="0.4493" stop-color="#E0A128" stop-opacity="0.5808"/>
<stop offset="0.5925" stop-color="#DF9C2F" stop-opacity="0.4298"/>
<stop offset="0.6945" stop-color="#DD923A" stop-opacity="0.3222"/>
<stop offset="0.777" stop-color="#DB844B" stop-opacity="0.2352"/>
<stop offset="0.8477" stop-color="#D87261" stop-opacity="0.1607"/>
<stop offset="0.9102" stop-color="#D45B7D" stop-opacity="0.0947"/>
<stop offset="0.9654" stop-color="#CF419C" stop-opacity="0.0365"/>
<stop offset="1" stop-color="#CC2DB4" stop-opacity="0"/>
</radialGradient>
<radialGradient id="paint10_radial_27:19756" cx="0" cy="0" r="1" gradientUnits="userSpaceOnUse" gradientTransform="translate(227.81 77.2812) rotate(11.1875) scale(42.1373 42.1414)">
<stop offset="0.0519" stop-color="#E0A326"/>
<stop offset="0.4493" stop-color="#E0A128" stop-opacity="0.5808"/>
<stop offset="0.5925" stop-color="#DF9C2F" stop-opacity="0.4298"/>
<stop offset="0.6945" stop-color="#DD923A" stop-opacity="0.3222"/>
<stop offset="0.777" stop-color="#DB844B" stop-opacity="0.2352"/>
<stop offset="0.8477" stop-color="#D87261" stop-opacity="0.1607"/>
<stop offset="0.9102" stop-color="#D45B7D" stop-opacity="0.0947"/>
<stop offset="0.9654" stop-color="#CF419C" stop-opacity="0.0365"/>
<stop offset="1" stop-color="#CC2DB4" stop-opacity="0"/>
</radialGradient>
<radialGradient id="paint11_radial_27:19756" cx="0" cy="0" r="1" gradientUnits="userSpaceOnUse" gradientTransform="translate(332.066 156.243) rotate(-129.409) scale(146.788 146.785)">
<stop stop-color="#F20074"/>
<stop offset="0.1407" stop-color="#ED0376"/>
<stop offset="0.3069" stop-color="#DF0B7D"/>
<stop offset="0.486" stop-color="#C71887"/>
<stop offset="0.6741" stop-color="#A62A96"/>
<stop offset="0.8675" stop-color="#7B42A9"/>
<stop offset="0.8985" stop-color="#7446AC"/>
</radialGradient>
<radialGradient id="paint12_radial_27:19756" cx="0" cy="0" r="1" gradientUnits="userSpaceOnUse" gradientTransform="translate(321.85 169.658) rotate(-129.409) scale(113.295 113.292)">
<stop offset="0.0519" stop-color="#E0A326"/>
<stop offset="0.4493" stop-color="#E0A128" stop-opacity="0.5808"/>
<stop offset="0.5925" stop-color="#DF9C2F" stop-opacity="0.4298"/>
<stop offset="0.6945" stop-color="#DD923A" stop-opacity="0.3222"/>
<stop offset="0.777" stop-color="#DB844B" stop-opacity="0.2352"/>
<stop offset="0.8477" stop-color="#D87261" stop-opacity="0.1607"/>
<stop offset="0.9102" stop-color="#D45B7D" stop-opacity="0.0947"/>
<stop offset="0.9654" stop-color="#CF419C" stop-opacity="0.0365"/>
<stop offset="1" stop-color="#CC2DB4" stop-opacity="0"/>
</radialGradient>
<radialGradient id="paint13_radial_27:19756" cx="0" cy="0" r="1" gradientUnits="userSpaceOnUse" gradientTransform="translate(273.153 189.919) rotate(-129.409) scale(42.6429 42.642)">
<stop stop-color="#F20074"/>
<stop offset="0.1407" stop-color="#ED0376"/>
<stop offset="0.3069" stop-color="#DF0B7D"/>
<stop offset="0.486" stop-color="#C71887"/>
<stop offset="0.6741" stop-color="#A62A96"/>
<stop offset="0.8675" stop-color="#7B42A9"/>
<stop offset="0.8985" stop-color="#7446AC"/>
</radialGradient>
<radialGradient id="paint14_radial_27:19756" cx="0" cy="0" r="1" gradientUnits="userSpaceOnUse" gradientTransform="translate(311.653 186.692) rotate(-67.9794) scale(42.1416 42.1384)">
<stop offset="0.0519" stop-color="#E0A326"/>
<stop offset="0.4493" stop-color="#E0A128" stop-opacity="0.5808"/>
<stop offset="0.5925" stop-color="#DF9C2F" stop-opacity="0.4298"/>
<stop offset="0.6945" stop-color="#DD923A" stop-opacity="0.3222"/>
<stop offset="0.777" stop-color="#DB844B" stop-opacity="0.2352"/>
<stop offset="0.8477" stop-color="#D87261" stop-opacity="0.1607"/>
<stop offset="0.9102" stop-color="#D45B7D" stop-opacity="0.0947"/>
<stop offset="0.9654" stop-color="#CF419C" stop-opacity="0.0365"/>
<stop offset="1" stop-color="#CC2DB4" stop-opacity="0"/>
</radialGradient>
<radialGradient id="paint15_radial_27:19756" cx="0" cy="0" r="1" gradientUnits="userSpaceOnUse" gradientTransform="translate(313.878 182.02) rotate(-90.0172) scale(42.1394 42.1347)">
<stop offset="0.0519" stop-color="#E0A326"/>
<stop offset="0.4493" stop-color="#E0A128" stop-opacity="0.5808"/>
<stop offset="0.5925" stop-color="#DF9C2F" stop-opacity="0.4298"/>
<stop offset="0.6945" stop-color="#DD923A" stop-opacity="0.3222"/>
<stop offset="0.777" stop-color="#DB844B" stop-opacity="0.2352"/>
<stop offset="0.8477" stop-color="#D87261" stop-opacity="0.1607"/>
<stop offset="0.9102" stop-color="#D45B7D" stop-opacity="0.0947"/>
<stop offset="0.9654" stop-color="#CF419C" stop-opacity="0.0365"/>
<stop offset="1" stop-color="#CC2DB4" stop-opacity="0"/>
</radialGradient>
<radialGradient id="paint16_radial_27:19756" cx="0" cy="0" r="1" gradientUnits="userSpaceOnUse" gradientTransform="translate(392.551 1.77253) rotate(50.5908) scale(255.748 255.742)">
<stop offset="0.1015" stop-color="white"/>
<stop offset="0.2217" stop-color="#F7F9FE"/>
<stop offset="0.4098" stop-color="#E1EAFB"/>
<stop offset="0.6422" stop-color="#BCD0F7"/>
<stop offset="0.9077" stop-color="#8AADF1"/>
<stop offset="1" stop-color="#779FEF"/>
</radialGradient>
<radialGradient id="paint17_radial_27:19756" cx="0" cy="0" r="1" gradientUnits="userSpaceOnUse" gradientTransform="translate(392.809 46.3592) rotate(50.5908) scale(266.831 266.825)">
<stop stop-color="#61C6F2"/>
<stop offset="0.6169" stop-color="#5A9CD4"/>
<stop offset="0.6642" stop-color="#6088CB"/>
<stop offset="0.7646" stop-color="#6B64BA"/>
<stop offset="0.8463" stop-color="#724EB0"/>
<stop offset="0.8985" stop-color="#7446AC"/>
</radialGradient>
<radialGradient id="paint18_radial_27:19756" cx="0" cy="0" r="1" gradientUnits="userSpaceOnUse" gradientTransform="translate(318.63 97.1188) rotate(50.5908) scale(112.976 112.974)">
<stop stop-color="#61C6F2"/>
<stop offset="0.6169" stop-color="#5A9CD4"/>
<stop offset="0.6642" stop-color="#6088CB"/>
<stop offset="0.7646" stop-color="#6B64BA"/>
<stop offset="0.8463" stop-color="#724EB0"/>
<stop offset="0.8985" stop-color="#7446AC"/>
</radialGradient>
<radialGradient id="paint19_radial_27:19756" cx="0" cy="0" r="1" gradientUnits="userSpaceOnUse" gradientTransform="translate(310.108 84.0289) rotate(50.5908) scale(68.6581 68.6566)">
<stop stop-color="#4A289C"/>
<stop offset="0.963" stop-color="#00092B"/>
</radialGradient>
<radialGradient id="paint20_radial_27:19756" cx="0" cy="0" r="1" gradientUnits="userSpaceOnUse" gradientTransform="translate(300.024 93.2483) rotate(50.5909) scale(51.1493 51.1482)">
<stop stop-color="#4A289C"/>
<stop offset="0.963" stop-color="#00092B"/>
</radialGradient>
<radialGradient id="paint21_radial_27:19756" cx="0" cy="0" r="1" gradientUnits="userSpaceOnUse" gradientTransform="translate(306.998 84.2318) rotate(50.5909) scale(45.5747 45.5737)">
<stop stop-color="#4A289C"/>
<stop offset="0.963" stop-color="#00092B"/>
</radialGradient>
<radialGradient id="paint22_radial_27:19756" cx="0" cy="0" r="1" gradientUnits="userSpaceOnUse" gradientTransform="translate(381.621 10.7078) rotate(50.5908) scale(129.639 129.636)">
<stop stop-color="#F20074"/>
<stop offset="0.1407" stop-color="#ED0376"/>
<stop offset="0.3069" stop-color="#DF0B7D"/>
<stop offset="0.486" stop-color="#C71887"/>
<stop offset="0.6741" stop-color="#A62A96"/>
<stop offset="0.8675" stop-color="#7B42A9"/>
<stop offset="0.8985" stop-color="#7446AC"/>
</radialGradient>
<radialGradient id="paint23_radial_27:19756" cx="0" cy="0" r="1" gradientUnits="userSpaceOnUse" gradientTransform="translate(399.574 17.766) rotate(50.5908) scale(122.251 122.248)">
<stop stop-color="#F20074"/>
<stop offset="0.1407" stop-color="#ED0376"/>
<stop offset="0.3069" stop-color="#DF0B7D"/>
<stop offset="0.486" stop-color="#C71887"/>
<stop offset="0.6741" stop-color="#A62A96"/>
<stop offset="0.8675" stop-color="#7B42A9"/>
<stop offset="0.8985" stop-color="#7446AC"/>
</radialGradient>
<radialGradient id="paint24_radial_27:19756" cx="0" cy="0" r="1" gradientUnits="userSpaceOnUse" gradientTransform="translate(305.657 82.4123) rotate(11.5562) scale(42.1363 42.1406)">
<stop stop-color="#4A289C"/>
<stop offset="0.963" stop-color="#00092B"/>
</radialGradient>
<radialGradient id="paint25_radial_27:19756" cx="0" cy="0" r="1" gradientUnits="userSpaceOnUse" gradientTransform="translate(310.775 83.1432) rotate(33.5883) scale(42.1323 42.1342)">
<stop stop-color="#4A289C"/>
<stop offset="0.963" stop-color="#00092B"/>
</radialGradient>
<radialGradient id="paint26_radial_27:19756" cx="0" cy="0" r="1" gradientUnits="userSpaceOnUse" gradientTransform="translate(381.163 19.7413) rotate(50.5908) scale(67.7419 67.7404)">
<stop stop-color="#F20074"/>
<stop offset="0.1407" stop-color="#ED0376"/>
<stop offset="0.3069" stop-color="#DF0B7D"/>
<stop offset="0.486" stop-color="#C71887"/>
<stop offset="0.6741" stop-color="#A62A96"/>
<stop offset="0.8675" stop-color="#7B42A9"/>
<stop offset="0.8985" stop-color="#7446AC"/>
</radialGradient>
<radialGradient id="paint27_radial_27:19756" cx="0" cy="0" r="1" gradientUnits="userSpaceOnUse" gradientTransform="translate(399.623 35.9238) rotate(50.5909) scale(45.2108 45.2098)">
<stop stop-color="#F20074"/>
<stop offset="0.1407" stop-color="#ED0376"/>
<stop offset="0.3069" stop-color="#DF0B7D"/>
<stop offset="0.486" stop-color="#C71887"/>
<stop offset="0.6741" stop-color="#A62A96"/>
<stop offset="0.8675" stop-color="#7B42A9"/>
<stop offset="0.8985" stop-color="#7446AC"/>
</radialGradient>
<radialGradient id="paint28_radial_27:19756" cx="0" cy="0" r="1" gradientUnits="userSpaceOnUse" gradientTransform="translate(372.07 72.6847) rotate(50.5908) scale(39.1824 39.1816)">
<stop offset="0.0519" stop-color="#E0A326"/>
<stop offset="0.4493" stop-color="#E0A128" stop-opacity="0.5808"/>
<stop offset="0.5925" stop-color="#DF9C2F" stop-opacity="0.4298"/>
<stop offset="0.6945" stop-color="#DD923A" stop-opacity="0.3222"/>
<stop offset="0.777" stop-color="#DB844B" stop-opacity="0.2352"/>
<stop offset="0.8477" stop-color="#D87261" stop-opacity="0.1607"/>
<stop offset="0.9102" stop-color="#D45B7D" stop-opacity="0.0947"/>
<stop offset="0.9654" stop-color="#CF419C" stop-opacity="0.0365"/>
<stop offset="1" stop-color="#CC2DB4" stop-opacity="0"/>
</radialGradient>
<radialGradient id="paint29_radial_27:19756" cx="0" cy="0" r="1" gradientUnits="userSpaceOnUse" gradientTransform="translate(366.858 21.7761) rotate(-10.8493) scale(42.1344 42.1387)">
<stop offset="0.0519" stop-color="#E0A326"/>
<stop offset="0.4493" stop-color="#E0A128" stop-opacity="0.5808"/>
<stop offset="0.5925" stop-color="#DF9C2F" stop-opacity="0.4298"/>
<stop offset="0.6945" stop-color="#DD923A" stop-opacity="0.3222"/>
<stop offset="0.777" stop-color="#DB844B" stop-opacity="0.2352"/>
<stop offset="0.8477" stop-color="#D87261" stop-opacity="0.1607"/>
<stop offset="0.9102" stop-color="#D45B7D" stop-opacity="0.0947"/>
<stop offset="0.9654" stop-color="#CF419C" stop-opacity="0.0365"/>
<stop offset="1" stop-color="#CC2DB4" stop-opacity="0"/>
</radialGradient>
<radialGradient id="paint30_radial_27:19756" cx="0" cy="0" r="1" gradientUnits="userSpaceOnUse" gradientTransform="translate(371.868 20.4959) rotate(11.1876) scale(42.1376 42.1422)">
<stop offset="0.0519" stop-color="#E0A326"/>
<stop offset="0.4493" stop-color="#E0A128" stop-opacity="0.5808"/>
<stop offset="0.5925" stop-color="#DF9C2F" stop-opacity="0.4298"/>
<stop offset="0.6945" stop-color="#DD923A" stop-opacity="0.3222"/>
<stop offset="0.777" stop-color="#DB844B" stop-opacity="0.2352"/>
<stop offset="0.8477" stop-color="#D87261" stop-opacity="0.1607"/>
<stop offset="0.9102" stop-color="#D45B7D" stop-opacity="0.0947"/>
<stop offset="0.9654" stop-color="#CF419C" stop-opacity="0.0365"/>
<stop offset="1" stop-color="#CC2DB4" stop-opacity="0"/>
</radialGradient>
<radialGradient id="paint31_radial_27:19756" cx="0" cy="0" r="1" gradientUnits="userSpaceOnUse" gradientTransform="translate(331.151 27.8994) rotate(-10.8494) scale(42.1357 42.1405)">
<stop offset="0.0519" stop-color="#E0A326"/>
<stop offset="0.4493" stop-color="#E0A128" stop-opacity="0.5808"/>
<stop offset="0.5925" stop-color="#DF9C2F" stop-opacity="0.4298"/>
<stop offset="0.6945" stop-color="#DD923A" stop-opacity="0.3222"/>
<stop offset="0.777" stop-color="#DB844B" stop-opacity="0.2352"/>
<stop offset="0.8477" stop-color="#D87261" stop-opacity="0.1607"/>
<stop offset="0.9102" stop-color="#D45B7D" stop-opacity="0.0947"/>
<stop offset="0.9654" stop-color="#CF419C" stop-opacity="0.0365"/>
<stop offset="1" stop-color="#CC2DB4" stop-opacity="0"/>
</radialGradient>
<radialGradient id="paint32_radial_27:19756" cx="0" cy="0" r="1" gradientUnits="userSpaceOnUse" gradientTransform="translate(336.162 26.6209) rotate(11.1875) scale(42.1349 42.1391)">
<stop offset="0.0519" stop-color="#E0A326"/>
<stop offset="0.4493" stop-color="#E0A128" stop-opacity="0.5808"/>
<stop offset="0.5925" stop-color="#DF9C2F" stop-opacity="0.4298"/>
<stop offset="0.6945" stop-color="#DD923A" stop-opacity="0.3222"/>
<stop offset="0.777" stop-color="#DB844B" stop-opacity="0.2352"/>
<stop offset="0.8477" stop-color="#D87261" stop-opacity="0.1607"/>
<stop offset="0.9102" stop-color="#D45B7D" stop-opacity="0.0947"/>
<stop offset="0.9654" stop-color="#CF419C" stop-opacity="0.0365"/>
<stop offset="1" stop-color="#CC2DB4" stop-opacity="0"/>
</radialGradient>
<clipPath id="clip0_27:19756">
<rect width="899" height="407" fill="white" transform="translate(-477 0.0625)"/>
</clipPath>
</defs>
</svg>
