<svg width="355" height="610" viewBox="0 0 355 610" fill="none" xmlns="http://www.w3.org/2000/svg">
<g clip-path="url(#clip0_1:18019)">
<path d="M351.851 432.633C351.851 528.85 273.797 606.856 177.497 606.856C81.2072 606.856 3.14258 528.85 3.14258 432.633C3.14258 384.582 22.6106 341.074 54.1003 309.56C85.6573 277.959 129.294 258.409 177.497 258.409C224.293 258.409 266.793 276.832 298.1 306.816C331.228 338.523 351.851 383.176 351.851 432.633Z" fill="#FFCE00"/>
<g opacity="0.56">
<path opacity="0.56" d="M172.2 496.162C172.2 511.842 159.475 524.558 143.783 524.558C128.091 524.558 115.366 511.842 115.366 496.162C115.366 494.689 115.481 493.245 115.693 491.84C117.793 505.46 129.565 515.895 143.783 515.895C158.001 515.895 169.772 505.46 171.872 491.84C172.084 493.245 172.2 494.689 172.2 496.162Z" fill="white"/>
</g>
<g opacity="0.56">
<path opacity="0.56" d="M351.851 432.633C351.851 435 351.803 437.359 351.707 439.708C347.998 346.763 271.427 272.559 177.497 272.559C83.5768 272.559 6.99581 346.763 3.28709 439.708C3.19075 437.359 3.14258 435 3.14258 432.633C3.14258 336.415 81.2072 258.409 177.497 258.409C273.797 258.409 351.851 336.415 351.851 432.633Z" fill="white"/>
</g>
<g opacity="0.56">
<path opacity="0.56" d="M70.8235 385.535C66.3732 395.449 56.9715 401.321 48.1188 399.03C37.9466 396.402 32.3597 384.004 35.6347 371.327C36.8967 366.447 39.2952 362.231 42.3391 359.055C41.6745 360.527 41.1157 362.096 40.6919 363.742C37.4167 376.419 43.0038 388.827 53.176 391.454C59.4278 393.071 65.9589 390.607 70.8235 385.535Z" fill="white"/>
</g>
<path d="M177.5 610C79.6262 610 0 530.433 0 432.633C0 334.832 79.6262 255.266 177.5 255.266C275.374 255.266 355 334.832 355 432.633C355 530.433 275.374 610 177.5 610ZM177.5 261.552C83.0952 261.552 6.29114 338.299 6.29114 432.633C6.29114 526.967 83.0952 603.713 177.5 603.713C271.905 603.713 348.709 526.967 348.709 432.633C348.709 338.299 271.905 261.552 177.5 261.552Z" fill="#19185B"/>
<path d="M143.782 518.301C126.785 518.301 112.957 504.483 112.957 487.499C112.957 470.515 126.785 456.697 143.782 456.697C160.779 456.697 174.607 470.515 174.607 487.499C174.607 504.483 160.779 518.301 143.782 518.301ZM143.782 461.51C129.441 461.51 117.773 473.168 117.773 487.499C117.773 501.829 129.441 513.488 143.782 513.488C158.123 513.488 169.79 501.829 169.79 487.499C169.79 473.168 158.123 461.51 143.782 461.51Z" fill="#19185B"/>
<path d="M260.943 572.653C258.327 572.653 255.728 572.329 253.203 571.673C245.641 569.707 239.648 565.015 236.33 558.46C233.012 551.905 232.779 544.301 235.677 537.049C238.534 529.896 244.109 523.935 251.374 520.263C266.467 512.633 284.281 517.354 291.081 530.787C291.081 530.787 291.081 530.787 291.081 530.787C297.88 544.219 291.131 561.354 276.037 568.984C271.231 571.413 266.055 572.653 260.943 572.653ZM266.477 521.125C262.161 521.125 257.668 522.147 253.416 524.295C247.134 527.471 242.327 532.595 239.878 538.724C237.469 544.754 237.642 551.038 240.366 556.42C243.09 561.801 248.053 565.665 254.342 567.299C260.734 568.96 267.714 568.126 273.996 564.951C286.865 558.446 292.719 544.035 287.045 532.827C283.246 525.321 275.226 521.125 266.477 521.125Z" fill="#19185B"/>
<path d="M217.678 547.548C217.663 546.04 217.615 544.515 217.76 542.996L217.846 541.852L218.017 540.721C218.147 539.969 218.21 539.196 218.398 538.454C218.972 535.43 220.037 532.516 221.275 529.68C223.859 524.047 227.654 518.93 232.305 514.738C241.559 506.276 254.172 501.497 266.871 501.724C273.206 501.905 279.549 503.316 285.302 506.087C291.004 508.925 296.095 513.125 299.688 518.377C300.125 519.04 300.639 519.652 301.007 520.356L302.14 522.446C302.521 523.14 302.899 523.832 303.193 524.567C303.527 525.283 303.796 526.026 304.056 526.771C305.11 529.742 305.76 532.839 305.989 535.948C306.44 542.173 305.231 548.394 302.7 553.889C304.221 548.041 304.7 541.994 303.641 536.235C302.721 530.457 300.164 525.096 296.663 520.605C293.1 516.157 288.553 512.52 283.345 510.203C278.162 507.855 272.474 506.622 266.759 506.532C261.04 506.353 255.288 507.333 249.859 509.24C248.466 509.628 247.174 510.284 245.837 510.829C244.485 511.35 243.236 512.082 241.945 512.736C241.311 513.085 240.705 513.479 240.082 513.847L239.153 514.409L238.255 515.019L236.459 516.244L234.741 517.579C225.721 524.834 219.112 535.485 217.678 547.548Z" fill="#19185B"/>
<path d="M97.5445 487.498C97.0781 482.47 97.5783 477.318 98.8935 472.333C99.2775 471.105 99.6221 469.853 100.072 468.641L101.585 465.056C102.762 462.746 104.008 460.441 105.571 458.344C108.607 454.091 112.381 450.337 116.681 447.284C121.027 444.293 125.888 442.055 130.979 440.646C141.167 437.737 152.317 438.689 161.878 442.935C166.678 445.034 170.994 448.083 174.739 451.615C178.42 455.225 181.47 459.43 183.604 464.004C180.552 459.985 177.121 456.355 173.194 453.404C172.189 452.698 171.245 451.922 170.194 451.295L168.653 450.313L167.056 449.429C166.011 448.812 164.885 448.346 163.81 447.797C162.693 447.332 161.587 446.846 160.453 446.442C151.404 443.179 141.414 442.679 132.245 445.288C127.658 446.541 123.261 448.49 119.23 451.059C115.242 453.694 111.646 456.927 108.569 460.635C105.505 464.341 102.886 468.512 101.122 473.085C99.2656 477.625 98.1427 482.48 97.5445 487.498Z" fill="#19185B"/>
<path d="M345.259 480.761C344.856 480.761 344.452 480.746 344.038 480.716C328.929 479.738 317.605 463.72 318.816 445.01C319.397 436.047 322.732 427.779 328.208 421.727C333.825 415.519 341.013 412.363 348.454 412.847C349.493 412.912 350.533 413.055 351.539 413.271C352.84 413.55 353.667 414.83 353.388 416.129C353.109 417.429 351.826 418.259 350.527 417.976C349.754 417.81 348.953 417.7 348.147 417.65C342.201 417.266 336.391 419.86 331.78 424.955C327.03 430.204 324.133 437.437 323.622 445.32C322.583 461.382 331.89 475.107 344.369 475.914C344.833 475.948 345.26 475.956 345.694 475.94C347.039 475.891 348.141 476.927 348.19 478.255C348.239 479.583 347.202 480.7 345.873 480.749C345.667 480.757 345.463 480.761 345.259 480.761Z" fill="#19185B"/>
<path d="M305.517 444.155C305.717 438.244 306.686 432.325 308.508 426.632C310.328 420.942 313.023 415.486 316.594 410.59C320.166 405.708 324.645 401.364 329.995 398.212C335.316 395.051 341.527 393.13 347.895 393.014H347.907C349.237 392.989 350.336 394.048 350.36 395.378C350.384 396.707 349.325 397.805 347.995 397.829C347.942 397.83 347.883 397.829 347.831 397.827C342.347 397.555 336.768 398.834 331.734 401.375C326.682 403.902 322.204 407.658 318.491 412.073C314.776 416.498 311.798 421.594 309.641 427.038C307.481 432.485 306.117 438.27 305.517 444.155Z" fill="#19185B"/>
<path d="M166.661 594.594C164.938 594.594 163.176 594.395 161.422 593.996C151.669 591.776 145.117 583.899 146.818 576.439C148.52 568.978 157.839 564.717 167.592 566.936C177.345 569.157 183.897 577.033 182.196 584.493C181.339 588.249 178.608 591.29 174.503 593.055C172.128 594.076 169.446 594.594 166.661 594.594ZM162.433 571.164C157.002 571.164 152.392 573.659 151.515 577.508C150.422 582.298 155.45 587.7 162.492 589.303C166.096 590.123 169.686 589.886 172.6 588.633C175.254 587.492 176.994 585.642 177.499 583.424C178.592 578.634 173.565 573.232 166.523 571.629C165.139 571.313 163.761 571.164 162.433 571.164Z" fill="#19185B"/>
<path d="M144.307 591.892C140.415 588.86 137.276 584.462 136.299 579.245C135.833 576.653 135.95 573.901 136.721 571.312C137.466 568.712 138.85 566.294 140.625 564.249C142.393 562.18 144.6 560.559 146.944 559.279C148.103 558.596 149.346 558.112 150.58 557.605C151.842 557.194 153.104 556.755 154.404 556.498C155.69 556.148 157.009 556.037 158.318 555.838C159.634 555.778 160.954 555.617 162.271 555.687C164.914 555.671 167.522 556.102 170.094 556.62C175.188 557.865 180.126 560.04 184.24 563.412C185.3 564.208 186.228 565.176 187.182 566.097L188.503 567.601C188.95 568.093 189.305 568.674 189.706 569.206C191.234 571.401 192.482 573.835 193.167 576.469C194.576 581.726 193.534 587.617 190.309 591.826C187.095 596.052 182.333 598.593 177.5 599.593C182.004 597.586 186.055 594.564 188.339 590.519C189.486 588.527 190.222 586.335 190.354 584.1C190.536 581.878 190.243 579.655 189.538 577.552C188.825 575.447 187.657 573.502 186.289 571.725C185.921 571.295 185.613 570.825 185.204 570.428L184.032 569.202C183.178 568.452 182.369 567.653 181.424 567.007C180.53 566.299 179.553 565.703 178.586 565.093C178.103 564.789 177.576 564.551 177.075 564.276C176.571 564.005 176.065 563.735 175.528 563.526L173.951 562.835L172.324 562.262C171.253 561.837 170.11 561.632 169.006 561.307C166.755 560.84 164.471 560.444 162.172 560.431C161.023 560.336 159.881 560.463 158.734 560.48C157.603 560.633 156.452 560.697 155.341 560.954C154.208 561.128 153.126 561.469 152.028 561.773C150.974 562.176 149.879 562.51 148.885 563.039C146.864 564.019 144.936 565.238 143.38 566.826C141.803 568.39 140.542 570.247 139.699 572.312C138.827 574.374 138.49 576.665 138.633 578.957C138.864 583.594 141.149 588.106 144.307 591.892Z" fill="#19185B"/>
<path d="M69.3684 524.396C59.8966 524.396 52.1907 516.696 52.1907 507.231C52.1907 497.766 59.8966 490.067 69.3684 490.067C78.8401 490.067 86.546 497.766 86.546 507.231C86.546 516.696 78.8401 524.396 69.3684 524.396ZM69.3684 494.557C62.3742 494.557 56.6843 500.243 56.6843 507.231C56.6843 514.22 62.3742 519.906 69.3684 519.906C76.3625 519.906 82.0524 514.22 82.0524 507.231C82.0524 500.243 76.3625 494.557 69.3684 494.557Z" fill="#19185B"/>
<path d="M69.3685 533.461C64.9156 534.35 60.0374 533.687 55.7312 531.669C51.454 529.608 47.6466 526.33 45.1505 522.187C43.8282 520.16 42.9502 517.884 42.245 515.59L41.8584 513.828L41.6724 512.949L41.578 512.054L41.4033 510.271C41.3786 509.675 41.4108 509.077 41.4133 508.484C41.4682 503.743 43.0541 499.06 45.8847 495.499C44.75 499.889 44.3515 504.187 44.9434 508.327C45.14 510.401 45.7158 512.392 46.3183 514.336L46.8857 515.758C47.0669 516.234 47.2517 516.708 47.5053 517.152L48.1797 518.52C48.419 518.968 48.7116 519.386 48.9701 519.824C51.0677 523.316 54.0219 526.246 57.4487 528.597C60.9142 530.922 64.9314 532.477 69.3685 533.461Z" fill="#19185B"/>
<path d="M57.0898 394.355C55.5758 394.355 54.0645 394.165 52.5755 393.781C46.9338 392.325 42.3594 388.267 39.6952 382.355C37.1126 376.625 36.6388 369.802 38.3602 363.144C40.0818 356.486 43.804 350.747 48.8409 346.984C54.0376 343.102 60.0044 341.765 65.6483 343.222C77.091 346.177 83.4677 359.92 79.8636 373.86C78.142 380.517 74.4198 386.256 69.3829 390.019C65.5577 392.877 61.3137 394.355 57.0898 394.355ZM61.1575 347.466C57.9571 347.466 54.6996 348.616 51.7253 350.838C47.5625 353.948 44.4722 358.746 43.0236 364.348C41.5754 369.95 41.9528 375.643 44.0868 380.379C46.1393 384.932 49.5818 388.037 53.7807 389.121C57.9791 390.204 62.4959 389.155 66.4991 386.165C70.6618 383.055 73.7522 378.257 75.2008 372.655C78.1405 361.286 73.3151 350.173 64.4436 347.882C63.3648 347.603 62.2642 347.466 61.1575 347.466Z" fill="#19185B"/>
<path d="M50.9284 332C52.2668 331.19 53.6681 330.466 55.1255 329.847C56.5877 329.243 58.1057 328.754 59.6627 328.385C62.7775 327.641 66.0604 327.505 69.2969 327.904C72.5359 328.329 75.6781 329.439 78.6143 330.937L80.7588 332.184C81.4557 332.628 82.0841 333.167 82.7506 333.658L83.7371 334.415C84.0473 334.687 84.3369 334.981 84.638 335.265C85.2308 335.839 85.8396 336.404 86.4196 336.994C87.4557 338.271 88.6222 339.473 89.4875 340.88C89.9439 341.566 90.4292 342.241 90.8347 342.957L91.9937 345.141C92.4075 345.859 92.7052 346.624 93.0215 347.384C93.3296 348.145 93.6724 348.897 93.9492 349.67L94.6899 352.02C94.8102 352.413 94.9414 352.804 95.0525 353.199L95.3198 354.399C96.7653 360.801 96.8719 367.475 95.7147 373.902C94.4838 380.31 92.1289 386.513 88.635 392.048C85.1375 397.562 80.4362 402.38 74.802 405.767C74.1283 406.234 73.3705 406.57 72.6429 406.949C71.9 407.302 71.2001 407.732 70.4246 408.015L68.1233 408.899L67.5485 409.117L66.9503 409.272L65.7541 409.576C64.1813 410.054 62.5273 410.187 60.9124 410.421C60.0966 410.484 59.2724 410.466 58.4571 410.49L57.2336 410.506L56.014 410.375C55.2044 410.269 54.3916 410.215 53.5951 410.063L51.232 409.483C49.6623 409.109 48.1558 408.5 46.7212 407.791C45.2858 407.078 43.9215 406.242 42.6507 405.297C41.3854 404.34 40.2182 403.276 39.1418 402.141C41.6222 404.05 44.3649 405.553 47.2405 406.562C48.6861 407.04 50.1429 407.481 51.6459 407.664L53.8809 407.968C54.6274 408.03 55.3825 407.995 56.1269 408.015L57.2433 408.036L58.3575 407.924C59.0979 407.838 59.8395 407.796 60.5711 407.678C62.0209 407.333 63.4844 407.107 64.8687 406.548L65.9175 406.187L66.4415 406.01L66.9474 405.779L68.9669 404.861C69.6453 404.571 70.2571 404.133 70.9038 403.779C71.538 403.398 72.1975 403.065 72.7811 402.6C77.6145 399.193 81.7931 394.805 84.7591 389.646C87.8143 384.559 89.9286 378.895 90.9787 373.041C92.1228 367.203 92.0284 361.161 90.8773 355.37C89.8181 349.536 87.2175 344.078 83.6037 339.459C83.1211 338.909 82.6124 338.382 82.1183 337.839C81.8668 337.571 81.6259 337.291 81.3657 337.033L80.5333 336.317C79.9697 335.851 79.4418 335.33 78.8481 334.901L77.0339 333.65C74.5426 332.105 71.8022 330.873 68.8839 330.218C65.9761 329.527 62.9215 329.366 59.8852 329.692C56.8491 330.024 53.8277 330.819 50.9284 332Z" fill="#19185B"/>
<path d="M162.085 360.76C151.794 360.76 143.422 352.394 143.422 342.112C143.422 331.829 151.794 323.464 162.085 323.464C172.375 323.464 180.747 331.829 180.747 342.112C180.747 352.394 172.375 360.76 162.085 360.76ZM162.085 327.954C154.272 327.954 147.916 334.305 147.916 342.112C147.916 349.919 154.272 356.27 162.085 356.27C169.897 356.27 176.253 349.919 176.253 342.112C176.253 334.305 169.897 327.954 162.085 327.954Z" fill="#19185B"/>
<path d="M128.089 342.112C127.602 334.339 130.013 326.28 134.87 319.856C137.324 316.671 140.345 313.902 143.755 311.696C147.165 309.482 151 307.911 154.994 306.979C159.001 306.084 163.166 305.923 167.254 306.449C171.337 306.981 175.376 308.161 179.05 310.089C186.412 313.924 192.344 320.367 195.646 328.008C197.238 331.855 198.128 335.977 198.335 340.114C198.521 344.243 198.139 348.444 196.858 352.398C194.364 360.296 189.173 367.311 182.255 371.755C178.8 373.96 174.99 375.596 171.021 376.485C167.056 377.356 162.961 377.635 158.969 377.12C154.986 376.585 151.094 375.435 147.585 373.575C145.83 372.652 144.16 371.586 142.603 370.387C141.055 369.175 139.619 367.837 138.312 366.396C144.237 371.442 151.658 374.467 159.176 374.767C166.691 375.132 174.148 372.891 180.139 368.651C186.077 364.33 190.529 358.091 192.484 351.107C193.516 347.634 193.844 343.973 193.636 340.371C193.421 336.765 192.61 333.201 191.209 329.875C188.416 323.212 183.278 317.586 176.919 314.104C170.563 310.565 162.972 309.485 155.73 310.647C148.511 311.966 141.687 315.727 136.69 321.346C131.668 326.956 128.673 334.351 128.089 342.112Z" fill="#19185B"/>
<path d="M309.74 372.415C305.267 372.415 301.003 368.804 299.698 363.553C298.201 357.527 301.161 351.588 306.296 350.314C311.428 349.039 316.827 352.906 318.324 358.933C319.034 361.79 318.777 364.72 317.599 367.185C316.365 369.768 314.28 371.539 311.727 372.173C311.066 372.336 310.401 372.415 309.74 372.415ZM308.308 353.66C307.926 353.66 307.542 353.705 307.162 353.8C303.95 354.596 302.167 358.584 303.187 362.688C304.207 366.792 307.65 369.481 310.86 368.686C312.351 368.316 313.592 367.233 314.355 365.637C315.174 363.922 315.345 361.848 314.835 359.798C313.936 356.18 311.154 353.66 308.308 353.66Z" fill="#19185B"/>
<g opacity="0.3">
<path opacity="0.3" d="M118.961 500.97C118.961 485.288 131.683 472.575 147.378 472.575C158.042 472.575 167.33 478.448 172.19 487.132C171.992 471.62 159.354 459.104 143.783 459.104C128.088 459.104 115.366 471.817 115.366 487.499C115.366 492.525 116.678 497.242 118.97 501.337C118.968 501.214 118.961 501.093 118.961 500.97Z" fill="#19185B"/>
</g>
<g opacity="0.3">
<path opacity="0.3" d="M257.787 533.954C269.822 527.871 283.633 530.172 291.245 538.77C290.907 536.385 290.193 534.04 289.062 531.806C282.816 519.466 266.399 515.201 252.394 522.279C238.39 529.357 232.101 545.1 238.347 557.44C239.226 559.175 240.311 560.745 241.557 562.151C240.028 551.36 246.317 539.751 257.787 533.954Z" fill="#19185B"/>
</g>
<g opacity="0.3">
<path opacity="0.3" d="M305.037 368.508C303.776 363.435 306.143 358.482 310.323 357.445C312.451 356.917 314.637 357.51 316.438 358.885C315.025 354.09 310.773 351.053 306.728 352.056C302.548 353.093 300.181 358.047 301.442 363.12C302.061 365.61 303.441 367.662 305.178 368.988C305.13 368.828 305.078 368.672 305.037 368.508Z" fill="#19185B"/>
</g>
<g opacity="0.56">
<path opacity="0.56" d="M261.601 415.969C260.706 429.782 248.77 440.264 234.947 439.369C221.124 438.474 210.634 426.547 211.53 412.735C211.559 412.234 211.607 411.734 211.674 411.243C213.138 422.938 222.742 432.323 234.947 433.112C248.269 433.979 259.838 424.266 261.457 411.195C261.659 412.754 261.707 414.352 261.601 415.969Z" fill="white"/>
</g>
<path d="M236.584 435.571C235.99 435.571 235.392 435.552 234.791 435.513C219.661 434.535 208.149 421.44 209.128 406.321C209.602 398.998 212.901 392.297 218.419 387.453C223.937 382.61 231.008 380.201 238.34 380.677C245.67 381.151 252.375 384.448 257.223 389.962C262.07 395.475 264.478 402.545 264.004 409.868C263.065 424.386 250.943 435.571 236.584 435.571ZM236.533 385.432C231.027 385.432 225.772 387.405 221.598 391.069C217.047 395.065 214.325 400.591 213.934 406.632C213.127 419.102 222.622 429.903 235.101 430.71C247.578 431.518 258.39 422.028 259.198 409.558C259.589 403.517 257.602 397.686 253.604 393.138C249.606 388.591 244.075 385.871 238.03 385.48C237.529 385.448 237.03 385.432 236.533 385.432Z" fill="#19185B"/>
<path d="M195.83 405.462C195.644 401.001 196.344 396.47 197.756 392.125C199.187 387.781 201.473 383.684 204.398 380.088C207.314 376.482 210.866 373.36 214.848 370.892C218.868 368.481 223.306 366.771 227.902 365.812C237.104 363.816 246.939 365.321 255.146 369.666C259.269 371.816 262.897 374.788 265.982 378.146C269.002 381.573 271.424 385.483 272.988 389.664C270.473 385.978 267.633 382.617 264.324 379.831C263.476 379.16 262.688 378.431 261.795 377.828L260.492 376.888L259.134 376.032C258.248 375.438 257.284 374.971 256.37 374.434C255.415 373.969 254.471 373.487 253.498 373.072C245.738 369.742 237.031 368.764 228.865 370.526C224.782 371.361 220.826 372.813 217.148 374.823C213.504 376.894 210.164 379.508 207.242 382.567C204.332 385.627 201.77 389.117 199.932 393.02C198.007 396.886 196.706 401.079 195.83 405.462Z" fill="#19185B"/>
<g opacity="0.3">
<path opacity="0.3" d="M239.982 394.754C249.852 395.391 258.015 401.653 261.555 410.208C261.569 410.043 261.589 409.879 261.6 409.713C262.494 395.897 252.011 383.972 238.184 383.079C224.358 382.185 212.424 392.661 211.53 406.477C211.274 410.43 211.953 414.227 213.372 417.656C214.517 404.087 226.322 393.87 239.982 394.754Z" fill="#19185B"/>
</g>
<g opacity="0.3">
<path opacity="0.3" d="M327.511 454.146C328.564 437.867 339.224 425.1 351.91 424.236C351.696 421.385 351.407 418.515 351.033 415.624C350.137 415.431 349.222 415.306 348.297 415.248C334.465 414.353 322.346 427.752 321.219 445.165C320.51 456.118 324.32 466.051 330.686 472.138C328.286 466.913 327.085 460.712 327.511 454.146Z" fill="#19185B"/>
</g>
<g opacity="0.3">
<path opacity="0.3" d="M167.058 569.282C158.585 567.353 150.575 570.797 149.167 576.974C149.083 577.341 149.028 577.711 148.994 578.08C152.414 575.388 157.83 574.287 163.463 575.569C171.431 577.383 176.966 583.303 176.426 589.139C178.15 587.783 179.376 586.029 179.848 583.959C181.256 577.782 175.53 571.211 167.058 569.282Z" fill="#19185B"/>
</g>
<g opacity="0.3">
<path opacity="0.3" d="M69.3683 492.312C62.9733 492.312 57.5329 496.337 55.4058 501.984C57.9826 499.869 61.2799 498.598 64.8746 498.598C73.1207 498.598 79.8055 505.278 79.8055 513.518C79.8055 515.367 79.453 517.131 78.8372 518.765C82.1713 516.029 84.2992 511.879 84.2992 507.231C84.2993 498.992 77.6144 492.312 69.3683 492.312Z" fill="#19185B"/>
</g>
<g opacity="0.3">
<path opacity="0.3" d="M65.0458 345.552C55.6751 343.133 45.6896 349.857 41.6106 360.838C46.4167 356.109 52.7145 353.871 58.7547 355.431C68.9278 358.057 74.5179 370.461 71.2408 383.136C70.9823 384.135 70.6713 385.103 70.3221 386.043C73.6106 382.808 76.2005 378.406 77.5319 373.257C80.8091 360.583 75.2188 348.178 65.0458 345.552Z" fill="#19185B"/>
</g>
<g opacity="0.3">
<path opacity="0.3" d="M162.085 325.708C155.087 325.708 149.129 330.091 146.766 336.253C149.525 334.154 152.957 332.893 156.692 332.893C165.758 332.893 173.108 340.237 173.108 349.296C173.108 351.363 172.709 353.333 172.011 355.155C175.948 352.158 178.5 347.439 178.5 342.112C178.5 333.053 171.151 325.708 162.085 325.708Z" fill="#19185B"/>
</g>
<path d="M312.581 379.531C310.507 380.456 308.081 380.653 305.744 380.26C303.409 379.835 301.155 378.842 299.217 377.423C295.315 374.581 292.641 370.236 291.468 365.595C290.327 360.945 290.657 355.853 292.776 351.517C293.824 349.355 295.353 347.424 297.218 345.957C299.102 344.518 301.339 343.558 303.605 343.409C299.437 345.232 296.702 348.743 295.38 352.616C294.031 356.506 293.997 360.748 294.957 364.729C295.967 368.698 297.983 372.433 300.998 375.241C303.979 378.05 308.044 379.873 312.581 379.531Z" fill="#19185B"/>
<g opacity="0.3">
<path opacity="0.3" d="M177.498 256.613C129.295 256.613 85.6579 276.162 54.1008 307.763C62.5585 322.837 76.189 332.722 89.1258 333.079C89.3569 333.079 89.5881 333.088 89.8289 333.088C98.1518 333.088 105.434 328.969 110.549 321.393C110.925 321.441 111.301 321.461 111.667 321.461C111.975 321.461 112.264 321.422 112.563 321.393C125.586 343.503 149.639 358.384 177.122 358.384C205.298 358.384 229.881 342.752 242.654 319.709C245.64 332.963 253.809 336.034 258.645 336.65C259.463 336.746 260.282 336.804 261.111 336.794C274.423 336.794 289.759 323.732 298.101 305.02C266.794 275.036 224.294 256.613 177.498 256.613Z" fill="#19185B"/>
</g>
<g opacity="0.3">
<path opacity="0.3" d="M3.18572 427.055C5.00188 521.701 82.3459 597.876 177.497 597.876C272.658 597.876 349.992 521.701 351.808 427.055C351.835 428.313 351.851 429.572 351.851 430.837C351.851 419.96 350.859 409.323 348.942 399.005C333.973 480.023 262.911 541.387 177.497 541.387C92.0923 541.387 21.0213 480.024 6.05178 399.005C4.13478 409.323 3.14258 419.96 3.14258 430.837C3.14258 429.572 3.15894 428.313 3.18572 427.055Z" fill="#19185B"/>
</g>
<path d="M252.728 146.437H102.788V200.933H252.728V146.437Z" fill="white"/>
<g opacity="0.3">
<path opacity="0.3" d="M252.728 146.437H102.788V200.933H252.728V146.437Z" fill="#19185B"/>
</g>
<path d="M252.728 146.437V200.933H102.788V146.437H252.728ZM257.221 141.946H252.728H102.788H98.2942V146.437V200.933V205.424H102.788H252.728H257.221V200.933V146.437V141.946Z" fill="#19185B"/>
<path d="M286.926 290.245C286.629 290.955 286.323 291.655 286.009 292.338C286.009 292.338 286.009 292.338 286 292.338C272.492 321.821 242.411 331.242 238.331 302.962L237.064 298.031L224.724 249.994L248.64 243.079C248.64 243.079 255.254 243.295 259.901 251.072C264.538 258.858 268.133 268.288 268.133 268.288C276.267 266.716 287.878 266.509 288.804 279.63C289.065 283.258 288.328 286.896 286.926 290.245Z" fill="white"/>
<path d="M289.319 281.514C289.319 281.514 281.747 265.677 262.551 281.517C262.551 281.517 238.536 299.93 248.135 317.952C248.135 317.952 256.895 324.709 271.245 312.38C271.245 312.38 290.347 294.409 289.319 281.514Z" fill="#B5B5B5"/>
<path d="M86.5173 277.233C85.6186 277.717 80.6755 264.848 80.6755 264.848C67.0148 260.367 59.6811 245.342 60.7506 216.335C61.5233 201.427 56.4367 189.842 43.3329 182.793C38.6595 180.278 35.0376 176.066 33.5639 170.965C29.5286 157.018 41.8322 142.542 64.3455 153.094C66.5924 154.145 68.6505 155.591 70.367 157.387C82.6887 170.247 89.4831 187.831 87.3891 213.012C87.3891 213.012 86.8948 216.12 87.1105 220.412C87.4432 227.121 89.5103 236.721 97.8863 241.894C98.7491 242.424 99.4591 243.026 100.025 243.69C108.68 253.578 87.3619 276.774 86.5173 277.233Z" fill="white"/>
<path d="M76.0873 164.282C74.3457 161.842 72.4365 159.545 70.367 157.385C68.6505 155.589 66.5924 154.144 64.3455 153.093C41.8322 142.541 29.5286 157.017 33.5639 170.964C35.0376 176.065 38.6597 180.277 43.3329 182.792C50.3098 186.545 54.994 191.596 57.751 197.738C75.2775 186.165 76.997 172.411 76.0873 164.282Z" fill="#FF8500"/>
<g opacity="0.3">
<path opacity="0.3" d="M92.1434 259.37C93.195 261.92 94.4801 264.866 95.3429 266.321C91.3076 272.338 86.8946 277.035 86.5174 277.232C85.6186 277.717 80.6756 264.848 80.6756 264.848C67.0148 260.367 59.6812 245.342 60.7507 216.335C61.5234 201.427 56.4367 189.842 43.333 182.792C38.6596 180.278 35.0377 176.066 33.564 170.965C31.0835 162.388 34.7771 153.614 43.2343 150.588C42.2276 153.794 42.1916 157.386 43.2164 160.952C44.6901 166.044 48.3122 170.255 52.9854 172.77C66.0981 179.829 71.1848 191.414 70.412 206.313C70.304 209.141 70.286 211.836 70.3401 214.404C75.2562 239.02 86.5174 224.031 87.1105 220.412C87.4432 227.121 89.5103 236.721 97.8864 241.894C98.7491 242.424 99.4591 243.025 100.025 243.69C99.8546 244.372 99.6569 245.082 99.4322 245.836C96.7 255.122 93.8241 258.373 92.1434 259.37Z" fill="#19185B"/>
</g>
<path d="M86.4619 279.492C86.1797 279.492 85.8957 279.442 85.6241 279.341C84.7187 279.006 83.5971 278.59 78.9521 266.626C64.3529 261.183 57.4754 244.243 58.5077 216.249C59.2813 201.351 53.968 191.065 42.2665 184.768C36.9575 181.912 32.9984 177.109 31.4035 171.592C29.2212 164.042 31.2899 156.431 36.8025 151.729C43.5475 145.975 53.9351 145.733 65.3023 151.063C67.859 152.262 70.1093 153.867 71.991 155.831C85.8648 170.317 91.6338 189.083 89.626 213.201C89.6217 213.256 89.615 213.312 89.6062 213.366C89.5773 213.553 86.7946 232.395 99.071 239.984C102.646 242.193 104.467 245.683 104.336 250.076C103.978 262.095 88.8953 278.504 87.5827 279.211C87.2359 279.397 86.8502 279.492 86.4619 279.492ZM87.8557 275.561H87.8645H87.8557ZM49.9372 151.721C45.8929 151.721 42.3954 152.862 39.7202 155.144C35.5666 158.687 34.0343 164.512 35.7206 170.345C36.9823 174.711 40.1446 178.527 44.3965 180.815C57.598 187.918 63.8557 199.907 62.9969 216.448C62.0113 243.185 68.0228 258.331 81.3765 262.718C82.018 262.929 82.5303 263.417 82.7724 264.046C84.0894 267.474 85.7183 271.382 86.8234 273.686C90.8699 269.115 100.454 256.967 99.8209 248.891C99.6428 246.622 98.6536 245.005 96.7073 243.802C82.2016 234.836 84.8962 214.48 85.1541 212.752C87.0305 190.026 81.6623 172.423 68.7443 158.936C67.2466 157.372 65.4465 156.092 63.393 155.128C58.5489 152.857 53.9709 151.721 49.9372 151.721Z" fill="#19185B"/>
<path d="M259.793 212.06C259.074 213.506 232.786 227.866 231.214 228.881C230.441 229.384 223.368 230.066 215.755 230.524C207.855 231.009 199.371 231.252 196.774 230.794C193.134 230.156 153.59 227.336 131.256 225.782C122.305 225.154 116.112 224.732 116.112 224.732L105.84 205.307L109.767 183.268L110.423 179.577H238.331C241.234 180.053 243.733 181.275 245.953 183.044C246.078 183.143 246.204 183.251 246.33 183.358C246.743 183.691 247.139 184.05 247.525 184.436C249.844 186.663 251.848 189.519 253.664 192.725C253.673 192.734 253.682 192.743 253.673 192.752C253.961 193.515 260.485 210.65 259.793 212.06Z" fill="white"/>
<path d="M123.141 249.994L114.432 294.61L113.416 299.783L112.338 305.324C99.8365 325.952 74.2674 315.768 62.0805 292.894C60.1571 289.293 58.935 285.333 58.89 281.255C58.8811 280.321 58.926 279.432 59.0248 278.597C60.8942 262.091 82.4009 264.992 82.4009 264.992C82.4009 264.992 84.6478 258.256 88.3867 248.647C92.1344 239.038 101.499 242.504 101.499 242.504L123.141 249.994Z" fill="white"/>
<path d="M58.0745 279.717C58.0745 279.717 65.6463 263.88 84.8429 279.72C84.8429 279.72 108.858 298.134 99.2588 316.155C99.2588 316.155 90.4987 322.913 76.1489 310.584C76.1486 310.584 57.0462 292.613 58.0745 279.717Z" fill="#B5B5B5"/>
<path d="M137.371 202.941V220.017L215.935 222.038L216.818 202.085C216.956 198.979 214.697 196.28 211.614 195.858C188.402 192.678 165.313 193.025 142.352 197.017C139.472 197.517 137.371 200.021 137.371 202.941Z" fill="white"/>
<path d="M215.936 224.283C215.917 224.283 215.897 224.283 215.877 224.282L137.313 222.262C136.095 222.23 135.124 221.235 135.124 220.017V202.941C135.124 198.916 138.002 195.494 141.967 194.804C164.925 190.814 188.461 190.421 211.919 193.633C216.182 194.217 219.253 197.893 219.063 202.185L218.179 222.137C218.126 223.34 217.134 224.283 215.936 224.283ZM139.617 217.829L213.788 219.737L214.574 201.986C214.661 200.028 213.257 198.349 211.309 198.082C188.309 194.931 165.239 195.317 142.737 199.228C140.93 199.542 139.618 201.104 139.618 202.941V217.829H139.617Z" fill="#19185B"/>
<path d="M200.712 214.404C204.776 214.404 208.071 211.288 208.071 207.444C208.071 203.6 204.776 200.484 200.712 200.484C196.648 200.484 193.354 203.6 193.354 207.444C193.354 211.288 196.648 214.404 200.712 214.404Z" fill="#06A0FF"/>
<path d="M200.712 216.2C195.664 216.2 191.556 212.272 191.556 207.444C191.556 202.616 195.664 198.688 200.712 198.688C205.761 198.688 209.868 202.616 209.868 207.444C209.868 212.272 205.761 216.2 200.712 216.2ZM200.712 202.28C197.646 202.28 195.151 204.597 195.151 207.444C195.151 210.291 197.646 212.608 200.712 212.608C203.779 212.608 206.273 210.291 206.273 207.444C206.273 204.597 203.778 202.28 200.712 202.28Z" fill="#19185B"/>
<path d="M175.51 340.095C212.851 340.095 243.121 309.847 243.121 272.535C243.121 235.222 212.851 204.974 175.51 204.974C138.169 204.974 107.899 235.222 107.899 272.535C107.899 309.847 138.169 340.095 175.51 340.095Z" fill="white"/>
<path d="M116.41 305.377C116.041 305.476 115.673 305.539 115.313 305.584C114.288 305.701 113.3 305.611 112.338 305.324C106.083 303.474 101.329 293.64 99.8818 283.905C98.3629 273.586 100.547 263.375 108.591 262.872L114.432 294.61L116.41 305.377Z" fill="white"/>
<path d="M242.542 263.666C256.041 263.012 254.468 303.649 235.897 302.954L242.542 263.666Z" fill="white"/>
<g opacity="0.3">
<path opacity="0.3" d="M243.121 272.535C243.121 309.85 212.852 340.096 175.509 340.096C138.167 340.096 107.898 309.85 107.898 272.535C107.898 270.595 107.979 268.682 108.14 266.788C117.793 292.31 142.481 310.46 171.402 310.46C206.803 310.46 235.85 283.267 238.771 248.647C241.584 256.074 243.121 264.129 243.121 272.535Z" fill="#19185B"/>
</g>
<path d="M235.797 277.627C233.892 309.436 205.573 333.63 172.544 331.645C140.783 329.75 116.248 304.326 116.113 274.098V274.062C118 242.827 147.838 224.076 180.444 226.033C205.492 227.533 226.208 242.315 234.575 262.225L234.584 262.234C235.68 267.183 236.112 272.346 235.797 277.627Z" fill="#19185B"/>
<path d="M235.797 277.627C233.892 309.437 205.573 333.63 172.544 331.646C140.783 329.75 116.248 304.326 116.113 274.098V274.062C116.175 273.083 116.257 272.113 116.373 271.161C124.075 292.607 144.567 308.602 169.507 310.092C201.843 312.032 229.677 288.88 232.598 258.05C233.317 259.415 233.982 260.807 234.575 262.226L234.584 262.235C235.68 267.183 236.112 272.347 235.797 277.627Z" fill="#130727"/>
<path d="M175.511 342.341C136.991 342.341 105.653 311.026 105.653 272.535C105.653 234.044 136.991 202.73 175.511 202.73C214.03 202.73 245.369 234.044 245.369 272.535C245.369 311.026 214.03 342.341 175.511 342.341ZM175.511 207.22C139.469 207.22 110.147 236.52 110.147 272.535C110.147 308.55 139.469 337.85 175.511 337.85C211.553 337.85 240.875 308.55 240.875 272.535C240.875 236.52 211.553 207.22 175.511 207.22Z" fill="#19185B"/>
<path d="M176.356 333.557C175.054 333.557 173.747 333.517 172.435 333.439C139.984 331.503 114.454 305.44 114.314 274.106C114.305 272.889 114.339 271.637 114.416 270.354C115.367 254.474 122.677 239.933 134.998 229.409C147.3 218.902 163.13 213.66 179.571 214.64C207.232 216.3 230.575 235.713 236.338 261.848C237.488 267.036 237.909 272.381 237.59 277.734V277.735C236.639 293.611 229.33 308.151 217.009 318.675C205.687 328.345 191.378 333.557 176.356 333.557ZM175.669 218.116C161.495 218.116 148.003 223.027 137.334 232.14C125.761 242.024 118.897 255.671 118.005 270.568C117.933 271.771 117.901 272.942 117.909 274.048C118.041 303.535 142.086 328.029 172.651 329.853C188.159 330.788 203.081 325.845 214.673 315.944C226.245 306.06 233.11 292.415 234.002 277.52V277.521C234.301 272.501 233.906 267.488 232.828 262.623C227.409 238.047 205.421 219.791 179.355 218.227C178.123 218.153 176.893 218.116 175.669 218.116ZM235.796 277.627H235.805H235.796Z" fill="#19185B"/>
<path d="M116.11 275.894C116.074 275.894 116.038 275.893 116.001 275.891C115.01 275.832 114.255 274.981 114.314 273.991C115.224 258.728 122.821 245.288 135.705 236.147C147.937 227.468 163.868 223.243 180.55 224.24C205.485 225.734 227.343 240.371 236.235 261.528C236.619 262.443 236.189 263.496 235.273 263.879C234.358 264.264 233.305 263.834 232.92 262.919C224.554 243.014 203.913 229.239 180.334 227.826C164.464 226.875 149.352 230.87 137.786 239.076C125.808 247.574 118.747 260.05 117.903 274.205C117.846 275.158 117.054 275.894 116.11 275.894Z" fill="#19185B"/>
<path d="M115.726 253.021C99.4049 242.99 89.1951 231.602 87.2808 218.383C86.8404 215.293 87.2808 212.132 88.4851 209.258C91.9093 201.086 96.1063 193.596 101.175 186.879C102.838 184.67 104.869 182.775 107.152 181.311C108.193 180.639 109.289 180.064 110.423 179.58L110.423 179.578H110.428C112.612 178.647 114.947 178.076 117.371 177.952C117.712 177.934 118.054 177.925 118.404 177.925L119.267 179.578L125.387 191.279L125.235 191.648L117.973 209.016L131.256 225.783L135.049 230.57C145.384 246.061 134.419 259.64 115.726 253.021Z" fill="white"/>
<path d="M120.429 210.981L123.823 215.632C123.823 215.632 106.785 220.671 100.026 241.501L95.3701 235.006C95.3701 235.006 99.9594 215.31 120.429 210.981Z" fill="#06A0FF"/>
<path d="M126.216 191.624L120.045 209.88L119.734 207.622L119.734 207.623L136.81 229.175L136.821 229.189C136.855 229.232 136.888 229.279 136.918 229.323C139.016 232.529 140.725 236.179 141.167 240.257C141.384 242.283 141.259 244.402 140.674 246.444C140.107 248.488 139.03 250.426 137.565 251.994C136.111 253.571 134.307 254.794 132.382 255.575C130.459 256.37 128.438 256.784 126.444 256.92C122.435 257.201 118.573 256.377 114.975 255.136C114.829 255.086 114.692 255.02 114.566 254.943L114.549 254.932C107.244 250.404 100.203 245.166 94.4638 238.438C91.6202 235.069 89.1728 231.28 87.4244 227.129C86.9526 226.108 86.6459 225.014 86.2535 223.958C85.974 222.864 85.6176 221.786 85.4242 220.671C85.2263 219.564 84.9718 218.46 84.909 217.232C84.8314 216.035 84.8664 214.834 85.0138 213.648C85.1557 212.462 85.4157 211.293 85.7677 210.157C85.9467 209.589 86.1491 209.029 86.3754 208.479L87.0117 206.983C87.8693 205.007 88.7806 203.052 89.7487 201.124C91.6848 197.267 93.8497 193.515 96.2597 189.919C96.861 189.019 97.4787 188.13 98.1125 187.252C98.7506 186.368 99.3666 185.523 100.117 184.601C101.598 182.825 103.308 181.231 105.219 179.905C109.02 177.24 113.692 175.687 118.39 175.679H118.401C119.642 175.677 120.65 176.68 120.652 177.92C120.654 179.16 119.653 180.167 118.412 180.169C114.635 180.181 110.912 181.408 107.783 183.593C106.218 184.678 104.806 185.995 103.578 187.464C102.993 188.182 102.358 189.043 101.759 189.875C101.156 190.711 100.567 191.559 99.9936 192.417C97.695 195.847 95.6232 199.436 93.7657 203.137C92.8362 204.988 91.9603 206.867 91.1344 208.77L90.5288 210.193C90.3529 210.62 90.1958 211.055 90.0566 211.496C89.7845 212.378 89.5823 213.282 89.4739 214.195C89.3597 215.108 89.3339 216.028 89.3926 216.941C89.4295 217.83 89.6538 218.795 89.8258 219.768C89.989 220.737 90.309 221.674 90.545 222.627C90.896 223.549 91.1515 224.504 91.5723 225.403C93.1095 229.048 95.2896 232.453 97.8994 235.544C103.162 241.722 109.852 246.745 116.902 251.107L116.476 250.904C119.643 251.999 122.956 252.673 126.135 252.441C129.292 252.238 132.317 251.106 134.26 248.951C136.265 246.852 137.03 243.796 136.698 240.732C136.373 237.641 134.996 234.584 133.178 231.814L133.286 231.962L116.211 210.409L116.211 210.409L116.033 210.149C115.614 209.537 115.589 208.769 115.899 208.149L124.557 190.932C124.781 190.488 125.322 190.309 125.767 190.532C126.174 190.736 126.358 191.206 126.216 191.624Z" fill="#19185B"/>
<path d="M95.3711 237.801C95.3233 237.801 95.2746 237.8 95.2258 237.796C94.2363 237.716 93.4987 236.851 93.5776 235.862C94.1076 229.242 98.4174 221.805 104.825 216.453C110.054 212.086 115.802 209.849 120.605 210.327C121.593 210.425 122.315 211.304 122.217 212.291C122.119 213.278 121.239 214.004 120.251 213.902C116.408 213.517 111.624 215.457 107.13 219.209C101.437 223.965 97.617 230.455 97.161 236.149C97.0857 237.088 96.2988 237.801 95.3711 237.801Z" fill="#19185B"/>
<path d="M116.191 210.384L111.044 201.481C110.794 201.048 110.942 200.493 111.376 200.243C111.738 200.034 112.186 200.104 112.469 200.386L119.754 207.648C120.64 208.531 120.642 209.965 119.758 210.851C118.875 211.736 117.44 211.738 116.553 210.855C116.412 210.713 116.288 210.549 116.191 210.384Z" fill="#19185B"/>
<path d="M100.365 243.23C100.263 243.23 100.16 243.221 100.055 243.203C99.0773 243.033 98.4221 242.104 98.592 241.126C100.592 229.623 110.683 218.476 122.586 214.622C123.531 214.318 124.544 214.834 124.85 215.778C125.156 216.721 124.639 217.734 123.694 218.04C113.159 221.451 103.89 231.64 102.134 241.741C101.982 242.614 101.223 243.23 100.365 243.23Z" fill="#19185B"/>
<path d="M263.487 218.382C261.573 231.602 251.372 242.989 235.042 253.021C216.357 259.639 205.384 246.061 215.719 230.569L215.755 230.524L232.795 209.016L226.576 194.144L225.38 191.279L231.51 179.577L232.373 177.925C232.714 177.925 233.056 177.934 233.397 177.952C238.062 178.194 242.42 180.062 245.952 183.044C246.078 183.143 246.204 183.25 246.33 183.358C246.725 183.708 247.112 184.077 247.489 184.454C248.244 185.208 248.945 186.017 249.592 186.878C251.021 188.764 252.369 190.713 253.664 192.725C253.673 192.734 253.682 192.743 253.673 192.752C256.971 197.88 259.829 203.394 262.282 209.258C263.487 212.132 263.936 215.293 263.487 218.382Z" fill="white"/>
<path d="M230.878 210.981L227.484 215.632C227.484 215.632 244.521 220.671 251.281 241.501L255.937 235.006C255.937 235.006 251.347 215.31 230.878 210.981Z" fill="#06A0FF"/>
<path d="M226.213 190.932L234.871 208.15C235.204 208.813 235.129 209.574 234.739 210.148L234.56 210.409L234.559 210.409L217.484 231.962L217.591 231.814C215.774 234.584 214.397 237.641 214.071 240.732C213.74 243.797 214.506 246.852 216.51 248.951C218.453 251.107 221.478 252.238 224.635 252.441C227.814 252.673 231.127 252 234.294 250.904L233.868 251.108C240.918 246.745 247.608 241.723 252.871 235.544C255.48 232.453 257.66 229.049 259.198 225.403C259.618 224.504 259.874 223.55 260.225 222.628C260.461 221.674 260.78 220.737 260.944 219.768C261.116 218.795 261.34 217.83 261.377 216.941C261.436 216.029 261.41 215.108 261.296 214.195C261.188 213.282 260.985 212.378 260.713 211.496C260.574 211.056 260.417 210.621 260.241 210.193L259.635 208.77C258.81 206.868 257.933 204.988 257.004 203.138C255.146 199.436 253.075 195.848 250.776 192.417C250.203 191.559 249.614 190.712 249.01 189.875C248.411 189.044 247.777 188.183 247.191 187.465C245.964 185.995 244.552 184.679 242.986 183.594C239.858 181.408 236.135 180.182 232.357 180.169C231.117 180.166 230.114 179.157 230.118 177.917C230.122 176.678 231.131 175.676 232.372 175.68H232.38C237.078 175.688 241.75 177.241 245.55 179.906C247.461 181.231 249.172 182.826 250.653 184.602C251.403 185.524 252.019 186.369 252.657 187.252C253.291 188.131 253.908 189.02 254.51 189.919C256.92 193.516 259.085 197.267 261.021 201.124C261.989 203.053 262.9 205.008 263.758 206.984L264.394 208.479C264.621 209.029 264.823 209.589 265.002 210.157C265.354 211.294 265.614 212.462 265.756 213.648C265.903 214.834 265.938 216.035 265.861 217.232C265.798 218.461 265.543 219.564 265.345 220.671C265.152 221.787 264.796 222.865 264.516 223.959C264.123 225.015 263.817 226.109 263.345 227.13C261.597 231.281 259.15 235.069 256.305 238.438C250.567 245.166 243.526 250.405 236.221 254.933L236.213 254.938C236.082 255.019 235.934 255.087 235.794 255.137C232.197 256.378 228.335 257.201 224.326 256.921C222.332 256.784 220.311 256.37 218.388 255.575C216.463 254.795 214.659 253.572 213.205 251.995C211.74 250.426 210.663 248.488 210.096 246.444C209.511 244.402 209.386 242.283 209.603 240.258C210.045 236.18 211.754 232.53 213.852 229.324C213.882 229.278 213.913 229.234 213.947 229.192L213.96 229.176L231.035 207.623L231.036 207.622L230.724 209.881L224.554 191.625C224.394 191.154 224.647 190.643 225.119 190.484C225.551 190.338 226.015 190.537 226.213 190.932Z" fill="#19185B"/>
<path d="M255.398 237.801C254.47 237.801 253.684 237.088 253.608 236.148C253.153 230.455 249.333 223.965 243.64 219.21C239.147 215.457 234.365 213.519 230.518 213.902C229.534 214.005 228.65 213.278 228.553 212.291C228.455 211.304 229.177 210.424 230.165 210.327C234.968 209.853 240.717 212.086 245.945 216.453C252.353 221.805 256.662 229.242 257.192 235.862C257.271 236.851 256.533 237.717 255.544 237.796C255.495 237.799 255.446 237.801 255.398 237.801Z" fill="#19185B"/>
<path d="M231.016 207.647L238.301 200.385C238.656 200.032 239.23 200.033 239.583 200.386C239.879 200.683 239.926 201.134 239.726 201.479L234.579 210.383C233.953 211.466 232.567 211.836 231.483 211.211C230.399 210.585 230.028 209.2 230.654 208.117C230.754 207.945 230.882 207.782 231.016 207.647Z" fill="#19185B"/>
<path d="M250.405 243.23C249.548 243.23 248.788 242.615 248.636 241.741C246.88 231.64 237.612 221.451 227.076 218.04C226.132 217.734 225.614 216.722 225.92 215.778C226.226 214.834 227.243 214.317 228.184 214.623C240.088 218.477 250.179 229.623 252.178 241.126C252.348 242.104 251.693 243.034 250.715 243.204C250.611 243.222 250.507 243.23 250.405 243.23Z" fill="#19185B"/>
<g opacity="0.4">
<path opacity="0.4" d="M168.826 241.742C209.192 253.398 218.785 279.368 206.352 315.585C238.807 275.554 221.155 239.92 168.826 241.742Z" fill="white"/>
</g>
<g opacity="0.4">
<path opacity="0.4" d="M144.884 265.362C144.843 265.401 144.802 265.441 144.76 265.479C140.402 269.53 133.115 266.042 133.916 260.149C134.407 256.53 137.369 253.729 141.493 254.28C146.808 254.99 148.745 261.644 144.884 265.362Z" fill="white"/>
</g>
<g opacity="0.4">
<path opacity="0.4" d="M140.631 282.279C140.678 286.148 141.592 290.048 143.023 293.968C143.993 296.625 142.841 299.594 140.38 300.991L139.337 301.583C136.692 303.085 133.275 302.339 131.634 299.779C127.85 293.878 126.988 287.446 129.208 280.456C130.132 277.546 133.15 275.838 136.122 276.549L136.165 276.559C138.806 277.191 140.599 279.565 140.631 282.279Z" fill="white"/>
</g>
<path d="M114.436 307.886C111.83 307.886 108.635 306.829 105.42 303.139C98.1823 294.829 94.9622 277.397 98.9187 267.945C100.808 263.433 104.103 260.904 108.449 260.634C109.695 260.554 110.755 261.498 110.831 262.735C110.909 263.973 109.967 265.038 108.729 265.115C106.134 265.277 104.282 266.769 103.064 269.677C99.7783 277.528 102.731 293.212 108.809 300.19C111.099 302.819 113.464 303.836 115.84 303.209C117.04 302.894 118.269 303.609 118.585 304.807C118.902 306.006 118.186 307.234 116.985 307.551C116.229 307.75 115.37 307.886 114.436 307.886Z" fill="#19185B"/>
<path d="M236.352 305.207C236.173 305.207 235.994 305.204 235.813 305.197C234.574 305.151 233.606 304.109 233.652 302.869C233.699 301.631 234.721 300.662 235.982 300.71C239.845 300.849 243.051 298.825 245.496 294.678C250.247 286.619 250.11 274.046 246.822 268.606C245.119 265.789 243.261 265.88 242.652 265.908C241.402 265.964 240.359 265.013 240.298 263.774C240.238 262.536 241.195 261.483 242.434 261.423C245.745 261.256 248.676 262.989 250.668 266.284C255.195 273.771 254.587 288.105 249.368 296.957C246.221 302.295 241.615 305.207 236.352 305.207Z" fill="#19185B"/>
<path d="M164.441 206.771C163.448 206.771 162.644 205.967 162.644 204.975V194.302C162.644 193.31 163.448 192.506 164.441 192.506C165.434 192.506 166.238 193.31 166.238 194.302V204.975C166.238 205.967 165.434 206.771 164.441 206.771Z" fill="#19185B"/>
<path d="M94.0625 318.735C93.8444 318.735 93.6258 318.732 93.406 318.726C81.0049 318.383 67.93 308.659 60.0959 293.954C57.8517 289.742 56.6888 285.477 56.6388 281.279C56.5709 275.542 58.3915 270.993 62.0497 267.758C67.96 262.532 76.9687 262.389 80.8406 262.608C81.7403 260.012 83.6567 254.607 86.2958 247.833C89.892 238.603 98.3273 238.934 102.282 240.395C103.446 240.826 104.04 242.118 103.61 243.28C103.18 244.441 101.893 245.036 100.731 244.609C99.9641 244.336 93.31 242.205 90.483 249.462C86.8046 258.904 84.5517 265.638 84.5292 265.705L83.9413 267.468L82.0981 267.22C81.9897 267.206 71.0004 265.826 65.0161 271.131C62.3501 273.494 61.0798 276.796 61.1325 281.226C61.1733 284.7 62.1594 288.272 64.0622 291.845C71.041 304.944 82.8835 313.943 93.5304 314.238C100.453 314.426 106.304 310.944 110.418 304.159C111.06 303.099 112.442 302.758 113.503 303.401C114.565 304.043 114.904 305.424 114.261 306.485C109.461 314.404 102.307 318.735 94.0625 318.735Z" fill="#19185B"/>
<path d="M92.1264 318.197C91.2816 318.197 90.5287 317.599 90.3631 316.74C90.1753 315.766 90.8134 314.824 91.7885 314.637C96.7303 313.686 99.6177 311.521 100.37 308.202C102.185 300.2 92.3216 286.651 81.9718 279.018C78.2036 276.239 73.9103 274.727 69.5567 274.645C66.3146 274.589 63.8194 275.316 62.3453 276.761C61.2425 277.842 60.6833 279.353 60.6833 281.252C60.6833 282.243 59.8784 283.048 58.8858 283.048C57.8933 283.048 57.0884 282.243 57.0884 281.252C57.0884 278.393 58.0353 275.954 59.8272 274.197C62.0052 272.061 65.3929 270.975 69.6241 271.054C74.7273 271.149 79.7349 272.904 84.1061 276.128C93.7904 283.27 106.327 298.19 103.876 308.996C103.122 312.322 100.531 316.613 92.4678 318.164C92.3533 318.186 92.2388 318.197 92.1264 318.197Z" fill="#19185B"/>
<path d="M83.265 262.923L90.9831 267.609C91.4124 267.869 91.5488 268.427 91.2882 268.856C91.0762 269.205 90.6659 269.36 90.2898 269.265L81.5311 267.066C80.3142 266.76 79.5757 265.526 79.8816 264.31C80.1875 263.094 81.4219 262.356 82.6393 262.662C82.862 262.718 83.0775 262.811 83.265 262.923Z" fill="#19185B"/>
<path d="M60.7539 289.093C60.3835 289.093 60.0144 288.941 59.7486 288.643C59.2523 288.089 59.3001 287.237 59.8552 286.742L75.1337 273.095C75.6887 272.599 76.5415 272.646 77.0368 273.201C77.5331 273.756 77.4853 274.607 76.9302 275.103L61.6518 288.75C61.3945 288.98 61.0737 289.093 60.7539 289.093Z" fill="#19185B"/>
<path d="M66.5202 300.094C66.17 300.094 65.8197 299.958 65.5556 299.688C65.0356 299.156 65.0457 298.303 65.5781 297.783L84.6696 279.148C85.2027 278.629 86.0563 278.638 86.5763 279.17C87.0963 279.703 87.0862 280.556 86.5538 281.076L67.4624 299.711C67.2 299.966 66.8597 300.094 66.5202 300.094Z" fill="#19185B"/>
<path d="M74.8332 308.4C74.4989 308.4 74.164 308.277 73.9028 308.028C73.364 307.515 73.3438 306.662 73.8577 306.124L92.2818 286.815C92.7957 286.277 93.6491 286.258 94.1877 286.77C94.7265 287.283 94.7467 288.136 94.2328 288.675L75.8087 307.983C75.5441 308.261 75.1886 308.4 74.8332 308.4Z" fill="#19185B"/>
<path d="M85.0929 315.286C84.7752 315.286 84.4563 315.175 84.1994 314.948C83.6422 314.454 83.5903 313.603 84.084 313.046L98.0144 297.33C98.5082 296.774 99.3598 296.721 99.9176 297.215C100.475 297.708 100.527 298.56 100.033 299.116L86.1026 314.832C85.8364 315.133 85.4656 315.286 85.0929 315.286Z" fill="#19185B"/>
<path d="M253.867 322.199C253.093 322.199 252.329 322.153 251.572 322.056C246.72 321.441 238.26 318.184 236.105 303.284C235.927 302.056 236.779 300.918 238.008 300.741C239.239 300.563 240.375 301.415 240.553 302.642C241.834 311.504 245.949 316.817 252.138 317.602C261.901 318.838 276.803 308.623 284.853 289.383C286.21 286.14 286.786 282.911 286.565 279.786C286.306 276.126 285.153 273.56 283.04 271.939C280.105 269.688 275.235 269.201 268.564 270.492C267.489 270.698 266.426 270.106 266.037 269.087C266.002 268.994 262.453 259.742 257.969 252.224C254 245.572 248.616 245.32 248.562 245.319C247.322 245.278 246.35 244.241 246.39 243.001C246.431 241.762 247.465 240.801 248.709 240.831C249.03 240.841 256.615 241.188 261.828 249.925C265.375 255.87 268.281 262.645 269.551 265.763C276.637 264.673 282.089 265.55 285.776 268.377C288.924 270.791 290.698 274.523 291.048 279.469C291.318 283.301 290.629 287.219 288.999 291.115C281.377 309.332 266.635 322.198 253.867 322.199Z" fill="#19185B"/>
<path d="M251.442 281.072C251.02 281.072 250.592 280.952 250.212 280.703C249.174 280.023 248.885 278.631 249.566 277.595C254.539 270.02 266.975 266.288 267.502 266.133C268.692 265.782 269.94 266.462 270.291 267.651C270.642 268.84 269.963 270.088 268.773 270.44C268.66 270.474 257.387 273.867 253.323 280.057C252.892 280.715 252.174 281.072 251.442 281.072Z" fill="#19185B"/>
<path d="M250.641 321.416C250.382 321.416 250.118 321.359 249.868 321.24C246.059 319.422 243.787 316.184 243.298 311.877C242.232 302.493 249.984 289.191 262.15 279.529C269.869 273.707 279.014 271.795 284.943 274.746C288.491 276.512 290.446 279.807 290.446 284.024C290.446 285.016 289.641 285.82 288.648 285.82C287.655 285.82 286.851 285.016 286.851 284.024C286.851 281.16 285.669 279.12 283.34 277.962C278.676 275.641 270.869 277.453 264.351 282.369C253.318 291.132 245.951 303.383 246.87 311.472C247.217 314.528 248.747 316.724 251.417 317.999C252.313 318.426 252.693 319.498 252.265 320.393C251.956 321.039 251.312 321.416 250.641 321.416Z" fill="#19185B"/>
<path d="M286.525 290.746C285.98 290.746 285.184 290.163 283.095 288.632C281.605 287.54 279.63 286.074 277.659 284.604C273.72 281.669 269.797 278.719 269.797 278.719C269.202 278.272 269.083 277.427 269.53 276.833C269.978 276.238 270.822 276.119 271.418 276.566C276.879 280.671 285.729 287.281 286.946 288.081C287.196 288.189 287.416 288.373 287.567 288.624C287.898 289.177 287.794 289.895 287.315 290.326C287.022 290.589 286.807 290.746 286.525 290.746Z" fill="#19185B"/>
<path d="M281.241 299.795C280.966 299.795 280.689 299.711 280.45 299.537L260.453 285.019C259.851 284.581 259.717 283.739 260.155 283.137C260.592 282.535 261.435 282.401 262.038 282.839L282.035 297.358C282.637 297.795 282.771 298.637 282.333 299.239C282.069 299.602 281.658 299.795 281.241 299.795Z" fill="#19185B"/>
<path d="M275.1 308.401C274.817 308.401 274.532 308.312 274.289 308.129L253.243 292.263C252.649 291.815 252.531 290.971 252.979 290.377C253.427 289.782 254.273 289.665 254.867 290.113L275.912 305.978C276.507 306.426 276.625 307.271 276.177 307.865C275.912 308.216 275.508 308.401 275.1 308.401Z" fill="#19185B"/>
<path d="M266.188 316.183C265.909 316.183 265.628 316.097 265.387 315.918L246.888 302.223C246.289 301.78 246.164 300.936 246.607 300.339C247.05 299.741 247.895 299.615 248.493 300.058L266.992 313.754C267.59 314.197 267.716 315.04 267.272 315.638C267.008 315.995 266.601 316.183 266.188 316.183Z" fill="#19185B"/>
<path d="M250.407 271.281C250.139 271.281 249.868 271.222 249.612 271.095C248.722 270.656 248.357 269.579 248.796 268.69C253.468 259.232 265.643 261.021 266.158 261.101C267.139 261.254 267.81 262.173 267.656 263.153C267.503 264.131 266.584 264.803 265.606 264.65C265.481 264.63 255.511 263.211 252.02 270.28C251.706 270.914 251.069 271.281 250.407 271.281Z" fill="#19185B"/>
<g opacity="0.3">
<path opacity="0.3" d="M115.312 305.584C114.288 305.701 113.299 305.611 112.338 305.324C99.8363 325.952 74.2671 315.768 62.0803 292.895C60.1568 289.293 58.9347 285.333 58.8898 281.256C58.8808 280.322 58.9257 279.433 59.0246 278.597C61.0557 281.444 83.8748 312.239 99.4317 283.312C99.4317 283.312 99.5935 283.537 99.8811 283.905C101.418 285.836 106.514 291.727 110.001 289.329L113.416 299.783L115.312 305.584Z" fill="#19185B"/>
</g>
<g opacity="0.3">
<path opacity="0.3" d="M286 292.337C272.492 321.821 242.411 331.241 238.331 302.961L237.064 298.031L241.998 284.902C248.163 293.011 252.558 281.516 252.558 281.516C261.473 303.321 285.623 292.508 286 292.337Z" fill="#19185B"/>
</g>
<g opacity="0.3">
<path opacity="0.3" d="M256.79 199.638C256.79 199.638 239.407 228.88 225.596 236.006C211.786 243.131 215.722 230.569 215.722 230.569C215.722 230.569 202.702 257.13 232.798 254.738C232.798 254.738 262.251 237.495 263.134 220.337C264.017 203.178 256.79 199.638 256.79 199.638Z" fill="#19185B"/>
</g>
<g opacity="0.3">
<path opacity="0.3" d="M93.6127 199.638C93.6127 199.638 110.996 228.88 124.807 236.006C138.617 243.131 134.681 230.569 134.681 230.569C134.681 230.569 147.701 257.13 117.605 254.738C117.605 254.738 88.1522 237.495 87.2689 220.337C86.3858 203.178 93.6127 199.638 93.6127 199.638Z" fill="#19185B"/>
</g>
<g opacity="0.3">
<path opacity="0.3" d="M247.525 184.435C247.516 184.444 247.498 184.453 247.489 184.453C241.521 188.521 234.529 191.7 226.575 194.143C213.139 198.274 196.989 200.304 178.493 200.932C156.285 200.519 138.805 197.197 125.234 191.647C119.365 189.258 114.234 186.447 109.767 183.268C108.868 182.63 107.996 181.983 107.152 181.31C108.193 180.638 109.288 180.063 110.423 179.579L110.423 179.577H110.428C112.611 178.646 114.946 178.075 117.37 177.951C117.712 177.933 118.053 177.924 118.404 177.924L119.267 179.577H231.51L232.373 177.924C232.714 177.924 233.056 177.933 233.397 177.951C238.062 178.194 242.42 180.062 245.952 183.043C246.078 183.142 246.204 183.25 246.33 183.358C246.743 183.69 247.138 184.049 247.525 184.435Z" fill="#19185B"/>
</g>
<path d="M211.74 19.9743C281.657 -20.2602 285.137 10.7692 266.039 84.1856C284.156 165.015 247.615 187.462 177.516 189.857C85.265 188.131 74.4584 136.273 87.64 82.9881C70.3675 7.30553 83.7454 -8.61402 144.41 19.9743C167.387 13.2579 189.858 12.9206 211.74 19.9743Z" fill="white"/>
<path d="M211.741 19.9735C203.408 17.2876 194.99 15.6801 186.492 15.0816C186.069 18.1104 185.834 21.1995 185.834 24.3451C185.834 61.0481 215.61 90.8015 252.341 90.8015C257.412 90.8015 262.343 90.2153 267.089 89.1414C266.76 87.511 266.416 85.8652 266.039 84.185C285.137 10.7684 281.657 -20.2612 211.741 19.9735Z" fill="#FF8500"/>
<g opacity="0.3">
<path opacity="0.3" d="M177.514 184.472C234.581 182.522 269.403 167.271 270.606 118.067C270.841 128.093 269.793 136.813 267.546 144.376C270.92 133.021 271.598 119.066 269.284 101.985C262.328 140.485 228.958 153.049 177.514 154.8C115.762 153.642 90.5078 130.032 84.5132 98.5548C83.7024 103.919 83.2045 109.217 83.0728 114.401C84.0784 152.542 107.011 183.148 177.514 184.472Z" fill="#19185B"/>
</g>
<g opacity="0.56">
<path opacity="0.56" d="M275.934 30.4277C274.847 3.71926 257.555 -0.519405 211.738 25.8476C189.863 18.7977 167.385 19.1301 144.413 25.8476C100.969 5.37187 81.7717 7.72478 80.7294 38.5191C79.543 2.2195 98.3534 -1.73197 144.413 19.9741C167.385 13.2567 189.862 12.9242 211.738 19.9741C260.728 -8.21578 277.103 -1.41764 275.934 30.4277Z" fill="white"/>
</g>
<path d="M169.851 124.264C173.061 121.551 182.846 121.557 186.023 124.285C186.903 125.041 187.024 126.36 186.36 127.312C184.722 129.66 182.276 131.625 179.159 133.273C178.381 133.685 177.449 133.707 176.66 133.317C173.867 131.939 171.461 129.995 169.545 127.332C168.856 126.375 168.95 125.026 169.851 124.264Z" fill="#19185B"/>
<path d="M179.612 131.248C179.738 132.562 179.826 133.878 179.888 135.195L179.961 137.171C179.98 137.681 180.024 138.863 179.749 139.787C179.496 140.743 179.026 141.64 178.397 142.397C178.24 142.586 178.072 142.766 177.896 142.937C177.73 143.095 177.574 143.231 177.406 143.368C177.072 143.64 176.724 143.886 176.365 144.107C174.922 144.995 173.374 145.451 171.9 145.692C171.528 145.752 171.17 145.8 170.792 145.835C170.394 145.874 169.997 145.892 169.6 145.89C168.807 145.881 168.016 145.794 167.245 145.614C165.709 145.243 164.242 144.535 163.045 143.485C161.851 142.432 160.932 141.099 160.501 139.558C160.059 138.021 160.185 136.419 160.634 135.049C160.789 134.575 161.299 134.318 161.773 134.473C162.187 134.608 162.437 135.016 162.389 135.433L162.387 135.445C162.25 136.638 162.368 137.777 162.83 138.732C163.286 139.68 164.04 140.519 164.913 141.095C165.794 141.677 166.834 142.012 167.888 142.119C168.414 142.176 168.946 142.185 169.471 142.135C169.733 142.108 169.993 142.068 170.25 142.016C170.525 141.962 170.817 141.893 171.09 141.819C172.194 141.523 173.18 141.083 173.933 140.494C174.121 140.347 174.297 140.192 174.458 140.027L174.688 139.78C174.743 139.716 174.794 139.649 174.842 139.581C175.033 139.305 175.155 138.99 175.218 138.667C175.291 138.308 175.27 138.154 175.225 137.352L175.148 135.376C175.109 134.058 175.096 132.739 175.122 131.419C175.146 130.177 176.173 129.19 177.416 129.214C178.571 129.237 179.506 130.126 179.612 131.248Z" fill="#19185B"/>
<path d="M179.323 137.747C180.012 138.766 180.571 139.777 181.088 140.462C181.35 140.812 181.615 141.092 181.932 141.361C182.25 141.627 182.629 141.884 182.987 142.073C184.508 142.865 186.602 143.093 188.484 142.746C189.43 142.573 190.337 142.244 191.088 141.757C191.466 141.511 191.794 141.238 192.076 140.903C192.383 140.553 192.637 140.168 192.839 139.76C193.697 138.137 193.439 136.07 192.438 134.247L192.434 134.238C192.195 133.803 192.354 133.257 192.79 133.019C193.202 132.792 193.716 132.926 193.972 133.311C194.645 134.327 195.214 135.479 195.454 136.771C195.709 138.054 195.603 139.46 195.121 140.723C194.885 141.356 194.569 141.957 194.186 142.5C193.796 143.074 193.297 143.588 192.768 144.014C191.7 144.872 190.483 145.439 189.238 145.803C186.742 146.496 184.082 146.563 181.438 145.565C180.764 145.293 180.165 144.972 179.569 144.575C178.977 144.176 178.407 143.684 177.937 143.173C176.989 142.135 176.376 141.203 175.71 140.417C174.906 139.469 175.024 138.049 175.972 137.246C176.921 136.443 178.342 136.56 179.145 137.508C179.199 137.571 179.248 137.635 179.293 137.702L179.323 137.747Z" fill="#19185B"/>
<path d="M177.534 192.103L177.474 192.102C137.334 191.351 109.307 180.985 94.1734 161.292C80.0816 142.955 77.1075 116.604 85.3313 82.9682C75.5611 39.9576 76.1557 17.7626 87.3056 8.80477C97.1101 0.928783 114.796 3.63212 144.599 17.5819C167.832 10.9429 190.322 10.9262 211.479 17.5353C241.426 0.419224 260.034 -4.01773 269.995 3.56944C281.416 12.2689 280.945 35.6535 268.35 84.2251C276.353 120.297 273.757 146.221 260.416 163.463C246.232 181.796 220.688 190.628 177.593 192.1L177.534 192.103ZM101.602 8.92403C96.7139 8.92403 92.9193 10.0567 90.1213 12.3045C80.5908 19.9612 80.5008 41.6068 89.8309 82.4886L89.9493 83.0088L89.8212 83.5266C81.7834 116.019 84.4473 141.263 97.7378 158.557C111.99 177.103 138.824 186.878 177.499 187.611C218.536 186.201 243.756 177.655 256.861 160.717C269.399 144.513 271.683 119.64 263.846 84.6759L263.728 84.1462L263.864 83.6205C272.354 50.9852 279.397 16.3774 267.271 7.14066C258.951 0.803772 241.155 5.63839 212.862 21.9197L211.999 22.4165L211.051 22.1108C190.24 15.4025 168.031 15.4091 145.042 22.1287L144.223 22.3682L143.452 22.0046C124.855 13.2408 111.145 8.92403 101.602 8.92403Z" fill="#19185B"/>
<path d="M118.198 32.3218C109.66 40.3295 103.369 50.0585 96.1789 65.4378C91.3482 21.8819 88.989 7.62517 118.198 32.3218Z" fill="#F982BB"/>
<g opacity="0.3">
<path opacity="0.3" d="M118.197 32.3225C115.716 34.6485 113.416 37.1271 111.241 39.8482C102.235 32.5111 96.6092 29.4307 93.2749 30.2659C93.7333 16.6603 99.485 16.5077 118.197 32.3225Z" fill="#19185B"/>
</g>
<g opacity="0.56">
<path opacity="0.56" d="M95.7464 61.5724C94.5329 63.9251 93.3109 66.4307 92.0614 69.1069C88.862 40.2435 86.7409 24.2488 94.1826 23.9255C92.2144 29.8168 93.6432 42.6592 95.7464 61.5724Z" fill="white"/>
</g>
<path d="M257.801 60.9856C251.772 49.7225 243.346 39.1504 232.037 30.0026C271.781 5.90456 269.334 16.0826 257.801 60.9856Z" fill="#F982BB"/>
<g opacity="0.3">
<path opacity="0.3" d="M264.718 30.7233C261.707 27.4543 254.364 29.7803 240.533 37.6743C237.908 35.025 235.077 32.4655 232.04 30.0048C260.287 12.8788 267.216 13.0584 264.718 30.7233Z" fill="#19185B"/>
</g>
<g opacity="0.56">
<path opacity="0.56" d="M261.097 67.4181C255.066 56.1564 248.281 44.5986 236.966 35.4472C237.793 34.9443 236.966 35.4472 237.757 34.9802C246.241 42.9011 252.828 51.7021 257.799 60.988C262.337 43.3323 265.465 31.0467 265.177 24.0957C271.558 26.4486 267.918 40.8627 261.097 67.4181Z" fill="white"/>
</g>
<path d="M96.1792 67.6833C96.058 67.6833 95.9356 67.6736 95.8127 67.6535C94.8192 67.4899 94.056 66.6858 93.9449 65.6855L93.5416 62.0591C90.5795 35.4751 89.0927 22.1319 95.4755 18.732C99.946 16.3479 106.723 19.6797 119.648 30.6082C120.137 31.0222 120.427 31.6246 120.443 32.2644C120.46 32.9045 120.202 33.5211 119.735 33.9592C111.69 41.5045 105.455 50.8995 98.2138 66.3885C97.8401 67.1874 97.0402 67.6833 96.1792 67.6833ZM98.5932 22.4779C98.1701 22.4779 97.8424 22.5599 97.5897 22.6945C94.1522 24.5256 95.5648 39.4668 97.5555 57.4916C103.177 46.4956 108.485 38.8292 114.843 32.4472C105.266 24.5554 100.722 22.4779 98.5932 22.4779Z" fill="#19185B"/>
<path d="M257.8 63.2305C256.979 63.2305 256.214 62.7806 255.82 62.0444C249.608 50.4398 241.131 40.2463 230.624 31.7476C230.055 31.2876 229.746 30.5799 229.796 29.8505C229.845 29.1213 230.247 28.4618 230.872 28.083C250.827 15.9832 259.57 12.9313 264.285 16.4288C270.401 20.963 266.917 34.5251 259.977 61.5436C259.747 62.4404 258.99 63.1039 258.07 63.2144C257.98 63.2253 257.89 63.2305 257.8 63.2305ZM235.898 30.2956C244.301 37.5072 251.375 45.8087 257.001 55.0576C261.71 36.6088 264.977 22.5331 261.608 20.0351C258.099 17.4307 243.774 25.5817 235.898 30.2956Z" fill="#19185B"/>
<path d="M92.7097 127.155C85.6414 124.323 77.8182 123.304 70.1835 124.436C62.543 125.533 55.1915 128.737 48.8741 133.388C48.4744 133.682 47.9114 133.597 47.6168 133.198C47.3328 132.813 47.4044 132.274 47.7678 131.972C54.0142 126.808 61.5235 122.979 69.6376 121.34C73.6855 120.515 77.8623 120.229 82.0159 120.506C86.1695 120.78 90.2936 121.616 94.255 122.938C95.4332 123.33 96.071 124.601 95.6799 125.778C95.2884 126.955 94.0163 127.593 92.8379 127.202C92.798 127.189 92.7484 127.17 92.7097 127.155Z" fill="#19185B"/>
<path d="M94.0204 148.556C88.4252 149.691 83.1268 152.25 78.6235 155.952C74.1012 159.64 70.3769 164.362 67.3089 169.482L67.3059 169.488C67.0508 169.913 66.4988 170.052 66.0728 169.797C65.667 169.554 65.5233 169.039 65.7309 168.622C68.482 163.153 71.9716 157.931 76.5416 153.596C78.8205 151.432 81.3626 149.506 84.1251 147.916C86.885 146.324 89.8612 145.074 92.9439 144.197L92.9566 144.193C94.1512 143.853 95.3953 144.545 95.7353 145.739C96.0758 146.932 95.3834 148.175 94.1888 148.515C94.1345 148.531 94.0748 148.545 94.0204 148.556Z" fill="#19185B"/>
<path d="M258.94 124.248C259.987 123.982 260.886 123.805 261.848 123.647C262.795 123.48 263.742 123.366 264.688 123.253C265.635 123.145 266.583 123.085 267.529 123.007C268.478 122.975 269.425 122.927 270.372 122.911C274.161 122.859 277.948 123.226 281.65 123.963C283.513 124.27 285.321 124.844 287.136 125.332C288.907 125.985 290.712 126.523 292.402 127.363C295.876 128.814 299.03 130.891 302.063 133.048C302.467 133.336 302.562 133.896 302.274 134.299C301.998 134.687 301.471 134.789 301.071 134.543L301.015 134.508C297.962 132.613 294.846 130.818 291.463 129.647C289.821 128.948 288.072 128.549 286.374 128.033C284.628 127.681 282.905 127.242 281.133 127.064C277.617 126.585 274.053 126.459 270.523 126.725L267.884 126.976C267.011 127.104 266.135 127.212 265.269 127.365C264.404 127.524 263.541 127.681 262.694 127.886C261.858 128.072 260.972 128.314 260.256 128.541L260.175 128.567C258.992 128.943 257.727 128.29 257.35 127.108C256.973 125.925 257.627 124.661 258.811 124.285C258.852 124.272 258.899 124.258 258.94 124.248Z" fill="#19185B"/>
<path d="M257.351 146.45C257.343 146.074 257.484 145.434 257.932 144.948C258.309 144.469 259.062 144.246 259.107 144.253C259.19 144.235 259.274 144.221 259.358 144.211C259.444 144.201 259.529 144.195 259.613 144.193L259.717 144.194C259.801 144.197 259.932 144.206 259.964 144.212C260.077 144.225 260.169 144.239 260.24 144.252L260.647 144.334C260.895 144.39 261.124 144.449 261.35 144.51C261.799 144.633 262.231 144.764 262.659 144.902C263.512 145.178 264.342 145.481 265.162 145.805C266.801 146.451 268.391 147.183 269.944 147.982C273.045 149.584 275.989 151.468 278.719 153.614C281.448 155.761 283.968 158.168 286.196 160.811C288.429 163.45 290.369 166.322 291.983 169.352C292.216 169.79 292.05 170.335 291.611 170.568C291.191 170.791 290.671 170.645 290.424 170.246C286.945 164.617 282.256 159.827 276.856 156.146C274.158 154.302 271.283 152.724 268.302 151.429C266.811 150.782 265.293 150.203 263.759 149.714C262.993 149.469 262.222 149.246 261.457 149.054C261.075 148.957 260.693 148.869 260.324 148.795L259.793 148.7L259.578 148.672C259.544 148.668 259.531 148.669 259.539 148.672C259.52 148.67 259.598 148.68 259.63 148.679H259.694C259.765 148.678 259.838 148.673 259.909 148.665C259.981 148.656 260.052 148.643 260.121 148.626C260.16 148.633 260.908 148.416 261.28 147.941C261.722 147.458 261.858 146.822 261.845 146.45C261.845 147.69 260.839 148.695 259.598 148.695C258.357 148.695 257.351 147.69 257.351 146.45Z" fill="#19185B"/>
<g opacity="0.25">
<path opacity="0.25" d="M176.36 38.6603C177.714 43.8272 168.234 46.5377 156.47 49.6159C144.706 52.6941 135.113 54.9743 133.759 49.8074C132.405 44.6405 140.844 37.9566 152.608 34.8784C164.372 31.8 175.006 33.4932 176.36 38.6603Z" fill="#F6F6F6"/>
</g>
<path d="M154.332 113.073C156.837 101.824 152.005 91.1787 143.54 89.2965C135.074 87.4142 126.181 95.0076 123.676 106.257C121.171 117.506 126.003 128.151 134.468 130.033C142.933 131.916 151.827 124.322 154.332 113.073Z" fill="#19185B"/>
<path d="M142.674 94.0557C139.823 94.6676 138.136 98.3584 138.907 102.299C139.678 106.24 142.614 108.938 145.465 108.327C148.317 107.715 150.003 104.024 149.233 100.083C148.462 96.1424 145.526 93.4437 142.674 94.0557Z" fill="white"/>
<path d="M130.269 117.089C128.868 117.76 128.426 119.873 129.281 121.807C130.136 123.741 131.965 124.765 133.366 124.094C134.767 123.422 135.209 121.31 134.354 119.376C133.499 117.441 131.67 116.418 130.269 117.089Z" fill="#B199C5"/>
<path d="M214.205 89.3804C222.607 87.2276 231.615 94.5627 234.323 105.764C237.032 116.964 232.415 127.79 224.013 129.943C215.61 132.095 206.602 124.76 203.894 113.559C201.186 102.358 205.802 91.533 214.205 89.3804Z" fill="#19185B"/>
<path d="M215.442 94.0563C218.294 94.6682 219.98 98.3591 219.21 102.3C218.439 106.241 215.503 108.939 212.651 108.327C209.8 107.715 208.113 104.025 208.884 100.084C209.654 96.143 212.591 93.4443 215.442 94.0563Z" fill="white"/>
<path d="M227.848 117.089C229.249 117.761 229.691 119.873 228.836 121.807C227.981 123.742 226.152 124.765 224.751 124.094C223.35 123.423 222.908 121.31 223.763 119.376C224.618 117.442 226.447 116.418 227.848 117.089Z" fill="#B199C5"/>
<path d="M102.311 267.69C101.649 267.69 101.011 267.322 100.698 266.688C97.2021 259.611 87.2132 261.044 87.1115 261.058C86.1299 261.208 85.2139 260.536 85.0625 259.557C84.9116 258.578 85.5799 257.662 86.5595 257.509C87.0752 257.429 99.2511 255.642 103.922 265.098C104.361 265.988 103.995 267.065 103.105 267.504C102.849 267.63 102.578 267.69 102.311 267.69Z" fill="#19185B"/>
</g>
<defs>
<clipPath id="clip0_1:18019">
<rect width="355" height="610" fill="white"/>
</clipPath>
</defs>
</svg>
