<svg width="616" height="738" viewBox="0 0 616 738" fill="none" xmlns="http://www.w3.org/2000/svg">
<g clip-path="url(#clip0_1:16646)">
<path d="M308 732.223C475.437 732.223 611.172 596.169 611.172 428.338C611.172 260.507 475.437 124.453 308 124.453C140.562 124.453 4.82715 260.507 4.82715 428.338C4.82715 596.169 140.562 732.223 308 732.223Z" fill="#CECBD3"/>
<g opacity="0.6">
<path opacity="0.6" d="M604.25 493.227C606.23 479.206 607.256 464.883 607.256 450.317C607.256 282.488 471.513 146.427 304.078 146.427C158.885 146.427 37.5175 248.748 7.83936 385.377C28.6466 237.896 155.108 124.458 308 124.458C475.436 124.458 611.178 260.507 611.178 428.336C611.178 450.607 608.788 472.31 604.25 493.227Z" fill="white"/>
</g>
<g opacity="0.25">
<path opacity="0.25" d="M610.201 447.91C589.176 595.149 462.824 708.334 310.113 708.334C142.677 708.334 6.93457 572.273 6.93457 404.443C6.93457 399.338 7.05526 394.257 7.30872 389.201C10.8812 361.352 18.2193 334.677 28.7919 309.708C28.4177 315.889 28.2246 322.108 28.2246 328.386C28.2246 496.215 163.967 632.277 331.403 632.277C456.5 632.277 563.904 556.316 610.201 447.91Z" fill="#200656"/>
</g>
<path d="M308 737.062C225.73 737.062 148.385 704.949 90.2112 646.639C32.0374 588.328 0 510.801 0 428.338C0 345.875 32.0377 268.348 90.2114 210.038C148.385 151.727 225.731 119.614 308 119.614C390.27 119.614 467.615 151.727 525.789 210.038C583.963 268.348 616 345.875 616 428.338C616 510.801 583.963 588.328 525.789 646.639C467.615 704.949 390.27 737.062 308 737.062ZM308 129.293C143.493 129.293 9.65535 263.444 9.65535 428.338C9.65535 593.232 143.493 727.384 308 727.384C472.507 727.384 606.345 593.232 606.345 428.338C606.345 263.444 472.508 129.293 308 129.293Z" fill="#200656"/>
<g opacity="0.6">
<path opacity="0.6" d="M480.244 617.167C505.093 602.786 517.577 577.83 508.128 561.426C498.679 545.022 470.875 543.382 446.026 557.763C421.177 572.143 408.693 597.099 418.142 613.503C427.59 629.907 455.395 631.547 480.244 617.167Z" fill="white"/>
</g>
<path d="M480.242 609.505C505.091 595.124 517.575 570.168 508.126 553.764C498.677 537.36 470.873 535.72 446.024 550.1C421.175 564.481 408.691 589.437 418.14 605.841C427.589 622.245 455.393 623.885 480.242 609.505Z" fill="#B1B2C4"/>
<g opacity="0.3">
<g opacity="0.3">
<path opacity="0.3" d="M510.461 573.12C509.942 571.16 509.17 569.273 508.144 567.495C498.694 551.09 470.886 549.445 446.036 563.829C429.791 573.217 418.844 587.129 415.827 600.219C411.579 584.141 423.889 562.922 446.036 550.111C470.886 535.739 498.694 537.372 508.144 553.776C511.415 559.462 512.054 566.176 510.461 573.12Z" fill="#8888B5"/>
</g>
</g>
<path d="M415.122 596.264C414.021 591.033 414.629 585.401 416.293 580.198C418.024 574.996 420.679 570.105 423.969 565.716C430.52 556.876 439.394 549.945 449.158 545.013C458.954 540.152 469.971 537.318 481.041 537.972C486.55 538.284 492.08 539.588 497.002 542.166C501.878 544.769 506.079 548.824 508.14 553.778C504.905 549.526 500.551 546.548 495.795 544.879C493.43 544.006 490.964 543.433 488.472 543.105C485.979 542.776 483.463 542.61 480.943 542.691C470.853 543.016 460.919 545.924 451.836 550.431C442.767 554.999 434.401 561.076 427.614 568.677C424.263 572.501 421.273 576.684 419.03 581.294C416.742 585.885 415.365 590.932 415.122 596.264Z" fill="#200656"/>
<g opacity="0.6">
<path opacity="0.6" d="M508.133 327.353C522.192 320.449 526.255 299.846 517.208 281.334C508.161 262.821 489.429 253.41 475.37 260.314C461.31 267.217 457.247 287.821 466.295 306.333C475.342 324.845 494.074 334.256 508.133 327.353Z" fill="white"/>
</g>
<path d="M506.927 321.707C520.986 314.803 525.049 294.2 516.002 275.688C506.955 257.175 488.223 247.764 474.164 254.668C460.104 261.571 456.041 282.175 465.089 300.687C474.136 319.199 492.867 328.61 506.927 321.707Z" fill="#B1B2C4"/>
<g opacity="0.3">
<g opacity="0.3">
<path opacity="0.3" d="M520.068 287.738C510.593 270.995 492.984 262.805 479.624 269.374C468.58 274.793 463.704 288.657 466.505 303.319C466.022 302.46 465.551 301.577 465.117 300.682C456.065 282.161 460.132 261.559 474.193 254.651C488.241 247.755 506.985 257.167 516.025 275.676C517.967 279.657 519.307 283.721 520.068 287.738Z" fill="#8888B5"/>
</g>
</g>
<path d="M465.112 300.678C460.247 293.451 457.582 284.397 458.31 275.197C458.69 270.615 459.98 265.988 462.404 261.847C464.805 257.709 468.45 254.129 472.859 251.941C473.997 251.487 475.117 250.969 476.282 250.602L478.06 250.139C478.651 249.978 479.244 249.828 479.853 249.781C481.063 249.653 482.272 249.44 483.481 249.506L485.291 249.523C485.893 249.541 486.482 249.655 487.077 249.725C491.828 250.346 496.269 252.153 500.114 254.664C507.816 259.725 513.318 267.39 516.027 275.677C511.061 268.536 504.963 262.465 497.73 258.777C494.137 256.948 490.304 255.726 486.475 255.43C482.655 255.121 478.862 255.739 475.513 257.372C472.171 259.021 469.359 261.645 467.259 264.86C465.147 268.075 463.753 271.858 462.996 275.827C461.467 283.818 462.52 292.371 465.112 300.678Z" fill="#200656"/>
<g opacity="0.6">
<path opacity="0.6" d="M561.856 366.537C567.744 366.537 572.517 361.347 572.517 354.944C572.517 348.541 567.744 343.35 561.856 343.35C555.968 343.35 551.194 348.541 551.194 354.944C551.194 361.347 555.968 366.537 561.856 366.537Z" fill="white"/>
</g>
<path d="M560.85 363.311C566.738 363.311 571.511 358.121 571.511 351.718C571.511 345.315 566.738 340.124 560.85 340.124C554.962 340.124 550.189 345.315 550.189 351.718C550.189 358.121 554.962 363.311 560.85 363.311Z" fill="#B1B2C4"/>
<g opacity="0.6">
<path opacity="0.6" d="M542.645 472.037C549.755 472.037 555.519 463.868 555.519 453.79C555.519 443.713 549.755 435.543 542.645 435.543C535.535 435.543 529.771 443.713 529.771 453.79C529.771 463.868 535.535 472.037 542.645 472.037Z" fill="white"/>
</g>
<path d="M540.533 468.56C547.643 468.56 553.407 460.39 553.407 450.313C553.407 440.235 547.643 432.065 540.533 432.065C533.423 432.065 527.66 440.235 527.66 450.313C527.66 460.39 533.423 468.56 540.533 468.56Z" fill="#B1B2C4"/>
<g opacity="0.6">
<path opacity="0.6" d="M318.56 628.321C331.059 628.321 341.19 621.145 341.19 612.292C341.19 603.439 331.059 596.263 318.56 596.263C306.062 596.263 295.931 603.439 295.931 612.292C295.931 621.145 306.062 628.321 318.56 628.321Z" fill="white"/>
</g>
<path d="M318.56 622.199C331.059 622.199 341.19 615.022 341.19 606.169C341.19 597.317 331.059 590.14 318.56 590.14C306.062 590.14 295.931 597.317 295.931 606.169C295.931 615.022 306.062 622.199 318.56 622.199Z" fill="#B1B2C4"/>
<g opacity="0.6">
<path opacity="0.6" d="M171.166 642.869C185.625 633.292 187.813 611.068 176.054 593.231C164.295 575.394 143.041 568.697 128.582 578.274C114.123 587.851 111.934 610.074 123.693 627.912C135.453 645.749 156.707 652.446 171.166 642.869Z" fill="white"/>
</g>
<path d="M171.167 637.879C185.626 628.302 187.814 606.078 176.055 588.241C164.296 570.403 143.042 563.707 128.583 573.284C114.124 582.86 111.935 605.084 123.694 622.922C135.454 640.759 156.708 647.456 171.167 637.879Z" fill="#B1B2C4"/>
<g opacity="0.3">
<g opacity="0.3">
<path opacity="0.3" d="M181.517 624.619C181.42 616.803 178.934 608.48 173.961 600.932C162.206 583.088 140.952 576.398 126.493 585.967C121.641 589.173 118.177 593.806 116.162 599.214C116.005 588.531 120.265 578.793 128.605 573.264C143.064 563.695 164.318 570.385 176.073 588.229C183.894 600.084 185.547 613.888 181.517 624.619Z" fill="#8888B5"/>
</g>
</g>
<path d="M116.645 592.584C116.761 587.98 118.043 583.297 120.497 579.141C121.742 577.079 123.276 575.159 125.051 573.46C126.824 571.755 128.911 570.384 131.098 569.213C135.522 566.923 140.601 565.935 145.556 566.144C150.528 566.342 155.375 567.698 159.782 569.824C168.613 574.118 175.65 581.493 179.943 590.034C184.229 598.556 185.795 608.608 183.297 617.543C183.25 612.936 182.588 608.474 181.265 604.25C180.024 600.009 178.108 596.033 175.806 592.364C171.169 585.036 164.721 578.965 157.157 575.268C149.644 571.583 140.816 570.444 133.071 573.521C131.162 574.305 129.285 575.262 127.57 576.492C125.849 577.715 124.293 579.195 122.902 580.848C120.056 584.131 118.072 588.212 116.645 592.584Z" fill="#200656"/>
<g opacity="0.6">
<path opacity="0.6" d="M71.4444 451.693C79.9987 451.693 86.9333 441.237 86.9333 428.338C86.9333 415.439 79.9987 404.983 71.4444 404.983C62.8902 404.983 55.9556 415.439 55.9556 428.338C55.9556 441.237 62.8902 451.693 71.4444 451.693Z" fill="white"/>
</g>
<path d="M68.4273 445.877C76.9816 445.877 83.9162 435.421 83.9162 422.522C83.9162 409.623 76.9816 399.167 68.4273 399.167C59.8731 399.167 52.9385 409.623 52.9385 422.522C52.9385 435.421 59.8731 445.877 68.4273 445.877Z" fill="#B1B2C4"/>
<g opacity="0.6">
<path opacity="0.6" d="M125.61 323.104C134.095 305.416 130.585 286.07 117.769 279.894C104.954 273.717 87.6873 283.05 79.2025 300.739C70.7177 318.428 74.2281 337.774 87.0432 343.95C99.8583 350.126 117.125 340.793 125.61 323.104Z" fill="white"/>
</g>
<path d="M125.611 318.236C134.096 300.547 130.586 281.201 117.771 275.025C104.956 268.849 87.6885 278.182 79.2036 295.871C70.7187 313.559 74.229 332.906 87.0441 339.082C99.8593 345.258 117.126 335.925 125.611 318.236Z" fill="#B1B2C4"/>
<g opacity="0.3">
<g opacity="0.3">
<path opacity="0.3" d="M128.23 311.594C128.532 300.489 124.126 290.871 115.774 286.843C102.957 280.673 85.686 290 77.2013 307.699C76.1513 309.877 75.2944 312.09 74.6064 314.292C74.7754 308.364 76.272 302.025 79.2169 295.868C87.7015 278.181 104.973 268.854 117.79 275.023C129.003 280.431 133.094 295.94 128.23 311.594Z" fill="#8888B5"/>
</g>
</g>
<path d="M79.2168 295.871C80.1821 292.448 81.6912 289.165 83.5801 286.059C85.5408 283.008 87.924 280.178 90.7125 277.716C93.4893 275.243 96.7659 273.251 100.353 271.868C103.94 270.502 107.929 269.841 111.926 270.285C115.913 270.742 119.809 272.338 122.936 274.863C126.021 277.442 128.318 280.794 129.692 284.359C132.397 291.545 132.046 299.275 129.613 305.932C129.58 298.857 128.419 291.989 125.381 286.346C123.847 283.556 121.83 281.166 119.434 279.402C118.186 278.603 116.947 277.764 115.526 277.338L114.499 276.934C114.147 276.828 113.781 276.763 113.425 276.673L112.352 276.412C111.987 276.354 111.613 276.34 111.246 276.294C105.325 275.627 99.0148 277.84 93.5885 281.478C90.8607 283.31 88.3112 285.486 85.8956 287.887C83.4934 290.311 81.3791 293.036 79.2168 295.871Z" fill="#200656"/>
<path d="M177.803 256.653H177.255V440.811H177.803V256.653Z" fill="white"/>
<path d="M179.64 256.653H177.803V440.811H179.64V256.653Z" fill="white"/>
<path d="M181.479 256.653H179.641V440.811H181.479V256.653Z" fill="#FEFEFE"/>
<path d="M183.316 256.653H181.478V440.811H183.316V256.653Z" fill="#FDFDFE"/>
<path d="M185.154 256.653H183.316V440.811H185.154V256.653Z" fill="#FCFCFD"/>
<path d="M186.99 256.653H185.153V440.811H186.99V256.653Z" fill="#FCFBFD"/>
<path d="M188.827 256.653H186.99V440.811H188.827V256.653Z" fill="#FBFAFC"/>
<path d="M190.667 256.653H188.83V440.811H190.667V256.653Z" fill="#FAF9FB"/>
<path d="M192.504 256.653H190.667V440.811H192.504V256.653Z" fill="#F9F8FB"/>
<path d="M194.342 256.653H192.504V440.811H194.342V256.653Z" fill="#F8F7FA"/>
<path d="M196.179 256.653H194.341V440.811H196.179V256.653Z" fill="#F7F6FA"/>
<path d="M198.017 256.653H196.18V440.811H198.017V256.653Z" fill="#F7F5F9"/>
<path d="M199.854 256.653H198.017V440.811H199.854V256.653Z" fill="#F6F4F8"/>
<path d="M201.692 256.653H199.854V440.811H201.692V256.653Z" fill="#F5F3F8"/>
<path d="M203.53 256.653H201.692V440.811H203.53V256.653Z" fill="#F4F2F7"/>
<path d="M205.367 256.653H203.529V440.811H205.367V256.653Z" fill="#F3F1F7"/>
<path d="M207.204 256.653H205.367V440.811H207.204V256.653Z" fill="#F2F0F6"/>
<path d="M209.043 256.653H207.206V440.811H209.043V256.653Z" fill="#F1EFF5"/>
<path d="M210.881 256.653H209.043V440.811H210.881V256.653Z" fill="#F1EEF5"/>
<path d="M212.718 256.653H210.88V440.811H212.718V256.653Z" fill="#F0EDF4"/>
<path d="M214.555 256.653H212.718V440.811H214.555V256.653Z" fill="#EFECF4"/>
<path d="M216.393 256.653H214.555V440.811H216.393V256.653Z" fill="#EEEBF3"/>
<path d="M218.231 256.653H216.393V440.811H218.231V256.653Z" fill="#EDEAF2"/>
<path d="M220.069 256.653H218.231V440.811H220.069V256.653Z" fill="#ECE9F2"/>
<path d="M221.906 256.653H220.068V440.811H221.906V256.653Z" fill="#ECE8F1"/>
<path d="M223.743 256.653H221.906V440.811H223.743V256.653Z" fill="#EBE7F1"/>
<path d="M225.581 256.653H223.743V440.811H225.581V256.653Z" fill="#EAE6F0"/>
<path d="M227.419 256.653H225.582V440.811H227.419V256.653Z" fill="#E9E5EF"/>
<path d="M229.257 256.653H227.419V440.811H229.257V256.653Z" fill="#E8E4EF"/>
<path d="M231.094 256.653H229.256V440.811H231.094V256.653Z" fill="#E7E3EE"/>
<path d="M232.932 256.653H231.094V440.811H232.932V256.653Z" fill="#E7E2EE"/>
<path d="M234.77 256.653H232.933V440.811H234.77V256.653Z" fill="#E6E0ED"/>
<path d="M236.608 256.653H234.77V440.811H236.608V256.653Z" fill="#E5DFEC"/>
<path d="M238.445 256.653H236.607V440.811H238.445V256.653Z" fill="#E4DEEC"/>
<path d="M240.282 256.653H238.445V440.811H240.282V256.653Z" fill="#E3DDEB"/>
<path d="M242.12 256.653H240.282V440.811H242.12V256.653Z" fill="#E2DCEA"/>
<path d="M243.957 256.653H242.12V440.811H243.957V256.653Z" fill="#E1DBEA"/>
<path d="M245.795 256.653H243.957V440.811H245.795V256.653Z" fill="#E1DAE9"/>
<path d="M247.634 256.653H245.796V440.811H247.634V256.653Z" fill="#E0D9E9"/>
<path d="M249.471 256.653H247.633V440.811H249.471V256.653Z" fill="#DFD8E8"/>
<path d="M251.307 256.653H249.47V440.811H251.307V256.653Z" fill="#DED7E7"/>
<path d="M253.146 256.653H251.309V440.811H253.146V256.653Z" fill="#DDD6E7"/>
<path d="M254.984 256.653H253.146V440.811H254.984V256.653Z" fill="#DCD5E6"/>
<path d="M256.821 256.653H254.983V440.811H256.821V256.653Z" fill="#DCD4E6"/>
<path d="M258.658 256.653H256.821V440.811H258.658V256.653Z" fill="#DBD3E5"/>
<path d="M260.495 256.653H258.658V440.811H260.495V256.653Z" fill="#DAD2E4"/>
<path d="M262.333 256.653H260.496V440.811H262.333V256.653Z" fill="#D9D1E4"/>
<path d="M264.171 256.653H262.333V440.811H264.171V256.653Z" fill="#D8D0E3"/>
<path d="M266.01 256.653H264.172V440.811H266.01V256.653Z" fill="#D7CFE3"/>
<path d="M267.846 256.653H266.009V440.811H267.846V256.653Z" fill="#D6CEE2"/>
<path d="M269.684 256.653H267.846V440.811H269.684V256.653Z" fill="#D6CDE1"/>
<path d="M271.522 256.653H269.684V440.811H271.522V256.653Z" fill="#D5CCE1"/>
<path d="M273.36 256.653H271.522V440.811H273.36V256.653Z" fill="#D4CBE0"/>
<path d="M275.197 256.653H273.359V440.811H275.197V256.653Z" fill="#D3CAE0"/>
<path d="M277.035 256.653H275.197V440.811H277.035V256.653Z" fill="#D2C9DF"/>
<path d="M278.872 256.653H277.035V440.811H278.872V256.653Z" fill="#D1C8DE"/>
<path d="M280.71 256.653H278.873V440.811H280.71V256.653Z" fill="#D1C7DE"/>
<path d="M282.547 256.653H280.709V440.811H282.547V256.653Z" fill="#D0C6DD"/>
<path d="M284.386 256.653H282.548V440.811H284.386V256.653Z" fill="#CFC5DD"/>
<path d="M286.223 256.653H284.386V440.811H286.223V256.653Z" fill="#CEC4DC"/>
<path d="M287.226 256.653H286.223V440.811H287.226V256.653Z" fill="#CEC4DC"/>
<path d="M240.859 429.231C229.005 429.231 218.928 425.369 211.202 417.759C184.948 391.897 175.092 310.617 174.472 283.935C173.976 262.581 193.562 254.578 203.99 253.329C204.498 253.265 205.011 253.324 205.491 253.494C211.731 255.689 243.115 267.026 248.259 274.68C251.733 279.847 266.711 328.446 271.218 343.217C290.492 406.377 289.699 409.03 289.401 410.03C288.165 414.16 272.476 423.119 257.503 426.973C251.646 428.482 246.079 429.231 240.859 429.231ZM204.055 260.084C199.946 260.772 180.713 264.995 181.15 283.779C181.728 308.695 191.403 388.869 215.884 412.983C222.919 419.915 232.296 423.102 243.719 422.447C261.729 421.422 278.992 411.342 282.766 407.987C280.456 394.169 246.604 284.365 242.719 278.418C239.897 274.221 218.689 265.285 204.055 260.084ZM282.884 408.917C282.884 408.917 282.884 408.917 282.884 408.918V408.917Z" fill="#200656"/>
<path d="M190.5 535.682C171.131 577.108 114.922 565.326 114.922 565.326L119.597 551.937C95.9403 560.787 70.9747 561.671 45.4614 559.301C46.1561 558.136 46.8774 556.984 47.6122 555.846C59.5005 537.276 75.4229 522.293 97.1026 512.439L89.542 508.007C115.349 479.421 157.439 467.143 184.382 490.132L188.991 524.422L190.5 535.682Z" fill="#FF0000"/>
<path d="M180.726 499.632C155.27 489.235 137.404 496.432 123.044 510.156L128.888 513.684C128.888 513.684 113.527 526.39 104.176 535.261H136.235L133.397 543.127C133.397 543.127 162.864 551.786 185.282 525.113" fill="#FFB000"/>
<path d="M136.903 522.504C136.903 522.504 152.766 505.698 170.965 508.011L171.8 519.579C171.8 519.579 155.938 528.325 136.903 522.504Z" fill="#FFF200"/>
<path d="M132.585 570.228C122.145 570.228 114.665 568.697 114.236 568.606C113.294 568.41 112.483 567.816 112.011 566.976C111.538 566.137 111.448 565.134 111.767 564.225L114.172 557.335C94.5126 563.471 72.3613 565.157 45.1514 562.638C44.007 562.533 42.9968 561.844 42.4783 560.816C41.9598 559.79 42.0044 558.566 42.5961 557.579C54.7997 537.254 70.354 522.345 90.0159 512.166L87.8531 510.9C86.9844 510.392 86.3903 509.518 86.2373 508.521C86.084 507.525 86.3869 506.511 87.0623 505.763C112.905 477.151 157.18 462.528 186.544 487.578C187.947 488.777 188.117 490.89 186.922 492.298C185.724 493.705 183.617 493.871 182.214 492.677C156.959 471.127 118.829 482.994 94.8566 507.248L98.7921 509.553C99.8706 510.184 100.507 511.365 100.443 512.615C100.379 513.865 99.6232 514.976 98.4858 515.492C78.9441 524.366 63.4333 537.785 51.2108 556.423C77.9127 558.374 99.385 555.922 118.426 548.804C119.636 548.353 121.005 548.641 121.93 549.55C122.855 550.458 123.172 551.822 122.744 553.047L119.392 562.648C131.961 564.279 172.289 566.739 187.476 534.259C188.259 532.584 190.249 531.863 191.917 532.647C193.587 533.433 194.307 535.425 193.525 537.099C185.1 555.118 168.63 566.271 145.894 569.356C141.171 569.996 136.652 570.228 132.585 570.228Z" fill="#200656"/>
<path d="M288.68 552.552C288.68 552.552 286.356 560.679 281.12 570.145C275.656 579.986 267.067 591.287 254.658 596.401C234.114 604.876 211.446 601.65 198.301 598.423C194.201 597.419 193.6 591.836 197.366 589.948L219.433 578.875C221.958 577.603 224.068 575.621 225.511 573.171L231.656 562.688L241.928 545.188L288.68 552.552Z" fill="#FF0000"/>
<g opacity="0.3">
<path opacity="0.3" d="M288.68 552.552C288.68 552.552 288.68 552.579 288.667 552.619C288.653 552.646 288.64 552.673 288.64 552.7C288.627 552.753 288.6 552.834 288.573 552.914C288.546 552.981 288.533 553.048 288.506 553.128C288.466 553.249 288.426 553.396 288.373 553.57C288.266 553.891 288.132 554.293 287.972 554.762C287.892 554.989 287.812 555.244 287.705 555.512C287.611 555.779 287.518 556.061 287.411 556.355C286.209 559.609 284.151 564.656 281.119 570.146C270.713 569.434 260.547 568.247 250.727 566.592C243.782 565.423 236.843 568.654 233.273 574.738L231.308 578.085C229.865 580.536 227.755 582.517 225.23 583.789L203.163 594.862C201.44 595.719 200.638 597.352 200.652 598.972C199.837 598.798 199.049 598.611 198.301 598.423C194.2 597.419 193.599 591.836 197.366 589.948L219.433 578.875C221.957 577.604 224.068 575.622 225.51 573.172L231.655 562.688L241.927 545.188L288.68 552.552Z" fill="#200656"/>
</g>
<path d="M225.195 605.129C214.064 605.129 204.133 603.303 197.509 601.68C194.274 600.888 191.941 598.23 191.566 594.908C191.191 591.575 192.882 588.451 195.873 586.95L217.939 575.876C219.898 574.892 221.52 573.373 222.63 571.48L239.05 543.494C239.984 541.901 242.031 541.365 243.621 542.306C245.211 543.243 245.742 545.294 244.806 546.887L228.387 574.874C226.622 577.883 224.044 580.299 220.93 581.862L198.862 592.936C198.207 593.265 198.168 593.843 198.203 594.158C198.246 594.533 198.434 595.015 199.094 595.177C210.758 598.034 233.318 601.587 253.387 593.309C275.916 584.014 285.378 551.952 285.472 551.629C285.982 549.854 287.83 548.827 289.605 549.34C291.377 549.851 292.4 551.704 291.89 553.479C291.477 554.923 281.467 588.963 255.928 599.5C245.715 603.714 234.989 605.129 225.195 605.129Z" fill="#200656"/>
<path d="M258.171 420.937L226.954 449.228L223.067 452.749L194.041 438.343C191.503 437.084 188.657 436.589 185.853 436.91L161.341 439.749C161.034 439.789 160.74 439.789 160.46 439.762C156.813 439.521 154.809 434.996 157.481 432.13C166.724 422.236 183.929 407.092 205.756 402.915C231.603 397.961 258.171 420.937 258.171 420.937Z" fill="#FF0000"/>
<g opacity="0.3">
<path opacity="0.3" d="M226.953 449.228L223.066 452.749L194.04 438.342C191.502 437.084 188.656 436.588 185.852 436.91L161.34 439.748C161.033 439.788 160.739 439.788 160.458 439.762L161.674 437.244C161.674 437.244 187.602 427.377 193.172 427.564C198.742 427.751 220.555 437.352 232.911 431.326C240.017 427.859 233.645 439.079 226.953 449.228Z" fill="#200656"/>
</g>
<g opacity="0.6">
<path opacity="0.6" d="M258.171 420.937L253.99 424.726C245.508 418.58 225.431 406.169 205.755 409.931C184.249 414.055 167.231 428.823 157.894 438.717C156.064 437.178 155.543 434.219 157.48 432.13C166.724 422.236 183.928 407.092 205.755 402.915C231.603 397.961 258.171 420.937 258.171 420.937Z" fill="white"/>
</g>
<path d="M223.065 456.101C222.566 456.101 222.062 455.989 221.584 455.752L192.559 441.341C190.594 440.365 188.401 439.982 186.233 440.237L161.719 443.075C158.398 443.452 155.277 441.772 153.769 438.778C152.269 435.794 152.768 432.29 155.043 429.851C163.799 420.466 181.947 404.061 205.123 399.622C232.246 394.425 259.219 417.423 260.353 418.405C261.748 419.612 261.904 421.724 260.7 423.124C259.495 424.524 257.39 424.682 255.99 423.474C255.737 423.257 230.309 401.62 206.377 406.198C185.06 410.279 168.121 425.634 159.921 434.423C159.458 434.92 159.563 435.427 159.733 435.765C159.876 436.047 160.234 436.51 160.953 436.424L185.466 433.586C188.921 433.184 192.401 433.792 195.523 435.342L224.55 449.754C226.202 450.575 226.877 452.583 226.059 454.239C225.477 455.418 224.294 456.101 223.065 456.101Z" fill="#200656"/>
<path d="M220.636 545.188L198.062 541.077C195.23 540.555 192.732 538.935 191.102 536.579C186.534 529.951 183.742 521.958 182.206 513.683C179.962 501.566 180.416 488.833 181.939 478.885C182.42 475.819 184.21 473.128 186.828 471.467L205.235 459.779L216.028 519.601L220.636 545.188Z" fill="#178BFF"/>
<g opacity="0.3">
<path opacity="0.3" d="M220.635 545.188L198.061 541.078C195.229 540.556 192.731 538.935 191.101 536.579C186.533 529.951 183.741 521.958 182.205 513.684C185.999 516.455 194.815 520.78 212.153 519.655C213.542 519.562 214.838 519.548 216.027 519.602L220.635 545.188Z" fill="#200656"/>
</g>
<path d="M491.374 433.999L345.216 398.826H491.374V433.999Z" fill="#CEC4DC"/>
<path d="M491.373 436.772L333.689 398.826H345.216L491.373 433.999V436.772Z" fill="#CEC4DC"/>
<path d="M491.374 439.546L322.164 398.826H333.69L491.373 436.772L491.374 439.546Z" fill="#CEC4DC"/>
<path d="M491.375 442.32L310.639 398.826H322.164L491.374 439.546L491.375 442.32Z" fill="#CEC4DC"/>
<path d="M491.375 445.093L299.113 398.826H310.639L491.375 442.32L491.375 445.093Z" fill="#CEC4DC"/>
<path d="M491.374 447.867L287.586 398.826H299.112L491.374 445.093V447.867Z" fill="#CEC4DC"/>
<path d="M491.377 449.37L491.13 450.582L276.063 398.826H287.589L491.377 447.867V449.37Z" fill="#CEC4DC"/>
<path d="M491.127 450.582L490.589 453.226L264.534 398.826H276.06L491.127 450.582Z" fill="#CEC4DC"/>
<path d="M490.591 453.226L490.053 455.87L253.011 398.826H264.537L490.591 453.226Z" fill="#CEC4DC"/>
<path d="M490.053 455.87L489.513 458.514L241.484 398.826H253.011L490.053 455.87Z" fill="#CEC4DC"/>
<path d="M489.513 458.514L488.974 461.158L229.957 398.826H241.484L489.513 458.514Z" fill="#CEC4DC"/>
<path d="M488.974 461.158L488.436 463.802L225.28 400.474L225.616 398.826H229.957L488.974 461.158Z" fill="#CEC4DC"/>
<path d="M225.276 400.455L224.737 403.099L487.904 466.416L488.442 463.771L225.276 400.455Z" fill="#CEC4DC"/>
<path d="M224.737 403.092L224.199 405.736L487.365 469.053L487.903 466.409L224.737 403.092Z" fill="#CEC4DC"/>
<path d="M224.198 405.739L223.66 408.383L486.826 471.7L487.365 469.056L224.198 405.739Z" fill="#CEC4DC"/>
<path d="M223.659 408.385L223.121 411.03L486.287 474.346L486.826 471.702L223.659 408.385Z" fill="#CEC4DC"/>
<path d="M223.122 411.025L222.583 413.67L485.75 476.986L486.288 474.342L223.122 411.025Z" fill="#CEC4DC"/>
<path d="M222.583 413.67L222.044 416.314L485.211 479.63L485.749 476.986L222.583 413.67Z" fill="#CEC4DC"/>
<path d="M222.046 416.319L221.507 418.963L484.674 482.28L485.212 479.636L222.046 416.319Z" fill="#CEC4DC"/>
<path d="M221.507 418.956L220.968 421.601L484.135 484.917L484.673 482.273L221.507 418.956Z" fill="#CEC4DC"/>
<path d="M220.969 421.606L220.431 424.25L483.598 487.567L484.136 484.923L220.969 421.606Z" fill="#CEC4DC"/>
<path d="M220.43 424.246L219.892 426.891L483.058 490.207L483.597 487.563L220.43 424.246Z" fill="#CEC4DC"/>
<path d="M219.89 426.887L219.351 429.531L482.518 492.848L483.056 490.203L219.89 426.887Z" fill="#CEC4DC"/>
<path d="M219.354 429.536L218.816 432.181L481.982 495.497L482.521 492.853L219.354 429.536Z" fill="#CEC4DC"/>
<path d="M218.813 432.177L218.275 434.821L481.442 498.138L481.98 495.493L218.813 432.177Z" fill="#CEC4DC"/>
<path d="M218.276 434.82L217.738 437.465L480.904 500.781L481.443 498.137L218.276 434.82Z" fill="#CEC4DC"/>
<path d="M217.739 437.47L217.201 440.115L480.367 503.431L480.906 500.787L217.739 437.47Z" fill="#CEC4DC"/>
<path d="M217.198 440.114L216.66 442.758L479.827 506.074L480.365 503.43L217.198 440.114Z" fill="#CEC4DC"/>
<path d="M216.665 442.757L216.126 445.402L479.292 508.718L479.831 506.074L216.665 442.757Z" fill="#CEC4DC"/>
<path d="M216.122 445.398L215.584 448.042L468.499 508.712L479.288 508.714L216.122 445.398Z" fill="#CEC4DC"/>
<path d="M215.585 448.044L215.047 450.689L467.962 511.358L468.5 508.714L215.585 448.044Z" fill="#CEC4DC"/>
<path d="M215.048 450.688L214.509 453.332L465 513.49L467.962 511.357L215.048 450.688Z" fill="#CEC4DC"/>
<path d="M214.507 453.331L213.969 455.975L458.46 509.253L458.998 506.609L214.507 453.331Z" fill="#CEC4DC"/>
<path d="M213.969 455.975L213.43 458.619L457.92 511.897L458.459 509.253L213.969 455.975Z" fill="#CEC4DC"/>
<path d="M213.432 458.621L212.894 461.266L457.385 514.544L457.923 511.899L213.432 458.621Z" fill="#CEC4DC"/>
<path d="M212.894 461.262L212.355 463.906L456.846 517.184L457.384 514.54L212.894 461.262Z" fill="#CEC4DC"/>
<path d="M456.837 517.223L451.923 492.337L211.861 466.587V466.365L212.357 463.932L456.837 517.223Z" fill="#CEC4DC"/>
<path d="M451.923 492.336L451.384 494.98L211.861 469.359V466.585L451.923 492.336Z" fill="#CEC4DC"/>
<path d="M451.384 494.98L450.846 497.625L211.861 472.134V469.36L451.384 494.98Z" fill="#CEC4DC"/>
<path d="M450.846 497.626L450.307 500.27L211.861 474.909V472.134L450.846 497.626Z" fill="#CEC4DC"/>
<path d="M450.307 500.268L449.769 502.912L211.861 477.68V474.906L450.307 500.268Z" fill="#CEC4DC"/>
<path d="M449.769 502.917L449.23 505.561L211.861 480.458V477.684L449.769 502.917Z" fill="#CEC4DC"/>
<path d="M449.23 505.558L448.692 508.202L211.861 483.229V480.456L449.23 505.558Z" fill="#CEC4DC"/>
<path d="M448.692 508.2L448.153 510.844L211.861 486.001V483.227L448.692 508.2Z" fill="#CEC4DC"/>
<path d="M448.153 510.845L447.615 513.49L211.861 488.776V486.002L448.153 510.845Z" fill="#CEC4DC"/>
<path d="M447.615 513.491L447.076 516.135L211.861 491.55V488.776L447.615 513.491Z" fill="#CEC4DC"/>
<path d="M447.076 516.135L446.538 518.78L211.861 494.325V491.551L447.076 516.135Z" fill="#CEC4DC"/>
<path d="M446.538 518.78L446 521.425L211.861 497.099V494.325L446.538 518.78Z" fill="#CEC4DC"/>
<path d="M446 521.422L445.461 524.067L211.861 499.871V497.097L446 521.422Z" fill="#CEC4DC"/>
<path d="M445.461 524.067L445.446 524.143H434.25L211.861 502.645V499.871L445.461 524.067Z" fill="#CEC4DC"/>
<path d="M422.724 524.141L211.861 505.417V502.643L434.25 524.141H422.724Z" fill="#CEC4DC"/>
<path d="M408.5 541.565L211.861 508.195V505.421L422.724 524.145L408.5 541.565Z" fill="#CEC4DC"/>
<path d="M396.974 541.563L211.861 510.966V508.193L408.5 541.563H396.974Z" fill="#CEC4DC"/>
<path d="M389.5 544.062L211.861 513.915V510.967L396.974 541.564L389.5 544.062Z" fill="#CEC4DC"/>
<path d="M375.618 548.123L215 523.421V520.473L387.865 548.123H375.618Z" fill="#CEC4DC"/>
<path d="M367.5 553.062L211.861 519.812V516.864L384.727 545.562L367.5 553.062Z" fill="#CEC4DC"/>
<path d="M355.252 553.06L211.861 522.757V519.81L367.5 553.06H355.252Z" fill="#CEC4DC"/>
<path d="M343.005 553.061L211.861 525.706V522.757L355.252 553.06L343.005 553.061Z" fill="#CEC4DC"/>
<path d="M341.5 556.562L211.861 528.654V525.707L343.005 553.061L341.5 556.562Z" fill="#CEC4DC"/>
<path d="M328.5 556.562L211.861 531.599V528.652L336.991 555.062L328.5 556.562Z" fill="#CEC4DC"/>
<path d="M211.861 531.597L324.5 556.562L211.861 561.709V531.597Z" fill="#CEC4DC"/>
<g opacity="0.3">
<path opacity="0.3" d="M349.699 437.874C350.006 443.497 349.325 448.786 347.909 453.298C343.234 468.2 321.033 464.853 312.511 456.819C303.989 448.786 286.183 432.88 286.183 432.88C273.96 430.537 263.141 427.296 253.683 422.677C253.483 422.583 253.269 422.476 253.069 422.369C275.122 411.792 300.542 403.624 327.084 398.108C337.931 411.015 349.205 428.729 349.699 437.86V437.874H349.699Z" fill="#200656"/>
</g>
<path d="M537.068 438.852C527.958 455.869 516.11 470.986 502.204 484.241H502.191C462.705 453.567 482.421 398.725 482.421 398.725C503.78 404.576 521.947 413.359 534.864 425.289C538.617 428.756 539.486 434.34 537.068 438.852Z" fill="#FF0000"/>
<g opacity="0.6">
<path opacity="0.6" d="M537.067 438.853C536.506 439.91 535.918 440.968 535.33 441.999C536.011 438.29 534.836 434.407 531.964 431.756C519.248 420.001 501.428 411.311 480.483 405.473C481.512 401.229 482.42 398.725 482.42 398.725C503.779 404.576 521.946 413.36 534.863 425.289C538.616 428.757 539.484 434.34 537.067 438.853Z" fill="white"/>
</g>
<path d="M292.939 561.601C268.838 561.601 245.433 559.118 224.131 554.084C223.452 553.923 222.84 553.554 222.382 553.027C203.005 530.78 197.799 486.11 202.671 453.482C202.78 452.758 203.121 452.089 203.645 451.578C220.988 434.665 246.487 419.801 277.385 408.593C306.339 398.091 339.364 390.952 372.888 387.947C445.043 381.487 506.433 394.524 537.121 422.831C541.976 427.309 543.166 434.548 540.017 440.432C514.524 488.056 464.631 525.419 399.527 545.637C365.492 556.207 328.46 561.601 292.939 561.601ZM226.725 547.817C333.581 572.581 482.234 534.225 534.131 437.266C535.84 434.076 535.21 430.164 532.598 427.757C470.504 370.481 280.77 386.984 209.115 455.592C204.92 485.478 209.651 527.266 226.725 547.817Z" fill="#200656"/>
<path d="M502.2 487.588C501.486 487.588 500.766 487.36 500.158 486.888C483.163 473.696 474.175 454.021 474.164 429.99C474.157 412.065 479.076 398.177 479.284 397.595C479.91 395.855 481.823 394.954 483.558 395.579C485.293 396.207 486.193 398.124 485.569 399.863C485.336 400.515 467.222 452.855 504.248 481.595C505.706 482.727 505.972 484.829 504.843 486.291C504.185 487.143 503.198 487.588 502.2 487.588Z" fill="#200656"/>
<path d="M388.863 518.022C414.131 518.022 434.614 497.491 434.614 472.164C434.614 446.838 414.131 426.307 388.863 426.307C363.596 426.307 343.113 446.838 343.113 472.164C343.113 497.491 363.596 518.022 388.863 518.022Z" fill="#178BFF"/>
<g opacity="0.3">
<path opacity="0.3" d="M432.663 485.447C426.986 504.299 409.528 518.022 388.863 518.022C363.59 518.022 343.113 497.497 343.113 472.165C343.113 464.279 345.09 456.861 348.59 450.381C347.321 454.585 346.639 459.044 346.639 463.663C346.639 488.995 367.13 509.521 392.39 509.521C409.795 509.52 424.929 499.786 432.663 485.447Z" fill="#200656"/>
</g>
<g opacity="0.3">
<path opacity="0.3" d="M536.747 419.532C536.667 421.406 536.119 423.281 535.09 424.968C525.059 441.463 512.396 455.897 497.782 468.362H497.769C475.987 486.955 449.888 501.174 421.771 511.359C425.297 506.898 428.019 501.769 429.701 496.184C425.282 504.379 418.44 511.058 410.145 515.287C404.695 517.017 399.188 518.602 393.63 520.043C392.244 520.17 390.847 520.258 389.428 520.258C364.168 520.258 343.678 499.732 343.678 474.4C343.678 469.781 344.359 465.322 345.628 461.118C342.128 467.598 340.151 475.016 340.151 482.902C340.151 502.214 352.058 518.721 368.913 525.481C322.663 533.871 274.878 532.949 234.167 523.851C231.812 523.325 230.984 520.388 232.722 518.712L248.714 503.294L241.767 505.65C241.767 505.65 219.1 511.621 213.142 513.389C210.671 509.118 208.587 504.325 206.864 499.157C209.936 516.468 215.827 532.374 224.897 542.792C309.906 562.875 432.076 543.099 502.19 476.208H502.204C516.109 462.952 527.958 447.836 537.068 430.818C539.004 427.203 538.831 422.893 536.747 419.532Z" fill="#200656"/>
</g>
<g opacity="0.6">
<path opacity="0.6" d="M424.422 501.018C428.282 494.296 430.486 486.504 430.486 478.189C430.486 452.857 410.009 432.331 384.735 432.331C370.389 432.331 357.579 438.945 349.19 449.309C357.085 435.558 371.899 426.306 388.863 426.306C414.136 426.306 434.613 446.832 434.613 472.164C434.613 483.103 430.807 493.132 424.422 501.018Z" fill="white"/>
</g>
<path d="M388.864 521.368C361.795 521.368 339.775 499.296 339.775 472.164C339.775 445.032 361.795 422.958 388.864 422.958C415.932 422.958 437.954 445.032 437.954 472.164C437.954 499.296 415.932 521.368 388.864 521.368ZM388.864 429.652C365.478 429.652 346.453 448.723 346.453 472.164C346.453 495.604 365.478 514.674 388.864 514.674C412.249 514.674 431.275 495.604 431.275 472.164C431.275 448.723 412.249 429.652 388.864 429.652Z" fill="#200656"/>
<path d="M388.862 499.276C403.801 499.276 415.912 487.137 415.912 472.163C415.912 457.189 403.801 445.05 388.862 445.05C373.923 445.05 361.813 457.189 361.813 472.163C361.813 487.137 373.923 499.276 388.862 499.276Z" fill="#200656"/>
<g opacity="0.3">
<path opacity="0.3" d="M415.658 475.831C413.881 489.073 402.554 499.275 388.862 499.275C373.929 499.275 361.813 487.131 361.813 472.162C361.813 466.74 363.402 461.679 366.154 457.448C365.981 458.639 365.901 459.871 365.901 461.116C365.901 476.085 378.016 488.229 392.95 488.229C402.474 488.229 410.849 483.289 415.658 475.831Z" fill="#200656"/>
</g>
<path d="M388.863 502.623C372.107 502.623 358.475 488.959 358.475 472.163C358.475 455.367 372.107 441.703 388.863 441.703C405.62 441.703 419.252 455.367 419.252 472.163C419.252 488.959 405.62 502.623 388.863 502.623ZM388.863 448.397C375.79 448.397 365.153 459.059 365.153 472.164C365.153 485.268 375.79 495.93 388.863 495.93C401.937 495.93 412.574 485.268 412.574 472.164C412.574 459.059 401.937 448.397 388.863 448.397Z" fill="#200656"/>
<path d="M402.318 463.169C403.095 459.65 399.528 455.866 394.35 454.718C389.173 453.57 384.346 455.493 383.57 459.012C382.793 462.532 386.36 466.316 391.537 467.464C396.715 468.612 401.541 466.689 402.318 463.169Z" fill="white"/>
<path d="M283.893 285.077C363.814 285.077 428.602 225.625 428.602 152.287C428.602 78.9498 363.814 19.498 283.893 19.498C203.973 19.498 139.184 78.9498 139.184 152.287C139.184 225.625 203.973 285.077 283.893 285.077Z" fill="#39C7FF"/>
<path d="M428.602 267.872C423.632 284.194 407.51 298.922 389.851 306.969C387.727 307.946 385.576 308.816 383.412 309.593L384.147 348.569C384.147 348.569 411.904 363.417 411.677 389.727V389.74C389.29 389.486 366.034 391.32 343.245 395.096C355.655 406.008 360.944 419.759 361.599 431.956V431.97C361.906 437.593 361.225 442.882 359.809 447.394C355.134 462.296 332.933 458.949 324.411 450.915C315.889 442.882 298.083 426.975 298.083 426.975C285.861 424.632 275.041 421.392 265.583 416.773C237.305 402.969 221.343 376.833 216.881 325.218C182.151 318.081 162.555 302.014 162.555 302.014C149.852 294.249 145.35 274.044 156.544 266.962C159.817 264.887 164.425 263.936 170.57 264.739C194.347 273.241 218.885 277.928 244.144 279.186L355.014 266.895C355.014 266.895 382.077 261.004 399.882 253.05C414.469 246.543 428.161 248.364 429.577 259.29C429.897 261.7 429.604 264.565 428.602 267.872Z" fill="white"/>
<g opacity="0.3">
<path opacity="0.3" d="M359.809 447.395C355.134 462.297 332.933 458.949 324.411 450.916C315.889 442.882 298.083 426.976 298.083 426.976C285.861 424.633 275.041 421.393 265.583 416.773C237.305 402.969 221.343 376.834 216.881 325.218C182.151 318.082 162.555 302.015 162.555 302.015C149.852 294.249 145.35 274.045 156.544 266.962C156.544 266.962 158.949 288.76 194.841 300.81C230.72 312.847 230.72 312.847 230.72 312.847C230.72 312.847 231.575 326.102 243.263 327.669C243.263 327.669 243.129 356.295 252.854 378.614C264.942 377.275 277.271 374.611 289.935 370.126L291.791 373.928C283.681 380.392 270.526 384.698 261.569 387.067C259.736 387.551 259.018 389.761 260.182 391.26C265.033 397.507 271.284 402.182 279.329 403.879C315.729 411.578 319.482 417.603 334.964 434.514C350.459 451.411 361.051 441.985 361.599 431.97C361.906 437.594 361.225 442.882 359.809 447.395Z" fill="#200656"/>
</g>
<path d="M343.499 461.089C335.72 461.089 327.24 458.176 322.123 453.353C314.674 446.331 299.895 433.084 296.546 430.085C283.798 427.582 273.183 424.208 264.121 419.781C233.998 405.078 218.416 376.714 213.778 327.977C181.511 320.839 162.787 306.478 160.624 304.754C149.979 298.112 144.192 283.514 147.978 272.752C149.429 268.627 154.576 259.265 171.003 261.42C171.238 261.451 171.469 261.506 171.692 261.586C194.549 269.758 218.893 274.55 244.045 275.828L354.469 263.586C356.751 263.08 381.955 257.393 398.523 249.992C410.737 244.546 422.184 244.581 428.393 250.088C431.074 252.463 435.08 258.06 431.796 268.848C425.662 288.987 405.172 304.713 386.796 311.899L387.451 346.618C393.828 350.508 415.227 365.393 415.017 389.754C415.01 390.644 414.649 391.501 414.015 392.123C413.382 392.744 412.507 393.056 411.64 393.086C391.525 392.853 370.942 394.298 350.325 397.37C365.006 413.516 367.481 434.088 362.994 448.396C361.116 454.386 356.565 458.606 350.183 460.279C348.091 460.829 345.825 461.089 343.499 461.089ZM166.393 267.8C161.421 267.8 156.267 269.323 154.277 274.979C151.494 282.892 156.174 294.19 164.295 299.157C164.426 299.237 164.551 299.327 164.67 299.424C164.857 299.577 184.137 315.073 217.551 321.938C219 322.236 220.08 323.452 220.208 324.928C224.382 373.208 238.39 399.776 267.046 413.763C275.787 418.033 286.143 421.278 298.71 423.687C299.303 423.801 299.854 424.074 300.304 424.477C300.482 424.636 318.242 440.505 326.699 448.477C331.124 452.649 340.939 455.781 348.494 453.804C352.69 452.704 355.426 450.21 356.623 446.389C360.918 432.694 357.766 412.301 341.045 397.614C340.074 396.761 339.68 395.422 340.034 394.178C340.389 392.933 341.427 392.004 342.701 391.794C364.445 388.191 386.226 386.369 407.508 386.369C407.738 386.369 407.967 386.369 408.197 386.369C406.142 364.457 382.819 351.652 382.572 351.519C381.508 350.946 380.832 349.841 380.809 348.631L380.073 309.656C380.046 308.216 380.941 306.919 382.294 306.437C402.814 299.131 420.543 282.87 425.408 266.895C426.559 263.117 427.242 258.004 423.969 255.102C419.871 251.468 410.735 251.875 401.24 256.109C383.327 264.109 356.841 269.922 355.723 270.165C355.611 270.19 355.496 270.208 355.381 270.221L244.512 282.512C244.336 282.533 244.158 282.537 243.979 282.528C218.206 281.244 193.247 276.362 169.792 268.015C168.697 267.883 167.55 267.8 166.393 267.8ZM428.602 267.872H428.614H428.602Z" fill="#200656"/>
<path d="M216.114 327.735C214.751 327.735 213.586 326.692 213.458 325.304C213.322 323.831 214.403 322.527 215.872 322.391C225.172 321.527 228.128 313 228.967 309.373C231.26 299.466 227.631 285.796 216.26 278.837C215 278.066 214.603 276.418 215.372 275.156C216.142 273.893 217.786 273.496 219.044 274.265C233.207 282.932 236.813 299.167 234.172 310.582C231.878 320.493 225.222 326.901 216.364 327.723C216.281 327.732 216.197 327.735 216.114 327.735Z" fill="#200656"/>
<path d="M220.645 340.258C219.814 340.258 218.974 340.236 218.121 340.194C216.648 340.119 215.513 338.862 215.586 337.386C215.66 335.908 216.882 334.75 218.387 334.844C230.755 335.478 239.989 331.219 245.09 322.573C251.606 311.527 250.282 294.263 241.87 280.591C241.096 279.331 241.486 277.682 242.741 276.906C243.997 276.128 245.643 276.52 246.417 277.779C255.976 293.316 257.291 312.413 249.689 325.3C243.966 335.002 233.711 340.258 220.645 340.258Z" fill="#200656"/>
<path d="M179.367 314.274C179.327 314.274 179.286 314.274 179.246 314.274C178.14 314.265 177.25 313.359 177.259 312.249C177.269 311.146 178.163 310.257 179.263 310.257C179.293 310.259 179.333 310.257 179.368 310.257C184.692 310.259 189.95 306.251 193.109 299.777C196.444 292.94 197.789 281.724 190.599 272.614C189.912 271.743 190.059 270.481 190.927 269.793C191.794 269.104 193.056 269.252 193.741 270.122C200.61 278.825 201.775 291.158 196.708 301.542C192.87 309.407 186.234 314.274 179.367 314.274Z" fill="#200656"/>
<path d="M383.408 312.939C381.804 312.939 380.389 311.778 380.117 310.139C380.068 309.841 374.993 280.139 359.826 267.868C358.392 266.706 358.167 264.599 359.325 263.16C360.484 261.722 362.588 261.496 364.022 262.658C381.177 276.539 386.489 307.726 386.706 309.047C387.007 310.871 385.776 312.592 383.958 312.894C383.772 312.925 383.589 312.939 383.408 312.939Z" fill="#200656"/>
<path d="M331.685 95.3814C382.641 63.2299 397.142 78.7054 375.187 141.807L331.685 95.3814Z" fill="#FF8F1F"/>
<g opacity="0.6">
<path opacity="0.6" d="M384.174 108.434C386.071 81.6826 369.801 78.6432 335.378 99.3162L331.691 95.3799C371.965 69.9673 389.464 74.3188 384.174 108.434Z" fill="white"/>
</g>
<path d="M392.095 211.518L401.325 224.238C354.466 293.419 256.126 305.296 192.169 251.136L199.85 240.358L177.81 232.673C177.81 232.673 177.97 232.552 178.251 232.325C179.92 230.919 185.825 225.269 186.826 215.093C186.826 215.093 186.065 195.799 192.263 172.81C192.771 170.896 193.332 168.954 193.946 166.999C193.946 166.999 180.842 132.241 180.549 106.802C180.495 101.66 183.207 97.1481 187.294 94.671H187.308C189.378 93.4124 191.796 92.6895 194.387 92.6626C203.337 92.569 217.55 95.0192 238.922 104.967C241.139 103.32 243.41 101.781 245.721 100.361C293.568 70.7179 358.914 87.307 381.85 158.189C381.85 158.189 388.261 179.063 398.333 193.59C401.111 197.607 404.171 201.142 407.456 203.605L392.095 211.518Z" fill="#FF8F1F"/>
<g opacity="0.6">
<path opacity="0.6" d="M407.456 203.605L401.258 206.791C399.334 204.81 397.518 202.507 395.794 200.03C385.723 185.503 379.311 164.629 379.311 164.629C368.785 132.08 349.309 110.979 326.695 100.549C317.064 102.45 308.649 100.08 301.475 93.4122C301.462 93.4255 301.462 93.4255 301.462 93.4122C281.693 91.029 261.202 95.6347 243.182 106.801C240.871 108.221 238.601 109.76 236.383 111.407C215.011 101.459 200.798 99.0087 191.848 99.1024C187.24 99.1425 183.179 101.405 180.668 104.886C181.523 98.0313 187.32 92.7291 194.386 92.6621C203.336 92.5685 217.549 95.0187 238.921 104.967C241.138 103.32 243.409 101.78 245.72 100.361C293.567 70.7174 358.914 87.3065 381.849 158.189C381.849 158.189 388.261 179.062 398.332 193.59C401.111 197.606 404.17 201.141 407.456 203.605Z" fill="white"/>
</g>
<path d="M400.176 222.657L401.324 224.237C354.666 293.111 256.994 305.188 193.023 251.846C192.729 251.618 192.449 251.377 192.168 251.136L199.849 240.358C199.849 240.358 208.866 234.842 223.225 238.858C237.585 242.875 258.797 248.07 271.487 234.842C284.177 221.613 294.476 208.572 313.791 205.051C333.093 201.529 341.615 210.42 353.29 212.589C364.991 214.758 391.934 208.907 398.332 193.589C401.11 197.606 404.169 201.141 407.455 203.604L392.094 211.517L400.162 222.644L400.176 222.657Z" fill="white"/>
<path d="M222.447 121.48C222.447 121.48 212.54 133.754 208.088 148.37C200.741 120.142 199.405 108.872 222.447 121.48Z" fill="#FF4DA2"/>
<path d="M348.215 106.102C369.802 92.8037 371.998 99.7532 365.041 124.237L348.215 106.102Z" fill="#FF4DA2"/>
<path d="M285.093 288.418C250.436 288.42 216.633 276.231 190.014 253.688C188.685 252.563 188.441 250.603 189.453 249.184L194.538 242.054L176.711 235.826C175.536 235.416 174.686 234.385 174.506 233.151C174.326 231.917 174.844 230.684 175.852 229.953C176.105 229.765 182.417 224.955 183.48 214.978C183.401 212.336 183.033 191.219 190.424 167.097C188.156 160.868 177.479 130.336 177.213 106.836C177.162 102.203 178.912 97.8299 182.144 94.5222C185.383 91.206 189.721 89.3546 194.359 89.3098C194.526 89.3074 194.696 89.3074 194.866 89.3074C206.63 89.3074 221.313 93.2756 238.543 101.11C263.05 83.698 293.635 78.4999 320.758 87.2211C350.727 96.8589 373.551 121.695 385.025 157.157C385.142 157.532 395.365 190.33 409.455 200.922C410.375 201.614 410.875 202.731 410.778 203.881C410.682 205.031 410.002 206.049 408.979 206.576L397.084 212.711L404.028 222.271C404.858 223.413 404.884 224.954 404.092 226.122C381.626 259.284 345.594 281.489 305.233 287.04C298.52 287.964 291.788 288.418 285.093 288.418ZM196.698 250.539C226.716 274.839 265.762 285.712 304.326 280.407C342.024 275.222 375.753 254.816 397.235 224.29L389.391 213.492C388.816 212.702 388.615 211.699 388.841 210.748C389.066 209.797 389.695 208.992 390.563 208.546L401.586 202.86C387.931 188.951 379.062 160.486 378.657 159.175C367.879 125.864 346.587 102.557 318.718 93.5953C292.654 85.2133 264.292 90.3393 240.906 107.659C239.921 108.385 238.62 108.516 237.515 108.002C216.293 98.1248 202.645 96.0007 194.839 96.0007C194.699 96.0007 194.561 96.0019 194.426 96.0031C191.573 96.0315 188.906 97.1681 186.917 99.2059C184.934 101.234 183.86 103.917 183.892 106.76C184.17 131.303 196.946 165.478 197.074 165.819C197.339 166.522 197.361 167.295 197.135 168.011C189.405 192.549 190.154 214.741 190.162 214.962C190.168 215.115 190.164 215.268 190.149 215.421C189.432 222.724 186.456 227.964 183.871 231.239L200.948 237.205C201.942 237.551 202.714 238.347 203.033 239.352C203.351 240.358 203.178 241.454 202.566 242.312L196.698 250.539Z" fill="#200656"/>
<path d="M208.087 151.047C208.07 151.047 208.051 151.047 208.032 151.046C206.837 151.021 205.804 150.204 205.503 149.045C200.133 128.413 198.705 119.148 203.767 115.185C207.445 112.305 213.413 113.486 223.728 119.13C224.423 119.51 224.913 120.18 225.068 120.959C225.222 121.738 225.023 122.545 224.526 123.163C224.429 123.282 214.883 135.23 210.642 149.151C210.299 150.279 209.26 151.047 208.087 151.047ZM208.61 119.015C207.753 119.015 207.297 119.218 207.057 119.404C204.755 121.207 206.549 130.872 208.591 139.44C211.931 131.901 216.041 125.698 218.423 122.384C213.078 119.694 210.176 119.015 208.61 119.015Z" fill="#200656"/>
<path d="M375.368 145.156C375.004 145.156 374.633 145.096 374.268 144.968C372.526 144.36 371.607 142.452 372.215 140.706C386.593 99.3814 381.823 87.6937 377.701 84.4049C373.235 80.8395 361.963 80.3457 333.644 98.2143C332.084 99.2007 330.022 98.7282 329.039 97.164C328.057 95.5997 328.525 93.5335 330.087 92.5482C355.843 76.2969 372.78 71.921 381.86 79.1664C391.921 87.1929 390.86 107.448 378.521 142.91C378.041 144.291 376.749 145.156 375.368 145.156Z" fill="#200656"/>
<path d="M365.043 126.916C364.801 126.916 364.555 126.883 364.31 126.813C362.89 126.408 362.068 124.926 362.472 123.504C367.151 107.036 366.065 103.222 365 102.412C364.399 101.959 361.521 101.049 349.615 108.383C348.359 109.159 346.713 108.765 345.94 107.504C345.166 106.244 345.56 104.594 346.816 103.82C358.147 96.8406 364.35 95.2009 368.227 98.1438C372.428 101.335 372.261 108.606 367.611 124.971C367.276 126.148 366.206 126.916 365.043 126.916Z" fill="#200656"/>
<path d="M243.563 214.536C243.367 210.42 244.999 206.17 247.829 202.819C250.662 199.471 254.743 196.97 259.376 196.166C261.681 195.746 264.119 195.789 266.461 196.32C268.802 196.852 271.033 197.891 272.882 199.328C276.629 202.201 278.701 206.391 279.023 210.437C279.117 211.618 278.237 212.653 277.058 212.747C276.477 212.793 275.932 212.602 275.517 212.256L275.403 212.161C272.671 209.867 270.292 208.2 267.969 207.378C265.657 206.569 263.482 206.374 261.122 206.7C258.776 207.034 256.348 207.989 254.046 209.472C251.717 210.954 249.568 212.968 247.414 215.648L247.319 215.765C246.588 216.676 245.257 216.82 244.348 216.086C243.861 215.692 243.593 215.117 243.563 214.536Z" fill="#200656"/>
<path d="M339.442 198.59C338.537 194.678 339.331 190.395 341.399 186.69C343.452 182.998 346.998 179.676 351.741 178.323C354.079 177.651 356.654 177.513 359.039 178.017C361.436 178.486 363.591 179.559 365.345 180.882C368.843 183.592 370.955 187.141 371.796 190.931C372.056 192.1 371.32 193.259 370.153 193.52C369.637 193.635 369.124 193.555 368.688 193.329L368.517 193.24C366.922 192.41 365.586 191.509 364.237 190.818C362.913 190.106 361.655 189.523 360.499 189.103C358.137 188.281 356.373 188.209 354.514 188.613C352.645 189.018 350.59 190.221 348.663 192.004C346.733 193.802 344.997 196.099 343.432 198.97L343.347 199.126C342.789 200.15 341.508 200.527 340.486 199.968C339.939 199.668 339.576 199.153 339.442 198.59Z" fill="#200656"/>
<path d="M325.444 212.592C319.701 212.943 314.643 214.632 310.071 217.268C308.711 218.053 308.51 219.972 309.708 220.989C311.503 222.51 314.824 224.16 320.661 223.822C320.952 223.806 321.24 223.735 321.504 223.612C322.786 223.008 326.56 220.809 327.811 215.366C328.148 213.898 326.944 212.5 325.444 212.592Z" fill="#200656"/>
<path d="M326.349 255.127C319.336 261.031 309.131 260.161 301.223 253.359C295.586 248.512 291.111 240.64 289.789 230.049C303.013 247.28 320.538 238.042 320.538 222.645C320.538 222.645 324.853 232.727 334.43 230.049C335.071 242.447 331.612 250.695 326.349 255.127Z" fill="#200656"/>
<path d="M326.348 255.126C319.335 261.031 309.129 260.161 301.222 253.359C308.381 244.777 323.689 244.576 326.348 255.126Z" fill="#FF4DA2"/>
<path d="M315.494 261.7C310.04 261.7 304.346 259.575 299.482 255.39C292.819 249.663 288.435 240.781 287.136 230.38C286.986 229.182 287.656 228.031 288.771 227.572C289.889 227.114 291.169 227.457 291.905 228.415C297.141 235.239 303.447 238.028 309.216 236.063C314.39 234.299 317.865 228.906 317.865 222.644C317.865 221.373 318.757 220.277 320 220.022C321.246 219.759 322.493 220.42 322.992 221.589C323.342 222.388 326.657 229.438 333.711 227.469C334.489 227.249 335.33 227.399 335.988 227.874C336.647 228.349 337.055 229.097 337.097 229.91C337.725 242.059 334.518 251.743 328.066 257.176C324.469 260.204 320.066 261.7 315.494 261.7ZM294.405 238.246C296.266 243.581 299.186 248.081 302.961 251.325C309.987 257.37 318.695 258.072 324.63 253.075C329.268 249.17 331.783 242.167 331.831 233.167C327.785 233.339 324.512 231.603 322.137 229.388C320.305 234.924 316.252 239.321 310.936 241.133C305.477 242.995 299.657 241.908 294.405 238.246ZM326.348 255.125H326.36H326.348Z" fill="#200656"/>
<path d="M333.434 227.557C333.472 227.568 333.726 227.479 333.891 227.414C334.079 227.341 334.267 227.257 334.454 227.164C334.832 226.982 335.188 226.759 335.541 226.524C336.231 226.042 336.827 225.45 337.296 224.762C337.76 224.073 338.142 223.292 338.305 222.409C338.526 221.538 338.515 220.584 338.465 219.608L338.458 219.474C338.42 218.736 338.986 218.108 339.722 218.069C340.361 218.037 340.917 218.46 341.079 219.054C341.394 220.214 341.664 221.433 341.63 222.726C341.655 224.012 341.367 225.343 340.866 226.588C340.363 227.837 339.611 228.991 338.706 229.974C338.247 230.459 337.764 230.923 337.237 231.339C336.975 231.549 336.703 231.751 336.417 231.943C336.111 232.143 335.882 232.301 335.423 232.528L333.909 233.277C332.385 234.031 330.54 233.403 329.788 231.876C329.035 230.348 329.661 228.499 331.185 227.745C331.911 227.386 332.716 227.342 333.434 227.557Z" fill="#200656"/>
<g opacity="0.3">
<path opacity="0.3" d="M197.739 218.226C197.739 218.226 191.504 234.673 178.254 232.337C178.25 232.329 178.252 232.333 178.249 232.326C179.917 230.922 185.824 225.271 186.826 215.093C186.826 215.093 186.065 195.799 192.263 172.81C192.77 170.895 193.331 168.954 193.946 166.999C193.946 166.999 180.842 132.241 180.548 106.802C180.495 101.66 183.206 97.148 187.294 94.6709H187.307C187.307 94.6709 182.072 100.299 193.064 132.361C198.22 147.399 200.316 155.798 202.737 159.899C204.585 163.03 204.858 166.834 203.66 170.268C200.807 178.441 196.697 194.64 197.739 218.226Z" fill="#200656"/>
</g>
<path d="M385.977 343.212C385.87 344.765 385.442 346.238 384.734 347.577C383.492 349.973 381.381 351.901 378.777 352.906L315.862 377.194C314.299 377.796 312.642 378.064 310.973 377.997L297.748 377.435C294.623 377.301 291.911 375.199 291.029 372.199C286.982 358.422 285.646 344.042 285.206 335.138C285.139 333.974 285.099 332.916 285.072 331.952C284.965 328.604 287.009 325.565 290.134 324.373L360.57 297.528C362.76 296.698 365.205 296.912 367.222 298.131L376.305 303.62C377.454 304.317 378.402 305.321 378.99 306.526C384.801 318.482 386.818 330.733 385.977 343.212Z" fill="white"/>
<g opacity="0.3">
<path opacity="0.3" d="M384.735 347.577C383.492 349.974 381.382 351.902 378.777 352.906L315.862 377.194C314.299 377.797 312.643 378.065 310.973 377.998L297.749 377.435C294.623 377.301 291.911 375.199 291.03 372.2C286.982 358.423 285.647 344.043 285.206 335.139L286.195 334.59L305.39 340.508L308.155 334.59L313.057 331.604C318.681 359.654 342.297 362.72 382.41 342.851C382.411 342.851 383.439 344.913 384.735 347.577Z" fill="#200656"/>
</g>
<path d="M311.511 381.355C311.286 381.355 311.06 381.35 310.835 381.341L297.605 380.775C293.035 380.579 289.103 377.513 287.821 373.144C283.151 357.227 282.004 340.574 281.736 332.063C281.586 327.296 284.483 322.951 288.943 321.251L359.38 294.402C362.552 293.192 366.037 293.507 368.944 295.262L378.032 300.758C379.763 301.806 381.133 303.294 381.991 305.06C387.758 316.928 390.221 329.837 389.311 343.43C388.937 349.041 385.271 353.989 379.973 356.034L317.057 380.319C315.271 381.007 313.408 381.355 311.511 381.355ZM288.411 331.853C288.67 340.042 289.768 356.053 294.228 371.255C294.704 372.874 296.175 374.012 297.89 374.085L311.121 374.651C312.327 374.707 313.522 374.51 314.66 374.07L377.574 349.787C380.455 348.675 382.446 346.004 382.648 342.983C383.491 330.395 381.311 318.948 375.987 307.992C375.694 307.388 375.207 306.87 374.581 306.491L365.494 300.996C364.359 300.309 362.994 300.189 361.755 300.659L291.317 327.508C289.519 328.193 288.351 329.939 288.411 331.853Z" fill="#200656"/>
<path d="M318.171 378.416C314.298 378.416 310.623 376.191 308.957 372.484C303.852 361.124 303.118 347.804 302.724 340.648C302.431 335.341 305.56 330.489 310.513 328.573L366.438 306.937C367.851 306.391 369.292 306.051 370.724 305.927C378.205 305.271 383.398 308.265 384.987 314.136C385.373 315.564 384.531 317.034 383.107 317.422C381.68 317.805 380.215 316.965 379.829 315.538C378.73 311.475 374.525 310.972 371.188 311.262C370.255 311.344 369.304 311.569 368.36 311.934L312.436 333.57C309.653 334.647 307.894 337.372 308.059 340.353C308.435 347.161 309.132 359.834 313.829 370.284C314.855 372.566 317.517 373.644 319.887 372.743L324.636 370.937C326.008 370.409 327.557 371.106 328.081 372.491C328.605 373.873 327.912 375.419 326.531 375.944L321.783 377.75C320.596 378.202 319.375 378.416 318.171 378.416Z" fill="#200656"/>
<path d="M297.803 360.377C297.108 363.617 295.024 366.697 291.017 368.732C253.949 382.629 227.407 379.604 227.407 379.604C220.635 378.64 217.669 372.882 218.351 367.205C218.765 363.724 221.717 361.06 225.217 360.953C226.298 360.926 227.394 360.886 228.462 360.832C250.009 359.868 270.099 355.276 288.185 345.635C294.33 345.501 299.339 353.347 297.803 360.377Z" fill="white"/>
<path d="M234.406 383.25C229.946 383.25 227.356 382.974 227.024 382.937C217.996 381.644 214.184 373.848 215.034 366.807C215.649 361.709 219.986 357.755 225.123 357.612C248.897 356.943 269.01 352.059 286.611 342.679C287.073 342.433 287.587 342.299 288.11 342.288C288.18 342.287 288.249 342.286 288.319 342.286C293.981 342.286 299.259 347.043 300.918 353.682C302.392 359.58 300.964 367.414 292.531 371.714C292.419 371.772 292.304 371.823 292.186 371.867C265.916 381.712 244.943 383.25 234.406 383.25ZM288.919 349.028C270.587 358.619 249.769 363.616 225.309 364.304C223.453 364.356 221.885 365.778 221.665 367.612C221.204 371.426 222.945 375.591 227.872 376.297C228.03 376.313 253.979 378.994 289.661 365.666C295.534 362.575 294.964 357.403 294.441 355.31C293.602 351.961 291.305 349.4 288.919 349.028ZM291.016 368.731H291.028H291.016Z" fill="#200656"/>
<path d="M306.472 338.211C306.153 338.211 305.827 338.153 305.51 338.03L285.236 330.168C283.861 329.634 283.176 328.084 283.709 326.704C284.241 325.326 285.783 324.638 287.164 325.173L307.438 333.036C308.813 333.57 309.498 335.12 308.965 336.5C308.555 337.562 307.545 338.211 306.472 338.211Z" fill="#200656"/>
<path d="M323.993 357.853C328.005 357.853 331.256 353.695 331.256 348.565C331.256 343.435 328.005 339.276 323.993 339.276C319.982 339.276 316.73 343.435 316.73 348.565C316.73 353.695 319.982 357.853 323.993 357.853Z" fill="#F41824"/>
<path d="M323.993 360.532C318.515 360.532 314.059 355.164 314.059 348.566C314.059 341.967 318.515 336.598 323.993 336.598C329.471 336.598 333.929 341.967 333.929 348.566C333.929 355.164 329.472 360.532 323.993 360.532ZM323.993 341.955C321.505 341.955 319.402 344.982 319.402 348.566C319.402 352.149 321.505 355.176 323.993 355.176C326.482 355.176 328.585 352.149 328.585 348.566C328.585 344.982 326.483 341.955 323.993 341.955Z" fill="#200656"/>
<path d="M346.924 348.565C350.936 348.565 354.188 344.406 354.188 339.276C354.188 334.146 350.936 329.987 346.924 329.987C342.913 329.987 339.661 334.146 339.661 339.276C339.661 344.406 342.913 348.565 346.924 348.565Z" fill="#FFCD04"/>
<path d="M346.925 351.243C341.447 351.243 336.989 345.875 336.989 339.276C336.989 332.677 341.447 327.309 346.925 327.309C352.403 327.309 356.86 332.677 356.86 339.276C356.86 345.875 352.404 351.243 346.925 351.243ZM346.925 332.665C344.436 332.665 342.333 335.692 342.333 339.275C342.333 342.86 344.436 345.886 346.925 345.886C349.413 345.886 351.516 342.86 351.516 339.275C351.516 335.692 349.413 332.665 346.925 332.665Z" fill="#200656"/>
<path d="M369.187 340.891C373.199 340.891 376.451 336.732 376.451 331.602C376.451 326.472 373.199 322.313 369.187 322.313C365.176 322.313 361.924 326.472 361.924 331.602C361.924 336.732 365.176 340.891 369.187 340.891Z" fill="#33C16D"/>
<path d="M369.187 343.569C363.708 343.569 359.252 338.2 359.252 331.601C359.252 325.003 363.708 319.635 369.187 319.635C374.665 319.635 379.122 325.003 379.122 331.601C379.122 338.2 374.665 343.569 369.187 343.569ZM369.187 324.991C366.698 324.991 364.596 328.018 364.596 331.601C364.596 335.186 366.698 338.212 369.187 338.212C371.676 338.212 373.778 335.185 373.778 331.601C373.778 328.018 371.676 324.991 369.187 324.991Z" fill="#200656"/>
<g opacity="0.3">
<path opacity="0.3" d="M297.803 360.377C297.108 363.617 295.024 366.697 291.017 368.732C253.949 382.63 227.407 379.604 227.407 379.604C220.635 378.64 217.669 372.882 218.351 367.206C218.765 363.724 221.717 361.06 225.217 360.953C226.298 360.926 227.394 360.886 228.462 360.832C228.462 360.832 229.304 381.733 296.333 360.832C296.827 360.685 297.322 360.524 297.803 360.377Z" fill="#200656"/>
</g>
<path d="M403.506 301.185C403.346 301.185 403.183 301.166 403.021 301.126C401.947 300.858 401.294 299.768 401.56 298.691C408.407 271.12 390.543 258.836 389.78 258.327C388.86 257.714 388.607 256.469 389.216 255.545C389.826 254.622 391.062 254.366 391.987 254.974C392.198 255.114 413.001 269.246 405.449 299.662C405.222 300.575 404.405 301.185 403.506 301.185Z" fill="#200656"/>
<path d="M306.478 437.188C306.319 437.188 306.159 437.173 305.997 437.144C304.545 436.88 303.582 435.486 303.846 434.031C305.512 424.831 311.634 416.156 320.642 410.233C330.587 403.691 342.709 401.447 353.913 404.075C355.349 404.412 356.241 405.854 355.905 407.294C355.568 408.733 354.13 409.628 352.695 409.29C342.919 406.997 332.301 408.973 323.573 414.712C315.783 419.834 310.509 427.224 309.103 434.988C308.868 436.281 307.744 437.188 306.478 437.188Z" fill="#200656"/>
<path d="M340.976 397.551C339.735 396.21 338.189 394.785 336.681 393.504C335.147 392.208 333.544 390.991 331.883 389.861C330.219 388.733 328.481 387.739 326.688 386.848C324.887 385.981 323.016 385.298 321.088 384.784L321.026 384.767C320.313 384.576 319.888 383.842 320.079 383.127C320.25 382.483 320.861 382.074 321.502 382.138C323.7 382.356 325.884 382.778 327.999 383.409C330.102 384.06 332.169 384.84 334.16 385.768C336.148 386.698 338.087 387.733 339.97 388.866C341.87 390.025 343.639 391.178 345.517 392.641C346.979 393.78 347.242 395.891 346.106 397.356C344.97 398.821 342.864 399.086 341.402 397.947C341.263 397.837 341.133 397.719 341.015 397.594L340.976 397.551Z" fill="#200656"/>
<g opacity="0.3">
<path opacity="0.3" d="M204.304 274.178C204.304 274.178 261.994 320.393 342.18 273.266C303.498 284.801 270.213 287.665 244.015 279.14C244.015 279.14 215.083 275.087 204.304 274.178Z" fill="#200656"/>
</g>
<g opacity="0.3">
<path opacity="0.3" d="M384.734 389.285L345.449 395.845L336.166 389.713L323.997 384.036L312.055 379.885L346.558 367.969C346.678 366.496 348.388 364.635 348.388 364.635L381.515 354.808C366.101 361.984 354.083 368.61 353.303 377.212C352.858 391.594 384.734 389.285 384.734 389.285Z" fill="#200656"/>
</g>
<g opacity="0.3">
<path opacity="0.3" d="M428.601 267.872C423.632 284.194 407.509 298.922 389.851 306.969C386.177 306.045 383.412 305.134 383.412 305.134L380.968 299.176L377.602 289.161C377.602 289.161 406.561 291.745 428.601 260.615C428.922 260.16 429.243 259.718 429.577 259.29C429.897 261.7 429.603 264.565 428.601 267.872Z" fill="#200656"/>
</g>
<g opacity="0.3">
<path opacity="0.3" d="M383.186 248.702C358.167 267.648 326.095 279.029 291.138 279.029C211.219 279.029 146.42 219.581 146.42 146.235C146.42 98.5565 173.817 56.7421 214.946 33.3379C182.82 57.6927 162.343 94.5263 162.343 135.765C162.343 209.097 227.128 268.545 307.047 268.545C334.992 268.545 361.079 261.288 383.186 248.702Z" fill="#200656"/>
</g>
<path d="M308.248 21.3776H308.208C300.313 20.1459 292.179 19.503 283.897 19.503C281.465 19.503 279.048 19.5565 276.643 19.677C262.965 20.2794 249.794 22.6493 237.372 26.5188H237.332C238.734 17.2536 246.308 10.6662 256.033 6.95735C275.695 -0.553781 304.16 3.69052 308.248 21.3776Z" fill="white"/>
<path d="M423.231 188.26V188.233C426.731 176.799 428.601 164.749 428.601 152.283C428.601 140.447 426.918 128.973 423.739 118.061C423.752 118.047 423.739 118.034 423.739 118.034C451.643 124.233 451.536 179.503 423.231 188.26Z" fill="white"/>
<g opacity="0.3">
<path opacity="0.3" d="M423.231 188.26V188.234C425.034 182.342 426.397 176.29 427.305 170.105C437.23 163.558 442.239 150.249 442.319 137.141C448.424 155.992 442.079 182.436 423.231 188.26Z" fill="#200656"/>
</g>
<path d="M283.893 288.423C202.259 288.423 135.844 227.353 135.844 152.288C135.844 77.2215 202.259 16.1514 283.893 16.1514C365.528 16.1514 431.941 77.2215 431.941 152.288C431.941 227.353 365.528 288.423 283.893 288.423ZM283.893 22.8452C205.941 22.8452 142.522 80.9134 142.522 152.288C142.522 223.662 205.941 281.729 283.893 281.729C361.844 281.729 425.263 223.662 425.263 152.288C425.263 80.9134 361.845 22.8452 283.893 22.8452Z" fill="#200656"/>
<path d="M144.114 206.756C158.119 206.201 168.861 190.238 168.107 171.101C167.352 151.965 155.386 136.901 141.38 137.456C127.375 138.011 116.633 153.974 117.388 173.111C118.142 192.248 130.108 207.311 144.114 206.756Z" fill="white"/>
<g opacity="0.3">
<path opacity="0.3" d="M144.107 206.764C130.108 207.313 118.14 192.25 117.379 173.117C117.058 165.044 118.795 157.533 121.947 151.521C121.292 155.149 121.012 159.045 121.172 163.075C121.92 182.208 132.246 197.338 144.214 196.87C156.196 196.388 165.293 180.495 164.531 161.362C164.425 158.456 164.077 155.631 163.543 152.94C166.188 158.148 167.844 164.374 168.111 171.109C168.859 190.242 158.12 206.215 144.107 206.764Z" fill="#200656"/>
</g>
<path d="M143.347 210.126C135.812 210.126 128.675 206.347 123.166 199.411C117.679 192.502 114.441 183.211 114.048 173.25C113.656 163.288 116.152 153.771 121.079 146.45C126.221 138.808 133.384 134.429 141.248 134.118C149.093 133.799 156.597 137.604 162.324 144.816C167.812 151.725 171.05 161.015 171.442 170.977C171.835 180.94 169.338 190.457 164.411 197.777C159.27 205.418 152.106 209.798 144.243 210.108C143.943 210.12 143.645 210.126 143.347 210.126ZM142.127 140.795C141.922 140.795 141.717 140.799 141.512 140.807C135.829 141.032 130.538 144.366 126.616 150.194C122.478 156.342 120.385 164.437 120.722 172.985C121.059 181.535 123.783 189.439 128.391 195.241C132.758 200.74 138.313 203.64 143.979 203.419C149.663 203.195 154.953 199.861 158.876 194.033C163.013 187.885 165.106 179.791 164.769 171.242C164.432 162.692 161.708 154.788 157.099 148.987C152.889 143.685 147.594 140.795 142.127 140.795Z" fill="#200656"/>
<path d="M140.611 183.713C145.303 183.527 148.901 178.18 148.648 171.769C148.396 165.359 144.387 160.313 139.696 160.499C135.004 160.685 131.406 166.032 131.658 172.442C131.911 178.853 135.92 183.899 140.611 183.713Z" fill="#200656"/>
<path d="M237.343 29.8685C237.176 29.8685 237.006 29.8554 236.835 29.8295C235.012 29.5508 233.759 27.8436 234.037 26.0159C236.599 9.15602 256.366 0.767087 273.648 0.10777C289.979 -0.532432 308.03 5.58361 311.497 20.6192C311.913 22.4195 310.793 24.2177 308.996 24.6336C307.213 25.052 305.405 23.9296 304.991 22.1268C302.38 10.8173 287.499 6.27825 273.902 6.79699C259.278 7.35469 242.631 13.9232 240.64 27.0251C240.387 28.6812 238.965 29.8685 237.343 29.8685Z" fill="#200656"/>
<path d="M423.227 191.608C421.801 191.608 420.481 190.685 420.037 189.248C419.493 187.481 420.481 185.608 422.243 185.062C436.06 180.785 441.747 163.862 441.183 149.947C440.719 138.492 435.683 124.116 423.014 121.298C421.214 120.898 420.078 119.11 420.477 117.305C420.877 115.5 422.664 114.363 424.461 114.762C437.935 117.76 447.119 131.464 447.857 149.676C448.543 166.618 441.498 186.107 424.214 191.458C423.886 191.559 423.553 191.608 423.227 191.608Z" fill="#200656"/>
<g opacity="0.3">
<path opacity="0.3" d="M276.643 19.6766C262.965 20.2791 249.794 22.649 237.372 26.5185H237.332C238.734 17.2533 246.308 10.6659 256.033 6.95703C254.643 9.7956 251.958 18.8199 273.879 19.5027C274.853 19.5295 275.775 19.5963 276.643 19.6766Z" fill="#200656"/>
</g>
<g opacity="0.25">
<path opacity="0.25" d="M411.518 144.278C407.274 79.1605 345.605 34.5832 282.084 32.8441C274.031 32.6237 271.328 43.6286 278.536 47.2336C324.276 70.1072 364.366 103.482 397.783 149.264C402.295 155.445 412.017 151.921 411.518 144.278Z" fill="white"/>
</g>
<g opacity="0.25">
<path opacity="0.25" d="M240.592 60.3485C252.638 54.7237 260.414 45.8845 257.961 40.6057C255.507 35.3269 243.753 35.6075 231.707 41.2323C219.662 46.8571 211.885 55.6963 214.339 60.9751C216.792 66.2539 228.546 65.9734 240.592 60.3485Z" fill="white"/>
</g>
<path d="M220.641 548.538C220.443 548.538 220.241 548.521 220.04 548.484L197.457 544.364C193.792 543.696 190.474 541.55 188.355 538.478C173.991 517.653 177.29 487.214 178.644 478.381C179.256 474.38 181.585 470.828 185.035 468.638L203.444 456.954C205.004 455.963 207.065 456.428 208.052 457.991C209.039 459.553 208.576 461.622 207.017 462.611L188.608 474.295C186.791 475.449 185.565 477.308 185.246 479.397C182.651 496.328 183.55 519.739 193.85 534.671C194.968 536.293 196.719 537.425 198.653 537.777L221.235 541.897C223.05 542.229 224.254 543.971 223.924 545.789C223.63 547.406 222.224 548.538 220.641 548.538Z" fill="#200656"/>
<path d="M251.916 501.568C252.896 507.963 243.443 514.844 214.374 519.32C185.306 523.797 160.946 522.241 159.966 515.846C158.986 509.451 181.756 500.638 210.824 496.161C239.893 491.685 250.936 495.172 251.916 501.568Z" fill="#FF0000"/>
<path d="M183.804 525.202C169.768 525.202 157.697 523.068 156.668 516.354C155.898 511.335 161.216 506.692 172.926 502.161C182.748 498.359 196.029 495.052 210.319 492.852C239.009 488.434 253.695 491.118 255.218 501.059C255.751 504.529 254.577 509.614 245.963 514.129C239.308 517.618 228.851 520.478 214.883 522.628C205.977 524 194.337 525.202 183.804 525.202ZM163.349 515.325C165.852 518.087 184.19 520.58 213.869 516.013C227.108 513.973 236.864 511.344 242.868 508.198C245.179 506.985 249.001 504.579 248.617 502.075C248.489 501.241 246.351 494.076 211.333 499.468C181.656 504.039 164.911 511.937 163.349 515.325Z" fill="#200656"/>
<g opacity="0.3">
<path opacity="0.3" d="M190.5 535.683C171.131 577.109 114.922 565.326 114.922 565.326L119.597 551.937C95.9403 560.787 70.9747 561.671 45.4614 559.301C46.1561 558.136 46.8774 556.985 47.6122 555.847C72.6137 553.322 96.3043 549.324 115.854 540.658C118.98 539.272 122.424 541.784 122.042 545.189C122.042 545.189 120.479 558.632 140.515 555.847C160.552 553.062 176.167 546.206 185.277 529.43C186.399 527.368 187.668 525.694 188.991 524.422L190.5 535.683Z" fill="#200656"/>
</g>
<g opacity="0.3">
<path opacity="0.3" d="M183.599 335.533C183.599 335.533 201.777 325.123 216.12 342.13L213.765 325.056L180.795 317.276" fill="#200656"/>
</g>
<g opacity="0.3">
<path opacity="0.3" d="M232.47 385.47C233.025 397.997 224.497 401.428 211.983 400.868L253.067 413.811L251.459 408.009L238.698 398.11" fill="#200656"/>
</g>
</g>
<defs>
<clipPath id="clip0_1:16646">
<rect width="616" height="737" fill="white" transform="translate(0 0.0625)"/>
</clipPath>
</defs>
</svg>
