<svg width="447" height="906" viewBox="0 0 447 906" fill="none" xmlns="http://www.w3.org/2000/svg">
<g clip-path="url(#clip0_1:17552)">
<path d="M231.754 899.011C245.41 891.566 263.082 871.787 264.148 847.537C264.499 839.712 263.112 831.419 259.292 822.926C244.923 790.897 226.896 788.777 214.575 792.393C213.976 792.571 213.391 792.755 212.816 792.957C205.283 795.6 200.285 800.107 200.285 800.107C200.285 800.107 183.804 817.396 193.806 843.819C199.817 859.692 209.198 862.919 214.24 869.626C217.58 874.08 219.017 880.077 216.277 892.335C214.853 898.697 216.915 901.776 220.855 902.149C223.701 902.427 227.536 901.309 231.754 899.011Z" fill="#F99B28"/>
<path d="M231.754 899.011C245.41 891.566 263.082 871.787 264.148 847.537C256 843.993 245.895 843.858 235.537 846.019C223.017 848.639 216.955 861.115 214.24 869.626C217.58 874.08 219.016 880.077 216.277 892.335C214.853 898.697 216.915 901.776 220.855 902.149C223.701 902.427 227.536 901.309 231.754 899.011Z" fill="#F9B923"/>
<g opacity="0.2">
<g opacity="0.2">
<g opacity="0.2">
<g opacity="0.2">
<path opacity="0.2" d="M231.624 898.77C249.694 888.921 274.784 857.495 259.161 822.684C244.792 790.655 226.765 788.535 214.444 792.151C213.957 792.293 213.485 792.44 213.022 792.605C213.119 792.673 213.215 792.741 213.317 792.819C213.837 793.163 214.371 793.487 214.817 793.847C215.929 794.736 221.895 818.165 230.132 832.03C236.817 843.283 247.487 837.508 248.903 860.479C250.16 880.855 234.863 894.358 231.624 898.77Z" fill="#1B124F"/>
</g>
</g>
</g>
</g>
<g opacity="0.6">
<g opacity="0.6">
<g opacity="0.6">
<g opacity="0.6">
<path opacity="0.6" d="M220.724 901.907C227.966 891.761 228.952 877.266 224.109 868.988C221.415 864.377 217.773 860.878 214.144 857.179C214.473 857.122 214.767 857.023 215.055 856.868C218.197 855.174 217.702 848.141 213.946 841.15C210.194 834.168 204.607 829.881 201.465 831.574C201.196 831.719 200.951 831.911 200.727 832.14C200.56 830.982 200.438 829.775 200.353 828.5C199.929 822.089 197.781 802.922 214.444 792.151C205.943 794.644 200.154 799.865 200.154 799.865C200.154 799.865 183.673 817.154 193.675 843.577C203.677 870.001 223.016 861.377 216.146 892.093C214.722 898.455 216.784 901.534 220.724 901.907Z" fill="white"/>
</g>
</g>
</g>
</g>
<path d="M221.598 906.001C219.628 906.001 217.793 905.583 216.179 904.636C213.88 903.288 210.307 899.75 212.216 891.211C215.746 875.429 212.137 872.281 205.585 866.566C200.588 862.207 194.367 856.782 189.909 845.006C179.133 816.534 196.497 797.86 197.243 797.08L197.46 796.868C198.051 796.333 212.188 783.81 229.638 787.494C242.939 790.3 254.106 801.583 262.833 821.03C276.265 850.961 261.422 879.22 244.631 894.325C238.032 900.261 228.891 906.001 221.598 906.001ZM202.961 802.765C201.496 804.396 188.835 819.413 197.44 842.147C201.18 852.029 206.33 856.521 210.875 860.483C217.961 866.664 224.654 872.502 220.076 892.974C219.408 895.958 219.813 897.42 220.248 897.675C222.005 898.707 229.62 896.985 239.249 888.323C254.731 874.397 267.127 850.275 255.488 824.337C247.89 807.406 238.655 797.671 228.039 795.4C215.352 792.69 204.236 801.687 202.961 802.765Z" fill="#1B124F"/>
<path d="M308.404 755.28C306.764 758.077 304.702 759.706 302.14 759.809C291.304 760.232 283.069 746.415 278.714 736.973C286.04 755.498 291.189 770.637 294.724 782.992C309.672 835.207 295.864 837.85 295.864 837.85C262.05 858.043 238.559 799.324 214.172 799.324C214.159 799.324 214.159 799.324 214.159 799.324C213.813 799.324 213.48 799.336 213.134 799.362C211.995 799.439 210.944 799.657 209.971 799.991C209.945 799.991 209.92 799.991 209.907 800.004C189.644 806.97 201.748 865.626 178.603 873.772C154.331 882.33 124.321 817.323 124.321 817.323C121.464 810.755 119.043 804.276 116.994 797.887C92.0431 720.295 122.745 657.303 124.321 614.62C125.358 586.87 133.158 548.01 143.674 521.504C143.879 521.004 144.071 520.503 144.276 520.016C144.558 519.31 144.852 518.617 145.134 517.937C151.795 502.273 159.403 491.753 167.024 491.919C187.517 492.381 197.764 564.854 197.764 564.854C276.101 531.549 304.51 635.544 309.454 665.603C313.617 690.967 317.255 740.167 308.404 755.28Z" fill="white"/>
<g opacity="0.2">
<g opacity="0.2">
<g opacity="0.2">
<g opacity="0.2">
<path opacity="0.2" d="M111.17 775.403C118.577 781.124 129.396 776.975 137.985 774.706C146.917 772.346 157.59 764.855 166.024 767.008C177.349 769.9 187.575 772.472 200.109 771.354C210.188 770.455 220.658 761.873 230.242 762.342C236.033 762.626 242.531 767.336 248.624 768.182C255.809 769.18 263.667 767.293 270.555 766.189C274.878 765.496 285.166 764.655 285.938 759.793L277.539 738.953C277.539 738.953 268.007 773.268 226.662 747.03H149.873C149.873 747.03 128.418 761.737 108.226 755.321L111.17 775.403Z" fill="#1B124F"/>
</g>
</g>
</g>
</g>
<path d="M170.003 560.192C151.429 560.192 134.601 550.104 133.56 549.467C131.749 548.36 131.176 545.992 132.281 544.177C133.385 542.362 135.749 541.789 137.561 542.895C138.027 543.177 171.225 562.948 192.132 544.589C193.728 543.189 196.154 543.348 197.555 544.946C198.953 546.545 198.794 548.976 197.198 550.377C188.845 557.713 179.208 560.192 170.003 560.192Z" fill="#EB4646"/>
<path d="M246.95 825.701C246.948 825.701 246.946 825.701 246.944 825.701C244.821 825.699 243.103 823.975 243.104 821.849C243.106 819.726 244.824 818.006 246.943 818.003C248.293 817.999 280.163 817.583 292.851 789.24C293.719 787.3 295.993 786.431 297.928 787.302C299.865 788.171 300.732 790.449 299.862 792.388C285.132 825.3 248.602 825.701 246.95 825.701Z" fill="#EB4646"/>
<path d="M162.552 844.115C152.346 844.115 140.812 841.564 129.129 833.937C127.351 832.776 126.849 830.392 128.008 828.61C129.166 826.831 131.545 826.326 133.325 827.488C163.505 847.191 192.446 828.366 193.828 827.435C194.643 826.794 195.716 826.487 196.81 826.658C198.906 826.992 200.334 828.965 200 831.064C199.789 832.39 199.551 833.893 190.203 838.047C183.769 840.906 173.996 844.115 162.552 844.115Z" fill="#EB4646"/>
<path d="M271.825 720.468C271.284 720.468 270.736 720.354 270.213 720.111C268.287 719.218 267.448 716.93 268.341 715.001C270.549 710.222 283.134 687.078 313.907 700.683C315.848 701.541 316.728 703.814 315.87 705.758C315.015 707.703 312.75 708.585 310.804 707.725C287.853 697.58 278.338 711.696 275.314 718.236C274.664 719.642 273.275 720.468 271.825 720.468Z" fill="#EB4646"/>
<path d="M174.062 877.706C149.494 877.711 124.441 825.08 121.472 818.65C93.8309 754.904 105.206 700.78 114.344 657.29C117.768 641 120.724 626.931 121.183 614.508C122.049 591.106 127.72 559.83 135.631 534.83C142.293 513.777 153.101 488.769 166.837 488.769C166.921 488.769 167.005 488.77 167.089 488.772C177.271 488.999 185.78 501.733 193.099 527.703C196.8 540.834 199.197 554.063 200.251 560.459C220.737 552.681 239.478 553.351 256.006 562.464C290.469 581.467 307.532 634.458 312.18 662.774C316.327 688.034 321.133 744.807 309.516 759.066C307.008 762.145 304.19 762.881 302.268 762.956C297.717 763.147 293.701 761.331 290.134 758.483C307.408 807.455 306.552 827.747 302.064 836.036C300.367 839.173 298.282 840.328 297.161 840.742C274.98 853.731 257.251 836.365 241.602 821.034C231.561 811.197 222.066 801.904 213.345 802.508C203.304 803.202 201.057 818.775 198.68 835.264C196.082 853.277 193.396 871.905 179.652 876.748C177.799 877.4 175.93 877.705 174.062 877.706ZM166.846 495.065C161.007 495.065 151.35 505.995 141.623 536.732C133.869 561.237 128.312 591.858 127.465 614.741C126.985 627.701 123.978 642.014 120.495 658.587C111.541 701.201 100.395 754.237 127.206 816.074C135.195 833.362 159.868 877.043 177.566 870.808C187.719 867.23 190.129 850.522 192.459 834.363C195.089 816.128 197.808 797.27 212.913 796.226C224.441 795.419 234.92 805.68 245.997 816.533C260.788 831.022 276.079 846.006 294.252 835.152C294.492 835.008 294.751 834.897 295.02 834.822C295.658 834.435 309.733 824.084 275.816 738.217C273.624 733.464 272.409 729.803 272.263 729.356C271.739 727.745 272.58 726.008 274.167 725.424C275.753 724.84 277.519 725.618 278.16 727.187C279.408 730.24 280.599 733.206 281.741 736.099C286.148 745.503 293.568 756.994 302.023 756.665C302.617 756.641 303.533 756.452 304.646 755.085C313.393 744.351 310.985 694.293 305.979 663.795C301.513 636.601 285.326 585.818 252.975 567.98C237.223 559.295 219.059 559.219 198.986 567.753C198.088 568.133 197.063 568.077 196.213 567.595C195.363 567.114 194.783 566.264 194.646 565.297C190.826 538.297 179.928 495.356 166.949 495.067C166.916 495.066 166.881 495.065 166.846 495.065ZM295.262 834.765C295.26 834.766 295.258 834.766 295.257 834.766C295.258 834.766 295.261 834.766 295.262 834.765ZM295.271 834.763C295.269 834.763 295.267 834.764 295.265 834.764C295.268 834.764 295.269 834.764 295.271 834.763Z" fill="#1B124F"/>
<path d="M217.339 751.344C217.325 751.344 217.313 751.344 217.299 751.344L153.558 751.238C140.456 751.215 129.814 740.521 129.836 727.397L129.863 711.436C129.884 698.326 140.54 687.675 153.624 687.675C153.638 687.675 153.65 687.675 153.664 687.675L217.405 687.781C223.729 687.791 229.686 690.284 234.178 694.797C238.669 699.311 241.136 705.286 241.126 711.621L241.1 727.583C241.077 740.693 230.421 751.344 217.339 751.344ZM153.624 695.373C144.771 695.373 137.563 702.578 137.548 711.449L137.521 727.41C137.506 736.289 144.707 743.525 153.571 743.54L217.312 743.646C217.321 743.646 217.33 743.646 217.339 743.646C226.191 743.646 233.401 736.44 233.417 727.569V727.57L233.442 711.608C233.449 707.329 231.778 703.289 228.735 700.231C225.693 697.174 221.665 695.486 217.393 695.479L153.652 695.373C153.642 695.373 153.633 695.373 153.624 695.373ZM237.258 727.577H237.271H237.258Z" fill="#1B124F"/>
<g opacity="0.2">
<g opacity="0.2">
<g opacity="0.2">
<g opacity="0.2">
<path opacity="0.2" d="M217.365 747.03L153.625 746.924C142.666 746.906 133.723 737.917 133.74 726.941L133.766 710.984C133.774 707.29 134.793 703.823 136.557 700.844L136.533 715.306C136.516 726.282 145.459 735.271 156.418 735.289L220.158 735.395C227.428 735.414 233.829 731.469 237.318 725.609L237.316 727.113C237.298 738.09 228.324 747.047 217.365 747.03Z" fill="#1B124F"/>
</g>
</g>
</g>
</g>
<path d="M181.166 720.337C184.366 717.866 184.959 713.264 182.491 710.06C180.024 706.855 175.43 706.261 172.23 708.732C169.031 711.204 168.438 715.806 170.906 719.01C173.373 722.215 177.967 722.809 181.166 720.337Z" fill="#18F06B"/>
<path d="M205.948 719.168C208.399 715.951 207.783 711.352 204.571 708.897C201.359 706.441 196.768 707.059 194.317 710.276C191.865 713.493 192.482 718.091 195.694 720.547C198.905 723.002 203.497 722.385 205.948 719.168Z" fill="#EB4646"/>
<path d="M122.04 755.705C101.304 756.023 95.4266 746.183 94.8424 739.393C94.6859 737.569 94.9066 735.957 95.3268 734.833C97.8201 728.107 101.681 731.742 104.11 732.084C115.187 733.67 127.319 742.577 151.717 720.083C153.797 718.169 157.936 710.786 161.22 716.411C161.526 716.935 161.733 717.568 161.84 718.289C163.329 728.22 146.503 755.319 122.04 755.705Z" fill="white"/>
<g opacity="0.2">
<g opacity="0.2">
<g opacity="0.2">
<g opacity="0.2">
<path opacity="0.2" d="M122.04 755.705C101.303 756.023 95.426 746.182 94.8418 739.392C136.828 761.671 155.291 726.43 161.217 716.411C162.706 726.341 146.502 755.318 122.04 755.705Z" fill="#1B124F"/>
</g>
</g>
</g>
</g>
<path d="M121.064 758.734C105.614 758.734 98.4148 753.185 95.0888 748.471C91.4446 743.306 91.1587 737.368 92.4924 733.774C93.5352 730.962 94.9722 729.176 96.8829 728.315C99.438 727.161 101.845 728.093 103.439 728.708C103.8 728.848 104.346 729.059 104.537 729.086L104.11 732.083L104.537 729.086C106.576 729.378 108.551 729.874 110.642 730.4C120.008 732.754 130.621 735.421 149.673 717.858C149.937 717.615 150.405 717.051 150.857 716.505C152.766 714.199 155.368 711.038 158.898 711.328C160.266 711.44 162.231 712.148 163.826 714.883C166.081 718.744 164.843 725.643 160.514 733.336C154.023 744.875 140.063 758.449 122.084 758.726C121.74 758.731 121.4 758.734 121.064 758.734ZM99.4809 733.814C99.4316 733.814 99.3929 733.82 99.3656 733.833C99.2157 733.901 98.7073 734.4 98.1562 735.882C97.5508 737.516 97.5212 741.431 100.024 744.978C102.583 748.604 108.429 752.877 121.991 752.674C137.41 752.436 149.544 740.507 155.251 730.364C158.843 723.978 159.377 719.253 158.61 717.937C158.489 717.729 158.385 717.582 158.304 717.48C157.491 717.976 156.129 719.62 155.508 720.37C154.875 721.133 154.33 721.794 153.767 722.312C132.311 742.086 119.481 738.862 109.172 736.27C107.238 735.784 105.411 735.325 103.684 735.079C102.816 734.954 102.027 734.65 101.265 734.355C100.826 734.186 99.8664 733.814 99.4809 733.814Z" fill="#1B124F"/>
<path d="M252.714 755.283C271.635 756.01 276.998 746.037 277.531 739.088C277.674 737.223 277.472 735.565 277.089 734.405C274.814 727.463 271.291 731.114 269.075 731.418C258.967 732.829 247.897 741.724 225.635 718.195C223.737 716.194 219.961 708.546 216.964 714.248C216.685 714.779 216.496 715.424 216.398 716.161C215.04 726.311 230.393 754.413 252.714 755.283Z" fill="white"/>
<g opacity="0.2">
<g opacity="0.2">
<g opacity="0.2">
<g opacity="0.2">
<path opacity="0.2" d="M252.715 755.283C271.636 756.01 276.999 746.037 277.532 739.088C239.221 761.112 222.375 724.632 216.967 714.248C215.609 724.398 230.394 754.413 252.715 755.283Z" fill="#1B124F"/>
</g>
</g>
</g>
</g>
<path d="M254.627 758.706C253.963 758.706 253.285 758.692 252.587 758.665C233.468 757.928 221.788 740.201 218.664 734.786C214.537 727.633 211.137 718.067 213.973 712.671C215.553 709.664 217.612 708.907 219.061 708.802C222.698 708.535 225.211 711.977 227.034 714.488C227.422 715.023 227.863 715.629 228.088 715.868C245.192 733.94 254.618 731.481 262.932 729.312C264.771 728.832 266.673 728.335 268.576 728.067C268.731 728.028 269.11 727.871 269.389 727.756C270.829 727.162 273.236 726.166 275.817 727.357C277.817 728.277 279.286 730.236 280.305 733.344C281.619 737.35 281.161 744.149 277.052 749.61C273.88 753.825 267.438 758.705 254.627 758.706ZM219.815 716.229C219.339 718.159 220.171 723.855 224.521 731.395C227.207 736.051 237.188 751.29 252.848 751.894C261.752 752.239 268.258 750.037 271.65 745.531C274.457 741.801 274.506 737.374 273.879 735.459C273.524 734.379 273.209 733.852 273.036 733.619C272.734 733.704 272.273 733.895 271.969 734.02C271.256 734.314 270.449 734.648 269.541 734.774C268.019 734.986 266.377 735.415 264.638 735.869C255.522 738.25 243.035 741.508 223.179 720.53C222.651 719.973 222.147 719.278 221.563 718.474C221.147 717.902 220.435 716.921 219.815 716.229ZM269.075 731.419H269.088H269.075Z" fill="#1B124F"/>
<path d="M275.252 731.526C274.009 731.526 272.83 730.782 272.336 729.557C272.283 729.423 266.872 715.953 261.192 697.219C260.687 695.555 261.625 693.797 263.286 693.292C264.942 692.785 266.701 693.726 267.207 695.389C272.799 713.837 278.112 727.067 278.165 727.199C278.815 728.811 278.037 730.645 276.428 731.296C276.042 731.452 275.644 731.526 275.252 731.526Z" fill="#1B124F"/>
<path d="M185.537 810.208C184.5 810.208 183.484 809.696 182.885 808.756C181.952 807.294 182.373 805.355 183.829 804.417C184.687 803.865 205.239 790.985 241.932 798.419C243.633 798.764 244.732 800.426 244.388 802.13C244.044 803.834 242.386 804.932 240.685 804.59C206.673 797.697 187.412 809.596 187.222 809.717C186.699 810.05 186.114 810.208 185.537 810.208Z" fill="#1B124F"/>
<path d="M158.481 644.414C157.68 644.414 156.879 644.11 156.266 643.499C142.894 630.196 151.337 616.72 160.278 602.453C165.667 593.85 171.777 584.1 174.525 572.827C179.051 554.254 173.719 544.188 168.562 534.455C165.518 528.711 162.644 523.285 161.986 516.574C158.002 475.979 161.808 356.993 161.973 351.948C162.029 350.211 163.411 348.836 165.216 348.904C166.95 348.961 168.311 350.415 168.254 352.153C168.214 353.384 164.298 475.772 168.241 515.959C168.778 521.432 171.25 526.099 174.115 531.504C179.555 541.776 185.725 553.419 180.631 574.32C177.642 586.584 171.245 596.792 165.601 605.799C155.935 621.227 151.326 629.712 160.696 639.033C161.927 640.258 161.934 642.25 160.711 643.484C160.097 644.104 159.288 644.414 158.481 644.414Z" fill="#1B124F"/>
<path d="M165.96 325.549C158.72 324.881 139.961 340.044 142.956 349.391C147.042 362.143 182.91 359.015 187.174 349.432C190.256 342.503 175.486 326.427 165.96 325.549Z" fill="#1297E0"/>
<g opacity="0.3">
<g opacity="0.3">
<g opacity="0.3">
<g opacity="0.3">
<path opacity="0.3" d="M165.96 325.549C158.72 324.881 139.961 340.044 142.956 349.391C147.042 362.143 182.91 359.015 187.174 349.432C190.256 342.503 175.486 326.427 165.96 325.549Z" fill="#1B124F"/>
</g>
</g>
</g>
</g>
<path d="M162.702 361.294C161.788 361.294 160.906 361.27 160.059 361.224C149.093 360.627 141.656 356.701 139.654 350.453C138.268 346.128 139.836 340.969 144.188 335.534C149.763 328.572 159.99 321.515 166.279 322.09C174.26 322.826 183.955 331.415 188.363 338.95C191.065 343.571 191.749 347.685 190.342 350.846C187.032 358.287 173.026 361.293 162.702 361.294ZM165.423 328.999C162.537 328.999 154.72 333.489 149.599 339.883C146.895 343.259 145.647 346.417 146.259 348.329C147.302 351.583 152.734 353.866 160.436 354.285C171.665 354.898 182.52 351.357 184.006 348.018C184.266 347.433 184.214 345.606 182.376 342.462C178.592 335.991 170.46 329.454 165.643 329.009C165.573 329.002 165.499 328.999 165.423 328.999Z" fill="#1B124F"/>
<g opacity="0.2">
<g opacity="0.2">
<g opacity="0.2">
<g opacity="0.2">
<path opacity="0.2" d="M194.767 803.956C199.263 802.378 204.489 800.98 209.907 800.004C189.644 806.971 201.748 865.627 178.603 873.773C154.331 882.331 124.321 817.324 124.321 817.324C121.465 810.755 119.044 804.277 116.994 797.888C122.733 806.65 130.431 814.245 137.462 822.122C146.416 832.155 159.147 845.177 173.428 835.285C179.576 831.026 181.152 823.829 182.727 817.234C184.61 809.331 186.762 806.766 194.767 803.956Z" fill="#1B124F"/>
</g>
</g>
</g>
</g>
<g opacity="0.2">
<g opacity="0.2">
<g opacity="0.2">
<g opacity="0.2">
<path opacity="0.2" d="M295.864 837.851C262.05 858.045 238.559 799.325 214.172 799.325C222.011 798.273 229.978 798.209 236.51 799.902C249.075 803.161 258.002 815.362 270.67 818.71C288.666 823.444 291.317 802.391 293.494 789.87C293.853 787.804 294.135 785.315 294.724 782.993C309.672 835.209 295.864 837.851 295.864 837.851Z" fill="#1B124F"/>
</g>
</g>
</g>
</g>
<g opacity="0.2">
<g opacity="0.2">
<g opacity="0.2">
<g opacity="0.2">
<path opacity="0.2" d="M308.403 755.282C305.803 754.961 303.05 753.396 300.168 750.035C294.429 743.351 292.521 731.394 291.188 723.106C289.677 713.663 287.858 704.131 284.643 694.984C276.715 672.481 261.05 670.441 240.454 664.232C220.781 658.292 199.826 650.492 189.066 631.556C176.732 609.848 172.492 585.87 171.288 560.956C170.507 544.714 164.116 507.778 143.673 521.505C142.072 522.57 140.394 523.956 138.627 525.675L144.275 520.017L146.312 517.977C145.915 518.015 145.518 518.002 145.134 517.938C151.794 502.274 159.402 491.754 167.023 491.92C187.517 492.382 197.764 564.855 197.764 564.855C276.1 531.55 304.509 635.545 309.454 665.604C313.616 690.968 317.254 740.169 308.403 755.282Z" fill="#1B124F"/>
</g>
</g>
</g>
</g>
<g opacity="0.2">
<g opacity="0.2">
<g opacity="0.2">
<g opacity="0.2">
<g opacity="0.2">
<path opacity="0.2" d="M384.061 596.415C351.128 642.34 269.241 641.97 232.131 596.412C190.887 545.78 204.8 499.047 230.103 467.604C228.056 467.982 226.369 468.564 225.243 469.492C191.832 497.026 174.117 561.089 221.514 618.449C286.058 696.56 362.603 649.86 367.522 641.373C368.073 640.423 383.669 597.472 384.061 596.415Z" fill="#1B124F"/>
</g>
</g>
</g>
</g>
</g>
<g opacity="0.6">
<g opacity="0.6">
<g opacity="0.6">
<g opacity="0.6">
<path opacity="0.6" d="M310.135 470.683C310.135 470.683 298.986 466.049 265.011 472.118C241.985 476.232 231.42 470.689 226.877 468.351C226.877 468.351 251.507 469.147 267.603 463.629C283.699 458.113 310.135 470.683 310.135 470.683Z" fill="white"/>
</g>
</g>
</g>
</g>
<g opacity="0.2">
<g opacity="0.2">
<g opacity="0.2">
<g opacity="0.2">
<path opacity="0.2" d="M313.15 459.013C313.15 459.013 291.328 451.173 287.693 439.816L275.764 460.901C275.764 460.901 305.28 460.981 309.99 468.393L313.15 459.013Z" fill="#1B124F"/>
</g>
</g>
</g>
</g>
<path d="M272.04 659.918C271.895 659.918 271.749 659.909 271.602 659.889C240.69 655.764 217.847 643.544 203.707 623.57C181.029 591.539 188.985 551.517 189.335 549.829C189.703 548.046 191.456 546.906 193.226 547.271C195.005 547.641 196.148 549.386 195.78 551.168C195.679 551.666 188.111 590.196 209.108 619.803C222.153 638.195 243.471 649.484 272.471 653.355C274.273 653.595 275.538 655.253 275.299 657.057C275.078 658.714 273.665 659.918 272.04 659.918Z" fill="#1B124F"/>
<path d="M312.161 690.617C307.201 690.617 302.207 690.345 297.187 689.797C261.035 685.846 228.149 667.994 204.588 639.53C181.025 611.066 169.603 575.39 172.422 539.073C175.244 502.717 191.997 470.074 219.594 447.154C276.534 399.866 362.45 409.224 411.113 468.014C459.777 526.803 453.045 613.102 396.106 660.39C372.336 680.13 342.973 690.617 312.161 690.617ZM303.678 423.59C275.285 423.59 247.005 432.954 223.796 452.229C197.582 474 181.667 505.023 178.984 539.584C176.297 574.184 187.19 608.184 209.654 635.322C232.119 662.46 263.458 679.478 297.901 683.243C332.307 687.002 365.692 677.086 391.905 655.314C446.051 610.347 452.395 528.212 406.048 472.221C379.566 440.231 341.523 423.59 303.678 423.59Z" fill="white"/>
<g opacity="0.6">
<g opacity="0.6">
<g opacity="0.6">
<g opacity="0.6">
<path opacity="0.6" d="M221.172 490.777C220.242 493.98 220.367 496.832 221.713 499.115C226.999 508.081 249.169 504.772 271.226 491.725C293.284 478.678 306.881 460.83 301.595 451.864C299.107 447.643 292.884 446.14 284.69 447.095C333.621 433.718 386.664 454.295 412.694 500.586C419.553 512.795 423.966 525.774 426.084 538.94C425.372 521.058 420.571 503.148 411.293 486.647C380.079 431.116 309.987 412.59 254.736 445.27C211.63 470.768 190.297 519.901 197.832 566.643C196.752 539.646 204.981 512.705 221.172 490.777Z" fill="white"/>
</g>
</g>
</g>
</g>
<g opacity="0.3">
<g opacity="0.3">
<g opacity="0.3">
<g opacity="0.3">
<path opacity="0.3" d="M212.7 606.671C244.892 661.06 315.251 677.615 369.837 643.65C414.477 615.871 434.756 562.923 423.069 514.803C429.366 559.75 408.923 606.844 367.71 632.488C313.124 666.454 242.765 649.898 210.574 595.51C204.706 585.588 200.515 575.094 197.909 564.359C199.952 578.96 204.816 593.329 212.7 606.671Z" fill="white"/>
</g>
</g>
</g>
</g>
<path d="M3.85596 189.35C14.7944 179.204 29.2442 221.713 26.8065 238.084C26.4277 240.551 25.6824 242.424 24.4825 243.423C23.5605 244.22 22.3731 244.486 20.8701 244.119C21.729 244.675 22.6007 245.182 23.5227 245.637C25.0511 246.396 26.6553 247.004 28.3225 247.434C71.5081 321.091 165.558 346.698 239.993 305.163L251.083 307.782C255.062 308.718 259.23 307.719 262.35 305.062L278.922 290.981C281.915 288.438 283.583 284.655 283.444 280.72L283.065 269.891C304.778 244.398 317.598 212.73 320.15 179.9C320.175 179.697 320.188 179.507 320.2 179.305C326.579 175.003 330.773 167.982 331.631 160.214C332.996 147.676 331.164 135.239 326.339 123.043C324.065 117.312 319.923 112.466 314.516 109.493C312.268 108.266 309.982 106.836 307.658 105.242C305.359 99.9156 302.731 94.6905 299.789 89.5413C284.53 62.897 262.653 42.4265 237.417 29.0032C236.267 26.1566 235.295 22.9557 234.524 20.0711C232.933 14.1123 228.613 9.216 222.84 7.06519C215.565 4.37038 208.05 2.90289 200.18 3.18126C194.358 3.39621 189.053 6.40734 185.566 11.076C185.339 11.3795 185.099 11.6959 184.846 12.0122H184.834C151.664 7.44493 116.816 13.4545 85.5285 31.4323C30.5074 63.0488 1.83503 122.992 7.32953 182.392C5.81383 184.53 4.65156 186.883 3.85596 189.35Z" fill="#1297E0"/>
<path d="M218.533 143.076C220.662 145.433 221.966 148.258 222.704 151.247C223.483 154.235 223.61 157.443 223.019 160.61C222.441 163.77 221.013 166.89 218.833 169.352C216.677 171.821 213.751 173.573 210.592 173.941L210.506 173.951C210.402 173.963 210.308 173.889 210.296 173.785C210.288 173.713 210.321 173.645 210.377 173.606C212.689 172.017 214.685 169.995 216.178 167.645C217.669 165.289 218.627 162.618 219.116 159.873C219.65 157.131 219.753 154.305 219.549 151.505C219.329 148.704 218.844 145.92 218.151 143.185C218.125 143.083 218.186 142.98 218.287 142.954C218.358 142.937 218.428 142.96 218.474 143.011L218.533 143.076Z" fill="#1B124F"/>
<g opacity="0.65">
<g opacity="0.65">
<g opacity="0.65">
<g opacity="0.65">
<path opacity="0.65" d="M6.7349 172.638C8.27603 119.792 36.4053 68.9704 85.5273 40.7448C116.814 22.7669 151.663 16.7574 184.832 21.3244H184.845C185.098 21.0081 185.338 20.6918 185.565 20.3882C189.051 15.7198 194.356 12.7087 200.179 12.4935C208.048 12.2151 215.564 13.6829 222.839 16.3777C228.612 18.5285 232.931 23.4245 234.523 29.3836C235.293 32.2682 236.266 35.469 237.415 38.3156C262.652 51.739 284.529 72.2095 299.787 98.8538C302.73 104.003 305.358 109.228 307.656 114.555C309.981 116.149 312.267 117.578 314.515 118.805C319.921 121.779 324.064 126.624 326.338 132.355C329.521 140.402 331.403 148.537 331.921 156.748C332.628 145.387 330.721 134.114 326.338 123.044C324.064 117.313 319.921 112.467 314.515 109.494C312.267 108.267 309.981 106.837 307.656 105.243C305.358 99.9166 302.73 94.6915 299.787 89.5423C284.529 62.898 262.652 42.4275 237.415 29.0041C236.266 26.1575 235.294 22.9567 234.523 20.0721C232.931 14.1133 228.612 9.21697 222.839 7.06617C215.564 4.37135 208.048 2.90387 200.179 3.18224C194.357 3.39719 189.051 6.40832 185.565 11.0769C185.338 11.3805 185.098 11.6968 184.845 12.0132H184.832C151.663 7.44591 116.814 13.4554 85.5273 31.4333C33.5252 61.3164 5.05494 116.515 6.7349 172.638Z" fill="white"/>
</g>
</g>
</g>
</g>
<g opacity="0.55">
<g opacity="0.55">
<g opacity="0.55">
<g opacity="0.55">
<path opacity="0.55" d="M6.77261 183.19C6.96204 182.924 7.13875 182.658 7.32844 182.393C7.02536 179.141 6.83593 175.89 6.73472 172.638C6.62106 176.143 6.64623 179.66 6.77261 183.19Z" fill="white"/>
</g>
</g>
</g>
<g opacity="0.55">
<g opacity="0.55">
<g opacity="0.55">
<path opacity="0.55" d="M6.17996 185.156L6.11002 183.213C5.97676 179.437 5.96378 175.971 6.0724 172.617L7.39708 172.617C7.50067 175.964 7.6999 179.233 7.98842 182.331L8.01041 182.576L6.17996 185.156Z" fill="#1B124F"/>
</g>
</g>
</g>
</g>
<path d="M321.619 181.396C320.871 182.006 320.063 182.553 319.238 183.066L318.636 183.437L318.131 183.707L317.131 184.262C315.824 185.042 314.509 185.851 313.28 186.842C310.828 188.825 308.689 191.392 306.762 194.401C306.652 194.575 306.421 194.626 306.247 194.516C306.13 194.441 306.069 194.31 306.075 194.18C306.273 190.524 307.619 186.824 309.972 183.707C311.156 182.164 312.558 180.733 314.196 179.626C314.606 179.353 315.021 179.083 315.456 178.852L316.637 178.21C317.317 177.835 318.015 177.493 318.773 177.215L319.162 177.072C320.467 176.592 321.914 177.263 322.393 178.571C322.773 179.607 322.427 180.735 321.619 181.396Z" fill="#1B124F"/>
<path d="M306.224 107.321C305.185 106.948 303.996 106.339 302.831 105.699C301.651 105.065 300.501 104.282 299.344 103.49C298.187 102.697 297.043 101.837 295.941 100.896C294.857 99.9375 293.767 98.91 292.954 97.6312C292.842 97.4544 292.894 97.2204 293.07 97.1079C293.17 97.0439 293.29 97.0333 293.394 97.0683L293.417 97.0763C294.746 97.5311 296.051 97.8835 297.376 98.246C298.692 98.6165 300.013 98.979 301.331 99.3853C302.647 99.7955 303.982 100.193 305.267 100.781C306.558 101.373 307.835 102.001 309.088 103.152C310.123 104.102 310.193 105.712 309.245 106.748C308.532 107.526 307.449 107.76 306.515 107.426L306.224 107.321Z" fill="#1B124F"/>
<path d="M327.114 172.422C329.569 168.837 331.142 164.647 331.629 160.208C332.993 147.674 331.157 135.246 326.341 123.05C325.218 120.21 323.638 117.6 321.675 115.326C303.935 108.825 313.579 182.468 327.114 172.422Z" fill="#1297E0"/>
<g opacity="0.3">
<g opacity="0.3">
<g opacity="0.3">
<g opacity="0.3">
<path opacity="0.3" d="M321.45 171.917C323.18 168.83 324.279 165.388 324.683 161.795C326.047 149.257 324.216 136.821 319.391 124.625C318.368 122.056 316.978 119.665 315.261 117.552C308.49 127.699 313.189 164.199 321.45 171.917Z" fill="#1B124F"/>
</g>
</g>
</g>
</g>
<path d="M324.574 175.35C323.063 175.35 321.559 174.717 320.181 173.46C311.028 165.107 306.549 128.089 313.333 116.874C315.48 113.325 318.686 112.107 322.359 113.456C322.676 113.572 322.958 113.767 323.18 114.023C325.297 116.477 326.983 119.267 328.19 122.316C333.164 134.911 334.985 147.732 333.605 160.423C333.087 165.131 331.41 169.668 328.752 173.546C328.628 173.728 328.474 173.888 328.298 174.019C327.1 174.908 325.835 175.35 324.574 175.35ZM327.115 172.42H327.128H327.115ZM319.568 116.895C318.635 116.895 317.679 117.371 316.732 118.937C311.035 128.353 315.215 163.543 322.857 170.518C324.037 171.595 324.839 171.539 325.675 171C327.848 167.727 329.222 163.928 329.654 159.99C330.965 147.95 329.229 135.768 324.495 123.782C323.521 121.32 322.185 119.055 320.522 117.04C320.208 116.952 319.89 116.895 319.568 116.895Z" fill="#1B124F"/>
<path d="M11.9822 234.602C14.1367 238.509 17.2067 241.764 20.8528 244.121L20.8652 244.124C37.1914 248.119 17.7152 176.493 3.85266 189.353L3.84471 189.358C2.9124 192.214 2.47473 195.238 2.53063 198.283C2.78073 211.401 5.88816 223.56 11.9822 234.602Z" fill="#1297E0"/>
<g opacity="0.3">
<g opacity="0.3">
<g opacity="0.3">
<g opacity="0.3">
<path opacity="0.3" d="M10.2086 195.753C10.4614 208.873 13.5686 221.031 19.6568 232.076C21.3746 235.175 23.6735 237.883 26.3891 240.033C29.6732 228.318 20.5282 195.98 10.8909 189.111C10.3981 191.274 10.1708 193.501 10.2086 195.753Z" fill="#1B124F"/>
</g>
</g>
</g>
</g>
<path d="M22.1343 246.816C21.5352 246.817 20.9105 246.739 20.2662 246.581C20.2235 246.571 20.1679 246.555 20.1266 246.543C19.899 246.474 19.6815 246.374 19.4822 246.245C15.4512 243.639 12.0929 240.036 9.77103 235.825C3.55007 224.553 0.264076 211.938 0.00549911 198.329C-0.0578205 194.972 0.425952 191.689 1.44278 188.571C1.59167 188.115 1.86588 187.714 2.22804 187.411C5.24858 184.679 8.96907 184.569 12.462 187.113C23.1603 194.91 33.4163 231.221 28.1395 242.617C26.8729 245.35 24.7396 246.816 22.1343 246.816ZM21.8587 241.753C22.4344 241.842 22.9905 241.707 23.5559 240.487C27.8494 231.214 18.2532 197.592 9.48887 191.205C7.93131 190.069 6.95079 190.155 6.0349 190.821C5.33759 193.197 5.00907 195.687 5.0557 198.234C5.29891 211.009 8.37376 222.833 14.1925 233.376C14.1925 233.377 14.1925 233.378 14.1939 233.378C16.0426 236.732 18.6866 239.62 21.8587 241.753Z" fill="#1B124F"/>
<path d="M163.871 328.221C149.763 328.222 135.572 326.339 121.614 322.534C81.4142 311.576 47.596 285.88 26.2549 250.115C23.7621 249.336 21.3779 248.21 19.1527 246.757C17.8694 245.919 17.3766 244.277 17.986 242.868C18.5953 241.461 20.1333 240.699 21.6158 241.062C22.2289 241.213 22.5084 241.282 22.9975 240.228C26.8629 231.884 18.4697 198.516 9.12599 191.705C7.47014 190.496 6.78051 190.927 5.99153 191.66C4.94239 192.633 3.37053 192.776 2.16507 192.004C0.959346 191.234 0.425236 189.746 0.865029 188.383C1.64897 185.954 2.73442 183.662 4.0991 181.554C-1.19061 119.575 30.0676 59.6733 83.964 28.7027C114.439 11.1908 148.809 4.27613 183.46 8.6563C187.611 3.40652 193.626 0.273584 200.065 0.0363446C207.963 -0.240169 215.768 1.09118 223.931 4.11399C230.597 6.5973 235.69 12.2576 237.559 19.2585C238.324 22.1176 239.117 24.641 239.921 26.777C266.046 40.9187 287.672 62.0574 302.514 87.9756C305.377 92.9831 307.951 98.0829 310.175 103.149C312.217 104.522 314.18 105.725 316.019 106.729C321.984 110.009 326.683 115.388 329.26 121.881C334.309 134.645 336.159 147.656 334.755 160.555C333.847 168.774 329.669 176.145 323.217 181.016C320.466 213.93 307.382 245.779 286.248 270.997L286.584 280.611C286.759 285.538 284.707 290.194 280.954 293.382L264.383 307.463C260.535 310.741 255.293 312.007 250.365 310.847L240.451 308.506C216.635 321.564 190.401 328.221 163.871 328.221ZM28.04 244.078C28.3958 244.19 28.754 244.294 29.1151 244.388C29.921 244.598 30.6107 245.12 31.0322 245.84C73.0081 317.437 166.06 342.814 238.463 302.414C239.148 302.032 239.947 301.918 240.713 302.1L251.803 304.719C254.799 305.423 257.976 304.655 260.313 302.664L276.888 288.581C279.165 286.648 280.408 283.824 280.302 280.833L279.923 270.001C279.896 269.215 280.163 268.447 280.673 267.848C301.73 243.122 314.653 211.594 317.064 179.072C317.135 178.11 317.644 177.233 318.443 176.694C324.077 172.895 327.744 166.762 328.506 159.867C329.797 148.003 328.084 136.002 323.416 124.203C321.38 119.07 317.681 114.825 313.003 112.252C310.764 111.03 308.364 109.543 305.88 107.839C305.391 107.503 305.007 107.036 304.772 106.491C302.558 101.362 299.963 96.1858 297.06 91.1056C282.615 65.8808 261.479 45.3665 235.942 31.7834C235.288 31.436 234.779 30.8692 234.502 30.1832C233.46 27.6033 232.446 24.4749 231.486 20.885C230.142 15.851 226.501 11.7882 221.744 10.0163C214.37 7.28487 207.341 6.08063 200.29 6.32796C195.55 6.5023 191.099 8.92007 188.081 12.9616C187.831 13.2965 187.57 13.6399 187.294 13.9841C186.609 14.8399 185.49 15.2791 184.404 15.1315C150.533 10.4669 116.878 17.0472 87.091 34.164C34.9959 64.0996 4.9151 122.169 10.4583 182.102C10.5283 182.852 10.3264 183.601 9.89165 184.216C9.72607 184.449 9.56446 184.685 9.4092 184.925C10.5516 185.231 11.699 185.794 12.8245 186.614C23.9587 194.731 34.1966 231.012 28.6986 242.878C28.5005 243.306 28.2806 243.706 28.04 244.078Z" fill="#1B124F"/>
<path d="M48.0974 256.525C44.982 254.302 41.7927 252.636 38.5089 251.799C36.8716 251.365 35.2189 251.179 33.5853 251.042C32.8694 251 31.6558 250.935 30.6729 250.738C29.6465 250.556 28.6392 250.284 27.6812 249.889C26.3793 249.352 25.7583 247.86 26.294 246.556C26.737 245.478 27.8328 244.866 28.9352 244.99L28.9622 244.994L34.1952 245.587C36.2988 245.875 38.3345 246.595 40.1917 247.559C43.9268 249.493 46.8732 252.562 48.6464 256.055C48.7391 256.238 48.6665 256.462 48.4834 256.555C48.356 256.62 48.2063 256.602 48.0974 256.525Z" fill="#1B124F"/>
<path d="M19.0549 164.585C18.2344 168.172 16.9781 171.599 15.4131 174.905C14.6223 176.553 13.7853 178.194 12.7587 179.722C12.2556 180.492 11.712 181.239 11.1249 181.952C10.8432 182.307 10.5041 182.673 10.2296 182.987C9.96708 183.28 9.69155 183.565 9.39641 183.84L9.21069 184.013C8.18645 184.97 6.582 184.913 5.62744 183.887C4.86416 183.066 4.74997 181.87 5.25812 180.937C5.49576 180.502 5.75355 180.076 6.02378 179.657C6.28633 179.264 6.5049 178.939 6.7656 178.59C7.2552 177.891 7.77421 177.214 8.29746 176.533C9.3315 175.166 10.4585 173.845 11.5546 172.481C13.7626 169.764 15.9687 166.977 18.414 164.252C18.5515 164.098 18.7871 164.085 18.9405 164.223C19.0446 164.317 19.0835 164.457 19.0549 164.585Z" fill="#1B124F"/>
<path d="M185.46 11.0276C183.869 12.9759 181.044 14.7971 178.038 16.8975L185.46 11.0276Z" fill="#FCE071"/>
<path d="M178.041 19.4277C177.242 19.4277 176.457 19.0501 175.966 18.345C175.167 17.1984 175.448 15.6213 176.593 14.822L177.81 13.9765C180.148 12.3594 182.355 10.833 183.505 9.42519C184.388 8.34275 185.98 8.1838 187.06 9.0688C188.139 9.9538 188.298 11.5481 187.414 12.6295C185.813 14.5906 183.321 16.3147 180.682 18.1404L179.483 18.9723C179.043 19.2802 178.539 19.4277 178.041 19.4277Z" fill="#1B124F"/>
<path d="M237.416 29.0034C238.161 30.8506 238.994 32.5331 239.879 33.8997L237.416 29.0034Z" fill="#FCE071"/>
<path d="M239.881 36.4308C239.053 36.4308 238.242 36.024 237.758 35.2757C236.81 33.81 235.907 32.0188 235.072 29.9516C234.55 28.6558 235.175 27.1812 236.468 26.6579C237.764 26.133 239.234 26.7608 239.758 28.0561C240.461 29.8009 241.236 31.3458 241.998 32.5251C242.756 33.6978 242.423 35.2643 241.252 36.0243C240.828 36.2992 240.352 36.4308 239.881 36.4308Z" fill="#1B124F"/>
<g opacity="0.1">
<g opacity="0.1">
<g opacity="0.1">
<g opacity="0.1">
<path opacity="0.1" d="M145.55 278.848C145.626 279.189 145.727 279.531 145.828 279.873C149.87 292.879 168.842 298.534 188.193 292.486C200.988 288.501 210.752 280.391 214.718 271.598C216.764 267.094 217.282 262.413 215.918 258.011C211.876 245.017 192.904 239.362 173.554 245.397C154.708 251.28 142.443 266.07 145.55 278.848Z" fill="#1B124F"/>
</g>
</g>
</g>
</g>
<g opacity="0.3">
<g opacity="0.3">
<g opacity="0.3">
<g opacity="0.3">
<path opacity="0.3" d="M145.829 279.872C146.132 280.859 146.536 281.808 147.016 282.706C150.97 273.901 160.746 265.791 173.554 261.793C191.427 256.214 208.984 260.604 214.731 271.573C216.765 267.082 217.283 262.4 215.918 258.011C211.877 245.017 192.905 239.362 173.554 245.397C154.203 251.432 141.787 266.867 145.829 279.872Z" fill="#1B124F"/>
</g>
</g>
</g>
</g>
<path d="M172.77 297.571C168.473 297.571 164.331 297.005 160.513 295.868C151.638 293.225 145.524 287.826 143.299 280.665C141.071 273.504 143.044 265.583 148.852 258.36C154.414 251.443 162.906 245.94 172.764 242.866C182.619 239.792 192.73 239.491 201.23 242.023C210.106 244.667 216.219 250.065 218.445 257.226C222.915 271.606 209.697 288.563 188.979 295.026C183.55 296.719 178.043 297.571 172.77 297.571ZM188.971 245.624C184.237 245.624 179.266 246.397 174.34 247.934C165.474 250.698 157.888 255.584 152.978 261.69C148.314 267.491 146.673 273.669 148.357 279.087C150.041 284.505 154.895 288.658 162.023 290.781C169.527 293.015 178.539 292.723 187.404 289.958C205.333 284.366 216.988 270.39 213.387 258.805C211.702 253.387 206.849 249.234 199.721 247.111C196.387 246.118 192.755 245.624 188.971 245.624Z" fill="#1B124F"/>
<g opacity="0.1">
<g opacity="0.1">
<g opacity="0.1">
<g opacity="0.1">
<path opacity="0.1" d="M201.939 155.882C206.899 141.958 200.942 127.104 188.632 122.704C176.323 118.304 162.323 126.024 157.362 139.948C152.401 153.871 158.359 168.725 170.668 173.125C182.978 177.525 196.978 169.805 201.939 155.882Z" fill="#1B124F"/>
</g>
</g>
</g>
</g>
<g opacity="0.3">
<g opacity="0.3">
<g opacity="0.3">
<g opacity="0.3">
<path opacity="0.3" d="M155.958 154.293C156.148 153.56 156.375 152.826 156.64 152.105C161.604 138.175 175.612 130.458 187.914 134.86C195.96 137.732 201.278 145.07 202.63 153.686C206.255 140.44 200.305 126.865 188.634 122.702C176.319 118.3 162.324 126.017 157.36 139.946C155.642 144.779 155.238 149.713 155.958 154.293Z" fill="#1B124F"/>
</g>
</g>
</g>
</g>
<path d="M177.835 177.017C175.108 177.018 172.395 176.553 169.78 175.619C163.102 173.232 157.882 168.072 155.081 161.091C152.327 154.222 152.251 146.394 154.868 139.049V139.05C157.485 131.704 162.491 125.693 168.965 122.123C175.544 118.495 182.845 117.812 189.524 120.198C196.203 122.585 201.423 127.744 204.222 134.726C206.977 141.594 207.053 149.422 204.436 156.768C201.819 164.112 196.813 170.124 190.339 173.693C186.337 175.9 182.069 177.017 177.835 177.017ZM181.479 124.112C178.123 124.112 174.722 125.007 171.519 126.772C166.181 129.717 162.04 134.71 159.858 140.832C159.858 140.833 159.858 140.833 159.858 140.833C157.676 146.956 157.726 153.448 159.998 159.112C162.224 164.664 166.33 168.751 171.559 170.62C176.793 172.491 182.551 171.93 187.784 169.044C193.123 166.1 197.264 161.106 199.445 154.984C201.627 148.86 201.577 142.368 199.305 136.704C197.079 131.153 192.973 127.066 187.744 125.197C185.715 124.472 183.606 124.112 181.479 124.112ZM157.363 139.941H157.376H157.363Z" fill="#1B124F"/>
<g opacity="0.1">
<g opacity="0.1">
<g opacity="0.1">
<g opacity="0.1">
<path opacity="0.1" d="M61.596 100.295C69.9823 113.177 90.3023 113.62 107.358 102.479C124.414 91.3385 131.748 72.8323 123.362 59.9513C114.975 47.0701 94.35 45.6594 77.294 56.8001C60.238 67.9408 53.2098 87.4143 61.596 100.295Z" fill="#1B124F"/>
</g>
</g>
</g>
</g>
<g opacity="0.3">
<g opacity="0.3">
<g opacity="0.3">
<g opacity="0.3">
<path opacity="0.3" d="M61.061 75.0805C63.4357 72.6513 66.1515 70.4121 69.1954 68.4258C86.2599 57.2798 106.874 58.6966 115.261 71.576C119.795 78.547 119.732 87.1627 116.018 95.3737C126.641 84.4681 130.14 70.3742 123.357 59.9492C114.97 47.0698 94.3438 45.6527 77.2918 56.799C69.7891 61.7078 64.2188 68.2234 61.061 75.0805Z" fill="#1B124F"/>
</g>
</g>
</g>
</g>
<path d="M82.6069 113.076C82.1102 113.076 81.6148 113.066 81.1207 113.046C71.5983 112.668 63.8752 108.655 59.3774 101.744H59.3761C50.2069 87.6583 57.596 66.499 75.8466 54.5768C84.576 48.8761 94.4864 46.089 103.76 46.7195C113.311 47.3725 121.06 51.5571 125.581 58.5016C130.087 65.4221 130.724 74.0577 127.376 82.8162C124.169 91.2015 117.574 98.9742 108.805 104.701C100.494 110.131 91.251 113.076 82.6069 113.076ZM63.8145 98.8457C67.3501 104.275 73.5711 107.435 81.3316 107.743C89.299 108.071 98.0349 105.401 105.911 100.256C113.751 95.1343 119.617 88.2668 122.427 80.918C125.152 73.7902 124.697 66.8585 121.143 61.4002C117.552 55.8848 111.251 52.5515 103.4 52.0144C95.2537 51.4571 86.51 53.9476 78.7418 59.0225C62.9376 69.3464 56.2416 87.2107 63.8159 98.8457H63.8145Z" fill="#1B124F"/>
<path d="M112.037 204.632C114.509 199.074 110.313 191.803 102.666 188.391C95.0191 184.979 86.8163 186.719 84.3446 192.277C81.8729 197.835 86.0683 205.107 93.7153 208.519C101.362 211.93 109.565 210.19 112.037 204.632Z" fill="#1297E0"/>
<g opacity="0.3">
<g opacity="0.3">
<g opacity="0.3">
<g opacity="0.3">
<path opacity="0.3" d="M84.3382 192.28C83.927 193.205 83.6992 194.183 83.647 195.171C87.381 192.931 93.0342 192.781 98.411 195.18C104.792 198.026 108.77 203.569 108.466 208.544C110.058 207.606 111.295 206.288 112.03 204.635C114.502 199.076 110.31 191.805 102.66 188.391C95.0106 184.979 86.8103 186.721 84.3382 192.28Z" fill="#1B124F"/>
</g>
</g>
</g>
</g>
<path d="M101.541 212.238C98.7559 212.238 95.787 211.626 92.9011 210.339C88.8224 208.52 85.4874 205.629 83.5094 202.201C81.4137 198.566 81.0632 194.755 82.5249 191.469C83.9855 188.184 87.0473 185.895 91.1469 185.026C95.0187 184.208 99.3899 184.756 103.469 186.575C112.104 190.428 116.76 198.893 113.846 205.445C111.906 209.807 107.091 212.238 101.541 212.238ZM94.7858 188.634C93.8183 188.634 92.8751 188.728 91.9709 188.92C89.1493 189.519 87.0836 190.999 86.1548 193.089C85.2246 195.18 85.5081 197.708 86.9504 200.209C88.5116 202.916 91.1999 205.223 94.518 206.703C101.15 209.663 108.194 208.37 110.216 203.825C112.237 199.278 108.485 193.171 101.852 190.211C99.5152 189.169 97.0857 188.634 94.7858 188.634ZM84.3397 192.279H84.3527H84.3397Z" fill="#1B124F"/>
<g opacity="0.3">
<g opacity="0.3">
<g opacity="0.3">
<g opacity="0.3">
<path opacity="0.3" d="M153.118 186.657C152.529 195.97 164.202 204.291 179.191 205.243C194.18 206.194 206.809 199.416 207.398 190.103C207.988 180.79 195.477 188.786 180.488 187.834C165.499 186.883 153.707 177.344 153.118 186.657Z" fill="#1B124F"/>
</g>
</g>
</g>
</g>
<g opacity="0.3">
<g opacity="0.3">
<g opacity="0.3">
<g opacity="0.3">
<path opacity="0.3" d="M189.317 28.5451C187.886 34.3885 194.351 40.9985 203.755 43.3085C213.16 45.6188 221.944 42.7545 223.375 36.9111C224.806 31.0676 215.959 34.7181 206.554 32.4078C197.149 30.0975 190.748 22.7014 189.317 28.5451Z" fill="#1B124F"/>
</g>
</g>
</g>
</g>
<g opacity="0.3">
<g opacity="0.3">
<g opacity="0.3">
<g opacity="0.3">
<path opacity="0.3" d="M74.816 128.288C77.4741 136.483 92.2493 139.019 107.817 133.953C123.386 128.887 133.851 118.137 131.193 109.942C128.535 101.747 118.615 113.492 103.047 118.558C87.4791 123.624 72.1579 120.093 74.816 128.288Z" fill="#1B124F"/>
</g>
</g>
</g>
</g>
<g opacity="0.3">
<g opacity="0.3">
<g opacity="0.3">
<g opacity="0.3">
<path opacity="0.3" d="M23.5215 245.638C25.0499 246.397 26.6541 247.004 28.3213 247.434C71.5069 321.092 165.557 346.699 239.992 305.164L251.082 307.783C255.061 308.719 259.229 307.719 262.349 305.063L278.921 290.981C281.914 288.438 283.582 284.656 283.443 280.721L283.064 269.891C304.777 244.398 317.597 212.731 320.148 179.9L318.569 179.305C302.996 167.552 294.659 154.293 292.764 176.889C279.754 227.673 249.857 257.91 214.717 271.599C210.751 280.392 200.987 288.502 188.192 292.487C168.841 298.535 149.87 292.879 145.827 279.873C145.727 279.532 145.625 279.19 145.55 278.848C98.7516 271.991 55.2377 242.804 38.3499 199.27C38.3499 199.27 32.7166 193.602 31.8577 201.37C30.986 209.151 34.6869 226.711 27.0706 237.465L26.8054 238.085L24.4813 243.424L23.5215 245.638Z" fill="#1B124F"/>
</g>
</g>
</g>
</g>
<g opacity="0.22">
<g opacity="0.22">
<g opacity="0.22">
<g opacity="0.22">
<path opacity="0.22" d="M193.394 75.1896C186.242 89.1803 207.393 93.7335 228.763 104.694C250.133 115.653 263.631 128.869 270.783 114.879C277.935 100.888 266.408 80.6615 245.038 69.7015C223.668 58.7415 200.546 61.1989 193.394 75.1896Z" fill="white"/>
</g>
</g>
</g>
</g>
<path d="M138.262 291.114C140.003 292.37 141.388 293.607 142.75 294.735C143.464 295.268 144.069 295.859 144.771 296.334C145.423 296.856 146.08 297.353 146.774 297.789C147.425 298.291 148.135 298.697 148.841 299.133L149.923 299.779C150.306 299.95 150.673 300.179 151.051 300.405C152.593 301.23 154.256 302.013 156.113 303.078L156.171 303.111C156.235 303.148 156.257 303.23 156.221 303.294C156.196 303.338 156.15 303.362 156.103 303.362C154.188 303.349 152.263 303.108 150.411 302.564C148.556 302.038 146.781 301.214 145.177 300.131C141.999 297.905 139.585 294.724 138.008 291.24C137.977 291.172 138.007 291.093 138.074 291.062C138.119 291.042 138.17 291.048 138.208 291.076L138.262 291.114Z" fill="#1B124F"/>
<path d="M137.559 85.5282C137.703 82.6757 137.938 80.2789 138.075 77.8978C138.239 75.5376 138.359 73.257 138.465 70.9696C138.565 68.6818 138.642 66.3957 138.684 64.0331C138.752 61.6488 138.734 59.2607 138.781 56.412L138.783 56.3183C138.785 56.2193 138.866 56.1405 138.965 56.1421C139.031 56.1432 139.088 56.1803 139.118 56.2342C140.366 58.4803 141.191 60.9485 141.673 63.4692C142.166 65.9899 142.354 68.5672 142.265 71.1354C142.134 73.7018 141.722 76.2538 141.013 78.7223C140.316 81.1934 139.28 83.5756 137.883 85.7269C137.829 85.81 137.718 85.8336 137.635 85.7795C137.58 85.7434 137.551 85.6818 137.554 85.6203L137.559 85.5282Z" fill="#1B124F"/>
<path d="M49.1566 91.6655C50.2344 94.3099 51.0363 96.5804 51.9202 98.7949C52.7717 101.002 53.629 103.118 54.5017 105.235C55.3797 107.349 56.2783 109.452 57.2411 111.609C58.1888 113.797 59.2168 115.952 60.3804 118.552L60.4188 118.637C60.459 118.728 60.4188 118.834 60.3287 118.874C60.2683 118.901 60.201 118.892 60.1509 118.856C58.0696 117.352 56.2776 115.467 54.7735 113.39C53.2594 111.317 51.9973 109.062 50.99 106.699C50.0219 104.319 49.3145 101.833 48.911 99.2967C48.4953 96.7629 48.4249 94.1655 48.7785 91.6238C48.7923 91.5256 48.8829 91.4572 48.981 91.4707C49.0464 91.4797 49.0986 91.5232 49.1222 91.5803L49.1566 91.6655Z" fill="#1B124F"/>
<path d="M366.797 543.269C437.395 568.48 417.532 589.644 354.069 620.383C307.782 681.917 269.88 669.597 225.952 621.45C171.593 555.149 201.782 516.248 247.433 493.457C290.587 435.623 309.913 435.491 326.231 495.638C344.828 507.845 358.605 523.537 366.797 543.269Z" fill="white"/>
<path d="M366.798 543.267C363.678 535.754 359.744 528.83 355.048 522.457C352.649 523.983 350.322 525.679 348.096 527.575C322.121 549.697 319.005 588.695 341.134 614.679C344.19 618.266 347.576 621.401 351.195 624.111C352.15 622.896 353.108 621.66 354.07 620.381C417.533 589.642 437.396 568.478 366.798 543.267Z" fill="#FF8500"/>
<path opacity="0.3" d="M229.762 618.201C265.524 657.396 297.297 672.838 332.844 644.033C325.889 650.242 319.087 654.756 312.381 657.725C322.45 653.268 332.734 645.337 343.428 633.405C311.991 651.689 282.994 635.654 250.761 600.317C214.375 555.934 215.869 523.838 234.533 500.626C230.248 503.285 226.198 506.127 222.451 509.158C196.064 532.858 188.221 567.527 229.762 618.201Z" fill="#1B124F"/>
<path opacity="0.56" d="M398.078 594.98C416.325 578.113 408.906 563.325 362.642 546.805C354.451 527.081 340.674 511.38 322.079 499.178C310.395 456.103 297.164 443.941 274.743 461.764C299.717 439.046 313.846 449.971 326.236 495.638C344.83 507.84 358.608 523.541 366.798 543.265C416.264 560.931 421.319 576.612 398.078 594.98Z" fill="white"/>
<path d="M267.758 576.494C271.612 577.129 277.503 584.055 277.487 587.946C277.482 589.025 276.621 589.906 275.547 590.01C272.899 590.265 270.035 589.719 266.991 588.508C266.23 588.206 265.653 587.56 265.453 586.766C264.747 583.96 264.672 581.086 265.403 578.126C265.665 577.062 266.676 576.315 267.758 576.494Z" fill="#1B124F"/>
<path d="M268.694 587.6C267.839 588.481 266.961 589.336 266.066 590.174L264.712 591.417C264.363 591.737 263.552 592.481 262.733 592.844C261.904 593.241 260.986 593.449 260.071 593.46C259.842 593.463 259.614 593.453 259.387 593.432C259.175 593.409 258.985 593.38 258.787 593.344C258.394 593.272 258.009 593.174 257.636 593.053C256.139 592.568 254.883 591.747 253.825 590.85C253.558 590.623 253.309 590.398 253.056 590.152C252.789 589.894 252.537 589.624 252.299 589.342C251.827 588.776 251.412 588.163 251.075 587.51C250.412 586.199 250.03 584.735 250.051 583.255C250.077 581.775 250.467 580.322 251.298 579.089C252.119 577.85 253.329 576.973 254.569 576.465C254.998 576.289 255.487 576.495 255.663 576.923C255.817 577.298 255.679 577.72 255.355 577.938L255.345 577.944C254.418 578.566 253.683 579.336 253.286 580.238C252.89 581.132 252.75 582.171 252.869 583.136C252.987 584.11 253.377 585.048 253.936 585.857C254.213 586.265 254.527 586.646 254.879 586.987C255.056 587.157 255.24 587.317 255.432 587.467C255.637 587.629 255.861 587.794 256.078 587.942C256.952 588.545 257.858 588.978 258.728 589.155C258.945 589.199 259.161 589.23 259.375 589.245L259.688 589.259C259.767 589.259 259.845 589.255 259.922 589.247C260.232 589.217 260.529 589.113 260.795 588.962C261.094 588.798 261.189 588.691 261.731 588.175L263.082 586.929C263.991 586.108 264.917 585.303 265.867 584.526C266.76 583.795 268.078 583.927 268.809 584.82C269.489 585.651 269.423 586.848 268.694 587.6Z" fill="#1B124F"/>
<path d="M263.921 591.317C263.615 592.419 263.236 593.423 263.063 594.202C262.973 594.598 262.934 594.955 262.935 595.341C262.938 595.726 262.985 596.149 263.067 596.516C263.423 598.069 264.524 599.689 265.902 600.811C266.595 601.376 267.374 601.819 268.171 602.057C268.573 602.176 268.964 602.244 269.371 602.241C269.804 602.248 270.229 602.195 270.639 602.092C272.305 601.721 273.612 600.292 274.3 598.485L274.303 598.477C274.467 598.046 274.95 597.83 275.381 597.994C275.789 598.149 276.004 598.594 275.886 599.006C275.573 600.095 275.101 601.192 274.33 602.14C273.576 603.094 272.517 603.866 271.333 604.287C270.743 604.501 270.127 604.64 269.512 604.696C268.87 604.766 268.206 604.723 267.586 604.605C266.335 604.367 265.201 603.848 264.194 603.187C262.199 601.839 260.549 599.997 259.662 597.525C259.448 596.885 259.315 596.268 259.237 595.607C259.162 594.947 259.167 594.248 259.246 593.607C259.409 592.31 259.7 591.315 259.855 590.37C260.041 589.23 261.117 588.458 262.257 588.645C263.397 588.832 264.17 589.908 263.983 591.048C263.971 591.123 263.954 591.197 263.934 591.269L263.921 591.317Z" fill="#1B124F"/>
<path d="M224.377 622.814L224.342 622.771C200.689 593.921 191.138 567.847 195.957 545.272C200.444 524.251 217.301 506.264 246.06 491.809C270.612 458.974 286.677 446.017 299.734 448.506C311.215 450.694 319.958 464.836 328.042 494.327C346.738 506.76 360.3 522.661 368.369 541.611C398.525 552.48 412.876 562.969 413.508 574.589C414.233 587.912 397.399 601.673 355.437 622.038C334.731 649.442 314.821 663.23 294.58 664.185C273.06 665.2 251.42 652.453 224.414 622.854L224.377 622.814ZM308.264 458.691C305.318 455.233 302.231 453.231 298.954 452.607C287.793 450.48 272.421 463.462 249.11 494.703L248.813 495.1L248.37 495.322C220.532 509.219 204.272 526.319 200.04 546.145C195.502 567.405 204.751 592.28 227.535 620.081C253.257 648.263 274.499 660.953 294.382 660.015C313.403 659.117 332.383 645.742 352.405 619.124L352.708 618.721L353.163 618.501C381.373 604.837 410.109 588.961 409.34 574.815C408.812 565.11 394.668 555.434 366.1 545.232L365.228 544.921L364.873 544.066C357.083 525.301 343.697 509.594 325.09 497.38L324.428 496.946L324.221 496.181C319.218 477.742 314.013 465.442 308.264 458.691Z" fill="#1B124F"/>
<path d="M301.706 484.535C290.895 483.321 280.22 484.734 265.004 488.918C292.918 459.248 301.586 448.986 301.706 484.535Z" fill="#F982BB"/>
<g opacity="0.3">
<path opacity="0.3" d="M301.7 484.535C298.559 484.182 295.419 484.048 292.183 484.15C291.949 473.357 290.74 467.52 288.14 465.665C298.045 457.789 301.618 461.766 301.7 484.535Z" fill="#1B124F"/>
</g>
<path d="M365.529 600.57C369.867 589.516 372.273 577.184 371.933 563.67C412.933 577.262 404.255 581.665 365.529 600.57Z" fill="#F982BB"/>
<g opacity="0.3">
<path opacity="0.3" d="M391.111 587.221C391.611 583.121 385.541 579.329 371.621 574.302C371.914 570.849 372.02 567.303 371.931 563.671C401.07 573.332 405.118 578.342 391.111 587.221Z" fill="#1B124F"/>
</g>
<g opacity="0.56">
<path opacity="0.56" d="M362.96 606.778C367.296 595.724 371.387 583.958 371.047 570.437C371.901 570.719 371.047 570.438 371.854 570.716C371.36 581.491 369.1 591.456 365.523 600.569C380.752 593.138 391.331 587.946 396.077 583.553C398.256 589.485 385.863 595.598 362.96 606.778Z" fill="white"/>
</g>
<path d="M263.414 490.275C263.341 490.189 263.274 490.096 263.214 489.997C262.732 489.196 262.841 488.171 263.482 487.49L265.805 485.019C282.834 466.901 291.381 457.807 297.633 460.273C302.014 461.998 303.739 468.801 303.792 484.531C303.794 485.127 303.542 485.694 303.099 486.092C302.656 486.489 302.064 486.679 301.473 486.612C291.286 485.469 280.88 486.72 265.556 490.933C264.766 491.151 263.933 490.884 263.414 490.275ZM296.86 464.736C296.605 464.437 296.35 464.254 296.102 464.157C292.736 462.829 283.013 472.833 271.456 485.105C282.625 482.455 291.248 481.589 299.596 482.241C299.41 470.709 298.143 466.242 296.86 464.736Z" fill="#1B124F"/>
<path d="M363.94 601.921C363.445 601.34 363.302 600.527 363.586 599.805C368.056 588.416 370.163 576.275 369.847 563.72C369.83 563.041 370.144 562.396 370.691 561.991C371.236 561.586 371.945 561.473 372.59 561.687C393.175 568.511 400.603 572.857 400.968 578.3C401.444 585.359 389.748 591.069 366.445 602.444C365.672 602.822 364.746 602.686 364.114 602.102C364.052 602.045 363.994 601.984 363.94 601.921ZM374.052 566.576C374.011 576.867 372.398 586.875 369.242 596.43C385.136 588.641 397.066 582.469 396.803 578.58C396.533 574.528 382.134 569.307 374.052 566.576Z" fill="#1B124F"/>
<path d="M219.237 523.663C216.983 516.956 212.991 510.807 207.589 506.089C202.21 501.345 195.513 498.076 188.415 496.41C187.966 496.304 187.687 495.855 187.792 495.406C187.894 494.973 188.318 494.699 188.751 494.774C196.169 496.08 203.403 499.084 209.451 503.837C212.474 506.203 215.193 508.986 217.499 512.091C219.808 515.194 221.701 518.615 223.152 522.215C223.585 523.284 223.07 524.502 222.001 524.935C220.932 525.367 219.714 524.852 219.281 523.782C219.266 523.746 219.249 523.7 219.237 523.663Z" fill="#1B124F"/>
<path d="M204.877 537.488C200.702 534.214 195.699 532.008 190.366 531.053C185.031 530.077 179.446 530.289 173.974 531.204L173.968 531.205C173.513 531.282 173.083 530.975 173.007 530.519C172.934 530.086 173.212 529.674 173.632 529.57C179.16 528.219 184.958 527.541 190.779 528.161C193.684 528.469 196.579 529.106 199.368 530.102C202.157 531.095 204.835 532.447 207.313 534.099L207.324 534.106C208.284 534.746 208.544 536.043 207.904 537.003C207.264 537.963 205.967 538.223 205.007 537.583C204.964 537.553 204.917 537.52 204.877 537.488Z" fill="#1B124F"/>
<path d="M321.439 639.505C322.258 640.086 322.925 640.615 323.617 641.201C324.305 641.77 324.957 642.371 325.607 642.972C326.253 643.577 326.867 644.212 327.493 644.834C328.087 645.486 328.691 646.127 329.273 646.787C331.593 649.437 333.614 652.337 335.323 655.4C336.229 656.903 336.912 658.528 337.66 660.105C338.265 661.752 338.972 663.353 339.395 665.055C340.462 668.388 340.891 671.871 341.192 675.316C341.232 675.775 340.893 676.18 340.434 676.22C339.994 676.258 339.604 675.946 339.537 675.515L339.529 675.455C339.03 672.153 338.422 668.866 337.213 665.768C336.719 664.184 335.947 662.707 335.289 661.194C334.486 659.747 333.759 658.264 332.817 656.903C331.038 654.127 328.98 651.529 326.665 649.193L324.897 647.477C324.28 646.937 323.676 646.382 323.046 645.862C322.413 645.346 321.781 644.83 321.126 644.354C320.491 643.875 319.786 643.394 319.194 643.025L319.127 642.983C318.148 642.373 317.848 641.084 318.458 640.105C319.067 639.125 320.356 638.826 321.335 639.436C321.369 639.458 321.407 639.483 321.439 639.505Z" fill="#1B124F"/>
<path d="M304.772 651.762C305.033 651.53 305.571 651.244 306.185 651.268C306.751 651.246 307.362 651.645 307.385 651.68C307.447 651.728 307.508 651.779 307.566 651.833C307.624 651.887 307.68 651.944 307.732 652.003L307.793 652.076C307.842 652.138 307.915 652.236 307.93 652.262C307.989 652.35 308.034 652.424 308.068 652.481L308.255 652.819C308.365 653.028 308.461 653.226 308.554 653.422C308.738 653.814 308.905 654.198 309.065 654.584C309.384 655.354 309.67 656.124 309.935 656.899C310.464 658.448 310.905 660.014 311.274 661.594C312.01 664.754 312.45 667.971 312.576 671.197C312.701 674.422 312.515 677.654 311.987 680.824C311.465 683.994 310.602 687.098 309.429 690.066C309.26 690.495 308.774 690.705 308.345 690.535C307.934 690.373 307.725 689.917 307.857 689.501C309.745 683.648 310.31 677.443 309.661 671.405C309.341 668.384 308.726 665.4 307.846 662.51C307.406 661.066 306.9 659.643 306.322 658.263C306.034 657.573 305.728 656.893 305.403 656.236C305.241 655.908 305.073 655.585 304.903 655.279L304.651 654.846L304.541 654.677C304.523 654.65 304.515 654.642 304.518 654.65C304.507 654.635 304.548 654.696 304.568 654.718L304.606 654.763C304.649 654.813 304.696 654.862 304.746 654.907C304.795 654.952 304.847 654.994 304.901 655.033C304.919 655.065 305.523 655.464 306.084 655.441C306.692 655.462 307.224 655.175 307.479 654.941C306.602 655.689 305.284 655.583 304.537 654.705C303.789 653.827 303.894 652.51 304.772 651.762Z" fill="#1B124F"/>
<path d="M266.318 558.778C275.788 553.77 280.411 543.935 276.643 536.812C272.874 529.689 262.143 527.975 252.672 532.983C243.202 537.991 238.58 547.825 242.348 554.948C246.116 562.071 256.848 563.786 266.318 558.778Z" fill="#1B124F"/>
<path d="M272.76 539.065C270.608 537.417 266.98 538.448 264.656 541.369C262.331 544.289 262.191 547.993 264.342 549.641C266.492 551.29 270.121 550.258 272.445 547.338C274.77 544.418 274.911 540.714 272.76 539.065Z" fill="white"/>
<path d="M248.982 544.173C247.663 543.586 245.901 544.546 245.048 546.317C244.194 548.088 244.572 549.999 245.891 550.585C247.21 551.172 248.971 550.212 249.825 548.441C250.679 546.67 250.301 544.759 248.982 544.173Z" fill="#B199C5"/>
<path d="M319.169 586.839C325.756 591.485 325.991 602.279 319.696 610.946C313.401 619.613 302.959 622.872 296.373 618.225C289.787 613.578 289.551 602.785 295.846 594.118C302.141 585.451 312.584 582.192 319.169 586.839Z" fill="#1B124F"/>
<path d="M316.604 590.532C317.889 592.918 316.293 596.336 313.04 598.166C309.786 599.996 306.108 599.545 304.823 597.159C303.538 594.773 305.133 591.355 308.387 589.525C311.64 587.695 315.319 588.146 316.604 590.532Z" fill="white"/>
<path d="M307.784 613.188C308.153 614.584 306.924 616.17 305.04 616.731C303.156 617.292 301.33 616.615 300.961 615.219C300.592 613.824 301.82 612.237 303.704 611.677C305.588 611.116 307.415 611.793 307.784 613.188Z" fill="#B199C5"/>
</g>
<defs>
<clipPath id="clip0_1:17552">
<rect width="447" height="906" fill="white"/>
</clipPath>
</defs>
</svg>
