<svg width="468" height="699" viewBox="0 0 468 699" fill="none" xmlns="http://www.w3.org/2000/svg">
<g clip-path="url(#clip0_11:19349)">
<g opacity="0.8">
<path d="M249.355 397.012C364.984 397.012 458.72 309.14 458.72 200.746C458.72 92.3506 364.984 4.47925 249.355 4.47925C133.727 4.47925 39.9907 92.3506 39.9907 200.746C39.9907 309.14 133.727 397.012 249.355 397.012Z" fill="#00A4FF"/>
</g>
<g opacity="0.6">
<path opacity="0.6" d="M44.408 210.678C44.408 102.283 138.144 14.4121 253.773 14.4121C338.772 14.4121 411.939 61.8973 444.739 130.112C414.485 56.6199 338.421 4.47925 249.355 4.47925C133.727 4.47925 39.9907 92.3507 39.9907 200.746C39.9907 229.459 46.5705 256.73 58.3898 281.312C49.3669 259.393 44.408 235.58 44.408 210.678Z" fill="white"/>
</g>
<path d="M118.327 246.826L183.641 177.224L217.288 141.368C217.288 141.368 154.511 74.2802 111.219 92.1915C109.273 93.0003 107.49 94.0165 105.839 95.2294H105.828C72.4438 119.796 98.5237 223.92 118.327 246.826Z" fill="white"/>
<path d="M118.327 246.826L183.641 177.225C161.848 93.9846 117.163 90.2826 105.84 95.2304H105.829C72.444 119.797 98.5239 223.921 118.327 246.826Z" fill="#F99B28"/>
<path d="M139.656 224.097L183.643 177.226C171.329 130.176 151.689 108.532 134.905 99.5071C114.301 123.503 125.001 187.304 139.656 224.097Z" fill="#BA6D0F"/>
<g opacity="0.2">
<path opacity="0.2" d="M140.501 174.901L102.43 215.468C107.259 229.51 112.805 240.897 117.936 246.831L183.255 177.23C161.464 93.9797 116.771 90.2845 105.455 95.2337H105.444C103.001 97.0253 100.884 99.2423 99.0574 101.829C113.981 112.858 129.936 134.524 140.501 174.901Z" fill="#2E0044"/>
</g>
<path d="M118.327 251.305C118.297 251.305 118.266 251.304 118.236 251.304C116.965 251.278 115.766 250.714 114.936 249.754C100.093 232.586 81.2634 171.434 86.0848 128.498C88.0585 110.92 93.8076 98.5132 103.171 91.6232C103.242 91.5715 103.314 91.5208 103.387 91.4733C105.287 90.1013 107.342 88.9524 109.497 88.0558C155.137 69.1741 217.911 135.477 220.561 138.309C222.174 140.033 222.172 142.711 220.557 144.432L121.596 249.89C120.748 250.793 119.564 251.305 118.327 251.305ZM108.317 98.9616C101.145 104.346 96.6629 114.617 94.9923 129.496C90.8177 166.67 105.759 219.869 118.728 239.85L211.076 141.44C198.436 128.901 147.812 81.8959 112.933 96.3296C111.347 96.9891 109.892 97.8104 108.493 98.8386C108.435 98.8808 108.376 98.9218 108.317 98.9616Z" fill="#2E0044"/>
<path d="M118.327 251.305C118.297 251.305 118.266 251.304 118.236 251.304C116.965 251.278 115.766 250.714 114.936 249.754C100.093 232.586 81.2634 171.434 86.0848 128.498C88.0585 110.92 93.8076 98.5134 103.171 91.6234C103.503 91.3788 103.865 91.1826 104.246 91.0391C110.118 88.572 121.546 88.003 134.796 94.4222C151.41 102.47 174.122 123.172 187.977 176.09C188.367 177.579 187.964 179.165 186.91 180.288L121.596 249.89C120.748 250.793 119.564 251.305 118.327 251.305ZM108.046 99.1688C101.033 104.607 96.6419 114.806 94.9923 129.496C90.8177 166.67 105.759 219.869 118.728 239.85L178.669 175.974C165.653 128.127 145.564 109.593 130.887 102.483C119.938 97.1791 111.418 97.9272 108.046 99.1688Z" fill="#2E0044"/>
<path d="M380.386 246.826L315.072 177.224L281.426 141.368C281.426 141.368 344.203 74.2802 387.494 92.1915C389.441 93.0003 391.223 94.0165 392.874 95.2294H392.885C426.269 119.796 400.189 223.92 380.386 246.826Z" fill="white"/>
<path d="M380.386 246.826L315.072 177.225C336.865 93.9846 381.55 90.2826 392.873 95.2304H392.884C426.268 119.797 400.189 223.921 380.386 246.826Z" fill="#F99B28"/>
<path d="M359.055 224.097L315.068 177.226C327.381 130.176 347.022 108.532 363.805 99.5071C384.41 123.503 373.71 187.304 359.055 224.097Z" fill="#F36683"/>
<path d="M359.055 224.097L315.068 177.226C327.381 130.176 347.022 108.532 363.805 99.5071C384.41 123.503 373.71 187.304 359.055 224.097Z" fill="#BA6D0F"/>
<g opacity="0.2">
<path opacity="0.2" d="M357.822 174.901L395.893 215.468C391.064 229.51 385.518 240.897 380.386 246.831L315.067 177.23C336.859 93.9797 381.552 90.2845 392.868 95.2337H392.879C395.321 97.0253 397.439 99.2423 399.265 101.829C384.341 112.858 368.387 134.524 357.822 174.901Z" fill="#2E0044"/>
</g>
<path d="M380.385 251.306C379.148 251.306 377.964 250.794 377.116 249.891L278.155 144.433C276.54 142.712 276.538 140.034 278.151 138.311C280.801 135.478 343.571 69.1731 389.207 88.0536C391.369 88.9535 393.424 90.1024 395.327 91.4767C395.399 91.523 395.471 91.5727 395.541 91.6243C404.904 98.5146 410.653 110.921 412.627 128.498C417.449 171.433 398.619 232.586 383.776 249.755C382.946 250.716 381.747 251.279 380.476 251.305C380.446 251.305 380.415 251.306 380.385 251.306ZM287.634 141.439L379.984 239.852C392.953 219.871 407.895 166.67 403.72 129.498C402.049 114.618 397.566 104.347 390.394 98.962C390.335 98.9232 390.277 98.8824 390.22 98.8402C388.819 97.812 387.363 96.9896 385.771 96.3279C350.867 81.8802 300.267 128.897 287.634 141.439Z" fill="#2E0044"/>
<path d="M380.386 251.305C379.149 251.305 377.964 250.793 377.117 249.89L311.803 180.288C310.749 179.165 310.346 177.579 310.736 176.09C324.59 123.172 347.302 102.47 363.916 94.4224C377.197 87.9882 388.646 88.5744 394.506 91.0565C394.873 91.1978 395.222 91.3885 395.542 91.6234C404.905 98.5137 410.654 110.92 412.628 128.498C417.45 171.432 398.62 232.585 383.777 249.754C382.947 250.715 381.747 251.278 380.477 251.304C380.447 251.304 380.416 251.305 380.386 251.305ZM320.043 175.975L379.984 239.85C392.954 219.869 407.895 166.669 403.72 129.497C402.071 114.806 397.68 104.607 390.667 99.169C387.294 97.9263 378.775 97.1793 367.825 102.483C353.148 109.593 333.059 128.128 320.043 175.975Z" fill="#2E0044"/>
<path d="M406.223 253.2C417.132 359.374 327.826 394.395 249.307 394.395C162.645 394.395 82.1119 350.461 92.3914 253.2C99.8195 182.917 162.645 105.164 249.307 105.164C335.969 105.164 399.224 185.081 406.223 253.2Z" fill="white"/>
<g opacity="0.2">
<path opacity="0.2" d="M249.311 384.461C322.077 384.461 404.095 354.368 407.036 265.455C406.911 261.474 406.654 257.398 406.222 253.198C406.032 251.373 405.808 249.548 405.539 247.712C393.652 324.009 317.42 350.366 249.311 350.366C174.804 350.366 104.824 317.884 93.1945 246.961C92.8696 249.044 92.6118 251.127 92.3879 253.198C91.9704 257.149 91.7184 261.002 91.595 264.778C94.5523 347.024 169.319 384.461 249.311 384.461Z" fill="#2E0044"/>
</g>
<path d="M364.073 279.429C374.515 279.429 382.981 270.968 382.981 260.532C382.981 250.096 374.515 241.635 364.073 241.635C353.63 241.635 345.164 250.096 345.164 260.532C345.164 270.968 353.63 279.429 364.073 279.429Z" fill="#F36683"/>
<path d="M141.156 279.429C151.599 279.429 160.064 270.968 160.064 260.532C160.064 250.096 151.599 241.635 141.156 241.635C130.714 241.635 122.248 250.096 122.248 260.532C122.248 270.968 130.714 279.429 141.156 279.429Z" fill="#F36683"/>
<path d="M249.356 401.491C131.441 401.491 35.5098 311.437 35.5098 200.746C35.5098 90.0542 131.441 0 249.356 0C367.271 0 463.202 90.0545 463.202 200.746C463.202 311.437 367.271 401.491 249.356 401.491ZM249.356 8.95786C136.383 8.95786 44.4727 94.9926 44.4727 200.746C44.4727 306.497 136.383 392.532 249.356 392.532C362.329 392.532 454.239 306.497 454.239 200.746C454.239 94.9928 362.329 8.95786 249.356 8.95786Z" fill="#2E0044"/>
<path d="M249.307 398.875C193.036 398.875 144.497 380.811 116.136 349.316C93.3263 323.986 83.8378 291.49 87.9342 252.731C91.8267 215.899 110.047 178.347 137.924 149.704C168.687 118.094 208.243 100.685 249.307 100.685C290.201 100.685 329.82 118.387 360.863 150.527C388.412 179.05 407.035 217.261 410.681 252.744V252.743C414.776 292.598 405.437 325.447 382.922 350.376C355.087 381.197 306.385 398.875 249.307 398.875ZM249.307 109.644C167.215 109.644 104.199 184.115 96.8474 253.672C93.0297 289.798 101.76 319.962 122.798 343.324C149.462 372.935 195.573 389.916 249.307 389.916C303.853 389.916 350.129 373.317 376.268 344.373C397.011 321.406 405.59 290.885 401.764 253.658C394.619 184.109 331.652 109.644 249.307 109.644Z" fill="#2E0044"/>
<path d="M202.025 233.303C198.67 233.303 195.951 230.584 195.951 227.233C195.951 217.762 188.664 210.057 179.708 210.057C170.751 210.057 163.464 217.762 163.464 227.233C163.464 230.584 160.745 233.303 157.39 233.303C154.036 233.303 151.317 230.584 151.317 227.233C151.317 211.068 164.053 197.917 179.708 197.917C195.362 197.917 208.099 211.068 208.099 227.233C208.099 230.585 205.379 233.303 202.025 233.303Z" fill="#2E0044"/>
<path d="M340.203 233.303C336.848 233.303 334.129 230.584 334.129 227.233C334.129 217.762 326.842 210.057 317.886 210.057C308.929 210.057 301.642 217.762 301.642 227.233C301.642 230.584 298.923 233.303 295.568 233.303C292.214 233.303 289.495 230.584 289.495 227.233C289.495 211.068 302.231 197.917 317.886 197.917C333.54 197.917 346.277 211.068 346.277 227.233C346.277 230.585 343.557 233.303 340.203 233.303Z" fill="#2E0044"/>
<path d="M266.041 243.001C264.543 248.05 256.746 253.656 249.354 253.656C241.962 253.656 234.176 248.05 232.667 243.001C231.115 237.766 232.962 229.614 249.354 229.614C265.745 229.614 267.604 237.766 266.041 243.001Z" fill="#2E0044"/>
<path d="M271.408 277.715C259.891 277.715 252.601 271.207 248.416 264.227C244.159 271.207 236.724 277.715 224.934 277.715C205.438 277.715 199.296 260.176 198.773 250.903C198.633 248.433 200.523 246.318 202.995 246.179C205.46 246.033 207.574 247.921 207.72 250.382C207.84 252.263 209.34 268.756 224.934 268.756C240.701 268.756 243.901 251.874 244.03 251.155C244.412 249.018 246.273 247.455 248.443 247.455C248.449 247.455 248.454 247.455 248.459 247.455C250.637 247.463 252.495 249.026 252.862 251.171C252.987 251.874 256.174 268.756 271.408 268.756C288.843 268.756 290.925 250.123 291.006 249.33C291.254 246.869 293.449 245.073 295.915 245.323C298.377 245.572 300.172 247.769 299.923 250.229C298.963 259.736 291.768 277.715 271.408 277.715Z" fill="#2E0044"/>
<g opacity="0.2">
<path opacity="0.2" d="M234.919 297.174C234.909 297.169 235.075 297.21 235.266 297.219C235.45 297.241 235.78 297.256 236.187 297.325C237.011 297.42 238.168 297.594 239.55 297.721C240.23 297.816 240.98 297.853 241.747 297.944C242.525 297.99 243.331 298.073 244.165 298.112C245.001 298.137 245.85 298.214 246.717 298.201C247.581 298.242 248.456 298.214 249.329 298.197C250.204 298.239 251.069 298.088 251.932 298.092C252.793 298.058 253.632 297.926 254.462 297.887C255.29 297.832 256.079 297.673 256.852 297.609C257.632 297.567 258.346 297.392 259.033 297.306C259.379 297.262 259.711 297.221 260.027 297.181C260.352 297.161 260.655 297.119 260.933 297.056C261.492 296.939 262.002 296.875 262.424 296.816C263.27 296.7 263.79 296.677 263.79 296.677L264.078 296.665C265.412 296.606 266.541 297.64 266.6 298.973C266.631 299.677 266.351 300.33 265.89 300.792C265.89 300.792 265.495 301.185 264.739 301.796C264.36 302.1 263.898 302.478 263.341 302.868C262.803 303.299 262.118 303.635 261.386 304.05C260.642 304.435 259.843 304.899 258.928 305.211C258.018 305.531 257.063 305.93 256.03 306.173C254.994 306.394 253.924 306.689 252.811 306.8C252.255 306.862 251.693 306.92 251.128 306.96C250.563 307.015 249.995 307.043 249.426 307.02L247.723 306.985C247.158 306.966 246.6 306.87 246.045 306.815C244.933 306.704 243.857 306.476 242.829 306.224C241.798 305.984 240.83 305.637 239.922 305.313C239.024 304.943 238.184 304.598 237.441 304.188C236.689 303.813 236.035 303.382 235.46 303.009C234.881 302.64 234.411 302.255 234.019 301.944C233.63 301.635 233.339 301.348 233.11 301.143C232.881 300.936 232.834 300.844 232.823 300.842C231.81 300.264 231.457 298.974 232.036 297.961C232.614 296.948 233.905 296.596 234.919 297.174Z" fill="#2E0044"/>
</g>
<path d="M132.436 245.526C131.869 245.526 131.293 245.418 130.736 245.189L86.6388 227.095C84.3493 226.157 83.2552 223.54 84.1956 221.251C85.1354 218.962 87.7539 217.868 90.0434 218.809L134.14 236.903C136.43 237.842 137.524 240.458 136.584 242.747C135.872 244.479 134.2 245.526 132.436 245.526Z" fill="#2E0044"/>
<path d="M88.3428 323.062C86.5789 323.062 84.9068 322.014 84.1956 320.282C83.2552 317.994 84.3493 315.377 86.6388 314.438L130.736 296.345C133.025 295.405 135.643 296.498 136.584 298.787C137.524 301.075 136.43 303.692 134.14 304.631L90.0434 322.725C89.4864 322.953 88.9095 323.062 88.3428 323.062Z" fill="#2E0044"/>
<path d="M132.438 275.509H81.3712C78.8962 275.509 76.8899 273.504 76.8899 271.03C76.8899 268.557 78.8962 266.551 81.3712 266.551H132.438C134.913 266.551 136.919 268.557 136.919 271.03C136.919 273.504 134.913 275.509 132.438 275.509Z" fill="#2E0044"/>
<path d="M366.277 245.526C364.514 245.526 362.841 244.479 362.13 242.746C361.19 240.458 362.284 237.841 364.573 236.903L408.67 218.809C410.961 217.869 413.578 218.962 414.518 221.251C415.459 223.539 414.364 226.156 412.075 227.095L367.978 245.189C367.421 245.417 366.844 245.526 366.277 245.526Z" fill="#2E0044"/>
<path d="M410.371 323.061C409.804 323.061 409.227 322.952 408.67 322.724L364.573 304.63C362.284 303.691 361.19 301.074 362.13 298.786C363.07 296.497 365.689 295.405 367.978 296.344L412.075 314.437C414.364 315.376 415.459 317.993 414.518 320.281C413.807 322.013 412.135 323.061 410.371 323.061Z" fill="#2E0044"/>
<path d="M417.343 275.509H366.276C363.801 275.509 361.795 273.504 361.795 271.03C361.795 268.557 363.801 266.551 366.276 266.551H417.343C419.818 266.551 421.824 268.557 421.824 271.03C421.824 273.504 419.818 275.509 417.343 275.509Z" fill="#2E0044"/>
<g opacity="0.6">
<path opacity="0.6" d="M203.102 53.7499C198.142 41.4378 164.168 42.8326 124.234 70.5456C98.4044 88.4706 72.6923 123.756 80.9787 134.929C89.265 146.103 119.519 113.943 141.295 100.706C173.412 81.1828 211.221 73.9047 203.102 53.7499Z" fill="white"/>
</g>
<g opacity="0.6">
<path opacity="0.6" d="M78.9241 174.69C80.1268 167.785 76.7299 161.427 71.3369 160.489C65.944 159.55 60.5971 164.387 59.3945 171.292C58.1918 178.197 61.5887 184.555 66.9816 185.493C72.3746 186.431 77.7214 181.594 78.9241 174.69Z" fill="white"/>
</g>
<g opacity="0.17">
<path opacity="0.17" fill-rule="evenodd" clip-rule="evenodd" d="M264.088 596.151C376.704 596.151 468.001 619.173 468.001 647.575C468.001 675.977 376.704 699.001 264.088 699.001C151.47 699.001 60.1763 675.977 60.1763 647.575C60.1763 619.173 151.47 596.151 264.088 596.151Z" fill="#2E0044"/>
</g>
<path fill-rule="evenodd" clip-rule="evenodd" d="M153.857 528.17C155.849 427.043 156.847 376.477 156.847 376.477C147.673 372.992 141.105 363.963 136.219 362.04L136.27 551.966C140.542 542.049 146.403 534.12 153.857 528.17Z" fill="#B6BDD3"/>
<path d="M135.72 554.642L135.667 361.23L136.421 361.528C138.555 362.367 140.925 364.443 143.668 366.846C147.48 370.186 151.801 373.971 157.044 375.961L157.407 376.101L154.404 528.44L154.202 528.602C146.855 534.468 140.992 542.402 136.779 552.184L135.72 554.642ZM136.771 362.902L136.823 549.401C140.972 540.608 146.511 533.385 153.311 527.902L156.288 376.852C151.018 374.752 146.548 370.837 142.94 367.676C140.61 365.635 138.557 363.836 136.771 362.902Z" fill="#2E0044"/>
<path d="M136.273 556.421C135.975 556.421 135.674 556.391 135.372 556.329C133.301 555.903 131.815 554.081 131.815 551.968L131.762 362.043C131.762 360.569 132.492 359.19 133.711 358.36C134.929 357.532 136.481 357.356 137.852 357.897C140.618 358.987 143.224 361.27 146.241 363.912C149.806 367.035 153.846 370.573 158.431 372.315C160.191 372.983 161.34 374.685 161.303 376.566L158.313 528.259C158.287 529.582 157.673 530.825 156.638 531.652C149.797 537.113 144.322 544.541 140.364 553.728C139.65 555.386 138.023 556.421 136.273 556.421ZM140.678 370.883L140.723 535.365C143.343 531.902 146.254 528.79 149.442 526.046L152.334 379.342C147.734 377.01 143.891 373.696 140.678 370.883ZM153.858 528.171H153.868H153.858Z" fill="#2E0044"/>
<path fill-rule="evenodd" clip-rule="evenodd" d="M156.849 376.478C194.651 405.027 291.838 404.61 337.066 381.343C359.505 355.166 374.071 323.971 380.755 287.758C354.269 275.521 358.956 245.696 397.272 244.758C474.885 235.903 454.443 377.454 379.996 466.436C381.776 482.184 383.61 501.678 385.502 524.919C401.409 534.901 407.933 563.16 405.075 609.696C468.229 636.034 394.393 671.773 331.841 655.251C326.641 653.252 322.697 641.375 323.438 634.045C289.364 643.621 254.406 643.315 220.331 633.74C220.943 645.534 220.253 657.564 212.564 663.498C153.599 677.987 87.6367 663.425 136.528 626.2C124.6 580.182 130.38 547.505 153.858 528.171C83.5672 500.689 84.5622 450.124 156.849 376.478Z" fill="white"/>
<path d="M167.979 669.59C143.898 669.591 124.765 664.199 120.077 654.403C117.472 648.958 118.121 639.616 135.902 625.982C124.214 580.608 129.895 547.767 152.791 528.343C123.589 516.747 106.638 500.858 102.404 481.11C96.5715 453.906 114.757 418.572 156.454 376.09L156.794 375.744L157.181 376.037C195.87 405.254 292.627 403.513 336.717 380.901C358.865 355.035 373.47 323.806 380.134 288.077C368.261 282.446 361.882 272.704 363.859 263.164C365.686 254.348 375.42 244.74 397.258 244.205C416.328 242.027 430.805 248.974 439.063 264.296C449.817 284.251 449.725 317.787 438.811 356.302C427.749 395.336 406.527 435.527 380.571 466.607C382.326 482.163 384.162 501.673 386.029 524.599C401.832 534.753 408.432 563.258 405.649 609.338C423.939 617.043 432.256 626.437 429.075 635.813C422.863 654.124 374.526 667.096 331.699 655.784C326.396 653.749 322.385 642.525 322.826 634.788C289.36 644.046 255.086 643.943 220.92 634.476C221.45 645.707 220.811 657.83 212.902 663.934L212.696 664.033C197.363 667.801 181.849 669.59 167.979 669.59ZM156.904 377.209C115.724 419.253 97.7496 454.133 103.483 480.878C107.676 500.437 124.692 516.174 154.059 527.656L154.935 527.999L154.209 528.596C131.018 547.694 125.249 580.486 137.063 626.061L137.155 626.415L136.863 626.637C123.03 637.169 117.57 646.606 121.073 653.928C128.247 668.92 170.866 673.147 212.318 662.99C219.917 657.032 220.356 644.88 219.779 633.768L219.739 633L220.48 633.208C254.95 642.892 289.54 642.997 323.288 633.514L324.069 633.295L323.987 634.1C323.258 641.317 327.105 652.839 332.038 654.735C351.526 659.879 374.066 660.278 393.822 655.816C412.06 651.695 425.167 643.895 428.029 635.459C431.017 626.65 422.789 617.681 404.862 610.205L404.499 610.053L404.524 609.662C407.354 563.559 400.856 535.205 385.208 525.386L384.974 525.239L384.951 524.964C383.067 501.812 381.215 482.142 379.447 466.496L379.421 466.262L379.572 466.081C405.501 435.09 426.705 394.967 437.747 356.001C448.584 317.76 448.71 284.525 438.09 264.82C429.95 249.714 416.236 243.147 397.333 245.306C376.092 245.827 366.681 254.987 364.94 263.387C363.049 272.51 369.347 281.879 380.986 287.256L381.375 287.436L381.297 287.858C374.627 323.993 359.886 355.567 337.485 381.701L337.318 381.832C293.154 404.551 196.154 406.356 156.904 377.209Z" fill="#2E0044"/>
<g opacity="0.3">
<path opacity="0.3" fill-rule="evenodd" clip-rule="evenodd" d="M384.612 514.21C376.458 509.943 367.681 508.454 358.284 509.741C358.291 509.283 358.291 505.694 358.284 498.978C355.076 498.734 351.845 498.418 348.591 498.03V508.47C348.591 510.598 348.218 512.641 347.532 514.539C349.249 514.016 351.074 513.576 353.016 513.231C361.763 511.673 370.575 512.701 378.489 515.929C380.751 516.851 382.937 517.951 385.029 519.223C384.943 518.179 384.858 517.144 384.77 516.116C384.718 515.476 384.663 514.842 384.612 514.21Z" fill="#2E0044"/>
</g>
<g opacity="0.3">
<path opacity="0.3" fill-rule="evenodd" clip-rule="evenodd" d="M355.864 471.188C353.455 471.222 351.03 471.268 348.592 471.328V498.031C358.883 499.25 368.945 499.771 378.78 499.592C378.772 499.515 378.764 499.437 378.759 499.357C378.632 496.63 378.342 493.65 377.925 490.494L364.207 490.421C363.699 490.45 363.215 490.447 362.764 490.413C359.471 490.162 357.665 488.231 357.344 484.619C357.284 483.932 357.276 483.184 357.323 482.379L357.211 471.178C356.753 471.18 356.299 471.183 355.864 471.188Z" fill="#000072"/>
<path opacity="0.3" d="M375.053 500.177C366.396 500.177 357.491 499.642 348.526 498.578L348.039 498.521V470.791L348.578 470.777C351.017 470.716 353.445 470.67 355.856 470.637L357.758 470.624L357.875 482.373C357.829 483.178 357.835 483.905 357.893 484.571C358.19 487.901 359.796 489.633 362.805 489.862C363.235 489.893 363.697 489.897 364.174 489.869L378.409 489.944L378.472 490.421C378.906 493.709 379.188 496.708 379.31 499.33L379.391 500.133L378.79 500.144C377.55 500.167 376.304 500.177 375.053 500.177ZM349.144 497.54C358.987 498.686 368.754 499.196 378.191 499.05C378.068 496.66 377.816 493.973 377.439 491.043L364.203 490.972C363.712 491.001 363.203 491 362.722 490.964C359.135 490.69 357.14 488.572 356.793 484.667C356.731 483.947 356.723 483.167 356.771 482.347L356.664 471.734L355.871 471.74C353.64 471.772 351.397 471.814 349.143 471.868V497.54H349.144Z" fill="#2E0044"/>
</g>
<path fill-rule="evenodd" clip-rule="evenodd" d="M317.038 456.803C325.71 456.803 332.736 463.828 332.736 472.494C332.736 481.16 325.71 488.185 317.038 488.185C308.367 488.185 301.338 481.16 301.338 472.494C301.338 463.828 308.367 456.803 317.038 456.803Z" fill="#22A7F0"/>
<g opacity="0.5">
<path opacity="0.5" fill-rule="evenodd" clip-rule="evenodd" d="M306.968 481.691C302.165 476.543 302.249 468.528 307.163 463.483C312.08 458.438 320.092 458.138 325.372 462.805C320.065 461.224 314.319 462.718 310.453 466.684C306.59 470.648 305.247 476.43 306.968 481.691Z" fill="white"/>
</g>
<path d="M317.038 492.002C306.275 492.002 297.519 483.251 297.519 472.494C297.519 461.737 306.275 452.986 317.038 452.986C327.8 452.986 336.555 461.737 336.555 472.494C336.555 483.251 327.8 492.002 317.038 492.002ZM317.038 460.621C310.487 460.621 305.157 465.947 305.157 472.494C305.157 479.041 310.487 484.367 317.038 484.367C323.588 484.367 328.917 479.041 328.917 472.494C328.917 465.947 323.588 460.621 317.038 460.621Z" fill="#2E0044"/>
<path d="M167.988 673.4C143.329 673.401 122.253 668 116.554 656.087C112.068 646.713 117.095 636.089 131.496 624.482C121.006 581.883 125.787 550.022 145.709 529.613C118.663 517.714 102.822 501.694 98.5851 481.928C92.3748 452.961 110.392 417.447 153.666 373.359C155.234 371.761 157.745 371.575 159.534 372.925C176.142 385.468 207.809 393.304 244.243 393.889C279.449 394.467 313.004 388.438 334.251 377.777C355.082 353.241 369.031 323.797 375.746 290.203C363.952 283.597 357.841 272.957 360.035 262.373C362.161 252.121 372.98 240.958 396.963 240.312C417.713 238.005 433.451 245.656 442.5 262.448C453.731 283.288 453.755 317.885 442.567 357.367C431.348 396.955 410.806 436.104 384.636 467.823C386.29 482.713 388.016 501.065 389.77 522.44C405.579 534.07 412.112 561.748 409.702 606.85C434.753 618.173 434.981 630.556 432.772 637.068C425.291 659.122 372.824 670.683 330.701 659.557C330.545 659.516 330.391 659.467 330.24 659.408C324 657.01 320.159 647.689 319.159 639.791C288.163 647.555 256.534 647.481 224.962 639.578C224.997 650.205 223.274 660.86 215.287 667.024C214.796 667.403 214.231 667.675 213.627 667.824C198.821 671.461 182.761 673.4 167.988 673.4ZM157.385 382.313C118.809 422.292 101.962 455.166 107.3 480.062C111.201 498.259 127.412 513.05 155.481 524.024C156.952 524.599 158.009 525.91 158.258 527.47C158.507 529.029 157.911 530.604 156.691 531.608C134.775 549.657 129.442 581.105 140.841 625.083C141.291 626.819 140.655 628.656 139.228 629.742C127.222 638.884 122.025 646.874 124.595 652.245C130.151 663.856 168.762 669.436 210.505 659.414C216.152 654.27 216.356 643.175 215.879 633.97C215.805 632.537 216.426 631.156 217.547 630.26C218.67 629.366 220.153 629.064 221.536 629.452C255.304 638.941 289.183 639.044 322.231 629.758C323.65 629.357 325.175 629.688 326.303 630.636C327.432 631.583 328.019 633.027 327.871 634.493C327.223 640.905 330.86 649.789 333.288 651.026C375.077 661.94 419.548 648.303 424.33 634.207C426.53 627.719 418.887 620.284 403.357 613.807C401.606 613.076 400.509 611.318 400.625 609.424C403.363 564.855 397.476 537.692 383.131 528.692C381.941 527.945 381.173 526.681 381.058 525.281C379.178 502.17 377.33 482.54 375.566 466.936C375.43 465.726 375.795 464.513 376.576 463.579C402.166 432.994 423.092 393.396 433.99 354.94C444.553 317.664 444.795 285.492 434.652 266.671C427.343 253.109 414.94 247.224 397.775 249.184C397.644 249.199 397.512 249.207 397.379 249.211C378.473 249.673 370.2 257.246 368.763 264.18C367.254 271.46 372.695 279.129 382.624 283.716C384.472 284.569 385.506 286.565 385.137 288.567C378.34 325.388 363.305 357.578 340.45 384.24C340.074 384.679 339.618 385.039 339.105 385.303C295.033 407.976 199.273 410.132 157.385 382.313Z" fill="#2E0044"/>
<g opacity="0.3">
<path opacity="0.3" fill-rule="evenodd" clip-rule="evenodd" d="M405.121 572.841C405.945 583.49 405.93 595.774 405.075 609.696C398.261 608.933 388.045 606.206 386.351 601.577C395.095 530.305 358.29 507.403 324.482 551.345C326.254 535.227 337.965 521.955 353.746 518.177C385.26 510.637 401.663 546.402 405.121 572.841Z" fill="#2E0044"/>
</g>
<g opacity="0.3">
<path opacity="0.3" fill-rule="evenodd" clip-rule="evenodd" d="M322.754 634.235C288.894 643.613 254.177 643.253 220.33 633.74C220.613 639.207 220.616 644.724 219.774 649.661C220.82 629.673 218.963 600.678 214.204 562.687C231.437 623.49 311.069 621.656 323.769 565.669C325.653 596.512 325.316 619.367 322.754 634.235Z" fill="#2E0044"/>
</g>
<g opacity="0.3">
<path opacity="0.3" fill-rule="evenodd" clip-rule="evenodd" d="M156.845 376.478C194.647 405.03 291.837 404.61 337.065 381.343C342.887 374.552 348.177 367.424 352.939 359.956C361.73 418.875 241.735 450.567 171.758 423.735C173.768 427.662 174.98 431.72 175.403 435.904C176.273 443.519 185.414 448.946 192.088 444.33C192.391 444.117 192.694 443.889 192.994 443.643C200.945 437.9 210.695 437.789 222.242 443.307H215.692C206.798 443.307 199.355 449.844 197.94 458.347C189.38 453.591 179.818 448.943 169.213 444.495C170.263 436.554 170.288 428.067 169.651 422.903C170.327 423.178 171.006 423.447 171.692 423.709C157.187 418.137 144.836 410.048 136.234 399.163C142.302 391.863 149.168 384.303 156.845 376.478Z" fill="#2E0044"/>
</g>
<path fill-rule="evenodd" clip-rule="evenodd" d="M156.846 376.479C231.112 419.668 324.563 390.062 345.476 370.801C304.196 439.167 154.382 417.068 152.25 389.089C151.895 384.42 153.571 379.827 156.846 376.479Z" fill="#F99B28"/>
<path d="M236.546 416.637C220.035 416.637 203.441 414.852 188.598 411.324C166.146 405.988 152.352 397.691 151.7 389.131C151.333 384.307 153.065 379.556 156.452 376.093L156.752 375.785L157.125 376.001C197.789 399.649 241.549 400.204 271.101 396.511C305.777 392.173 334.577 380.09 345.103 370.394L347.95 367.772L345.95 371.086C329.67 398.048 298.022 408.938 274.339 413.325C262.382 415.539 249.49 416.637 236.546 416.637ZM156.947 377.175C153.977 380.381 152.469 384.683 152.801 389.046C153.406 396.984 167.22 405.11 188.854 410.251C215.191 416.51 247.073 417.253 274.137 412.239C296.697 408.061 326.541 397.945 343.087 373.511C316.62 393.71 227.085 417.693 156.947 377.175Z" fill="#2E0044"/>
<path d="M236.557 420.534C219.732 420.534 202.825 418.715 187.696 415.119C173.269 411.691 148.903 403.794 147.808 389.426C147.357 383.483 149.49 377.63 153.66 373.365C155.087 371.905 157.323 371.603 159.089 372.628C198.812 395.729 241.664 396.258 270.617 392.638C304.478 388.402 332.388 376.799 342.457 367.524C344.089 366.022 346.577 365.946 348.296 367.35C350.014 368.751 350.439 371.203 349.293 373.101C335.814 395.424 310.142 410.659 275.051 417.16C262.875 419.416 249.741 420.534 236.557 420.534ZM158.062 382.279C157.01 384.244 156.523 386.486 156.695 388.75C157.063 393.58 167.567 401.179 189.758 406.454C228.271 415.606 287.918 414.248 322.898 388.641C309.293 394.125 291.769 398.97 271.724 401.476C242.239 405.165 198.935 404.706 158.062 382.279Z" fill="#2E0044"/>
<path fill-rule="evenodd" clip-rule="evenodd" d="M136.271 551.966C129.092 571.054 128.551 593.215 134.657 618.45C49.7092 585.971 95.3855 520.09 24.5757 493.633C9.86476 489.34 1.35397 474.015 5.48899 459.274C16.9351 418.46 92.5224 434.883 106.547 511.976C110.265 532.42 121.462 545.478 136.271 551.966Z" fill="white"/>
<path d="M135.44 619.339L134.459 618.964C89.8456 601.908 81.1394 575.91 72.72 550.771C65.1293 528.105 57.9594 506.695 24.3816 494.15C9.49048 489.805 0.758821 474.087 4.95679 459.124C9.04367 444.551 21.4483 436.32 38.1258 437.097C65.8719 438.392 98.47 464.495 107.089 511.875C110.541 530.857 120.709 544.545 136.492 551.46L136.972 551.67L136.788 552.159C129.679 571.058 129.143 593.317 135.193 618.32L135.44 619.339ZM35.9858 438.15C20.9103 438.15 9.78666 445.991 6.02026 459.422C1.98528 473.806 10.3781 488.915 24.7301 493.103C58.8396 505.846 66.0906 527.497 73.7674 550.421C82.0434 575.132 90.6008 600.68 133.876 617.556C128.083 592.964 128.653 571.004 135.572 552.258C119.708 545.125 109.489 531.241 106.003 512.073C97.4867 465.259 65.3849 439.474 38.075 438.198C37.3704 438.166 36.6734 438.15 35.9858 438.15Z" fill="#2E0044"/>
<path d="M134.657 622.904C134.121 622.904 133.582 622.808 133.065 622.611C86.7292 604.894 77.3197 576.799 69.0185 552.011C61.427 529.342 54.8704 509.761 23.1626 497.861C6.28835 492.841 -3.5589 475.03 1.19808 458.072C5.74038 441.872 19.9596 432.343 38.3088 433.199C67.597 434.568 101.947 461.792 110.931 511.179C114.14 528.824 123.521 541.517 138.061 547.887C140.23 548.838 141.277 551.318 140.443 553.534C133.615 571.688 133.126 593.177 138.989 617.404C139.378 619.011 138.844 620.702 137.6 621.795C136.773 622.522 135.722 622.904 134.657 622.904ZM36.0293 442.054C22.7849 442.054 13.0424 448.844 9.77999 460.476C6.31993 472.811 13.5172 485.767 25.8245 489.359C25.9296 489.39 26.0336 489.424 26.1361 489.462C61.9511 502.845 69.8403 526.402 77.4703 549.183C85.0042 571.682 92.7804 594.896 128.509 611.07C124.552 590.082 125.303 571.022 130.752 554.249C115.499 546.201 105.648 531.947 102.161 512.772C94.0104 467.965 63.6603 443.302 37.8927 442.098C37.2648 442.069 36.6424 442.054 36.0293 442.054Z" fill="#2E0044"/>
<path d="M330.599 530.269H215.693C203.664 530.269 193.878 520.489 193.878 508.47V461.288C193.878 449.269 203.664 439.489 215.693 439.489H330.599C342.627 439.489 352.412 449.269 352.412 461.288V508.47C352.412 520.489 342.627 530.269 330.599 530.269ZM215.693 447.124C207.876 447.124 201.516 453.477 201.516 461.288V508.47C201.516 516.281 207.876 522.634 215.693 522.634H330.599C338.415 522.634 344.773 516.281 344.773 508.47V461.288C344.773 453.477 338.415 447.124 330.599 447.124H215.693Z" fill="#2E0044"/>
<path d="M166.964 419.019C169.651 413.84 171.116 430.073 169.213 444.495C218.011 464.967 244.733 489.635 253.112 509.653C256.705 518.234 257.091 526.154 254.541 532.8C251.938 539.595 246.391 544.864 238.188 547.992C221.027 554.54 191.168 551.508 151.838 532.295C149.561 531.18 148.618 528.43 149.732 526.154C150.846 523.878 153.598 522.936 155.875 524.046C192.654 542.015 219.829 545.136 234.908 539.385C240.548 537.233 244.284 533.818 245.93 529.523C247.629 525.085 247.251 519.499 244.603 513.179C236.825 494.604 210.653 471.216 161.989 451.475C159.785 450.631 158.554 448.228 159.212 445.916L166.964 419.019Z" fill="#2E0044"/>
<path d="M220.234 650.6C220.09 650.6 219.946 650.592 219.8 650.578C217.35 650.341 215.556 648.165 215.793 645.716C216.538 638.02 215.316 618.042 212.161 586.313C171.97 579.612 145.662 582.401 133.933 594.612C132.229 596.386 129.407 596.444 127.632 594.741C125.857 593.038 125.799 590.218 127.504 588.443C141.938 573.416 171.223 570.037 217.031 578.111C218.996 578.457 220.491 580.065 220.691 582.05C224.204 616.8 225.504 637.906 224.665 646.574C224.442 648.876 222.502 650.6 220.234 650.6Z" fill="#2E0044"/>
<path d="M131.522 636.57C129.623 638.26 126.709 638.092 125.017 636.192C123.325 634.291 123.494 631.378 125.396 629.687C158.856 601.239 194.14 634.861 173.036 628.584C156.794 623.75 142.953 626.41 131.522 636.57Z" fill="#2E0044"/>
<path d="M425.842 616.625C427.832 618.196 428.174 621.086 426.599 623.074C425.029 625.063 422.137 625.402 420.147 623.83C410.09 615.892 399.7 611.449 388.985 610.504C378.254 609.558 367.059 612.114 355.413 618.171C344.052 624.076 350.364 603.634 389.778 601.322C402.291 602.422 414.318 607.526 425.842 616.625Z" fill="#2E0044"/>
<path d="M326.774 653.302C325.015 653.302 323.348 652.254 322.644 650.527C318.881 641.285 318.579 618.377 321.722 580.495C321.878 578.614 323.202 577.035 325.028 576.556C359.892 567.384 387.368 565.825 406.688 571.922C409.035 572.664 410.338 575.165 409.596 577.511C408.856 579.856 406.354 581.155 404.005 580.417C386.86 575.005 362.091 576.342 330.348 584.381C326.977 626.756 328.767 641.931 330.9 647.168C331.828 649.447 330.732 652.045 328.452 652.973C327.902 653.196 327.333 653.302 326.774 653.302Z" fill="#2E0044"/>
<path d="M398.61 531.84C400.081 533.908 399.597 536.78 397.529 538.251C395.459 539.724 392.589 539.24 391.115 537.171C386.987 531.389 381.368 527.05 375.028 524.466C368.688 521.879 361.621 521.058 354.602 522.309C347.599 523.552 341.26 526.762 336.207 531.374C331.147 535.99 327.373 542.005 325.497 548.854C321.512 563.488 314.921 519.999 353.017 513.231C361.763 511.672 370.575 512.7 378.49 515.929C386.407 519.158 393.436 524.593 398.61 531.84Z" fill="#2E0044"/>
<path d="M380.56 475.147C380.526 475.147 380.492 475.146 380.458 475.146C370.204 474.878 359.515 474.878 348.686 475.146C346.573 475.166 344.826 473.531 344.774 471.423C344.722 469.316 346.389 467.566 348.498 467.513C359.454 467.242 370.275 467.245 380.657 467.513C382.766 467.568 384.431 469.321 384.376 471.428C384.322 473.502 382.623 475.147 380.56 475.147Z" fill="#2E0044"/>
<path d="M375.03 503.44C366.242 503.44 357.233 502.898 348.142 501.82C346.047 501.571 344.551 499.673 344.799 497.58C345.048 495.486 346.945 493.987 349.042 494.239C360.668 495.618 372.147 496.09 383.159 495.643C385.266 495.579 387.045 497.197 387.131 499.301C387.216 501.409 385.577 503.185 383.469 503.271C380.683 503.384 377.867 503.44 375.03 503.44Z" fill="#2E0044"/>
<path d="M364.383 421.029C371.277 432.44 376.69 444.633 380.62 457.6C384.532 470.514 386.975 484.233 387.95 498.743C388.118 501.277 386.198 503.473 383.659 503.641C381.125 503.81 378.928 501.891 378.759 499.356C377.363 469.231 355.945 408.052 364.383 421.029Z" fill="#2E0044"/>
<path d="M435.512 369.75C435.5 369.75 435.489 369.75 435.478 369.75C423.846 369.664 399.262 362.739 360.322 348.578C358.009 347.737 356.817 345.182 357.658 342.87C358.5 340.559 361.057 339.365 363.37 340.208C400.81 353.823 425.093 360.767 435.544 360.843C438.005 360.861 439.986 362.869 439.968 365.329C439.949 367.777 437.957 369.75 435.512 369.75Z" fill="#2E0044"/>
<path fill-rule="evenodd" clip-rule="evenodd" d="M385.294 522.402C385.364 523.236 385.431 524.075 385.501 524.919C389.103 527.177 392.222 530.374 394.864 534.51C396.618 537.254 398.157 540.416 399.486 543.989L400.131 439.187C394.043 448.508 387.239 457.963 379.996 466.436C382.12 485.117 383.755 503.643 385.294 522.402Z" fill="white"/>
<path d="M400.02 547.006L398.968 544.18C397.655 540.649 396.117 537.496 394.399 534.807C391.811 530.757 388.718 527.588 385.208 525.387L384.974 525.24L384.743 522.448C383.378 505.81 381.682 486.152 379.447 466.498L379.42 466.26L379.576 466.077C386.13 458.411 392.891 449.261 399.669 438.884L400.695 437.314L400.02 547.006ZM386.029 524.6C389.582 526.882 392.71 530.114 395.329 534.212C396.648 536.276 397.862 538.604 398.951 541.156L399.568 441.05C393.161 450.743 386.776 459.335 380.571 466.611C382.794 486.202 384.483 505.779 385.844 522.357L385.844 522.356L386.029 524.6Z" fill="#2E0044"/>
<path d="M399.483 548.443C397.649 548.443 395.966 547.308 395.308 545.54C394.091 542.268 392.678 539.364 391.107 536.906C388.833 533.347 386.15 530.584 383.132 528.691C381.943 527.947 381.176 526.686 381.06 525.288L380.852 522.775C380.852 522.772 380.852 522.77 380.852 522.767C379.489 506.159 377.796 486.539 375.567 466.939C375.428 465.711 375.804 464.481 376.607 463.543C383.053 456.003 389.712 446.989 396.399 436.751C397.48 435.096 399.524 434.35 401.415 434.921C403.308 435.49 404.599 437.237 404.587 439.213L403.942 544.015C403.929 546.166 402.38 548 400.261 548.374C400 548.42 399.74 548.443 399.483 548.443ZM389.768 522.44C391.686 523.856 393.477 525.521 395.131 527.425L395.585 453.705C391.903 458.817 388.244 463.544 384.639 467.845C386.775 486.923 388.41 505.895 389.734 522.03L389.768 522.44Z" fill="#2E0044"/>
<g opacity="0.3">
<path opacity="0.3" fill-rule="evenodd" clip-rule="evenodd" d="M391.19 529.696C392.504 531.127 393.729 532.728 394.861 534.506C396.281 536.73 397.558 539.219 398.699 541.981H399.499L400.129 439.188C397.297 443.526 394.307 447.894 391.19 452.179V529.696Z" fill="#2E0044"/>
</g>
<path fill-rule="evenodd" clip-rule="evenodd" d="M58.1241 517.488C65.2697 500.384 83.0608 490.255 101.427 492.831C79.5762 432.416 15.9169 422.093 5.48899 459.274C1.35397 474.015 9.86476 489.341 24.5757 493.633C40.991 499.767 51.1499 508.022 58.1241 517.488Z" fill="#F99B28"/>
<path d="M214.204 562.686C217.401 562.435 220.873 582.375 221.466 588.394C222.124 595.041 222.596 600.059 222.886 603.498C223.095 606.032 221.207 608.259 218.671 608.466C216.134 608.676 213.906 606.789 213.698 604.253C213.328 599.886 212.864 594.878 212.31 589.295C211.706 583.146 210.496 563.108 214.204 562.686Z" fill="#000072"/>
<path d="M218.283 609.034C217.063 609.034 215.895 608.607 214.953 607.81C213.9 606.919 213.26 605.672 213.147 604.299C212.775 599.909 212.308 594.879 211.759 589.35C211.652 588.261 209.202 562.7 214.14 562.137L214.16 562.136C214.189 562.132 214.22 562.131 214.25 562.131C218.716 562.131 221.988 588.076 222.014 588.34C222.664 594.906 223.143 599.989 223.435 603.451C223.548 604.824 223.12 606.16 222.228 607.21C221.336 608.262 220.088 608.904 218.715 609.016C218.571 609.028 218.426 609.034 218.283 609.034ZM214.256 563.235C211.745 563.562 211.834 578.808 212.858 589.241C213.408 594.775 213.875 599.811 214.247 604.207C214.336 605.287 214.84 606.268 215.667 606.968C216.494 607.668 217.545 607.994 218.625 607.917C219.704 607.829 220.685 607.324 221.386 606.497C222.087 605.671 222.424 604.622 222.334 603.543C222.043 600.088 221.565 595.009 220.915 588.448C220.091 580.082 216.514 563.234 214.281 563.234C214.273 563.234 214.264 563.234 214.256 563.235Z" fill="#2E0044"/>
<path d="M330.601 582.956C330.368 587.039 330.067 591.13 329.694 595.224C329.466 597.748 327.23 599.612 324.702 599.385C322.176 599.157 320.313 596.92 320.539 594.395C320.883 590.615 321.176 586.627 321.411 582.451C322.373 553.115 328.197 566.094 330.601 582.956Z" fill="#000072"/>
<path d="M325.125 599.956C324.968 599.956 324.811 599.948 324.653 599.934C321.829 599.68 319.737 597.173 319.989 594.346C320.337 590.528 320.63 586.516 320.86 582.42C321.443 564.649 323.759 564.523 324.63 564.475C324.653 564.473 324.676 564.473 324.699 564.473C328.416 564.473 330.879 580.985 331.149 582.878L331.156 582.932L331.153 582.987C330.917 587.118 330.612 591.252 330.245 595.274C330.121 596.642 329.471 597.88 328.415 598.761C327.481 599.54 326.327 599.956 325.125 599.956ZM324.709 565.577C324.703 565.577 324.697 565.577 324.691 565.577C324.468 565.589 322.498 566.166 321.963 582.47C321.732 586.59 321.438 590.616 321.089 594.445C320.891 596.665 322.534 598.635 324.752 598.835C325.829 598.927 326.878 598.604 327.707 597.913C328.537 597.221 329.048 596.249 329.145 595.175C329.509 591.182 329.812 587.08 330.047 582.98C328.438 571.731 325.881 565.577 324.709 565.577Z" fill="#2E0044"/>
<path d="M283.5 530.269C281.39 530.269 279.681 528.56 279.681 526.452V490.159L245.34 480.351C243.7 479.883 242.57 478.385 242.57 476.681V443.306C242.57 441.198 244.28 439.489 246.389 439.489C248.498 439.489 250.208 441.198 250.208 443.306V473.802L284.549 483.61C286.189 484.078 287.319 485.576 287.319 487.28V526.452C287.319 528.56 285.609 530.269 283.5 530.269Z" fill="#2E0044"/>
<g opacity="0.3">
<path opacity="0.3" fill-rule="evenodd" clip-rule="evenodd" d="M256.022 526.452C255.082 535.89 249.244 543.777 238.19 547.992C221.028 554.54 191.169 551.508 151.839 532.296C151.286 532.021 150.808 531.653 150.42 531.216C148.547 533.005 147.92 533.515 146.309 535.504C215.499 570.795 259.139 556.622 260.685 526.452H330.599C334.172 526.452 339.719 523.72 342.527 521.908L342.553 447.874C340.31 446.543 334.939 443.625 332.216 443.381C330.879 443.389 329.369 443.366 327.685 443.306C333.856 497.517 309.696 517.338 255.206 502.768L255.203 502.771C247.099 486.355 229.601 468.911 199.54 453.391C198.778 454.932 198.231 456.597 197.941 458.347C228.083 475.094 245.762 493.173 252.662 508.612C249.918 515.127 247.734 521.072 246.112 526.452H256.022V526.452Z" fill="#2E0044"/>
</g>
<path d="M351.609 546.672C351.609 553.909 350.714 560.932 349.031 567.65V567.659C339.65 605.072 305.795 632.778 265.45 632.778C249.132 632.778 233.869 628.242 220.863 620.369C220.111 619.913 219.368 619.448 218.634 618.965C218.213 618.696 217.801 618.428 217.39 618.142C201.143 607.21 188.816 590.883 183.007 571.73C180.59 563.803 179.292 555.385 179.292 546.672C179.292 543.317 179.48 539.998 179.865 536.742C180.733 529.12 182.604 521.811 185.343 514.931C197.983 483.083 229.089 460.566 265.45 460.566C276.353 460.566 286.782 462.588 296.378 466.291C299.224 467.374 302.008 468.617 304.703 469.995C306.251 470.791 307.773 471.632 309.268 472.527C317.36 477.304 324.602 483.378 330.707 490.455C341.305 502.72 348.485 517.999 350.794 534.827C351.331 538.701 351.609 542.655 351.609 546.672Z" fill="#FFBC45"/>
<path d="M330.707 490.455C330.053 505.583 325.497 527.152 309.429 551.566C287.981 584.156 246.607 606.003 217.389 618.142C201.142 607.21 188.816 590.884 183.006 571.73C206.146 568.689 236.116 560.646 265.45 540.947C291.105 523.726 303.306 513.035 309.429 500.824C314.952 489.811 312.49 479.479 309.268 472.527C317.36 477.305 324.602 483.379 330.707 490.455Z" fill="#FF8827"/>
<path d="M304.704 469.996C291.724 486.698 251.63 529.898 179.866 536.742C180.734 529.12 182.605 521.811 185.344 514.932C211.581 514.797 275.647 509.85 296.379 466.292C299.225 467.374 302.009 468.618 304.704 469.996Z" fill="#FF8827"/>
<g opacity="0.6">
<path opacity="0.6" d="M351.609 546.675C351.609 548.974 351.519 551.238 351.34 553.483C351.215 551.766 351.027 550.066 350.794 548.384C348.485 531.556 341.305 516.277 330.707 504.012C324.602 496.935 317.36 490.861 309.268 486.084C307.773 485.189 306.251 484.348 304.703 483.561C302.742 482.55 300.737 481.629 298.696 480.788C298.804 481.423 298.804 482.067 298.696 482.702C297.712 488.526 288.088 491.765 277.204 489.922C266.319 488.079 258.298 481.861 259.283 476.037C259.39 475.429 259.587 474.848 259.864 474.302C225.929 476.476 197.329 498.295 185.343 528.488C182.604 535.367 180.733 542.676 179.865 550.298C179.739 551.345 179.641 552.401 179.56 553.456C179.381 551.22 179.292 548.957 179.292 546.675C179.292 543.32 179.48 540.002 179.865 536.745C180.733 529.123 182.604 521.814 185.343 514.935C197.983 483.087 229.089 460.57 265.45 460.57C276.353 460.57 286.782 462.591 296.378 466.295C299.224 467.377 302.008 468.621 304.703 469.998C306.251 470.795 307.773 471.636 309.268 472.53C317.36 477.307 324.602 483.382 330.707 490.458C341.305 502.723 348.485 518.003 350.794 534.83C351.331 538.704 351.609 542.659 351.609 546.675Z" fill="white"/>
</g>
<path d="M351.608 546.671C351.608 553.909 350.713 560.931 349.03 567.65V567.659C310.575 631.373 243.752 624.815 220.863 620.369C215.814 619.385 212.905 618.508 212.905 618.508C214.838 618.687 216.754 618.84 218.634 618.965C308.346 624.869 339.989 568.133 350.794 534.827C351.331 538.701 351.608 542.655 351.608 546.671Z" fill="#FF8827"/>
<g opacity="0.2">
<path opacity="0.2" d="M351.609 546.676C351.609 553.913 350.714 560.936 349.031 567.654V567.663C339.65 605.075 305.795 632.781 265.45 632.781C249.132 632.781 233.869 628.246 220.863 620.373C220.111 619.917 219.368 619.452 218.634 618.969C218.213 618.7 217.801 618.432 217.39 618.146C201.143 607.214 188.816 590.887 183.007 571.733C180.59 563.807 179.292 555.389 179.292 546.676C179.292 543.321 179.48 540.002 179.865 536.745C180.258 533.337 180.84 529.982 181.628 526.708C182.04 528.417 182.496 530.107 183.006 531.78C188.816 550.934 201.142 567.26 217.389 578.193C217.801 578.479 218.213 578.747 218.634 579.016C219.368 579.499 220.111 579.964 220.863 580.42C233.869 588.293 249.132 592.828 265.45 592.828C305.795 592.828 339.649 565.122 349.031 527.71V527.701C349.111 527.361 349.201 527.03 349.272 526.69C349.908 529.356 350.418 532.076 350.794 534.831C351.331 538.705 351.609 542.659 351.609 546.676Z" fill="#2E0044"/>
</g>
<path d="M265.451 636.64C248.986 636.64 232.876 632.156 218.861 623.674C218.063 623.188 217.28 622.699 216.506 622.188C216.094 621.926 215.641 621.63 215.187 621.316C198.044 609.782 185.286 592.559 179.309 572.851C176.734 564.406 175.428 555.598 175.428 546.672C175.428 543.146 175.629 539.652 176.027 536.288C176.917 528.481 178.844 520.809 181.753 513.504C195.446 479.001 228.3 456.704 265.451 456.704C276.607 456.704 287.481 458.717 297.771 462.688C300.681 463.794 303.612 465.098 306.464 466.556C308.124 467.409 309.733 468.302 311.255 469.212C319.674 474.183 327.211 480.486 333.636 487.933C345.009 501.094 352.267 517.129 354.625 534.303C355.189 538.371 355.475 542.536 355.475 546.672C355.475 554.039 354.578 561.373 352.81 568.474C352.801 568.515 352.792 568.557 352.781 568.598C342.735 608.66 306.824 636.64 265.451 636.64ZM265.451 464.429C231.489 464.429 201.455 484.812 188.937 516.355C186.279 523.029 184.52 530.034 183.706 537.179C183.342 540.258 183.158 543.448 183.158 546.672C183.158 554.833 184.351 562.885 186.705 570.603C192.169 588.621 203.833 604.364 219.549 614.938C219.964 615.226 220.334 615.466 220.713 615.707C221.458 616.198 222.161 616.637 222.872 617.07C235.673 624.817 250.399 628.914 265.451 628.914C303.235 628.914 336.036 603.391 345.255 566.83C345.263 566.79 345.272 566.751 345.283 566.712C346.916 560.189 347.745 553.446 347.745 546.672C347.745 542.888 347.482 539.081 346.967 535.358C344.812 519.662 338.179 505.011 327.783 492.98C321.906 486.168 315.017 480.406 307.303 475.852C305.903 475.015 304.44 474.203 302.935 473.429C300.341 472.104 297.67 470.915 295.004 469.902C285.588 466.268 275.651 464.429 265.451 464.429ZM349.032 567.659H349.042H349.032Z" fill="#2E0044"/>
<g opacity="0.3">
<path opacity="0.3" d="M307.618 516.384C306.696 512.678 308.426 509.06 311.48 508.303C313.035 507.917 314.632 508.351 315.949 509.355C314.916 505.853 311.809 503.634 308.853 504.367C305.799 505.125 304.07 508.743 304.991 512.448C305.443 514.267 306.451 515.766 307.72 516.734C307.686 516.617 307.647 516.503 307.618 516.384Z" fill="#2E0044"/>
</g>
<path d="M313.129 524.434C311.614 525.11 309.842 525.254 308.134 524.966C306.427 524.656 304.781 523.931 303.365 522.894C300.513 520.819 298.559 517.645 297.703 514.255C296.869 510.859 297.11 507.14 298.658 503.973C299.424 502.394 300.541 500.984 301.904 499.912C303.281 498.861 304.915 498.16 306.571 498.051C303.525 499.383 301.527 501.947 300.561 504.776C299.575 507.617 299.551 510.715 300.251 513.623C300.99 516.522 302.463 519.25 304.666 521.301C306.844 523.352 309.815 524.684 313.129 524.434Z" fill="#2E0044"/>
<path d="M243.213 597.865C236.871 597.865 231.711 592.711 231.711 586.377C231.711 580.042 236.871 574.888 243.213 574.888C249.555 574.888 254.715 580.042 254.715 586.377C254.715 592.711 249.555 597.865 243.213 597.865ZM243.213 576.683C237.862 576.683 233.508 581.032 233.508 586.377C233.508 591.722 237.862 596.07 243.213 596.07C248.564 596.07 252.918 591.722 252.918 586.377C252.918 581.032 248.564 576.683 243.213 576.683Z" fill="#2E0044"/>
<path d="M323.195 587.061C316.852 587.061 311.693 581.908 311.693 575.573C311.693 569.238 316.852 564.084 323.195 564.084C329.537 564.084 334.697 569.238 334.697 575.573C334.697 581.908 329.537 587.061 323.195 587.061ZM323.195 565.88C317.843 565.88 313.49 570.228 313.49 575.573C313.49 580.918 317.843 585.266 323.195 585.266C328.546 585.266 332.899 580.918 332.899 575.573C332.899 570.228 328.546 565.88 323.195 565.88Z" fill="#2E0044"/>
<path d="M225.959 586.375C225.785 584.5 225.972 582.578 226.462 580.719C226.606 580.261 226.734 579.794 226.902 579.342L227.467 578.005C227.906 577.143 228.371 576.283 228.954 575.501C230.087 573.915 231.495 572.515 233.1 571.376C234.721 570.26 236.535 569.426 238.435 568.9C242.236 567.815 246.397 568.17 249.964 569.754C251.756 570.537 253.366 571.674 254.763 572.991C256.137 574.338 257.275 575.906 258.071 577.612C256.932 576.113 255.652 574.759 254.187 573.659C253.812 573.395 253.46 573.106 253.067 572.872L252.492 572.506L251.897 572.176C251.507 571.946 251.086 571.772 250.685 571.567C250.269 571.394 249.856 571.213 249.433 571.062C246.056 569.845 242.328 569.659 238.907 570.631C237.195 571.099 235.555 571.826 234.051 572.784C232.563 573.767 231.221 574.973 230.073 576.355C228.929 577.738 227.952 579.294 227.294 580.999C226.601 582.693 226.182 584.503 225.959 586.375Z" fill="#2E0044"/>
<path d="M305.941 575.571C305.767 573.696 305.953 571.774 306.444 569.915C306.587 569.457 306.716 568.99 306.884 568.538L307.448 567.201C307.887 566.339 308.352 565.479 308.936 564.697C310.068 563.111 311.477 561.711 313.081 560.572C314.703 559.457 316.517 558.622 318.417 558.096C322.218 557.011 326.379 557.366 329.946 558.95C331.737 559.733 333.348 560.87 334.745 562.188C336.119 563.534 337.256 565.102 338.053 566.808C336.914 565.309 335.634 563.956 334.169 562.855C333.794 562.591 333.441 562.302 333.049 562.068L332.474 561.702L331.878 561.372C331.488 561.142 331.068 560.968 330.667 560.764C330.25 560.59 329.838 560.409 329.414 560.258C326.038 559.041 322.31 558.855 318.889 559.828C317.177 560.295 315.537 561.022 314.032 561.98C312.544 562.963 311.203 564.169 310.055 565.552C308.911 566.934 307.934 568.49 307.276 570.196C306.583 571.889 306.164 573.699 305.941 575.571Z" fill="#2E0044"/>
<g opacity="0.3">
<path opacity="0.3" fill-rule="evenodd" clip-rule="evenodd" d="M132.875 575.888C132.167 588.008 133.506 601.073 136.901 615.092C51.9498 582.612 97.6288 516.732 26.8136 490.277C12.1054 485.984 3.59459 470.656 7.72939 455.916C8.29171 453.919 9.0093 452.065 9.85919 450.344C10.9962 450.147 12.1672 449.973 13.3824 449.826C4.02483 478.046 52.7504 481.35 67.049 503.283C89.3974 549.051 118.466 599.385 132.744 575.979L132.875 575.888Z" fill="#2E0044"/>
</g>
<path d="M368.583 268.133C370.575 272.271 373.384 275.901 376.785 278.832C397.745 296.899 405.235 284.909 419.36 290.475C414.277 293.38 408.686 295.17 402.96 295.796C397.27 296.418 391.441 295.879 385.845 294.144C380.236 292.402 375.116 289.533 370.767 285.784C366.419 282.037 362.833 277.405 360.292 272.133L368.583 268.133Z" fill="#2E0044"/>
<g opacity="0.3">
<path opacity="0.3" fill-rule="evenodd" clip-rule="evenodd" d="M363.728 420.091C363.922 420.344 364.14 420.655 364.383 421.028C371.277 432.439 376.69 444.632 380.62 457.598C381.221 459.584 381.788 461.591 382.319 463.618C388.677 455.809 394.621 447.622 400.129 439.189C415.583 415.528 427.589 389.921 435.511 365.295C454.064 307.617 450.23 255.301 415.863 245.869C458.039 287.457 411.267 436.294 363.728 420.091Z" fill="#2E0044"/>
</g>
<g opacity="0.3">
<path opacity="0.3" fill-rule="evenodd" clip-rule="evenodd" d="M356.698 462.736C353.138 443.232 342.21 436.758 323.916 443.307H326.44H329.354C329.901 443.307 330.437 443.333 330.971 443.382C334.914 443.734 338.502 445.375 341.308 447.874C345.008 451.176 347.347 455.974 347.347 461.289V471.327C356.151 471.112 367.939 471.105 376.372 471.234C375.787 468.531 374.053 465.776 373.422 463.073C365.333 464.052 358.384 463.938 356.698 462.736Z" fill="#2E0044"/>
</g>
<path fill-rule="evenodd" clip-rule="evenodd" d="M181.79 455.178C159.387 477.699 145.94 500.21 141.456 522.718C145.308 524.626 149.44 526.444 153.858 528.171C212.638 556.886 248.653 548.587 251.4 526.452C253.449 509.946 237.002 485.744 197.697 463.466C192.759 460.667 187.458 457.899 181.79 455.178Z" fill="white"/>
<path d="M218.793 547.107C201.223 547.107 178.435 540.791 153.614 528.666C149.261 526.966 145.073 525.125 141.21 523.212L140.831 523.025L140.914 522.61C145.398 500.103 159.019 477.285 181.398 454.788L181.674 454.51L182.028 454.679C187.603 457.355 192.966 460.15 197.969 462.986C240.584 487.139 253.794 511.642 251.947 526.519C251.096 533.376 247.145 538.895 240.519 542.481C234.786 545.585 227.417 547.107 218.793 547.107ZM142.08 522.41C145.809 524.243 149.837 526.006 154.058 527.656C190.783 545.595 222.892 550.767 239.994 541.511C246.292 538.102 250.046 532.87 250.851 526.383C252.654 511.86 239.565 487.831 197.424 463.945C192.549 461.182 187.33 458.458 181.904 455.845C159.983 477.955 146.587 500.348 142.08 522.41Z" fill="#2E0044"/>
<g opacity="0.3">
<path opacity="0.3" fill-rule="evenodd" clip-rule="evenodd" d="M331.841 655.251C383.786 668.971 443.51 646.652 426.108 623.605C424.476 625.112 421.944 625.249 420.149 623.83C410.091 615.892 399.702 611.449 388.986 610.504C388.285 610.442 387.58 610.395 386.875 610.364C449.28 635.537 381.395 654.687 340.476 642.468C334.253 639.656 329.06 628.111 324.897 607.834C324.77 613.963 324.477 619.494 324.019 624.424C324.044 629.894 324.249 634.571 324.64 638.452C324.296 638.838 323.956 639.218 323.622 639.596C324.563 646.279 327.827 653.71 331.841 655.251Z" fill="#2E0044"/>
</g>
<g opacity="0.3">
<path opacity="0.3" fill-rule="evenodd" clip-rule="evenodd" d="M234.973 526.453C218.931 536.662 183.374 530.316 154.155 513.053C151.297 511.365 148.499 509.573 145.784 507.68C142.468 505.366 139.276 502.903 136.255 500.304C117.381 484.046 105.191 462.369 110.5 437.636C93.2683 473.448 101.857 500.902 136.263 519.998C137.932 520.927 139.662 521.833 141.455 522.719C144.043 524.003 146.761 525.243 149.603 526.445C150.992 527.027 152.409 527.607 153.857 528.172C212.637 556.886 248.652 548.588 251.399 526.453H246.743H246.111C246.378 525.567 246.663 524.663 246.958 523.744C247.873 520.933 248.927 517.978 250.127 514.879C248.562 509.889 245.707 504.527 241.489 498.957C242.969 503.416 243.621 507.372 243.546 510.858C243.399 517.972 240.235 523.104 234.973 526.453Z" fill="#2E0044"/>
</g>
<g opacity="0.3">
<path opacity="0.3" fill-rule="evenodd" clip-rule="evenodd" d="M156.381 540.377C153.096 538.876 149.745 537.255 146.336 535.515C145.551 536.426 144.797 537.356 144.074 538.309C125.646 562.943 129.131 594.685 135.67 622.793C142.623 619.274 147.349 618.044 153.407 618.114C147.225 594.04 144.981 563.414 156.381 540.377Z" fill="#2E0044"/>
</g>
<g opacity="0.3">
<path opacity="0.3" fill-rule="evenodd" clip-rule="evenodd" d="M197.445 655.013C135.436 662.465 119.549 650.609 151.124 626.837C143.949 628.085 137.416 631.332 131.521 636.57C129.734 638.16 127.045 638.105 125.324 636.508C100.527 666.007 159.388 676.564 212.563 663.498C215.882 660.935 217.897 657.237 219.066 652.91C219.348 651.862 219.584 650.777 219.773 649.661C220.211 641.277 220.138 631.314 219.558 619.766C219.496 618.885 219.431 617.982 219.363 617.063C218.332 641.088 211.029 653.734 197.445 655.013Z" fill="#2E0044"/>
</g>
<g opacity="0.3">
<path opacity="0.3" fill-rule="evenodd" clip-rule="evenodd" d="M378.909 291.295C379.054 295.596 378.751 298.698 377.997 300.606C396.703 304.143 410.491 300.766 419.36 290.477C401.947 295.166 388.464 295.438 378.909 291.295Z" fill="#2E0044"/>
</g>
<g opacity="0.5">
<path opacity="0.5" fill-rule="evenodd" clip-rule="evenodd" d="M11.1426 453.184C40.3855 424.562 70.4803 437.778 101.428 492.83C69.2397 452.99 39.1444 439.774 11.1426 453.184Z" fill="white"/>
</g>
<path d="M134.657 622.904C134.121 622.904 133.582 622.808 133.065 622.611C86.7292 604.894 77.3197 576.799 69.0185 552.011C61.427 529.342 54.8704 509.761 23.1626 497.861C6.28835 492.841 -3.5589 475.03 1.19808 458.072C5.74038 441.872 19.9596 432.343 38.3088 433.199C67.597 434.568 101.947 461.792 110.931 511.179C114.14 528.824 123.521 541.517 138.061 547.887C140.23 548.838 141.277 551.318 140.443 553.534C133.615 571.688 133.126 593.177 138.989 617.404C139.378 619.011 138.844 620.702 137.6 621.795C136.773 622.522 135.722 622.904 134.657 622.904ZM36.0293 442.054C22.7849 442.054 13.0424 448.844 9.77999 460.476C6.31993 472.811 13.5172 485.767 25.8245 489.359C25.9296 489.39 26.0336 489.424 26.1361 489.462C61.9511 502.845 69.8403 526.402 77.4703 549.183C85.0042 571.682 92.7804 594.896 128.509 611.07C124.552 590.082 125.303 571.022 130.752 554.249C115.499 546.201 105.648 531.947 102.161 512.772C94.0104 467.965 63.6603 443.302 37.8927 442.098C37.2648 442.069 36.6424 442.054 36.0293 442.054Z" fill="#2E0044"/>
<path d="M218.624 551.076C200.536 551.077 177.547 544.68 152.064 532.252C147.626 530.512 143.392 528.647 139.477 526.709C137.673 525.816 136.692 523.823 137.085 521.849C141.722 498.576 155.699 475.089 178.63 452.039C179.967 450.692 182.009 450.343 183.719 451.163C189.374 453.877 194.816 456.713 199.896 459.593C236.947 480.592 258.377 506.421 255.823 527C254.81 535.162 250.161 541.702 242.379 545.913C235.99 549.372 227.958 551.076 218.624 551.076ZM146.567 520.229C149.4 521.542 152.385 522.813 155.481 524.023C155.594 524.067 155.705 524.116 155.815 524.169C191.367 541.537 222.14 546.737 238.135 538.081C243.35 535.257 246.325 531.16 246.977 525.903C248.55 513.239 236.011 490.302 195.498 467.341C191.456 465.048 187.171 462.784 182.724 460.587C163.472 480.494 151.326 500.531 146.567 520.229Z" fill="#2E0044"/>
</g>
<defs>
<clipPath id="clip0_11:19349">
<rect width="468" height="699" fill="white"/>
</clipPath>
</defs>
</svg>
